<?xml version="1.0" standalone="no"?>
 <!DOCTYPE svg PUBLIC "-//W3C//DTD SVG 1.1//EN" 
 "http://www.w3.org/Graphics/SVG/1.1/DTD/svg11.dtd"> 
<svg
  xmlns:svg="http://www.w3.org/2000/svg"
  xmlns="http://www.w3.org/2000/svg"
  xmlns:xlink="http://www.w3.org/1999/xlink"
  version="1.1"
  width="55.880000cm" height="27.940000cm" viewBox="0 0 220000 110000">
<title>SVG Picture created as BackPanel-F_SilkS.svg date 2020/12/29 12:47:42 </title>
  <desc>Picture generated by PCBNEW </desc>
<g style="fill:#000000; fill-opacity:1;stroke:#000000; stroke-opacity:1;
stroke-linecap:round; stroke-linejoin:round;"
 transform="translate(0 0) scale(1 1)">
</g>
<g style="fill:#000000; fill-opacity:0.0; 
stroke:#000000; stroke-width:-0.000393701; stroke-opacity:1; 
stroke-linecap:round; stroke-linejoin:round;">
</g>
<g style="fill:#000000; fill-opacity:0.0; 
stroke:#000000; stroke-width:196.85; stroke-opacity:1; 
stroke-linecap:round; stroke-linejoin:round;">
<text x="75000" y="55984.3"
textLength="15441.5" font-size="2624.67" lengthAdjust="spacingAndGlyphs"
text-anchor="middle" opacity="0">MIDI THRU</text>
<path d="M67875 55890
L67875 53922
L68532 55328
L69188 53922
L69188 55890
" />
<path d="M70125 55890
L70125 53922
" />
<path d="M71062 55890
L71062 53922
L71531 53922
L71812 54015
L72000 54203
L72094 54390
L72187 54765
L72187 55046
L72094 55421
L72000 55609
L71812 55796
L71531 55890
L71062 55890
" />
<path d="M73031 55890
L73031 53922
" />
<path d="M75187 53922
L76312 53922
" />
<path d="M75749 55890
L75749 53922
" />
<path d="M76968 55890
L76968 53922
" />
<path d="M76968 54859
L78093 54859
" />
<path d="M78093 55890
L78093 53922
" />
<path d="M80155 55890
L79499 54953
" />
<path d="M79030 55890
L79030 53922
L79780 53922
L79968 54015
L80061 54109
L80155 54296
L80155 54578
L80061 54765
L79968 54859
L79780 54953
L79030 54953
" />
<path d="M80999 53922
L80999 55515
L81092 55703
L81186 55796
L81374 55890
L81749 55890
L81936 55796
L82030 55703
L82124 55515
L82124 53922
" />
<text x="93000" y="55984.3"
textLength="10848.3" font-size="2624.67" lengthAdjust="spacingAndGlyphs"
text-anchor="middle" opacity="0">MIDI IN</text>
<path d="M88172 55890
L88172 53922
L88828 55328
L89484 53922
L89484 55890
" />
<path d="M90422 55890
L90422 53922
" />
<path d="M91359 55890
L91359 53922
L91828 53922
L92109 54015
L92296 54203
L92390 54390
L92484 54765
L92484 55046
L92390 55421
L92296 55609
L92109 55796
L91828 55890
L91359 55890
" />
<path d="M93328 55890
L93328 53922
" />
<path d="M95765 55890
L95765 53922
" />
<path d="M96702 55890
L96702 53922
L97827 55890
L97827 53922
" />
<text x="30000" y="51984.3"
textLength="10285.9" font-size="2624.67" lengthAdjust="spacingAndGlyphs"
text-anchor="middle" opacity="0">POWER</text>
<path d="M25453 51890
L25453 49922
L26203 49922
L26391 50015
L26484 50109
L26578 50296
L26578 50578
L26484 50765
L26391 50859
L26203 50953
L25453 50953
" />
<path d="M27797 49922
L28172 49922
L28359 50015
L28547 50203
L28640 50578
L28640 51234
L28547 51609
L28359 51796
L28172 51890
L27797 51890
L27609 51796
L27422 51609
L27328 51234
L27328 50578
L27422 50203
L27609 50015
L27797 49922
" />
<path d="M29296 49922
L29765 51890
L30140 50484
L30515 51890
L30984 49922
" />
<path d="M31734 50859
L32390 50859
" />
<path d="M32671 51890
L31734 51890
L31734 49922
L32671 49922
" />
<path d="M34640 51890
L33983 50953
" />
<path d="M33515 51890
L33515 49922
L34265 49922
L34452 50015
L34546 50109
L34640 50296
L34640 50578
L34546 50765
L34452 50859
L34265 50953
L33515 50953
" />
<g >
</g>
</g> 
</svg>
