<?xml version="1.0" standalone="no"?>
 <!DOCTYPE svg PUBLIC "-//W3C//DTD SVG 1.1//EN" 
 "http://www.w3.org/Graphics/SVG/1.1/DTD/svg11.dtd"> 
<svg
  xmlns:svg="http://www.w3.org/2000/svg"
  xmlns="http://www.w3.org/2000/svg"
  xmlns:xlink="http://www.w3.org/1999/xlink"
  version="1.1"
  width="55.880000cm" height="27.940000cm" viewBox="0 0 220000 110000">
<title>SVG Picture created as BackPanel-F_Mask.svg date 2020/12/29 12:47:42 </title>
  <desc>Picture generated by PCBNEW </desc>
<g style="fill:#000000; fill-opacity:1;stroke:#000000; stroke-opacity:1;
stroke-linecap:round; stroke-linejoin:round;"
 transform="translate(0 0) scale(1 1)">
</g>
<g style="fill:#000000; fill-opacity:0.0; 
stroke:#000000; stroke-width:-0.000393701; stroke-opacity:1; 
stroke-linecap:round; stroke-linejoin:round;">
</g>
<g style="fill:#000000; fill-opacity:0.0; 
stroke:#000000; stroke-width:59.0551; stroke-opacity:1; 
stroke-linecap:round; stroke-linejoin:round;">
<circle cx="114980" cy="80000" r="787.402" /> 
<circle cx="114980" cy="25000" r="787.402" /> 
<circle cx="104980" cy="25000" r="787.402" /> 
<circle cx="104980" cy="80000" r="787.402" /> 
<circle cx="55000" cy="80000" r="787.402" /> 
<circle cx="207500" cy="25000" r="787.402" /> 
<circle cx="207500" cy="80000" r="787.402" /> 
<circle cx="12500" cy="79409.4" r="787.402" /> 
<circle cx="12500" cy="25000" r="787.402" /> 
<circle cx="79429.1" cy="61000" r="629.921" /> 
<circle cx="70570.9" cy="61000" r="629.921" /> 
<circle cx="75000" cy="61000" r="2952.76" /> 
<circle cx="97429.1" cy="61000" r="629.921" /> 
<circle cx="88570.9" cy="61000" r="629.921" /> 
<circle cx="93000" cy="61000" r="2952.76" /> 
<circle cx="21118.1" cy="60622" r="688.976" /> 
<circle cx="38716.5" cy="60622" r="688.976" /> 
<path d="M24543 54440
L24543 66803
" />
<path d="M35291 54440
L24543 54440
" />
<path d="M35291 66803
L35291 54440
" />
<path d="M24543 66803
L35291 66803
" />
<path d="M7500 85000
L7500 20000
" />
<path d="M212500 85000
L7500 85000
" />
<path d="M212500 20000
L212500 85000
" />
<path d="M7500 20000
L212500 20000
" />
<g >
</g>
<g >
</g>
<g >
</g>
</g> 
</svg>
