<?xml version="1.0" standalone="no"?>
 <!DOCTYPE svg PUBLIC "-//W3C//DTD SVG 1.1//EN" 
 "http://www.w3.org/Graphics/SVG/1.1/DTD/svg11.dtd"> 
<svg
  xmlns:svg="http://www.w3.org/2000/svg"
  xmlns="http://www.w3.org/2000/svg"
  xmlns:xlink="http://www.w3.org/1999/xlink"
  version="1.1"
  width="55.880000cm" height="27.940000cm" viewBox="0 0 220000 110000">
<title>SVG Picture created as FrontPanel-F_SilkS.svg date 2020/12/29 12:47:18 </title>
  <desc>Picture generated by PCBNEW </desc>
<g style="fill:#000000; fill-opacity:1;stroke:#000000; stroke-opacity:1;
stroke-linecap:round; stroke-linejoin:round;"
 transform="translate(0 0) scale(1 1)">
</g>
<g style="fill:#000000; fill-opacity:0.0; 
stroke:#000000; stroke-width:-0.000393701; stroke-opacity:1; 
stroke-linecap:round; stroke-linejoin:round;">
</g>
<g style="fill:#000000; fill-opacity:0.0; 
stroke:#000000; stroke-width:196.85; stroke-opacity:1; 
stroke-linecap:round; stroke-linejoin:round;">
<path d="M120000 50000
L120000 45000
" />
<path d="M12500 32500
L12500 27500
" />
<path d="M178125 57500
L177500 58125
" />
<path d="M177500 58125
L176875 57500
" />
<path d="M177500 56250
L177500 58125
" />
<text x="60000" y="78981.3"
textLength="6186.73" font-size="1574.8" lengthAdjust="spacingAndGlyphs"
text-anchor="middle" opacity="0">VOICES</text>
<path d="M57019 77743
L57412 78925
L57806 77743
" />
<path d="M58425 77743
L58650 77743
L58762 77800
L58875 77912
L58931 78137
L58931 78531
L58875 78756
L58762 78868
L58650 78925
L58425 78925
L58312 78868
L58200 78756
L58143 78531
L58143 78137
L58200 77912
L58312 77800
L58425 77743
" />
<path d="M59437 78925
L59437 77743
" />
<path d="M60674 78812
L60618 78868
L60449 78925
L60337 78925
L60168 78868
L60056 78756
L60000 78643
L59943 78418
L59943 78250
L60000 78025
L60056 77912
L60168 77800
L60337 77743
L60449 77743
L60618 77800
L60674 77856
" />
<path d="M61181 78306
L61574 78306
" />
<path d="M61743 78925
L61181 78925
L61181 77743
L61743 77743
" />
<path d="M62193 78868
L62362 78925
L62643 78925
L62755 78868
L62812 78812
L62868 78700
L62868 78587
L62812 78475
L62755 78418
L62643 78362
L62418 78306
L62305 78250
L62249 78193
L62193 78081
L62193 77968
L62249 77856
L62305 77800
L62418 77743
L62699 77743
L62868 77800
" />
<text x="60000" y="80949.8"
textLength="7230.03" font-size="1574.8" lengthAdjust="spacingAndGlyphs"
text-anchor="middle" opacity="0">&amp; PERC</text>
<path d="M57750 80893
L57694 80893
L57581 80837
L57412 80668
L57131 80331
L57019 80162
L56962 79993
L56962 79881
L57019 79768
L57131 79712
L57187 79712
L57300 79768
L57356 79881
L57356 79937
L57300 80049
L57244 80106
L56906 80331
L56850 80387
L56794 80499
L56794 80668
L56850 80781
L56906 80837
L57019 80893
L57187 80893
L57300 80837
L57356 80781
L57525 80556
L57581 80387
L57581 80274
" />
<path d="M59156 80893
L59156 79712
L59606 79712
L59718 79768
L59775 79824
L59831 79937
L59831 80106
L59775 80218
L59718 80274
L59606 80331
L59156 80331
" />
<path d="M60337 80274
L60731 80274
" />
<path d="M60899 80893
L60337 80893
L60337 79712
L60899 79712
" />
<path d="M62080 80893
L61687 80331
" />
<path d="M61406 80893
L61406 79712
L61856 79712
L61968 79768
L62024 79824
L62080 79937
L62080 80106
L62024 80218
L61968 80274
L61856 80331
L61406 80331
" />
<path d="M63262 80781
L63205 80837
L63037 80893
L62924 80893
L62755 80837
L62643 80724
L62587 80612
L62530 80387
L62530 80218
L62587 79993
L62643 79881
L62755 79768
L62924 79712
L63037 79712
L63205 79768
L63262 79824
" />
<text x="60000" y="72465.6"
textLength="6442.63" font-size="1574.8" lengthAdjust="spacingAndGlyphs"
text-anchor="middle" opacity="0">VOICES</text>
<path d="M57019 71228
L57412 72409
L57806 71228
" />
<path d="M58425 71228
L58650 71228
L58762 71284
L58875 71396
L58931 71621
L58931 72015
L58875 72240
L58762 72353
L58650 72409
L58425 72409
L58312 72353
L58200 72240
L58143 72015
L58143 71621
L58200 71396
L58312 71284
L58425 71228
" />
<path d="M59437 72409
L59437 71228
" />
<path d="M60674 72296
L60618 72353
L60449 72409
L60337 72409
L60168 72353
L60056 72240
L60000 72128
L59943 71903
L59943 71734
L60000 71509
L60056 71396
L60168 71284
L60337 71228
L60449 71228
L60618 71284
L60674 71340
" />
<path d="M61181 71790
L61574 71790
" />
<path d="M61743 72409
L61181 72409
L61181 71228
L61743 71228
" />
<path d="M62193 72353
L62362 72409
L62643 72409
L62755 72353
L62812 72296
L62868 72184
L62868 72071
L62812 71959
L62755 71903
L62643 71846
L62418 71790
L62305 71734
L62249 71678
L62193 71565
L62193 71453
L62249 71340
L62305 71284
L62418 71228
L62699 71228
L62868 71284
" />
<text x="157500" y="82465.6"
textLength="5374.02" font-size="1574.8" lengthAdjust="spacingAndGlyphs"
text-anchor="middle" opacity="0">INPUT</text>
<path d="M155222 82409
L155222 81228
" />
<path d="M155784 82409
L155784 81228
L156459 82409
L156459 81228
" />
<path d="M157021 82409
L157021 81228
L157471 81228
L157584 81284
L157640 81340
L157696 81453
L157696 81621
L157640 81734
L157584 81790
L157471 81846
L157021 81846
" />
<path d="M158203 81228
L158203 82184
L158259 82296
L158315 82353
L158428 82409
L158652 82409
L158765 82353
L158821 82296
L158877 82184
L158877 81228
" />
<path d="M159271 81228
L159946 81228
" />
<path d="M159609 82409
L159609 81228
" />
<text x="127500" y="82465.6"
textLength="5374.02" font-size="1574.8" lengthAdjust="spacingAndGlyphs"
text-anchor="middle" opacity="0">INPUT</text>
<path d="M125222 82409
L125222 81228
" />
<path d="M125784 82409
L125784 81228
L126459 82409
L126459 81228
" />
<path d="M127021 82409
L127021 81228
L127471 81228
L127584 81284
L127640 81340
L127696 81453
L127696 81621
L127640 81734
L127584 81790
L127471 81846
L127021 81846
" />
<path d="M128203 81228
L128203 82184
L128259 82296
L128315 82353
L128428 82409
L128652 82409
L128765 82353
L128821 82296
L128877 82184
L128877 81228
" />
<path d="M129271 81228
L129946 81228
" />
<path d="M129609 82409
L129609 81228
" />
</g>
<g style="fill:#000000; fill-opacity:0.0; 
stroke:#000000; stroke-width:393.701; stroke-opacity:1; 
stroke-linecap:round; stroke-linejoin:round;">
<text x="17500" y="80984.3"
textLength="14155.3" font-size="2624.67" lengthAdjust="spacingAndGlyphs"
text-anchor="start" opacity="0">ZFXS-01</text>
<path d="M18294 78922
L19607 78922
L18048 80890
L19361 80890
" />
<path d="M20896 79859
L20239 79859
" />
<path d="M20111 80890
L20357 78922
L21294 78922
" />
<path d="M21856 78922
L22923 80890
" />
<path d="M23169 78922
L21610 80890
" />
<path d="M23591 80796
L23860 80890
L24329 80890
L24528 80796
L24633 80703
L24751 80515
L24774 80328
L24704 80140
L24622 80046
L24446 79953
L24083 79859
L23907 79765
L23825 79671
L23755 79484
L23778 79296
L23895 79109
L24001 79015
L24200 78922
L24669 78922
L24938 79015
" />
<path d="M25641 80140
L27141 80140
" />
<path d="M28606 78922
L28793 78922
L28969 79015
L29051 79109
L29121 79296
L29168 79671
L29109 80140
L28969 80515
L28852 80703
L28746 80796
L28547 80890
L28360 80890
L28184 80796
L28102 80703
L28031 80515
L27985 80140
L28043 79671
L28184 79296
L28301 79109
L28406 79015
L28606 78922
" />
<path d="M30890 80890
L29766 80890
" />
<path d="M30328 80890
L30574 78922
L30351 79203
L30141 79390
L29941 79484
" />
</g>
<g style="fill:#000000; fill-opacity:0.0; 
stroke:#000000; stroke-width:196.85; stroke-opacity:1; 
stroke-linecap:round; stroke-linejoin:round;">
<text x="202500" y="67465.6"
textLength="3886.39" font-size="1574.8" lengthAdjust="spacingAndGlyphs"
text-anchor="middle" opacity="0">OUT</text>
<path d="M201318 66228
L201543 66228
L201656 66284
L201768 66396
L201825 66621
L201825 67015
L201768 67240
L201656 67353
L201543 67409
L201318 67409
L201206 67353
L201093 67240
L201037 67015
L201037 66621
L201093 66396
L201206 66284
L201318 66228
" />
<path d="M202331 66228
L202331 67184
L202387 67296
L202443 67353
L202556 67409
L202781 67409
L202893 67353
L202949 67296
L203006 67184
L203006 66228
" />
<path d="M203399 66228
L204074 66228
" />
<path d="M203737 67409
L203737 66228
" />
<text x="192500" y="67465.6"
textLength="3630.48" font-size="1574.8" lengthAdjust="spacingAndGlyphs"
text-anchor="middle" opacity="0">OUT</text>
<path d="M191318 66228
L191543 66228
L191656 66284
L191768 66396
L191825 66621
L191825 67015
L191768 67240
L191656 67353
L191543 67409
L191318 67409
L191206 67353
L191093 67240
L191037 67015
L191037 66621
L191093 66396
L191206 66284
L191318 66228
" />
<path d="M192331 66228
L192331 67184
L192387 67296
L192443 67353
L192556 67409
L192781 67409
L192893 67353
L192949 67296
L193006 67184
L193006 66228
" />
<path d="M193399 66228
L194074 66228
" />
<path d="M193737 67409
L193737 66228
" />
<text x="200000" y="52465.6"
textLength="2955.57" font-size="1574.8" lengthAdjust="spacingAndGlyphs"
text-anchor="middle" opacity="0">INT</text>
<path d="M198931 52409
L198931 51228
" />
<path d="M199493 52409
L199493 51228
L200168 52409
L200168 51228
" />
<path d="M200562 51228
L201237 51228
" />
<path d="M200899 52409
L200899 51228
" />
<text x="197500" y="58715.6"
textLength="8186.16" font-size="1574.8" lengthAdjust="spacingAndGlyphs"
text-anchor="middle" opacity="0">-NORM-</text>
<path d="M193816 58209
L194715 58209
" />
<path d="M195278 58659
L195278 57478
L195953 58659
L195953 57478
" />
<path d="M196740 57478
L196965 57478
L197078 57534
L197190 57646
L197246 57871
L197246 58265
L197190 58490
L197078 58603
L196965 58659
L196740 58659
L196628 58603
L196515 58490
L196459 58265
L196459 57871
L196515 57646
L196628 57534
L196740 57478
" />
<path d="M198428 58659
L198034 58096
" />
<path d="M197753 58659
L197753 57478
L198203 57478
L198315 57534
L198371 57590
L198428 57703
L198428 57871
L198371 57984
L198315 58040
L198203 58096
L197753 58096
" />
<path d="M198934 58659
L198934 57478
L199327 58321
L199721 57478
L199721 58659
" />
<path d="M200284 58209
L201183 58209
" />
<text x="195000" y="52465.6"
textLength="3011.81" font-size="1574.8" lengthAdjust="spacingAndGlyphs"
text-anchor="middle" opacity="0">DIF</text>
<path d="M193903 52409
L193903 51228
L194184 51228
L194353 51284
L194465 51396
L194521 51509
L194578 51734
L194578 51903
L194521 52128
L194465 52240
L194353 52353
L194184 52409
L193903 52409
" />
<path d="M195084 52409
L195084 51228
" />
<path d="M196040 51790
L195646 51790
" />
<path d="M195646 52409
L195646 51228
L196209 51228
" />
<text x="177500" y="81215.6"
textLength="3630.48" font-size="1574.8" lengthAdjust="spacingAndGlyphs"
text-anchor="middle" opacity="0">OUT</text>
<path d="M176318 79978
L176543 79978
L176656 80034
L176768 80146
L176825 80371
L176825 80765
L176768 80990
L176656 81103
L176543 81159
L176318 81159
L176206 81103
L176093 80990
L176037 80765
L176037 80371
L176093 80146
L176206 80034
L176318 79978
" />
<path d="M177331 79978
L177331 80934
L177387 81046
L177443 81103
L177556 81159
L177781 81159
L177893 81103
L177949 81046
L178006 80934
L178006 79978
" />
<path d="M178399 79978
L179074 79978
" />
<path d="M178737 81159
L178737 79978
" />
<text x="177500" y="74965.6"
textLength="7567.49" font-size="1574.8" lengthAdjust="spacingAndGlyphs"
text-anchor="middle" opacity="0">STAGE 1</text>
<path d="M174069 74853
L174237 74909
L174519 74909
L174631 74853
L174687 74796
L174744 74684
L174744 74571
L174687 74459
L174631 74403
L174519 74346
L174294 74290
L174181 74234
L174125 74178
L174069 74065
L174069 73953
L174125 73840
L174181 73784
L174294 73728
L174575 73728
L174744 73784
" />
<path d="M175081 73728
L175756 73728
" />
<path d="M175419 74909
L175419 73728
" />
<path d="M176093 74571
L176656 74571
" />
<path d="M175981 74909
L176375 73728
L176768 74909
" />
<path d="M177781 73784
L177668 73728
L177500 73728
L177331 73784
L177218 73896
L177162 74009
L177106 74234
L177106 74403
L177162 74628
L177218 74740
L177331 74853
L177500 74909
L177612 74909
L177781 74853
L177837 74796
L177837 74403
L177612 74403
" />
<path d="M178343 74290
L178737 74290
" />
<path d="M178906 74909
L178343 74909
L178343 73728
L178906 73728
" />
<path d="M180930 74909
L180255 74909
" />
<path d="M180593 74909
L180593 73728
L180480 73896
L180368 74009
L180255 74065
" />
<text x="167500" y="82465.6"
textLength="4249.16" font-size="1574.8" lengthAdjust="spacingAndGlyphs"
text-anchor="middle" opacity="0">GAIN</text>
<path d="M166403 81284
L166290 81228
L166122 81228
L165953 81284
L165840 81396
L165784 81509
L165728 81734
L165728 81903
L165784 82128
L165840 82240
L165953 82353
L166122 82409
L166234 82409
L166403 82353
L166459 82296
L166459 81903
L166234 81903
" />
<path d="M166909 82071
L167471 82071
" />
<path d="M166796 82409
L167190 81228
L167584 82409
" />
<path d="M167978 82409
L167978 81228
" />
<path d="M168540 82409
L168540 81228
L169215 82409
L169215 81228
" />
<text x="147500" y="74965.6"
textLength="7567.49" font-size="1574.8" lengthAdjust="spacingAndGlyphs"
text-anchor="middle" opacity="0">STAGE 1</text>
<path d="M144069 74853
L144237 74909
L144519 74909
L144631 74853
L144687 74796
L144744 74684
L144744 74571
L144687 74459
L144631 74403
L144519 74346
L144294 74290
L144181 74234
L144125 74178
L144069 74065
L144069 73953
L144125 73840
L144181 73784
L144294 73728
L144575 73728
L144744 73784
" />
<path d="M145081 73728
L145756 73728
" />
<path d="M145419 74909
L145419 73728
" />
<path d="M146093 74571
L146656 74571
" />
<path d="M145981 74909
L146375 73728
L146768 74909
" />
<path d="M147781 73784
L147668 73728
L147500 73728
L147331 73784
L147218 73896
L147162 74009
L147106 74234
L147106 74403
L147162 74628
L147218 74740
L147331 74853
L147500 74909
L147612 74909
L147781 74853
L147837 74796
L147837 74403
L147612 74403
" />
<path d="M148343 74290
L148737 74290
" />
<path d="M148906 74909
L148343 74909
L148343 73728
L148906 73728
" />
<path d="M150930 74909
L150255 74909
" />
<path d="M150593 74909
L150593 73728
L150480 73896
L150368 74009
L150255 74065
" />
<text x="147500" y="81215.6"
textLength="3630.48" font-size="1574.8" lengthAdjust="spacingAndGlyphs"
text-anchor="middle" opacity="0">OUT</text>
<path d="M146318 79978
L146543 79978
L146656 80034
L146768 80146
L146825 80371
L146825 80765
L146768 80990
L146656 81103
L146543 81159
L146318 81159
L146206 81103
L146093 80990
L146037 80765
L146037 80371
L146093 80146
L146206 80034
L146318 79978
" />
<path d="M147331 79978
L147331 80934
L147387 81046
L147443 81103
L147556 81159
L147781 81159
L147893 81103
L147949 81046
L148006 80934
L148006 79978
" />
<path d="M148399 79978
L149074 79978
" />
<path d="M148737 81159
L148737 79978
" />
<text x="137500" y="82465.6"
textLength="4249.16" font-size="1574.8" lengthAdjust="spacingAndGlyphs"
text-anchor="middle" opacity="0">GAIN</text>
<path d="M136403 81284
L136290 81228
L136122 81228
L135953 81284
L135840 81396
L135784 81509
L135728 81734
L135728 81903
L135784 82128
L135840 82240
L135953 82353
L136122 82409
L136234 82409
L136403 82353
L136459 82296
L136459 81903
L136234 81903
" />
<path d="M136909 82071
L137471 82071
" />
<path d="M136796 82409
L137190 81228
L137584 82409
" />
<path d="M137978 82409
L137978 81228
" />
<path d="M138540 82409
L138540 81228
L139215 82409
L139215 81228
" />
</g>
<g style="fill:#000000; fill-opacity:0.0; 
stroke:#000000; stroke-width:47.2441; stroke-opacity:1; 
stroke-linecap:round; stroke-linejoin:round;">
<circle cx="118750" cy="-23750" r="2952.76" /> 
</g>
<g style="fill:#000000; fill-opacity:0.0; 
stroke:#000000; stroke-width:196.85; stroke-opacity:1; 
stroke-linecap:round; stroke-linejoin:round;">
<text x="192500" y="36215.6"
textLength="5936.45" font-size="1574.8" lengthAdjust="spacingAndGlyphs"
text-anchor="middle" opacity="0">SHORT</text>
<path d="M189884 36103
L190053 36159
L190334 36159
L190447 36103
L190503 36046
L190559 35934
L190559 35821
L190503 35709
L190447 35653
L190334 35596
L190109 35540
L189997 35484
L189940 35428
L189884 35315
L189884 35203
L189940 35090
L189997 35034
L190109 34978
L190390 34978
L190559 35034
" />
<path d="M191065 36159
L191065 34978
" />
<path d="M191065 35540
L191740 35540
" />
<path d="M191740 36159
L191740 34978
" />
<path d="M192528 34978
L192753 34978
L192865 35034
L192978 35146
L193034 35371
L193034 35765
L192978 35990
L192865 36103
L192753 36159
L192528 36159
L192415 36103
L192303 35990
L192246 35765
L192246 35371
L192303 35146
L192415 35034
L192528 34978
" />
<path d="M194215 36159
L193821 35596
" />
<path d="M193540 36159
L193540 34978
L193990 34978
L194102 35034
L194159 35090
L194215 35203
L194215 35371
L194159 35484
L194102 35540
L193990 35596
L193540 35596
" />
<path d="M194552 34978
L195227 34978
" />
<path d="M194890 36159
L194890 34978
" />
<text x="200000" y="36215.6"
textLength="4080.43" font-size="1574.8" lengthAdjust="spacingAndGlyphs"
text-anchor="middle" opacity="0">TRIG</text>
<path d="M198200 34978
L198875 34978
" />
<path d="M198537 36159
L198537 34978
" />
<path d="M199943 36159
L199550 35596
" />
<path d="M199268 36159
L199268 34978
L199718 34978
L199831 35034
L199887 35090
L199943 35203
L199943 35371
L199887 35484
L199831 35540
L199718 35596
L199268 35596
" />
<path d="M200449 36159
L200449 34978
" />
<path d="M201631 35034
L201518 34978
L201349 34978
L201181 35034
L201068 35146
L201012 35259
L200956 35484
L200956 35653
L201012 35878
L201068 35990
L201181 36103
L201349 36159
L201462 36159
L201631 36103
L201687 36046
L201687 35653
L201462 35653
" />
<text x="192500" y="29965.6"
textLength="4867.83" font-size="1574.8" lengthAdjust="spacingAndGlyphs"
text-anchor="middle" opacity="0">LONG</text>
<path d="M191037 29909
L190475 29909
L190475 28728
" />
<path d="M191656 28728
L191881 28728
L191993 28784
L192106 28896
L192162 29121
L192162 29515
L192106 29740
L191993 29853
L191881 29909
L191656 29909
L191543 29853
L191431 29740
L191375 29515
L191375 29121
L191431 28896
L191543 28784
L191656 28728
" />
<path d="M192668 29909
L192668 28728
L193343 29909
L193343 28728
" />
<path d="M194524 28784
L194412 28728
L194243 28728
L194074 28784
L193962 28896
L193906 29009
L193849 29234
L193849 29403
L193906 29628
L193962 29740
L194074 29853
L194243 29909
L194356 29909
L194524 29853
L194580 29796
L194580 29403
L194356 29403
" />
<text x="185000" y="36215.6"
textLength="6892.58" font-size="1574.8" lengthAdjust="spacingAndGlyphs"
text-anchor="middle" opacity="0">BYPASS</text>
<path d="M182356 35540
L182525 35596
L182581 35653
L182637 35765
L182637 35934
L182581 36046
L182525 36103
L182412 36159
L181962 36159
L181962 34978
L182356 34978
L182469 35034
L182525 35090
L182581 35203
L182581 35315
L182525 35428
L182469 35484
L182356 35540
L181962 35540
" />
<path d="M183368 35596
L183368 36159
" />
<path d="M182975 34978
L183368 35596
L183762 34978
" />
<path d="M184156 36159
L184156 34978
L184606 34978
L184718 35034
L184775 35090
L184831 35203
L184831 35371
L184775 35484
L184718 35540
L184606 35596
L184156 35596
" />
<path d="M185281 35821
L185843 35821
" />
<path d="M185168 36159
L185562 34978
L185956 36159
" />
<path d="M186293 36103
L186462 36159
L186743 36159
L186856 36103
L186912 36046
L186968 35934
L186968 35821
L186912 35709
L186856 35653
L186743 35596
L186518 35540
L186406 35484
L186349 35428
L186293 35315
L186293 35203
L186349 35090
L186406 35034
L186518 34978
L186799 34978
L186968 35034
" />
<path d="M187418 36103
L187587 36159
L187868 36159
L187980 36103
L188037 36046
L188093 35934
L188093 35821
L188037 35709
L187980 35653
L187868 35596
L187643 35540
L187530 35484
L187474 35428
L187418 35315
L187418 35203
L187474 35090
L187530 35034
L187643 34978
L187924 34978
L188093 35034
" />
<text x="177500" y="59965.6"
textLength="7061.3" font-size="1574.8" lengthAdjust="spacingAndGlyphs"
text-anchor="middle" opacity="0">MANUAL</text>
<path d="M174378 59909
L174378 58728
L174772 59571
L175165 58728
L175165 59909
" />
<path d="M175672 59571
L176234 59571
" />
<path d="M175559 59909
L175953 58728
L176347 59909
" />
<path d="M176740 59909
L176740 58728
L177415 59909
L177415 58728
" />
<path d="M177978 58728
L177978 59684
L178034 59796
L178090 59853
L178203 59909
L178428 59909
L178540 59853
L178596 59796
L178652 59684
L178652 58728
" />
<path d="M179159 59571
L179721 59571
" />
<path d="M179046 59909
L179440 58728
L179834 59909
" />
<path d="M180790 59909
L180227 59909
L180227 58728
" />
<text x="177500" y="66215.6"
textLength="4642.86" font-size="1574.8" lengthAdjust="spacingAndGlyphs"
text-anchor="middle" opacity="0">AUTO</text>
<path d="M175531 65821
L176093 65821
" />
<path d="M175419 66159
L175812 64978
L176206 66159
" />
<path d="M176600 64978
L176600 65934
L176656 66046
L176712 66103
L176825 66159
L177050 66159
L177162 66103
L177218 66046
L177275 65934
L177275 64978
" />
<path d="M177668 64978
L178343 64978
" />
<path d="M178006 66159
L178006 64978
" />
<path d="M178962 64978
L179187 64978
L179299 65034
L179412 65146
L179468 65371
L179468 65765
L179412 65990
L179299 66103
L179187 66159
L178962 66159
L178849 66103
L178737 65990
L178681 65765
L178681 65371
L178737 65146
L178849 65034
L178962 64978
" />
<text x="137500" y="66215.6"
textLength="4080.43" font-size="1574.8" lengthAdjust="spacingAndGlyphs"
text-anchor="middle" opacity="0">TRIG</text>
<path d="M135700 64978
L136375 64978
" />
<path d="M136037 66159
L136037 64978
" />
<path d="M137443 66159
L137050 65596
" />
<path d="M136768 66159
L136768 64978
L137218 64978
L137331 65034
L137387 65090
L137443 65203
L137443 65371
L137387 65484
L137331 65540
L137218 65596
L136768 65596
" />
<path d="M137949 66159
L137949 64978
" />
<path d="M139131 65034
L139018 64978
L138849 64978
L138681 65034
L138568 65146
L138512 65259
L138456 65484
L138456 65653
L138512 65878
L138568 65990
L138681 66103
L138849 66159
L138962 66159
L139131 66103
L139187 66046
L139187 65653
L138962 65653
" />
<text x="127500" y="66215.6"
textLength="5936.45" font-size="1574.8" lengthAdjust="spacingAndGlyphs"
text-anchor="middle" opacity="0">SHORT</text>
<path d="M124884 66103
L125053 66159
L125334 66159
L125447 66103
L125503 66046
L125559 65934
L125559 65821
L125503 65709
L125447 65653
L125334 65596
L125109 65540
L124997 65484
L124940 65428
L124884 65315
L124884 65203
L124940 65090
L124997 65034
L125109 64978
L125390 64978
L125559 65034
" />
<path d="M126065 66159
L126065 64978
" />
<path d="M126065 65540
L126740 65540
" />
<path d="M126740 66159
L126740 64978
" />
<path d="M127528 64978
L127753 64978
L127865 65034
L127978 65146
L128034 65371
L128034 65765
L127978 65990
L127865 66103
L127753 66159
L127528 66159
L127415 66103
L127303 65990
L127246 65765
L127246 65371
L127303 65146
L127415 65034
L127528 64978
" />
<path d="M129215 66159
L128821 65596
" />
<path d="M128540 66159
L128540 64978
L128990 64978
L129102 65034
L129159 65090
L129215 65203
L129215 65371
L129159 65484
L129102 65540
L128990 65596
L128540 65596
" />
<path d="M129552 64978
L130227 64978
" />
<path d="M129890 66159
L129890 64978
" />
<text x="165000" y="59965.6"
textLength="3799.21" font-size="1574.8" lengthAdjust="spacingAndGlyphs"
text-anchor="middle" opacity="0">LOW</text>
<path d="M164071 59909
L163509 59909
L163509 58728
" />
<path d="M164690 58728
L164915 58728
L165028 58784
L165140 58896
L165196 59121
L165196 59515
L165140 59740
L165028 59853
L164915 59909
L164690 59909
L164578 59853
L164465 59740
L164409 59515
L164409 59121
L164465 58896
L164578 58784
L164690 58728
" />
<path d="M165590 58728
L165871 59909
L166096 59065
L166321 59909
L166602 58728
" />
<text x="157500" y="59965.6"
textLength="4474.13" font-size="1574.8" lengthAdjust="spacingAndGlyphs"
text-anchor="middle" opacity="0">HIGH</text>
<path d="M155672 59909
L155672 58728
" />
<path d="M155672 59290
L156347 59290
" />
<path d="M156347 59909
L156347 58728
" />
<path d="M156909 59909
L156909 58728
" />
<path d="M158090 58784
L157978 58728
L157809 58728
L157640 58784
L157528 58896
L157471 59009
L157415 59234
L157415 59403
L157471 59628
L157528 59740
L157640 59853
L157809 59909
L157921 59909
L158090 59853
L158146 59796
L158146 59403
L157921 59403
" />
<path d="M158652 59909
L158652 58728
" />
<path d="M158652 59290
L159327 59290
" />
<path d="M159327 59909
L159327 58728
" />
<text x="150000" y="59965.6"
textLength="3180.54" font-size="1574.8" lengthAdjust="spacingAndGlyphs"
text-anchor="middle" opacity="0">ALL</text>
<path d="M148762 59571
L149325 59571
" />
<path d="M148650 59909
L149043 58728
L149437 59909
" />
<path d="M150393 59909
L149831 59909
L149831 58728
" />
<path d="M151349 59909
L150787 59909
L150787 58728
" />
<text x="157500" y="66215.6"
textLength="15666.5" font-size="1574.8" lengthAdjust="spacingAndGlyphs"
text-anchor="middle" opacity="0">---BYPASS---</text>
<path d="M150075 65709
L150975 65709
" />
<path d="M151538 65709
L152438 65709
" />
<path d="M153000 65709
L153900 65709
" />
<path d="M154856 65540
L155025 65596
L155081 65653
L155137 65765
L155137 65934
L155081 66046
L155025 66103
L154912 66159
L154462 66159
L154462 64978
L154856 64978
L154969 65034
L155025 65090
L155081 65203
L155081 65315
L155025 65428
L154969 65484
L154856 65540
L154462 65540
" />
<path d="M155868 65596
L155868 66159
" />
<path d="M155475 64978
L155868 65596
L156262 64978
" />
<path d="M156656 66159
L156656 64978
L157106 64978
L157218 65034
L157275 65090
L157331 65203
L157331 65371
L157275 65484
L157218 65540
L157106 65596
L156656 65596
" />
<path d="M157781 65821
L158343 65821
" />
<path d="M157668 66159
L158062 64978
L158456 66159
" />
<path d="M158793 66103
L158962 66159
L159243 66159
L159356 66103
L159412 66046
L159468 65934
L159468 65821
L159412 65709
L159356 65653
L159243 65596
L159018 65540
L158906 65484
L158849 65428
L158793 65315
L158793 65203
L158849 65090
L158906 65034
L159018 64978
L159299 64978
L159468 65034
" />
<path d="M159918 66103
L160087 66159
L160368 66159
L160480 66103
L160537 66046
L160593 65934
L160593 65821
L160537 65709
L160480 65653
L160368 65596
L160143 65540
L160030 65484
L159974 65428
L159918 65315
L159918 65203
L159974 65090
L160030 65034
L160143 64978
L160424 64978
L160593 65034
" />
<path d="M161099 65709
L161999 65709
" />
<path d="M162561 65709
L163461 65709
" />
<path d="M164024 65709
L164924 65709
" />
<text x="127500" y="59965.6"
textLength="4867.83" font-size="1574.8" lengthAdjust="spacingAndGlyphs"
text-anchor="middle" opacity="0">LONG</text>
<path d="M126037 59909
L125475 59909
L125475 58728
" />
<path d="M126656 58728
L126881 58728
L126993 58784
L127106 58896
L127162 59121
L127162 59515
L127106 59740
L126993 59853
L126881 59909
L126656 59909
L126543 59853
L126431 59740
L126375 59515
L126375 59121
L126431 58896
L126543 58784
L126656 58728
" />
<path d="M127668 59909
L127668 58728
L128343 59909
L128343 58728
" />
<path d="M129524 58784
L129412 58728
L129243 58728
L129074 58784
L128962 58896
L128906 59009
L128849 59234
L128849 59403
L128906 59628
L128962 59740
L129074 59853
L129243 59909
L129356 59909
L129524 59853
L129580 59796
L129580 59403
L129356 59403
" />
<text x="177500" y="55590.6"
textLength="4755.34" font-size="1574.8" lengthAdjust="spacingAndGlyphs"
text-anchor="middle" opacity="0">FREQ</text>
<path d="M175925 54915
L175531 54915
" />
<path d="M175531 55534
L175531 54353
L176093 54353
" />
<path d="M177218 55534
L176825 54971
" />
<path d="M176543 55534
L176543 54353
L176993 54353
L177106 54409
L177162 54465
L177218 54578
L177218 54746
L177162 54859
L177106 54915
L176993 54971
L176543 54971
" />
<path d="M177724 54915
L178118 54915
" />
<path d="M178287 55534
L177724 55534
L177724 54353
L178287 54353
" />
<path d="M179580 55646
L179468 55590
L179356 55478
L179187 55309
L179074 55253
L178962 55253
" />
<path d="M179018 55534
L178906 55478
L178793 55365
L178737 55140
L178737 54746
L178793 54521
L178906 54409
L179018 54353
L179243 54353
L179356 54409
L179468 54521
L179524 54746
L179524 55140
L179468 55365
L179356 55478
L179243 55534
L179018 55534
" />
<text x="167500" y="55590.6"
textLength="3630.48" font-size="1574.8" lengthAdjust="spacingAndGlyphs"
text-anchor="middle" opacity="0">RES</text>
<path d="M166768 55534
L166375 54971
" />
<path d="M166093 55534
L166093 54353
L166543 54353
L166656 54409
L166712 54465
L166768 54578
L166768 54746
L166712 54859
L166656 54915
L166543 54971
L166093 54971
" />
<path d="M167275 54915
L167668 54915
" />
<path d="M167837 55534
L167275 55534
L167275 54353
L167837 54353
" />
<path d="M168287 55478
L168456 55534
L168737 55534
L168849 55478
L168906 55421
L168962 55309
L168962 55196
L168906 55084
L168849 55028
L168737 54971
L168512 54915
L168399 54859
L168343 54803
L168287 54690
L168287 54578
L168343 54465
L168399 54409
L168512 54353
L168793 54353
L168962 54409
" />
<text x="127500" y="55590.6"
textLength="6442.63" font-size="1574.8" lengthAdjust="spacingAndGlyphs"
text-anchor="middle" opacity="0">ATTACK</text>
<path d="M124631 55196
L125194 55196
" />
<path d="M124519 55534
L124912 54353
L125306 55534
" />
<path d="M125531 54353
L126206 54353
" />
<path d="M125868 55534
L125868 54353
" />
<path d="M126431 54353
L127106 54353
" />
<path d="M126768 55534
L126768 54353
" />
<path d="M127443 55196
L128006 55196
" />
<path d="M127331 55534
L127724 54353
L128118 55534
" />
<path d="M129187 55421
L129131 55478
L128962 55534
L128849 55534
L128681 55478
L128568 55365
L128512 55253
L128456 55028
L128456 54859
L128512 54634
L128568 54521
L128681 54409
L128849 54353
L128962 54353
L129131 54409
L129187 54465
" />
<path d="M129693 55534
L129693 54353
" />
<path d="M130368 55534
L129862 54859
" />
<path d="M130368 54353
L129693 55028
" />
<text x="147500" y="55590.6"
textLength="7455.01" font-size="1574.8" lengthAdjust="spacingAndGlyphs"
text-anchor="middle" opacity="0">SUSTAIN</text>
<path d="M144125 55478
L144294 55534
L144575 55534
L144687 55478
L144744 55421
L144800 55309
L144800 55196
L144744 55084
L144687 55028
L144575 54971
L144350 54915
L144237 54859
L144181 54803
L144125 54690
L144125 54578
L144181 54465
L144237 54409
L144350 54353
L144631 54353
L144800 54409
" />
<path d="M145306 54353
L145306 55309
L145362 55421
L145419 55478
L145531 55534
L145756 55534
L145868 55478
L145925 55421
L145981 55309
L145981 54353
" />
<path d="M146487 55478
L146656 55534
L146937 55534
L147050 55478
L147106 55421
L147162 55309
L147162 55196
L147106 55084
L147050 55028
L146937 54971
L146712 54915
L146600 54859
L146543 54803
L146487 54690
L146487 54578
L146543 54465
L146600 54409
L146712 54353
L146993 54353
L147162 54409
" />
<path d="M147500 54353
L148174 54353
" />
<path d="M147837 55534
L147837 54353
" />
<path d="M148512 55196
L149074 55196
" />
<path d="M148399 55534
L148793 54353
L149187 55534
" />
<path d="M149580 55534
L149580 54353
" />
<path d="M150143 55534
L150143 54353
L150818 55534
L150818 54353
" />
<text x="157500" y="55590.6"
textLength="7736.22" font-size="1574.8" lengthAdjust="spacingAndGlyphs"
text-anchor="middle" opacity="0">RELEASE</text>
<path d="M154715 55534
L154322 54971
" />
<path d="M154041 55534
L154041 54353
L154491 54353
L154603 54409
L154659 54465
L154715 54578
L154715 54746
L154659 54859
L154603 54915
L154491 54971
L154041 54971
" />
<path d="M155222 54915
L155615 54915
" />
<path d="M155784 55534
L155222 55534
L155222 54353
L155784 54353
" />
<path d="M156853 55534
L156290 55534
L156290 54353
" />
<path d="M157246 54915
L157640 54915
" />
<path d="M157809 55534
L157246 55534
L157246 54353
L157809 54353
" />
<path d="M158259 55196
L158821 55196
" />
<path d="M158146 55534
L158540 54353
L158934 55534
" />
<path d="M159271 55478
L159440 55534
L159721 55534
L159834 55478
L159890 55421
L159946 55309
L159946 55196
L159890 55084
L159834 55028
L159721 54971
L159496 54915
L159384 54859
L159327 54803
L159271 54690
L159271 54578
L159327 54465
L159384 54409
L159496 54353
L159777 54353
L159946 54409
" />
<path d="M160452 54915
L160846 54915
" />
<path d="M161015 55534
L160452 55534
L160452 54353
L161015 54353
" />
<text x="137500" y="55590.6"
textLength="5711.47" font-size="1574.8" lengthAdjust="spacingAndGlyphs"
text-anchor="middle" opacity="0">DECAY</text>
<path d="M135053 55534
L135053 54353
L135334 54353
L135503 54409
L135615 54521
L135672 54634
L135728 54859
L135728 55028
L135672 55253
L135615 55365
L135503 55478
L135334 55534
L135053 55534
" />
<path d="M136234 54915
L136628 54915
" />
<path d="M136796 55534
L136234 55534
L136234 54353
L136796 54353
" />
<path d="M137978 55421
L137921 55478
L137753 55534
L137640 55534
L137471 55478
L137359 55365
L137303 55253
L137246 55028
L137246 54859
L137303 54634
L137359 54521
L137471 54409
L137640 54353
L137753 54353
L137921 54409
L137978 54465
" />
<path d="M138428 55196
L138990 55196
" />
<path d="M138315 55534
L138709 54353
L139102 55534
" />
<path d="M139721 54971
L139721 55534
" />
<path d="M139327 54353
L139721 54971
L140115 54353
" />
<text x="175000" y="38090.6"
textLength="7736.22" font-size="1574.8" lengthAdjust="spacingAndGlyphs"
text-anchor="middle" opacity="0">RELEASE</text>
<path d="M172215 38034
L171822 37471
" />
<path d="M171541 38034
L171541 36853
L171991 36853
L172103 36909
L172159 36965
L172215 37078
L172215 37246
L172159 37359
L172103 37415
L171991 37471
L171541 37471
" />
<path d="M172722 37415
L173115 37415
" />
<path d="M173284 38034
L172722 38034
L172722 36853
L173284 36853
" />
<path d="M174353 38034
L173790 38034
L173790 36853
" />
<path d="M174746 37415
L175140 37415
" />
<path d="M175309 38034
L174746 38034
L174746 36853
L175309 36853
" />
<path d="M175759 37696
L176321 37696
" />
<path d="M175646 38034
L176040 36853
L176434 38034
" />
<path d="M176771 37978
L176940 38034
L177221 38034
L177334 37978
L177390 37921
L177446 37809
L177446 37696
L177390 37584
L177334 37528
L177221 37471
L176996 37415
L176884 37359
L176827 37303
L176771 37190
L176771 37078
L176827 36965
L176884 36909
L176996 36853
L177277 36853
L177446 36909
" />
<path d="M177952 37415
L178346 37415
" />
<path d="M178515 38034
L177952 38034
L177952 36853
L178515 36853
" />
<text x="165000" y="38090.6"
textLength="7455.01" font-size="1574.8" lengthAdjust="spacingAndGlyphs"
text-anchor="middle" opacity="0">SUSTAIN</text>
<path d="M161625 37978
L161794 38034
L162075 38034
L162187 37978
L162244 37921
L162300 37809
L162300 37696
L162244 37584
L162187 37528
L162075 37471
L161850 37415
L161737 37359
L161681 37303
L161625 37190
L161625 37078
L161681 36965
L161737 36909
L161850 36853
L162131 36853
L162300 36909
" />
<path d="M162806 36853
L162806 37809
L162862 37921
L162919 37978
L163031 38034
L163256 38034
L163368 37978
L163425 37921
L163481 37809
L163481 36853
" />
<path d="M163987 37978
L164156 38034
L164437 38034
L164550 37978
L164606 37921
L164662 37809
L164662 37696
L164606 37584
L164550 37528
L164437 37471
L164212 37415
L164100 37359
L164043 37303
L163987 37190
L163987 37078
L164043 36965
L164100 36909
L164212 36853
L164493 36853
L164662 36909
" />
<path d="M165000 36853
L165674 36853
" />
<path d="M165337 38034
L165337 36853
" />
<path d="M166012 37696
L166574 37696
" />
<path d="M165899 38034
L166293 36853
L166687 38034
" />
<path d="M167080 38034
L167080 36853
" />
<path d="M167643 38034
L167643 36853
L168318 38034
L168318 36853
" />
<text x="155000" y="38090.6"
textLength="5711.47" font-size="1574.8" lengthAdjust="spacingAndGlyphs"
text-anchor="middle" opacity="0">DECAY</text>
<path d="M152553 38034
L152553 36853
L152834 36853
L153003 36909
L153115 37021
L153172 37134
L153228 37359
L153228 37528
L153172 37753
L153115 37865
L153003 37978
L152834 38034
L152553 38034
" />
<path d="M153734 37415
L154128 37415
" />
<path d="M154296 38034
L153734 38034
L153734 36853
L154296 36853
" />
<path d="M155478 37921
L155421 37978
L155253 38034
L155140 38034
L154971 37978
L154859 37865
L154803 37753
L154746 37528
L154746 37359
L154803 37134
L154859 37021
L154971 36909
L155140 36853
L155253 36853
L155421 36909
L155478 36965
" />
<path d="M155928 37696
L156490 37696
" />
<path d="M155815 38034
L156209 36853
L156602 38034
" />
<path d="M157221 37471
L157221 38034
" />
<path d="M156827 36853
L157221 37471
L157615 36853
" />
<text x="145000" y="38090.6"
textLength="6442.63" font-size="1574.8" lengthAdjust="spacingAndGlyphs"
text-anchor="middle" opacity="0">ATTACK</text>
<path d="M142131 37696
L142694 37696
" />
<path d="M142019 38034
L142412 36853
L142806 38034
" />
<path d="M143031 36853
L143706 36853
" />
<path d="M143368 38034
L143368 36853
" />
<path d="M143931 36853
L144606 36853
" />
<path d="M144268 38034
L144268 36853
" />
<path d="M144943 37696
L145506 37696
" />
<path d="M144831 38034
L145224 36853
L145618 38034
" />
<path d="M146687 37921
L146631 37978
L146462 38034
L146349 38034
L146181 37978
L146068 37865
L146012 37753
L145956 37528
L145956 37359
L146012 37134
L146068 37021
L146181 36909
L146349 36853
L146462 36853
L146631 36909
L146687 36965
" />
<path d="M147193 38034
L147193 36853
" />
<path d="M147868 38034
L147362 37359
" />
<path d="M147868 36853
L147193 37528
" />
<text x="127500" y="43715.6"
textLength="8186.16" font-size="1574.8" lengthAdjust="spacingAndGlyphs"
text-anchor="middle" opacity="0">-NORM-</text>
<path d="M123816 43209
L124715 43209
" />
<path d="M125278 43659
L125278 42478
L125953 43659
L125953 42478
" />
<path d="M126740 42478
L126965 42478
L127078 42534
L127190 42646
L127246 42871
L127246 43265
L127190 43490
L127078 43603
L126965 43659
L126740 43659
L126628 43603
L126515 43490
L126459 43265
L126459 42871
L126515 42646
L126628 42534
L126740 42478
" />
<path d="M128428 43659
L128034 43096
" />
<path d="M127753 43659
L127753 42478
L128203 42478
L128315 42534
L128371 42590
L128428 42703
L128428 42871
L128371 42984
L128315 43040
L128203 43096
L127753 43096
" />
<path d="M128934 43659
L128934 42478
L129327 43321
L129721 42478
L129721 43659
" />
<path d="M130284 43209
L131183 43209
" />
<text x="130000" y="37465.6"
textLength="2955.57" font-size="1574.8" lengthAdjust="spacingAndGlyphs"
text-anchor="middle" opacity="0">INT</text>
<path d="M128931 37409
L128931 36228
" />
<path d="M129493 37409
L129493 36228
L130168 37409
L130168 36228
" />
<path d="M130562 36228
L131237 36228
" />
<path d="M130899 37409
L130899 36228
" />
<text x="125000" y="37465.6"
textLength="3011.81" font-size="1574.8" lengthAdjust="spacingAndGlyphs"
text-anchor="middle" opacity="0">DIF</text>
<path d="M123903 37409
L123903 36228
L124184 36228
L124353 36284
L124465 36396
L124521 36509
L124578 36734
L124578 36903
L124521 37128
L124465 37240
L124353 37353
L124184 37409
L123903 37409
" />
<path d="M125084 37409
L125084 36228
" />
<path d="M126040 36790
L125646 36790
" />
<path d="M125646 37409
L125646 36228
L126209 36228
" />
<text x="112500" y="70590.6"
textLength="4249.16" font-size="1574.8" lengthAdjust="spacingAndGlyphs"
text-anchor="middle" opacity="0">GAIN</text>
<path d="M111403 69409
L111290 69353
L111122 69353
L110953 69409
L110840 69521
L110784 69634
L110728 69859
L110728 70028
L110784 70253
L110840 70365
L110953 70478
L111122 70534
L111234 70534
L111403 70478
L111459 70421
L111459 70028
L111234 70028
" />
<path d="M111909 70196
L112471 70196
" />
<path d="M111796 70534
L112190 69353
L112584 70534
" />
<path d="M112978 70534
L112978 69353
" />
<path d="M113540 70534
L113540 69353
L114215 70534
L114215 69353
" />
<text x="102500" y="70590.6"
textLength="4249.16" font-size="1574.8" lengthAdjust="spacingAndGlyphs"
text-anchor="middle" opacity="0">GAIN</text>
<path d="M101403 69409
L101290 69353
L101122 69353
L100953 69409
L100840 69521
L100784 69634
L100728 69859
L100728 70028
L100784 70253
L100840 70365
L100953 70478
L101122 70534
L101234 70534
L101403 70478
L101459 70421
L101459 70028
L101234 70028
" />
<path d="M101909 70196
L102471 70196
" />
<path d="M101796 70534
L102190 69353
L102584 70534
" />
<path d="M102978 70534
L102978 69353
" />
<path d="M103540 70534
L103540 69353
L104215 70534
L104215 69353
" />
<text x="92500" y="70590.6"
textLength="4249.16" font-size="1574.8" lengthAdjust="spacingAndGlyphs"
text-anchor="middle" opacity="0">GAIN</text>
<path d="M91403 69409
L91290 69353
L91122 69353
L90953 69409
L90840 69521
L90784 69634
L90728 69859
L90728 70028
L90784 70253
L90840 70365
L90953 70478
L91122 70534
L91234 70534
L91403 70478
L91459 70421
L91459 70028
L91234 70028
" />
<path d="M91909 70196
L92471 70196
" />
<path d="M91796 70534
L92190 69353
L92584 70534
" />
<path d="M92978 70534
L92978 69353
" />
<path d="M93540 70534
L93540 69353
L94215 70534
L94215 69353
" />
<text x="82500" y="70590.6"
textLength="4249.16" font-size="1574.8" lengthAdjust="spacingAndGlyphs"
text-anchor="middle" opacity="0">GAIN</text>
<path d="M81403 69409
L81290 69353
L81122 69353
L80953 69409
L80840 69521
L80784 69634
L80728 69859
L80728 70028
L80784 70253
L80840 70365
L80953 70478
L81122 70534
L81234 70534
L81403 70478
L81459 70421
L81459 70028
L81234 70028
" />
<path d="M81909 70196
L82471 70196
" />
<path d="M81796 70534
L82190 69353
L82584 70534
" />
<path d="M82978 70534
L82978 69353
" />
<path d="M83540 70534
L83540 69353
L84215 70534
L84215 69353
" />
<text x="112500" y="34965.6"
textLength="4080.43" font-size="1574.8" lengthAdjust="spacingAndGlyphs"
text-anchor="middle" opacity="0">TRIG</text>
<path d="M110700 33728
L111375 33728
" />
<path d="M111037 34909
L111037 33728
" />
<path d="M112443 34909
L112050 34346
" />
<path d="M111768 34909
L111768 33728
L112218 33728
L112331 33784
L112387 33840
L112443 33953
L112443 34121
L112387 34234
L112331 34290
L112218 34346
L111768 34346
" />
<path d="M112949 34909
L112949 33728
" />
<path d="M114131 33784
L114018 33728
L113849 33728
L113681 33784
L113568 33896
L113512 34009
L113456 34234
L113456 34403
L113512 34628
L113568 34740
L113681 34853
L113849 34909
L113962 34909
L114131 34853
L114187 34796
L114187 34403
L113962 34403
" />
<text x="102500" y="34965.6"
textLength="4080.43" font-size="1574.8" lengthAdjust="spacingAndGlyphs"
text-anchor="middle" opacity="0">TRIG</text>
<path d="M100700 33728
L101375 33728
" />
<path d="M101037 34909
L101037 33728
" />
<path d="M102443 34909
L102050 34346
" />
<path d="M101768 34909
L101768 33728
L102218 33728
L102331 33784
L102387 33840
L102443 33953
L102443 34121
L102387 34234
L102331 34290
L102218 34346
L101768 34346
" />
<path d="M102949 34909
L102949 33728
" />
<path d="M104131 33784
L104018 33728
L103849 33728
L103681 33784
L103568 33896
L103512 34009
L103456 34234
L103456 34403
L103512 34628
L103568 34740
L103681 34853
L103849 34909
L103962 34909
L104131 34853
L104187 34796
L104187 34403
L103962 34403
" />
<text x="92500" y="34965.6"
textLength="4080.43" font-size="1574.8" lengthAdjust="spacingAndGlyphs"
text-anchor="middle" opacity="0">TRIG</text>
<path d="M90700 33728
L91375 33728
" />
<path d="M91037 34909
L91037 33728
" />
<path d="M92443 34909
L92050 34346
" />
<path d="M91768 34909
L91768 33728
L92218 33728
L92331 33784
L92387 33840
L92443 33953
L92443 34121
L92387 34234
L92331 34290
L92218 34346
L91768 34346
" />
<path d="M92949 34909
L92949 33728
" />
<path d="M94131 33784
L94018 33728
L93849 33728
L93681 33784
L93568 33896
L93512 34009
L93456 34234
L93456 34403
L93512 34628
L93568 34740
L93681 34853
L93849 34909
L93962 34909
L94131 34853
L94187 34796
L94187 34403
L93962 34403
" />
<text x="82500" y="34965.6"
textLength="4080.43" font-size="1574.8" lengthAdjust="spacingAndGlyphs"
text-anchor="middle" opacity="0">TRIG</text>
<path d="M80700 33728
L81375 33728
" />
<path d="M81037 34909
L81037 33728
" />
<path d="M82443 34909
L82050 34346
" />
<path d="M81768 34909
L81768 33728
L82218 33728
L82331 33784
L82387 33840
L82443 33953
L82443 34121
L82387 34234
L82331 34290
L82218 34346
L81768 34346
" />
<path d="M82949 34909
L82949 33728
" />
<path d="M84131 33784
L84018 33728
L83849 33728
L83681 33784
L83568 33896
L83512 34009
L83456 34234
L83456 34403
L83512 34628
L83568 34740
L83681 34853
L83849 34909
L83962 34909
L84131 34853
L84187 34796
L84187 34403
L83962 34403
" />
<text x="43125" y="70590.6"
textLength="5936.45" font-size="1574.8" lengthAdjust="spacingAndGlyphs"
text-anchor="middle" opacity="0">RANGE</text>
<path d="M41240 70534
L40847 69971
" />
<path d="M40565 70534
L40565 69353
L41015 69353
L41128 69409
L41184 69465
L41240 69578
L41240 69746
L41184 69859
L41128 69915
L41015 69971
L40565 69971
" />
<path d="M41690 70196
L42253 70196
" />
<path d="M41578 70534
L41972 69353
L42365 70534
" />
<path d="M42759 70534
L42759 69353
L43434 70534
L43434 69353
" />
<path d="M44615 69409
L44502 69353
L44334 69353
L44165 69409
L44053 69521
L43996 69634
L43940 69859
L43940 70028
L43996 70253
L44053 70365
L44165 70478
L44334 70534
L44446 70534
L44615 70478
L44671 70421
L44671 70028
L44446 70028
" />
<path d="M45177 69915
L45571 69915
" />
<path d="M45740 70534
L45177 70534
L45177 69353
L45740 69353
" />
<text x="112500" y="80590.6"
textLength="1380.76" font-size="1574.8" lengthAdjust="spacingAndGlyphs"
text-anchor="middle" opacity="0">4</text>
<path d="M112724 79746
L112724 80534
" />
<path d="M112443 79296
L112162 80140
L112893 80140
" />
<text x="102500" y="80590.6"
textLength="1380.76" font-size="1574.8" lengthAdjust="spacingAndGlyphs"
text-anchor="middle" opacity="0">3</text>
<path d="M102106 79353
L102837 79353
L102443 79803
L102612 79803
L102724 79859
L102781 79915
L102837 80028
L102837 80309
L102781 80421
L102724 80478
L102612 80534
L102275 80534
L102162 80478
L102106 80421
" />
<text x="92500" y="80590.6"
textLength="1380.76" font-size="1574.8" lengthAdjust="spacingAndGlyphs"
text-anchor="middle" opacity="0">2</text>
<path d="M92162 79465
L92218 79409
L92331 79353
L92612 79353
L92724 79409
L92781 79465
L92837 79578
L92837 79690
L92781 79859
L92106 80534
L92837 80534
" />
<text x="82500" y="80590.6"
textLength="1380.76" font-size="1574.8" lengthAdjust="spacingAndGlyphs"
text-anchor="middle" opacity="0">1</text>
<path d="M82837 80534
L82162 80534
" />
<path d="M82500 80534
L82500 79353
L82387 79521
L82275 79634
L82162 79690
" />
<text x="22500" y="60590.6"
textLength="1380.76" font-size="1574.8" lengthAdjust="spacingAndGlyphs"
text-anchor="middle" opacity="0">9</text>
<path d="M22275 60534
L22500 60534
L22612 60478
L22668 60421
L22781 60253
L22837 60028
L22837 59578
L22781 59465
L22724 59409
L22612 59353
L22387 59353
L22275 59409
L22218 59465
L22162 59578
L22162 59859
L22218 59971
L22275 60028
L22387 60084
L22612 60084
L22724 60028
L22781 59971
L22837 59859
" />
<text x="37500" y="60590.6"
textLength="2505.62" font-size="1574.8" lengthAdjust="spacingAndGlyphs"
text-anchor="middle" opacity="0">10</text>
<path d="M37275 60534
L36600 60534
" />
<path d="M36937 60534
L36937 59353
L36825 59521
L36712 59634
L36600 59690
" />
<path d="M38006 59353
L38118 59353
L38231 59409
L38287 59465
L38343 59578
L38399 59803
L38399 60084
L38343 60309
L38287 60421
L38231 60478
L38118 60534
L38006 60534
L37893 60478
L37837 60421
L37781 60309
L37724 60084
L37724 59803
L37781 59578
L37837 59465
L37893 59409
L38006 59353
" />
<text x="52500" y="60590.6"
textLength="2505.62" font-size="1574.8" lengthAdjust="spacingAndGlyphs"
text-anchor="middle" opacity="0">11</text>
<path d="M52275 60534
L51600 60534
" />
<path d="M51937 60534
L51937 59353
L51825 59521
L51712 59634
L51600 59690
" />
<path d="M53399 60534
L52724 60534
" />
<path d="M53062 60534
L53062 59353
L52949 59521
L52837 59634
L52724 59690
" />
<text x="67500" y="60590.6"
textLength="2505.62" font-size="1574.8" lengthAdjust="spacingAndGlyphs"
text-anchor="middle" opacity="0">12</text>
<path d="M67275 60534
L66600 60534
" />
<path d="M66937 60534
L66937 59353
L66825 59521
L66712 59634
L66600 59690
" />
<path d="M67724 59465
L67781 59409
L67893 59353
L68174 59353
L68287 59409
L68343 59465
L68399 59578
L68399 59690
L68343 59859
L67668 60534
L68399 60534
" />
<text x="67500" y="45590.6"
textLength="1380.76" font-size="1574.8" lengthAdjust="spacingAndGlyphs"
text-anchor="middle" opacity="0">8</text>
<path d="M67387 44859
L67275 44803
L67218 44746
L67162 44634
L67162 44578
L67218 44465
L67275 44409
L67387 44353
L67612 44353
L67724 44409
L67781 44465
L67837 44578
L67837 44634
L67781 44746
L67724 44803
L67612 44859
L67387 44859
L67275 44915
L67218 44971
L67162 45084
L67162 45309
L67218 45421
L67275 45478
L67387 45534
L67612 45534
L67724 45478
L67781 45421
L67837 45309
L67837 45084
L67781 44971
L67724 44915
L67612 44859
" />
<text x="67500" y="30590.6"
textLength="1380.76" font-size="1574.8" lengthAdjust="spacingAndGlyphs"
text-anchor="middle" opacity="0">4</text>
<path d="M67724 29746
L67724 30534
" />
<path d="M67443 29296
L67162 30140
L67893 30140
" />
<text x="52500" y="45590.6"
textLength="1380.76" font-size="1574.8" lengthAdjust="spacingAndGlyphs"
text-anchor="middle" opacity="0">7</text>
<path d="M52106 44353
L52893 44353
L52387 45534
" />
<text x="37500" y="45590.6"
textLength="1380.76" font-size="1574.8" lengthAdjust="spacingAndGlyphs"
text-anchor="middle" opacity="0">6</text>
<path d="M37724 44353
L37500 44353
L37387 44409
L37331 44465
L37218 44634
L37162 44859
L37162 45309
L37218 45421
L37275 45478
L37387 45534
L37612 45534
L37724 45478
L37781 45421
L37837 45309
L37837 45028
L37781 44915
L37724 44859
L37612 44803
L37387 44803
L37275 44859
L37218 44915
L37162 45028
" />
<text x="22500" y="45590.6"
textLength="1380.76" font-size="1574.8" lengthAdjust="spacingAndGlyphs"
text-anchor="middle" opacity="0">5</text>
<path d="M22781 44353
L22218 44353
L22162 44915
L22218 44859
L22331 44803
L22612 44803
L22724 44859
L22781 44915
L22837 45028
L22837 45309
L22781 45421
L22724 45478
L22612 45534
L22331 45534
L22218 45478
L22162 45421
" />
<text x="52500" y="30590.6"
textLength="1380.76" font-size="1574.8" lengthAdjust="spacingAndGlyphs"
text-anchor="middle" opacity="0">3</text>
<path d="M52106 29353
L52837 29353
L52443 29803
L52612 29803
L52724 29859
L52781 29915
L52837 30028
L52837 30309
L52781 30421
L52724 30478
L52612 30534
L52275 30534
L52162 30478
L52106 30421
" />
<text x="37500" y="30590.6"
textLength="1380.76" font-size="1574.8" lengthAdjust="spacingAndGlyphs"
text-anchor="middle" opacity="0">2</text>
<path d="M37162 29465
L37218 29409
L37331 29353
L37612 29353
L37724 29409
L37781 29465
L37837 29578
L37837 29690
L37781 29859
L37106 30534
L37837 30534
" />
<text x="22500" y="30590.6"
textLength="1380.76" font-size="1574.8" lengthAdjust="spacingAndGlyphs"
text-anchor="middle" opacity="0">1</text>
<path d="M22837 30534
L22162 30534
" />
<path d="M22500 30534
L22500 29353
L22387 29521
L22275 29634
L22162 29690
" />
<path d="M205000 72500
L205000 77500
" />
<path d="M190000 72500
L205000 72500
" />
<path d="M132500 32500
L132500 27500
" />
<text x="197500" y="70984.3"
textLength="10285.9" font-size="2624.67" lengthAdjust="spacingAndGlyphs"
text-anchor="middle" opacity="0">POWER</text>
<path d="M192953 70890
L192953 68922
L193703 68922
L193891 69015
L193984 69109
L194078 69296
L194078 69578
L193984 69765
L193891 69859
L193703 69953
L192953 69953
" />
<path d="M195297 68922
L195672 68922
L195859 69015
L196047 69203
L196140 69578
L196140 70234
L196047 70609
L195859 70796
L195672 70890
L195297 70890
L195109 70796
L194922 70609
L194828 70234
L194828 69578
L194922 69203
L195109 69015
L195297 68922
" />
<path d="M196796 68922
L197265 70890
L197640 69484
L198015 70890
L198484 68922
" />
<path d="M199234 69859
L199890 69859
" />
<path d="M200171 70890
L199234 70890
L199234 68922
L200171 68922
" />
<path d="M202140 70890
L201483 69953
" />
<path d="M201015 70890
L201015 68922
L201765 68922
L201952 69015
L202046 69109
L202140 69296
L202140 69578
L202046 69765
L201952 69859
L201765 69953
L201015 69953
" />
<text x="167500" y="70984.3"
textLength="14129.2" font-size="2624.67" lengthAdjust="spacingAndGlyphs"
text-anchor="middle" opacity="0">INPUT #2</text>
<path d="M161032 70890
L161032 68922
" />
<path d="M161969 70890
L161969 68922
L163094 70890
L163094 68922
" />
<path d="M164031 70890
L164031 68922
L164781 68922
L164969 69015
L165062 69109
L165156 69296
L165156 69578
L165062 69765
L164969 69859
L164781 69953
L164031 69953
" />
<path d="M166000 68922
L166000 70515
L166093 70703
L166187 70796
L166375 70890
L166750 70890
L166937 70796
L167031 70703
L167125 70515
L167125 68922
" />
<path d="M167781 68922
L168906 68922
" />
<path d="M168343 70890
L168343 68922
" />
<path d="M170968 69578
L172374 69578
" />
<path d="M171530 68734
L170968 71265
" />
<path d="M172186 70421
L170780 70421
" />
<path d="M171624 71265
L172186 68734
" />
<path d="M172936 69109
L173030 69015
L173218 68922
L173686 68922
L173874 69015
L173967 69109
L174061 69296
L174061 69484
L173967 69765
L172843 70890
L174061 70890
" />
<text x="137500" y="70984.3"
textLength="14129.2" font-size="2624.67" lengthAdjust="spacingAndGlyphs"
text-anchor="middle" opacity="0">INPUT #1</text>
<path d="M131032 70890
L131032 68922
" />
<path d="M131969 70890
L131969 68922
L133094 70890
L133094 68922
" />
<path d="M134031 70890
L134031 68922
L134781 68922
L134969 69015
L135062 69109
L135156 69296
L135156 69578
L135062 69765
L134969 69859
L134781 69953
L134031 69953
" />
<path d="M136000 68922
L136000 70515
L136093 70703
L136187 70796
L136375 70890
L136750 70890
L136937 70796
L137031 70703
L137125 70515
L137125 68922
" />
<path d="M137781 68922
L138906 68922
" />
<path d="M138343 70890
L138343 68922
" />
<path d="M140968 69578
L142374 69578
" />
<path d="M141530 68734
L140968 71265
" />
<path d="M142186 70421
L140780 70421
" />
<path d="M141624 71265
L142186 68734
" />
<path d="M144061 70890
L142936 70890
" />
<path d="M143499 70890
L143499 68922
L143311 69203
L143124 69390
L142936 69484
" />
<text x="197500" y="40984.3"
textLength="5880.2" font-size="2624.67" lengthAdjust="spacingAndGlyphs"
text-anchor="middle" opacity="0">OUT</text>
<path d="M195531 38922
L195906 38922
L196093 39015
L196281 39203
L196375 39578
L196375 40234
L196281 40609
L196093 40796
L195906 40890
L195531 40890
L195344 40796
L195156 40609
L195062 40234
L195062 39578
L195156 39203
L195344 39015
L195531 38922
" />
<path d="M197218 38922
L197218 40515
L197312 40703
L197406 40796
L197593 40890
L197968 40890
L198156 40796
L198249 40703
L198343 40515
L198343 38922
" />
<path d="M198999 38922
L200124 38922
" />
<path d="M199562 40890
L199562 38922
" />
<text x="152500" y="43484.3"
textLength="9723.47" font-size="2624.67" lengthAdjust="spacingAndGlyphs"
text-anchor="middle" opacity="0">FILTER</text>
<path d="M148891 42359
L148234 42359
" />
<path d="M148234 43390
L148234 41422
L149172 41422
" />
<path d="M149922 43390
L149922 41422
" />
<path d="M151796 43390
L150859 43390
L150859 41422
" />
<path d="M152171 41422
L153296 41422
" />
<path d="M152734 43390
L152734 41422
" />
<path d="M153952 42359
L154609 42359
" />
<path d="M154890 43390
L153952 43390
L153952 41422
L154890 41422
" />
<path d="M156858 43390
L156202 42453
" />
<path d="M155733 43390
L155733 41422
L156483 41422
L156671 41515
L156765 41609
L156858 41796
L156858 42078
L156765 42265
L156671 42359
L156483 42453
L155733 42453
" />
<text x="170000" y="25984.3"
textLength="14972.8" font-size="2624.67" lengthAdjust="spacingAndGlyphs"
text-anchor="middle" opacity="0">ENVELOPE</text>
<path d="M163110 24859
L163766 24859
" />
<path d="M164047 25890
L163110 25890
L163110 23922
L164047 23922
" />
<path d="M164891 25890
L164891 23922
L166016 25890
L166016 23922
" />
<path d="M166672 23922
L167328 25890
L167984 23922
" />
<path d="M168640 24859
L169296 24859
" />
<path d="M169578 25890
L168640 25890
L168640 23922
L169578 23922
" />
<path d="M171359 25890
L170421 25890
L170421 23922
" />
<path d="M172390 23922
L172765 23922
L172952 24015
L173140 24203
L173233 24578
L173233 25234
L173140 25609
L172952 25796
L172765 25890
L172390 25890
L172202 25796
L172015 25609
L171921 25234
L171921 24578
L172015 24203
L172202 24015
L172390 23922
" />
<path d="M174077 25890
L174077 23922
L174827 23922
L175014 24015
L175108 24109
L175202 24296
L175202 24578
L175108 24765
L175014 24859
L174827 24953
L174077 24953
" />
<path d="M176046 24859
L176702 24859
" />
<path d="M176983 25890
L176046 25890
L176046 23922
L176983 23922
" />
<text x="127500" y="25984.3"
textLength="6911.32" font-size="2624.67" lengthAdjust="spacingAndGlyphs"
text-anchor="middle" opacity="0">GAIN</text>
<path d="M125672 24015
L125484 23922
L125203 23922
L124922 24015
L124734 24203
L124640 24390
L124547 24765
L124547 25046
L124640 25421
L124734 25609
L124922 25796
L125203 25890
L125390 25890
L125672 25796
L125765 25703
L125765 25046
L125390 25046
" />
<path d="M126515 25328
L127453 25328
" />
<path d="M126328 25890
L126984 23922
L127640 25890
" />
<path d="M128296 25890
L128296 23922
" />
<path d="M129234 25890
L129234 23922
L130359 25890
L130359 23922
" />
<text x="97500" y="25984.3"
textLength="18816.1" font-size="2624.67" lengthAdjust="spacingAndGlyphs"
text-anchor="middle" opacity="0">PERCUSSION</text>
<path d="M88688 25890
L88688 23922
L89438 23922
L89625 24015
L89719 24109
L89813 24296
L89813 24578
L89719 24765
L89625 24859
L89438 24953
L88688 24953
" />
<path d="M90657 24859
L91313 24859
" />
<path d="M91594 25890
L90657 25890
L90657 23922
L91594 23922
" />
<path d="M93562 25890
L92906 24953
" />
<path d="M92438 25890
L92438 23922
L93188 23922
L93375 24015
L93469 24109
L93562 24296
L93562 24578
L93469 24765
L93375 24859
L93188 24953
L92438 24953
" />
<path d="M95531 25703
L95437 25796
L95156 25890
L94969 25890
L94687 25796
L94500 25609
L94406 25421
L94312 25046
L94312 24765
L94406 24390
L94500 24203
L94687 24015
L94969 23922
L95156 23922
L95437 24015
L95531 24109
" />
<path d="M96375 23922
L96375 25515
L96468 25703
L96562 25796
L96750 25890
L97125 25890
L97312 25796
L97406 25703
L97500 25515
L97500 23922
" />
<path d="M98343 25796
L98624 25890
L99093 25890
L99281 25796
L99374 25703
L99468 25515
L99468 25328
L99374 25140
L99281 25046
L99093 24953
L98718 24859
L98531 24765
L98437 24671
L98343 24484
L98343 24296
L98437 24109
L98531 24015
L98718 23922
L99187 23922
L99468 24015
" />
<path d="M100218 25796
L100499 25890
L100968 25890
L101155 25796
L101249 25703
L101343 25515
L101343 25328
L101249 25140
L101155 25046
L100968 24953
L100593 24859
L100405 24765
L100312 24671
L100218 24484
L100218 24296
L100312 24109
L100405 24015
L100593 23922
L101062 23922
L101343 24015
" />
<path d="M102186 25890
L102186 23922
" />
<path d="M103499 23922
L103874 23922
L104061 24015
L104249 24203
L104342 24578
L104342 25234
L104249 25609
L104061 25796
L103874 25890
L103499 25890
L103311 25796
L103124 25609
L103030 25234
L103030 24578
L103124 24203
L103311 24015
L103499 23922
" />
<path d="M105186 25890
L105186 23922
L106311 25890
L106311 23922
" />
<text x="42500" y="25984.3"
textLength="10567.1" font-size="2624.67" lengthAdjust="spacingAndGlyphs"
text-anchor="middle" opacity="0">VOICES</text>
<path d="M37531 23922
L38188 25890
L38844 23922
" />
<path d="M39875 23922
L40250 23922
L40437 24015
L40625 24203
L40718 24578
L40718 25234
L40625 25609
L40437 25796
L40250 25890
L39875 25890
L39687 25796
L39500 25609
L39406 25234
L39406 24578
L39500 24203
L39687 24015
L39875 23922
" />
<path d="M41562 25890
L41562 23922
" />
<path d="M43624 25703
L43531 25796
L43249 25890
L43062 25890
L42781 25796
L42593 25609
L42500 25421
L42406 25046
L42406 24765
L42500 24390
L42593 24203
L42781 24015
L43062 23922
L43249 23922
L43531 24015
L43624 24109
" />
<path d="M44468 24859
L45124 24859
" />
<path d="M45405 25890
L44468 25890
L44468 23922
L45405 23922
" />
<path d="M46155 25796
L46437 25890
L46905 25890
L47093 25796
L47186 25703
L47280 25515
L47280 25328
L47186 25140
L47093 25046
L46905 24953
L46530 24859
L46343 24765
L46249 24671
L46155 24484
L46155 24296
L46249 24109
L46343 24015
L46530 23922
L46999 23922
L47280 24015
" />
</g>
<g style="fill:#000000; fill-opacity:0.0; 
stroke:#000000; stroke-width:47.2441; stroke-opacity:1; 
stroke-linecap:round; stroke-linejoin:round;">
<path d="M122500 32500
L122500 32500
" />
</g>
<g style="fill:#000000; fill-opacity:0.0; 
stroke:#000000; stroke-width:196.85; stroke-opacity:1; 
stroke-linecap:round; stroke-linejoin:round;">
<path d="M205000 42500
L205000 50000
" />
<path d="M190000 42500
L205000 42500
" />
<path d="M190000 50000
L190000 42500
" />
<path d="M122500 27500
L122500 32500
" />
<path d="M132500 27500
L122500 27500
" />
<path d="M182500 45000
L120000 45000
" />
<path d="M182500 50000
L182500 45000
" />
<path d="M190000 77500
L190000 72500
" />
<path d="M182500 72500
L182500 77500
" />
<path d="M152500 72500
L182500 72500
" />
<path d="M152500 72500
L152500 77500
" />
<path d="M120000 72500
L152500 72500
" />
<path d="M120000 77500
L120000 72500
" />
<path d="M205000 27500
L205000 32500
" />
<path d="M137500 27500
L205000 27500
" />
<path d="M137500 32500
L137500 27500
" />
<path d="M117500 27500
L117500 32500
" />
<path d="M77500 27500
L117500 27500
" />
<path d="M77500 32500
L77500 27500
" />
<path d="M72500 27500
L72500 32500
" />
<path d="M12500 27500
L72500 27500
" />
<g >
</g>
</g> 
</svg>
