<?xml version="1.0" standalone="no"?>
 <!DOCTYPE svg PUBLIC "-//W3C//DTD SVG 1.1//EN" 
 "http://www.w3.org/Graphics/SVG/1.1/DTD/svg11.dtd"> 
<svg
  xmlns:svg="http://www.w3.org/2000/svg"
  xmlns="http://www.w3.org/2000/svg"
  xmlns:xlink="http://www.w3.org/1999/xlink"
  version="1.1"
  width="55.880000cm" height="27.940000cm" viewBox="0 0 220000 110000">
<title>SVG Picture created as FrontPanel-F_Mask.svg date 2020/12/29 12:47:18 </title>
  <desc>Picture generated by PCBNEW </desc>
<g style="fill:#000000; fill-opacity:1;stroke:#000000; stroke-opacity:1;
stroke-linecap:round; stroke-linejoin:round;"
 transform="translate(0 0) scale(1 1)">
</g>
<g style="fill:#000000; fill-opacity:0.0; 
stroke:#000000; stroke-width:-0.000393701; stroke-opacity:1; 
stroke-linecap:round; stroke-linejoin:round;">
</g>
<g style="fill:#000000; fill-opacity:0.0; 
stroke:#000000; stroke-width:59.0551; stroke-opacity:1; 
stroke-linecap:round; stroke-linejoin:round;">
<circle cx="120000" cy="25000" r="787.402" /> 
<circle cx="120000" cy="80000" r="787.402" /> 
<circle cx="75000" cy="80000" r="787.402" /> 
<circle cx="75000" cy="25000" r="787.402" /> 
<circle cx="207500" cy="80000" r="787.402" /> 
<circle cx="60000" cy="75000" r="1250" /> 
<circle cx="193750" cy="77500" r="1250" /> 
<circle cx="112500" cy="30000" r="1250" /> 
<circle cx="102500" cy="30000" r="1250" /> 
<circle cx="92500" cy="30000" r="1250" /> 
<circle cx="82500" cy="30000" r="1250" /> 
<circle cx="112500" cy="55000" r="1476.38" /> 
<circle cx="112500" cy="51929.1" r="590.551" /> 
<circle cx="112500" cy="41929.1" r="590.551" /> 
<circle cx="112500" cy="45000" r="1476.38" /> 
<circle cx="112500" cy="71929.1" r="590.551" /> 
<circle cx="112500" cy="61929.1" r="590.551" /> 
<circle cx="112500" cy="65000" r="1476.38" /> 
<circle cx="112500" cy="75000" r="1476.38" /> 
<circle cx="102500" cy="55000" r="1476.38" /> 
<circle cx="102500" cy="51929.1" r="590.551" /> 
<circle cx="102500" cy="41929.1" r="590.551" /> 
<circle cx="102500" cy="45000" r="1476.38" /> 
<circle cx="102500" cy="71929.1" r="590.551" /> 
<circle cx="102500" cy="61929.1" r="590.551" /> 
<circle cx="102500" cy="65000" r="1476.38" /> 
<circle cx="102500" cy="75000" r="1476.38" /> 
<circle cx="92500" cy="55000" r="1476.38" /> 
<circle cx="92500" cy="51929.1" r="590.551" /> 
<circle cx="92500" cy="41929.1" r="590.551" /> 
<circle cx="92500" cy="45000" r="1476.38" /> 
<circle cx="92500" cy="71929.1" r="590.551" /> 
<circle cx="92500" cy="61929.1" r="590.551" /> 
<circle cx="92500" cy="65000" r="1476.38" /> 
<circle cx="92500" cy="75000" r="1476.38" /> 
<circle cx="82500" cy="71929.1" r="590.551" /> 
<circle cx="82500" cy="75000" r="1476.38" /> 
<circle cx="82500" cy="61929.1" r="590.551" /> 
<circle cx="82500" cy="65000" r="1476.38" /> 
<circle cx="82500" cy="51929.1" r="590.551" /> 
<circle cx="82500" cy="55000" r="1476.38" /> 
<circle cx="82500" cy="45000" r="1476.38" /> 
<circle cx="82500" cy="41929.1" r="590.551" /> 
<circle cx="137500" cy="77500" r="1476.38" /> 
<circle cx="134429" cy="77500" r="590.551" /> 
<circle cx="167500" cy="77500" r="1476.38" /> 
<circle cx="164429" cy="77500" r="590.551" /> 
<circle cx="197500" cy="47500" r="1476.38" /> 
<circle cx="200571" cy="47500" r="590.551" /> 
<circle cx="177500" cy="50000" r="1476.38" /> 
<circle cx="174429" cy="50000" r="590.551" /> 
<circle cx="167500" cy="50000" r="1476.38" /> 
<circle cx="164429" cy="50000" r="590.551" /> 
<circle cx="157500" cy="50000" r="1476.38" /> 
<circle cx="154429" cy="50000" r="590.551" /> 
<circle cx="147500" cy="50000" r="1476.38" /> 
<circle cx="144429" cy="50000" r="590.551" /> 
<circle cx="137500" cy="50000" r="1476.38" /> 
<circle cx="134429" cy="50000" r="590.551" /> 
<circle cx="127500" cy="50000" r="1476.38" /> 
<circle cx="124429" cy="50000" r="590.551" /> 
<circle cx="175000" cy="32500" r="1476.38" /> 
<circle cx="171929" cy="32500" r="590.551" /> 
<circle cx="165000" cy="32500" r="1476.38" /> 
<circle cx="161929" cy="32500" r="590.551" /> 
<circle cx="155000" cy="32500" r="1476.38" /> 
<circle cx="151929" cy="32500" r="590.551" /> 
<circle cx="145000" cy="32500" r="1476.38" /> 
<circle cx="141929" cy="32500" r="590.551" /> 
<circle cx="192500" cy="62500" r="1870.08" /> 
<circle cx="202500" cy="62500" r="1870.08" /> 
<circle cx="200000" cy="55000" r="1250" /> 
<circle cx="195000" cy="55000" r="1250" /> 
<circle cx="157500" cy="77500" r="1870.08" /> 
<circle cx="177500" cy="77500" r="1250" /> 
<circle cx="147500" cy="77500" r="1250" /> 
<circle cx="127500" cy="77500" r="1870.08" /> 
<circle cx="127500" cy="32500" r="1476.38" /> 
<circle cx="130571" cy="32500" r="590.551" /> 
<circle cx="201250" cy="77500" r="1250" /> 
<circle cx="177500" cy="62500" r="1250" /> 
<circle cx="165000" cy="62500" r="1250" /> 
<circle cx="157500" cy="62500" r="1250" /> 
<circle cx="150000" cy="62500" r="1250" /> 
<circle cx="137500" cy="62500" r="1250" /> 
<circle cx="127500" cy="62500" r="1250" /> 
<circle cx="200000" cy="32500" r="1250" /> 
<circle cx="192500" cy="32500" r="1250" /> 
<circle cx="185000" cy="32500" r="1250" /> 
<circle cx="47849.4" cy="75000" r="610.236" /> 
<circle cx="43125" cy="75000" r="1771.65" /> 
<circle cx="130000" cy="40000" r="1250" /> 
<circle cx="125000" cy="40000" r="1250" /> 
<circle cx="112500" cy="37500" r="1377.95" /> 
<circle cx="102500" cy="37500" r="1377.95" /> 
<circle cx="92500" cy="37500" r="1377.95" /> 
<circle cx="82500" cy="37500" r="1377.95" /> 
<circle cx="207500" cy="25000" r="787.402" /> 
<circle cx="12500" cy="80000" r="787.402" /> 
<circle cx="12500" cy="25000" r="787.402" /> 
<circle cx="52500" cy="65000" r="1476.38" /> 
<circle cx="52500" cy="38070.9" r="590.551" /> 
<circle cx="67500" cy="35000" r="1476.38" /> 
<circle cx="52500" cy="50000" r="1476.38" /> 
<circle cx="52500" cy="68070.9" r="590.551" /> 
<circle cx="52500" cy="53070.9" r="590.551" /> 
<circle cx="52500" cy="35000" r="1476.38" /> 
<circle cx="62500" cy="60000" r="1250" /> 
<circle cx="47500" cy="45000" r="1250" /> 
<circle cx="47500" cy="30000" r="1250" /> 
<circle cx="47500" cy="60000" r="1250" /> 
<circle cx="67500" cy="53070.9" r="590.551" /> 
<circle cx="62500" cy="45000" r="1250" /> 
<circle cx="62500" cy="30000" r="1250" /> 
<circle cx="67500" cy="38070.9" r="590.551" /> 
<circle cx="67500" cy="65000" r="1476.38" /> 
<circle cx="67500" cy="50000" r="1476.38" /> 
<circle cx="67500" cy="68070.9" r="590.551" /> 
<circle cx="37500" cy="65000" r="1476.38" /> 
<circle cx="37500" cy="38070.9" r="590.551" /> 
<circle cx="37500" cy="50000" r="1476.38" /> 
<circle cx="37500" cy="68070.9" r="590.551" /> 
<circle cx="37500" cy="53070.9" r="590.551" /> 
<circle cx="37500" cy="35000" r="1476.38" /> 
<circle cx="32500" cy="45000" r="1250" /> 
<circle cx="32500" cy="30000" r="1250" /> 
<circle cx="32500" cy="60000" r="1250" /> 
<circle cx="22500" cy="68070.9" r="590.551" /> 
<circle cx="22500" cy="65000" r="1476.38" /> 
<circle cx="17500" cy="60000" r="1250" /> 
<circle cx="22500" cy="53070.9" r="590.551" /> 
<circle cx="22500" cy="50000" r="1476.38" /> 
<circle cx="17500" cy="45000" r="1250" /> 
<circle cx="17500" cy="30000" r="1250" /> 
<circle cx="22500" cy="38070.9" r="590.551" /> 
<circle cx="22500" cy="35000" r="1476.38" /> 
<path d="M7500 85000
L7500 20000
" />
<path d="M212500 85000
L7500 85000
" />
<path d="M212500 20000
L212500 85000
" />
<path d="M7500 20000
L212500 20000
" />
<g >
</g>
<g >
</g>
<g >
</g>
</g> 
</svg>
