%TF.GenerationSoftware,KiCad,Pcbnew,(5.1.6)-1*%
%TF.CreationDate,2021-01-30T08:40:35-05:00*%
%TF.ProjectId,PercGenerator,50657263-4765-46e6-9572-61746f722e6b,rev?*%
%TF.SameCoordinates,Original*%
%TF.FileFunction,Legend,Top*%
%TF.FilePolarity,Positive*%
%FSLAX46Y46*%
G04 Gerber Fmt 4.6, Leading zero omitted, Abs format (unit mm)*
G04 Created by KiCad (PCBNEW (5.1.6)-1) date 2021-01-30 08:40:35*
%MOMM*%
%LPD*%
G01*
G04 APERTURE LIST*
%ADD10C,0.187500*%
%ADD11C,0.200000*%
%ADD12C,0.180000*%
%ADD13C,0.300000*%
%ADD14C,0.120000*%
%ADD15C,0.150000*%
G04 APERTURE END LIST*
D10*
X222568035Y-135153571D02*
X221818035Y-135153571D01*
X222353750Y-134903571D01*
X221818035Y-134653571D01*
X222568035Y-134653571D01*
X222568035Y-133975000D02*
X222175178Y-133975000D01*
X222103750Y-134010714D01*
X222068035Y-134082142D01*
X222068035Y-134225000D01*
X222103750Y-134296428D01*
X222532321Y-133975000D02*
X222568035Y-134046428D01*
X222568035Y-134225000D01*
X222532321Y-134296428D01*
X222460892Y-134332142D01*
X222389464Y-134332142D01*
X222318035Y-134296428D01*
X222282321Y-134225000D01*
X222282321Y-134046428D01*
X222246607Y-133975000D01*
X222068035Y-133617857D02*
X222568035Y-133617857D01*
X222139464Y-133617857D02*
X222103750Y-133582142D01*
X222068035Y-133510714D01*
X222068035Y-133403571D01*
X222103750Y-133332142D01*
X222175178Y-133296428D01*
X222568035Y-133296428D01*
X222068035Y-132617857D02*
X222568035Y-132617857D01*
X222068035Y-132939285D02*
X222460892Y-132939285D01*
X222532321Y-132903571D01*
X222568035Y-132832142D01*
X222568035Y-132725000D01*
X222532321Y-132653571D01*
X222496607Y-132617857D01*
X222568035Y-131939285D02*
X222175178Y-131939285D01*
X222103750Y-131975000D01*
X222068035Y-132046428D01*
X222068035Y-132189285D01*
X222103750Y-132260714D01*
X222532321Y-131939285D02*
X222568035Y-132010714D01*
X222568035Y-132189285D01*
X222532321Y-132260714D01*
X222460892Y-132296428D01*
X222389464Y-132296428D01*
X222318035Y-132260714D01*
X222282321Y-132189285D01*
X222282321Y-132010714D01*
X222246607Y-131939285D01*
X222568035Y-131475000D02*
X222532321Y-131546428D01*
X222460892Y-131582142D01*
X221818035Y-131582142D01*
X223130535Y-135207142D02*
X223130535Y-134778571D01*
X223880535Y-134992857D02*
X223130535Y-134992857D01*
X223880535Y-134528571D02*
X223380535Y-134528571D01*
X223523392Y-134528571D02*
X223451964Y-134492857D01*
X223416250Y-134457142D01*
X223380535Y-134385714D01*
X223380535Y-134314285D01*
X223880535Y-134064285D02*
X223380535Y-134064285D01*
X223130535Y-134064285D02*
X223166250Y-134100000D01*
X223201964Y-134064285D01*
X223166250Y-134028571D01*
X223130535Y-134064285D01*
X223201964Y-134064285D01*
X223380535Y-133385714D02*
X223987678Y-133385714D01*
X224059107Y-133421428D01*
X224094821Y-133457142D01*
X224130535Y-133528571D01*
X224130535Y-133635714D01*
X224094821Y-133707142D01*
X223844821Y-133385714D02*
X223880535Y-133457142D01*
X223880535Y-133600000D01*
X223844821Y-133671428D01*
X223809107Y-133707142D01*
X223737678Y-133742857D01*
X223523392Y-133742857D01*
X223451964Y-133707142D01*
X223416250Y-133671428D01*
X223380535Y-133600000D01*
X223380535Y-133457142D01*
X223416250Y-133385714D01*
X223380535Y-132707142D02*
X223987678Y-132707142D01*
X224059107Y-132742857D01*
X224094821Y-132778571D01*
X224130535Y-132850000D01*
X224130535Y-132957142D01*
X224094821Y-133028571D01*
X223844821Y-132707142D02*
X223880535Y-132778571D01*
X223880535Y-132921428D01*
X223844821Y-132992857D01*
X223809107Y-133028571D01*
X223737678Y-133064285D01*
X223523392Y-133064285D01*
X223451964Y-133028571D01*
X223416250Y-132992857D01*
X223380535Y-132921428D01*
X223380535Y-132778571D01*
X223416250Y-132707142D01*
X223844821Y-132064285D02*
X223880535Y-132135714D01*
X223880535Y-132278571D01*
X223844821Y-132350000D01*
X223773392Y-132385714D01*
X223487678Y-132385714D01*
X223416250Y-132350000D01*
X223380535Y-132278571D01*
X223380535Y-132135714D01*
X223416250Y-132064285D01*
X223487678Y-132028571D01*
X223559107Y-132028571D01*
X223630535Y-132385714D01*
X223880535Y-131707142D02*
X223380535Y-131707142D01*
X223523392Y-131707142D02*
X223451964Y-131671428D01*
X223416250Y-131635714D01*
X223380535Y-131564285D01*
X223380535Y-131492857D01*
X193379285Y-121239285D02*
X192629285Y-121239285D01*
X193379285Y-120810714D01*
X192629285Y-120810714D01*
X193307857Y-120025000D02*
X193343571Y-120060714D01*
X193379285Y-120167857D01*
X193379285Y-120239285D01*
X193343571Y-120346428D01*
X193272142Y-120417857D01*
X193200714Y-120453571D01*
X193057857Y-120489285D01*
X192950714Y-120489285D01*
X192807857Y-120453571D01*
X192736428Y-120417857D01*
X192665000Y-120346428D01*
X192629285Y-120239285D01*
X192629285Y-120167857D01*
X192665000Y-120060714D01*
X192700714Y-120025000D01*
X190839285Y-121239285D02*
X190089285Y-121239285D01*
X190839285Y-120810714D01*
X190089285Y-120810714D01*
X190767857Y-120025000D02*
X190803571Y-120060714D01*
X190839285Y-120167857D01*
X190839285Y-120239285D01*
X190803571Y-120346428D01*
X190732142Y-120417857D01*
X190660714Y-120453571D01*
X190517857Y-120489285D01*
X190410714Y-120489285D01*
X190267857Y-120453571D01*
X190196428Y-120417857D01*
X190125000Y-120346428D01*
X190089285Y-120239285D01*
X190089285Y-120167857D01*
X190125000Y-120060714D01*
X190160714Y-120025000D01*
X188299285Y-121239285D02*
X187549285Y-121239285D01*
X188299285Y-120810714D01*
X187549285Y-120810714D01*
X188227857Y-120025000D02*
X188263571Y-120060714D01*
X188299285Y-120167857D01*
X188299285Y-120239285D01*
X188263571Y-120346428D01*
X188192142Y-120417857D01*
X188120714Y-120453571D01*
X187977857Y-120489285D01*
X187870714Y-120489285D01*
X187727857Y-120453571D01*
X187656428Y-120417857D01*
X187585000Y-120346428D01*
X187549285Y-120239285D01*
X187549285Y-120167857D01*
X187585000Y-120060714D01*
X187620714Y-120025000D01*
X185759285Y-121239285D02*
X185009285Y-121239285D01*
X185759285Y-120810714D01*
X185009285Y-120810714D01*
X185687857Y-120025000D02*
X185723571Y-120060714D01*
X185759285Y-120167857D01*
X185759285Y-120239285D01*
X185723571Y-120346428D01*
X185652142Y-120417857D01*
X185580714Y-120453571D01*
X185437857Y-120489285D01*
X185330714Y-120489285D01*
X185187857Y-120453571D01*
X185116428Y-120417857D01*
X185045000Y-120346428D01*
X185009285Y-120239285D01*
X185009285Y-120167857D01*
X185045000Y-120060714D01*
X185080714Y-120025000D01*
D11*
X182594285Y-120102380D02*
X183165714Y-120102380D01*
X182880000Y-121102380D02*
X182880000Y-120102380D01*
X180244761Y-120102380D02*
X180435238Y-120102380D01*
X180530476Y-120150000D01*
X180625714Y-120245238D01*
X180673333Y-120435714D01*
X180673333Y-120769047D01*
X180625714Y-120959523D01*
X180530476Y-121054761D01*
X180435238Y-121102380D01*
X180244761Y-121102380D01*
X180149523Y-121054761D01*
X180054285Y-120959523D01*
X180006666Y-120769047D01*
X180006666Y-120435714D01*
X180054285Y-120245238D01*
X180149523Y-120150000D01*
X180244761Y-120102380D01*
X177323809Y-120739285D02*
X178276190Y-120739285D01*
D12*
X174783809Y-120530952D02*
X175736190Y-120530952D01*
X174974285Y-120816666D02*
X175545714Y-120816666D01*
X175260000Y-120102380D02*
X175260000Y-120530952D01*
X175355238Y-121102380D02*
X175164761Y-121102380D01*
D11*
X172243809Y-120739285D02*
X173196190Y-120739285D01*
X172720000Y-121215476D02*
X172720000Y-120263095D01*
D10*
X143157142Y-132376785D02*
X143157142Y-131626785D01*
X143442857Y-131626785D01*
X143514285Y-131662500D01*
X143550000Y-131698214D01*
X143585714Y-131769642D01*
X143585714Y-131876785D01*
X143550000Y-131948214D01*
X143514285Y-131983928D01*
X143442857Y-132019642D01*
X143157142Y-132019642D01*
X144192857Y-132341071D02*
X144121428Y-132376785D01*
X143978571Y-132376785D01*
X143907142Y-132341071D01*
X143871428Y-132269642D01*
X143871428Y-131983928D01*
X143907142Y-131912500D01*
X143978571Y-131876785D01*
X144121428Y-131876785D01*
X144192857Y-131912500D01*
X144228571Y-131983928D01*
X144228571Y-132055357D01*
X143871428Y-132126785D01*
X144550000Y-132376785D02*
X144550000Y-131876785D01*
X144550000Y-132019642D02*
X144585714Y-131948214D01*
X144621428Y-131912500D01*
X144692857Y-131876785D01*
X144764285Y-131876785D01*
X145335714Y-132341071D02*
X145264285Y-132376785D01*
X145121428Y-132376785D01*
X145050000Y-132341071D01*
X145014285Y-132305357D01*
X144978571Y-132233928D01*
X144978571Y-132019642D01*
X145014285Y-131948214D01*
X145050000Y-131912500D01*
X145121428Y-131876785D01*
X145264285Y-131876785D01*
X145335714Y-131912500D01*
X146192857Y-132341071D02*
X146300000Y-132376785D01*
X146478571Y-132376785D01*
X146550000Y-132341071D01*
X146585714Y-132305357D01*
X146621428Y-132233928D01*
X146621428Y-132162500D01*
X146585714Y-132091071D01*
X146550000Y-132055357D01*
X146478571Y-132019642D01*
X146335714Y-131983928D01*
X146264285Y-131948214D01*
X146228571Y-131912500D01*
X146192857Y-131841071D01*
X146192857Y-131769642D01*
X146228571Y-131698214D01*
X146264285Y-131662500D01*
X146335714Y-131626785D01*
X146514285Y-131626785D01*
X146621428Y-131662500D01*
X146871428Y-131876785D02*
X147050000Y-132376785D01*
X147228571Y-131876785D02*
X147050000Y-132376785D01*
X146978571Y-132555357D01*
X146942857Y-132591071D01*
X146871428Y-132626785D01*
X147514285Y-131876785D02*
X147514285Y-132376785D01*
X147514285Y-131948214D02*
X147550000Y-131912500D01*
X147621428Y-131876785D01*
X147728571Y-131876785D01*
X147800000Y-131912500D01*
X147835714Y-131983928D01*
X147835714Y-132376785D01*
X148085714Y-131876785D02*
X148371428Y-131876785D01*
X148192857Y-131626785D02*
X148192857Y-132269642D01*
X148228571Y-132341071D01*
X148300000Y-132376785D01*
X148371428Y-132376785D01*
X148621428Y-132376785D02*
X148621428Y-131626785D01*
X148942857Y-132376785D02*
X148942857Y-131983928D01*
X148907142Y-131912500D01*
X148835714Y-131876785D01*
X148728571Y-131876785D01*
X148657142Y-131912500D01*
X148621428Y-131948214D01*
X140639285Y-132939285D02*
X141139285Y-132939285D01*
X140639285Y-133689285D01*
X141139285Y-133689285D01*
X141746428Y-133689285D02*
X141746428Y-133296428D01*
X141710714Y-133225000D01*
X141639285Y-133189285D01*
X141496428Y-133189285D01*
X141425000Y-133225000D01*
X141746428Y-133653571D02*
X141675000Y-133689285D01*
X141496428Y-133689285D01*
X141425000Y-133653571D01*
X141389285Y-133582142D01*
X141389285Y-133510714D01*
X141425000Y-133439285D01*
X141496428Y-133403571D01*
X141675000Y-133403571D01*
X141746428Y-133367857D01*
X142425000Y-133653571D02*
X142353571Y-133689285D01*
X142210714Y-133689285D01*
X142139285Y-133653571D01*
X142103571Y-133617857D01*
X142067857Y-133546428D01*
X142067857Y-133332142D01*
X142103571Y-133260714D01*
X142139285Y-133225000D01*
X142210714Y-133189285D01*
X142353571Y-133189285D01*
X142425000Y-133225000D01*
X142746428Y-133689285D02*
X142746428Y-132939285D01*
X143067857Y-133689285D02*
X143067857Y-133296428D01*
X143032142Y-133225000D01*
X142960714Y-133189285D01*
X142853571Y-133189285D01*
X142782142Y-133225000D01*
X142746428Y-133260714D01*
X144246428Y-133296428D02*
X144353571Y-133332142D01*
X144389285Y-133367857D01*
X144425000Y-133439285D01*
X144425000Y-133546428D01*
X144389285Y-133617857D01*
X144353571Y-133653571D01*
X144282142Y-133689285D01*
X143996428Y-133689285D01*
X143996428Y-132939285D01*
X144246428Y-132939285D01*
X144317857Y-132975000D01*
X144353571Y-133010714D01*
X144389285Y-133082142D01*
X144389285Y-133153571D01*
X144353571Y-133225000D01*
X144317857Y-133260714D01*
X144246428Y-133296428D01*
X143996428Y-133296428D01*
X145067857Y-133689285D02*
X145067857Y-133296428D01*
X145032142Y-133225000D01*
X144960714Y-133189285D01*
X144817857Y-133189285D01*
X144746428Y-133225000D01*
X145067857Y-133653571D02*
X144996428Y-133689285D01*
X144817857Y-133689285D01*
X144746428Y-133653571D01*
X144710714Y-133582142D01*
X144710714Y-133510714D01*
X144746428Y-133439285D01*
X144817857Y-133403571D01*
X144996428Y-133403571D01*
X145067857Y-133367857D01*
X145532142Y-133689285D02*
X145460714Y-133653571D01*
X145425000Y-133582142D01*
X145425000Y-132939285D01*
X146139285Y-133689285D02*
X146139285Y-132939285D01*
X146139285Y-133653571D02*
X146067857Y-133689285D01*
X145925000Y-133689285D01*
X145853571Y-133653571D01*
X145817857Y-133617857D01*
X145782142Y-133546428D01*
X145782142Y-133332142D01*
X145817857Y-133260714D01*
X145853571Y-133225000D01*
X145925000Y-133189285D01*
X146067857Y-133189285D01*
X146139285Y-133225000D01*
X146425000Y-133189285D02*
X146567857Y-133689285D01*
X146710714Y-133332142D01*
X146853571Y-133689285D01*
X146996428Y-133189285D01*
X147282142Y-133689285D02*
X147282142Y-133189285D01*
X147282142Y-132939285D02*
X147246428Y-132975000D01*
X147282142Y-133010714D01*
X147317857Y-132975000D01*
X147282142Y-132939285D01*
X147282142Y-133010714D01*
X147639285Y-133189285D02*
X147639285Y-133689285D01*
X147639285Y-133260714D02*
X147675000Y-133225000D01*
X147746428Y-133189285D01*
X147853571Y-133189285D01*
X147925000Y-133225000D01*
X147960714Y-133296428D01*
X147960714Y-133689285D01*
X148853571Y-133010714D02*
X148889285Y-132975000D01*
X148960714Y-132939285D01*
X149139285Y-132939285D01*
X149210714Y-132975000D01*
X149246428Y-133010714D01*
X149282142Y-133082142D01*
X149282142Y-133153571D01*
X149246428Y-133260714D01*
X148817857Y-133689285D01*
X149282142Y-133689285D01*
X149746428Y-132939285D02*
X149817857Y-132939285D01*
X149889285Y-132975000D01*
X149925000Y-133010714D01*
X149960714Y-133082142D01*
X149996428Y-133225000D01*
X149996428Y-133403571D01*
X149960714Y-133546428D01*
X149925000Y-133617857D01*
X149889285Y-133653571D01*
X149817857Y-133689285D01*
X149746428Y-133689285D01*
X149675000Y-133653571D01*
X149639285Y-133617857D01*
X149603571Y-133546428D01*
X149567857Y-133403571D01*
X149567857Y-133225000D01*
X149603571Y-133082142D01*
X149639285Y-133010714D01*
X149675000Y-132975000D01*
X149746428Y-132939285D01*
X150282142Y-133010714D02*
X150317857Y-132975000D01*
X150389285Y-132939285D01*
X150567857Y-132939285D01*
X150639285Y-132975000D01*
X150675000Y-133010714D01*
X150710714Y-133082142D01*
X150710714Y-133153571D01*
X150675000Y-133260714D01*
X150246428Y-133689285D01*
X150710714Y-133689285D01*
X151175000Y-132939285D02*
X151246428Y-132939285D01*
X151317857Y-132975000D01*
X151353571Y-133010714D01*
X151389285Y-133082142D01*
X151425000Y-133225000D01*
X151425000Y-133403571D01*
X151389285Y-133546428D01*
X151353571Y-133617857D01*
X151317857Y-133653571D01*
X151246428Y-133689285D01*
X151175000Y-133689285D01*
X151103571Y-133653571D01*
X151067857Y-133617857D01*
X151032142Y-133546428D01*
X150996428Y-133403571D01*
X150996428Y-133225000D01*
X151032142Y-133082142D01*
X151067857Y-133010714D01*
X151103571Y-132975000D01*
X151175000Y-132939285D01*
X137085714Y-134251785D02*
X137228571Y-134251785D01*
X137300000Y-134287500D01*
X137371428Y-134358928D01*
X137407142Y-134501785D01*
X137407142Y-134751785D01*
X137371428Y-134894642D01*
X137300000Y-134966071D01*
X137228571Y-135001785D01*
X137085714Y-135001785D01*
X137014285Y-134966071D01*
X136942857Y-134894642D01*
X136907142Y-134751785D01*
X136907142Y-134501785D01*
X136942857Y-134358928D01*
X137014285Y-134287500D01*
X137085714Y-134251785D01*
X137728571Y-135001785D02*
X137728571Y-134501785D01*
X137728571Y-134644642D02*
X137764285Y-134573214D01*
X137800000Y-134537500D01*
X137871428Y-134501785D01*
X137942857Y-134501785D01*
X138192857Y-135001785D02*
X138192857Y-134501785D01*
X138192857Y-134251785D02*
X138157142Y-134287500D01*
X138192857Y-134323214D01*
X138228571Y-134287500D01*
X138192857Y-134251785D01*
X138192857Y-134323214D01*
X138871428Y-134501785D02*
X138871428Y-135108928D01*
X138835714Y-135180357D01*
X138800000Y-135216071D01*
X138728571Y-135251785D01*
X138621428Y-135251785D01*
X138550000Y-135216071D01*
X138871428Y-134966071D02*
X138800000Y-135001785D01*
X138657142Y-135001785D01*
X138585714Y-134966071D01*
X138550000Y-134930357D01*
X138514285Y-134858928D01*
X138514285Y-134644642D01*
X138550000Y-134573214D01*
X138585714Y-134537500D01*
X138657142Y-134501785D01*
X138800000Y-134501785D01*
X138871428Y-134537500D01*
X139228571Y-135001785D02*
X139228571Y-134501785D01*
X139228571Y-134251785D02*
X139192857Y-134287500D01*
X139228571Y-134323214D01*
X139264285Y-134287500D01*
X139228571Y-134251785D01*
X139228571Y-134323214D01*
X139585714Y-134501785D02*
X139585714Y-135001785D01*
X139585714Y-134573214D02*
X139621428Y-134537500D01*
X139692857Y-134501785D01*
X139800000Y-134501785D01*
X139871428Y-134537500D01*
X139907142Y-134608928D01*
X139907142Y-135001785D01*
X140585714Y-135001785D02*
X140585714Y-134608928D01*
X140550000Y-134537500D01*
X140478571Y-134501785D01*
X140335714Y-134501785D01*
X140264285Y-134537500D01*
X140585714Y-134966071D02*
X140514285Y-135001785D01*
X140335714Y-135001785D01*
X140264285Y-134966071D01*
X140228571Y-134894642D01*
X140228571Y-134823214D01*
X140264285Y-134751785D01*
X140335714Y-134716071D01*
X140514285Y-134716071D01*
X140585714Y-134680357D01*
X141050000Y-135001785D02*
X140978571Y-134966071D01*
X140942857Y-134894642D01*
X140942857Y-134251785D01*
X141907142Y-135001785D02*
X141907142Y-134251785D01*
X142085714Y-134251785D01*
X142192857Y-134287500D01*
X142264285Y-134358928D01*
X142300000Y-134430357D01*
X142335714Y-134573214D01*
X142335714Y-134680357D01*
X142300000Y-134823214D01*
X142264285Y-134894642D01*
X142192857Y-134966071D01*
X142085714Y-135001785D01*
X141907142Y-135001785D01*
X142942857Y-134966071D02*
X142871428Y-135001785D01*
X142728571Y-135001785D01*
X142657142Y-134966071D01*
X142621428Y-134894642D01*
X142621428Y-134608928D01*
X142657142Y-134537500D01*
X142728571Y-134501785D01*
X142871428Y-134501785D01*
X142942857Y-134537500D01*
X142978571Y-134608928D01*
X142978571Y-134680357D01*
X142621428Y-134751785D01*
X143264285Y-134966071D02*
X143335714Y-135001785D01*
X143478571Y-135001785D01*
X143550000Y-134966071D01*
X143585714Y-134894642D01*
X143585714Y-134858928D01*
X143550000Y-134787500D01*
X143478571Y-134751785D01*
X143371428Y-134751785D01*
X143300000Y-134716071D01*
X143264285Y-134644642D01*
X143264285Y-134608928D01*
X143300000Y-134537500D01*
X143371428Y-134501785D01*
X143478571Y-134501785D01*
X143550000Y-134537500D01*
X143907142Y-135001785D02*
X143907142Y-134501785D01*
X143907142Y-134251785D02*
X143871428Y-134287500D01*
X143907142Y-134323214D01*
X143942857Y-134287500D01*
X143907142Y-134251785D01*
X143907142Y-134323214D01*
X144585714Y-134501785D02*
X144585714Y-135108928D01*
X144550000Y-135180357D01*
X144514285Y-135216071D01*
X144442857Y-135251785D01*
X144335714Y-135251785D01*
X144264285Y-135216071D01*
X144585714Y-134966071D02*
X144514285Y-135001785D01*
X144371428Y-135001785D01*
X144300000Y-134966071D01*
X144264285Y-134930357D01*
X144228571Y-134858928D01*
X144228571Y-134644642D01*
X144264285Y-134573214D01*
X144300000Y-134537500D01*
X144371428Y-134501785D01*
X144514285Y-134501785D01*
X144585714Y-134537500D01*
X144942857Y-134501785D02*
X144942857Y-135001785D01*
X144942857Y-134573214D02*
X144978571Y-134537500D01*
X145050000Y-134501785D01*
X145157142Y-134501785D01*
X145228571Y-134537500D01*
X145264285Y-134608928D01*
X145264285Y-135001785D01*
X145621428Y-134930357D02*
X145657142Y-134966071D01*
X145621428Y-135001785D01*
X145585714Y-134966071D01*
X145621428Y-134930357D01*
X145621428Y-135001785D01*
X145621428Y-134537500D02*
X145657142Y-134573214D01*
X145621428Y-134608928D01*
X145585714Y-134573214D01*
X145621428Y-134537500D01*
X145621428Y-134608928D01*
X146800000Y-134608928D02*
X146550000Y-134608928D01*
X146550000Y-135001785D02*
X146550000Y-134251785D01*
X146907142Y-134251785D01*
X147300000Y-135001785D02*
X147228571Y-134966071D01*
X147192857Y-134930357D01*
X147157142Y-134858928D01*
X147157142Y-134644642D01*
X147192857Y-134573214D01*
X147228571Y-134537500D01*
X147300000Y-134501785D01*
X147407142Y-134501785D01*
X147478571Y-134537500D01*
X147514285Y-134573214D01*
X147550000Y-134644642D01*
X147550000Y-134858928D01*
X147514285Y-134930357D01*
X147478571Y-134966071D01*
X147407142Y-135001785D01*
X147300000Y-135001785D01*
X147871428Y-135001785D02*
X147871428Y-134501785D01*
X147871428Y-134644642D02*
X147907142Y-134573214D01*
X147942857Y-134537500D01*
X148014285Y-134501785D01*
X148085714Y-134501785D01*
X148335714Y-135001785D02*
X148335714Y-134501785D01*
X148335714Y-134644642D02*
X148371428Y-134573214D01*
X148407142Y-134537500D01*
X148478571Y-134501785D01*
X148550000Y-134501785D01*
X149085714Y-134966071D02*
X149014285Y-135001785D01*
X148871428Y-135001785D01*
X148800000Y-134966071D01*
X148764285Y-134894642D01*
X148764285Y-134608928D01*
X148800000Y-134537500D01*
X148871428Y-134501785D01*
X149014285Y-134501785D01*
X149085714Y-134537500D01*
X149121428Y-134608928D01*
X149121428Y-134680357D01*
X148764285Y-134751785D01*
X149407142Y-134966071D02*
X149478571Y-135001785D01*
X149621428Y-135001785D01*
X149692857Y-134966071D01*
X149728571Y-134894642D01*
X149728571Y-134858928D01*
X149692857Y-134787500D01*
X149621428Y-134751785D01*
X149514285Y-134751785D01*
X149442857Y-134716071D01*
X149407142Y-134644642D01*
X149407142Y-134608928D01*
X149442857Y-134537500D01*
X149514285Y-134501785D01*
X149621428Y-134501785D01*
X149692857Y-134537500D01*
X149942857Y-134501785D02*
X150228571Y-134501785D01*
X150050000Y-134251785D02*
X150050000Y-134894642D01*
X150085714Y-134966071D01*
X150157142Y-135001785D01*
X150228571Y-135001785D01*
X151050000Y-135001785D02*
X151050000Y-134251785D01*
X151300000Y-134787500D01*
X151550000Y-134251785D01*
X151550000Y-135001785D01*
X151907142Y-135001785D02*
X151907142Y-134501785D01*
X151907142Y-134251785D02*
X151871428Y-134287500D01*
X151907142Y-134323214D01*
X151942857Y-134287500D01*
X151907142Y-134251785D01*
X151907142Y-134323214D01*
X152264285Y-135001785D02*
X152264285Y-134501785D01*
X152264285Y-134573214D02*
X152300000Y-134537500D01*
X152371428Y-134501785D01*
X152478571Y-134501785D01*
X152550000Y-134537500D01*
X152585714Y-134608928D01*
X152585714Y-135001785D01*
X152585714Y-134608928D02*
X152621428Y-134537500D01*
X152692857Y-134501785D01*
X152800000Y-134501785D01*
X152871428Y-134537500D01*
X152907142Y-134608928D01*
X152907142Y-135001785D01*
X153228571Y-134966071D02*
X153300000Y-135001785D01*
X153442857Y-135001785D01*
X153514285Y-134966071D01*
X153550000Y-134894642D01*
X153550000Y-134858928D01*
X153514285Y-134787500D01*
X153442857Y-134751785D01*
X153335714Y-134751785D01*
X153264285Y-134716071D01*
X153228571Y-134644642D01*
X153228571Y-134608928D01*
X153264285Y-134537500D01*
X153335714Y-134501785D01*
X153442857Y-134501785D01*
X153514285Y-134537500D01*
X154442857Y-135001785D02*
X154442857Y-134251785D01*
X154800000Y-135001785D02*
X154800000Y-134251785D01*
X155157142Y-135001785D02*
X155157142Y-134251785D01*
D13*
X219087142Y-136973571D02*
X219587142Y-138473571D01*
X220087142Y-136973571D01*
X220872857Y-136973571D02*
X221158571Y-136973571D01*
X221301428Y-137045000D01*
X221444285Y-137187857D01*
X221515714Y-137473571D01*
X221515714Y-137973571D01*
X221444285Y-138259285D01*
X221301428Y-138402142D01*
X221158571Y-138473571D01*
X220872857Y-138473571D01*
X220730000Y-138402142D01*
X220587142Y-138259285D01*
X220515714Y-137973571D01*
X220515714Y-137473571D01*
X220587142Y-137187857D01*
X220730000Y-137045000D01*
X220872857Y-136973571D01*
X222872857Y-138473571D02*
X222158571Y-138473571D01*
X222158571Y-136973571D01*
D14*
%TO.C,U2*%
X214690000Y-127980000D02*
X214690000Y-126730000D01*
X204410000Y-127980000D02*
X214690000Y-127980000D01*
X204410000Y-123480000D02*
X204410000Y-127980000D01*
X214690000Y-123480000D02*
X204410000Y-123480000D01*
X214690000Y-124730000D02*
X214690000Y-123480000D01*
X214690000Y-126730000D02*
G75*
G02*
X214690000Y-124730000I0J1000000D01*
G01*
%TO.C,U1*%
X183170000Y-135950000D02*
X184420000Y-135950000D01*
X183170000Y-125670000D02*
X183170000Y-135950000D01*
X187670000Y-125670000D02*
X183170000Y-125670000D01*
X187670000Y-135950000D02*
X187670000Y-125670000D01*
X186420000Y-135950000D02*
X187670000Y-135950000D01*
X184420000Y-135950000D02*
G75*
G02*
X186420000Y-135950000I1000000J0D01*
G01*
%TO.C,J2*%
X220405000Y-132655000D02*
X220405000Y-133985000D01*
X219075000Y-132655000D02*
X220405000Y-132655000D01*
X217805000Y-132655000D02*
X217805000Y-135315000D01*
X217805000Y-135315000D02*
X215205000Y-135315000D01*
X217805000Y-132655000D02*
X215205000Y-132655000D01*
X215205000Y-132655000D02*
X215205000Y-135315000D01*
%TO.C,RV4*%
X229100000Y-140620000D02*
X229100000Y-148860000D01*
X212860000Y-140620000D02*
X212860000Y-148860000D01*
X229100000Y-140620000D02*
X212860000Y-140620000D01*
X229100000Y-148860000D02*
X212860000Y-148860000D01*
X226100000Y-148860000D02*
X226100000Y-157860000D01*
X215860000Y-148860000D02*
X215860000Y-157860000D01*
X226100000Y-148860000D02*
X215860000Y-148860000D01*
X226100000Y-157860000D02*
X215860000Y-157860000D01*
X224100000Y-157860000D02*
X224100000Y-173860000D01*
X217859000Y-157860000D02*
X217859000Y-173860000D01*
X224100000Y-157860000D02*
X217859000Y-157860000D01*
X224100000Y-173860000D02*
X217859000Y-173860000D01*
%TO.C,RV3*%
X178300000Y-140620000D02*
X178300000Y-148860000D01*
X162060000Y-140620000D02*
X162060000Y-148860000D01*
X178300000Y-140620000D02*
X162060000Y-140620000D01*
X178300000Y-148860000D02*
X162060000Y-148860000D01*
X175300000Y-148860000D02*
X175300000Y-157860000D01*
X165060000Y-148860000D02*
X165060000Y-157860000D01*
X175300000Y-148860000D02*
X165060000Y-148860000D01*
X175300000Y-157860000D02*
X165060000Y-157860000D01*
X173300000Y-157860000D02*
X173300000Y-173860000D01*
X167059000Y-157860000D02*
X167059000Y-173860000D01*
X173300000Y-157860000D02*
X167059000Y-157860000D01*
X173300000Y-173860000D02*
X167059000Y-173860000D01*
%TO.C,RV2*%
X152900000Y-140620000D02*
X152900000Y-148860000D01*
X136660000Y-140620000D02*
X136660000Y-148860000D01*
X152900000Y-140620000D02*
X136660000Y-140620000D01*
X152900000Y-148860000D02*
X136660000Y-148860000D01*
X149900000Y-148860000D02*
X149900000Y-157860000D01*
X139660000Y-148860000D02*
X139660000Y-157860000D01*
X149900000Y-148860000D02*
X139660000Y-148860000D01*
X149900000Y-157860000D02*
X139660000Y-157860000D01*
X147900000Y-157860000D02*
X147900000Y-173860000D01*
X141659000Y-157860000D02*
X141659000Y-173860000D01*
X147900000Y-157860000D02*
X141659000Y-157860000D01*
X147900000Y-173860000D02*
X141659000Y-173860000D01*
%TO.C,RV1*%
X203700000Y-140620000D02*
X203700000Y-148860000D01*
X187460000Y-140620000D02*
X187460000Y-148860000D01*
X203700000Y-140620000D02*
X187460000Y-140620000D01*
X203700000Y-148860000D02*
X187460000Y-148860000D01*
X200700000Y-148860000D02*
X200700000Y-157860000D01*
X190460000Y-148860000D02*
X190460000Y-157860000D01*
X200700000Y-148860000D02*
X190460000Y-148860000D01*
X200700000Y-157860000D02*
X190460000Y-157860000D01*
X198700000Y-157860000D02*
X198700000Y-173860000D01*
X192459000Y-157860000D02*
X192459000Y-173860000D01*
X198700000Y-157860000D02*
X192459000Y-157860000D01*
X198700000Y-173860000D02*
X192459000Y-173860000D01*
%TO.C,R3*%
X201580000Y-123810000D02*
X201580000Y-127650000D01*
X199740000Y-123810000D02*
X199740000Y-127650000D01*
%TO.C,R2*%
X211470000Y-133635000D02*
X207630000Y-133635000D01*
X211470000Y-131795000D02*
X207630000Y-131795000D01*
%TO.C,R1*%
X207630000Y-134335000D02*
X211470000Y-134335000D01*
X207630000Y-136175000D02*
X211470000Y-136175000D01*
%TO.C,J1*%
X194370000Y-124520000D02*
X194370000Y-121860000D01*
X173990000Y-124520000D02*
X194370000Y-124520000D01*
X173990000Y-121860000D02*
X194370000Y-121860000D01*
X173990000Y-124520000D02*
X173990000Y-121860000D01*
X172720000Y-124520000D02*
X171390000Y-124520000D01*
X171390000Y-124520000D02*
X171390000Y-123190000D01*
%TO.C,C6*%
X169220000Y-126520000D02*
G75*
G03*
X169220000Y-126520000I-4120000J0D01*
G01*
X169180000Y-126520000D02*
X161020000Y-126520000D01*
X169180000Y-126560000D02*
X161020000Y-126560000D01*
X169180000Y-126600000D02*
X161020000Y-126600000D01*
X169179000Y-126640000D02*
X161021000Y-126640000D01*
X169177000Y-126680000D02*
X161023000Y-126680000D01*
X169176000Y-126720000D02*
X161024000Y-126720000D01*
X169174000Y-126760000D02*
X161026000Y-126760000D01*
X169171000Y-126800000D02*
X161029000Y-126800000D01*
X169168000Y-126840000D02*
X161032000Y-126840000D01*
X169165000Y-126880000D02*
X161035000Y-126880000D01*
X169161000Y-126920000D02*
X161039000Y-126920000D01*
X169157000Y-126960000D02*
X161043000Y-126960000D01*
X169152000Y-127000000D02*
X161048000Y-127000000D01*
X169148000Y-127040000D02*
X161052000Y-127040000D01*
X169142000Y-127080000D02*
X161058000Y-127080000D01*
X169137000Y-127120000D02*
X161063000Y-127120000D01*
X169130000Y-127160000D02*
X161070000Y-127160000D01*
X169124000Y-127200000D02*
X161076000Y-127200000D01*
X169117000Y-127241000D02*
X166140000Y-127241000D01*
X164060000Y-127241000D02*
X161083000Y-127241000D01*
X169110000Y-127281000D02*
X166140000Y-127281000D01*
X164060000Y-127281000D02*
X161090000Y-127281000D01*
X169102000Y-127321000D02*
X166140000Y-127321000D01*
X164060000Y-127321000D02*
X161098000Y-127321000D01*
X169094000Y-127361000D02*
X166140000Y-127361000D01*
X164060000Y-127361000D02*
X161106000Y-127361000D01*
X169085000Y-127401000D02*
X166140000Y-127401000D01*
X164060000Y-127401000D02*
X161115000Y-127401000D01*
X169076000Y-127441000D02*
X166140000Y-127441000D01*
X164060000Y-127441000D02*
X161124000Y-127441000D01*
X169067000Y-127481000D02*
X166140000Y-127481000D01*
X164060000Y-127481000D02*
X161133000Y-127481000D01*
X169057000Y-127521000D02*
X166140000Y-127521000D01*
X164060000Y-127521000D02*
X161143000Y-127521000D01*
X169047000Y-127561000D02*
X166140000Y-127561000D01*
X164060000Y-127561000D02*
X161153000Y-127561000D01*
X169036000Y-127601000D02*
X166140000Y-127601000D01*
X164060000Y-127601000D02*
X161164000Y-127601000D01*
X169025000Y-127641000D02*
X166140000Y-127641000D01*
X164060000Y-127641000D02*
X161175000Y-127641000D01*
X169014000Y-127681000D02*
X166140000Y-127681000D01*
X164060000Y-127681000D02*
X161186000Y-127681000D01*
X169002000Y-127721000D02*
X166140000Y-127721000D01*
X164060000Y-127721000D02*
X161198000Y-127721000D01*
X168989000Y-127761000D02*
X166140000Y-127761000D01*
X164060000Y-127761000D02*
X161211000Y-127761000D01*
X168977000Y-127801000D02*
X166140000Y-127801000D01*
X164060000Y-127801000D02*
X161223000Y-127801000D01*
X168963000Y-127841000D02*
X166140000Y-127841000D01*
X164060000Y-127841000D02*
X161237000Y-127841000D01*
X168950000Y-127881000D02*
X166140000Y-127881000D01*
X164060000Y-127881000D02*
X161250000Y-127881000D01*
X168935000Y-127921000D02*
X166140000Y-127921000D01*
X164060000Y-127921000D02*
X161265000Y-127921000D01*
X168921000Y-127961000D02*
X166140000Y-127961000D01*
X164060000Y-127961000D02*
X161279000Y-127961000D01*
X168905000Y-128001000D02*
X166140000Y-128001000D01*
X164060000Y-128001000D02*
X161295000Y-128001000D01*
X168890000Y-128041000D02*
X166140000Y-128041000D01*
X164060000Y-128041000D02*
X161310000Y-128041000D01*
X168874000Y-128081000D02*
X166140000Y-128081000D01*
X164060000Y-128081000D02*
X161326000Y-128081000D01*
X168857000Y-128121000D02*
X166140000Y-128121000D01*
X164060000Y-128121000D02*
X161343000Y-128121000D01*
X168840000Y-128161000D02*
X166140000Y-128161000D01*
X164060000Y-128161000D02*
X161360000Y-128161000D01*
X168822000Y-128201000D02*
X166140000Y-128201000D01*
X164060000Y-128201000D02*
X161378000Y-128201000D01*
X168804000Y-128241000D02*
X166140000Y-128241000D01*
X164060000Y-128241000D02*
X161396000Y-128241000D01*
X168786000Y-128281000D02*
X166140000Y-128281000D01*
X164060000Y-128281000D02*
X161414000Y-128281000D01*
X168766000Y-128321000D02*
X166140000Y-128321000D01*
X164060000Y-128321000D02*
X161434000Y-128321000D01*
X168747000Y-128361000D02*
X166140000Y-128361000D01*
X164060000Y-128361000D02*
X161453000Y-128361000D01*
X168727000Y-128401000D02*
X166140000Y-128401000D01*
X164060000Y-128401000D02*
X161473000Y-128401000D01*
X168706000Y-128441000D02*
X166140000Y-128441000D01*
X164060000Y-128441000D02*
X161494000Y-128441000D01*
X168684000Y-128481000D02*
X166140000Y-128481000D01*
X164060000Y-128481000D02*
X161516000Y-128481000D01*
X168662000Y-128521000D02*
X166140000Y-128521000D01*
X164060000Y-128521000D02*
X161538000Y-128521000D01*
X168640000Y-128561000D02*
X166140000Y-128561000D01*
X164060000Y-128561000D02*
X161560000Y-128561000D01*
X168617000Y-128601000D02*
X166140000Y-128601000D01*
X164060000Y-128601000D02*
X161583000Y-128601000D01*
X168593000Y-128641000D02*
X166140000Y-128641000D01*
X164060000Y-128641000D02*
X161607000Y-128641000D01*
X168569000Y-128681000D02*
X166140000Y-128681000D01*
X164060000Y-128681000D02*
X161631000Y-128681000D01*
X168544000Y-128721000D02*
X166140000Y-128721000D01*
X164060000Y-128721000D02*
X161656000Y-128721000D01*
X168518000Y-128761000D02*
X166140000Y-128761000D01*
X164060000Y-128761000D02*
X161682000Y-128761000D01*
X168492000Y-128801000D02*
X166140000Y-128801000D01*
X164060000Y-128801000D02*
X161708000Y-128801000D01*
X168465000Y-128841000D02*
X166140000Y-128841000D01*
X164060000Y-128841000D02*
X161735000Y-128841000D01*
X168438000Y-128881000D02*
X166140000Y-128881000D01*
X164060000Y-128881000D02*
X161762000Y-128881000D01*
X168409000Y-128921000D02*
X166140000Y-128921000D01*
X164060000Y-128921000D02*
X161791000Y-128921000D01*
X168380000Y-128961000D02*
X166140000Y-128961000D01*
X164060000Y-128961000D02*
X161820000Y-128961000D01*
X168350000Y-129001000D02*
X166140000Y-129001000D01*
X164060000Y-129001000D02*
X161850000Y-129001000D01*
X168320000Y-129041000D02*
X166140000Y-129041000D01*
X164060000Y-129041000D02*
X161880000Y-129041000D01*
X168289000Y-129081000D02*
X166140000Y-129081000D01*
X164060000Y-129081000D02*
X161911000Y-129081000D01*
X168256000Y-129121000D02*
X166140000Y-129121000D01*
X164060000Y-129121000D02*
X161944000Y-129121000D01*
X168224000Y-129161000D02*
X166140000Y-129161000D01*
X164060000Y-129161000D02*
X161976000Y-129161000D01*
X168190000Y-129201000D02*
X166140000Y-129201000D01*
X164060000Y-129201000D02*
X162010000Y-129201000D01*
X168155000Y-129241000D02*
X166140000Y-129241000D01*
X164060000Y-129241000D02*
X162045000Y-129241000D01*
X168119000Y-129281000D02*
X166140000Y-129281000D01*
X164060000Y-129281000D02*
X162081000Y-129281000D01*
X168083000Y-129321000D02*
X162117000Y-129321000D01*
X168045000Y-129361000D02*
X162155000Y-129361000D01*
X168007000Y-129401000D02*
X162193000Y-129401000D01*
X167967000Y-129441000D02*
X162233000Y-129441000D01*
X167926000Y-129481000D02*
X162274000Y-129481000D01*
X167884000Y-129521000D02*
X162316000Y-129521000D01*
X167841000Y-129561000D02*
X162359000Y-129561000D01*
X167797000Y-129601000D02*
X162403000Y-129601000D01*
X167751000Y-129641000D02*
X162449000Y-129641000D01*
X167704000Y-129681000D02*
X162496000Y-129681000D01*
X167656000Y-129721000D02*
X162544000Y-129721000D01*
X167605000Y-129761000D02*
X162595000Y-129761000D01*
X167554000Y-129801000D02*
X162646000Y-129801000D01*
X167500000Y-129841000D02*
X162700000Y-129841000D01*
X167445000Y-129881000D02*
X162755000Y-129881000D01*
X167387000Y-129921000D02*
X162813000Y-129921000D01*
X167328000Y-129961000D02*
X162872000Y-129961000D01*
X167266000Y-130001000D02*
X162934000Y-130001000D01*
X167202000Y-130041000D02*
X162998000Y-130041000D01*
X167134000Y-130081000D02*
X163066000Y-130081000D01*
X167064000Y-130121000D02*
X163136000Y-130121000D01*
X166990000Y-130161000D02*
X163210000Y-130161000D01*
X166913000Y-130201000D02*
X163287000Y-130201000D01*
X166831000Y-130241000D02*
X163369000Y-130241000D01*
X166745000Y-130281000D02*
X163455000Y-130281000D01*
X166652000Y-130321000D02*
X163548000Y-130321000D01*
X166553000Y-130361000D02*
X163647000Y-130361000D01*
X166446000Y-130401000D02*
X163754000Y-130401000D01*
X166329000Y-130441000D02*
X163871000Y-130441000D01*
X166198000Y-130481000D02*
X164002000Y-130481000D01*
X166048000Y-130521000D02*
X164152000Y-130521000D01*
X165868000Y-130561000D02*
X164332000Y-130561000D01*
X165633000Y-130601000D02*
X164567000Y-130601000D01*
X167415000Y-122110302D02*
X167415000Y-122910302D01*
X167815000Y-122510302D02*
X167015000Y-122510302D01*
%TO.C,C5*%
X156520000Y-126210000D02*
G75*
G03*
X156520000Y-126210000I-4120000J0D01*
G01*
X156480000Y-126210000D02*
X148320000Y-126210000D01*
X156480000Y-126250000D02*
X148320000Y-126250000D01*
X156480000Y-126290000D02*
X148320000Y-126290000D01*
X156479000Y-126330000D02*
X148321000Y-126330000D01*
X156477000Y-126370000D02*
X148323000Y-126370000D01*
X156476000Y-126410000D02*
X148324000Y-126410000D01*
X156474000Y-126450000D02*
X148326000Y-126450000D01*
X156471000Y-126490000D02*
X148329000Y-126490000D01*
X156468000Y-126530000D02*
X148332000Y-126530000D01*
X156465000Y-126570000D02*
X148335000Y-126570000D01*
X156461000Y-126610000D02*
X148339000Y-126610000D01*
X156457000Y-126650000D02*
X148343000Y-126650000D01*
X156452000Y-126690000D02*
X148348000Y-126690000D01*
X156448000Y-126730000D02*
X148352000Y-126730000D01*
X156442000Y-126770000D02*
X148358000Y-126770000D01*
X156437000Y-126810000D02*
X148363000Y-126810000D01*
X156430000Y-126850000D02*
X148370000Y-126850000D01*
X156424000Y-126890000D02*
X148376000Y-126890000D01*
X156417000Y-126931000D02*
X153440000Y-126931000D01*
X151360000Y-126931000D02*
X148383000Y-126931000D01*
X156410000Y-126971000D02*
X153440000Y-126971000D01*
X151360000Y-126971000D02*
X148390000Y-126971000D01*
X156402000Y-127011000D02*
X153440000Y-127011000D01*
X151360000Y-127011000D02*
X148398000Y-127011000D01*
X156394000Y-127051000D02*
X153440000Y-127051000D01*
X151360000Y-127051000D02*
X148406000Y-127051000D01*
X156385000Y-127091000D02*
X153440000Y-127091000D01*
X151360000Y-127091000D02*
X148415000Y-127091000D01*
X156376000Y-127131000D02*
X153440000Y-127131000D01*
X151360000Y-127131000D02*
X148424000Y-127131000D01*
X156367000Y-127171000D02*
X153440000Y-127171000D01*
X151360000Y-127171000D02*
X148433000Y-127171000D01*
X156357000Y-127211000D02*
X153440000Y-127211000D01*
X151360000Y-127211000D02*
X148443000Y-127211000D01*
X156347000Y-127251000D02*
X153440000Y-127251000D01*
X151360000Y-127251000D02*
X148453000Y-127251000D01*
X156336000Y-127291000D02*
X153440000Y-127291000D01*
X151360000Y-127291000D02*
X148464000Y-127291000D01*
X156325000Y-127331000D02*
X153440000Y-127331000D01*
X151360000Y-127331000D02*
X148475000Y-127331000D01*
X156314000Y-127371000D02*
X153440000Y-127371000D01*
X151360000Y-127371000D02*
X148486000Y-127371000D01*
X156302000Y-127411000D02*
X153440000Y-127411000D01*
X151360000Y-127411000D02*
X148498000Y-127411000D01*
X156289000Y-127451000D02*
X153440000Y-127451000D01*
X151360000Y-127451000D02*
X148511000Y-127451000D01*
X156277000Y-127491000D02*
X153440000Y-127491000D01*
X151360000Y-127491000D02*
X148523000Y-127491000D01*
X156263000Y-127531000D02*
X153440000Y-127531000D01*
X151360000Y-127531000D02*
X148537000Y-127531000D01*
X156250000Y-127571000D02*
X153440000Y-127571000D01*
X151360000Y-127571000D02*
X148550000Y-127571000D01*
X156235000Y-127611000D02*
X153440000Y-127611000D01*
X151360000Y-127611000D02*
X148565000Y-127611000D01*
X156221000Y-127651000D02*
X153440000Y-127651000D01*
X151360000Y-127651000D02*
X148579000Y-127651000D01*
X156205000Y-127691000D02*
X153440000Y-127691000D01*
X151360000Y-127691000D02*
X148595000Y-127691000D01*
X156190000Y-127731000D02*
X153440000Y-127731000D01*
X151360000Y-127731000D02*
X148610000Y-127731000D01*
X156174000Y-127771000D02*
X153440000Y-127771000D01*
X151360000Y-127771000D02*
X148626000Y-127771000D01*
X156157000Y-127811000D02*
X153440000Y-127811000D01*
X151360000Y-127811000D02*
X148643000Y-127811000D01*
X156140000Y-127851000D02*
X153440000Y-127851000D01*
X151360000Y-127851000D02*
X148660000Y-127851000D01*
X156122000Y-127891000D02*
X153440000Y-127891000D01*
X151360000Y-127891000D02*
X148678000Y-127891000D01*
X156104000Y-127931000D02*
X153440000Y-127931000D01*
X151360000Y-127931000D02*
X148696000Y-127931000D01*
X156086000Y-127971000D02*
X153440000Y-127971000D01*
X151360000Y-127971000D02*
X148714000Y-127971000D01*
X156066000Y-128011000D02*
X153440000Y-128011000D01*
X151360000Y-128011000D02*
X148734000Y-128011000D01*
X156047000Y-128051000D02*
X153440000Y-128051000D01*
X151360000Y-128051000D02*
X148753000Y-128051000D01*
X156027000Y-128091000D02*
X153440000Y-128091000D01*
X151360000Y-128091000D02*
X148773000Y-128091000D01*
X156006000Y-128131000D02*
X153440000Y-128131000D01*
X151360000Y-128131000D02*
X148794000Y-128131000D01*
X155984000Y-128171000D02*
X153440000Y-128171000D01*
X151360000Y-128171000D02*
X148816000Y-128171000D01*
X155962000Y-128211000D02*
X153440000Y-128211000D01*
X151360000Y-128211000D02*
X148838000Y-128211000D01*
X155940000Y-128251000D02*
X153440000Y-128251000D01*
X151360000Y-128251000D02*
X148860000Y-128251000D01*
X155917000Y-128291000D02*
X153440000Y-128291000D01*
X151360000Y-128291000D02*
X148883000Y-128291000D01*
X155893000Y-128331000D02*
X153440000Y-128331000D01*
X151360000Y-128331000D02*
X148907000Y-128331000D01*
X155869000Y-128371000D02*
X153440000Y-128371000D01*
X151360000Y-128371000D02*
X148931000Y-128371000D01*
X155844000Y-128411000D02*
X153440000Y-128411000D01*
X151360000Y-128411000D02*
X148956000Y-128411000D01*
X155818000Y-128451000D02*
X153440000Y-128451000D01*
X151360000Y-128451000D02*
X148982000Y-128451000D01*
X155792000Y-128491000D02*
X153440000Y-128491000D01*
X151360000Y-128491000D02*
X149008000Y-128491000D01*
X155765000Y-128531000D02*
X153440000Y-128531000D01*
X151360000Y-128531000D02*
X149035000Y-128531000D01*
X155738000Y-128571000D02*
X153440000Y-128571000D01*
X151360000Y-128571000D02*
X149062000Y-128571000D01*
X155709000Y-128611000D02*
X153440000Y-128611000D01*
X151360000Y-128611000D02*
X149091000Y-128611000D01*
X155680000Y-128651000D02*
X153440000Y-128651000D01*
X151360000Y-128651000D02*
X149120000Y-128651000D01*
X155650000Y-128691000D02*
X153440000Y-128691000D01*
X151360000Y-128691000D02*
X149150000Y-128691000D01*
X155620000Y-128731000D02*
X153440000Y-128731000D01*
X151360000Y-128731000D02*
X149180000Y-128731000D01*
X155589000Y-128771000D02*
X153440000Y-128771000D01*
X151360000Y-128771000D02*
X149211000Y-128771000D01*
X155556000Y-128811000D02*
X153440000Y-128811000D01*
X151360000Y-128811000D02*
X149244000Y-128811000D01*
X155524000Y-128851000D02*
X153440000Y-128851000D01*
X151360000Y-128851000D02*
X149276000Y-128851000D01*
X155490000Y-128891000D02*
X153440000Y-128891000D01*
X151360000Y-128891000D02*
X149310000Y-128891000D01*
X155455000Y-128931000D02*
X153440000Y-128931000D01*
X151360000Y-128931000D02*
X149345000Y-128931000D01*
X155419000Y-128971000D02*
X153440000Y-128971000D01*
X151360000Y-128971000D02*
X149381000Y-128971000D01*
X155383000Y-129011000D02*
X149417000Y-129011000D01*
X155345000Y-129051000D02*
X149455000Y-129051000D01*
X155307000Y-129091000D02*
X149493000Y-129091000D01*
X155267000Y-129131000D02*
X149533000Y-129131000D01*
X155226000Y-129171000D02*
X149574000Y-129171000D01*
X155184000Y-129211000D02*
X149616000Y-129211000D01*
X155141000Y-129251000D02*
X149659000Y-129251000D01*
X155097000Y-129291000D02*
X149703000Y-129291000D01*
X155051000Y-129331000D02*
X149749000Y-129331000D01*
X155004000Y-129371000D02*
X149796000Y-129371000D01*
X154956000Y-129411000D02*
X149844000Y-129411000D01*
X154905000Y-129451000D02*
X149895000Y-129451000D01*
X154854000Y-129491000D02*
X149946000Y-129491000D01*
X154800000Y-129531000D02*
X150000000Y-129531000D01*
X154745000Y-129571000D02*
X150055000Y-129571000D01*
X154687000Y-129611000D02*
X150113000Y-129611000D01*
X154628000Y-129651000D02*
X150172000Y-129651000D01*
X154566000Y-129691000D02*
X150234000Y-129691000D01*
X154502000Y-129731000D02*
X150298000Y-129731000D01*
X154434000Y-129771000D02*
X150366000Y-129771000D01*
X154364000Y-129811000D02*
X150436000Y-129811000D01*
X154290000Y-129851000D02*
X150510000Y-129851000D01*
X154213000Y-129891000D02*
X150587000Y-129891000D01*
X154131000Y-129931000D02*
X150669000Y-129931000D01*
X154045000Y-129971000D02*
X150755000Y-129971000D01*
X153952000Y-130011000D02*
X150848000Y-130011000D01*
X153853000Y-130051000D02*
X150947000Y-130051000D01*
X153746000Y-130091000D02*
X151054000Y-130091000D01*
X153629000Y-130131000D02*
X151171000Y-130131000D01*
X153498000Y-130171000D02*
X151302000Y-130171000D01*
X153348000Y-130211000D02*
X151452000Y-130211000D01*
X153168000Y-130251000D02*
X151632000Y-130251000D01*
X152933000Y-130291000D02*
X151867000Y-130291000D01*
X154715000Y-121800302D02*
X154715000Y-122600302D01*
X155115000Y-122200302D02*
X154315000Y-122200302D01*
%TO.C,C4*%
X200430000Y-134420000D02*
X195890000Y-134420000D01*
X200430000Y-132280000D02*
X195890000Y-132280000D01*
X200430000Y-134420000D02*
X200430000Y-134405000D01*
X200430000Y-132295000D02*
X200430000Y-132280000D01*
X195890000Y-134420000D02*
X195890000Y-134405000D01*
X195890000Y-132295000D02*
X195890000Y-132280000D01*
%TO.C,C3*%
X163600000Y-134420000D02*
X159060000Y-134420000D01*
X163600000Y-132280000D02*
X159060000Y-132280000D01*
X163600000Y-134420000D02*
X163600000Y-134405000D01*
X163600000Y-132295000D02*
X163600000Y-132280000D01*
X159060000Y-134420000D02*
X159060000Y-134405000D01*
X159060000Y-132295000D02*
X159060000Y-132280000D01*
%TO.C,C2*%
X173680000Y-134420000D02*
X169140000Y-134420000D01*
X173680000Y-132280000D02*
X169140000Y-132280000D01*
X173680000Y-134420000D02*
X173680000Y-134405000D01*
X173680000Y-132295000D02*
X173680000Y-132280000D01*
X169140000Y-134420000D02*
X169140000Y-134405000D01*
X169140000Y-132295000D02*
X169140000Y-132280000D01*
%TO.C,C1*%
X199190000Y-123420000D02*
X199190000Y-127960000D01*
X197050000Y-123420000D02*
X197050000Y-127960000D01*
X199190000Y-123420000D02*
X199175000Y-123420000D01*
X197065000Y-123420000D02*
X197050000Y-123420000D01*
X199190000Y-127960000D02*
X199175000Y-127960000D01*
X197065000Y-127960000D02*
X197050000Y-127960000D01*
%TO.C,U2*%
D15*
X215142380Y-126491904D02*
X215951904Y-126491904D01*
X216047142Y-126444285D01*
X216094761Y-126396666D01*
X216142380Y-126301428D01*
X216142380Y-126110952D01*
X216094761Y-126015714D01*
X216047142Y-125968095D01*
X215951904Y-125920476D01*
X215142380Y-125920476D01*
X215237619Y-125491904D02*
X215190000Y-125444285D01*
X215142380Y-125349047D01*
X215142380Y-125110952D01*
X215190000Y-125015714D01*
X215237619Y-124968095D01*
X215332857Y-124920476D01*
X215428095Y-124920476D01*
X215570952Y-124968095D01*
X216142380Y-125539523D01*
X216142380Y-124920476D01*
%TO.C,U1*%
X184658095Y-136402380D02*
X184658095Y-137211904D01*
X184705714Y-137307142D01*
X184753333Y-137354761D01*
X184848571Y-137402380D01*
X185039047Y-137402380D01*
X185134285Y-137354761D01*
X185181904Y-137307142D01*
X185229523Y-137211904D01*
X185229523Y-136402380D01*
X186229523Y-137402380D02*
X185658095Y-137402380D01*
X185943809Y-137402380D02*
X185943809Y-136402380D01*
X185848571Y-136545238D01*
X185753333Y-136640476D01*
X185658095Y-136688095D01*
%TO.C,J2*%
X217471666Y-130897380D02*
X217471666Y-131611666D01*
X217424047Y-131754523D01*
X217328809Y-131849761D01*
X217185952Y-131897380D01*
X217090714Y-131897380D01*
X217900238Y-130992619D02*
X217947857Y-130945000D01*
X218043095Y-130897380D01*
X218281190Y-130897380D01*
X218376428Y-130945000D01*
X218424047Y-130992619D01*
X218471666Y-131087857D01*
X218471666Y-131183095D01*
X218424047Y-131325952D01*
X217852619Y-131897380D01*
X218471666Y-131897380D01*
%TO.C,RV4*%
X226734761Y-140152380D02*
X226401428Y-139676190D01*
X226163333Y-140152380D02*
X226163333Y-139152380D01*
X226544285Y-139152380D01*
X226639523Y-139200000D01*
X226687142Y-139247619D01*
X226734761Y-139342857D01*
X226734761Y-139485714D01*
X226687142Y-139580952D01*
X226639523Y-139628571D01*
X226544285Y-139676190D01*
X226163333Y-139676190D01*
X227020476Y-139152380D02*
X227353809Y-140152380D01*
X227687142Y-139152380D01*
X228449047Y-139485714D02*
X228449047Y-140152380D01*
X228210952Y-139104761D02*
X227972857Y-139819047D01*
X228591904Y-139819047D01*
%TO.C,RV3*%
X175934761Y-140152380D02*
X175601428Y-139676190D01*
X175363333Y-140152380D02*
X175363333Y-139152380D01*
X175744285Y-139152380D01*
X175839523Y-139200000D01*
X175887142Y-139247619D01*
X175934761Y-139342857D01*
X175934761Y-139485714D01*
X175887142Y-139580952D01*
X175839523Y-139628571D01*
X175744285Y-139676190D01*
X175363333Y-139676190D01*
X176220476Y-139152380D02*
X176553809Y-140152380D01*
X176887142Y-139152380D01*
X177125238Y-139152380D02*
X177744285Y-139152380D01*
X177410952Y-139533333D01*
X177553809Y-139533333D01*
X177649047Y-139580952D01*
X177696666Y-139628571D01*
X177744285Y-139723809D01*
X177744285Y-139961904D01*
X177696666Y-140057142D01*
X177649047Y-140104761D01*
X177553809Y-140152380D01*
X177268095Y-140152380D01*
X177172857Y-140104761D01*
X177125238Y-140057142D01*
%TO.C,RV2*%
X150534761Y-140152380D02*
X150201428Y-139676190D01*
X149963333Y-140152380D02*
X149963333Y-139152380D01*
X150344285Y-139152380D01*
X150439523Y-139200000D01*
X150487142Y-139247619D01*
X150534761Y-139342857D01*
X150534761Y-139485714D01*
X150487142Y-139580952D01*
X150439523Y-139628571D01*
X150344285Y-139676190D01*
X149963333Y-139676190D01*
X150820476Y-139152380D02*
X151153809Y-140152380D01*
X151487142Y-139152380D01*
X151772857Y-139247619D02*
X151820476Y-139200000D01*
X151915714Y-139152380D01*
X152153809Y-139152380D01*
X152249047Y-139200000D01*
X152296666Y-139247619D01*
X152344285Y-139342857D01*
X152344285Y-139438095D01*
X152296666Y-139580952D01*
X151725238Y-140152380D01*
X152344285Y-140152380D01*
%TO.C,RV1*%
X201334761Y-140152380D02*
X201001428Y-139676190D01*
X200763333Y-140152380D02*
X200763333Y-139152380D01*
X201144285Y-139152380D01*
X201239523Y-139200000D01*
X201287142Y-139247619D01*
X201334761Y-139342857D01*
X201334761Y-139485714D01*
X201287142Y-139580952D01*
X201239523Y-139628571D01*
X201144285Y-139676190D01*
X200763333Y-139676190D01*
X201620476Y-139152380D02*
X201953809Y-140152380D01*
X202287142Y-139152380D01*
X203144285Y-140152380D02*
X202572857Y-140152380D01*
X202858571Y-140152380D02*
X202858571Y-139152380D01*
X202763333Y-139295238D01*
X202668095Y-139390476D01*
X202572857Y-139438095D01*
%TO.C,R3*%
X203017380Y-125896666D02*
X202541190Y-126230000D01*
X203017380Y-126468095D02*
X202017380Y-126468095D01*
X202017380Y-126087142D01*
X202065000Y-125991904D01*
X202112619Y-125944285D01*
X202207857Y-125896666D01*
X202350714Y-125896666D01*
X202445952Y-125944285D01*
X202493571Y-125991904D01*
X202541190Y-126087142D01*
X202541190Y-126468095D01*
X202017380Y-125563333D02*
X202017380Y-124944285D01*
X202398333Y-125277619D01*
X202398333Y-125134761D01*
X202445952Y-125039523D01*
X202493571Y-124991904D01*
X202588809Y-124944285D01*
X202826904Y-124944285D01*
X202922142Y-124991904D01*
X202969761Y-125039523D01*
X203017380Y-125134761D01*
X203017380Y-125420476D01*
X202969761Y-125515714D01*
X202922142Y-125563333D01*
%TO.C,R2*%
X205557380Y-132881666D02*
X205081190Y-133215000D01*
X205557380Y-133453095D02*
X204557380Y-133453095D01*
X204557380Y-133072142D01*
X204605000Y-132976904D01*
X204652619Y-132929285D01*
X204747857Y-132881666D01*
X204890714Y-132881666D01*
X204985952Y-132929285D01*
X205033571Y-132976904D01*
X205081190Y-133072142D01*
X205081190Y-133453095D01*
X204652619Y-132500714D02*
X204605000Y-132453095D01*
X204557380Y-132357857D01*
X204557380Y-132119761D01*
X204605000Y-132024523D01*
X204652619Y-131976904D01*
X204747857Y-131929285D01*
X204843095Y-131929285D01*
X204985952Y-131976904D01*
X205557380Y-132548333D01*
X205557380Y-131929285D01*
%TO.C,R1*%
X205557380Y-135421666D02*
X205081190Y-135755000D01*
X205557380Y-135993095D02*
X204557380Y-135993095D01*
X204557380Y-135612142D01*
X204605000Y-135516904D01*
X204652619Y-135469285D01*
X204747857Y-135421666D01*
X204890714Y-135421666D01*
X204985952Y-135469285D01*
X205033571Y-135516904D01*
X205081190Y-135612142D01*
X205081190Y-135993095D01*
X205557380Y-134469285D02*
X205557380Y-135040714D01*
X205557380Y-134755000D02*
X204557380Y-134755000D01*
X204700238Y-134850238D01*
X204795476Y-134945476D01*
X204843095Y-135040714D01*
%TO.C,J1*%
X169842380Y-123523333D02*
X170556666Y-123523333D01*
X170699523Y-123570952D01*
X170794761Y-123666190D01*
X170842380Y-123809047D01*
X170842380Y-123904285D01*
X170842380Y-122523333D02*
X170842380Y-123094761D01*
X170842380Y-122809047D02*
X169842380Y-122809047D01*
X169985238Y-122904285D01*
X170080476Y-122999523D01*
X170128095Y-123094761D01*
%TO.C,C6*%
X170707142Y-126686666D02*
X170754761Y-126734285D01*
X170802380Y-126877142D01*
X170802380Y-126972380D01*
X170754761Y-127115238D01*
X170659523Y-127210476D01*
X170564285Y-127258095D01*
X170373809Y-127305714D01*
X170230952Y-127305714D01*
X170040476Y-127258095D01*
X169945238Y-127210476D01*
X169850000Y-127115238D01*
X169802380Y-126972380D01*
X169802380Y-126877142D01*
X169850000Y-126734285D01*
X169897619Y-126686666D01*
X169802380Y-125829523D02*
X169802380Y-126020000D01*
X169850000Y-126115238D01*
X169897619Y-126162857D01*
X170040476Y-126258095D01*
X170230952Y-126305714D01*
X170611904Y-126305714D01*
X170707142Y-126258095D01*
X170754761Y-126210476D01*
X170802380Y-126115238D01*
X170802380Y-125924761D01*
X170754761Y-125829523D01*
X170707142Y-125781904D01*
X170611904Y-125734285D01*
X170373809Y-125734285D01*
X170278571Y-125781904D01*
X170230952Y-125829523D01*
X170183333Y-125924761D01*
X170183333Y-126115238D01*
X170230952Y-126210476D01*
X170278571Y-126258095D01*
X170373809Y-126305714D01*
%TO.C,C5*%
X158007142Y-126376666D02*
X158054761Y-126424285D01*
X158102380Y-126567142D01*
X158102380Y-126662380D01*
X158054761Y-126805238D01*
X157959523Y-126900476D01*
X157864285Y-126948095D01*
X157673809Y-126995714D01*
X157530952Y-126995714D01*
X157340476Y-126948095D01*
X157245238Y-126900476D01*
X157150000Y-126805238D01*
X157102380Y-126662380D01*
X157102380Y-126567142D01*
X157150000Y-126424285D01*
X157197619Y-126376666D01*
X157102380Y-125471904D02*
X157102380Y-125948095D01*
X157578571Y-125995714D01*
X157530952Y-125948095D01*
X157483333Y-125852857D01*
X157483333Y-125614761D01*
X157530952Y-125519523D01*
X157578571Y-125471904D01*
X157673809Y-125424285D01*
X157911904Y-125424285D01*
X158007142Y-125471904D01*
X158054761Y-125519523D01*
X158102380Y-125614761D01*
X158102380Y-125852857D01*
X158054761Y-125948095D01*
X158007142Y-125995714D01*
%TO.C,C4*%
X197993333Y-136247142D02*
X197945714Y-136294761D01*
X197802857Y-136342380D01*
X197707619Y-136342380D01*
X197564761Y-136294761D01*
X197469523Y-136199523D01*
X197421904Y-136104285D01*
X197374285Y-135913809D01*
X197374285Y-135770952D01*
X197421904Y-135580476D01*
X197469523Y-135485238D01*
X197564761Y-135390000D01*
X197707619Y-135342380D01*
X197802857Y-135342380D01*
X197945714Y-135390000D01*
X197993333Y-135437619D01*
X198850476Y-135675714D02*
X198850476Y-136342380D01*
X198612380Y-135294761D02*
X198374285Y-136009047D01*
X198993333Y-136009047D01*
%TO.C,C3*%
X161163333Y-136247142D02*
X161115714Y-136294761D01*
X160972857Y-136342380D01*
X160877619Y-136342380D01*
X160734761Y-136294761D01*
X160639523Y-136199523D01*
X160591904Y-136104285D01*
X160544285Y-135913809D01*
X160544285Y-135770952D01*
X160591904Y-135580476D01*
X160639523Y-135485238D01*
X160734761Y-135390000D01*
X160877619Y-135342380D01*
X160972857Y-135342380D01*
X161115714Y-135390000D01*
X161163333Y-135437619D01*
X161496666Y-135342380D02*
X162115714Y-135342380D01*
X161782380Y-135723333D01*
X161925238Y-135723333D01*
X162020476Y-135770952D01*
X162068095Y-135818571D01*
X162115714Y-135913809D01*
X162115714Y-136151904D01*
X162068095Y-136247142D01*
X162020476Y-136294761D01*
X161925238Y-136342380D01*
X161639523Y-136342380D01*
X161544285Y-136294761D01*
X161496666Y-136247142D01*
%TO.C,C2*%
X171243333Y-131167142D02*
X171195714Y-131214761D01*
X171052857Y-131262380D01*
X170957619Y-131262380D01*
X170814761Y-131214761D01*
X170719523Y-131119523D01*
X170671904Y-131024285D01*
X170624285Y-130833809D01*
X170624285Y-130690952D01*
X170671904Y-130500476D01*
X170719523Y-130405238D01*
X170814761Y-130310000D01*
X170957619Y-130262380D01*
X171052857Y-130262380D01*
X171195714Y-130310000D01*
X171243333Y-130357619D01*
X171624285Y-130357619D02*
X171671904Y-130310000D01*
X171767142Y-130262380D01*
X172005238Y-130262380D01*
X172100476Y-130310000D01*
X172148095Y-130357619D01*
X172195714Y-130452857D01*
X172195714Y-130548095D01*
X172148095Y-130690952D01*
X171576666Y-131262380D01*
X172195714Y-131262380D01*
%TO.C,C1*%
X196572142Y-125896666D02*
X196619761Y-125944285D01*
X196667380Y-126087142D01*
X196667380Y-126182380D01*
X196619761Y-126325238D01*
X196524523Y-126420476D01*
X196429285Y-126468095D01*
X196238809Y-126515714D01*
X196095952Y-126515714D01*
X195905476Y-126468095D01*
X195810238Y-126420476D01*
X195715000Y-126325238D01*
X195667380Y-126182380D01*
X195667380Y-126087142D01*
X195715000Y-125944285D01*
X195762619Y-125896666D01*
X196667380Y-124944285D02*
X196667380Y-125515714D01*
X196667380Y-125230000D02*
X195667380Y-125230000D01*
X195810238Y-125325238D01*
X195905476Y-125420476D01*
X195953095Y-125515714D01*
%TD*%
M02*
