M48
; DRILL file {KiCad (5.1.6)-1} date 11/28/20 21:47:44
; FORMAT={-:-/ absolute / inch / decimal}
; #@! TF.CreationDate,2020-11-28T21:47:44-05:00
; #@! TF.GenerationSoftware,Kicad,Pcbnew,(5.1.6)-1
; #@! TF.FileFunction,Plated,1,2,PTH
FMAT,2
INCH
T1C0.0276
T2C0.0295
T3C0.0315
T4C0.0394
T5C0.0512
T6C0.1772
%
G90
G05
T1
X7.95Y-4.85
X8.15Y-4.85
X8.15Y-5.25
X8.35Y-5.25
X7.95Y-5.05
X8.15Y-5.05
T2
X8.35Y-4.9
X8.35Y-4.95
X8.35Y-5.0
T3
X6.5Y-4.9122
X6.5Y-5.05
X7.15Y-5.0
X7.15Y-5.1
X7.15Y-5.2
X7.15Y-5.3
X7.45Y-5.0
X7.45Y-5.1
X7.45Y-5.2
X7.45Y-5.3
X7.8Y-4.85
X7.8Y-5.0469
X6.65Y-5.25
X6.8469Y-5.25
X6.0Y-4.9
X6.0Y-5.0378
X6.2531Y-5.25
X6.45Y-5.25
X7.7031Y-5.25
X7.9Y-5.25
T4
X6.8Y-4.85
X6.9Y-4.85
X7.0Y-4.85
X7.1Y-4.85
X7.2Y-4.85
X7.3Y-4.85
X7.4Y-4.85
X7.5Y-4.85
X7.6Y-4.85
X8.525Y-5.25
X8.625Y-5.25
T5
X7.5031Y-5.6
X7.7Y-5.6
X7.8969Y-5.6
X6.5031Y-5.6
X6.7Y-5.6
X6.8969Y-5.6
X5.5031Y-5.6
X5.7Y-5.6
X5.8969Y-5.6
X8.5031Y-5.6
X8.7Y-5.6
X8.8969Y-5.6
T6
X5.575Y-4.925
X8.825Y-4.925
T0
M30
