%TF.GenerationSoftware,KiCad,Pcbnew,(5.1.6)-1*%
%TF.CreationDate,2020-11-28T21:47:35-05:00*%
%TF.ProjectId,PercGenerator,50657263-4765-46e6-9572-61746f722e6b,rev?*%
%TF.SameCoordinates,Original*%
%TF.FileFunction,Copper,L1,Top*%
%TF.FilePolarity,Positive*%
%FSLAX46Y46*%
G04 Gerber Fmt 4.6, Leading zero omitted, Abs format (unit mm)*
G04 Created by KiCad (PCBNEW (5.1.6)-1) date 2020-11-28 21:47:35*
%MOMM*%
%LPD*%
G01*
G04 APERTURE LIST*
%TA.AperFunction,ComponentPad*%
%ADD10O,1.700000X1.700000*%
%TD*%
%TA.AperFunction,ComponentPad*%
%ADD11R,1.700000X1.700000*%
%TD*%
%TA.AperFunction,ComponentPad*%
%ADD12O,1.600000X1.600000*%
%TD*%
%TA.AperFunction,ComponentPad*%
%ADD13R,1.600000X1.600000*%
%TD*%
%TA.AperFunction,ComponentPad*%
%ADD14C,2.340000*%
%TD*%
%TA.AperFunction,ComponentPad*%
%ADD15O,1.400000X1.400000*%
%TD*%
%TA.AperFunction,ComponentPad*%
%ADD16C,1.400000*%
%TD*%
%TA.AperFunction,ComponentPad*%
%ADD17R,1.500000X1.050000*%
%TD*%
%TA.AperFunction,ComponentPad*%
%ADD18O,1.500000X1.050000*%
%TD*%
%TA.AperFunction,ComponentPad*%
%ADD19C,1.600000*%
%TD*%
%TA.AperFunction,ViaPad*%
%ADD20C,8.000000*%
%TD*%
%TA.AperFunction,Conductor*%
%ADD21C,0.508000*%
%TD*%
%TA.AperFunction,Conductor*%
%ADD22C,1.016000*%
%TD*%
%TA.AperFunction,Conductor*%
%ADD23C,0.254000*%
%TD*%
G04 APERTURE END LIST*
D10*
%TO.P,J2,2*%
%TO.N,Net-(J2-Pad2)*%
X216535000Y-133350000D03*
D11*
%TO.P,J2,1*%
%TO.N,GND*%
X219075000Y-133350000D03*
%TD*%
D12*
%TO.P,U1,8*%
%TO.N,Net-(U1-Pad8)*%
X181610000Y-134620000D03*
%TO.P,U1,4*%
%TO.N,-15V*%
X189230000Y-127000000D03*
%TO.P,U1,7*%
%TO.N,+15V*%
X181610000Y-132080000D03*
%TO.P,U1,3*%
%TO.N,GND*%
X189230000Y-129540000D03*
%TO.P,U1,6*%
%TO.N,Net-(C3-Pad1)*%
X181610000Y-129540000D03*
%TO.P,U1,2*%
%TO.N,Net-(C1-Pad2)*%
X189230000Y-132080000D03*
%TO.P,U1,5*%
%TO.N,Net-(U1-Pad5)*%
X181610000Y-127000000D03*
D13*
%TO.P,U1,1*%
%TO.N,Net-(U1-Pad1)*%
X189230000Y-134620000D03*
%TD*%
D14*
%TO.P,RV4,1*%
%TO.N,GND*%
X215980000Y-142240000D03*
%TO.P,RV4,2*%
%TO.N,Net-(C4-Pad1)*%
X220980000Y-142240000D03*
%TO.P,RV4,3*%
%TO.N,/OUT*%
X225980000Y-142240000D03*
%TD*%
%TO.P,RV3,1*%
%TO.N,Net-(C3-Pad1)*%
X165180000Y-142240000D03*
%TO.P,RV3,2*%
%TO.N,Net-(C2-Pad1)*%
X170180000Y-142240000D03*
%TO.P,RV3,3*%
%TO.N,Net-(RV3-Pad3)*%
X175180000Y-142240000D03*
%TD*%
%TO.P,RV2,1*%
%TO.N,GND*%
X139780000Y-142240000D03*
%TO.P,RV2,2*%
X144780000Y-142240000D03*
%TO.P,RV2,3*%
%TO.N,Net-(C1-Pad1)*%
X149780000Y-142240000D03*
%TD*%
%TO.P,RV1,1*%
%TO.N,Net-(C2-Pad1)*%
X190580000Y-142240000D03*
%TO.P,RV1,2*%
%TO.N,Net-(C1-Pad2)*%
X195580000Y-142240000D03*
%TO.P,RV1,3*%
%TO.N,Net-(RV1-Pad3)*%
X200580000Y-142240000D03*
%TD*%
D15*
%TO.P,R3,2*%
%TO.N,Net-(Q1-Pad2)*%
X207010000Y-123190000D03*
D16*
%TO.P,R3,1*%
%TO.N,/TRIGGER*%
X201930000Y-123190000D03*
%TD*%
D15*
%TO.P,R2,2*%
%TO.N,GND*%
X201930000Y-128270000D03*
D16*
%TO.P,R2,1*%
%TO.N,Net-(Q1-Pad2)*%
X207010000Y-128270000D03*
%TD*%
D15*
%TO.P,R1,2*%
%TO.N,Net-(J2-Pad2)*%
X212090000Y-133350000D03*
D16*
%TO.P,R1,1*%
%TO.N,Net-(C1-Pad2)*%
X207010000Y-133350000D03*
%TD*%
D17*
%TO.P,Q1,1*%
%TO.N,GND*%
X212090000Y-124460000D03*
D18*
%TO.P,Q1,3*%
%TO.N,Net-(J2-Pad2)*%
X212090000Y-127000000D03*
%TO.P,Q1,2*%
%TO.N,Net-(Q1-Pad2)*%
X212090000Y-125730000D03*
%TD*%
D10*
%TO.P,J1,9*%
%TO.N,Net-(J1-Pad9)*%
X193040000Y-123190000D03*
%TO.P,J1,8*%
%TO.N,Net-(J1-Pad8)*%
X190500000Y-123190000D03*
%TO.P,J1,7*%
%TO.N,Net-(J1-Pad7)*%
X187960000Y-123190000D03*
%TO.P,J1,6*%
%TO.N,Net-(J1-Pad6)*%
X185420000Y-123190000D03*
%TO.P,J1,5*%
%TO.N,/TRIGGER*%
X182880000Y-123190000D03*
%TO.P,J1,4*%
%TO.N,/OUT*%
X180340000Y-123190000D03*
%TO.P,J1,3*%
%TO.N,-15V*%
X177800000Y-123190000D03*
%TO.P,J1,2*%
%TO.N,GND*%
X175260000Y-123190000D03*
D11*
%TO.P,J1,1*%
%TO.N,+15V*%
X172720000Y-123190000D03*
%TD*%
D19*
%TO.P,C6,2*%
%TO.N,-15V*%
X165100000Y-128270000D03*
D13*
%TO.P,C6,1*%
%TO.N,GND*%
X165100000Y-124770000D03*
%TD*%
D19*
%TO.P,C5,2*%
%TO.N,GND*%
X152400000Y-127960000D03*
D13*
%TO.P,C5,1*%
%TO.N,+15V*%
X152400000Y-124460000D03*
%TD*%
D19*
%TO.P,C4,2*%
%TO.N,Net-(C3-Pad1)*%
X195660000Y-133350000D03*
%TO.P,C4,1*%
%TO.N,Net-(C4-Pad1)*%
X200660000Y-133350000D03*
%TD*%
%TO.P,C3,2*%
%TO.N,Net-(C1-Pad1)*%
X158830000Y-133350000D03*
%TO.P,C3,1*%
%TO.N,Net-(C3-Pad1)*%
X163830000Y-133350000D03*
%TD*%
%TO.P,C2,2*%
%TO.N,GND*%
X168910000Y-133350000D03*
%TO.P,C2,1*%
%TO.N,Net-(C2-Pad1)*%
X173910000Y-133350000D03*
%TD*%
%TO.P,C1,2*%
%TO.N,Net-(C1-Pad2)*%
X198120000Y-128190000D03*
%TO.P,C1,1*%
%TO.N,Net-(C1-Pad1)*%
X198120000Y-123190000D03*
%TD*%
D20*
%TO.N,GND*%
X141605000Y-125095000D03*
X224155000Y-125095000D03*
%TD*%
D21*
%TO.N,Net-(C1-Pad2)*%
X204470000Y-130810000D02*
X207010000Y-133350000D01*
X198120000Y-130810000D02*
X204470000Y-130810000D01*
X198120000Y-130810000D02*
X198120000Y-128190000D01*
X195580000Y-142240000D02*
X198120000Y-139700000D01*
X189230000Y-132080000D02*
X193040000Y-135890000D01*
X193040000Y-135890000D02*
X198120000Y-135890000D01*
X198120000Y-139700000D02*
X198120000Y-135890000D01*
X198120000Y-135890000D02*
X198120000Y-130810000D01*
%TO.N,Net-(C1-Pad1)*%
X158830000Y-133350000D02*
X162186086Y-129993914D01*
X193055999Y-128254001D02*
X198120000Y-123190000D01*
X181040077Y-128254001D02*
X193055999Y-128254001D01*
X179300164Y-129993914D02*
X181040077Y-128254001D01*
X162186086Y-129993914D02*
X179300164Y-129993914D01*
X158670000Y-133350000D02*
X158830000Y-133350000D01*
X149780000Y-142240000D02*
X158670000Y-133350000D01*
%TO.N,GND*%
X175260000Y-123624402D02*
X174114402Y-124770000D01*
D22*
X175260000Y-123190000D02*
X175260000Y-123624402D01*
D21*
%TO.N,Net-(C2-Pad1)*%
X173910000Y-138510000D02*
X170180000Y-142240000D01*
X173910000Y-133350000D02*
X173910000Y-138510000D01*
X186850000Y-138510000D02*
X190580000Y-142240000D01*
X173910000Y-138510000D02*
X186850000Y-138510000D01*
%TO.N,Net-(C3-Pad1)*%
X193104001Y-130794001D02*
X195660000Y-133350000D01*
X182864001Y-130794001D02*
X193104001Y-130794001D01*
X181610000Y-129540000D02*
X182864001Y-130794001D01*
X163830000Y-133350000D02*
X165981389Y-131198611D01*
X179951389Y-131198611D02*
X181610000Y-129540000D01*
X165981389Y-131198611D02*
X179951389Y-131198611D01*
X163830000Y-140890000D02*
X165180000Y-142240000D01*
X163830000Y-133350000D02*
X163830000Y-140890000D01*
%TO.N,Net-(C4-Pad1)*%
X204470000Y-137160000D02*
X200660000Y-133350000D01*
X220980000Y-142240000D02*
X215900000Y-137160000D01*
X215900000Y-137160000D02*
X204470000Y-137160000D01*
D22*
%TO.N,+15V*%
X153670000Y-123190000D02*
X172720000Y-123190000D01*
X152400000Y-124460000D02*
X153670000Y-123190000D01*
%TO.N,-15V*%
X172720000Y-128270000D02*
X177800000Y-123190000D01*
X165100000Y-128270000D02*
X172720000Y-128270000D01*
X186978001Y-124748001D02*
X189230000Y-127000000D01*
X179358001Y-124748001D02*
X186978001Y-124748001D01*
X177800000Y-123190000D02*
X179358001Y-124748001D01*
D21*
%TO.N,/TRIGGER*%
X200625999Y-121885999D02*
X184184001Y-121885999D01*
X184184001Y-121885999D02*
X182880000Y-123190000D01*
X201930000Y-123190000D02*
X200625999Y-121885999D01*
%TO.N,/OUT*%
X182352011Y-121177989D02*
X180340000Y-123190000D01*
X225980000Y-142240000D02*
X225980000Y-136257798D01*
X210900191Y-121177989D02*
X182352011Y-121177989D01*
X225980000Y-136257798D02*
X210900191Y-121177989D01*
%TO.N,Net-(Q1-Pad2)*%
X212090000Y-125730000D02*
X207010000Y-125730000D01*
X207010000Y-128270000D02*
X207010000Y-125730000D01*
X207010000Y-125730000D02*
X207010000Y-123190000D01*
%TO.N,Net-(J2-Pad2)*%
X212090000Y-127000000D02*
X212090000Y-133350000D01*
X212090000Y-133350000D02*
X216535000Y-133350000D01*
%TD*%
D23*
%TO.N,GND*%
G36*
X229210001Y-144120000D02*
G01*
X136550000Y-144120000D01*
X136550000Y-143496602D01*
X138703003Y-143496602D01*
X138819275Y-143778389D01*
X139137860Y-143936257D01*
X139481122Y-144028938D01*
X139835869Y-144052873D01*
X140188470Y-144007139D01*
X140525373Y-143893495D01*
X140740725Y-143778389D01*
X140856997Y-143496602D01*
X143703003Y-143496602D01*
X143819275Y-143778389D01*
X144137860Y-143936257D01*
X144481122Y-144028938D01*
X144835869Y-144052873D01*
X145188470Y-144007139D01*
X145525373Y-143893495D01*
X145740725Y-143778389D01*
X145856997Y-143496602D01*
X144780000Y-142419605D01*
X143703003Y-143496602D01*
X140856997Y-143496602D01*
X139780000Y-142419605D01*
X138703003Y-143496602D01*
X136550000Y-143496602D01*
X136550000Y-142295869D01*
X137967127Y-142295869D01*
X138012861Y-142648470D01*
X138126505Y-142985373D01*
X138241611Y-143200725D01*
X138523398Y-143316997D01*
X139600395Y-142240000D01*
X139959605Y-142240000D01*
X141036602Y-143316997D01*
X141318389Y-143200725D01*
X141476257Y-142882140D01*
X141568938Y-142538878D01*
X141585333Y-142295869D01*
X142967127Y-142295869D01*
X143012861Y-142648470D01*
X143126505Y-142985373D01*
X143241611Y-143200725D01*
X143523398Y-143316997D01*
X144600395Y-142240000D01*
X144959605Y-142240000D01*
X146036602Y-143316997D01*
X146318389Y-143200725D01*
X146476257Y-142882140D01*
X146568938Y-142538878D01*
X146592873Y-142184131D01*
X146577061Y-142062223D01*
X147975000Y-142062223D01*
X147975000Y-142417777D01*
X148044365Y-142766499D01*
X148180429Y-143094988D01*
X148377965Y-143390621D01*
X148629379Y-143642035D01*
X148925012Y-143839571D01*
X149253501Y-143975635D01*
X149602223Y-144045000D01*
X149957777Y-144045000D01*
X150306499Y-143975635D01*
X150634988Y-143839571D01*
X150930621Y-143642035D01*
X151182035Y-143390621D01*
X151379571Y-143094988D01*
X151515635Y-142766499D01*
X151585000Y-142417777D01*
X151585000Y-142062223D01*
X151523615Y-141753620D01*
X158524826Y-134752410D01*
X158688665Y-134785000D01*
X158971335Y-134785000D01*
X159248574Y-134729853D01*
X159509727Y-134621680D01*
X159744759Y-134464637D01*
X159944637Y-134264759D01*
X160101680Y-134029727D01*
X160209853Y-133768574D01*
X160265000Y-133491335D01*
X160265000Y-133208665D01*
X160258956Y-133178279D01*
X162554321Y-130882914D01*
X165039850Y-130882914D01*
X164001720Y-131921044D01*
X163971335Y-131915000D01*
X163688665Y-131915000D01*
X163411426Y-131970147D01*
X163150273Y-132078320D01*
X162915241Y-132235363D01*
X162715363Y-132435241D01*
X162558320Y-132670273D01*
X162450147Y-132931426D01*
X162395000Y-133208665D01*
X162395000Y-133491335D01*
X162450147Y-133768574D01*
X162558320Y-134029727D01*
X162715363Y-134264759D01*
X162915241Y-134464637D01*
X162941000Y-134481849D01*
X162941001Y-140846330D01*
X162936700Y-140890000D01*
X162953864Y-141064274D01*
X163004698Y-141231852D01*
X163086564Y-141385012D01*
X163087248Y-141386291D01*
X163198342Y-141521659D01*
X163232259Y-141549494D01*
X163436385Y-141753620D01*
X163375000Y-142062223D01*
X163375000Y-142417777D01*
X163444365Y-142766499D01*
X163580429Y-143094988D01*
X163777965Y-143390621D01*
X164029379Y-143642035D01*
X164325012Y-143839571D01*
X164653501Y-143975635D01*
X165002223Y-144045000D01*
X165357777Y-144045000D01*
X165706499Y-143975635D01*
X166034988Y-143839571D01*
X166330621Y-143642035D01*
X166582035Y-143390621D01*
X166779571Y-143094988D01*
X166915635Y-142766499D01*
X166985000Y-142417777D01*
X166985000Y-142062223D01*
X166915635Y-141713501D01*
X166779571Y-141385012D01*
X166582035Y-141089379D01*
X166330621Y-140837965D01*
X166034988Y-140640429D01*
X165706499Y-140504365D01*
X165357777Y-140435000D01*
X165002223Y-140435000D01*
X164719000Y-140491336D01*
X164719000Y-134481849D01*
X164744759Y-134464637D01*
X164866694Y-134342702D01*
X168096903Y-134342702D01*
X168168486Y-134586671D01*
X168423996Y-134707571D01*
X168698184Y-134776300D01*
X168980512Y-134790217D01*
X169260130Y-134748787D01*
X169526292Y-134653603D01*
X169651514Y-134586671D01*
X169723097Y-134342702D01*
X168910000Y-133529605D01*
X168096903Y-134342702D01*
X164866694Y-134342702D01*
X164944637Y-134264759D01*
X165101680Y-134029727D01*
X165209853Y-133768574D01*
X165265000Y-133491335D01*
X165265000Y-133420512D01*
X167469783Y-133420512D01*
X167511213Y-133700130D01*
X167606397Y-133966292D01*
X167673329Y-134091514D01*
X167917298Y-134163097D01*
X168730395Y-133350000D01*
X169089605Y-133350000D01*
X169902702Y-134163097D01*
X170146671Y-134091514D01*
X170267571Y-133836004D01*
X170336300Y-133561816D01*
X170350217Y-133279488D01*
X170308787Y-132999870D01*
X170213603Y-132733708D01*
X170146671Y-132608486D01*
X169902702Y-132536903D01*
X169089605Y-133350000D01*
X168730395Y-133350000D01*
X167917298Y-132536903D01*
X167673329Y-132608486D01*
X167552429Y-132863996D01*
X167483700Y-133138184D01*
X167469783Y-133420512D01*
X165265000Y-133420512D01*
X165265000Y-133208665D01*
X165258956Y-133178280D01*
X166349625Y-132087611D01*
X168216601Y-132087611D01*
X168168486Y-132113329D01*
X168096903Y-132357298D01*
X168910000Y-133170395D01*
X169723097Y-132357298D01*
X169651514Y-132113329D01*
X169597162Y-132087611D01*
X173216368Y-132087611D01*
X172995241Y-132235363D01*
X172795363Y-132435241D01*
X172638320Y-132670273D01*
X172530147Y-132931426D01*
X172475000Y-133208665D01*
X172475000Y-133491335D01*
X172530147Y-133768574D01*
X172638320Y-134029727D01*
X172795363Y-134264759D01*
X172995241Y-134464637D01*
X173021000Y-134481849D01*
X173021001Y-138141763D01*
X170666380Y-140496385D01*
X170357777Y-140435000D01*
X170002223Y-140435000D01*
X169653501Y-140504365D01*
X169325012Y-140640429D01*
X169029379Y-140837965D01*
X168777965Y-141089379D01*
X168580429Y-141385012D01*
X168444365Y-141713501D01*
X168375000Y-142062223D01*
X168375000Y-142417777D01*
X168444365Y-142766499D01*
X168580429Y-143094988D01*
X168777965Y-143390621D01*
X169029379Y-143642035D01*
X169325012Y-143839571D01*
X169653501Y-143975635D01*
X170002223Y-144045000D01*
X170357777Y-144045000D01*
X170706499Y-143975635D01*
X171034988Y-143839571D01*
X171330621Y-143642035D01*
X171582035Y-143390621D01*
X171779571Y-143094988D01*
X171915635Y-142766499D01*
X171985000Y-142417777D01*
X171985000Y-142062223D01*
X173375000Y-142062223D01*
X173375000Y-142417777D01*
X173444365Y-142766499D01*
X173580429Y-143094988D01*
X173777965Y-143390621D01*
X174029379Y-143642035D01*
X174325012Y-143839571D01*
X174653501Y-143975635D01*
X175002223Y-144045000D01*
X175357777Y-144045000D01*
X175706499Y-143975635D01*
X176034988Y-143839571D01*
X176330621Y-143642035D01*
X176582035Y-143390621D01*
X176779571Y-143094988D01*
X176915635Y-142766499D01*
X176985000Y-142417777D01*
X176985000Y-142062223D01*
X176915635Y-141713501D01*
X176779571Y-141385012D01*
X176582035Y-141089379D01*
X176330621Y-140837965D01*
X176034988Y-140640429D01*
X175706499Y-140504365D01*
X175357777Y-140435000D01*
X175002223Y-140435000D01*
X174653501Y-140504365D01*
X174325012Y-140640429D01*
X174029379Y-140837965D01*
X173777965Y-141089379D01*
X173580429Y-141385012D01*
X173444365Y-141713501D01*
X173375000Y-142062223D01*
X171985000Y-142062223D01*
X171923615Y-141753620D01*
X174278236Y-139399000D01*
X186481765Y-139399000D01*
X188836385Y-141753620D01*
X188775000Y-142062223D01*
X188775000Y-142417777D01*
X188844365Y-142766499D01*
X188980429Y-143094988D01*
X189177965Y-143390621D01*
X189429379Y-143642035D01*
X189725012Y-143839571D01*
X190053501Y-143975635D01*
X190402223Y-144045000D01*
X190757777Y-144045000D01*
X191106499Y-143975635D01*
X191434988Y-143839571D01*
X191730621Y-143642035D01*
X191982035Y-143390621D01*
X192179571Y-143094988D01*
X192315635Y-142766499D01*
X192385000Y-142417777D01*
X192385000Y-142062223D01*
X192315635Y-141713501D01*
X192179571Y-141385012D01*
X191982035Y-141089379D01*
X191730621Y-140837965D01*
X191434988Y-140640429D01*
X191106499Y-140504365D01*
X190757777Y-140435000D01*
X190402223Y-140435000D01*
X190093620Y-140496385D01*
X187509499Y-137912264D01*
X187481659Y-137878341D01*
X187346291Y-137767247D01*
X187191851Y-137684697D01*
X187024274Y-137633864D01*
X186893667Y-137621000D01*
X186893660Y-137621000D01*
X186850000Y-137616700D01*
X186806340Y-137621000D01*
X174799000Y-137621000D01*
X174799000Y-134481849D01*
X174824759Y-134464637D01*
X175024637Y-134264759D01*
X175181680Y-134029727D01*
X175289853Y-133768574D01*
X175345000Y-133491335D01*
X175345000Y-133208665D01*
X175289853Y-132931426D01*
X175181680Y-132670273D01*
X175024637Y-132435241D01*
X174824759Y-132235363D01*
X174603632Y-132087611D01*
X179907729Y-132087611D01*
X179951389Y-132091911D01*
X179995049Y-132087611D01*
X179995056Y-132087611D01*
X180125663Y-132074747D01*
X180175000Y-132059781D01*
X180175000Y-132221335D01*
X180230147Y-132498574D01*
X180338320Y-132759727D01*
X180495363Y-132994759D01*
X180695241Y-133194637D01*
X180927759Y-133350000D01*
X180695241Y-133505363D01*
X180495363Y-133705241D01*
X180338320Y-133940273D01*
X180230147Y-134201426D01*
X180175000Y-134478665D01*
X180175000Y-134761335D01*
X180230147Y-135038574D01*
X180338320Y-135299727D01*
X180495363Y-135534759D01*
X180695241Y-135734637D01*
X180930273Y-135891680D01*
X181191426Y-135999853D01*
X181468665Y-136055000D01*
X181751335Y-136055000D01*
X182028574Y-135999853D01*
X182289727Y-135891680D01*
X182524759Y-135734637D01*
X182724637Y-135534759D01*
X182881680Y-135299727D01*
X182989853Y-135038574D01*
X183045000Y-134761335D01*
X183045000Y-134478665D01*
X182989853Y-134201426D01*
X182881680Y-133940273D01*
X182724637Y-133705241D01*
X182524759Y-133505363D01*
X182292241Y-133350000D01*
X182524759Y-133194637D01*
X182724637Y-132994759D01*
X182881680Y-132759727D01*
X182989853Y-132498574D01*
X183045000Y-132221335D01*
X183045000Y-131938665D01*
X182994145Y-131683001D01*
X187845855Y-131683001D01*
X187795000Y-131938665D01*
X187795000Y-132221335D01*
X187850147Y-132498574D01*
X187958320Y-132759727D01*
X188115363Y-132994759D01*
X188313961Y-133193357D01*
X188305518Y-133194188D01*
X188185820Y-133230498D01*
X188075506Y-133289463D01*
X187978815Y-133368815D01*
X187899463Y-133465506D01*
X187840498Y-133575820D01*
X187804188Y-133695518D01*
X187791928Y-133820000D01*
X187791928Y-135420000D01*
X187804188Y-135544482D01*
X187840498Y-135664180D01*
X187899463Y-135774494D01*
X187978815Y-135871185D01*
X188075506Y-135950537D01*
X188185820Y-136009502D01*
X188305518Y-136045812D01*
X188430000Y-136058072D01*
X190030000Y-136058072D01*
X190154482Y-136045812D01*
X190274180Y-136009502D01*
X190384494Y-135950537D01*
X190481185Y-135871185D01*
X190560537Y-135774494D01*
X190619502Y-135664180D01*
X190655812Y-135544482D01*
X190668072Y-135420000D01*
X190668072Y-134775308D01*
X192380506Y-136487742D01*
X192408341Y-136521659D01*
X192543709Y-136632753D01*
X192698149Y-136715303D01*
X192814892Y-136750716D01*
X192865725Y-136766136D01*
X192882325Y-136767771D01*
X192996333Y-136779000D01*
X192996340Y-136779000D01*
X193040000Y-136783300D01*
X193083660Y-136779000D01*
X197231001Y-136779000D01*
X197231000Y-139331764D01*
X196066380Y-140496385D01*
X195757777Y-140435000D01*
X195402223Y-140435000D01*
X195053501Y-140504365D01*
X194725012Y-140640429D01*
X194429379Y-140837965D01*
X194177965Y-141089379D01*
X193980429Y-141385012D01*
X193844365Y-141713501D01*
X193775000Y-142062223D01*
X193775000Y-142417777D01*
X193844365Y-142766499D01*
X193980429Y-143094988D01*
X194177965Y-143390621D01*
X194429379Y-143642035D01*
X194725012Y-143839571D01*
X195053501Y-143975635D01*
X195402223Y-144045000D01*
X195757777Y-144045000D01*
X196106499Y-143975635D01*
X196434988Y-143839571D01*
X196730621Y-143642035D01*
X196982035Y-143390621D01*
X197179571Y-143094988D01*
X197315635Y-142766499D01*
X197385000Y-142417777D01*
X197385000Y-142062223D01*
X198775000Y-142062223D01*
X198775000Y-142417777D01*
X198844365Y-142766499D01*
X198980429Y-143094988D01*
X199177965Y-143390621D01*
X199429379Y-143642035D01*
X199725012Y-143839571D01*
X200053501Y-143975635D01*
X200402223Y-144045000D01*
X200757777Y-144045000D01*
X201106499Y-143975635D01*
X201434988Y-143839571D01*
X201730621Y-143642035D01*
X201876054Y-143496602D01*
X214903003Y-143496602D01*
X215019275Y-143778389D01*
X215337860Y-143936257D01*
X215681122Y-144028938D01*
X216035869Y-144052873D01*
X216388470Y-144007139D01*
X216725373Y-143893495D01*
X216940725Y-143778389D01*
X217056997Y-143496602D01*
X215980000Y-142419605D01*
X214903003Y-143496602D01*
X201876054Y-143496602D01*
X201982035Y-143390621D01*
X202179571Y-143094988D01*
X202315635Y-142766499D01*
X202385000Y-142417777D01*
X202385000Y-142295869D01*
X214167127Y-142295869D01*
X214212861Y-142648470D01*
X214326505Y-142985373D01*
X214441611Y-143200725D01*
X214723398Y-143316997D01*
X215800395Y-142240000D01*
X216159605Y-142240000D01*
X217236602Y-143316997D01*
X217518389Y-143200725D01*
X217676257Y-142882140D01*
X217768938Y-142538878D01*
X217792873Y-142184131D01*
X217747139Y-141831530D01*
X217633495Y-141494627D01*
X217518389Y-141279275D01*
X217236602Y-141163003D01*
X216159605Y-142240000D01*
X215800395Y-142240000D01*
X214723398Y-141163003D01*
X214441611Y-141279275D01*
X214283743Y-141597860D01*
X214191062Y-141941122D01*
X214167127Y-142295869D01*
X202385000Y-142295869D01*
X202385000Y-142062223D01*
X202315635Y-141713501D01*
X202179571Y-141385012D01*
X201982035Y-141089379D01*
X201876054Y-140983398D01*
X214903003Y-140983398D01*
X215980000Y-142060395D01*
X217056997Y-140983398D01*
X216940725Y-140701611D01*
X216622140Y-140543743D01*
X216278878Y-140451062D01*
X215924131Y-140427127D01*
X215571530Y-140472861D01*
X215234627Y-140586505D01*
X215019275Y-140701611D01*
X214903003Y-140983398D01*
X201876054Y-140983398D01*
X201730621Y-140837965D01*
X201434988Y-140640429D01*
X201106499Y-140504365D01*
X200757777Y-140435000D01*
X200402223Y-140435000D01*
X200053501Y-140504365D01*
X199725012Y-140640429D01*
X199429379Y-140837965D01*
X199177965Y-141089379D01*
X198980429Y-141385012D01*
X198844365Y-141713501D01*
X198775000Y-142062223D01*
X197385000Y-142062223D01*
X197323615Y-141753620D01*
X198717743Y-140359493D01*
X198751659Y-140331659D01*
X198862753Y-140196291D01*
X198945303Y-140041851D01*
X198965296Y-139975942D01*
X198996136Y-139874276D01*
X198999406Y-139841076D01*
X199009000Y-139743667D01*
X199009000Y-139743661D01*
X199013300Y-139700001D01*
X199009000Y-139656341D01*
X199009000Y-135933666D01*
X199013301Y-135890000D01*
X199009000Y-135846333D01*
X199009000Y-133208665D01*
X199225000Y-133208665D01*
X199225000Y-133491335D01*
X199280147Y-133768574D01*
X199388320Y-134029727D01*
X199545363Y-134264759D01*
X199745241Y-134464637D01*
X199980273Y-134621680D01*
X200241426Y-134729853D01*
X200518665Y-134785000D01*
X200801335Y-134785000D01*
X200831721Y-134778956D01*
X203810504Y-137757740D01*
X203838341Y-137791659D01*
X203973709Y-137902753D01*
X204128149Y-137985303D01*
X204221793Y-138013709D01*
X204295725Y-138036136D01*
X204312325Y-138037771D01*
X204426333Y-138049000D01*
X204426340Y-138049000D01*
X204470000Y-138053300D01*
X204513660Y-138049000D01*
X215531765Y-138049000D01*
X219236385Y-141753621D01*
X219175000Y-142062223D01*
X219175000Y-142417777D01*
X219244365Y-142766499D01*
X219380429Y-143094988D01*
X219577965Y-143390621D01*
X219829379Y-143642035D01*
X220125012Y-143839571D01*
X220453501Y-143975635D01*
X220802223Y-144045000D01*
X221157777Y-144045000D01*
X221506499Y-143975635D01*
X221834988Y-143839571D01*
X222130621Y-143642035D01*
X222382035Y-143390621D01*
X222579571Y-143094988D01*
X222715635Y-142766499D01*
X222785000Y-142417777D01*
X222785000Y-142062223D01*
X222715635Y-141713501D01*
X222579571Y-141385012D01*
X222382035Y-141089379D01*
X222130621Y-140837965D01*
X221834988Y-140640429D01*
X221506499Y-140504365D01*
X221157777Y-140435000D01*
X220802223Y-140435000D01*
X220493621Y-140496385D01*
X216559499Y-136562264D01*
X216531659Y-136528341D01*
X216396291Y-136417247D01*
X216241851Y-136334697D01*
X216074274Y-136283864D01*
X215943667Y-136271000D01*
X215943660Y-136271000D01*
X215900000Y-136266700D01*
X215856340Y-136271000D01*
X204838236Y-136271000D01*
X202088956Y-133521721D01*
X202095000Y-133491335D01*
X202095000Y-133208665D01*
X202039853Y-132931426D01*
X201931680Y-132670273D01*
X201774637Y-132435241D01*
X201574759Y-132235363D01*
X201339727Y-132078320D01*
X201078574Y-131970147D01*
X200801335Y-131915000D01*
X200518665Y-131915000D01*
X200241426Y-131970147D01*
X199980273Y-132078320D01*
X199745241Y-132235363D01*
X199545363Y-132435241D01*
X199388320Y-132670273D01*
X199280147Y-132931426D01*
X199225000Y-133208665D01*
X199009000Y-133208665D01*
X199009000Y-131699000D01*
X204101765Y-131699000D01*
X205675000Y-133272236D01*
X205675000Y-133481486D01*
X205726304Y-133739405D01*
X205826939Y-133982359D01*
X205973038Y-134201013D01*
X206158987Y-134386962D01*
X206377641Y-134533061D01*
X206620595Y-134633696D01*
X206878514Y-134685000D01*
X207141486Y-134685000D01*
X207399405Y-134633696D01*
X207642359Y-134533061D01*
X207861013Y-134386962D01*
X208046962Y-134201013D01*
X208193061Y-133982359D01*
X208293696Y-133739405D01*
X208345000Y-133481486D01*
X208345000Y-133218514D01*
X208293696Y-132960595D01*
X208193061Y-132717641D01*
X208046962Y-132498987D01*
X207861013Y-132313038D01*
X207642359Y-132166939D01*
X207399405Y-132066304D01*
X207141486Y-132015000D01*
X206932236Y-132015000D01*
X205129499Y-130212264D01*
X205101659Y-130178341D01*
X204966291Y-130067247D01*
X204811851Y-129984697D01*
X204644274Y-129933864D01*
X204513667Y-129921000D01*
X204513660Y-129921000D01*
X204470000Y-129916700D01*
X204426340Y-129921000D01*
X199009000Y-129921000D01*
X199009000Y-129321849D01*
X199034759Y-129304637D01*
X199234637Y-129104759D01*
X199391680Y-128869727D01*
X199499853Y-128608574D01*
X199500896Y-128603329D01*
X200637284Y-128603329D01*
X200669953Y-128711044D01*
X200780208Y-128948392D01*
X200934649Y-129159670D01*
X201127340Y-129336759D01*
X201350877Y-129472853D01*
X201596670Y-129562722D01*
X201803000Y-129440201D01*
X201803000Y-128397000D01*
X202057000Y-128397000D01*
X202057000Y-129440201D01*
X202263330Y-129562722D01*
X202509123Y-129472853D01*
X202732660Y-129336759D01*
X202925351Y-129159670D01*
X203079792Y-128948392D01*
X203190047Y-128711044D01*
X203222716Y-128603329D01*
X203099374Y-128397000D01*
X202057000Y-128397000D01*
X201803000Y-128397000D01*
X200760626Y-128397000D01*
X200637284Y-128603329D01*
X199500896Y-128603329D01*
X199555000Y-128331335D01*
X199555000Y-128048665D01*
X199532723Y-127936671D01*
X200637284Y-127936671D01*
X200760626Y-128143000D01*
X201803000Y-128143000D01*
X201803000Y-127099799D01*
X202057000Y-127099799D01*
X202057000Y-128143000D01*
X203099374Y-128143000D01*
X203222716Y-127936671D01*
X203190047Y-127828956D01*
X203079792Y-127591608D01*
X202925351Y-127380330D01*
X202732660Y-127203241D01*
X202509123Y-127067147D01*
X202263330Y-126977278D01*
X202057000Y-127099799D01*
X201803000Y-127099799D01*
X201596670Y-126977278D01*
X201350877Y-127067147D01*
X201127340Y-127203241D01*
X200934649Y-127380330D01*
X200780208Y-127591608D01*
X200669953Y-127828956D01*
X200637284Y-127936671D01*
X199532723Y-127936671D01*
X199499853Y-127771426D01*
X199391680Y-127510273D01*
X199234637Y-127275241D01*
X199034759Y-127075363D01*
X198799727Y-126918320D01*
X198538574Y-126810147D01*
X198261335Y-126755000D01*
X197978665Y-126755000D01*
X197701426Y-126810147D01*
X197440273Y-126918320D01*
X197205241Y-127075363D01*
X197005363Y-127275241D01*
X196848320Y-127510273D01*
X196740147Y-127771426D01*
X196685000Y-128048665D01*
X196685000Y-128331335D01*
X196740147Y-128608574D01*
X196848320Y-128869727D01*
X197005363Y-129104759D01*
X197205241Y-129304637D01*
X197231001Y-129321849D01*
X197231000Y-130766332D01*
X197226699Y-130810000D01*
X197231001Y-130853677D01*
X197231000Y-135001000D01*
X193408236Y-135001000D01*
X190658956Y-132251721D01*
X190665000Y-132221335D01*
X190665000Y-131938665D01*
X190614145Y-131683001D01*
X192735766Y-131683001D01*
X194231044Y-133178280D01*
X194225000Y-133208665D01*
X194225000Y-133491335D01*
X194280147Y-133768574D01*
X194388320Y-134029727D01*
X194545363Y-134264759D01*
X194745241Y-134464637D01*
X194980273Y-134621680D01*
X195241426Y-134729853D01*
X195518665Y-134785000D01*
X195801335Y-134785000D01*
X196078574Y-134729853D01*
X196339727Y-134621680D01*
X196574759Y-134464637D01*
X196774637Y-134264759D01*
X196931680Y-134029727D01*
X197039853Y-133768574D01*
X197095000Y-133491335D01*
X197095000Y-133208665D01*
X197039853Y-132931426D01*
X196931680Y-132670273D01*
X196774637Y-132435241D01*
X196574759Y-132235363D01*
X196339727Y-132078320D01*
X196078574Y-131970147D01*
X195801335Y-131915000D01*
X195518665Y-131915000D01*
X195488280Y-131921044D01*
X193763500Y-130196265D01*
X193735660Y-130162342D01*
X193600292Y-130051248D01*
X193445852Y-129968698D01*
X193278275Y-129917865D01*
X193147668Y-129905001D01*
X193147661Y-129905001D01*
X193104001Y-129900701D01*
X193060341Y-129905001D01*
X190617063Y-129905001D01*
X190621904Y-129889039D01*
X190499915Y-129667000D01*
X189357000Y-129667000D01*
X189357000Y-129687000D01*
X189103000Y-129687000D01*
X189103000Y-129667000D01*
X187960085Y-129667000D01*
X187838096Y-129889039D01*
X187842937Y-129905001D01*
X183232237Y-129905001D01*
X183038956Y-129711720D01*
X183045000Y-129681335D01*
X183045000Y-129398665D01*
X182994145Y-129143001D01*
X187852643Y-129143001D01*
X187838096Y-129190961D01*
X187960085Y-129413000D01*
X189103000Y-129413000D01*
X189103000Y-129393000D01*
X189357000Y-129393000D01*
X189357000Y-129413000D01*
X190499915Y-129413000D01*
X190621904Y-129190961D01*
X190607357Y-129143001D01*
X193012339Y-129143001D01*
X193055999Y-129147301D01*
X193099659Y-129143001D01*
X193099666Y-129143001D01*
X193230273Y-129130137D01*
X193397850Y-129079304D01*
X193552290Y-128996754D01*
X193687658Y-128885660D01*
X193715498Y-128851737D01*
X197948280Y-124618956D01*
X197978665Y-124625000D01*
X198261335Y-124625000D01*
X198538574Y-124569853D01*
X198799727Y-124461680D01*
X199034759Y-124304637D01*
X199234637Y-124104759D01*
X199391680Y-123869727D01*
X199499853Y-123608574D01*
X199555000Y-123331335D01*
X199555000Y-123048665D01*
X199500564Y-122774999D01*
X200257764Y-122774999D01*
X200595000Y-123112235D01*
X200595000Y-123321486D01*
X200646304Y-123579405D01*
X200746939Y-123822359D01*
X200893038Y-124041013D01*
X201078987Y-124226962D01*
X201297641Y-124373061D01*
X201540595Y-124473696D01*
X201798514Y-124525000D01*
X202061486Y-124525000D01*
X202319405Y-124473696D01*
X202562359Y-124373061D01*
X202781013Y-124226962D01*
X202966962Y-124041013D01*
X203113061Y-123822359D01*
X203213696Y-123579405D01*
X203265000Y-123321486D01*
X203265000Y-123058514D01*
X203213696Y-122800595D01*
X203113061Y-122557641D01*
X202966962Y-122338987D01*
X202781013Y-122153038D01*
X202652231Y-122066989D01*
X206287769Y-122066989D01*
X206158987Y-122153038D01*
X205973038Y-122338987D01*
X205826939Y-122557641D01*
X205726304Y-122800595D01*
X205675000Y-123058514D01*
X205675000Y-123321486D01*
X205726304Y-123579405D01*
X205826939Y-123822359D01*
X205973038Y-124041013D01*
X206121001Y-124188976D01*
X206121000Y-125686332D01*
X206116699Y-125730000D01*
X206121001Y-125773677D01*
X206121000Y-127271025D01*
X205973038Y-127418987D01*
X205826939Y-127637641D01*
X205726304Y-127880595D01*
X205675000Y-128138514D01*
X205675000Y-128401486D01*
X205726304Y-128659405D01*
X205826939Y-128902359D01*
X205973038Y-129121013D01*
X206158987Y-129306962D01*
X206377641Y-129453061D01*
X206620595Y-129553696D01*
X206878514Y-129605000D01*
X207141486Y-129605000D01*
X207399405Y-129553696D01*
X207642359Y-129453061D01*
X207861013Y-129306962D01*
X208046962Y-129121013D01*
X208193061Y-128902359D01*
X208293696Y-128659405D01*
X208345000Y-128401486D01*
X208345000Y-128138514D01*
X208293696Y-127880595D01*
X208193061Y-127637641D01*
X208046962Y-127418987D01*
X207899000Y-127271025D01*
X207899000Y-126619000D01*
X210768379Y-126619000D01*
X210721785Y-126772600D01*
X210699388Y-127000000D01*
X210721785Y-127227400D01*
X210788115Y-127446060D01*
X210895829Y-127647579D01*
X211040788Y-127824212D01*
X211201000Y-127955695D01*
X211201001Y-132351024D01*
X211053038Y-132498987D01*
X210906939Y-132717641D01*
X210806304Y-132960595D01*
X210755000Y-133218514D01*
X210755000Y-133481486D01*
X210806304Y-133739405D01*
X210906939Y-133982359D01*
X211053038Y-134201013D01*
X211238987Y-134386962D01*
X211457641Y-134533061D01*
X211700595Y-134633696D01*
X211958514Y-134685000D01*
X212221486Y-134685000D01*
X212479405Y-134633696D01*
X212722359Y-134533061D01*
X212941013Y-134386962D01*
X213088975Y-134239000D01*
X215343017Y-134239000D01*
X215381525Y-134296632D01*
X215588368Y-134503475D01*
X215831589Y-134665990D01*
X216101842Y-134777932D01*
X216388740Y-134835000D01*
X216681260Y-134835000D01*
X216968158Y-134777932D01*
X217238411Y-134665990D01*
X217481632Y-134503475D01*
X217613487Y-134371620D01*
X217635498Y-134444180D01*
X217694463Y-134554494D01*
X217773815Y-134651185D01*
X217870506Y-134730537D01*
X217980820Y-134789502D01*
X218100518Y-134825812D01*
X218225000Y-134838072D01*
X218789250Y-134835000D01*
X218948000Y-134676250D01*
X218948000Y-133477000D01*
X219202000Y-133477000D01*
X219202000Y-134676250D01*
X219360750Y-134835000D01*
X219925000Y-134838072D01*
X220049482Y-134825812D01*
X220169180Y-134789502D01*
X220279494Y-134730537D01*
X220376185Y-134651185D01*
X220455537Y-134554494D01*
X220514502Y-134444180D01*
X220550812Y-134324482D01*
X220563072Y-134200000D01*
X220560000Y-133635750D01*
X220401250Y-133477000D01*
X219202000Y-133477000D01*
X218948000Y-133477000D01*
X218928000Y-133477000D01*
X218928000Y-133223000D01*
X218948000Y-133223000D01*
X218948000Y-132023750D01*
X219202000Y-132023750D01*
X219202000Y-133223000D01*
X220401250Y-133223000D01*
X220560000Y-133064250D01*
X220563072Y-132500000D01*
X220550812Y-132375518D01*
X220514502Y-132255820D01*
X220455537Y-132145506D01*
X220376185Y-132048815D01*
X220279494Y-131969463D01*
X220169180Y-131910498D01*
X220049482Y-131874188D01*
X219925000Y-131861928D01*
X219360750Y-131865000D01*
X219202000Y-132023750D01*
X218948000Y-132023750D01*
X218789250Y-131865000D01*
X218225000Y-131861928D01*
X218100518Y-131874188D01*
X217980820Y-131910498D01*
X217870506Y-131969463D01*
X217773815Y-132048815D01*
X217694463Y-132145506D01*
X217635498Y-132255820D01*
X217613487Y-132328380D01*
X217481632Y-132196525D01*
X217238411Y-132034010D01*
X216968158Y-131922068D01*
X216681260Y-131865000D01*
X216388740Y-131865000D01*
X216101842Y-131922068D01*
X215831589Y-132034010D01*
X215588368Y-132196525D01*
X215381525Y-132403368D01*
X215343017Y-132461000D01*
X213088975Y-132461000D01*
X212979000Y-132351025D01*
X212979000Y-127955695D01*
X213139212Y-127824212D01*
X213284171Y-127647579D01*
X213391885Y-127446060D01*
X213458215Y-127227400D01*
X213480612Y-127000000D01*
X213458215Y-126772600D01*
X213391885Y-126553940D01*
X213290895Y-126365000D01*
X213391885Y-126176060D01*
X213458215Y-125957400D01*
X213480612Y-125730000D01*
X213458215Y-125502600D01*
X213394907Y-125293902D01*
X213429502Y-125229180D01*
X213465812Y-125109482D01*
X213475552Y-125010585D01*
X225091001Y-136626034D01*
X225091000Y-140663155D01*
X224829379Y-140837965D01*
X224577965Y-141089379D01*
X224380429Y-141385012D01*
X224244365Y-141713501D01*
X224175000Y-142062223D01*
X224175000Y-142417777D01*
X224244365Y-142766499D01*
X224380429Y-143094988D01*
X224577965Y-143390621D01*
X224829379Y-143642035D01*
X225125012Y-143839571D01*
X225453501Y-143975635D01*
X225802223Y-144045000D01*
X226157777Y-144045000D01*
X226506499Y-143975635D01*
X226834988Y-143839571D01*
X227130621Y-143642035D01*
X227382035Y-143390621D01*
X227579571Y-143094988D01*
X227715635Y-142766499D01*
X227785000Y-142417777D01*
X227785000Y-142062223D01*
X227715635Y-141713501D01*
X227579571Y-141385012D01*
X227382035Y-141089379D01*
X227130621Y-140837965D01*
X226869000Y-140663155D01*
X226869000Y-136301457D01*
X226873300Y-136257797D01*
X226869000Y-136214137D01*
X226869000Y-136214131D01*
X226856136Y-136083524D01*
X226856136Y-136083522D01*
X226825296Y-135981856D01*
X226805303Y-135915947D01*
X226722753Y-135761507D01*
X226611659Y-135626139D01*
X226577736Y-135598299D01*
X211559690Y-120580253D01*
X211531850Y-120546330D01*
X211396482Y-120435236D01*
X211242042Y-120352686D01*
X211074465Y-120301853D01*
X210943858Y-120288989D01*
X210943851Y-120288989D01*
X210900191Y-120284689D01*
X210856531Y-120288989D01*
X182395670Y-120288989D01*
X182352010Y-120284689D01*
X182308350Y-120288989D01*
X182308344Y-120288989D01*
X182210935Y-120298583D01*
X182177735Y-120301853D01*
X182076069Y-120332693D01*
X182010160Y-120352686D01*
X181855720Y-120435236D01*
X181720352Y-120546330D01*
X181692512Y-120580253D01*
X180554242Y-121718523D01*
X180486260Y-121705000D01*
X180193740Y-121705000D01*
X179906842Y-121762068D01*
X179636589Y-121874010D01*
X179393368Y-122036525D01*
X179186525Y-122243368D01*
X179070000Y-122417760D01*
X178953475Y-122243368D01*
X178746632Y-122036525D01*
X178503411Y-121874010D01*
X178233158Y-121762068D01*
X177946260Y-121705000D01*
X177653740Y-121705000D01*
X177366842Y-121762068D01*
X177096589Y-121874010D01*
X176853368Y-122036525D01*
X176646525Y-122243368D01*
X176524805Y-122425534D01*
X176455178Y-122308645D01*
X176260269Y-122092412D01*
X176026920Y-121918359D01*
X175764099Y-121793175D01*
X175616890Y-121748524D01*
X175387000Y-121869845D01*
X175387000Y-123063000D01*
X175407000Y-123063000D01*
X175407000Y-123317000D01*
X175387000Y-123317000D01*
X175387000Y-123337000D01*
X175133000Y-123337000D01*
X175133000Y-123317000D01*
X175113000Y-123317000D01*
X175113000Y-123063000D01*
X175133000Y-123063000D01*
X175133000Y-121869845D01*
X174903110Y-121748524D01*
X174755901Y-121793175D01*
X174493080Y-121918359D01*
X174259731Y-122092412D01*
X174183966Y-122176466D01*
X174159502Y-122095820D01*
X174100537Y-121985506D01*
X174021185Y-121888815D01*
X173924494Y-121809463D01*
X173814180Y-121750498D01*
X173694482Y-121714188D01*
X173570000Y-121701928D01*
X171870000Y-121701928D01*
X171745518Y-121714188D01*
X171625820Y-121750498D01*
X171515506Y-121809463D01*
X171418815Y-121888815D01*
X171339463Y-121985506D01*
X171306593Y-122047000D01*
X153726138Y-122047000D01*
X153669999Y-122041471D01*
X153613860Y-122047000D01*
X153613854Y-122047000D01*
X153479093Y-122060273D01*
X153445932Y-122063539D01*
X153380574Y-122083365D01*
X153230477Y-122128897D01*
X153031911Y-122235032D01*
X152857867Y-122377867D01*
X152822077Y-122421477D01*
X152221627Y-123021928D01*
X151600000Y-123021928D01*
X151475518Y-123034188D01*
X151355820Y-123070498D01*
X151245506Y-123129463D01*
X151148815Y-123208815D01*
X151069463Y-123305506D01*
X151010498Y-123415820D01*
X150974188Y-123535518D01*
X150961928Y-123660000D01*
X150961928Y-125260000D01*
X150974188Y-125384482D01*
X151010498Y-125504180D01*
X151069463Y-125614494D01*
X151148815Y-125711185D01*
X151245506Y-125790537D01*
X151355820Y-125849502D01*
X151475518Y-125885812D01*
X151600000Y-125898072D01*
X153200000Y-125898072D01*
X153324482Y-125885812D01*
X153444180Y-125849502D01*
X153554494Y-125790537D01*
X153651185Y-125711185D01*
X153730537Y-125614494D01*
X153754319Y-125570000D01*
X163661928Y-125570000D01*
X163674188Y-125694482D01*
X163710498Y-125814180D01*
X163769463Y-125924494D01*
X163848815Y-126021185D01*
X163945506Y-126100537D01*
X164055820Y-126159502D01*
X164175518Y-126195812D01*
X164300000Y-126208072D01*
X164814250Y-126205000D01*
X164973000Y-126046250D01*
X164973000Y-124897000D01*
X165227000Y-124897000D01*
X165227000Y-126046250D01*
X165385750Y-126205000D01*
X165900000Y-126208072D01*
X166024482Y-126195812D01*
X166144180Y-126159502D01*
X166254494Y-126100537D01*
X166351185Y-126021185D01*
X166430537Y-125924494D01*
X166489502Y-125814180D01*
X166525812Y-125694482D01*
X166538072Y-125570000D01*
X166535000Y-125055750D01*
X166376250Y-124897000D01*
X165227000Y-124897000D01*
X164973000Y-124897000D01*
X163823750Y-124897000D01*
X163665000Y-125055750D01*
X163661928Y-125570000D01*
X153754319Y-125570000D01*
X153789502Y-125504180D01*
X153825812Y-125384482D01*
X153838072Y-125260000D01*
X153838072Y-124638373D01*
X154143446Y-124333000D01*
X163664096Y-124333000D01*
X163665000Y-124484250D01*
X163823750Y-124643000D01*
X164973000Y-124643000D01*
X164973000Y-124623000D01*
X165227000Y-124623000D01*
X165227000Y-124643000D01*
X166376250Y-124643000D01*
X166535000Y-124484250D01*
X166535904Y-124333000D01*
X171306593Y-124333000D01*
X171339463Y-124394494D01*
X171418815Y-124491185D01*
X171515506Y-124570537D01*
X171625820Y-124629502D01*
X171745518Y-124665812D01*
X171870000Y-124678072D01*
X173570000Y-124678072D01*
X173694482Y-124665812D01*
X173814180Y-124629502D01*
X173924494Y-124570537D01*
X174021185Y-124491185D01*
X174100537Y-124394494D01*
X174159502Y-124284180D01*
X174183966Y-124203534D01*
X174259731Y-124287588D01*
X174493080Y-124461641D01*
X174755901Y-124586825D01*
X174779555Y-124594000D01*
X172246555Y-127127000D01*
X165972311Y-127127000D01*
X165779727Y-126998320D01*
X165518574Y-126890147D01*
X165241335Y-126835000D01*
X164958665Y-126835000D01*
X164681426Y-126890147D01*
X164420273Y-126998320D01*
X164185241Y-127155363D01*
X163985363Y-127355241D01*
X163828320Y-127590273D01*
X163720147Y-127851426D01*
X163665000Y-128128665D01*
X163665000Y-128411335D01*
X163720147Y-128688574D01*
X163828320Y-128949727D01*
X163932012Y-129104914D01*
X162229745Y-129104914D01*
X162186085Y-129100614D01*
X162142425Y-129104914D01*
X162142419Y-129104914D01*
X162045010Y-129114508D01*
X162011810Y-129117778D01*
X161928661Y-129143001D01*
X161844235Y-129168611D01*
X161689795Y-129251161D01*
X161554427Y-129362255D01*
X161526587Y-129396178D01*
X159001721Y-131921044D01*
X158971335Y-131915000D01*
X158688665Y-131915000D01*
X158411426Y-131970147D01*
X158150273Y-132078320D01*
X157915241Y-132235363D01*
X157715363Y-132435241D01*
X157558320Y-132670273D01*
X157450147Y-132931426D01*
X157395000Y-133208665D01*
X157395000Y-133367764D01*
X150266380Y-140496385D01*
X149957777Y-140435000D01*
X149602223Y-140435000D01*
X149253501Y-140504365D01*
X148925012Y-140640429D01*
X148629379Y-140837965D01*
X148377965Y-141089379D01*
X148180429Y-141385012D01*
X148044365Y-141713501D01*
X147975000Y-142062223D01*
X146577061Y-142062223D01*
X146547139Y-141831530D01*
X146433495Y-141494627D01*
X146318389Y-141279275D01*
X146036602Y-141163003D01*
X144959605Y-142240000D01*
X144600395Y-142240000D01*
X143523398Y-141163003D01*
X143241611Y-141279275D01*
X143083743Y-141597860D01*
X142991062Y-141941122D01*
X142967127Y-142295869D01*
X141585333Y-142295869D01*
X141592873Y-142184131D01*
X141547139Y-141831530D01*
X141433495Y-141494627D01*
X141318389Y-141279275D01*
X141036602Y-141163003D01*
X139959605Y-142240000D01*
X139600395Y-142240000D01*
X138523398Y-141163003D01*
X138241611Y-141279275D01*
X138083743Y-141597860D01*
X137991062Y-141941122D01*
X137967127Y-142295869D01*
X136550000Y-142295869D01*
X136550000Y-140983398D01*
X138703003Y-140983398D01*
X139780000Y-142060395D01*
X140856997Y-140983398D01*
X143703003Y-140983398D01*
X144780000Y-142060395D01*
X145856997Y-140983398D01*
X145740725Y-140701611D01*
X145422140Y-140543743D01*
X145078878Y-140451062D01*
X144724131Y-140427127D01*
X144371530Y-140472861D01*
X144034627Y-140586505D01*
X143819275Y-140701611D01*
X143703003Y-140983398D01*
X140856997Y-140983398D01*
X140740725Y-140701611D01*
X140422140Y-140543743D01*
X140078878Y-140451062D01*
X139724131Y-140427127D01*
X139371530Y-140472861D01*
X139034627Y-140586505D01*
X138819275Y-140701611D01*
X138703003Y-140983398D01*
X136550000Y-140983398D01*
X136550000Y-128952702D01*
X151586903Y-128952702D01*
X151658486Y-129196671D01*
X151913996Y-129317571D01*
X152188184Y-129386300D01*
X152470512Y-129400217D01*
X152750130Y-129358787D01*
X153016292Y-129263603D01*
X153141514Y-129196671D01*
X153213097Y-128952702D01*
X152400000Y-128139605D01*
X151586903Y-128952702D01*
X136550000Y-128952702D01*
X136550000Y-128030512D01*
X150959783Y-128030512D01*
X151001213Y-128310130D01*
X151096397Y-128576292D01*
X151163329Y-128701514D01*
X151407298Y-128773097D01*
X152220395Y-127960000D01*
X152579605Y-127960000D01*
X153392702Y-128773097D01*
X153636671Y-128701514D01*
X153757571Y-128446004D01*
X153826300Y-128171816D01*
X153840217Y-127889488D01*
X153798787Y-127609870D01*
X153703603Y-127343708D01*
X153636671Y-127218486D01*
X153392702Y-127146903D01*
X152579605Y-127960000D01*
X152220395Y-127960000D01*
X151407298Y-127146903D01*
X151163329Y-127218486D01*
X151042429Y-127473996D01*
X150973700Y-127748184D01*
X150959783Y-128030512D01*
X136550000Y-128030512D01*
X136550000Y-126967298D01*
X151586903Y-126967298D01*
X152400000Y-127780395D01*
X153213097Y-126967298D01*
X153141514Y-126723329D01*
X152886004Y-126602429D01*
X152611816Y-126533700D01*
X152329488Y-126519783D01*
X152049870Y-126561213D01*
X151783708Y-126656397D01*
X151658486Y-126723329D01*
X151586903Y-126967298D01*
X136550000Y-126967298D01*
X136550000Y-120040000D01*
X229210000Y-120040000D01*
X229210001Y-144120000D01*
G37*
X229210001Y-144120000D02*
X136550000Y-144120000D01*
X136550000Y-143496602D01*
X138703003Y-143496602D01*
X138819275Y-143778389D01*
X139137860Y-143936257D01*
X139481122Y-144028938D01*
X139835869Y-144052873D01*
X140188470Y-144007139D01*
X140525373Y-143893495D01*
X140740725Y-143778389D01*
X140856997Y-143496602D01*
X143703003Y-143496602D01*
X143819275Y-143778389D01*
X144137860Y-143936257D01*
X144481122Y-144028938D01*
X144835869Y-144052873D01*
X145188470Y-144007139D01*
X145525373Y-143893495D01*
X145740725Y-143778389D01*
X145856997Y-143496602D01*
X144780000Y-142419605D01*
X143703003Y-143496602D01*
X140856997Y-143496602D01*
X139780000Y-142419605D01*
X138703003Y-143496602D01*
X136550000Y-143496602D01*
X136550000Y-142295869D01*
X137967127Y-142295869D01*
X138012861Y-142648470D01*
X138126505Y-142985373D01*
X138241611Y-143200725D01*
X138523398Y-143316997D01*
X139600395Y-142240000D01*
X139959605Y-142240000D01*
X141036602Y-143316997D01*
X141318389Y-143200725D01*
X141476257Y-142882140D01*
X141568938Y-142538878D01*
X141585333Y-142295869D01*
X142967127Y-142295869D01*
X143012861Y-142648470D01*
X143126505Y-142985373D01*
X143241611Y-143200725D01*
X143523398Y-143316997D01*
X144600395Y-142240000D01*
X144959605Y-142240000D01*
X146036602Y-143316997D01*
X146318389Y-143200725D01*
X146476257Y-142882140D01*
X146568938Y-142538878D01*
X146592873Y-142184131D01*
X146577061Y-142062223D01*
X147975000Y-142062223D01*
X147975000Y-142417777D01*
X148044365Y-142766499D01*
X148180429Y-143094988D01*
X148377965Y-143390621D01*
X148629379Y-143642035D01*
X148925012Y-143839571D01*
X149253501Y-143975635D01*
X149602223Y-144045000D01*
X149957777Y-144045000D01*
X150306499Y-143975635D01*
X150634988Y-143839571D01*
X150930621Y-143642035D01*
X151182035Y-143390621D01*
X151379571Y-143094988D01*
X151515635Y-142766499D01*
X151585000Y-142417777D01*
X151585000Y-142062223D01*
X151523615Y-141753620D01*
X158524826Y-134752410D01*
X158688665Y-134785000D01*
X158971335Y-134785000D01*
X159248574Y-134729853D01*
X159509727Y-134621680D01*
X159744759Y-134464637D01*
X159944637Y-134264759D01*
X160101680Y-134029727D01*
X160209853Y-133768574D01*
X160265000Y-133491335D01*
X160265000Y-133208665D01*
X160258956Y-133178279D01*
X162554321Y-130882914D01*
X165039850Y-130882914D01*
X164001720Y-131921044D01*
X163971335Y-131915000D01*
X163688665Y-131915000D01*
X163411426Y-131970147D01*
X163150273Y-132078320D01*
X162915241Y-132235363D01*
X162715363Y-132435241D01*
X162558320Y-132670273D01*
X162450147Y-132931426D01*
X162395000Y-133208665D01*
X162395000Y-133491335D01*
X162450147Y-133768574D01*
X162558320Y-134029727D01*
X162715363Y-134264759D01*
X162915241Y-134464637D01*
X162941000Y-134481849D01*
X162941001Y-140846330D01*
X162936700Y-140890000D01*
X162953864Y-141064274D01*
X163004698Y-141231852D01*
X163086564Y-141385012D01*
X163087248Y-141386291D01*
X163198342Y-141521659D01*
X163232259Y-141549494D01*
X163436385Y-141753620D01*
X163375000Y-142062223D01*
X163375000Y-142417777D01*
X163444365Y-142766499D01*
X163580429Y-143094988D01*
X163777965Y-143390621D01*
X164029379Y-143642035D01*
X164325012Y-143839571D01*
X164653501Y-143975635D01*
X165002223Y-144045000D01*
X165357777Y-144045000D01*
X165706499Y-143975635D01*
X166034988Y-143839571D01*
X166330621Y-143642035D01*
X166582035Y-143390621D01*
X166779571Y-143094988D01*
X166915635Y-142766499D01*
X166985000Y-142417777D01*
X166985000Y-142062223D01*
X166915635Y-141713501D01*
X166779571Y-141385012D01*
X166582035Y-141089379D01*
X166330621Y-140837965D01*
X166034988Y-140640429D01*
X165706499Y-140504365D01*
X165357777Y-140435000D01*
X165002223Y-140435000D01*
X164719000Y-140491336D01*
X164719000Y-134481849D01*
X164744759Y-134464637D01*
X164866694Y-134342702D01*
X168096903Y-134342702D01*
X168168486Y-134586671D01*
X168423996Y-134707571D01*
X168698184Y-134776300D01*
X168980512Y-134790217D01*
X169260130Y-134748787D01*
X169526292Y-134653603D01*
X169651514Y-134586671D01*
X169723097Y-134342702D01*
X168910000Y-133529605D01*
X168096903Y-134342702D01*
X164866694Y-134342702D01*
X164944637Y-134264759D01*
X165101680Y-134029727D01*
X165209853Y-133768574D01*
X165265000Y-133491335D01*
X165265000Y-133420512D01*
X167469783Y-133420512D01*
X167511213Y-133700130D01*
X167606397Y-133966292D01*
X167673329Y-134091514D01*
X167917298Y-134163097D01*
X168730395Y-133350000D01*
X169089605Y-133350000D01*
X169902702Y-134163097D01*
X170146671Y-134091514D01*
X170267571Y-133836004D01*
X170336300Y-133561816D01*
X170350217Y-133279488D01*
X170308787Y-132999870D01*
X170213603Y-132733708D01*
X170146671Y-132608486D01*
X169902702Y-132536903D01*
X169089605Y-133350000D01*
X168730395Y-133350000D01*
X167917298Y-132536903D01*
X167673329Y-132608486D01*
X167552429Y-132863996D01*
X167483700Y-133138184D01*
X167469783Y-133420512D01*
X165265000Y-133420512D01*
X165265000Y-133208665D01*
X165258956Y-133178280D01*
X166349625Y-132087611D01*
X168216601Y-132087611D01*
X168168486Y-132113329D01*
X168096903Y-132357298D01*
X168910000Y-133170395D01*
X169723097Y-132357298D01*
X169651514Y-132113329D01*
X169597162Y-132087611D01*
X173216368Y-132087611D01*
X172995241Y-132235363D01*
X172795363Y-132435241D01*
X172638320Y-132670273D01*
X172530147Y-132931426D01*
X172475000Y-133208665D01*
X172475000Y-133491335D01*
X172530147Y-133768574D01*
X172638320Y-134029727D01*
X172795363Y-134264759D01*
X172995241Y-134464637D01*
X173021000Y-134481849D01*
X173021001Y-138141763D01*
X170666380Y-140496385D01*
X170357777Y-140435000D01*
X170002223Y-140435000D01*
X169653501Y-140504365D01*
X169325012Y-140640429D01*
X169029379Y-140837965D01*
X168777965Y-141089379D01*
X168580429Y-141385012D01*
X168444365Y-141713501D01*
X168375000Y-142062223D01*
X168375000Y-142417777D01*
X168444365Y-142766499D01*
X168580429Y-143094988D01*
X168777965Y-143390621D01*
X169029379Y-143642035D01*
X169325012Y-143839571D01*
X169653501Y-143975635D01*
X170002223Y-144045000D01*
X170357777Y-144045000D01*
X170706499Y-143975635D01*
X171034988Y-143839571D01*
X171330621Y-143642035D01*
X171582035Y-143390621D01*
X171779571Y-143094988D01*
X171915635Y-142766499D01*
X171985000Y-142417777D01*
X171985000Y-142062223D01*
X173375000Y-142062223D01*
X173375000Y-142417777D01*
X173444365Y-142766499D01*
X173580429Y-143094988D01*
X173777965Y-143390621D01*
X174029379Y-143642035D01*
X174325012Y-143839571D01*
X174653501Y-143975635D01*
X175002223Y-144045000D01*
X175357777Y-144045000D01*
X175706499Y-143975635D01*
X176034988Y-143839571D01*
X176330621Y-143642035D01*
X176582035Y-143390621D01*
X176779571Y-143094988D01*
X176915635Y-142766499D01*
X176985000Y-142417777D01*
X176985000Y-142062223D01*
X176915635Y-141713501D01*
X176779571Y-141385012D01*
X176582035Y-141089379D01*
X176330621Y-140837965D01*
X176034988Y-140640429D01*
X175706499Y-140504365D01*
X175357777Y-140435000D01*
X175002223Y-140435000D01*
X174653501Y-140504365D01*
X174325012Y-140640429D01*
X174029379Y-140837965D01*
X173777965Y-141089379D01*
X173580429Y-141385012D01*
X173444365Y-141713501D01*
X173375000Y-142062223D01*
X171985000Y-142062223D01*
X171923615Y-141753620D01*
X174278236Y-139399000D01*
X186481765Y-139399000D01*
X188836385Y-141753620D01*
X188775000Y-142062223D01*
X188775000Y-142417777D01*
X188844365Y-142766499D01*
X188980429Y-143094988D01*
X189177965Y-143390621D01*
X189429379Y-143642035D01*
X189725012Y-143839571D01*
X190053501Y-143975635D01*
X190402223Y-144045000D01*
X190757777Y-144045000D01*
X191106499Y-143975635D01*
X191434988Y-143839571D01*
X191730621Y-143642035D01*
X191982035Y-143390621D01*
X192179571Y-143094988D01*
X192315635Y-142766499D01*
X192385000Y-142417777D01*
X192385000Y-142062223D01*
X192315635Y-141713501D01*
X192179571Y-141385012D01*
X191982035Y-141089379D01*
X191730621Y-140837965D01*
X191434988Y-140640429D01*
X191106499Y-140504365D01*
X190757777Y-140435000D01*
X190402223Y-140435000D01*
X190093620Y-140496385D01*
X187509499Y-137912264D01*
X187481659Y-137878341D01*
X187346291Y-137767247D01*
X187191851Y-137684697D01*
X187024274Y-137633864D01*
X186893667Y-137621000D01*
X186893660Y-137621000D01*
X186850000Y-137616700D01*
X186806340Y-137621000D01*
X174799000Y-137621000D01*
X174799000Y-134481849D01*
X174824759Y-134464637D01*
X175024637Y-134264759D01*
X175181680Y-134029727D01*
X175289853Y-133768574D01*
X175345000Y-133491335D01*
X175345000Y-133208665D01*
X175289853Y-132931426D01*
X175181680Y-132670273D01*
X175024637Y-132435241D01*
X174824759Y-132235363D01*
X174603632Y-132087611D01*
X179907729Y-132087611D01*
X179951389Y-132091911D01*
X179995049Y-132087611D01*
X179995056Y-132087611D01*
X180125663Y-132074747D01*
X180175000Y-132059781D01*
X180175000Y-132221335D01*
X180230147Y-132498574D01*
X180338320Y-132759727D01*
X180495363Y-132994759D01*
X180695241Y-133194637D01*
X180927759Y-133350000D01*
X180695241Y-133505363D01*
X180495363Y-133705241D01*
X180338320Y-133940273D01*
X180230147Y-134201426D01*
X180175000Y-134478665D01*
X180175000Y-134761335D01*
X180230147Y-135038574D01*
X180338320Y-135299727D01*
X180495363Y-135534759D01*
X180695241Y-135734637D01*
X180930273Y-135891680D01*
X181191426Y-135999853D01*
X181468665Y-136055000D01*
X181751335Y-136055000D01*
X182028574Y-135999853D01*
X182289727Y-135891680D01*
X182524759Y-135734637D01*
X182724637Y-135534759D01*
X182881680Y-135299727D01*
X182989853Y-135038574D01*
X183045000Y-134761335D01*
X183045000Y-134478665D01*
X182989853Y-134201426D01*
X182881680Y-133940273D01*
X182724637Y-133705241D01*
X182524759Y-133505363D01*
X182292241Y-133350000D01*
X182524759Y-133194637D01*
X182724637Y-132994759D01*
X182881680Y-132759727D01*
X182989853Y-132498574D01*
X183045000Y-132221335D01*
X183045000Y-131938665D01*
X182994145Y-131683001D01*
X187845855Y-131683001D01*
X187795000Y-131938665D01*
X187795000Y-132221335D01*
X187850147Y-132498574D01*
X187958320Y-132759727D01*
X188115363Y-132994759D01*
X188313961Y-133193357D01*
X188305518Y-133194188D01*
X188185820Y-133230498D01*
X188075506Y-133289463D01*
X187978815Y-133368815D01*
X187899463Y-133465506D01*
X187840498Y-133575820D01*
X187804188Y-133695518D01*
X187791928Y-133820000D01*
X187791928Y-135420000D01*
X187804188Y-135544482D01*
X187840498Y-135664180D01*
X187899463Y-135774494D01*
X187978815Y-135871185D01*
X188075506Y-135950537D01*
X188185820Y-136009502D01*
X188305518Y-136045812D01*
X188430000Y-136058072D01*
X190030000Y-136058072D01*
X190154482Y-136045812D01*
X190274180Y-136009502D01*
X190384494Y-135950537D01*
X190481185Y-135871185D01*
X190560537Y-135774494D01*
X190619502Y-135664180D01*
X190655812Y-135544482D01*
X190668072Y-135420000D01*
X190668072Y-134775308D01*
X192380506Y-136487742D01*
X192408341Y-136521659D01*
X192543709Y-136632753D01*
X192698149Y-136715303D01*
X192814892Y-136750716D01*
X192865725Y-136766136D01*
X192882325Y-136767771D01*
X192996333Y-136779000D01*
X192996340Y-136779000D01*
X193040000Y-136783300D01*
X193083660Y-136779000D01*
X197231001Y-136779000D01*
X197231000Y-139331764D01*
X196066380Y-140496385D01*
X195757777Y-140435000D01*
X195402223Y-140435000D01*
X195053501Y-140504365D01*
X194725012Y-140640429D01*
X194429379Y-140837965D01*
X194177965Y-141089379D01*
X193980429Y-141385012D01*
X193844365Y-141713501D01*
X193775000Y-142062223D01*
X193775000Y-142417777D01*
X193844365Y-142766499D01*
X193980429Y-143094988D01*
X194177965Y-143390621D01*
X194429379Y-143642035D01*
X194725012Y-143839571D01*
X195053501Y-143975635D01*
X195402223Y-144045000D01*
X195757777Y-144045000D01*
X196106499Y-143975635D01*
X196434988Y-143839571D01*
X196730621Y-143642035D01*
X196982035Y-143390621D01*
X197179571Y-143094988D01*
X197315635Y-142766499D01*
X197385000Y-142417777D01*
X197385000Y-142062223D01*
X198775000Y-142062223D01*
X198775000Y-142417777D01*
X198844365Y-142766499D01*
X198980429Y-143094988D01*
X199177965Y-143390621D01*
X199429379Y-143642035D01*
X199725012Y-143839571D01*
X200053501Y-143975635D01*
X200402223Y-144045000D01*
X200757777Y-144045000D01*
X201106499Y-143975635D01*
X201434988Y-143839571D01*
X201730621Y-143642035D01*
X201876054Y-143496602D01*
X214903003Y-143496602D01*
X215019275Y-143778389D01*
X215337860Y-143936257D01*
X215681122Y-144028938D01*
X216035869Y-144052873D01*
X216388470Y-144007139D01*
X216725373Y-143893495D01*
X216940725Y-143778389D01*
X217056997Y-143496602D01*
X215980000Y-142419605D01*
X214903003Y-143496602D01*
X201876054Y-143496602D01*
X201982035Y-143390621D01*
X202179571Y-143094988D01*
X202315635Y-142766499D01*
X202385000Y-142417777D01*
X202385000Y-142295869D01*
X214167127Y-142295869D01*
X214212861Y-142648470D01*
X214326505Y-142985373D01*
X214441611Y-143200725D01*
X214723398Y-143316997D01*
X215800395Y-142240000D01*
X216159605Y-142240000D01*
X217236602Y-143316997D01*
X217518389Y-143200725D01*
X217676257Y-142882140D01*
X217768938Y-142538878D01*
X217792873Y-142184131D01*
X217747139Y-141831530D01*
X217633495Y-141494627D01*
X217518389Y-141279275D01*
X217236602Y-141163003D01*
X216159605Y-142240000D01*
X215800395Y-142240000D01*
X214723398Y-141163003D01*
X214441611Y-141279275D01*
X214283743Y-141597860D01*
X214191062Y-141941122D01*
X214167127Y-142295869D01*
X202385000Y-142295869D01*
X202385000Y-142062223D01*
X202315635Y-141713501D01*
X202179571Y-141385012D01*
X201982035Y-141089379D01*
X201876054Y-140983398D01*
X214903003Y-140983398D01*
X215980000Y-142060395D01*
X217056997Y-140983398D01*
X216940725Y-140701611D01*
X216622140Y-140543743D01*
X216278878Y-140451062D01*
X215924131Y-140427127D01*
X215571530Y-140472861D01*
X215234627Y-140586505D01*
X215019275Y-140701611D01*
X214903003Y-140983398D01*
X201876054Y-140983398D01*
X201730621Y-140837965D01*
X201434988Y-140640429D01*
X201106499Y-140504365D01*
X200757777Y-140435000D01*
X200402223Y-140435000D01*
X200053501Y-140504365D01*
X199725012Y-140640429D01*
X199429379Y-140837965D01*
X199177965Y-141089379D01*
X198980429Y-141385012D01*
X198844365Y-141713501D01*
X198775000Y-142062223D01*
X197385000Y-142062223D01*
X197323615Y-141753620D01*
X198717743Y-140359493D01*
X198751659Y-140331659D01*
X198862753Y-140196291D01*
X198945303Y-140041851D01*
X198965296Y-139975942D01*
X198996136Y-139874276D01*
X198999406Y-139841076D01*
X199009000Y-139743667D01*
X199009000Y-139743661D01*
X199013300Y-139700001D01*
X199009000Y-139656341D01*
X199009000Y-135933666D01*
X199013301Y-135890000D01*
X199009000Y-135846333D01*
X199009000Y-133208665D01*
X199225000Y-133208665D01*
X199225000Y-133491335D01*
X199280147Y-133768574D01*
X199388320Y-134029727D01*
X199545363Y-134264759D01*
X199745241Y-134464637D01*
X199980273Y-134621680D01*
X200241426Y-134729853D01*
X200518665Y-134785000D01*
X200801335Y-134785000D01*
X200831721Y-134778956D01*
X203810504Y-137757740D01*
X203838341Y-137791659D01*
X203973709Y-137902753D01*
X204128149Y-137985303D01*
X204221793Y-138013709D01*
X204295725Y-138036136D01*
X204312325Y-138037771D01*
X204426333Y-138049000D01*
X204426340Y-138049000D01*
X204470000Y-138053300D01*
X204513660Y-138049000D01*
X215531765Y-138049000D01*
X219236385Y-141753621D01*
X219175000Y-142062223D01*
X219175000Y-142417777D01*
X219244365Y-142766499D01*
X219380429Y-143094988D01*
X219577965Y-143390621D01*
X219829379Y-143642035D01*
X220125012Y-143839571D01*
X220453501Y-143975635D01*
X220802223Y-144045000D01*
X221157777Y-144045000D01*
X221506499Y-143975635D01*
X221834988Y-143839571D01*
X222130621Y-143642035D01*
X222382035Y-143390621D01*
X222579571Y-143094988D01*
X222715635Y-142766499D01*
X222785000Y-142417777D01*
X222785000Y-142062223D01*
X222715635Y-141713501D01*
X222579571Y-141385012D01*
X222382035Y-141089379D01*
X222130621Y-140837965D01*
X221834988Y-140640429D01*
X221506499Y-140504365D01*
X221157777Y-140435000D01*
X220802223Y-140435000D01*
X220493621Y-140496385D01*
X216559499Y-136562264D01*
X216531659Y-136528341D01*
X216396291Y-136417247D01*
X216241851Y-136334697D01*
X216074274Y-136283864D01*
X215943667Y-136271000D01*
X215943660Y-136271000D01*
X215900000Y-136266700D01*
X215856340Y-136271000D01*
X204838236Y-136271000D01*
X202088956Y-133521721D01*
X202095000Y-133491335D01*
X202095000Y-133208665D01*
X202039853Y-132931426D01*
X201931680Y-132670273D01*
X201774637Y-132435241D01*
X201574759Y-132235363D01*
X201339727Y-132078320D01*
X201078574Y-131970147D01*
X200801335Y-131915000D01*
X200518665Y-131915000D01*
X200241426Y-131970147D01*
X199980273Y-132078320D01*
X199745241Y-132235363D01*
X199545363Y-132435241D01*
X199388320Y-132670273D01*
X199280147Y-132931426D01*
X199225000Y-133208665D01*
X199009000Y-133208665D01*
X199009000Y-131699000D01*
X204101765Y-131699000D01*
X205675000Y-133272236D01*
X205675000Y-133481486D01*
X205726304Y-133739405D01*
X205826939Y-133982359D01*
X205973038Y-134201013D01*
X206158987Y-134386962D01*
X206377641Y-134533061D01*
X206620595Y-134633696D01*
X206878514Y-134685000D01*
X207141486Y-134685000D01*
X207399405Y-134633696D01*
X207642359Y-134533061D01*
X207861013Y-134386962D01*
X208046962Y-134201013D01*
X208193061Y-133982359D01*
X208293696Y-133739405D01*
X208345000Y-133481486D01*
X208345000Y-133218514D01*
X208293696Y-132960595D01*
X208193061Y-132717641D01*
X208046962Y-132498987D01*
X207861013Y-132313038D01*
X207642359Y-132166939D01*
X207399405Y-132066304D01*
X207141486Y-132015000D01*
X206932236Y-132015000D01*
X205129499Y-130212264D01*
X205101659Y-130178341D01*
X204966291Y-130067247D01*
X204811851Y-129984697D01*
X204644274Y-129933864D01*
X204513667Y-129921000D01*
X204513660Y-129921000D01*
X204470000Y-129916700D01*
X204426340Y-129921000D01*
X199009000Y-129921000D01*
X199009000Y-129321849D01*
X199034759Y-129304637D01*
X199234637Y-129104759D01*
X199391680Y-128869727D01*
X199499853Y-128608574D01*
X199500896Y-128603329D01*
X200637284Y-128603329D01*
X200669953Y-128711044D01*
X200780208Y-128948392D01*
X200934649Y-129159670D01*
X201127340Y-129336759D01*
X201350877Y-129472853D01*
X201596670Y-129562722D01*
X201803000Y-129440201D01*
X201803000Y-128397000D01*
X202057000Y-128397000D01*
X202057000Y-129440201D01*
X202263330Y-129562722D01*
X202509123Y-129472853D01*
X202732660Y-129336759D01*
X202925351Y-129159670D01*
X203079792Y-128948392D01*
X203190047Y-128711044D01*
X203222716Y-128603329D01*
X203099374Y-128397000D01*
X202057000Y-128397000D01*
X201803000Y-128397000D01*
X200760626Y-128397000D01*
X200637284Y-128603329D01*
X199500896Y-128603329D01*
X199555000Y-128331335D01*
X199555000Y-128048665D01*
X199532723Y-127936671D01*
X200637284Y-127936671D01*
X200760626Y-128143000D01*
X201803000Y-128143000D01*
X201803000Y-127099799D01*
X202057000Y-127099799D01*
X202057000Y-128143000D01*
X203099374Y-128143000D01*
X203222716Y-127936671D01*
X203190047Y-127828956D01*
X203079792Y-127591608D01*
X202925351Y-127380330D01*
X202732660Y-127203241D01*
X202509123Y-127067147D01*
X202263330Y-126977278D01*
X202057000Y-127099799D01*
X201803000Y-127099799D01*
X201596670Y-126977278D01*
X201350877Y-127067147D01*
X201127340Y-127203241D01*
X200934649Y-127380330D01*
X200780208Y-127591608D01*
X200669953Y-127828956D01*
X200637284Y-127936671D01*
X199532723Y-127936671D01*
X199499853Y-127771426D01*
X199391680Y-127510273D01*
X199234637Y-127275241D01*
X199034759Y-127075363D01*
X198799727Y-126918320D01*
X198538574Y-126810147D01*
X198261335Y-126755000D01*
X197978665Y-126755000D01*
X197701426Y-126810147D01*
X197440273Y-126918320D01*
X197205241Y-127075363D01*
X197005363Y-127275241D01*
X196848320Y-127510273D01*
X196740147Y-127771426D01*
X196685000Y-128048665D01*
X196685000Y-128331335D01*
X196740147Y-128608574D01*
X196848320Y-128869727D01*
X197005363Y-129104759D01*
X197205241Y-129304637D01*
X197231001Y-129321849D01*
X197231000Y-130766332D01*
X197226699Y-130810000D01*
X197231001Y-130853677D01*
X197231000Y-135001000D01*
X193408236Y-135001000D01*
X190658956Y-132251721D01*
X190665000Y-132221335D01*
X190665000Y-131938665D01*
X190614145Y-131683001D01*
X192735766Y-131683001D01*
X194231044Y-133178280D01*
X194225000Y-133208665D01*
X194225000Y-133491335D01*
X194280147Y-133768574D01*
X194388320Y-134029727D01*
X194545363Y-134264759D01*
X194745241Y-134464637D01*
X194980273Y-134621680D01*
X195241426Y-134729853D01*
X195518665Y-134785000D01*
X195801335Y-134785000D01*
X196078574Y-134729853D01*
X196339727Y-134621680D01*
X196574759Y-134464637D01*
X196774637Y-134264759D01*
X196931680Y-134029727D01*
X197039853Y-133768574D01*
X197095000Y-133491335D01*
X197095000Y-133208665D01*
X197039853Y-132931426D01*
X196931680Y-132670273D01*
X196774637Y-132435241D01*
X196574759Y-132235363D01*
X196339727Y-132078320D01*
X196078574Y-131970147D01*
X195801335Y-131915000D01*
X195518665Y-131915000D01*
X195488280Y-131921044D01*
X193763500Y-130196265D01*
X193735660Y-130162342D01*
X193600292Y-130051248D01*
X193445852Y-129968698D01*
X193278275Y-129917865D01*
X193147668Y-129905001D01*
X193147661Y-129905001D01*
X193104001Y-129900701D01*
X193060341Y-129905001D01*
X190617063Y-129905001D01*
X190621904Y-129889039D01*
X190499915Y-129667000D01*
X189357000Y-129667000D01*
X189357000Y-129687000D01*
X189103000Y-129687000D01*
X189103000Y-129667000D01*
X187960085Y-129667000D01*
X187838096Y-129889039D01*
X187842937Y-129905001D01*
X183232237Y-129905001D01*
X183038956Y-129711720D01*
X183045000Y-129681335D01*
X183045000Y-129398665D01*
X182994145Y-129143001D01*
X187852643Y-129143001D01*
X187838096Y-129190961D01*
X187960085Y-129413000D01*
X189103000Y-129413000D01*
X189103000Y-129393000D01*
X189357000Y-129393000D01*
X189357000Y-129413000D01*
X190499915Y-129413000D01*
X190621904Y-129190961D01*
X190607357Y-129143001D01*
X193012339Y-129143001D01*
X193055999Y-129147301D01*
X193099659Y-129143001D01*
X193099666Y-129143001D01*
X193230273Y-129130137D01*
X193397850Y-129079304D01*
X193552290Y-128996754D01*
X193687658Y-128885660D01*
X193715498Y-128851737D01*
X197948280Y-124618956D01*
X197978665Y-124625000D01*
X198261335Y-124625000D01*
X198538574Y-124569853D01*
X198799727Y-124461680D01*
X199034759Y-124304637D01*
X199234637Y-124104759D01*
X199391680Y-123869727D01*
X199499853Y-123608574D01*
X199555000Y-123331335D01*
X199555000Y-123048665D01*
X199500564Y-122774999D01*
X200257764Y-122774999D01*
X200595000Y-123112235D01*
X200595000Y-123321486D01*
X200646304Y-123579405D01*
X200746939Y-123822359D01*
X200893038Y-124041013D01*
X201078987Y-124226962D01*
X201297641Y-124373061D01*
X201540595Y-124473696D01*
X201798514Y-124525000D01*
X202061486Y-124525000D01*
X202319405Y-124473696D01*
X202562359Y-124373061D01*
X202781013Y-124226962D01*
X202966962Y-124041013D01*
X203113061Y-123822359D01*
X203213696Y-123579405D01*
X203265000Y-123321486D01*
X203265000Y-123058514D01*
X203213696Y-122800595D01*
X203113061Y-122557641D01*
X202966962Y-122338987D01*
X202781013Y-122153038D01*
X202652231Y-122066989D01*
X206287769Y-122066989D01*
X206158987Y-122153038D01*
X205973038Y-122338987D01*
X205826939Y-122557641D01*
X205726304Y-122800595D01*
X205675000Y-123058514D01*
X205675000Y-123321486D01*
X205726304Y-123579405D01*
X205826939Y-123822359D01*
X205973038Y-124041013D01*
X206121001Y-124188976D01*
X206121000Y-125686332D01*
X206116699Y-125730000D01*
X206121001Y-125773677D01*
X206121000Y-127271025D01*
X205973038Y-127418987D01*
X205826939Y-127637641D01*
X205726304Y-127880595D01*
X205675000Y-128138514D01*
X205675000Y-128401486D01*
X205726304Y-128659405D01*
X205826939Y-128902359D01*
X205973038Y-129121013D01*
X206158987Y-129306962D01*
X206377641Y-129453061D01*
X206620595Y-129553696D01*
X206878514Y-129605000D01*
X207141486Y-129605000D01*
X207399405Y-129553696D01*
X207642359Y-129453061D01*
X207861013Y-129306962D01*
X208046962Y-129121013D01*
X208193061Y-128902359D01*
X208293696Y-128659405D01*
X208345000Y-128401486D01*
X208345000Y-128138514D01*
X208293696Y-127880595D01*
X208193061Y-127637641D01*
X208046962Y-127418987D01*
X207899000Y-127271025D01*
X207899000Y-126619000D01*
X210768379Y-126619000D01*
X210721785Y-126772600D01*
X210699388Y-127000000D01*
X210721785Y-127227400D01*
X210788115Y-127446060D01*
X210895829Y-127647579D01*
X211040788Y-127824212D01*
X211201000Y-127955695D01*
X211201001Y-132351024D01*
X211053038Y-132498987D01*
X210906939Y-132717641D01*
X210806304Y-132960595D01*
X210755000Y-133218514D01*
X210755000Y-133481486D01*
X210806304Y-133739405D01*
X210906939Y-133982359D01*
X211053038Y-134201013D01*
X211238987Y-134386962D01*
X211457641Y-134533061D01*
X211700595Y-134633696D01*
X211958514Y-134685000D01*
X212221486Y-134685000D01*
X212479405Y-134633696D01*
X212722359Y-134533061D01*
X212941013Y-134386962D01*
X213088975Y-134239000D01*
X215343017Y-134239000D01*
X215381525Y-134296632D01*
X215588368Y-134503475D01*
X215831589Y-134665990D01*
X216101842Y-134777932D01*
X216388740Y-134835000D01*
X216681260Y-134835000D01*
X216968158Y-134777932D01*
X217238411Y-134665990D01*
X217481632Y-134503475D01*
X217613487Y-134371620D01*
X217635498Y-134444180D01*
X217694463Y-134554494D01*
X217773815Y-134651185D01*
X217870506Y-134730537D01*
X217980820Y-134789502D01*
X218100518Y-134825812D01*
X218225000Y-134838072D01*
X218789250Y-134835000D01*
X218948000Y-134676250D01*
X218948000Y-133477000D01*
X219202000Y-133477000D01*
X219202000Y-134676250D01*
X219360750Y-134835000D01*
X219925000Y-134838072D01*
X220049482Y-134825812D01*
X220169180Y-134789502D01*
X220279494Y-134730537D01*
X220376185Y-134651185D01*
X220455537Y-134554494D01*
X220514502Y-134444180D01*
X220550812Y-134324482D01*
X220563072Y-134200000D01*
X220560000Y-133635750D01*
X220401250Y-133477000D01*
X219202000Y-133477000D01*
X218948000Y-133477000D01*
X218928000Y-133477000D01*
X218928000Y-133223000D01*
X218948000Y-133223000D01*
X218948000Y-132023750D01*
X219202000Y-132023750D01*
X219202000Y-133223000D01*
X220401250Y-133223000D01*
X220560000Y-133064250D01*
X220563072Y-132500000D01*
X220550812Y-132375518D01*
X220514502Y-132255820D01*
X220455537Y-132145506D01*
X220376185Y-132048815D01*
X220279494Y-131969463D01*
X220169180Y-131910498D01*
X220049482Y-131874188D01*
X219925000Y-131861928D01*
X219360750Y-131865000D01*
X219202000Y-132023750D01*
X218948000Y-132023750D01*
X218789250Y-131865000D01*
X218225000Y-131861928D01*
X218100518Y-131874188D01*
X217980820Y-131910498D01*
X217870506Y-131969463D01*
X217773815Y-132048815D01*
X217694463Y-132145506D01*
X217635498Y-132255820D01*
X217613487Y-132328380D01*
X217481632Y-132196525D01*
X217238411Y-132034010D01*
X216968158Y-131922068D01*
X216681260Y-131865000D01*
X216388740Y-131865000D01*
X216101842Y-131922068D01*
X215831589Y-132034010D01*
X215588368Y-132196525D01*
X215381525Y-132403368D01*
X215343017Y-132461000D01*
X213088975Y-132461000D01*
X212979000Y-132351025D01*
X212979000Y-127955695D01*
X213139212Y-127824212D01*
X213284171Y-127647579D01*
X213391885Y-127446060D01*
X213458215Y-127227400D01*
X213480612Y-127000000D01*
X213458215Y-126772600D01*
X213391885Y-126553940D01*
X213290895Y-126365000D01*
X213391885Y-126176060D01*
X213458215Y-125957400D01*
X213480612Y-125730000D01*
X213458215Y-125502600D01*
X213394907Y-125293902D01*
X213429502Y-125229180D01*
X213465812Y-125109482D01*
X213475552Y-125010585D01*
X225091001Y-136626034D01*
X225091000Y-140663155D01*
X224829379Y-140837965D01*
X224577965Y-141089379D01*
X224380429Y-141385012D01*
X224244365Y-141713501D01*
X224175000Y-142062223D01*
X224175000Y-142417777D01*
X224244365Y-142766499D01*
X224380429Y-143094988D01*
X224577965Y-143390621D01*
X224829379Y-143642035D01*
X225125012Y-143839571D01*
X225453501Y-143975635D01*
X225802223Y-144045000D01*
X226157777Y-144045000D01*
X226506499Y-143975635D01*
X226834988Y-143839571D01*
X227130621Y-143642035D01*
X227382035Y-143390621D01*
X227579571Y-143094988D01*
X227715635Y-142766499D01*
X227785000Y-142417777D01*
X227785000Y-142062223D01*
X227715635Y-141713501D01*
X227579571Y-141385012D01*
X227382035Y-141089379D01*
X227130621Y-140837965D01*
X226869000Y-140663155D01*
X226869000Y-136301457D01*
X226873300Y-136257797D01*
X226869000Y-136214137D01*
X226869000Y-136214131D01*
X226856136Y-136083524D01*
X226856136Y-136083522D01*
X226825296Y-135981856D01*
X226805303Y-135915947D01*
X226722753Y-135761507D01*
X226611659Y-135626139D01*
X226577736Y-135598299D01*
X211559690Y-120580253D01*
X211531850Y-120546330D01*
X211396482Y-120435236D01*
X211242042Y-120352686D01*
X211074465Y-120301853D01*
X210943858Y-120288989D01*
X210943851Y-120288989D01*
X210900191Y-120284689D01*
X210856531Y-120288989D01*
X182395670Y-120288989D01*
X182352010Y-120284689D01*
X182308350Y-120288989D01*
X182308344Y-120288989D01*
X182210935Y-120298583D01*
X182177735Y-120301853D01*
X182076069Y-120332693D01*
X182010160Y-120352686D01*
X181855720Y-120435236D01*
X181720352Y-120546330D01*
X181692512Y-120580253D01*
X180554242Y-121718523D01*
X180486260Y-121705000D01*
X180193740Y-121705000D01*
X179906842Y-121762068D01*
X179636589Y-121874010D01*
X179393368Y-122036525D01*
X179186525Y-122243368D01*
X179070000Y-122417760D01*
X178953475Y-122243368D01*
X178746632Y-122036525D01*
X178503411Y-121874010D01*
X178233158Y-121762068D01*
X177946260Y-121705000D01*
X177653740Y-121705000D01*
X177366842Y-121762068D01*
X177096589Y-121874010D01*
X176853368Y-122036525D01*
X176646525Y-122243368D01*
X176524805Y-122425534D01*
X176455178Y-122308645D01*
X176260269Y-122092412D01*
X176026920Y-121918359D01*
X175764099Y-121793175D01*
X175616890Y-121748524D01*
X175387000Y-121869845D01*
X175387000Y-123063000D01*
X175407000Y-123063000D01*
X175407000Y-123317000D01*
X175387000Y-123317000D01*
X175387000Y-123337000D01*
X175133000Y-123337000D01*
X175133000Y-123317000D01*
X175113000Y-123317000D01*
X175113000Y-123063000D01*
X175133000Y-123063000D01*
X175133000Y-121869845D01*
X174903110Y-121748524D01*
X174755901Y-121793175D01*
X174493080Y-121918359D01*
X174259731Y-122092412D01*
X174183966Y-122176466D01*
X174159502Y-122095820D01*
X174100537Y-121985506D01*
X174021185Y-121888815D01*
X173924494Y-121809463D01*
X173814180Y-121750498D01*
X173694482Y-121714188D01*
X173570000Y-121701928D01*
X171870000Y-121701928D01*
X171745518Y-121714188D01*
X171625820Y-121750498D01*
X171515506Y-121809463D01*
X171418815Y-121888815D01*
X171339463Y-121985506D01*
X171306593Y-122047000D01*
X153726138Y-122047000D01*
X153669999Y-122041471D01*
X153613860Y-122047000D01*
X153613854Y-122047000D01*
X153479093Y-122060273D01*
X153445932Y-122063539D01*
X153380574Y-122083365D01*
X153230477Y-122128897D01*
X153031911Y-122235032D01*
X152857867Y-122377867D01*
X152822077Y-122421477D01*
X152221627Y-123021928D01*
X151600000Y-123021928D01*
X151475518Y-123034188D01*
X151355820Y-123070498D01*
X151245506Y-123129463D01*
X151148815Y-123208815D01*
X151069463Y-123305506D01*
X151010498Y-123415820D01*
X150974188Y-123535518D01*
X150961928Y-123660000D01*
X150961928Y-125260000D01*
X150974188Y-125384482D01*
X151010498Y-125504180D01*
X151069463Y-125614494D01*
X151148815Y-125711185D01*
X151245506Y-125790537D01*
X151355820Y-125849502D01*
X151475518Y-125885812D01*
X151600000Y-125898072D01*
X153200000Y-125898072D01*
X153324482Y-125885812D01*
X153444180Y-125849502D01*
X153554494Y-125790537D01*
X153651185Y-125711185D01*
X153730537Y-125614494D01*
X153754319Y-125570000D01*
X163661928Y-125570000D01*
X163674188Y-125694482D01*
X163710498Y-125814180D01*
X163769463Y-125924494D01*
X163848815Y-126021185D01*
X163945506Y-126100537D01*
X164055820Y-126159502D01*
X164175518Y-126195812D01*
X164300000Y-126208072D01*
X164814250Y-126205000D01*
X164973000Y-126046250D01*
X164973000Y-124897000D01*
X165227000Y-124897000D01*
X165227000Y-126046250D01*
X165385750Y-126205000D01*
X165900000Y-126208072D01*
X166024482Y-126195812D01*
X166144180Y-126159502D01*
X166254494Y-126100537D01*
X166351185Y-126021185D01*
X166430537Y-125924494D01*
X166489502Y-125814180D01*
X166525812Y-125694482D01*
X166538072Y-125570000D01*
X166535000Y-125055750D01*
X166376250Y-124897000D01*
X165227000Y-124897000D01*
X164973000Y-124897000D01*
X163823750Y-124897000D01*
X163665000Y-125055750D01*
X163661928Y-125570000D01*
X153754319Y-125570000D01*
X153789502Y-125504180D01*
X153825812Y-125384482D01*
X153838072Y-125260000D01*
X153838072Y-124638373D01*
X154143446Y-124333000D01*
X163664096Y-124333000D01*
X163665000Y-124484250D01*
X163823750Y-124643000D01*
X164973000Y-124643000D01*
X164973000Y-124623000D01*
X165227000Y-124623000D01*
X165227000Y-124643000D01*
X166376250Y-124643000D01*
X166535000Y-124484250D01*
X166535904Y-124333000D01*
X171306593Y-124333000D01*
X171339463Y-124394494D01*
X171418815Y-124491185D01*
X171515506Y-124570537D01*
X171625820Y-124629502D01*
X171745518Y-124665812D01*
X171870000Y-124678072D01*
X173570000Y-124678072D01*
X173694482Y-124665812D01*
X173814180Y-124629502D01*
X173924494Y-124570537D01*
X174021185Y-124491185D01*
X174100537Y-124394494D01*
X174159502Y-124284180D01*
X174183966Y-124203534D01*
X174259731Y-124287588D01*
X174493080Y-124461641D01*
X174755901Y-124586825D01*
X174779555Y-124594000D01*
X172246555Y-127127000D01*
X165972311Y-127127000D01*
X165779727Y-126998320D01*
X165518574Y-126890147D01*
X165241335Y-126835000D01*
X164958665Y-126835000D01*
X164681426Y-126890147D01*
X164420273Y-126998320D01*
X164185241Y-127155363D01*
X163985363Y-127355241D01*
X163828320Y-127590273D01*
X163720147Y-127851426D01*
X163665000Y-128128665D01*
X163665000Y-128411335D01*
X163720147Y-128688574D01*
X163828320Y-128949727D01*
X163932012Y-129104914D01*
X162229745Y-129104914D01*
X162186085Y-129100614D01*
X162142425Y-129104914D01*
X162142419Y-129104914D01*
X162045010Y-129114508D01*
X162011810Y-129117778D01*
X161928661Y-129143001D01*
X161844235Y-129168611D01*
X161689795Y-129251161D01*
X161554427Y-129362255D01*
X161526587Y-129396178D01*
X159001721Y-131921044D01*
X158971335Y-131915000D01*
X158688665Y-131915000D01*
X158411426Y-131970147D01*
X158150273Y-132078320D01*
X157915241Y-132235363D01*
X157715363Y-132435241D01*
X157558320Y-132670273D01*
X157450147Y-132931426D01*
X157395000Y-133208665D01*
X157395000Y-133367764D01*
X150266380Y-140496385D01*
X149957777Y-140435000D01*
X149602223Y-140435000D01*
X149253501Y-140504365D01*
X148925012Y-140640429D01*
X148629379Y-140837965D01*
X148377965Y-141089379D01*
X148180429Y-141385012D01*
X148044365Y-141713501D01*
X147975000Y-142062223D01*
X146577061Y-142062223D01*
X146547139Y-141831530D01*
X146433495Y-141494627D01*
X146318389Y-141279275D01*
X146036602Y-141163003D01*
X144959605Y-142240000D01*
X144600395Y-142240000D01*
X143523398Y-141163003D01*
X143241611Y-141279275D01*
X143083743Y-141597860D01*
X142991062Y-141941122D01*
X142967127Y-142295869D01*
X141585333Y-142295869D01*
X141592873Y-142184131D01*
X141547139Y-141831530D01*
X141433495Y-141494627D01*
X141318389Y-141279275D01*
X141036602Y-141163003D01*
X139959605Y-142240000D01*
X139600395Y-142240000D01*
X138523398Y-141163003D01*
X138241611Y-141279275D01*
X138083743Y-141597860D01*
X137991062Y-141941122D01*
X137967127Y-142295869D01*
X136550000Y-142295869D01*
X136550000Y-140983398D01*
X138703003Y-140983398D01*
X139780000Y-142060395D01*
X140856997Y-140983398D01*
X143703003Y-140983398D01*
X144780000Y-142060395D01*
X145856997Y-140983398D01*
X145740725Y-140701611D01*
X145422140Y-140543743D01*
X145078878Y-140451062D01*
X144724131Y-140427127D01*
X144371530Y-140472861D01*
X144034627Y-140586505D01*
X143819275Y-140701611D01*
X143703003Y-140983398D01*
X140856997Y-140983398D01*
X140740725Y-140701611D01*
X140422140Y-140543743D01*
X140078878Y-140451062D01*
X139724131Y-140427127D01*
X139371530Y-140472861D01*
X139034627Y-140586505D01*
X138819275Y-140701611D01*
X138703003Y-140983398D01*
X136550000Y-140983398D01*
X136550000Y-128952702D01*
X151586903Y-128952702D01*
X151658486Y-129196671D01*
X151913996Y-129317571D01*
X152188184Y-129386300D01*
X152470512Y-129400217D01*
X152750130Y-129358787D01*
X153016292Y-129263603D01*
X153141514Y-129196671D01*
X153213097Y-128952702D01*
X152400000Y-128139605D01*
X151586903Y-128952702D01*
X136550000Y-128952702D01*
X136550000Y-128030512D01*
X150959783Y-128030512D01*
X151001213Y-128310130D01*
X151096397Y-128576292D01*
X151163329Y-128701514D01*
X151407298Y-128773097D01*
X152220395Y-127960000D01*
X152579605Y-127960000D01*
X153392702Y-128773097D01*
X153636671Y-128701514D01*
X153757571Y-128446004D01*
X153826300Y-128171816D01*
X153840217Y-127889488D01*
X153798787Y-127609870D01*
X153703603Y-127343708D01*
X153636671Y-127218486D01*
X153392702Y-127146903D01*
X152579605Y-127960000D01*
X152220395Y-127960000D01*
X151407298Y-127146903D01*
X151163329Y-127218486D01*
X151042429Y-127473996D01*
X150973700Y-127748184D01*
X150959783Y-128030512D01*
X136550000Y-128030512D01*
X136550000Y-126967298D01*
X151586903Y-126967298D01*
X152400000Y-127780395D01*
X153213097Y-126967298D01*
X153141514Y-126723329D01*
X152886004Y-126602429D01*
X152611816Y-126533700D01*
X152329488Y-126519783D01*
X152049870Y-126561213D01*
X151783708Y-126656397D01*
X151658486Y-126723329D01*
X151586903Y-126967298D01*
X136550000Y-126967298D01*
X136550000Y-120040000D01*
X229210000Y-120040000D01*
X229210001Y-144120000D01*
G36*
X211764705Y-123299738D02*
G01*
X211340000Y-123296928D01*
X211215518Y-123309188D01*
X211095820Y-123345498D01*
X210985506Y-123404463D01*
X210888815Y-123483815D01*
X210809463Y-123580506D01*
X210750498Y-123690820D01*
X210714188Y-123810518D01*
X210701928Y-123935000D01*
X210705000Y-124174250D01*
X210863750Y-124333000D01*
X211963000Y-124333000D01*
X211963000Y-124313000D01*
X212217000Y-124313000D01*
X212217000Y-124333000D01*
X212237000Y-124333000D01*
X212237000Y-124570000D01*
X211808021Y-124570000D01*
X211637600Y-124586785D01*
X211636891Y-124587000D01*
X210863750Y-124587000D01*
X210705000Y-124745750D01*
X210703777Y-124841000D01*
X207899000Y-124841000D01*
X207899000Y-124188975D01*
X208046962Y-124041013D01*
X208193061Y-123822359D01*
X208293696Y-123579405D01*
X208345000Y-123321486D01*
X208345000Y-123058514D01*
X208293696Y-122800595D01*
X208193061Y-122557641D01*
X208046962Y-122338987D01*
X207861013Y-122153038D01*
X207732231Y-122066989D01*
X210531956Y-122066989D01*
X211764705Y-123299738D01*
G37*
X211764705Y-123299738D02*
X211340000Y-123296928D01*
X211215518Y-123309188D01*
X211095820Y-123345498D01*
X210985506Y-123404463D01*
X210888815Y-123483815D01*
X210809463Y-123580506D01*
X210750498Y-123690820D01*
X210714188Y-123810518D01*
X210701928Y-123935000D01*
X210705000Y-124174250D01*
X210863750Y-124333000D01*
X211963000Y-124333000D01*
X211963000Y-124313000D01*
X212217000Y-124313000D01*
X212217000Y-124333000D01*
X212237000Y-124333000D01*
X212237000Y-124570000D01*
X211808021Y-124570000D01*
X211637600Y-124586785D01*
X211636891Y-124587000D01*
X210863750Y-124587000D01*
X210705000Y-124745750D01*
X210703777Y-124841000D01*
X207899000Y-124841000D01*
X207899000Y-124188975D01*
X208046962Y-124041013D01*
X208193061Y-123822359D01*
X208293696Y-123579405D01*
X208345000Y-123321486D01*
X208345000Y-123058514D01*
X208293696Y-122800595D01*
X208193061Y-122557641D01*
X208046962Y-122338987D01*
X207861013Y-122153038D01*
X207732231Y-122066989D01*
X210531956Y-122066989D01*
X211764705Y-123299738D01*
%TD*%
M02*
