%TF.GenerationSoftware,KiCad,Pcbnew,(5.1.6)-1*%
%TF.CreationDate,2020-12-16T20:36:01-05:00*%
%TF.ProjectId,SummingAmp,53756d6d-696e-4674-916d-702e6b696361,rev?*%
%TF.SameCoordinates,Original*%
%TF.FileFunction,Copper,L2,Bot*%
%TF.FilePolarity,Positive*%
%FSLAX46Y46*%
G04 Gerber Fmt 4.6, Leading zero omitted, Abs format (unit mm)*
G04 Created by KiCad (PCBNEW (5.1.6)-1) date 2020-12-16 20:36:01*
%MOMM*%
%LPD*%
G01*
G04 APERTURE LIST*
%TA.AperFunction,ComponentPad*%
%ADD10O,1.400000X1.400000*%
%TD*%
%TA.AperFunction,ComponentPad*%
%ADD11C,1.400000*%
%TD*%
%TA.AperFunction,ComponentPad*%
%ADD12C,1.600000*%
%TD*%
%TA.AperFunction,ComponentPad*%
%ADD13O,1.600000X2.400000*%
%TD*%
%TA.AperFunction,ComponentPad*%
%ADD14R,1.600000X2.400000*%
%TD*%
%TA.AperFunction,ComponentPad*%
%ADD15C,2.340000*%
%TD*%
%TA.AperFunction,ComponentPad*%
%ADD16O,1.700000X1.700000*%
%TD*%
%TA.AperFunction,ComponentPad*%
%ADD17R,1.700000X1.700000*%
%TD*%
%TA.AperFunction,Conductor*%
%ADD18C,0.508000*%
%TD*%
%TA.AperFunction,Conductor*%
%ADD19C,0.254000*%
%TD*%
G04 APERTURE END LIST*
D10*
%TO.P,R21,2*%
%TO.N,Net-(J4-Pad3)*%
X87630000Y-123190000D03*
D11*
%TO.P,R21,1*%
%TO.N,/OUT*%
X82550000Y-123190000D03*
%TD*%
D12*
%TO.P,C3,2*%
%TO.N,-15V*%
X66595000Y-127635000D03*
%TO.P,C3,1*%
%TO.N,GND*%
X61595000Y-127635000D03*
%TD*%
%TO.P,C2,2*%
%TO.N,GND*%
X69215000Y-125095000D03*
%TO.P,C2,1*%
%TO.N,+15V*%
X69215000Y-120095000D03*
%TD*%
D13*
%TO.P,U1,8*%
%TO.N,Net-(U1-Pad8)*%
X57785000Y-116840000D03*
%TO.P,U1,4*%
%TO.N,-15V*%
X65405000Y-124460000D03*
%TO.P,U1,7*%
%TO.N,+15V*%
X60325000Y-116840000D03*
%TO.P,U1,3*%
%TO.N,GND*%
X62865000Y-124460000D03*
%TO.P,U1,6*%
%TO.N,/OUT*%
X62865000Y-116840000D03*
%TO.P,U1,2*%
%TO.N,Net-(J2-Pad2)*%
X60325000Y-124460000D03*
%TO.P,U1,5*%
%TO.N,Net-(U1-Pad5)*%
X65405000Y-116840000D03*
D14*
%TO.P,U1,1*%
%TO.N,Net-(U1-Pad1)*%
X57785000Y-124460000D03*
%TD*%
D15*
%TO.P,RV1,1*%
%TO.N,Net-(J2-Pad2)*%
X82470000Y-116840000D03*
%TO.P,RV1,2*%
%TO.N,Net-(J4-Pad2)*%
X77470000Y-116840000D03*
%TO.P,RV1,3*%
%TO.N,Net-(RV1-Pad3)*%
X72470000Y-116840000D03*
%TD*%
D10*
%TO.P,R20,2*%
%TO.N,Net-(J1-Pad20)*%
X101600000Y-135890000D03*
D11*
%TO.P,R20,1*%
%TO.N,Net-(C1-Pad1)*%
X101600000Y-130810000D03*
%TD*%
D10*
%TO.P,R19,2*%
%TO.N,Net-(J1-Pad19)*%
X99060000Y-135890000D03*
D11*
%TO.P,R19,1*%
%TO.N,Net-(C1-Pad1)*%
X99060000Y-130810000D03*
%TD*%
D10*
%TO.P,R18,2*%
%TO.N,Net-(J1-Pad18)*%
X96520000Y-135890000D03*
D11*
%TO.P,R18,1*%
%TO.N,Net-(C1-Pad1)*%
X96520000Y-130810000D03*
%TD*%
D10*
%TO.P,R17,2*%
%TO.N,Net-(J1-Pad17)*%
X93980000Y-135890000D03*
D11*
%TO.P,R17,1*%
%TO.N,Net-(C1-Pad1)*%
X93980000Y-130810000D03*
%TD*%
D10*
%TO.P,R16,2*%
%TO.N,Net-(J1-Pad16)*%
X91440000Y-135890000D03*
D11*
%TO.P,R16,1*%
%TO.N,Net-(C1-Pad1)*%
X91440000Y-130810000D03*
%TD*%
D10*
%TO.P,R15,2*%
%TO.N,Net-(J1-Pad15)*%
X88900000Y-135890000D03*
D11*
%TO.P,R15,1*%
%TO.N,Net-(C1-Pad1)*%
X88900000Y-130810000D03*
%TD*%
D10*
%TO.P,R14,2*%
%TO.N,Net-(J1-Pad14)*%
X86360000Y-135890000D03*
D11*
%TO.P,R14,1*%
%TO.N,Net-(C1-Pad1)*%
X86360000Y-130810000D03*
%TD*%
D10*
%TO.P,R13,2*%
%TO.N,Net-(J1-Pad13)*%
X83820000Y-135890000D03*
D11*
%TO.P,R13,1*%
%TO.N,Net-(C1-Pad1)*%
X83820000Y-130810000D03*
%TD*%
D10*
%TO.P,R12,2*%
%TO.N,Net-(J1-Pad12)*%
X81280000Y-135890000D03*
D11*
%TO.P,R12,1*%
%TO.N,Net-(C1-Pad1)*%
X81280000Y-130810000D03*
%TD*%
D10*
%TO.P,R11,2*%
%TO.N,Net-(J1-Pad11)*%
X78740000Y-135890000D03*
D11*
%TO.P,R11,1*%
%TO.N,Net-(C1-Pad1)*%
X78740000Y-130810000D03*
%TD*%
D10*
%TO.P,R10,2*%
%TO.N,Net-(J1-Pad10)*%
X76200000Y-135890000D03*
D11*
%TO.P,R10,1*%
%TO.N,Net-(C1-Pad1)*%
X76200000Y-130810000D03*
%TD*%
D10*
%TO.P,R9,2*%
%TO.N,Net-(J1-Pad9)*%
X73660000Y-135890000D03*
D11*
%TO.P,R9,1*%
%TO.N,Net-(C1-Pad1)*%
X73660000Y-130810000D03*
%TD*%
D10*
%TO.P,R8,2*%
%TO.N,Net-(J1-Pad8)*%
X71120000Y-135890000D03*
D11*
%TO.P,R8,1*%
%TO.N,Net-(C1-Pad1)*%
X71120000Y-130810000D03*
%TD*%
D10*
%TO.P,R7,2*%
%TO.N,Net-(J1-Pad7)*%
X68580000Y-135890000D03*
D11*
%TO.P,R7,1*%
%TO.N,Net-(C1-Pad1)*%
X68580000Y-130810000D03*
%TD*%
D10*
%TO.P,R6,2*%
%TO.N,Net-(J1-Pad6)*%
X66040000Y-135890000D03*
D11*
%TO.P,R6,1*%
%TO.N,Net-(C1-Pad1)*%
X66040000Y-130810000D03*
%TD*%
D10*
%TO.P,R5,2*%
%TO.N,Net-(J1-Pad5)*%
X63500000Y-135890000D03*
D11*
%TO.P,R5,1*%
%TO.N,Net-(C1-Pad1)*%
X63500000Y-130810000D03*
%TD*%
D10*
%TO.P,R4,2*%
%TO.N,Net-(J1-Pad4)*%
X60960000Y-135890000D03*
D11*
%TO.P,R4,1*%
%TO.N,Net-(C1-Pad1)*%
X60960000Y-130810000D03*
%TD*%
D10*
%TO.P,R3,2*%
%TO.N,Net-(J1-Pad3)*%
X58420000Y-135890000D03*
D11*
%TO.P,R3,1*%
%TO.N,Net-(C1-Pad1)*%
X58420000Y-130810000D03*
%TD*%
D10*
%TO.P,R2,2*%
%TO.N,Net-(J1-Pad2)*%
X55880000Y-135890000D03*
D11*
%TO.P,R2,1*%
%TO.N,Net-(C1-Pad1)*%
X55880000Y-130810000D03*
%TD*%
D10*
%TO.P,R1,2*%
%TO.N,Net-(J1-Pad1)*%
X53340000Y-135890000D03*
D11*
%TO.P,R1,1*%
%TO.N,Net-(C1-Pad1)*%
X53340000Y-130810000D03*
%TD*%
D16*
%TO.P,J4,3*%
%TO.N,Net-(J4-Pad3)*%
X90805000Y-120650000D03*
%TO.P,J4,2*%
%TO.N,Net-(J4-Pad2)*%
X90805000Y-123190000D03*
D17*
%TO.P,J4,1*%
%TO.N,Net-(C5-Pad2)*%
X90805000Y-125730000D03*
%TD*%
D16*
%TO.P,J3,4*%
%TO.N,/OUT*%
X53340000Y-124460000D03*
%TO.P,J3,3*%
%TO.N,-15V*%
X53340000Y-121920000D03*
%TO.P,J3,2*%
%TO.N,GND*%
X53340000Y-119380000D03*
D17*
%TO.P,J3,1*%
%TO.N,+15V*%
X53340000Y-116840000D03*
%TD*%
D16*
%TO.P,J2,3*%
%TO.N,Net-(C1-Pad2)*%
X101600000Y-120650000D03*
%TO.P,J2,2*%
%TO.N,Net-(J2-Pad2)*%
X101600000Y-123190000D03*
D17*
%TO.P,J2,1*%
%TO.N,Net-(C1-Pad1)*%
X101600000Y-125730000D03*
%TD*%
D16*
%TO.P,J1,20*%
%TO.N,Net-(J1-Pad20)*%
X101600000Y-139065000D03*
%TO.P,J1,19*%
%TO.N,Net-(J1-Pad19)*%
X99060000Y-139065000D03*
%TO.P,J1,18*%
%TO.N,Net-(J1-Pad18)*%
X96520000Y-139065000D03*
%TO.P,J1,17*%
%TO.N,Net-(J1-Pad17)*%
X93980000Y-139065000D03*
%TO.P,J1,16*%
%TO.N,Net-(J1-Pad16)*%
X91440000Y-139065000D03*
%TO.P,J1,15*%
%TO.N,Net-(J1-Pad15)*%
X88900000Y-139065000D03*
%TO.P,J1,14*%
%TO.N,Net-(J1-Pad14)*%
X86360000Y-139065000D03*
%TO.P,J1,13*%
%TO.N,Net-(J1-Pad13)*%
X83820000Y-139065000D03*
%TO.P,J1,12*%
%TO.N,Net-(J1-Pad12)*%
X81280000Y-139065000D03*
%TO.P,J1,11*%
%TO.N,Net-(J1-Pad11)*%
X78740000Y-139065000D03*
%TO.P,J1,10*%
%TO.N,Net-(J1-Pad10)*%
X76200000Y-139065000D03*
%TO.P,J1,9*%
%TO.N,Net-(J1-Pad9)*%
X73660000Y-139065000D03*
%TO.P,J1,8*%
%TO.N,Net-(J1-Pad8)*%
X71120000Y-139065000D03*
%TO.P,J1,7*%
%TO.N,Net-(J1-Pad7)*%
X68580000Y-139065000D03*
%TO.P,J1,6*%
%TO.N,Net-(J1-Pad6)*%
X66040000Y-139065000D03*
%TO.P,J1,5*%
%TO.N,Net-(J1-Pad5)*%
X63500000Y-139065000D03*
%TO.P,J1,4*%
%TO.N,Net-(J1-Pad4)*%
X60960000Y-139065000D03*
%TO.P,J1,3*%
%TO.N,Net-(J1-Pad3)*%
X58420000Y-139065000D03*
%TO.P,J1,2*%
%TO.N,Net-(J1-Pad2)*%
X55880000Y-139065000D03*
D17*
%TO.P,J1,1*%
%TO.N,Net-(J1-Pad1)*%
X53340000Y-139065000D03*
%TD*%
D12*
%TO.P,C5,2*%
%TO.N,Net-(C5-Pad2)*%
X87550000Y-125730000D03*
%TO.P,C5,1*%
%TO.N,/OUT*%
X82550000Y-125730000D03*
%TD*%
%TO.P,C1,2*%
%TO.N,Net-(C1-Pad2)*%
X97155000Y-120650000D03*
%TO.P,C1,1*%
%TO.N,Net-(C1-Pad1)*%
X97155000Y-125650000D03*
%TD*%
D18*
%TO.N,+15V*%
X63580000Y-120095000D02*
X69215000Y-120095000D01*
X60325000Y-116840000D02*
X63580000Y-120095000D01*
%TD*%
D19*
%TO.N,GND*%
G36*
X103480000Y-140945000D02*
G01*
X51460000Y-140945000D01*
X51460000Y-138215000D01*
X51851928Y-138215000D01*
X51851928Y-139915000D01*
X51864188Y-140039482D01*
X51900498Y-140159180D01*
X51959463Y-140269494D01*
X52038815Y-140366185D01*
X52135506Y-140445537D01*
X52245820Y-140504502D01*
X52365518Y-140540812D01*
X52490000Y-140553072D01*
X54190000Y-140553072D01*
X54314482Y-140540812D01*
X54434180Y-140504502D01*
X54544494Y-140445537D01*
X54641185Y-140366185D01*
X54720537Y-140269494D01*
X54779502Y-140159180D01*
X54801513Y-140086620D01*
X54933368Y-140218475D01*
X55176589Y-140380990D01*
X55446842Y-140492932D01*
X55733740Y-140550000D01*
X56026260Y-140550000D01*
X56313158Y-140492932D01*
X56583411Y-140380990D01*
X56826632Y-140218475D01*
X57033475Y-140011632D01*
X57150000Y-139837240D01*
X57266525Y-140011632D01*
X57473368Y-140218475D01*
X57716589Y-140380990D01*
X57986842Y-140492932D01*
X58273740Y-140550000D01*
X58566260Y-140550000D01*
X58853158Y-140492932D01*
X59123411Y-140380990D01*
X59366632Y-140218475D01*
X59573475Y-140011632D01*
X59690000Y-139837240D01*
X59806525Y-140011632D01*
X60013368Y-140218475D01*
X60256589Y-140380990D01*
X60526842Y-140492932D01*
X60813740Y-140550000D01*
X61106260Y-140550000D01*
X61393158Y-140492932D01*
X61663411Y-140380990D01*
X61906632Y-140218475D01*
X62113475Y-140011632D01*
X62230000Y-139837240D01*
X62346525Y-140011632D01*
X62553368Y-140218475D01*
X62796589Y-140380990D01*
X63066842Y-140492932D01*
X63353740Y-140550000D01*
X63646260Y-140550000D01*
X63933158Y-140492932D01*
X64203411Y-140380990D01*
X64446632Y-140218475D01*
X64653475Y-140011632D01*
X64770000Y-139837240D01*
X64886525Y-140011632D01*
X65093368Y-140218475D01*
X65336589Y-140380990D01*
X65606842Y-140492932D01*
X65893740Y-140550000D01*
X66186260Y-140550000D01*
X66473158Y-140492932D01*
X66743411Y-140380990D01*
X66986632Y-140218475D01*
X67193475Y-140011632D01*
X67310000Y-139837240D01*
X67426525Y-140011632D01*
X67633368Y-140218475D01*
X67876589Y-140380990D01*
X68146842Y-140492932D01*
X68433740Y-140550000D01*
X68726260Y-140550000D01*
X69013158Y-140492932D01*
X69283411Y-140380990D01*
X69526632Y-140218475D01*
X69733475Y-140011632D01*
X69850000Y-139837240D01*
X69966525Y-140011632D01*
X70173368Y-140218475D01*
X70416589Y-140380990D01*
X70686842Y-140492932D01*
X70973740Y-140550000D01*
X71266260Y-140550000D01*
X71553158Y-140492932D01*
X71823411Y-140380990D01*
X72066632Y-140218475D01*
X72273475Y-140011632D01*
X72390000Y-139837240D01*
X72506525Y-140011632D01*
X72713368Y-140218475D01*
X72956589Y-140380990D01*
X73226842Y-140492932D01*
X73513740Y-140550000D01*
X73806260Y-140550000D01*
X74093158Y-140492932D01*
X74363411Y-140380990D01*
X74606632Y-140218475D01*
X74813475Y-140011632D01*
X74930000Y-139837240D01*
X75046525Y-140011632D01*
X75253368Y-140218475D01*
X75496589Y-140380990D01*
X75766842Y-140492932D01*
X76053740Y-140550000D01*
X76346260Y-140550000D01*
X76633158Y-140492932D01*
X76903411Y-140380990D01*
X77146632Y-140218475D01*
X77353475Y-140011632D01*
X77470000Y-139837240D01*
X77586525Y-140011632D01*
X77793368Y-140218475D01*
X78036589Y-140380990D01*
X78306842Y-140492932D01*
X78593740Y-140550000D01*
X78886260Y-140550000D01*
X79173158Y-140492932D01*
X79443411Y-140380990D01*
X79686632Y-140218475D01*
X79893475Y-140011632D01*
X80010000Y-139837240D01*
X80126525Y-140011632D01*
X80333368Y-140218475D01*
X80576589Y-140380990D01*
X80846842Y-140492932D01*
X81133740Y-140550000D01*
X81426260Y-140550000D01*
X81713158Y-140492932D01*
X81983411Y-140380990D01*
X82226632Y-140218475D01*
X82433475Y-140011632D01*
X82550000Y-139837240D01*
X82666525Y-140011632D01*
X82873368Y-140218475D01*
X83116589Y-140380990D01*
X83386842Y-140492932D01*
X83673740Y-140550000D01*
X83966260Y-140550000D01*
X84253158Y-140492932D01*
X84523411Y-140380990D01*
X84766632Y-140218475D01*
X84973475Y-140011632D01*
X85090000Y-139837240D01*
X85206525Y-140011632D01*
X85413368Y-140218475D01*
X85656589Y-140380990D01*
X85926842Y-140492932D01*
X86213740Y-140550000D01*
X86506260Y-140550000D01*
X86793158Y-140492932D01*
X87063411Y-140380990D01*
X87306632Y-140218475D01*
X87513475Y-140011632D01*
X87630000Y-139837240D01*
X87746525Y-140011632D01*
X87953368Y-140218475D01*
X88196589Y-140380990D01*
X88466842Y-140492932D01*
X88753740Y-140550000D01*
X89046260Y-140550000D01*
X89333158Y-140492932D01*
X89603411Y-140380990D01*
X89846632Y-140218475D01*
X90053475Y-140011632D01*
X90170000Y-139837240D01*
X90286525Y-140011632D01*
X90493368Y-140218475D01*
X90736589Y-140380990D01*
X91006842Y-140492932D01*
X91293740Y-140550000D01*
X91586260Y-140550000D01*
X91873158Y-140492932D01*
X92143411Y-140380990D01*
X92386632Y-140218475D01*
X92593475Y-140011632D01*
X92710000Y-139837240D01*
X92826525Y-140011632D01*
X93033368Y-140218475D01*
X93276589Y-140380990D01*
X93546842Y-140492932D01*
X93833740Y-140550000D01*
X94126260Y-140550000D01*
X94413158Y-140492932D01*
X94683411Y-140380990D01*
X94926632Y-140218475D01*
X95133475Y-140011632D01*
X95250000Y-139837240D01*
X95366525Y-140011632D01*
X95573368Y-140218475D01*
X95816589Y-140380990D01*
X96086842Y-140492932D01*
X96373740Y-140550000D01*
X96666260Y-140550000D01*
X96953158Y-140492932D01*
X97223411Y-140380990D01*
X97466632Y-140218475D01*
X97673475Y-140011632D01*
X97790000Y-139837240D01*
X97906525Y-140011632D01*
X98113368Y-140218475D01*
X98356589Y-140380990D01*
X98626842Y-140492932D01*
X98913740Y-140550000D01*
X99206260Y-140550000D01*
X99493158Y-140492932D01*
X99763411Y-140380990D01*
X100006632Y-140218475D01*
X100213475Y-140011632D01*
X100330000Y-139837240D01*
X100446525Y-140011632D01*
X100653368Y-140218475D01*
X100896589Y-140380990D01*
X101166842Y-140492932D01*
X101453740Y-140550000D01*
X101746260Y-140550000D01*
X102033158Y-140492932D01*
X102303411Y-140380990D01*
X102546632Y-140218475D01*
X102753475Y-140011632D01*
X102915990Y-139768411D01*
X103027932Y-139498158D01*
X103085000Y-139211260D01*
X103085000Y-138918740D01*
X103027932Y-138631842D01*
X102915990Y-138361589D01*
X102753475Y-138118368D01*
X102546632Y-137911525D01*
X102303411Y-137749010D01*
X102033158Y-137637068D01*
X101746260Y-137580000D01*
X101453740Y-137580000D01*
X101166842Y-137637068D01*
X100896589Y-137749010D01*
X100653368Y-137911525D01*
X100446525Y-138118368D01*
X100330000Y-138292760D01*
X100213475Y-138118368D01*
X100006632Y-137911525D01*
X99763411Y-137749010D01*
X99493158Y-137637068D01*
X99206260Y-137580000D01*
X98913740Y-137580000D01*
X98626842Y-137637068D01*
X98356589Y-137749010D01*
X98113368Y-137911525D01*
X97906525Y-138118368D01*
X97790000Y-138292760D01*
X97673475Y-138118368D01*
X97466632Y-137911525D01*
X97223411Y-137749010D01*
X96953158Y-137637068D01*
X96666260Y-137580000D01*
X96373740Y-137580000D01*
X96086842Y-137637068D01*
X95816589Y-137749010D01*
X95573368Y-137911525D01*
X95366525Y-138118368D01*
X95250000Y-138292760D01*
X95133475Y-138118368D01*
X94926632Y-137911525D01*
X94683411Y-137749010D01*
X94413158Y-137637068D01*
X94126260Y-137580000D01*
X93833740Y-137580000D01*
X93546842Y-137637068D01*
X93276589Y-137749010D01*
X93033368Y-137911525D01*
X92826525Y-138118368D01*
X92710000Y-138292760D01*
X92593475Y-138118368D01*
X92386632Y-137911525D01*
X92143411Y-137749010D01*
X91873158Y-137637068D01*
X91586260Y-137580000D01*
X91293740Y-137580000D01*
X91006842Y-137637068D01*
X90736589Y-137749010D01*
X90493368Y-137911525D01*
X90286525Y-138118368D01*
X90170000Y-138292760D01*
X90053475Y-138118368D01*
X89846632Y-137911525D01*
X89603411Y-137749010D01*
X89333158Y-137637068D01*
X89046260Y-137580000D01*
X88753740Y-137580000D01*
X88466842Y-137637068D01*
X88196589Y-137749010D01*
X87953368Y-137911525D01*
X87746525Y-138118368D01*
X87630000Y-138292760D01*
X87513475Y-138118368D01*
X87306632Y-137911525D01*
X87063411Y-137749010D01*
X86793158Y-137637068D01*
X86506260Y-137580000D01*
X86213740Y-137580000D01*
X85926842Y-137637068D01*
X85656589Y-137749010D01*
X85413368Y-137911525D01*
X85206525Y-138118368D01*
X85090000Y-138292760D01*
X84973475Y-138118368D01*
X84766632Y-137911525D01*
X84523411Y-137749010D01*
X84253158Y-137637068D01*
X83966260Y-137580000D01*
X83673740Y-137580000D01*
X83386842Y-137637068D01*
X83116589Y-137749010D01*
X82873368Y-137911525D01*
X82666525Y-138118368D01*
X82550000Y-138292760D01*
X82433475Y-138118368D01*
X82226632Y-137911525D01*
X81983411Y-137749010D01*
X81713158Y-137637068D01*
X81426260Y-137580000D01*
X81133740Y-137580000D01*
X80846842Y-137637068D01*
X80576589Y-137749010D01*
X80333368Y-137911525D01*
X80126525Y-138118368D01*
X80010000Y-138292760D01*
X79893475Y-138118368D01*
X79686632Y-137911525D01*
X79443411Y-137749010D01*
X79173158Y-137637068D01*
X78886260Y-137580000D01*
X78593740Y-137580000D01*
X78306842Y-137637068D01*
X78036589Y-137749010D01*
X77793368Y-137911525D01*
X77586525Y-138118368D01*
X77470000Y-138292760D01*
X77353475Y-138118368D01*
X77146632Y-137911525D01*
X76903411Y-137749010D01*
X76633158Y-137637068D01*
X76346260Y-137580000D01*
X76053740Y-137580000D01*
X75766842Y-137637068D01*
X75496589Y-137749010D01*
X75253368Y-137911525D01*
X75046525Y-138118368D01*
X74930000Y-138292760D01*
X74813475Y-138118368D01*
X74606632Y-137911525D01*
X74363411Y-137749010D01*
X74093158Y-137637068D01*
X73806260Y-137580000D01*
X73513740Y-137580000D01*
X73226842Y-137637068D01*
X72956589Y-137749010D01*
X72713368Y-137911525D01*
X72506525Y-138118368D01*
X72390000Y-138292760D01*
X72273475Y-138118368D01*
X72066632Y-137911525D01*
X71823411Y-137749010D01*
X71553158Y-137637068D01*
X71266260Y-137580000D01*
X70973740Y-137580000D01*
X70686842Y-137637068D01*
X70416589Y-137749010D01*
X70173368Y-137911525D01*
X69966525Y-138118368D01*
X69850000Y-138292760D01*
X69733475Y-138118368D01*
X69526632Y-137911525D01*
X69283411Y-137749010D01*
X69013158Y-137637068D01*
X68726260Y-137580000D01*
X68433740Y-137580000D01*
X68146842Y-137637068D01*
X67876589Y-137749010D01*
X67633368Y-137911525D01*
X67426525Y-138118368D01*
X67310000Y-138292760D01*
X67193475Y-138118368D01*
X66986632Y-137911525D01*
X66743411Y-137749010D01*
X66473158Y-137637068D01*
X66186260Y-137580000D01*
X65893740Y-137580000D01*
X65606842Y-137637068D01*
X65336589Y-137749010D01*
X65093368Y-137911525D01*
X64886525Y-138118368D01*
X64770000Y-138292760D01*
X64653475Y-138118368D01*
X64446632Y-137911525D01*
X64203411Y-137749010D01*
X63933158Y-137637068D01*
X63646260Y-137580000D01*
X63353740Y-137580000D01*
X63066842Y-137637068D01*
X62796589Y-137749010D01*
X62553368Y-137911525D01*
X62346525Y-138118368D01*
X62230000Y-138292760D01*
X62113475Y-138118368D01*
X61906632Y-137911525D01*
X61663411Y-137749010D01*
X61393158Y-137637068D01*
X61106260Y-137580000D01*
X60813740Y-137580000D01*
X60526842Y-137637068D01*
X60256589Y-137749010D01*
X60013368Y-137911525D01*
X59806525Y-138118368D01*
X59690000Y-138292760D01*
X59573475Y-138118368D01*
X59366632Y-137911525D01*
X59123411Y-137749010D01*
X58853158Y-137637068D01*
X58566260Y-137580000D01*
X58273740Y-137580000D01*
X57986842Y-137637068D01*
X57716589Y-137749010D01*
X57473368Y-137911525D01*
X57266525Y-138118368D01*
X57150000Y-138292760D01*
X57033475Y-138118368D01*
X56826632Y-137911525D01*
X56583411Y-137749010D01*
X56313158Y-137637068D01*
X56026260Y-137580000D01*
X55733740Y-137580000D01*
X55446842Y-137637068D01*
X55176589Y-137749010D01*
X54933368Y-137911525D01*
X54801513Y-138043380D01*
X54779502Y-137970820D01*
X54720537Y-137860506D01*
X54641185Y-137763815D01*
X54544494Y-137684463D01*
X54434180Y-137625498D01*
X54314482Y-137589188D01*
X54190000Y-137576928D01*
X52490000Y-137576928D01*
X52365518Y-137589188D01*
X52245820Y-137625498D01*
X52135506Y-137684463D01*
X52038815Y-137763815D01*
X51959463Y-137860506D01*
X51900498Y-137970820D01*
X51864188Y-138090518D01*
X51851928Y-138215000D01*
X51460000Y-138215000D01*
X51460000Y-135758514D01*
X52005000Y-135758514D01*
X52005000Y-136021486D01*
X52056304Y-136279405D01*
X52156939Y-136522359D01*
X52303038Y-136741013D01*
X52488987Y-136926962D01*
X52707641Y-137073061D01*
X52950595Y-137173696D01*
X53208514Y-137225000D01*
X53471486Y-137225000D01*
X53729405Y-137173696D01*
X53972359Y-137073061D01*
X54191013Y-136926962D01*
X54376962Y-136741013D01*
X54523061Y-136522359D01*
X54610000Y-136312470D01*
X54696939Y-136522359D01*
X54843038Y-136741013D01*
X55028987Y-136926962D01*
X55247641Y-137073061D01*
X55490595Y-137173696D01*
X55748514Y-137225000D01*
X56011486Y-137225000D01*
X56269405Y-137173696D01*
X56512359Y-137073061D01*
X56731013Y-136926962D01*
X56916962Y-136741013D01*
X57063061Y-136522359D01*
X57150000Y-136312470D01*
X57236939Y-136522359D01*
X57383038Y-136741013D01*
X57568987Y-136926962D01*
X57787641Y-137073061D01*
X58030595Y-137173696D01*
X58288514Y-137225000D01*
X58551486Y-137225000D01*
X58809405Y-137173696D01*
X59052359Y-137073061D01*
X59271013Y-136926962D01*
X59456962Y-136741013D01*
X59603061Y-136522359D01*
X59690000Y-136312470D01*
X59776939Y-136522359D01*
X59923038Y-136741013D01*
X60108987Y-136926962D01*
X60327641Y-137073061D01*
X60570595Y-137173696D01*
X60828514Y-137225000D01*
X61091486Y-137225000D01*
X61349405Y-137173696D01*
X61592359Y-137073061D01*
X61811013Y-136926962D01*
X61996962Y-136741013D01*
X62143061Y-136522359D01*
X62230000Y-136312470D01*
X62316939Y-136522359D01*
X62463038Y-136741013D01*
X62648987Y-136926962D01*
X62867641Y-137073061D01*
X63110595Y-137173696D01*
X63368514Y-137225000D01*
X63631486Y-137225000D01*
X63889405Y-137173696D01*
X64132359Y-137073061D01*
X64351013Y-136926962D01*
X64536962Y-136741013D01*
X64683061Y-136522359D01*
X64770000Y-136312470D01*
X64856939Y-136522359D01*
X65003038Y-136741013D01*
X65188987Y-136926962D01*
X65407641Y-137073061D01*
X65650595Y-137173696D01*
X65908514Y-137225000D01*
X66171486Y-137225000D01*
X66429405Y-137173696D01*
X66672359Y-137073061D01*
X66891013Y-136926962D01*
X67076962Y-136741013D01*
X67223061Y-136522359D01*
X67310000Y-136312470D01*
X67396939Y-136522359D01*
X67543038Y-136741013D01*
X67728987Y-136926962D01*
X67947641Y-137073061D01*
X68190595Y-137173696D01*
X68448514Y-137225000D01*
X68711486Y-137225000D01*
X68969405Y-137173696D01*
X69212359Y-137073061D01*
X69431013Y-136926962D01*
X69616962Y-136741013D01*
X69763061Y-136522359D01*
X69850000Y-136312470D01*
X69936939Y-136522359D01*
X70083038Y-136741013D01*
X70268987Y-136926962D01*
X70487641Y-137073061D01*
X70730595Y-137173696D01*
X70988514Y-137225000D01*
X71251486Y-137225000D01*
X71509405Y-137173696D01*
X71752359Y-137073061D01*
X71971013Y-136926962D01*
X72156962Y-136741013D01*
X72303061Y-136522359D01*
X72390000Y-136312470D01*
X72476939Y-136522359D01*
X72623038Y-136741013D01*
X72808987Y-136926962D01*
X73027641Y-137073061D01*
X73270595Y-137173696D01*
X73528514Y-137225000D01*
X73791486Y-137225000D01*
X74049405Y-137173696D01*
X74292359Y-137073061D01*
X74511013Y-136926962D01*
X74696962Y-136741013D01*
X74843061Y-136522359D01*
X74930000Y-136312470D01*
X75016939Y-136522359D01*
X75163038Y-136741013D01*
X75348987Y-136926962D01*
X75567641Y-137073061D01*
X75810595Y-137173696D01*
X76068514Y-137225000D01*
X76331486Y-137225000D01*
X76589405Y-137173696D01*
X76832359Y-137073061D01*
X77051013Y-136926962D01*
X77236962Y-136741013D01*
X77383061Y-136522359D01*
X77470000Y-136312470D01*
X77556939Y-136522359D01*
X77703038Y-136741013D01*
X77888987Y-136926962D01*
X78107641Y-137073061D01*
X78350595Y-137173696D01*
X78608514Y-137225000D01*
X78871486Y-137225000D01*
X79129405Y-137173696D01*
X79372359Y-137073061D01*
X79591013Y-136926962D01*
X79776962Y-136741013D01*
X79923061Y-136522359D01*
X80010000Y-136312470D01*
X80096939Y-136522359D01*
X80243038Y-136741013D01*
X80428987Y-136926962D01*
X80647641Y-137073061D01*
X80890595Y-137173696D01*
X81148514Y-137225000D01*
X81411486Y-137225000D01*
X81669405Y-137173696D01*
X81912359Y-137073061D01*
X82131013Y-136926962D01*
X82316962Y-136741013D01*
X82463061Y-136522359D01*
X82550000Y-136312470D01*
X82636939Y-136522359D01*
X82783038Y-136741013D01*
X82968987Y-136926962D01*
X83187641Y-137073061D01*
X83430595Y-137173696D01*
X83688514Y-137225000D01*
X83951486Y-137225000D01*
X84209405Y-137173696D01*
X84452359Y-137073061D01*
X84671013Y-136926962D01*
X84856962Y-136741013D01*
X85003061Y-136522359D01*
X85090000Y-136312470D01*
X85176939Y-136522359D01*
X85323038Y-136741013D01*
X85508987Y-136926962D01*
X85727641Y-137073061D01*
X85970595Y-137173696D01*
X86228514Y-137225000D01*
X86491486Y-137225000D01*
X86749405Y-137173696D01*
X86992359Y-137073061D01*
X87211013Y-136926962D01*
X87396962Y-136741013D01*
X87543061Y-136522359D01*
X87630000Y-136312470D01*
X87716939Y-136522359D01*
X87863038Y-136741013D01*
X88048987Y-136926962D01*
X88267641Y-137073061D01*
X88510595Y-137173696D01*
X88768514Y-137225000D01*
X89031486Y-137225000D01*
X89289405Y-137173696D01*
X89532359Y-137073061D01*
X89751013Y-136926962D01*
X89936962Y-136741013D01*
X90083061Y-136522359D01*
X90170000Y-136312470D01*
X90256939Y-136522359D01*
X90403038Y-136741013D01*
X90588987Y-136926962D01*
X90807641Y-137073061D01*
X91050595Y-137173696D01*
X91308514Y-137225000D01*
X91571486Y-137225000D01*
X91829405Y-137173696D01*
X92072359Y-137073061D01*
X92291013Y-136926962D01*
X92476962Y-136741013D01*
X92623061Y-136522359D01*
X92710000Y-136312470D01*
X92796939Y-136522359D01*
X92943038Y-136741013D01*
X93128987Y-136926962D01*
X93347641Y-137073061D01*
X93590595Y-137173696D01*
X93848514Y-137225000D01*
X94111486Y-137225000D01*
X94369405Y-137173696D01*
X94612359Y-137073061D01*
X94831013Y-136926962D01*
X95016962Y-136741013D01*
X95163061Y-136522359D01*
X95250000Y-136312470D01*
X95336939Y-136522359D01*
X95483038Y-136741013D01*
X95668987Y-136926962D01*
X95887641Y-137073061D01*
X96130595Y-137173696D01*
X96388514Y-137225000D01*
X96651486Y-137225000D01*
X96909405Y-137173696D01*
X97152359Y-137073061D01*
X97371013Y-136926962D01*
X97556962Y-136741013D01*
X97703061Y-136522359D01*
X97790000Y-136312470D01*
X97876939Y-136522359D01*
X98023038Y-136741013D01*
X98208987Y-136926962D01*
X98427641Y-137073061D01*
X98670595Y-137173696D01*
X98928514Y-137225000D01*
X99191486Y-137225000D01*
X99449405Y-137173696D01*
X99692359Y-137073061D01*
X99911013Y-136926962D01*
X100096962Y-136741013D01*
X100243061Y-136522359D01*
X100330000Y-136312470D01*
X100416939Y-136522359D01*
X100563038Y-136741013D01*
X100748987Y-136926962D01*
X100967641Y-137073061D01*
X101210595Y-137173696D01*
X101468514Y-137225000D01*
X101731486Y-137225000D01*
X101989405Y-137173696D01*
X102232359Y-137073061D01*
X102451013Y-136926962D01*
X102636962Y-136741013D01*
X102783061Y-136522359D01*
X102883696Y-136279405D01*
X102935000Y-136021486D01*
X102935000Y-135758514D01*
X102883696Y-135500595D01*
X102783061Y-135257641D01*
X102636962Y-135038987D01*
X102451013Y-134853038D01*
X102232359Y-134706939D01*
X101989405Y-134606304D01*
X101731486Y-134555000D01*
X101468514Y-134555000D01*
X101210595Y-134606304D01*
X100967641Y-134706939D01*
X100748987Y-134853038D01*
X100563038Y-135038987D01*
X100416939Y-135257641D01*
X100330000Y-135467530D01*
X100243061Y-135257641D01*
X100096962Y-135038987D01*
X99911013Y-134853038D01*
X99692359Y-134706939D01*
X99449405Y-134606304D01*
X99191486Y-134555000D01*
X98928514Y-134555000D01*
X98670595Y-134606304D01*
X98427641Y-134706939D01*
X98208987Y-134853038D01*
X98023038Y-135038987D01*
X97876939Y-135257641D01*
X97790000Y-135467530D01*
X97703061Y-135257641D01*
X97556962Y-135038987D01*
X97371013Y-134853038D01*
X97152359Y-134706939D01*
X96909405Y-134606304D01*
X96651486Y-134555000D01*
X96388514Y-134555000D01*
X96130595Y-134606304D01*
X95887641Y-134706939D01*
X95668987Y-134853038D01*
X95483038Y-135038987D01*
X95336939Y-135257641D01*
X95250000Y-135467530D01*
X95163061Y-135257641D01*
X95016962Y-135038987D01*
X94831013Y-134853038D01*
X94612359Y-134706939D01*
X94369405Y-134606304D01*
X94111486Y-134555000D01*
X93848514Y-134555000D01*
X93590595Y-134606304D01*
X93347641Y-134706939D01*
X93128987Y-134853038D01*
X92943038Y-135038987D01*
X92796939Y-135257641D01*
X92710000Y-135467530D01*
X92623061Y-135257641D01*
X92476962Y-135038987D01*
X92291013Y-134853038D01*
X92072359Y-134706939D01*
X91829405Y-134606304D01*
X91571486Y-134555000D01*
X91308514Y-134555000D01*
X91050595Y-134606304D01*
X90807641Y-134706939D01*
X90588987Y-134853038D01*
X90403038Y-135038987D01*
X90256939Y-135257641D01*
X90170000Y-135467530D01*
X90083061Y-135257641D01*
X89936962Y-135038987D01*
X89751013Y-134853038D01*
X89532359Y-134706939D01*
X89289405Y-134606304D01*
X89031486Y-134555000D01*
X88768514Y-134555000D01*
X88510595Y-134606304D01*
X88267641Y-134706939D01*
X88048987Y-134853038D01*
X87863038Y-135038987D01*
X87716939Y-135257641D01*
X87630000Y-135467530D01*
X87543061Y-135257641D01*
X87396962Y-135038987D01*
X87211013Y-134853038D01*
X86992359Y-134706939D01*
X86749405Y-134606304D01*
X86491486Y-134555000D01*
X86228514Y-134555000D01*
X85970595Y-134606304D01*
X85727641Y-134706939D01*
X85508987Y-134853038D01*
X85323038Y-135038987D01*
X85176939Y-135257641D01*
X85090000Y-135467530D01*
X85003061Y-135257641D01*
X84856962Y-135038987D01*
X84671013Y-134853038D01*
X84452359Y-134706939D01*
X84209405Y-134606304D01*
X83951486Y-134555000D01*
X83688514Y-134555000D01*
X83430595Y-134606304D01*
X83187641Y-134706939D01*
X82968987Y-134853038D01*
X82783038Y-135038987D01*
X82636939Y-135257641D01*
X82550000Y-135467530D01*
X82463061Y-135257641D01*
X82316962Y-135038987D01*
X82131013Y-134853038D01*
X81912359Y-134706939D01*
X81669405Y-134606304D01*
X81411486Y-134555000D01*
X81148514Y-134555000D01*
X80890595Y-134606304D01*
X80647641Y-134706939D01*
X80428987Y-134853038D01*
X80243038Y-135038987D01*
X80096939Y-135257641D01*
X80010000Y-135467530D01*
X79923061Y-135257641D01*
X79776962Y-135038987D01*
X79591013Y-134853038D01*
X79372359Y-134706939D01*
X79129405Y-134606304D01*
X78871486Y-134555000D01*
X78608514Y-134555000D01*
X78350595Y-134606304D01*
X78107641Y-134706939D01*
X77888987Y-134853038D01*
X77703038Y-135038987D01*
X77556939Y-135257641D01*
X77470000Y-135467530D01*
X77383061Y-135257641D01*
X77236962Y-135038987D01*
X77051013Y-134853038D01*
X76832359Y-134706939D01*
X76589405Y-134606304D01*
X76331486Y-134555000D01*
X76068514Y-134555000D01*
X75810595Y-134606304D01*
X75567641Y-134706939D01*
X75348987Y-134853038D01*
X75163038Y-135038987D01*
X75016939Y-135257641D01*
X74930000Y-135467530D01*
X74843061Y-135257641D01*
X74696962Y-135038987D01*
X74511013Y-134853038D01*
X74292359Y-134706939D01*
X74049405Y-134606304D01*
X73791486Y-134555000D01*
X73528514Y-134555000D01*
X73270595Y-134606304D01*
X73027641Y-134706939D01*
X72808987Y-134853038D01*
X72623038Y-135038987D01*
X72476939Y-135257641D01*
X72390000Y-135467530D01*
X72303061Y-135257641D01*
X72156962Y-135038987D01*
X71971013Y-134853038D01*
X71752359Y-134706939D01*
X71509405Y-134606304D01*
X71251486Y-134555000D01*
X70988514Y-134555000D01*
X70730595Y-134606304D01*
X70487641Y-134706939D01*
X70268987Y-134853038D01*
X70083038Y-135038987D01*
X69936939Y-135257641D01*
X69850000Y-135467530D01*
X69763061Y-135257641D01*
X69616962Y-135038987D01*
X69431013Y-134853038D01*
X69212359Y-134706939D01*
X68969405Y-134606304D01*
X68711486Y-134555000D01*
X68448514Y-134555000D01*
X68190595Y-134606304D01*
X67947641Y-134706939D01*
X67728987Y-134853038D01*
X67543038Y-135038987D01*
X67396939Y-135257641D01*
X67310000Y-135467530D01*
X67223061Y-135257641D01*
X67076962Y-135038987D01*
X66891013Y-134853038D01*
X66672359Y-134706939D01*
X66429405Y-134606304D01*
X66171486Y-134555000D01*
X65908514Y-134555000D01*
X65650595Y-134606304D01*
X65407641Y-134706939D01*
X65188987Y-134853038D01*
X65003038Y-135038987D01*
X64856939Y-135257641D01*
X64770000Y-135467530D01*
X64683061Y-135257641D01*
X64536962Y-135038987D01*
X64351013Y-134853038D01*
X64132359Y-134706939D01*
X63889405Y-134606304D01*
X63631486Y-134555000D01*
X63368514Y-134555000D01*
X63110595Y-134606304D01*
X62867641Y-134706939D01*
X62648987Y-134853038D01*
X62463038Y-135038987D01*
X62316939Y-135257641D01*
X62230000Y-135467530D01*
X62143061Y-135257641D01*
X61996962Y-135038987D01*
X61811013Y-134853038D01*
X61592359Y-134706939D01*
X61349405Y-134606304D01*
X61091486Y-134555000D01*
X60828514Y-134555000D01*
X60570595Y-134606304D01*
X60327641Y-134706939D01*
X60108987Y-134853038D01*
X59923038Y-135038987D01*
X59776939Y-135257641D01*
X59690000Y-135467530D01*
X59603061Y-135257641D01*
X59456962Y-135038987D01*
X59271013Y-134853038D01*
X59052359Y-134706939D01*
X58809405Y-134606304D01*
X58551486Y-134555000D01*
X58288514Y-134555000D01*
X58030595Y-134606304D01*
X57787641Y-134706939D01*
X57568987Y-134853038D01*
X57383038Y-135038987D01*
X57236939Y-135257641D01*
X57150000Y-135467530D01*
X57063061Y-135257641D01*
X56916962Y-135038987D01*
X56731013Y-134853038D01*
X56512359Y-134706939D01*
X56269405Y-134606304D01*
X56011486Y-134555000D01*
X55748514Y-134555000D01*
X55490595Y-134606304D01*
X55247641Y-134706939D01*
X55028987Y-134853038D01*
X54843038Y-135038987D01*
X54696939Y-135257641D01*
X54610000Y-135467530D01*
X54523061Y-135257641D01*
X54376962Y-135038987D01*
X54191013Y-134853038D01*
X53972359Y-134706939D01*
X53729405Y-134606304D01*
X53471486Y-134555000D01*
X53208514Y-134555000D01*
X52950595Y-134606304D01*
X52707641Y-134706939D01*
X52488987Y-134853038D01*
X52303038Y-135038987D01*
X52156939Y-135257641D01*
X52056304Y-135500595D01*
X52005000Y-135758514D01*
X51460000Y-135758514D01*
X51460000Y-130678514D01*
X52005000Y-130678514D01*
X52005000Y-130941486D01*
X52056304Y-131199405D01*
X52156939Y-131442359D01*
X52303038Y-131661013D01*
X52488987Y-131846962D01*
X52707641Y-131993061D01*
X52950595Y-132093696D01*
X53208514Y-132145000D01*
X53471486Y-132145000D01*
X53729405Y-132093696D01*
X53972359Y-131993061D01*
X54191013Y-131846962D01*
X54376962Y-131661013D01*
X54523061Y-131442359D01*
X54610000Y-131232470D01*
X54696939Y-131442359D01*
X54843038Y-131661013D01*
X55028987Y-131846962D01*
X55247641Y-131993061D01*
X55490595Y-132093696D01*
X55748514Y-132145000D01*
X56011486Y-132145000D01*
X56269405Y-132093696D01*
X56512359Y-131993061D01*
X56731013Y-131846962D01*
X56916962Y-131661013D01*
X57063061Y-131442359D01*
X57150000Y-131232470D01*
X57236939Y-131442359D01*
X57383038Y-131661013D01*
X57568987Y-131846962D01*
X57787641Y-131993061D01*
X58030595Y-132093696D01*
X58288514Y-132145000D01*
X58551486Y-132145000D01*
X58809405Y-132093696D01*
X59052359Y-131993061D01*
X59271013Y-131846962D01*
X59456962Y-131661013D01*
X59603061Y-131442359D01*
X59690000Y-131232470D01*
X59776939Y-131442359D01*
X59923038Y-131661013D01*
X60108987Y-131846962D01*
X60327641Y-131993061D01*
X60570595Y-132093696D01*
X60828514Y-132145000D01*
X61091486Y-132145000D01*
X61349405Y-132093696D01*
X61592359Y-131993061D01*
X61811013Y-131846962D01*
X61996962Y-131661013D01*
X62143061Y-131442359D01*
X62230000Y-131232470D01*
X62316939Y-131442359D01*
X62463038Y-131661013D01*
X62648987Y-131846962D01*
X62867641Y-131993061D01*
X63110595Y-132093696D01*
X63368514Y-132145000D01*
X63631486Y-132145000D01*
X63889405Y-132093696D01*
X64132359Y-131993061D01*
X64351013Y-131846962D01*
X64536962Y-131661013D01*
X64683061Y-131442359D01*
X64770000Y-131232470D01*
X64856939Y-131442359D01*
X65003038Y-131661013D01*
X65188987Y-131846962D01*
X65407641Y-131993061D01*
X65650595Y-132093696D01*
X65908514Y-132145000D01*
X66171486Y-132145000D01*
X66429405Y-132093696D01*
X66672359Y-131993061D01*
X66891013Y-131846962D01*
X67076962Y-131661013D01*
X67223061Y-131442359D01*
X67310000Y-131232470D01*
X67396939Y-131442359D01*
X67543038Y-131661013D01*
X67728987Y-131846962D01*
X67947641Y-131993061D01*
X68190595Y-132093696D01*
X68448514Y-132145000D01*
X68711486Y-132145000D01*
X68969405Y-132093696D01*
X69212359Y-131993061D01*
X69431013Y-131846962D01*
X69616962Y-131661013D01*
X69763061Y-131442359D01*
X69850000Y-131232470D01*
X69936939Y-131442359D01*
X70083038Y-131661013D01*
X70268987Y-131846962D01*
X70487641Y-131993061D01*
X70730595Y-132093696D01*
X70988514Y-132145000D01*
X71251486Y-132145000D01*
X71509405Y-132093696D01*
X71752359Y-131993061D01*
X71971013Y-131846962D01*
X72156962Y-131661013D01*
X72303061Y-131442359D01*
X72390000Y-131232470D01*
X72476939Y-131442359D01*
X72623038Y-131661013D01*
X72808987Y-131846962D01*
X73027641Y-131993061D01*
X73270595Y-132093696D01*
X73528514Y-132145000D01*
X73791486Y-132145000D01*
X74049405Y-132093696D01*
X74292359Y-131993061D01*
X74511013Y-131846962D01*
X74696962Y-131661013D01*
X74843061Y-131442359D01*
X74930000Y-131232470D01*
X75016939Y-131442359D01*
X75163038Y-131661013D01*
X75348987Y-131846962D01*
X75567641Y-131993061D01*
X75810595Y-132093696D01*
X76068514Y-132145000D01*
X76331486Y-132145000D01*
X76589405Y-132093696D01*
X76832359Y-131993061D01*
X77051013Y-131846962D01*
X77236962Y-131661013D01*
X77383061Y-131442359D01*
X77470000Y-131232470D01*
X77556939Y-131442359D01*
X77703038Y-131661013D01*
X77888987Y-131846962D01*
X78107641Y-131993061D01*
X78350595Y-132093696D01*
X78608514Y-132145000D01*
X78871486Y-132145000D01*
X79129405Y-132093696D01*
X79372359Y-131993061D01*
X79591013Y-131846962D01*
X79776962Y-131661013D01*
X79923061Y-131442359D01*
X80010000Y-131232470D01*
X80096939Y-131442359D01*
X80243038Y-131661013D01*
X80428987Y-131846962D01*
X80647641Y-131993061D01*
X80890595Y-132093696D01*
X81148514Y-132145000D01*
X81411486Y-132145000D01*
X81669405Y-132093696D01*
X81912359Y-131993061D01*
X82131013Y-131846962D01*
X82316962Y-131661013D01*
X82463061Y-131442359D01*
X82550000Y-131232470D01*
X82636939Y-131442359D01*
X82783038Y-131661013D01*
X82968987Y-131846962D01*
X83187641Y-131993061D01*
X83430595Y-132093696D01*
X83688514Y-132145000D01*
X83951486Y-132145000D01*
X84209405Y-132093696D01*
X84452359Y-131993061D01*
X84671013Y-131846962D01*
X84856962Y-131661013D01*
X85003061Y-131442359D01*
X85090000Y-131232470D01*
X85176939Y-131442359D01*
X85323038Y-131661013D01*
X85508987Y-131846962D01*
X85727641Y-131993061D01*
X85970595Y-132093696D01*
X86228514Y-132145000D01*
X86491486Y-132145000D01*
X86749405Y-132093696D01*
X86992359Y-131993061D01*
X87211013Y-131846962D01*
X87396962Y-131661013D01*
X87543061Y-131442359D01*
X87630000Y-131232470D01*
X87716939Y-131442359D01*
X87863038Y-131661013D01*
X88048987Y-131846962D01*
X88267641Y-131993061D01*
X88510595Y-132093696D01*
X88768514Y-132145000D01*
X89031486Y-132145000D01*
X89289405Y-132093696D01*
X89532359Y-131993061D01*
X89751013Y-131846962D01*
X89936962Y-131661013D01*
X90083061Y-131442359D01*
X90170000Y-131232470D01*
X90256939Y-131442359D01*
X90403038Y-131661013D01*
X90588987Y-131846962D01*
X90807641Y-131993061D01*
X91050595Y-132093696D01*
X91308514Y-132145000D01*
X91571486Y-132145000D01*
X91829405Y-132093696D01*
X92072359Y-131993061D01*
X92291013Y-131846962D01*
X92476962Y-131661013D01*
X92623061Y-131442359D01*
X92710000Y-131232470D01*
X92796939Y-131442359D01*
X92943038Y-131661013D01*
X93128987Y-131846962D01*
X93347641Y-131993061D01*
X93590595Y-132093696D01*
X93848514Y-132145000D01*
X94111486Y-132145000D01*
X94369405Y-132093696D01*
X94612359Y-131993061D01*
X94831013Y-131846962D01*
X95016962Y-131661013D01*
X95163061Y-131442359D01*
X95250000Y-131232470D01*
X95336939Y-131442359D01*
X95483038Y-131661013D01*
X95668987Y-131846962D01*
X95887641Y-131993061D01*
X96130595Y-132093696D01*
X96388514Y-132145000D01*
X96651486Y-132145000D01*
X96909405Y-132093696D01*
X97152359Y-131993061D01*
X97371013Y-131846962D01*
X97556962Y-131661013D01*
X97703061Y-131442359D01*
X97790000Y-131232470D01*
X97876939Y-131442359D01*
X98023038Y-131661013D01*
X98208987Y-131846962D01*
X98427641Y-131993061D01*
X98670595Y-132093696D01*
X98928514Y-132145000D01*
X99191486Y-132145000D01*
X99449405Y-132093696D01*
X99692359Y-131993061D01*
X99911013Y-131846962D01*
X100096962Y-131661013D01*
X100243061Y-131442359D01*
X100330000Y-131232470D01*
X100416939Y-131442359D01*
X100563038Y-131661013D01*
X100748987Y-131846962D01*
X100967641Y-131993061D01*
X101210595Y-132093696D01*
X101468514Y-132145000D01*
X101731486Y-132145000D01*
X101989405Y-132093696D01*
X102232359Y-131993061D01*
X102451013Y-131846962D01*
X102636962Y-131661013D01*
X102783061Y-131442359D01*
X102883696Y-131199405D01*
X102935000Y-130941486D01*
X102935000Y-130678514D01*
X102883696Y-130420595D01*
X102783061Y-130177641D01*
X102636962Y-129958987D01*
X102451013Y-129773038D01*
X102232359Y-129626939D01*
X101989405Y-129526304D01*
X101731486Y-129475000D01*
X101468514Y-129475000D01*
X101210595Y-129526304D01*
X100967641Y-129626939D01*
X100748987Y-129773038D01*
X100563038Y-129958987D01*
X100416939Y-130177641D01*
X100330000Y-130387530D01*
X100243061Y-130177641D01*
X100096962Y-129958987D01*
X99911013Y-129773038D01*
X99692359Y-129626939D01*
X99449405Y-129526304D01*
X99191486Y-129475000D01*
X98928514Y-129475000D01*
X98670595Y-129526304D01*
X98427641Y-129626939D01*
X98208987Y-129773038D01*
X98023038Y-129958987D01*
X97876939Y-130177641D01*
X97790000Y-130387530D01*
X97703061Y-130177641D01*
X97556962Y-129958987D01*
X97371013Y-129773038D01*
X97152359Y-129626939D01*
X96909405Y-129526304D01*
X96651486Y-129475000D01*
X96388514Y-129475000D01*
X96130595Y-129526304D01*
X95887641Y-129626939D01*
X95668987Y-129773038D01*
X95483038Y-129958987D01*
X95336939Y-130177641D01*
X95250000Y-130387530D01*
X95163061Y-130177641D01*
X95016962Y-129958987D01*
X94831013Y-129773038D01*
X94612359Y-129626939D01*
X94369405Y-129526304D01*
X94111486Y-129475000D01*
X93848514Y-129475000D01*
X93590595Y-129526304D01*
X93347641Y-129626939D01*
X93128987Y-129773038D01*
X92943038Y-129958987D01*
X92796939Y-130177641D01*
X92710000Y-130387530D01*
X92623061Y-130177641D01*
X92476962Y-129958987D01*
X92291013Y-129773038D01*
X92072359Y-129626939D01*
X91829405Y-129526304D01*
X91571486Y-129475000D01*
X91308514Y-129475000D01*
X91050595Y-129526304D01*
X90807641Y-129626939D01*
X90588987Y-129773038D01*
X90403038Y-129958987D01*
X90256939Y-130177641D01*
X90170000Y-130387530D01*
X90083061Y-130177641D01*
X89936962Y-129958987D01*
X89751013Y-129773038D01*
X89532359Y-129626939D01*
X89289405Y-129526304D01*
X89031486Y-129475000D01*
X88768514Y-129475000D01*
X88510595Y-129526304D01*
X88267641Y-129626939D01*
X88048987Y-129773038D01*
X87863038Y-129958987D01*
X87716939Y-130177641D01*
X87630000Y-130387530D01*
X87543061Y-130177641D01*
X87396962Y-129958987D01*
X87211013Y-129773038D01*
X86992359Y-129626939D01*
X86749405Y-129526304D01*
X86491486Y-129475000D01*
X86228514Y-129475000D01*
X85970595Y-129526304D01*
X85727641Y-129626939D01*
X85508987Y-129773038D01*
X85323038Y-129958987D01*
X85176939Y-130177641D01*
X85090000Y-130387530D01*
X85003061Y-130177641D01*
X84856962Y-129958987D01*
X84671013Y-129773038D01*
X84452359Y-129626939D01*
X84209405Y-129526304D01*
X83951486Y-129475000D01*
X83688514Y-129475000D01*
X83430595Y-129526304D01*
X83187641Y-129626939D01*
X82968987Y-129773038D01*
X82783038Y-129958987D01*
X82636939Y-130177641D01*
X82550000Y-130387530D01*
X82463061Y-130177641D01*
X82316962Y-129958987D01*
X82131013Y-129773038D01*
X81912359Y-129626939D01*
X81669405Y-129526304D01*
X81411486Y-129475000D01*
X81148514Y-129475000D01*
X80890595Y-129526304D01*
X80647641Y-129626939D01*
X80428987Y-129773038D01*
X80243038Y-129958987D01*
X80096939Y-130177641D01*
X80010000Y-130387530D01*
X79923061Y-130177641D01*
X79776962Y-129958987D01*
X79591013Y-129773038D01*
X79372359Y-129626939D01*
X79129405Y-129526304D01*
X78871486Y-129475000D01*
X78608514Y-129475000D01*
X78350595Y-129526304D01*
X78107641Y-129626939D01*
X77888987Y-129773038D01*
X77703038Y-129958987D01*
X77556939Y-130177641D01*
X77470000Y-130387530D01*
X77383061Y-130177641D01*
X77236962Y-129958987D01*
X77051013Y-129773038D01*
X76832359Y-129626939D01*
X76589405Y-129526304D01*
X76331486Y-129475000D01*
X76068514Y-129475000D01*
X75810595Y-129526304D01*
X75567641Y-129626939D01*
X75348987Y-129773038D01*
X75163038Y-129958987D01*
X75016939Y-130177641D01*
X74930000Y-130387530D01*
X74843061Y-130177641D01*
X74696962Y-129958987D01*
X74511013Y-129773038D01*
X74292359Y-129626939D01*
X74049405Y-129526304D01*
X73791486Y-129475000D01*
X73528514Y-129475000D01*
X73270595Y-129526304D01*
X73027641Y-129626939D01*
X72808987Y-129773038D01*
X72623038Y-129958987D01*
X72476939Y-130177641D01*
X72390000Y-130387530D01*
X72303061Y-130177641D01*
X72156962Y-129958987D01*
X71971013Y-129773038D01*
X71752359Y-129626939D01*
X71509405Y-129526304D01*
X71251486Y-129475000D01*
X70988514Y-129475000D01*
X70730595Y-129526304D01*
X70487641Y-129626939D01*
X70268987Y-129773038D01*
X70083038Y-129958987D01*
X69936939Y-130177641D01*
X69850000Y-130387530D01*
X69763061Y-130177641D01*
X69616962Y-129958987D01*
X69431013Y-129773038D01*
X69212359Y-129626939D01*
X68969405Y-129526304D01*
X68711486Y-129475000D01*
X68448514Y-129475000D01*
X68190595Y-129526304D01*
X67947641Y-129626939D01*
X67728987Y-129773038D01*
X67543038Y-129958987D01*
X67396939Y-130177641D01*
X67310000Y-130387530D01*
X67223061Y-130177641D01*
X67076962Y-129958987D01*
X66891013Y-129773038D01*
X66672359Y-129626939D01*
X66429405Y-129526304D01*
X66171486Y-129475000D01*
X65908514Y-129475000D01*
X65650595Y-129526304D01*
X65407641Y-129626939D01*
X65188987Y-129773038D01*
X65003038Y-129958987D01*
X64856939Y-130177641D01*
X64770000Y-130387530D01*
X64683061Y-130177641D01*
X64536962Y-129958987D01*
X64351013Y-129773038D01*
X64132359Y-129626939D01*
X63889405Y-129526304D01*
X63631486Y-129475000D01*
X63368514Y-129475000D01*
X63110595Y-129526304D01*
X62867641Y-129626939D01*
X62648987Y-129773038D01*
X62463038Y-129958987D01*
X62316939Y-130177641D01*
X62230000Y-130387530D01*
X62143061Y-130177641D01*
X61996962Y-129958987D01*
X61811013Y-129773038D01*
X61592359Y-129626939D01*
X61349405Y-129526304D01*
X61091486Y-129475000D01*
X60828514Y-129475000D01*
X60570595Y-129526304D01*
X60327641Y-129626939D01*
X60108987Y-129773038D01*
X59923038Y-129958987D01*
X59776939Y-130177641D01*
X59690000Y-130387530D01*
X59603061Y-130177641D01*
X59456962Y-129958987D01*
X59271013Y-129773038D01*
X59052359Y-129626939D01*
X58809405Y-129526304D01*
X58551486Y-129475000D01*
X58288514Y-129475000D01*
X58030595Y-129526304D01*
X57787641Y-129626939D01*
X57568987Y-129773038D01*
X57383038Y-129958987D01*
X57236939Y-130177641D01*
X57150000Y-130387530D01*
X57063061Y-130177641D01*
X56916962Y-129958987D01*
X56731013Y-129773038D01*
X56512359Y-129626939D01*
X56269405Y-129526304D01*
X56011486Y-129475000D01*
X55748514Y-129475000D01*
X55490595Y-129526304D01*
X55247641Y-129626939D01*
X55028987Y-129773038D01*
X54843038Y-129958987D01*
X54696939Y-130177641D01*
X54610000Y-130387530D01*
X54523061Y-130177641D01*
X54376962Y-129958987D01*
X54191013Y-129773038D01*
X53972359Y-129626939D01*
X53729405Y-129526304D01*
X53471486Y-129475000D01*
X53208514Y-129475000D01*
X52950595Y-129526304D01*
X52707641Y-129626939D01*
X52488987Y-129773038D01*
X52303038Y-129958987D01*
X52156939Y-130177641D01*
X52056304Y-130420595D01*
X52005000Y-130678514D01*
X51460000Y-130678514D01*
X51460000Y-128627702D01*
X60781903Y-128627702D01*
X60853486Y-128871671D01*
X61108996Y-128992571D01*
X61383184Y-129061300D01*
X61665512Y-129075217D01*
X61945130Y-129033787D01*
X62211292Y-128938603D01*
X62336514Y-128871671D01*
X62408097Y-128627702D01*
X61595000Y-127814605D01*
X60781903Y-128627702D01*
X51460000Y-128627702D01*
X51460000Y-127705512D01*
X60154783Y-127705512D01*
X60196213Y-127985130D01*
X60291397Y-128251292D01*
X60358329Y-128376514D01*
X60602298Y-128448097D01*
X61415395Y-127635000D01*
X61774605Y-127635000D01*
X62587702Y-128448097D01*
X62831671Y-128376514D01*
X62952571Y-128121004D01*
X63021300Y-127846816D01*
X63035217Y-127564488D01*
X63024724Y-127493665D01*
X65160000Y-127493665D01*
X65160000Y-127776335D01*
X65215147Y-128053574D01*
X65323320Y-128314727D01*
X65480363Y-128549759D01*
X65680241Y-128749637D01*
X65915273Y-128906680D01*
X66176426Y-129014853D01*
X66453665Y-129070000D01*
X66736335Y-129070000D01*
X67013574Y-129014853D01*
X67274727Y-128906680D01*
X67509759Y-128749637D01*
X67709637Y-128549759D01*
X67866680Y-128314727D01*
X67974853Y-128053574D01*
X68030000Y-127776335D01*
X68030000Y-127493665D01*
X67974853Y-127216426D01*
X67866680Y-126955273D01*
X67709637Y-126720241D01*
X67509759Y-126520363D01*
X67274727Y-126363320D01*
X67013574Y-126255147D01*
X66736335Y-126200000D01*
X66453665Y-126200000D01*
X66176426Y-126255147D01*
X65915273Y-126363320D01*
X65680241Y-126520363D01*
X65480363Y-126720241D01*
X65323320Y-126955273D01*
X65215147Y-127216426D01*
X65160000Y-127493665D01*
X63024724Y-127493665D01*
X62993787Y-127284870D01*
X62898603Y-127018708D01*
X62831671Y-126893486D01*
X62587702Y-126821903D01*
X61774605Y-127635000D01*
X61415395Y-127635000D01*
X60602298Y-126821903D01*
X60358329Y-126893486D01*
X60237429Y-127148996D01*
X60168700Y-127423184D01*
X60154783Y-127705512D01*
X51460000Y-127705512D01*
X51460000Y-126642298D01*
X60781903Y-126642298D01*
X61595000Y-127455395D01*
X62408097Y-126642298D01*
X62336514Y-126398329D01*
X62081004Y-126277429D01*
X61806816Y-126208700D01*
X61524488Y-126194783D01*
X61244870Y-126236213D01*
X60978708Y-126331397D01*
X60853486Y-126398329D01*
X60781903Y-126642298D01*
X51460000Y-126642298D01*
X51460000Y-121773740D01*
X51855000Y-121773740D01*
X51855000Y-122066260D01*
X51912068Y-122353158D01*
X52024010Y-122623411D01*
X52186525Y-122866632D01*
X52393368Y-123073475D01*
X52567760Y-123190000D01*
X52393368Y-123306525D01*
X52186525Y-123513368D01*
X52024010Y-123756589D01*
X51912068Y-124026842D01*
X51855000Y-124313740D01*
X51855000Y-124606260D01*
X51912068Y-124893158D01*
X52024010Y-125163411D01*
X52186525Y-125406632D01*
X52393368Y-125613475D01*
X52636589Y-125775990D01*
X52906842Y-125887932D01*
X53193740Y-125945000D01*
X53486260Y-125945000D01*
X53773158Y-125887932D01*
X54043411Y-125775990D01*
X54286632Y-125613475D01*
X54493475Y-125406632D01*
X54655990Y-125163411D01*
X54767932Y-124893158D01*
X54825000Y-124606260D01*
X54825000Y-124313740D01*
X54767932Y-124026842D01*
X54655990Y-123756589D01*
X54493475Y-123513368D01*
X54286632Y-123306525D01*
X54217003Y-123260000D01*
X56346928Y-123260000D01*
X56346928Y-125660000D01*
X56359188Y-125784482D01*
X56395498Y-125904180D01*
X56454463Y-126014494D01*
X56533815Y-126111185D01*
X56630506Y-126190537D01*
X56740820Y-126249502D01*
X56860518Y-126285812D01*
X56985000Y-126298072D01*
X58585000Y-126298072D01*
X58709482Y-126285812D01*
X58829180Y-126249502D01*
X58939494Y-126190537D01*
X59036185Y-126111185D01*
X59115537Y-126014494D01*
X59174502Y-125904180D01*
X59210812Y-125784482D01*
X59212581Y-125766517D01*
X59305393Y-125879608D01*
X59523900Y-126058932D01*
X59773193Y-126192182D01*
X60043692Y-126274236D01*
X60325000Y-126301943D01*
X60606309Y-126274236D01*
X60876808Y-126192182D01*
X61126101Y-126058932D01*
X61344608Y-125879608D01*
X61523932Y-125661101D01*
X61592265Y-125533259D01*
X61742399Y-125762839D01*
X61940105Y-125964500D01*
X62173354Y-126123715D01*
X62433182Y-126234367D01*
X62515961Y-126251904D01*
X62738000Y-126129915D01*
X62738000Y-124587000D01*
X62718000Y-124587000D01*
X62718000Y-124333000D01*
X62738000Y-124333000D01*
X62738000Y-122790085D01*
X62992000Y-122790085D01*
X62992000Y-124333000D01*
X63012000Y-124333000D01*
X63012000Y-124587000D01*
X62992000Y-124587000D01*
X62992000Y-126129915D01*
X63214039Y-126251904D01*
X63296818Y-126234367D01*
X63556646Y-126123715D01*
X63789895Y-125964500D01*
X63987601Y-125762839D01*
X64137735Y-125533259D01*
X64206068Y-125661101D01*
X64385393Y-125879608D01*
X64603900Y-126058932D01*
X64853193Y-126192182D01*
X65123692Y-126274236D01*
X65405000Y-126301943D01*
X65686309Y-126274236D01*
X65956808Y-126192182D01*
X66152276Y-126087702D01*
X68401903Y-126087702D01*
X68473486Y-126331671D01*
X68728996Y-126452571D01*
X69003184Y-126521300D01*
X69285512Y-126535217D01*
X69565130Y-126493787D01*
X69831292Y-126398603D01*
X69956514Y-126331671D01*
X70028097Y-126087702D01*
X69215000Y-125274605D01*
X68401903Y-126087702D01*
X66152276Y-126087702D01*
X66206101Y-126058932D01*
X66424608Y-125879608D01*
X66603932Y-125661101D01*
X66737182Y-125411808D01*
X66811894Y-125165512D01*
X67774783Y-125165512D01*
X67816213Y-125445130D01*
X67911397Y-125711292D01*
X67978329Y-125836514D01*
X68222298Y-125908097D01*
X69035395Y-125095000D01*
X69394605Y-125095000D01*
X70207702Y-125908097D01*
X70451671Y-125836514D01*
X70568946Y-125588665D01*
X81115000Y-125588665D01*
X81115000Y-125871335D01*
X81170147Y-126148574D01*
X81278320Y-126409727D01*
X81435363Y-126644759D01*
X81635241Y-126844637D01*
X81870273Y-127001680D01*
X82131426Y-127109853D01*
X82408665Y-127165000D01*
X82691335Y-127165000D01*
X82968574Y-127109853D01*
X83229727Y-127001680D01*
X83464759Y-126844637D01*
X83664637Y-126644759D01*
X83821680Y-126409727D01*
X83929853Y-126148574D01*
X83985000Y-125871335D01*
X83985000Y-125588665D01*
X86115000Y-125588665D01*
X86115000Y-125871335D01*
X86170147Y-126148574D01*
X86278320Y-126409727D01*
X86435363Y-126644759D01*
X86635241Y-126844637D01*
X86870273Y-127001680D01*
X87131426Y-127109853D01*
X87408665Y-127165000D01*
X87691335Y-127165000D01*
X87968574Y-127109853D01*
X88229727Y-127001680D01*
X88464759Y-126844637D01*
X88664637Y-126644759D01*
X88821680Y-126409727D01*
X88929853Y-126148574D01*
X88985000Y-125871335D01*
X88985000Y-125588665D01*
X88929853Y-125311426D01*
X88821680Y-125050273D01*
X88707908Y-124880000D01*
X89316928Y-124880000D01*
X89316928Y-126580000D01*
X89329188Y-126704482D01*
X89365498Y-126824180D01*
X89424463Y-126934494D01*
X89503815Y-127031185D01*
X89600506Y-127110537D01*
X89710820Y-127169502D01*
X89830518Y-127205812D01*
X89955000Y-127218072D01*
X91655000Y-127218072D01*
X91779482Y-127205812D01*
X91899180Y-127169502D01*
X92009494Y-127110537D01*
X92106185Y-127031185D01*
X92185537Y-126934494D01*
X92244502Y-126824180D01*
X92280812Y-126704482D01*
X92293072Y-126580000D01*
X92293072Y-125508665D01*
X95720000Y-125508665D01*
X95720000Y-125791335D01*
X95775147Y-126068574D01*
X95883320Y-126329727D01*
X96040363Y-126564759D01*
X96240241Y-126764637D01*
X96475273Y-126921680D01*
X96736426Y-127029853D01*
X97013665Y-127085000D01*
X97296335Y-127085000D01*
X97573574Y-127029853D01*
X97834727Y-126921680D01*
X98069759Y-126764637D01*
X98269637Y-126564759D01*
X98426680Y-126329727D01*
X98534853Y-126068574D01*
X98590000Y-125791335D01*
X98590000Y-125508665D01*
X98534853Y-125231426D01*
X98426680Y-124970273D01*
X98366362Y-124880000D01*
X100111928Y-124880000D01*
X100111928Y-126580000D01*
X100124188Y-126704482D01*
X100160498Y-126824180D01*
X100219463Y-126934494D01*
X100298815Y-127031185D01*
X100395506Y-127110537D01*
X100505820Y-127169502D01*
X100625518Y-127205812D01*
X100750000Y-127218072D01*
X102450000Y-127218072D01*
X102574482Y-127205812D01*
X102694180Y-127169502D01*
X102804494Y-127110537D01*
X102901185Y-127031185D01*
X102980537Y-126934494D01*
X103039502Y-126824180D01*
X103075812Y-126704482D01*
X103088072Y-126580000D01*
X103088072Y-124880000D01*
X103075812Y-124755518D01*
X103039502Y-124635820D01*
X102980537Y-124525506D01*
X102901185Y-124428815D01*
X102804494Y-124349463D01*
X102694180Y-124290498D01*
X102621620Y-124268487D01*
X102753475Y-124136632D01*
X102915990Y-123893411D01*
X103027932Y-123623158D01*
X103085000Y-123336260D01*
X103085000Y-123043740D01*
X103027932Y-122756842D01*
X102915990Y-122486589D01*
X102753475Y-122243368D01*
X102546632Y-122036525D01*
X102372240Y-121920000D01*
X102546632Y-121803475D01*
X102753475Y-121596632D01*
X102915990Y-121353411D01*
X103027932Y-121083158D01*
X103085000Y-120796260D01*
X103085000Y-120503740D01*
X103027932Y-120216842D01*
X102915990Y-119946589D01*
X102753475Y-119703368D01*
X102546632Y-119496525D01*
X102303411Y-119334010D01*
X102033158Y-119222068D01*
X101746260Y-119165000D01*
X101453740Y-119165000D01*
X101166842Y-119222068D01*
X100896589Y-119334010D01*
X100653368Y-119496525D01*
X100446525Y-119703368D01*
X100284010Y-119946589D01*
X100172068Y-120216842D01*
X100115000Y-120503740D01*
X100115000Y-120796260D01*
X100172068Y-121083158D01*
X100284010Y-121353411D01*
X100446525Y-121596632D01*
X100653368Y-121803475D01*
X100827760Y-121920000D01*
X100653368Y-122036525D01*
X100446525Y-122243368D01*
X100284010Y-122486589D01*
X100172068Y-122756842D01*
X100115000Y-123043740D01*
X100115000Y-123336260D01*
X100172068Y-123623158D01*
X100284010Y-123893411D01*
X100446525Y-124136632D01*
X100578380Y-124268487D01*
X100505820Y-124290498D01*
X100395506Y-124349463D01*
X100298815Y-124428815D01*
X100219463Y-124525506D01*
X100160498Y-124635820D01*
X100124188Y-124755518D01*
X100111928Y-124880000D01*
X98366362Y-124880000D01*
X98269637Y-124735241D01*
X98069759Y-124535363D01*
X97834727Y-124378320D01*
X97573574Y-124270147D01*
X97296335Y-124215000D01*
X97013665Y-124215000D01*
X96736426Y-124270147D01*
X96475273Y-124378320D01*
X96240241Y-124535363D01*
X96040363Y-124735241D01*
X95883320Y-124970273D01*
X95775147Y-125231426D01*
X95720000Y-125508665D01*
X92293072Y-125508665D01*
X92293072Y-124880000D01*
X92280812Y-124755518D01*
X92244502Y-124635820D01*
X92185537Y-124525506D01*
X92106185Y-124428815D01*
X92009494Y-124349463D01*
X91899180Y-124290498D01*
X91826620Y-124268487D01*
X91958475Y-124136632D01*
X92120990Y-123893411D01*
X92232932Y-123623158D01*
X92290000Y-123336260D01*
X92290000Y-123043740D01*
X92232932Y-122756842D01*
X92120990Y-122486589D01*
X91958475Y-122243368D01*
X91751632Y-122036525D01*
X91577240Y-121920000D01*
X91751632Y-121803475D01*
X91958475Y-121596632D01*
X92120990Y-121353411D01*
X92232932Y-121083158D01*
X92290000Y-120796260D01*
X92290000Y-120508665D01*
X95720000Y-120508665D01*
X95720000Y-120791335D01*
X95775147Y-121068574D01*
X95883320Y-121329727D01*
X96040363Y-121564759D01*
X96240241Y-121764637D01*
X96475273Y-121921680D01*
X96736426Y-122029853D01*
X97013665Y-122085000D01*
X97296335Y-122085000D01*
X97573574Y-122029853D01*
X97834727Y-121921680D01*
X98069759Y-121764637D01*
X98269637Y-121564759D01*
X98426680Y-121329727D01*
X98534853Y-121068574D01*
X98590000Y-120791335D01*
X98590000Y-120508665D01*
X98534853Y-120231426D01*
X98426680Y-119970273D01*
X98269637Y-119735241D01*
X98069759Y-119535363D01*
X97834727Y-119378320D01*
X97573574Y-119270147D01*
X97296335Y-119215000D01*
X97013665Y-119215000D01*
X96736426Y-119270147D01*
X96475273Y-119378320D01*
X96240241Y-119535363D01*
X96040363Y-119735241D01*
X95883320Y-119970273D01*
X95775147Y-120231426D01*
X95720000Y-120508665D01*
X92290000Y-120508665D01*
X92290000Y-120503740D01*
X92232932Y-120216842D01*
X92120990Y-119946589D01*
X91958475Y-119703368D01*
X91751632Y-119496525D01*
X91508411Y-119334010D01*
X91238158Y-119222068D01*
X90951260Y-119165000D01*
X90658740Y-119165000D01*
X90371842Y-119222068D01*
X90101589Y-119334010D01*
X89858368Y-119496525D01*
X89651525Y-119703368D01*
X89489010Y-119946589D01*
X89377068Y-120216842D01*
X89320000Y-120503740D01*
X89320000Y-120796260D01*
X89377068Y-121083158D01*
X89489010Y-121353411D01*
X89651525Y-121596632D01*
X89858368Y-121803475D01*
X90032760Y-121920000D01*
X89858368Y-122036525D01*
X89651525Y-122243368D01*
X89489010Y-122486589D01*
X89377068Y-122756842D01*
X89320000Y-123043740D01*
X89320000Y-123336260D01*
X89377068Y-123623158D01*
X89489010Y-123893411D01*
X89651525Y-124136632D01*
X89783380Y-124268487D01*
X89710820Y-124290498D01*
X89600506Y-124349463D01*
X89503815Y-124428815D01*
X89424463Y-124525506D01*
X89365498Y-124635820D01*
X89329188Y-124755518D01*
X89316928Y-124880000D01*
X88707908Y-124880000D01*
X88664637Y-124815241D01*
X88464759Y-124615363D01*
X88229727Y-124458320D01*
X88143126Y-124422449D01*
X88262359Y-124373061D01*
X88481013Y-124226962D01*
X88666962Y-124041013D01*
X88813061Y-123822359D01*
X88913696Y-123579405D01*
X88965000Y-123321486D01*
X88965000Y-123058514D01*
X88913696Y-122800595D01*
X88813061Y-122557641D01*
X88666962Y-122338987D01*
X88481013Y-122153038D01*
X88262359Y-122006939D01*
X88019405Y-121906304D01*
X87761486Y-121855000D01*
X87498514Y-121855000D01*
X87240595Y-121906304D01*
X86997641Y-122006939D01*
X86778987Y-122153038D01*
X86593038Y-122338987D01*
X86446939Y-122557641D01*
X86346304Y-122800595D01*
X86295000Y-123058514D01*
X86295000Y-123321486D01*
X86346304Y-123579405D01*
X86446939Y-123822359D01*
X86593038Y-124041013D01*
X86778987Y-124226962D01*
X86997641Y-124373061D01*
X87036874Y-124389312D01*
X86870273Y-124458320D01*
X86635241Y-124615363D01*
X86435363Y-124815241D01*
X86278320Y-125050273D01*
X86170147Y-125311426D01*
X86115000Y-125588665D01*
X83985000Y-125588665D01*
X83929853Y-125311426D01*
X83821680Y-125050273D01*
X83664637Y-124815241D01*
X83464759Y-124615363D01*
X83229727Y-124458320D01*
X83103126Y-124405880D01*
X83182359Y-124373061D01*
X83401013Y-124226962D01*
X83586962Y-124041013D01*
X83733061Y-123822359D01*
X83833696Y-123579405D01*
X83885000Y-123321486D01*
X83885000Y-123058514D01*
X83833696Y-122800595D01*
X83733061Y-122557641D01*
X83586962Y-122338987D01*
X83401013Y-122153038D01*
X83182359Y-122006939D01*
X82939405Y-121906304D01*
X82681486Y-121855000D01*
X82418514Y-121855000D01*
X82160595Y-121906304D01*
X81917641Y-122006939D01*
X81698987Y-122153038D01*
X81513038Y-122338987D01*
X81366939Y-122557641D01*
X81266304Y-122800595D01*
X81215000Y-123058514D01*
X81215000Y-123321486D01*
X81266304Y-123579405D01*
X81366939Y-123822359D01*
X81513038Y-124041013D01*
X81698987Y-124226962D01*
X81917641Y-124373061D01*
X81996874Y-124405880D01*
X81870273Y-124458320D01*
X81635241Y-124615363D01*
X81435363Y-124815241D01*
X81278320Y-125050273D01*
X81170147Y-125311426D01*
X81115000Y-125588665D01*
X70568946Y-125588665D01*
X70572571Y-125581004D01*
X70641300Y-125306816D01*
X70655217Y-125024488D01*
X70613787Y-124744870D01*
X70518603Y-124478708D01*
X70451671Y-124353486D01*
X70207702Y-124281903D01*
X69394605Y-125095000D01*
X69035395Y-125095000D01*
X68222298Y-124281903D01*
X67978329Y-124353486D01*
X67857429Y-124608996D01*
X67788700Y-124883184D01*
X67774783Y-125165512D01*
X66811894Y-125165512D01*
X66819236Y-125141309D01*
X66840000Y-124930491D01*
X66840000Y-124102298D01*
X68401903Y-124102298D01*
X69215000Y-124915395D01*
X70028097Y-124102298D01*
X69956514Y-123858329D01*
X69701004Y-123737429D01*
X69426816Y-123668700D01*
X69144488Y-123654783D01*
X68864870Y-123696213D01*
X68598708Y-123791397D01*
X68473486Y-123858329D01*
X68401903Y-124102298D01*
X66840000Y-124102298D01*
X66840000Y-123989508D01*
X66819236Y-123778691D01*
X66737182Y-123508192D01*
X66603932Y-123258899D01*
X66424607Y-123040392D01*
X66206100Y-122861068D01*
X65956807Y-122727818D01*
X65686308Y-122645764D01*
X65405000Y-122618057D01*
X65123691Y-122645764D01*
X64853192Y-122727818D01*
X64603899Y-122861068D01*
X64385392Y-123040393D01*
X64206068Y-123258900D01*
X64137735Y-123386742D01*
X63987601Y-123157161D01*
X63789895Y-122955500D01*
X63556646Y-122796285D01*
X63296818Y-122685633D01*
X63214039Y-122668096D01*
X62992000Y-122790085D01*
X62738000Y-122790085D01*
X62515961Y-122668096D01*
X62433182Y-122685633D01*
X62173354Y-122796285D01*
X61940105Y-122955500D01*
X61742399Y-123157161D01*
X61592265Y-123386741D01*
X61523932Y-123258899D01*
X61344607Y-123040392D01*
X61126100Y-122861068D01*
X60876807Y-122727818D01*
X60606308Y-122645764D01*
X60325000Y-122618057D01*
X60043691Y-122645764D01*
X59773192Y-122727818D01*
X59523899Y-122861068D01*
X59305392Y-123040393D01*
X59212581Y-123153483D01*
X59210812Y-123135518D01*
X59174502Y-123015820D01*
X59115537Y-122905506D01*
X59036185Y-122808815D01*
X58939494Y-122729463D01*
X58829180Y-122670498D01*
X58709482Y-122634188D01*
X58585000Y-122621928D01*
X56985000Y-122621928D01*
X56860518Y-122634188D01*
X56740820Y-122670498D01*
X56630506Y-122729463D01*
X56533815Y-122808815D01*
X56454463Y-122905506D01*
X56395498Y-123015820D01*
X56359188Y-123135518D01*
X56346928Y-123260000D01*
X54217003Y-123260000D01*
X54112240Y-123190000D01*
X54286632Y-123073475D01*
X54493475Y-122866632D01*
X54655990Y-122623411D01*
X54767932Y-122353158D01*
X54825000Y-122066260D01*
X54825000Y-121773740D01*
X54767932Y-121486842D01*
X54655990Y-121216589D01*
X54493475Y-120973368D01*
X54286632Y-120766525D01*
X54104466Y-120644805D01*
X54221355Y-120575178D01*
X54437588Y-120380269D01*
X54611641Y-120146920D01*
X54736825Y-119884099D01*
X54781476Y-119736890D01*
X54660155Y-119507000D01*
X53467000Y-119507000D01*
X53467000Y-119527000D01*
X53213000Y-119527000D01*
X53213000Y-119507000D01*
X52019845Y-119507000D01*
X51898524Y-119736890D01*
X51943175Y-119884099D01*
X52068359Y-120146920D01*
X52242412Y-120380269D01*
X52458645Y-120575178D01*
X52575534Y-120644805D01*
X52393368Y-120766525D01*
X52186525Y-120973368D01*
X52024010Y-121216589D01*
X51912068Y-121486842D01*
X51855000Y-121773740D01*
X51460000Y-121773740D01*
X51460000Y-115990000D01*
X51851928Y-115990000D01*
X51851928Y-117690000D01*
X51864188Y-117814482D01*
X51900498Y-117934180D01*
X51959463Y-118044494D01*
X52038815Y-118141185D01*
X52135506Y-118220537D01*
X52245820Y-118279502D01*
X52326466Y-118303966D01*
X52242412Y-118379731D01*
X52068359Y-118613080D01*
X51943175Y-118875901D01*
X51898524Y-119023110D01*
X52019845Y-119253000D01*
X53213000Y-119253000D01*
X53213000Y-119233000D01*
X53467000Y-119233000D01*
X53467000Y-119253000D01*
X54660155Y-119253000D01*
X54781476Y-119023110D01*
X54736825Y-118875901D01*
X54611641Y-118613080D01*
X54437588Y-118379731D01*
X54353534Y-118303966D01*
X54434180Y-118279502D01*
X54544494Y-118220537D01*
X54641185Y-118141185D01*
X54720537Y-118044494D01*
X54779502Y-117934180D01*
X54815812Y-117814482D01*
X54828072Y-117690000D01*
X54828072Y-116369509D01*
X56350000Y-116369509D01*
X56350000Y-117310492D01*
X56370764Y-117521309D01*
X56452818Y-117791808D01*
X56586068Y-118041101D01*
X56765393Y-118259608D01*
X56983900Y-118438932D01*
X57233193Y-118572182D01*
X57503692Y-118654236D01*
X57785000Y-118681943D01*
X58066309Y-118654236D01*
X58336808Y-118572182D01*
X58586101Y-118438932D01*
X58804608Y-118259608D01*
X58983932Y-118041101D01*
X59055000Y-117908142D01*
X59126068Y-118041101D01*
X59305393Y-118259608D01*
X59523900Y-118438932D01*
X59773193Y-118572182D01*
X60043692Y-118654236D01*
X60325000Y-118681943D01*
X60606309Y-118654236D01*
X60817836Y-118590071D01*
X62920506Y-120692742D01*
X62948341Y-120726659D01*
X63083709Y-120837753D01*
X63238149Y-120920303D01*
X63304058Y-120940296D01*
X63405724Y-120971136D01*
X63428387Y-120973368D01*
X63536333Y-120984000D01*
X63536339Y-120984000D01*
X63579999Y-120988300D01*
X63623659Y-120984000D01*
X68083151Y-120984000D01*
X68100363Y-121009759D01*
X68300241Y-121209637D01*
X68535273Y-121366680D01*
X68796426Y-121474853D01*
X69073665Y-121530000D01*
X69356335Y-121530000D01*
X69633574Y-121474853D01*
X69894727Y-121366680D01*
X70129759Y-121209637D01*
X70329637Y-121009759D01*
X70486680Y-120774727D01*
X70594853Y-120513574D01*
X70650000Y-120236335D01*
X70650000Y-119953665D01*
X70594853Y-119676426D01*
X70486680Y-119415273D01*
X70329637Y-119180241D01*
X70129759Y-118980363D01*
X69894727Y-118823320D01*
X69633574Y-118715147D01*
X69356335Y-118660000D01*
X69073665Y-118660000D01*
X68796426Y-118715147D01*
X68535273Y-118823320D01*
X68300241Y-118980363D01*
X68100363Y-119180241D01*
X68083151Y-119206000D01*
X63948236Y-119206000D01*
X63338248Y-118596013D01*
X63416808Y-118572182D01*
X63666101Y-118438932D01*
X63884608Y-118259608D01*
X64063932Y-118041101D01*
X64135000Y-117908142D01*
X64206068Y-118041101D01*
X64385393Y-118259608D01*
X64603900Y-118438932D01*
X64853193Y-118572182D01*
X65123692Y-118654236D01*
X65405000Y-118681943D01*
X65686309Y-118654236D01*
X65956808Y-118572182D01*
X66206101Y-118438932D01*
X66424608Y-118259608D01*
X66603932Y-118041101D01*
X66737182Y-117791808D01*
X66819236Y-117521309D01*
X66840000Y-117310491D01*
X66840000Y-116662223D01*
X70665000Y-116662223D01*
X70665000Y-117017777D01*
X70734365Y-117366499D01*
X70870429Y-117694988D01*
X71067965Y-117990621D01*
X71319379Y-118242035D01*
X71615012Y-118439571D01*
X71943501Y-118575635D01*
X72292223Y-118645000D01*
X72647777Y-118645000D01*
X72996499Y-118575635D01*
X73324988Y-118439571D01*
X73620621Y-118242035D01*
X73872035Y-117990621D01*
X74069571Y-117694988D01*
X74205635Y-117366499D01*
X74275000Y-117017777D01*
X74275000Y-116662223D01*
X75665000Y-116662223D01*
X75665000Y-117017777D01*
X75734365Y-117366499D01*
X75870429Y-117694988D01*
X76067965Y-117990621D01*
X76319379Y-118242035D01*
X76615012Y-118439571D01*
X76943501Y-118575635D01*
X77292223Y-118645000D01*
X77647777Y-118645000D01*
X77996499Y-118575635D01*
X78324988Y-118439571D01*
X78620621Y-118242035D01*
X78872035Y-117990621D01*
X79069571Y-117694988D01*
X79205635Y-117366499D01*
X79275000Y-117017777D01*
X79275000Y-116662223D01*
X80665000Y-116662223D01*
X80665000Y-117017777D01*
X80734365Y-117366499D01*
X80870429Y-117694988D01*
X81067965Y-117990621D01*
X81319379Y-118242035D01*
X81615012Y-118439571D01*
X81943501Y-118575635D01*
X82292223Y-118645000D01*
X82647777Y-118645000D01*
X82996499Y-118575635D01*
X83324988Y-118439571D01*
X83620621Y-118242035D01*
X83872035Y-117990621D01*
X84069571Y-117694988D01*
X84205635Y-117366499D01*
X84275000Y-117017777D01*
X84275000Y-116662223D01*
X84205635Y-116313501D01*
X84069571Y-115985012D01*
X83872035Y-115689379D01*
X83620621Y-115437965D01*
X83324988Y-115240429D01*
X82996499Y-115104365D01*
X82647777Y-115035000D01*
X82292223Y-115035000D01*
X81943501Y-115104365D01*
X81615012Y-115240429D01*
X81319379Y-115437965D01*
X81067965Y-115689379D01*
X80870429Y-115985012D01*
X80734365Y-116313501D01*
X80665000Y-116662223D01*
X79275000Y-116662223D01*
X79205635Y-116313501D01*
X79069571Y-115985012D01*
X78872035Y-115689379D01*
X78620621Y-115437965D01*
X78324988Y-115240429D01*
X77996499Y-115104365D01*
X77647777Y-115035000D01*
X77292223Y-115035000D01*
X76943501Y-115104365D01*
X76615012Y-115240429D01*
X76319379Y-115437965D01*
X76067965Y-115689379D01*
X75870429Y-115985012D01*
X75734365Y-116313501D01*
X75665000Y-116662223D01*
X74275000Y-116662223D01*
X74205635Y-116313501D01*
X74069571Y-115985012D01*
X73872035Y-115689379D01*
X73620621Y-115437965D01*
X73324988Y-115240429D01*
X72996499Y-115104365D01*
X72647777Y-115035000D01*
X72292223Y-115035000D01*
X71943501Y-115104365D01*
X71615012Y-115240429D01*
X71319379Y-115437965D01*
X71067965Y-115689379D01*
X70870429Y-115985012D01*
X70734365Y-116313501D01*
X70665000Y-116662223D01*
X66840000Y-116662223D01*
X66840000Y-116369508D01*
X66819236Y-116158691D01*
X66737182Y-115888192D01*
X66603932Y-115638899D01*
X66424607Y-115420392D01*
X66206100Y-115241068D01*
X65956807Y-115107818D01*
X65686308Y-115025764D01*
X65405000Y-114998057D01*
X65123691Y-115025764D01*
X64853192Y-115107818D01*
X64603899Y-115241068D01*
X64385392Y-115420393D01*
X64206068Y-115638900D01*
X64135000Y-115771858D01*
X64063932Y-115638899D01*
X63884607Y-115420392D01*
X63666100Y-115241068D01*
X63416807Y-115107818D01*
X63146308Y-115025764D01*
X62865000Y-114998057D01*
X62583691Y-115025764D01*
X62313192Y-115107818D01*
X62063899Y-115241068D01*
X61845392Y-115420393D01*
X61666068Y-115638900D01*
X61595000Y-115771858D01*
X61523932Y-115638899D01*
X61344607Y-115420392D01*
X61126100Y-115241068D01*
X60876807Y-115107818D01*
X60606308Y-115025764D01*
X60325000Y-114998057D01*
X60043691Y-115025764D01*
X59773192Y-115107818D01*
X59523899Y-115241068D01*
X59305392Y-115420393D01*
X59126068Y-115638900D01*
X59055000Y-115771858D01*
X58983932Y-115638899D01*
X58804607Y-115420392D01*
X58586100Y-115241068D01*
X58336807Y-115107818D01*
X58066308Y-115025764D01*
X57785000Y-114998057D01*
X57503691Y-115025764D01*
X57233192Y-115107818D01*
X56983899Y-115241068D01*
X56765392Y-115420393D01*
X56586068Y-115638900D01*
X56452818Y-115888193D01*
X56370764Y-116158692D01*
X56350000Y-116369509D01*
X54828072Y-116369509D01*
X54828072Y-115990000D01*
X54815812Y-115865518D01*
X54779502Y-115745820D01*
X54720537Y-115635506D01*
X54641185Y-115538815D01*
X54544494Y-115459463D01*
X54434180Y-115400498D01*
X54314482Y-115364188D01*
X54190000Y-115351928D01*
X52490000Y-115351928D01*
X52365518Y-115364188D01*
X52245820Y-115400498D01*
X52135506Y-115459463D01*
X52038815Y-115538815D01*
X51959463Y-115635506D01*
X51900498Y-115745820D01*
X51864188Y-115865518D01*
X51851928Y-115990000D01*
X51460000Y-115990000D01*
X51460000Y-114325000D01*
X103480001Y-114325000D01*
X103480000Y-140945000D01*
G37*
X103480000Y-140945000D02*
X51460000Y-140945000D01*
X51460000Y-138215000D01*
X51851928Y-138215000D01*
X51851928Y-139915000D01*
X51864188Y-140039482D01*
X51900498Y-140159180D01*
X51959463Y-140269494D01*
X52038815Y-140366185D01*
X52135506Y-140445537D01*
X52245820Y-140504502D01*
X52365518Y-140540812D01*
X52490000Y-140553072D01*
X54190000Y-140553072D01*
X54314482Y-140540812D01*
X54434180Y-140504502D01*
X54544494Y-140445537D01*
X54641185Y-140366185D01*
X54720537Y-140269494D01*
X54779502Y-140159180D01*
X54801513Y-140086620D01*
X54933368Y-140218475D01*
X55176589Y-140380990D01*
X55446842Y-140492932D01*
X55733740Y-140550000D01*
X56026260Y-140550000D01*
X56313158Y-140492932D01*
X56583411Y-140380990D01*
X56826632Y-140218475D01*
X57033475Y-140011632D01*
X57150000Y-139837240D01*
X57266525Y-140011632D01*
X57473368Y-140218475D01*
X57716589Y-140380990D01*
X57986842Y-140492932D01*
X58273740Y-140550000D01*
X58566260Y-140550000D01*
X58853158Y-140492932D01*
X59123411Y-140380990D01*
X59366632Y-140218475D01*
X59573475Y-140011632D01*
X59690000Y-139837240D01*
X59806525Y-140011632D01*
X60013368Y-140218475D01*
X60256589Y-140380990D01*
X60526842Y-140492932D01*
X60813740Y-140550000D01*
X61106260Y-140550000D01*
X61393158Y-140492932D01*
X61663411Y-140380990D01*
X61906632Y-140218475D01*
X62113475Y-140011632D01*
X62230000Y-139837240D01*
X62346525Y-140011632D01*
X62553368Y-140218475D01*
X62796589Y-140380990D01*
X63066842Y-140492932D01*
X63353740Y-140550000D01*
X63646260Y-140550000D01*
X63933158Y-140492932D01*
X64203411Y-140380990D01*
X64446632Y-140218475D01*
X64653475Y-140011632D01*
X64770000Y-139837240D01*
X64886525Y-140011632D01*
X65093368Y-140218475D01*
X65336589Y-140380990D01*
X65606842Y-140492932D01*
X65893740Y-140550000D01*
X66186260Y-140550000D01*
X66473158Y-140492932D01*
X66743411Y-140380990D01*
X66986632Y-140218475D01*
X67193475Y-140011632D01*
X67310000Y-139837240D01*
X67426525Y-140011632D01*
X67633368Y-140218475D01*
X67876589Y-140380990D01*
X68146842Y-140492932D01*
X68433740Y-140550000D01*
X68726260Y-140550000D01*
X69013158Y-140492932D01*
X69283411Y-140380990D01*
X69526632Y-140218475D01*
X69733475Y-140011632D01*
X69850000Y-139837240D01*
X69966525Y-140011632D01*
X70173368Y-140218475D01*
X70416589Y-140380990D01*
X70686842Y-140492932D01*
X70973740Y-140550000D01*
X71266260Y-140550000D01*
X71553158Y-140492932D01*
X71823411Y-140380990D01*
X72066632Y-140218475D01*
X72273475Y-140011632D01*
X72390000Y-139837240D01*
X72506525Y-140011632D01*
X72713368Y-140218475D01*
X72956589Y-140380990D01*
X73226842Y-140492932D01*
X73513740Y-140550000D01*
X73806260Y-140550000D01*
X74093158Y-140492932D01*
X74363411Y-140380990D01*
X74606632Y-140218475D01*
X74813475Y-140011632D01*
X74930000Y-139837240D01*
X75046525Y-140011632D01*
X75253368Y-140218475D01*
X75496589Y-140380990D01*
X75766842Y-140492932D01*
X76053740Y-140550000D01*
X76346260Y-140550000D01*
X76633158Y-140492932D01*
X76903411Y-140380990D01*
X77146632Y-140218475D01*
X77353475Y-140011632D01*
X77470000Y-139837240D01*
X77586525Y-140011632D01*
X77793368Y-140218475D01*
X78036589Y-140380990D01*
X78306842Y-140492932D01*
X78593740Y-140550000D01*
X78886260Y-140550000D01*
X79173158Y-140492932D01*
X79443411Y-140380990D01*
X79686632Y-140218475D01*
X79893475Y-140011632D01*
X80010000Y-139837240D01*
X80126525Y-140011632D01*
X80333368Y-140218475D01*
X80576589Y-140380990D01*
X80846842Y-140492932D01*
X81133740Y-140550000D01*
X81426260Y-140550000D01*
X81713158Y-140492932D01*
X81983411Y-140380990D01*
X82226632Y-140218475D01*
X82433475Y-140011632D01*
X82550000Y-139837240D01*
X82666525Y-140011632D01*
X82873368Y-140218475D01*
X83116589Y-140380990D01*
X83386842Y-140492932D01*
X83673740Y-140550000D01*
X83966260Y-140550000D01*
X84253158Y-140492932D01*
X84523411Y-140380990D01*
X84766632Y-140218475D01*
X84973475Y-140011632D01*
X85090000Y-139837240D01*
X85206525Y-140011632D01*
X85413368Y-140218475D01*
X85656589Y-140380990D01*
X85926842Y-140492932D01*
X86213740Y-140550000D01*
X86506260Y-140550000D01*
X86793158Y-140492932D01*
X87063411Y-140380990D01*
X87306632Y-140218475D01*
X87513475Y-140011632D01*
X87630000Y-139837240D01*
X87746525Y-140011632D01*
X87953368Y-140218475D01*
X88196589Y-140380990D01*
X88466842Y-140492932D01*
X88753740Y-140550000D01*
X89046260Y-140550000D01*
X89333158Y-140492932D01*
X89603411Y-140380990D01*
X89846632Y-140218475D01*
X90053475Y-140011632D01*
X90170000Y-139837240D01*
X90286525Y-140011632D01*
X90493368Y-140218475D01*
X90736589Y-140380990D01*
X91006842Y-140492932D01*
X91293740Y-140550000D01*
X91586260Y-140550000D01*
X91873158Y-140492932D01*
X92143411Y-140380990D01*
X92386632Y-140218475D01*
X92593475Y-140011632D01*
X92710000Y-139837240D01*
X92826525Y-140011632D01*
X93033368Y-140218475D01*
X93276589Y-140380990D01*
X93546842Y-140492932D01*
X93833740Y-140550000D01*
X94126260Y-140550000D01*
X94413158Y-140492932D01*
X94683411Y-140380990D01*
X94926632Y-140218475D01*
X95133475Y-140011632D01*
X95250000Y-139837240D01*
X95366525Y-140011632D01*
X95573368Y-140218475D01*
X95816589Y-140380990D01*
X96086842Y-140492932D01*
X96373740Y-140550000D01*
X96666260Y-140550000D01*
X96953158Y-140492932D01*
X97223411Y-140380990D01*
X97466632Y-140218475D01*
X97673475Y-140011632D01*
X97790000Y-139837240D01*
X97906525Y-140011632D01*
X98113368Y-140218475D01*
X98356589Y-140380990D01*
X98626842Y-140492932D01*
X98913740Y-140550000D01*
X99206260Y-140550000D01*
X99493158Y-140492932D01*
X99763411Y-140380990D01*
X100006632Y-140218475D01*
X100213475Y-140011632D01*
X100330000Y-139837240D01*
X100446525Y-140011632D01*
X100653368Y-140218475D01*
X100896589Y-140380990D01*
X101166842Y-140492932D01*
X101453740Y-140550000D01*
X101746260Y-140550000D01*
X102033158Y-140492932D01*
X102303411Y-140380990D01*
X102546632Y-140218475D01*
X102753475Y-140011632D01*
X102915990Y-139768411D01*
X103027932Y-139498158D01*
X103085000Y-139211260D01*
X103085000Y-138918740D01*
X103027932Y-138631842D01*
X102915990Y-138361589D01*
X102753475Y-138118368D01*
X102546632Y-137911525D01*
X102303411Y-137749010D01*
X102033158Y-137637068D01*
X101746260Y-137580000D01*
X101453740Y-137580000D01*
X101166842Y-137637068D01*
X100896589Y-137749010D01*
X100653368Y-137911525D01*
X100446525Y-138118368D01*
X100330000Y-138292760D01*
X100213475Y-138118368D01*
X100006632Y-137911525D01*
X99763411Y-137749010D01*
X99493158Y-137637068D01*
X99206260Y-137580000D01*
X98913740Y-137580000D01*
X98626842Y-137637068D01*
X98356589Y-137749010D01*
X98113368Y-137911525D01*
X97906525Y-138118368D01*
X97790000Y-138292760D01*
X97673475Y-138118368D01*
X97466632Y-137911525D01*
X97223411Y-137749010D01*
X96953158Y-137637068D01*
X96666260Y-137580000D01*
X96373740Y-137580000D01*
X96086842Y-137637068D01*
X95816589Y-137749010D01*
X95573368Y-137911525D01*
X95366525Y-138118368D01*
X95250000Y-138292760D01*
X95133475Y-138118368D01*
X94926632Y-137911525D01*
X94683411Y-137749010D01*
X94413158Y-137637068D01*
X94126260Y-137580000D01*
X93833740Y-137580000D01*
X93546842Y-137637068D01*
X93276589Y-137749010D01*
X93033368Y-137911525D01*
X92826525Y-138118368D01*
X92710000Y-138292760D01*
X92593475Y-138118368D01*
X92386632Y-137911525D01*
X92143411Y-137749010D01*
X91873158Y-137637068D01*
X91586260Y-137580000D01*
X91293740Y-137580000D01*
X91006842Y-137637068D01*
X90736589Y-137749010D01*
X90493368Y-137911525D01*
X90286525Y-138118368D01*
X90170000Y-138292760D01*
X90053475Y-138118368D01*
X89846632Y-137911525D01*
X89603411Y-137749010D01*
X89333158Y-137637068D01*
X89046260Y-137580000D01*
X88753740Y-137580000D01*
X88466842Y-137637068D01*
X88196589Y-137749010D01*
X87953368Y-137911525D01*
X87746525Y-138118368D01*
X87630000Y-138292760D01*
X87513475Y-138118368D01*
X87306632Y-137911525D01*
X87063411Y-137749010D01*
X86793158Y-137637068D01*
X86506260Y-137580000D01*
X86213740Y-137580000D01*
X85926842Y-137637068D01*
X85656589Y-137749010D01*
X85413368Y-137911525D01*
X85206525Y-138118368D01*
X85090000Y-138292760D01*
X84973475Y-138118368D01*
X84766632Y-137911525D01*
X84523411Y-137749010D01*
X84253158Y-137637068D01*
X83966260Y-137580000D01*
X83673740Y-137580000D01*
X83386842Y-137637068D01*
X83116589Y-137749010D01*
X82873368Y-137911525D01*
X82666525Y-138118368D01*
X82550000Y-138292760D01*
X82433475Y-138118368D01*
X82226632Y-137911525D01*
X81983411Y-137749010D01*
X81713158Y-137637068D01*
X81426260Y-137580000D01*
X81133740Y-137580000D01*
X80846842Y-137637068D01*
X80576589Y-137749010D01*
X80333368Y-137911525D01*
X80126525Y-138118368D01*
X80010000Y-138292760D01*
X79893475Y-138118368D01*
X79686632Y-137911525D01*
X79443411Y-137749010D01*
X79173158Y-137637068D01*
X78886260Y-137580000D01*
X78593740Y-137580000D01*
X78306842Y-137637068D01*
X78036589Y-137749010D01*
X77793368Y-137911525D01*
X77586525Y-138118368D01*
X77470000Y-138292760D01*
X77353475Y-138118368D01*
X77146632Y-137911525D01*
X76903411Y-137749010D01*
X76633158Y-137637068D01*
X76346260Y-137580000D01*
X76053740Y-137580000D01*
X75766842Y-137637068D01*
X75496589Y-137749010D01*
X75253368Y-137911525D01*
X75046525Y-138118368D01*
X74930000Y-138292760D01*
X74813475Y-138118368D01*
X74606632Y-137911525D01*
X74363411Y-137749010D01*
X74093158Y-137637068D01*
X73806260Y-137580000D01*
X73513740Y-137580000D01*
X73226842Y-137637068D01*
X72956589Y-137749010D01*
X72713368Y-137911525D01*
X72506525Y-138118368D01*
X72390000Y-138292760D01*
X72273475Y-138118368D01*
X72066632Y-137911525D01*
X71823411Y-137749010D01*
X71553158Y-137637068D01*
X71266260Y-137580000D01*
X70973740Y-137580000D01*
X70686842Y-137637068D01*
X70416589Y-137749010D01*
X70173368Y-137911525D01*
X69966525Y-138118368D01*
X69850000Y-138292760D01*
X69733475Y-138118368D01*
X69526632Y-137911525D01*
X69283411Y-137749010D01*
X69013158Y-137637068D01*
X68726260Y-137580000D01*
X68433740Y-137580000D01*
X68146842Y-137637068D01*
X67876589Y-137749010D01*
X67633368Y-137911525D01*
X67426525Y-138118368D01*
X67310000Y-138292760D01*
X67193475Y-138118368D01*
X66986632Y-137911525D01*
X66743411Y-137749010D01*
X66473158Y-137637068D01*
X66186260Y-137580000D01*
X65893740Y-137580000D01*
X65606842Y-137637068D01*
X65336589Y-137749010D01*
X65093368Y-137911525D01*
X64886525Y-138118368D01*
X64770000Y-138292760D01*
X64653475Y-138118368D01*
X64446632Y-137911525D01*
X64203411Y-137749010D01*
X63933158Y-137637068D01*
X63646260Y-137580000D01*
X63353740Y-137580000D01*
X63066842Y-137637068D01*
X62796589Y-137749010D01*
X62553368Y-137911525D01*
X62346525Y-138118368D01*
X62230000Y-138292760D01*
X62113475Y-138118368D01*
X61906632Y-137911525D01*
X61663411Y-137749010D01*
X61393158Y-137637068D01*
X61106260Y-137580000D01*
X60813740Y-137580000D01*
X60526842Y-137637068D01*
X60256589Y-137749010D01*
X60013368Y-137911525D01*
X59806525Y-138118368D01*
X59690000Y-138292760D01*
X59573475Y-138118368D01*
X59366632Y-137911525D01*
X59123411Y-137749010D01*
X58853158Y-137637068D01*
X58566260Y-137580000D01*
X58273740Y-137580000D01*
X57986842Y-137637068D01*
X57716589Y-137749010D01*
X57473368Y-137911525D01*
X57266525Y-138118368D01*
X57150000Y-138292760D01*
X57033475Y-138118368D01*
X56826632Y-137911525D01*
X56583411Y-137749010D01*
X56313158Y-137637068D01*
X56026260Y-137580000D01*
X55733740Y-137580000D01*
X55446842Y-137637068D01*
X55176589Y-137749010D01*
X54933368Y-137911525D01*
X54801513Y-138043380D01*
X54779502Y-137970820D01*
X54720537Y-137860506D01*
X54641185Y-137763815D01*
X54544494Y-137684463D01*
X54434180Y-137625498D01*
X54314482Y-137589188D01*
X54190000Y-137576928D01*
X52490000Y-137576928D01*
X52365518Y-137589188D01*
X52245820Y-137625498D01*
X52135506Y-137684463D01*
X52038815Y-137763815D01*
X51959463Y-137860506D01*
X51900498Y-137970820D01*
X51864188Y-138090518D01*
X51851928Y-138215000D01*
X51460000Y-138215000D01*
X51460000Y-135758514D01*
X52005000Y-135758514D01*
X52005000Y-136021486D01*
X52056304Y-136279405D01*
X52156939Y-136522359D01*
X52303038Y-136741013D01*
X52488987Y-136926962D01*
X52707641Y-137073061D01*
X52950595Y-137173696D01*
X53208514Y-137225000D01*
X53471486Y-137225000D01*
X53729405Y-137173696D01*
X53972359Y-137073061D01*
X54191013Y-136926962D01*
X54376962Y-136741013D01*
X54523061Y-136522359D01*
X54610000Y-136312470D01*
X54696939Y-136522359D01*
X54843038Y-136741013D01*
X55028987Y-136926962D01*
X55247641Y-137073061D01*
X55490595Y-137173696D01*
X55748514Y-137225000D01*
X56011486Y-137225000D01*
X56269405Y-137173696D01*
X56512359Y-137073061D01*
X56731013Y-136926962D01*
X56916962Y-136741013D01*
X57063061Y-136522359D01*
X57150000Y-136312470D01*
X57236939Y-136522359D01*
X57383038Y-136741013D01*
X57568987Y-136926962D01*
X57787641Y-137073061D01*
X58030595Y-137173696D01*
X58288514Y-137225000D01*
X58551486Y-137225000D01*
X58809405Y-137173696D01*
X59052359Y-137073061D01*
X59271013Y-136926962D01*
X59456962Y-136741013D01*
X59603061Y-136522359D01*
X59690000Y-136312470D01*
X59776939Y-136522359D01*
X59923038Y-136741013D01*
X60108987Y-136926962D01*
X60327641Y-137073061D01*
X60570595Y-137173696D01*
X60828514Y-137225000D01*
X61091486Y-137225000D01*
X61349405Y-137173696D01*
X61592359Y-137073061D01*
X61811013Y-136926962D01*
X61996962Y-136741013D01*
X62143061Y-136522359D01*
X62230000Y-136312470D01*
X62316939Y-136522359D01*
X62463038Y-136741013D01*
X62648987Y-136926962D01*
X62867641Y-137073061D01*
X63110595Y-137173696D01*
X63368514Y-137225000D01*
X63631486Y-137225000D01*
X63889405Y-137173696D01*
X64132359Y-137073061D01*
X64351013Y-136926962D01*
X64536962Y-136741013D01*
X64683061Y-136522359D01*
X64770000Y-136312470D01*
X64856939Y-136522359D01*
X65003038Y-136741013D01*
X65188987Y-136926962D01*
X65407641Y-137073061D01*
X65650595Y-137173696D01*
X65908514Y-137225000D01*
X66171486Y-137225000D01*
X66429405Y-137173696D01*
X66672359Y-137073061D01*
X66891013Y-136926962D01*
X67076962Y-136741013D01*
X67223061Y-136522359D01*
X67310000Y-136312470D01*
X67396939Y-136522359D01*
X67543038Y-136741013D01*
X67728987Y-136926962D01*
X67947641Y-137073061D01*
X68190595Y-137173696D01*
X68448514Y-137225000D01*
X68711486Y-137225000D01*
X68969405Y-137173696D01*
X69212359Y-137073061D01*
X69431013Y-136926962D01*
X69616962Y-136741013D01*
X69763061Y-136522359D01*
X69850000Y-136312470D01*
X69936939Y-136522359D01*
X70083038Y-136741013D01*
X70268987Y-136926962D01*
X70487641Y-137073061D01*
X70730595Y-137173696D01*
X70988514Y-137225000D01*
X71251486Y-137225000D01*
X71509405Y-137173696D01*
X71752359Y-137073061D01*
X71971013Y-136926962D01*
X72156962Y-136741013D01*
X72303061Y-136522359D01*
X72390000Y-136312470D01*
X72476939Y-136522359D01*
X72623038Y-136741013D01*
X72808987Y-136926962D01*
X73027641Y-137073061D01*
X73270595Y-137173696D01*
X73528514Y-137225000D01*
X73791486Y-137225000D01*
X74049405Y-137173696D01*
X74292359Y-137073061D01*
X74511013Y-136926962D01*
X74696962Y-136741013D01*
X74843061Y-136522359D01*
X74930000Y-136312470D01*
X75016939Y-136522359D01*
X75163038Y-136741013D01*
X75348987Y-136926962D01*
X75567641Y-137073061D01*
X75810595Y-137173696D01*
X76068514Y-137225000D01*
X76331486Y-137225000D01*
X76589405Y-137173696D01*
X76832359Y-137073061D01*
X77051013Y-136926962D01*
X77236962Y-136741013D01*
X77383061Y-136522359D01*
X77470000Y-136312470D01*
X77556939Y-136522359D01*
X77703038Y-136741013D01*
X77888987Y-136926962D01*
X78107641Y-137073061D01*
X78350595Y-137173696D01*
X78608514Y-137225000D01*
X78871486Y-137225000D01*
X79129405Y-137173696D01*
X79372359Y-137073061D01*
X79591013Y-136926962D01*
X79776962Y-136741013D01*
X79923061Y-136522359D01*
X80010000Y-136312470D01*
X80096939Y-136522359D01*
X80243038Y-136741013D01*
X80428987Y-136926962D01*
X80647641Y-137073061D01*
X80890595Y-137173696D01*
X81148514Y-137225000D01*
X81411486Y-137225000D01*
X81669405Y-137173696D01*
X81912359Y-137073061D01*
X82131013Y-136926962D01*
X82316962Y-136741013D01*
X82463061Y-136522359D01*
X82550000Y-136312470D01*
X82636939Y-136522359D01*
X82783038Y-136741013D01*
X82968987Y-136926962D01*
X83187641Y-137073061D01*
X83430595Y-137173696D01*
X83688514Y-137225000D01*
X83951486Y-137225000D01*
X84209405Y-137173696D01*
X84452359Y-137073061D01*
X84671013Y-136926962D01*
X84856962Y-136741013D01*
X85003061Y-136522359D01*
X85090000Y-136312470D01*
X85176939Y-136522359D01*
X85323038Y-136741013D01*
X85508987Y-136926962D01*
X85727641Y-137073061D01*
X85970595Y-137173696D01*
X86228514Y-137225000D01*
X86491486Y-137225000D01*
X86749405Y-137173696D01*
X86992359Y-137073061D01*
X87211013Y-136926962D01*
X87396962Y-136741013D01*
X87543061Y-136522359D01*
X87630000Y-136312470D01*
X87716939Y-136522359D01*
X87863038Y-136741013D01*
X88048987Y-136926962D01*
X88267641Y-137073061D01*
X88510595Y-137173696D01*
X88768514Y-137225000D01*
X89031486Y-137225000D01*
X89289405Y-137173696D01*
X89532359Y-137073061D01*
X89751013Y-136926962D01*
X89936962Y-136741013D01*
X90083061Y-136522359D01*
X90170000Y-136312470D01*
X90256939Y-136522359D01*
X90403038Y-136741013D01*
X90588987Y-136926962D01*
X90807641Y-137073061D01*
X91050595Y-137173696D01*
X91308514Y-137225000D01*
X91571486Y-137225000D01*
X91829405Y-137173696D01*
X92072359Y-137073061D01*
X92291013Y-136926962D01*
X92476962Y-136741013D01*
X92623061Y-136522359D01*
X92710000Y-136312470D01*
X92796939Y-136522359D01*
X92943038Y-136741013D01*
X93128987Y-136926962D01*
X93347641Y-137073061D01*
X93590595Y-137173696D01*
X93848514Y-137225000D01*
X94111486Y-137225000D01*
X94369405Y-137173696D01*
X94612359Y-137073061D01*
X94831013Y-136926962D01*
X95016962Y-136741013D01*
X95163061Y-136522359D01*
X95250000Y-136312470D01*
X95336939Y-136522359D01*
X95483038Y-136741013D01*
X95668987Y-136926962D01*
X95887641Y-137073061D01*
X96130595Y-137173696D01*
X96388514Y-137225000D01*
X96651486Y-137225000D01*
X96909405Y-137173696D01*
X97152359Y-137073061D01*
X97371013Y-136926962D01*
X97556962Y-136741013D01*
X97703061Y-136522359D01*
X97790000Y-136312470D01*
X97876939Y-136522359D01*
X98023038Y-136741013D01*
X98208987Y-136926962D01*
X98427641Y-137073061D01*
X98670595Y-137173696D01*
X98928514Y-137225000D01*
X99191486Y-137225000D01*
X99449405Y-137173696D01*
X99692359Y-137073061D01*
X99911013Y-136926962D01*
X100096962Y-136741013D01*
X100243061Y-136522359D01*
X100330000Y-136312470D01*
X100416939Y-136522359D01*
X100563038Y-136741013D01*
X100748987Y-136926962D01*
X100967641Y-137073061D01*
X101210595Y-137173696D01*
X101468514Y-137225000D01*
X101731486Y-137225000D01*
X101989405Y-137173696D01*
X102232359Y-137073061D01*
X102451013Y-136926962D01*
X102636962Y-136741013D01*
X102783061Y-136522359D01*
X102883696Y-136279405D01*
X102935000Y-136021486D01*
X102935000Y-135758514D01*
X102883696Y-135500595D01*
X102783061Y-135257641D01*
X102636962Y-135038987D01*
X102451013Y-134853038D01*
X102232359Y-134706939D01*
X101989405Y-134606304D01*
X101731486Y-134555000D01*
X101468514Y-134555000D01*
X101210595Y-134606304D01*
X100967641Y-134706939D01*
X100748987Y-134853038D01*
X100563038Y-135038987D01*
X100416939Y-135257641D01*
X100330000Y-135467530D01*
X100243061Y-135257641D01*
X100096962Y-135038987D01*
X99911013Y-134853038D01*
X99692359Y-134706939D01*
X99449405Y-134606304D01*
X99191486Y-134555000D01*
X98928514Y-134555000D01*
X98670595Y-134606304D01*
X98427641Y-134706939D01*
X98208987Y-134853038D01*
X98023038Y-135038987D01*
X97876939Y-135257641D01*
X97790000Y-135467530D01*
X97703061Y-135257641D01*
X97556962Y-135038987D01*
X97371013Y-134853038D01*
X97152359Y-134706939D01*
X96909405Y-134606304D01*
X96651486Y-134555000D01*
X96388514Y-134555000D01*
X96130595Y-134606304D01*
X95887641Y-134706939D01*
X95668987Y-134853038D01*
X95483038Y-135038987D01*
X95336939Y-135257641D01*
X95250000Y-135467530D01*
X95163061Y-135257641D01*
X95016962Y-135038987D01*
X94831013Y-134853038D01*
X94612359Y-134706939D01*
X94369405Y-134606304D01*
X94111486Y-134555000D01*
X93848514Y-134555000D01*
X93590595Y-134606304D01*
X93347641Y-134706939D01*
X93128987Y-134853038D01*
X92943038Y-135038987D01*
X92796939Y-135257641D01*
X92710000Y-135467530D01*
X92623061Y-135257641D01*
X92476962Y-135038987D01*
X92291013Y-134853038D01*
X92072359Y-134706939D01*
X91829405Y-134606304D01*
X91571486Y-134555000D01*
X91308514Y-134555000D01*
X91050595Y-134606304D01*
X90807641Y-134706939D01*
X90588987Y-134853038D01*
X90403038Y-135038987D01*
X90256939Y-135257641D01*
X90170000Y-135467530D01*
X90083061Y-135257641D01*
X89936962Y-135038987D01*
X89751013Y-134853038D01*
X89532359Y-134706939D01*
X89289405Y-134606304D01*
X89031486Y-134555000D01*
X88768514Y-134555000D01*
X88510595Y-134606304D01*
X88267641Y-134706939D01*
X88048987Y-134853038D01*
X87863038Y-135038987D01*
X87716939Y-135257641D01*
X87630000Y-135467530D01*
X87543061Y-135257641D01*
X87396962Y-135038987D01*
X87211013Y-134853038D01*
X86992359Y-134706939D01*
X86749405Y-134606304D01*
X86491486Y-134555000D01*
X86228514Y-134555000D01*
X85970595Y-134606304D01*
X85727641Y-134706939D01*
X85508987Y-134853038D01*
X85323038Y-135038987D01*
X85176939Y-135257641D01*
X85090000Y-135467530D01*
X85003061Y-135257641D01*
X84856962Y-135038987D01*
X84671013Y-134853038D01*
X84452359Y-134706939D01*
X84209405Y-134606304D01*
X83951486Y-134555000D01*
X83688514Y-134555000D01*
X83430595Y-134606304D01*
X83187641Y-134706939D01*
X82968987Y-134853038D01*
X82783038Y-135038987D01*
X82636939Y-135257641D01*
X82550000Y-135467530D01*
X82463061Y-135257641D01*
X82316962Y-135038987D01*
X82131013Y-134853038D01*
X81912359Y-134706939D01*
X81669405Y-134606304D01*
X81411486Y-134555000D01*
X81148514Y-134555000D01*
X80890595Y-134606304D01*
X80647641Y-134706939D01*
X80428987Y-134853038D01*
X80243038Y-135038987D01*
X80096939Y-135257641D01*
X80010000Y-135467530D01*
X79923061Y-135257641D01*
X79776962Y-135038987D01*
X79591013Y-134853038D01*
X79372359Y-134706939D01*
X79129405Y-134606304D01*
X78871486Y-134555000D01*
X78608514Y-134555000D01*
X78350595Y-134606304D01*
X78107641Y-134706939D01*
X77888987Y-134853038D01*
X77703038Y-135038987D01*
X77556939Y-135257641D01*
X77470000Y-135467530D01*
X77383061Y-135257641D01*
X77236962Y-135038987D01*
X77051013Y-134853038D01*
X76832359Y-134706939D01*
X76589405Y-134606304D01*
X76331486Y-134555000D01*
X76068514Y-134555000D01*
X75810595Y-134606304D01*
X75567641Y-134706939D01*
X75348987Y-134853038D01*
X75163038Y-135038987D01*
X75016939Y-135257641D01*
X74930000Y-135467530D01*
X74843061Y-135257641D01*
X74696962Y-135038987D01*
X74511013Y-134853038D01*
X74292359Y-134706939D01*
X74049405Y-134606304D01*
X73791486Y-134555000D01*
X73528514Y-134555000D01*
X73270595Y-134606304D01*
X73027641Y-134706939D01*
X72808987Y-134853038D01*
X72623038Y-135038987D01*
X72476939Y-135257641D01*
X72390000Y-135467530D01*
X72303061Y-135257641D01*
X72156962Y-135038987D01*
X71971013Y-134853038D01*
X71752359Y-134706939D01*
X71509405Y-134606304D01*
X71251486Y-134555000D01*
X70988514Y-134555000D01*
X70730595Y-134606304D01*
X70487641Y-134706939D01*
X70268987Y-134853038D01*
X70083038Y-135038987D01*
X69936939Y-135257641D01*
X69850000Y-135467530D01*
X69763061Y-135257641D01*
X69616962Y-135038987D01*
X69431013Y-134853038D01*
X69212359Y-134706939D01*
X68969405Y-134606304D01*
X68711486Y-134555000D01*
X68448514Y-134555000D01*
X68190595Y-134606304D01*
X67947641Y-134706939D01*
X67728987Y-134853038D01*
X67543038Y-135038987D01*
X67396939Y-135257641D01*
X67310000Y-135467530D01*
X67223061Y-135257641D01*
X67076962Y-135038987D01*
X66891013Y-134853038D01*
X66672359Y-134706939D01*
X66429405Y-134606304D01*
X66171486Y-134555000D01*
X65908514Y-134555000D01*
X65650595Y-134606304D01*
X65407641Y-134706939D01*
X65188987Y-134853038D01*
X65003038Y-135038987D01*
X64856939Y-135257641D01*
X64770000Y-135467530D01*
X64683061Y-135257641D01*
X64536962Y-135038987D01*
X64351013Y-134853038D01*
X64132359Y-134706939D01*
X63889405Y-134606304D01*
X63631486Y-134555000D01*
X63368514Y-134555000D01*
X63110595Y-134606304D01*
X62867641Y-134706939D01*
X62648987Y-134853038D01*
X62463038Y-135038987D01*
X62316939Y-135257641D01*
X62230000Y-135467530D01*
X62143061Y-135257641D01*
X61996962Y-135038987D01*
X61811013Y-134853038D01*
X61592359Y-134706939D01*
X61349405Y-134606304D01*
X61091486Y-134555000D01*
X60828514Y-134555000D01*
X60570595Y-134606304D01*
X60327641Y-134706939D01*
X60108987Y-134853038D01*
X59923038Y-135038987D01*
X59776939Y-135257641D01*
X59690000Y-135467530D01*
X59603061Y-135257641D01*
X59456962Y-135038987D01*
X59271013Y-134853038D01*
X59052359Y-134706939D01*
X58809405Y-134606304D01*
X58551486Y-134555000D01*
X58288514Y-134555000D01*
X58030595Y-134606304D01*
X57787641Y-134706939D01*
X57568987Y-134853038D01*
X57383038Y-135038987D01*
X57236939Y-135257641D01*
X57150000Y-135467530D01*
X57063061Y-135257641D01*
X56916962Y-135038987D01*
X56731013Y-134853038D01*
X56512359Y-134706939D01*
X56269405Y-134606304D01*
X56011486Y-134555000D01*
X55748514Y-134555000D01*
X55490595Y-134606304D01*
X55247641Y-134706939D01*
X55028987Y-134853038D01*
X54843038Y-135038987D01*
X54696939Y-135257641D01*
X54610000Y-135467530D01*
X54523061Y-135257641D01*
X54376962Y-135038987D01*
X54191013Y-134853038D01*
X53972359Y-134706939D01*
X53729405Y-134606304D01*
X53471486Y-134555000D01*
X53208514Y-134555000D01*
X52950595Y-134606304D01*
X52707641Y-134706939D01*
X52488987Y-134853038D01*
X52303038Y-135038987D01*
X52156939Y-135257641D01*
X52056304Y-135500595D01*
X52005000Y-135758514D01*
X51460000Y-135758514D01*
X51460000Y-130678514D01*
X52005000Y-130678514D01*
X52005000Y-130941486D01*
X52056304Y-131199405D01*
X52156939Y-131442359D01*
X52303038Y-131661013D01*
X52488987Y-131846962D01*
X52707641Y-131993061D01*
X52950595Y-132093696D01*
X53208514Y-132145000D01*
X53471486Y-132145000D01*
X53729405Y-132093696D01*
X53972359Y-131993061D01*
X54191013Y-131846962D01*
X54376962Y-131661013D01*
X54523061Y-131442359D01*
X54610000Y-131232470D01*
X54696939Y-131442359D01*
X54843038Y-131661013D01*
X55028987Y-131846962D01*
X55247641Y-131993061D01*
X55490595Y-132093696D01*
X55748514Y-132145000D01*
X56011486Y-132145000D01*
X56269405Y-132093696D01*
X56512359Y-131993061D01*
X56731013Y-131846962D01*
X56916962Y-131661013D01*
X57063061Y-131442359D01*
X57150000Y-131232470D01*
X57236939Y-131442359D01*
X57383038Y-131661013D01*
X57568987Y-131846962D01*
X57787641Y-131993061D01*
X58030595Y-132093696D01*
X58288514Y-132145000D01*
X58551486Y-132145000D01*
X58809405Y-132093696D01*
X59052359Y-131993061D01*
X59271013Y-131846962D01*
X59456962Y-131661013D01*
X59603061Y-131442359D01*
X59690000Y-131232470D01*
X59776939Y-131442359D01*
X59923038Y-131661013D01*
X60108987Y-131846962D01*
X60327641Y-131993061D01*
X60570595Y-132093696D01*
X60828514Y-132145000D01*
X61091486Y-132145000D01*
X61349405Y-132093696D01*
X61592359Y-131993061D01*
X61811013Y-131846962D01*
X61996962Y-131661013D01*
X62143061Y-131442359D01*
X62230000Y-131232470D01*
X62316939Y-131442359D01*
X62463038Y-131661013D01*
X62648987Y-131846962D01*
X62867641Y-131993061D01*
X63110595Y-132093696D01*
X63368514Y-132145000D01*
X63631486Y-132145000D01*
X63889405Y-132093696D01*
X64132359Y-131993061D01*
X64351013Y-131846962D01*
X64536962Y-131661013D01*
X64683061Y-131442359D01*
X64770000Y-131232470D01*
X64856939Y-131442359D01*
X65003038Y-131661013D01*
X65188987Y-131846962D01*
X65407641Y-131993061D01*
X65650595Y-132093696D01*
X65908514Y-132145000D01*
X66171486Y-132145000D01*
X66429405Y-132093696D01*
X66672359Y-131993061D01*
X66891013Y-131846962D01*
X67076962Y-131661013D01*
X67223061Y-131442359D01*
X67310000Y-131232470D01*
X67396939Y-131442359D01*
X67543038Y-131661013D01*
X67728987Y-131846962D01*
X67947641Y-131993061D01*
X68190595Y-132093696D01*
X68448514Y-132145000D01*
X68711486Y-132145000D01*
X68969405Y-132093696D01*
X69212359Y-131993061D01*
X69431013Y-131846962D01*
X69616962Y-131661013D01*
X69763061Y-131442359D01*
X69850000Y-131232470D01*
X69936939Y-131442359D01*
X70083038Y-131661013D01*
X70268987Y-131846962D01*
X70487641Y-131993061D01*
X70730595Y-132093696D01*
X70988514Y-132145000D01*
X71251486Y-132145000D01*
X71509405Y-132093696D01*
X71752359Y-131993061D01*
X71971013Y-131846962D01*
X72156962Y-131661013D01*
X72303061Y-131442359D01*
X72390000Y-131232470D01*
X72476939Y-131442359D01*
X72623038Y-131661013D01*
X72808987Y-131846962D01*
X73027641Y-131993061D01*
X73270595Y-132093696D01*
X73528514Y-132145000D01*
X73791486Y-132145000D01*
X74049405Y-132093696D01*
X74292359Y-131993061D01*
X74511013Y-131846962D01*
X74696962Y-131661013D01*
X74843061Y-131442359D01*
X74930000Y-131232470D01*
X75016939Y-131442359D01*
X75163038Y-131661013D01*
X75348987Y-131846962D01*
X75567641Y-131993061D01*
X75810595Y-132093696D01*
X76068514Y-132145000D01*
X76331486Y-132145000D01*
X76589405Y-132093696D01*
X76832359Y-131993061D01*
X77051013Y-131846962D01*
X77236962Y-131661013D01*
X77383061Y-131442359D01*
X77470000Y-131232470D01*
X77556939Y-131442359D01*
X77703038Y-131661013D01*
X77888987Y-131846962D01*
X78107641Y-131993061D01*
X78350595Y-132093696D01*
X78608514Y-132145000D01*
X78871486Y-132145000D01*
X79129405Y-132093696D01*
X79372359Y-131993061D01*
X79591013Y-131846962D01*
X79776962Y-131661013D01*
X79923061Y-131442359D01*
X80010000Y-131232470D01*
X80096939Y-131442359D01*
X80243038Y-131661013D01*
X80428987Y-131846962D01*
X80647641Y-131993061D01*
X80890595Y-132093696D01*
X81148514Y-132145000D01*
X81411486Y-132145000D01*
X81669405Y-132093696D01*
X81912359Y-131993061D01*
X82131013Y-131846962D01*
X82316962Y-131661013D01*
X82463061Y-131442359D01*
X82550000Y-131232470D01*
X82636939Y-131442359D01*
X82783038Y-131661013D01*
X82968987Y-131846962D01*
X83187641Y-131993061D01*
X83430595Y-132093696D01*
X83688514Y-132145000D01*
X83951486Y-132145000D01*
X84209405Y-132093696D01*
X84452359Y-131993061D01*
X84671013Y-131846962D01*
X84856962Y-131661013D01*
X85003061Y-131442359D01*
X85090000Y-131232470D01*
X85176939Y-131442359D01*
X85323038Y-131661013D01*
X85508987Y-131846962D01*
X85727641Y-131993061D01*
X85970595Y-132093696D01*
X86228514Y-132145000D01*
X86491486Y-132145000D01*
X86749405Y-132093696D01*
X86992359Y-131993061D01*
X87211013Y-131846962D01*
X87396962Y-131661013D01*
X87543061Y-131442359D01*
X87630000Y-131232470D01*
X87716939Y-131442359D01*
X87863038Y-131661013D01*
X88048987Y-131846962D01*
X88267641Y-131993061D01*
X88510595Y-132093696D01*
X88768514Y-132145000D01*
X89031486Y-132145000D01*
X89289405Y-132093696D01*
X89532359Y-131993061D01*
X89751013Y-131846962D01*
X89936962Y-131661013D01*
X90083061Y-131442359D01*
X90170000Y-131232470D01*
X90256939Y-131442359D01*
X90403038Y-131661013D01*
X90588987Y-131846962D01*
X90807641Y-131993061D01*
X91050595Y-132093696D01*
X91308514Y-132145000D01*
X91571486Y-132145000D01*
X91829405Y-132093696D01*
X92072359Y-131993061D01*
X92291013Y-131846962D01*
X92476962Y-131661013D01*
X92623061Y-131442359D01*
X92710000Y-131232470D01*
X92796939Y-131442359D01*
X92943038Y-131661013D01*
X93128987Y-131846962D01*
X93347641Y-131993061D01*
X93590595Y-132093696D01*
X93848514Y-132145000D01*
X94111486Y-132145000D01*
X94369405Y-132093696D01*
X94612359Y-131993061D01*
X94831013Y-131846962D01*
X95016962Y-131661013D01*
X95163061Y-131442359D01*
X95250000Y-131232470D01*
X95336939Y-131442359D01*
X95483038Y-131661013D01*
X95668987Y-131846962D01*
X95887641Y-131993061D01*
X96130595Y-132093696D01*
X96388514Y-132145000D01*
X96651486Y-132145000D01*
X96909405Y-132093696D01*
X97152359Y-131993061D01*
X97371013Y-131846962D01*
X97556962Y-131661013D01*
X97703061Y-131442359D01*
X97790000Y-131232470D01*
X97876939Y-131442359D01*
X98023038Y-131661013D01*
X98208987Y-131846962D01*
X98427641Y-131993061D01*
X98670595Y-132093696D01*
X98928514Y-132145000D01*
X99191486Y-132145000D01*
X99449405Y-132093696D01*
X99692359Y-131993061D01*
X99911013Y-131846962D01*
X100096962Y-131661013D01*
X100243061Y-131442359D01*
X100330000Y-131232470D01*
X100416939Y-131442359D01*
X100563038Y-131661013D01*
X100748987Y-131846962D01*
X100967641Y-131993061D01*
X101210595Y-132093696D01*
X101468514Y-132145000D01*
X101731486Y-132145000D01*
X101989405Y-132093696D01*
X102232359Y-131993061D01*
X102451013Y-131846962D01*
X102636962Y-131661013D01*
X102783061Y-131442359D01*
X102883696Y-131199405D01*
X102935000Y-130941486D01*
X102935000Y-130678514D01*
X102883696Y-130420595D01*
X102783061Y-130177641D01*
X102636962Y-129958987D01*
X102451013Y-129773038D01*
X102232359Y-129626939D01*
X101989405Y-129526304D01*
X101731486Y-129475000D01*
X101468514Y-129475000D01*
X101210595Y-129526304D01*
X100967641Y-129626939D01*
X100748987Y-129773038D01*
X100563038Y-129958987D01*
X100416939Y-130177641D01*
X100330000Y-130387530D01*
X100243061Y-130177641D01*
X100096962Y-129958987D01*
X99911013Y-129773038D01*
X99692359Y-129626939D01*
X99449405Y-129526304D01*
X99191486Y-129475000D01*
X98928514Y-129475000D01*
X98670595Y-129526304D01*
X98427641Y-129626939D01*
X98208987Y-129773038D01*
X98023038Y-129958987D01*
X97876939Y-130177641D01*
X97790000Y-130387530D01*
X97703061Y-130177641D01*
X97556962Y-129958987D01*
X97371013Y-129773038D01*
X97152359Y-129626939D01*
X96909405Y-129526304D01*
X96651486Y-129475000D01*
X96388514Y-129475000D01*
X96130595Y-129526304D01*
X95887641Y-129626939D01*
X95668987Y-129773038D01*
X95483038Y-129958987D01*
X95336939Y-130177641D01*
X95250000Y-130387530D01*
X95163061Y-130177641D01*
X95016962Y-129958987D01*
X94831013Y-129773038D01*
X94612359Y-129626939D01*
X94369405Y-129526304D01*
X94111486Y-129475000D01*
X93848514Y-129475000D01*
X93590595Y-129526304D01*
X93347641Y-129626939D01*
X93128987Y-129773038D01*
X92943038Y-129958987D01*
X92796939Y-130177641D01*
X92710000Y-130387530D01*
X92623061Y-130177641D01*
X92476962Y-129958987D01*
X92291013Y-129773038D01*
X92072359Y-129626939D01*
X91829405Y-129526304D01*
X91571486Y-129475000D01*
X91308514Y-129475000D01*
X91050595Y-129526304D01*
X90807641Y-129626939D01*
X90588987Y-129773038D01*
X90403038Y-129958987D01*
X90256939Y-130177641D01*
X90170000Y-130387530D01*
X90083061Y-130177641D01*
X89936962Y-129958987D01*
X89751013Y-129773038D01*
X89532359Y-129626939D01*
X89289405Y-129526304D01*
X89031486Y-129475000D01*
X88768514Y-129475000D01*
X88510595Y-129526304D01*
X88267641Y-129626939D01*
X88048987Y-129773038D01*
X87863038Y-129958987D01*
X87716939Y-130177641D01*
X87630000Y-130387530D01*
X87543061Y-130177641D01*
X87396962Y-129958987D01*
X87211013Y-129773038D01*
X86992359Y-129626939D01*
X86749405Y-129526304D01*
X86491486Y-129475000D01*
X86228514Y-129475000D01*
X85970595Y-129526304D01*
X85727641Y-129626939D01*
X85508987Y-129773038D01*
X85323038Y-129958987D01*
X85176939Y-130177641D01*
X85090000Y-130387530D01*
X85003061Y-130177641D01*
X84856962Y-129958987D01*
X84671013Y-129773038D01*
X84452359Y-129626939D01*
X84209405Y-129526304D01*
X83951486Y-129475000D01*
X83688514Y-129475000D01*
X83430595Y-129526304D01*
X83187641Y-129626939D01*
X82968987Y-129773038D01*
X82783038Y-129958987D01*
X82636939Y-130177641D01*
X82550000Y-130387530D01*
X82463061Y-130177641D01*
X82316962Y-129958987D01*
X82131013Y-129773038D01*
X81912359Y-129626939D01*
X81669405Y-129526304D01*
X81411486Y-129475000D01*
X81148514Y-129475000D01*
X80890595Y-129526304D01*
X80647641Y-129626939D01*
X80428987Y-129773038D01*
X80243038Y-129958987D01*
X80096939Y-130177641D01*
X80010000Y-130387530D01*
X79923061Y-130177641D01*
X79776962Y-129958987D01*
X79591013Y-129773038D01*
X79372359Y-129626939D01*
X79129405Y-129526304D01*
X78871486Y-129475000D01*
X78608514Y-129475000D01*
X78350595Y-129526304D01*
X78107641Y-129626939D01*
X77888987Y-129773038D01*
X77703038Y-129958987D01*
X77556939Y-130177641D01*
X77470000Y-130387530D01*
X77383061Y-130177641D01*
X77236962Y-129958987D01*
X77051013Y-129773038D01*
X76832359Y-129626939D01*
X76589405Y-129526304D01*
X76331486Y-129475000D01*
X76068514Y-129475000D01*
X75810595Y-129526304D01*
X75567641Y-129626939D01*
X75348987Y-129773038D01*
X75163038Y-129958987D01*
X75016939Y-130177641D01*
X74930000Y-130387530D01*
X74843061Y-130177641D01*
X74696962Y-129958987D01*
X74511013Y-129773038D01*
X74292359Y-129626939D01*
X74049405Y-129526304D01*
X73791486Y-129475000D01*
X73528514Y-129475000D01*
X73270595Y-129526304D01*
X73027641Y-129626939D01*
X72808987Y-129773038D01*
X72623038Y-129958987D01*
X72476939Y-130177641D01*
X72390000Y-130387530D01*
X72303061Y-130177641D01*
X72156962Y-129958987D01*
X71971013Y-129773038D01*
X71752359Y-129626939D01*
X71509405Y-129526304D01*
X71251486Y-129475000D01*
X70988514Y-129475000D01*
X70730595Y-129526304D01*
X70487641Y-129626939D01*
X70268987Y-129773038D01*
X70083038Y-129958987D01*
X69936939Y-130177641D01*
X69850000Y-130387530D01*
X69763061Y-130177641D01*
X69616962Y-129958987D01*
X69431013Y-129773038D01*
X69212359Y-129626939D01*
X68969405Y-129526304D01*
X68711486Y-129475000D01*
X68448514Y-129475000D01*
X68190595Y-129526304D01*
X67947641Y-129626939D01*
X67728987Y-129773038D01*
X67543038Y-129958987D01*
X67396939Y-130177641D01*
X67310000Y-130387530D01*
X67223061Y-130177641D01*
X67076962Y-129958987D01*
X66891013Y-129773038D01*
X66672359Y-129626939D01*
X66429405Y-129526304D01*
X66171486Y-129475000D01*
X65908514Y-129475000D01*
X65650595Y-129526304D01*
X65407641Y-129626939D01*
X65188987Y-129773038D01*
X65003038Y-129958987D01*
X64856939Y-130177641D01*
X64770000Y-130387530D01*
X64683061Y-130177641D01*
X64536962Y-129958987D01*
X64351013Y-129773038D01*
X64132359Y-129626939D01*
X63889405Y-129526304D01*
X63631486Y-129475000D01*
X63368514Y-129475000D01*
X63110595Y-129526304D01*
X62867641Y-129626939D01*
X62648987Y-129773038D01*
X62463038Y-129958987D01*
X62316939Y-130177641D01*
X62230000Y-130387530D01*
X62143061Y-130177641D01*
X61996962Y-129958987D01*
X61811013Y-129773038D01*
X61592359Y-129626939D01*
X61349405Y-129526304D01*
X61091486Y-129475000D01*
X60828514Y-129475000D01*
X60570595Y-129526304D01*
X60327641Y-129626939D01*
X60108987Y-129773038D01*
X59923038Y-129958987D01*
X59776939Y-130177641D01*
X59690000Y-130387530D01*
X59603061Y-130177641D01*
X59456962Y-129958987D01*
X59271013Y-129773038D01*
X59052359Y-129626939D01*
X58809405Y-129526304D01*
X58551486Y-129475000D01*
X58288514Y-129475000D01*
X58030595Y-129526304D01*
X57787641Y-129626939D01*
X57568987Y-129773038D01*
X57383038Y-129958987D01*
X57236939Y-130177641D01*
X57150000Y-130387530D01*
X57063061Y-130177641D01*
X56916962Y-129958987D01*
X56731013Y-129773038D01*
X56512359Y-129626939D01*
X56269405Y-129526304D01*
X56011486Y-129475000D01*
X55748514Y-129475000D01*
X55490595Y-129526304D01*
X55247641Y-129626939D01*
X55028987Y-129773038D01*
X54843038Y-129958987D01*
X54696939Y-130177641D01*
X54610000Y-130387530D01*
X54523061Y-130177641D01*
X54376962Y-129958987D01*
X54191013Y-129773038D01*
X53972359Y-129626939D01*
X53729405Y-129526304D01*
X53471486Y-129475000D01*
X53208514Y-129475000D01*
X52950595Y-129526304D01*
X52707641Y-129626939D01*
X52488987Y-129773038D01*
X52303038Y-129958987D01*
X52156939Y-130177641D01*
X52056304Y-130420595D01*
X52005000Y-130678514D01*
X51460000Y-130678514D01*
X51460000Y-128627702D01*
X60781903Y-128627702D01*
X60853486Y-128871671D01*
X61108996Y-128992571D01*
X61383184Y-129061300D01*
X61665512Y-129075217D01*
X61945130Y-129033787D01*
X62211292Y-128938603D01*
X62336514Y-128871671D01*
X62408097Y-128627702D01*
X61595000Y-127814605D01*
X60781903Y-128627702D01*
X51460000Y-128627702D01*
X51460000Y-127705512D01*
X60154783Y-127705512D01*
X60196213Y-127985130D01*
X60291397Y-128251292D01*
X60358329Y-128376514D01*
X60602298Y-128448097D01*
X61415395Y-127635000D01*
X61774605Y-127635000D01*
X62587702Y-128448097D01*
X62831671Y-128376514D01*
X62952571Y-128121004D01*
X63021300Y-127846816D01*
X63035217Y-127564488D01*
X63024724Y-127493665D01*
X65160000Y-127493665D01*
X65160000Y-127776335D01*
X65215147Y-128053574D01*
X65323320Y-128314727D01*
X65480363Y-128549759D01*
X65680241Y-128749637D01*
X65915273Y-128906680D01*
X66176426Y-129014853D01*
X66453665Y-129070000D01*
X66736335Y-129070000D01*
X67013574Y-129014853D01*
X67274727Y-128906680D01*
X67509759Y-128749637D01*
X67709637Y-128549759D01*
X67866680Y-128314727D01*
X67974853Y-128053574D01*
X68030000Y-127776335D01*
X68030000Y-127493665D01*
X67974853Y-127216426D01*
X67866680Y-126955273D01*
X67709637Y-126720241D01*
X67509759Y-126520363D01*
X67274727Y-126363320D01*
X67013574Y-126255147D01*
X66736335Y-126200000D01*
X66453665Y-126200000D01*
X66176426Y-126255147D01*
X65915273Y-126363320D01*
X65680241Y-126520363D01*
X65480363Y-126720241D01*
X65323320Y-126955273D01*
X65215147Y-127216426D01*
X65160000Y-127493665D01*
X63024724Y-127493665D01*
X62993787Y-127284870D01*
X62898603Y-127018708D01*
X62831671Y-126893486D01*
X62587702Y-126821903D01*
X61774605Y-127635000D01*
X61415395Y-127635000D01*
X60602298Y-126821903D01*
X60358329Y-126893486D01*
X60237429Y-127148996D01*
X60168700Y-127423184D01*
X60154783Y-127705512D01*
X51460000Y-127705512D01*
X51460000Y-126642298D01*
X60781903Y-126642298D01*
X61595000Y-127455395D01*
X62408097Y-126642298D01*
X62336514Y-126398329D01*
X62081004Y-126277429D01*
X61806816Y-126208700D01*
X61524488Y-126194783D01*
X61244870Y-126236213D01*
X60978708Y-126331397D01*
X60853486Y-126398329D01*
X60781903Y-126642298D01*
X51460000Y-126642298D01*
X51460000Y-121773740D01*
X51855000Y-121773740D01*
X51855000Y-122066260D01*
X51912068Y-122353158D01*
X52024010Y-122623411D01*
X52186525Y-122866632D01*
X52393368Y-123073475D01*
X52567760Y-123190000D01*
X52393368Y-123306525D01*
X52186525Y-123513368D01*
X52024010Y-123756589D01*
X51912068Y-124026842D01*
X51855000Y-124313740D01*
X51855000Y-124606260D01*
X51912068Y-124893158D01*
X52024010Y-125163411D01*
X52186525Y-125406632D01*
X52393368Y-125613475D01*
X52636589Y-125775990D01*
X52906842Y-125887932D01*
X53193740Y-125945000D01*
X53486260Y-125945000D01*
X53773158Y-125887932D01*
X54043411Y-125775990D01*
X54286632Y-125613475D01*
X54493475Y-125406632D01*
X54655990Y-125163411D01*
X54767932Y-124893158D01*
X54825000Y-124606260D01*
X54825000Y-124313740D01*
X54767932Y-124026842D01*
X54655990Y-123756589D01*
X54493475Y-123513368D01*
X54286632Y-123306525D01*
X54217003Y-123260000D01*
X56346928Y-123260000D01*
X56346928Y-125660000D01*
X56359188Y-125784482D01*
X56395498Y-125904180D01*
X56454463Y-126014494D01*
X56533815Y-126111185D01*
X56630506Y-126190537D01*
X56740820Y-126249502D01*
X56860518Y-126285812D01*
X56985000Y-126298072D01*
X58585000Y-126298072D01*
X58709482Y-126285812D01*
X58829180Y-126249502D01*
X58939494Y-126190537D01*
X59036185Y-126111185D01*
X59115537Y-126014494D01*
X59174502Y-125904180D01*
X59210812Y-125784482D01*
X59212581Y-125766517D01*
X59305393Y-125879608D01*
X59523900Y-126058932D01*
X59773193Y-126192182D01*
X60043692Y-126274236D01*
X60325000Y-126301943D01*
X60606309Y-126274236D01*
X60876808Y-126192182D01*
X61126101Y-126058932D01*
X61344608Y-125879608D01*
X61523932Y-125661101D01*
X61592265Y-125533259D01*
X61742399Y-125762839D01*
X61940105Y-125964500D01*
X62173354Y-126123715D01*
X62433182Y-126234367D01*
X62515961Y-126251904D01*
X62738000Y-126129915D01*
X62738000Y-124587000D01*
X62718000Y-124587000D01*
X62718000Y-124333000D01*
X62738000Y-124333000D01*
X62738000Y-122790085D01*
X62992000Y-122790085D01*
X62992000Y-124333000D01*
X63012000Y-124333000D01*
X63012000Y-124587000D01*
X62992000Y-124587000D01*
X62992000Y-126129915D01*
X63214039Y-126251904D01*
X63296818Y-126234367D01*
X63556646Y-126123715D01*
X63789895Y-125964500D01*
X63987601Y-125762839D01*
X64137735Y-125533259D01*
X64206068Y-125661101D01*
X64385393Y-125879608D01*
X64603900Y-126058932D01*
X64853193Y-126192182D01*
X65123692Y-126274236D01*
X65405000Y-126301943D01*
X65686309Y-126274236D01*
X65956808Y-126192182D01*
X66152276Y-126087702D01*
X68401903Y-126087702D01*
X68473486Y-126331671D01*
X68728996Y-126452571D01*
X69003184Y-126521300D01*
X69285512Y-126535217D01*
X69565130Y-126493787D01*
X69831292Y-126398603D01*
X69956514Y-126331671D01*
X70028097Y-126087702D01*
X69215000Y-125274605D01*
X68401903Y-126087702D01*
X66152276Y-126087702D01*
X66206101Y-126058932D01*
X66424608Y-125879608D01*
X66603932Y-125661101D01*
X66737182Y-125411808D01*
X66811894Y-125165512D01*
X67774783Y-125165512D01*
X67816213Y-125445130D01*
X67911397Y-125711292D01*
X67978329Y-125836514D01*
X68222298Y-125908097D01*
X69035395Y-125095000D01*
X69394605Y-125095000D01*
X70207702Y-125908097D01*
X70451671Y-125836514D01*
X70568946Y-125588665D01*
X81115000Y-125588665D01*
X81115000Y-125871335D01*
X81170147Y-126148574D01*
X81278320Y-126409727D01*
X81435363Y-126644759D01*
X81635241Y-126844637D01*
X81870273Y-127001680D01*
X82131426Y-127109853D01*
X82408665Y-127165000D01*
X82691335Y-127165000D01*
X82968574Y-127109853D01*
X83229727Y-127001680D01*
X83464759Y-126844637D01*
X83664637Y-126644759D01*
X83821680Y-126409727D01*
X83929853Y-126148574D01*
X83985000Y-125871335D01*
X83985000Y-125588665D01*
X86115000Y-125588665D01*
X86115000Y-125871335D01*
X86170147Y-126148574D01*
X86278320Y-126409727D01*
X86435363Y-126644759D01*
X86635241Y-126844637D01*
X86870273Y-127001680D01*
X87131426Y-127109853D01*
X87408665Y-127165000D01*
X87691335Y-127165000D01*
X87968574Y-127109853D01*
X88229727Y-127001680D01*
X88464759Y-126844637D01*
X88664637Y-126644759D01*
X88821680Y-126409727D01*
X88929853Y-126148574D01*
X88985000Y-125871335D01*
X88985000Y-125588665D01*
X88929853Y-125311426D01*
X88821680Y-125050273D01*
X88707908Y-124880000D01*
X89316928Y-124880000D01*
X89316928Y-126580000D01*
X89329188Y-126704482D01*
X89365498Y-126824180D01*
X89424463Y-126934494D01*
X89503815Y-127031185D01*
X89600506Y-127110537D01*
X89710820Y-127169502D01*
X89830518Y-127205812D01*
X89955000Y-127218072D01*
X91655000Y-127218072D01*
X91779482Y-127205812D01*
X91899180Y-127169502D01*
X92009494Y-127110537D01*
X92106185Y-127031185D01*
X92185537Y-126934494D01*
X92244502Y-126824180D01*
X92280812Y-126704482D01*
X92293072Y-126580000D01*
X92293072Y-125508665D01*
X95720000Y-125508665D01*
X95720000Y-125791335D01*
X95775147Y-126068574D01*
X95883320Y-126329727D01*
X96040363Y-126564759D01*
X96240241Y-126764637D01*
X96475273Y-126921680D01*
X96736426Y-127029853D01*
X97013665Y-127085000D01*
X97296335Y-127085000D01*
X97573574Y-127029853D01*
X97834727Y-126921680D01*
X98069759Y-126764637D01*
X98269637Y-126564759D01*
X98426680Y-126329727D01*
X98534853Y-126068574D01*
X98590000Y-125791335D01*
X98590000Y-125508665D01*
X98534853Y-125231426D01*
X98426680Y-124970273D01*
X98366362Y-124880000D01*
X100111928Y-124880000D01*
X100111928Y-126580000D01*
X100124188Y-126704482D01*
X100160498Y-126824180D01*
X100219463Y-126934494D01*
X100298815Y-127031185D01*
X100395506Y-127110537D01*
X100505820Y-127169502D01*
X100625518Y-127205812D01*
X100750000Y-127218072D01*
X102450000Y-127218072D01*
X102574482Y-127205812D01*
X102694180Y-127169502D01*
X102804494Y-127110537D01*
X102901185Y-127031185D01*
X102980537Y-126934494D01*
X103039502Y-126824180D01*
X103075812Y-126704482D01*
X103088072Y-126580000D01*
X103088072Y-124880000D01*
X103075812Y-124755518D01*
X103039502Y-124635820D01*
X102980537Y-124525506D01*
X102901185Y-124428815D01*
X102804494Y-124349463D01*
X102694180Y-124290498D01*
X102621620Y-124268487D01*
X102753475Y-124136632D01*
X102915990Y-123893411D01*
X103027932Y-123623158D01*
X103085000Y-123336260D01*
X103085000Y-123043740D01*
X103027932Y-122756842D01*
X102915990Y-122486589D01*
X102753475Y-122243368D01*
X102546632Y-122036525D01*
X102372240Y-121920000D01*
X102546632Y-121803475D01*
X102753475Y-121596632D01*
X102915990Y-121353411D01*
X103027932Y-121083158D01*
X103085000Y-120796260D01*
X103085000Y-120503740D01*
X103027932Y-120216842D01*
X102915990Y-119946589D01*
X102753475Y-119703368D01*
X102546632Y-119496525D01*
X102303411Y-119334010D01*
X102033158Y-119222068D01*
X101746260Y-119165000D01*
X101453740Y-119165000D01*
X101166842Y-119222068D01*
X100896589Y-119334010D01*
X100653368Y-119496525D01*
X100446525Y-119703368D01*
X100284010Y-119946589D01*
X100172068Y-120216842D01*
X100115000Y-120503740D01*
X100115000Y-120796260D01*
X100172068Y-121083158D01*
X100284010Y-121353411D01*
X100446525Y-121596632D01*
X100653368Y-121803475D01*
X100827760Y-121920000D01*
X100653368Y-122036525D01*
X100446525Y-122243368D01*
X100284010Y-122486589D01*
X100172068Y-122756842D01*
X100115000Y-123043740D01*
X100115000Y-123336260D01*
X100172068Y-123623158D01*
X100284010Y-123893411D01*
X100446525Y-124136632D01*
X100578380Y-124268487D01*
X100505820Y-124290498D01*
X100395506Y-124349463D01*
X100298815Y-124428815D01*
X100219463Y-124525506D01*
X100160498Y-124635820D01*
X100124188Y-124755518D01*
X100111928Y-124880000D01*
X98366362Y-124880000D01*
X98269637Y-124735241D01*
X98069759Y-124535363D01*
X97834727Y-124378320D01*
X97573574Y-124270147D01*
X97296335Y-124215000D01*
X97013665Y-124215000D01*
X96736426Y-124270147D01*
X96475273Y-124378320D01*
X96240241Y-124535363D01*
X96040363Y-124735241D01*
X95883320Y-124970273D01*
X95775147Y-125231426D01*
X95720000Y-125508665D01*
X92293072Y-125508665D01*
X92293072Y-124880000D01*
X92280812Y-124755518D01*
X92244502Y-124635820D01*
X92185537Y-124525506D01*
X92106185Y-124428815D01*
X92009494Y-124349463D01*
X91899180Y-124290498D01*
X91826620Y-124268487D01*
X91958475Y-124136632D01*
X92120990Y-123893411D01*
X92232932Y-123623158D01*
X92290000Y-123336260D01*
X92290000Y-123043740D01*
X92232932Y-122756842D01*
X92120990Y-122486589D01*
X91958475Y-122243368D01*
X91751632Y-122036525D01*
X91577240Y-121920000D01*
X91751632Y-121803475D01*
X91958475Y-121596632D01*
X92120990Y-121353411D01*
X92232932Y-121083158D01*
X92290000Y-120796260D01*
X92290000Y-120508665D01*
X95720000Y-120508665D01*
X95720000Y-120791335D01*
X95775147Y-121068574D01*
X95883320Y-121329727D01*
X96040363Y-121564759D01*
X96240241Y-121764637D01*
X96475273Y-121921680D01*
X96736426Y-122029853D01*
X97013665Y-122085000D01*
X97296335Y-122085000D01*
X97573574Y-122029853D01*
X97834727Y-121921680D01*
X98069759Y-121764637D01*
X98269637Y-121564759D01*
X98426680Y-121329727D01*
X98534853Y-121068574D01*
X98590000Y-120791335D01*
X98590000Y-120508665D01*
X98534853Y-120231426D01*
X98426680Y-119970273D01*
X98269637Y-119735241D01*
X98069759Y-119535363D01*
X97834727Y-119378320D01*
X97573574Y-119270147D01*
X97296335Y-119215000D01*
X97013665Y-119215000D01*
X96736426Y-119270147D01*
X96475273Y-119378320D01*
X96240241Y-119535363D01*
X96040363Y-119735241D01*
X95883320Y-119970273D01*
X95775147Y-120231426D01*
X95720000Y-120508665D01*
X92290000Y-120508665D01*
X92290000Y-120503740D01*
X92232932Y-120216842D01*
X92120990Y-119946589D01*
X91958475Y-119703368D01*
X91751632Y-119496525D01*
X91508411Y-119334010D01*
X91238158Y-119222068D01*
X90951260Y-119165000D01*
X90658740Y-119165000D01*
X90371842Y-119222068D01*
X90101589Y-119334010D01*
X89858368Y-119496525D01*
X89651525Y-119703368D01*
X89489010Y-119946589D01*
X89377068Y-120216842D01*
X89320000Y-120503740D01*
X89320000Y-120796260D01*
X89377068Y-121083158D01*
X89489010Y-121353411D01*
X89651525Y-121596632D01*
X89858368Y-121803475D01*
X90032760Y-121920000D01*
X89858368Y-122036525D01*
X89651525Y-122243368D01*
X89489010Y-122486589D01*
X89377068Y-122756842D01*
X89320000Y-123043740D01*
X89320000Y-123336260D01*
X89377068Y-123623158D01*
X89489010Y-123893411D01*
X89651525Y-124136632D01*
X89783380Y-124268487D01*
X89710820Y-124290498D01*
X89600506Y-124349463D01*
X89503815Y-124428815D01*
X89424463Y-124525506D01*
X89365498Y-124635820D01*
X89329188Y-124755518D01*
X89316928Y-124880000D01*
X88707908Y-124880000D01*
X88664637Y-124815241D01*
X88464759Y-124615363D01*
X88229727Y-124458320D01*
X88143126Y-124422449D01*
X88262359Y-124373061D01*
X88481013Y-124226962D01*
X88666962Y-124041013D01*
X88813061Y-123822359D01*
X88913696Y-123579405D01*
X88965000Y-123321486D01*
X88965000Y-123058514D01*
X88913696Y-122800595D01*
X88813061Y-122557641D01*
X88666962Y-122338987D01*
X88481013Y-122153038D01*
X88262359Y-122006939D01*
X88019405Y-121906304D01*
X87761486Y-121855000D01*
X87498514Y-121855000D01*
X87240595Y-121906304D01*
X86997641Y-122006939D01*
X86778987Y-122153038D01*
X86593038Y-122338987D01*
X86446939Y-122557641D01*
X86346304Y-122800595D01*
X86295000Y-123058514D01*
X86295000Y-123321486D01*
X86346304Y-123579405D01*
X86446939Y-123822359D01*
X86593038Y-124041013D01*
X86778987Y-124226962D01*
X86997641Y-124373061D01*
X87036874Y-124389312D01*
X86870273Y-124458320D01*
X86635241Y-124615363D01*
X86435363Y-124815241D01*
X86278320Y-125050273D01*
X86170147Y-125311426D01*
X86115000Y-125588665D01*
X83985000Y-125588665D01*
X83929853Y-125311426D01*
X83821680Y-125050273D01*
X83664637Y-124815241D01*
X83464759Y-124615363D01*
X83229727Y-124458320D01*
X83103126Y-124405880D01*
X83182359Y-124373061D01*
X83401013Y-124226962D01*
X83586962Y-124041013D01*
X83733061Y-123822359D01*
X83833696Y-123579405D01*
X83885000Y-123321486D01*
X83885000Y-123058514D01*
X83833696Y-122800595D01*
X83733061Y-122557641D01*
X83586962Y-122338987D01*
X83401013Y-122153038D01*
X83182359Y-122006939D01*
X82939405Y-121906304D01*
X82681486Y-121855000D01*
X82418514Y-121855000D01*
X82160595Y-121906304D01*
X81917641Y-122006939D01*
X81698987Y-122153038D01*
X81513038Y-122338987D01*
X81366939Y-122557641D01*
X81266304Y-122800595D01*
X81215000Y-123058514D01*
X81215000Y-123321486D01*
X81266304Y-123579405D01*
X81366939Y-123822359D01*
X81513038Y-124041013D01*
X81698987Y-124226962D01*
X81917641Y-124373061D01*
X81996874Y-124405880D01*
X81870273Y-124458320D01*
X81635241Y-124615363D01*
X81435363Y-124815241D01*
X81278320Y-125050273D01*
X81170147Y-125311426D01*
X81115000Y-125588665D01*
X70568946Y-125588665D01*
X70572571Y-125581004D01*
X70641300Y-125306816D01*
X70655217Y-125024488D01*
X70613787Y-124744870D01*
X70518603Y-124478708D01*
X70451671Y-124353486D01*
X70207702Y-124281903D01*
X69394605Y-125095000D01*
X69035395Y-125095000D01*
X68222298Y-124281903D01*
X67978329Y-124353486D01*
X67857429Y-124608996D01*
X67788700Y-124883184D01*
X67774783Y-125165512D01*
X66811894Y-125165512D01*
X66819236Y-125141309D01*
X66840000Y-124930491D01*
X66840000Y-124102298D01*
X68401903Y-124102298D01*
X69215000Y-124915395D01*
X70028097Y-124102298D01*
X69956514Y-123858329D01*
X69701004Y-123737429D01*
X69426816Y-123668700D01*
X69144488Y-123654783D01*
X68864870Y-123696213D01*
X68598708Y-123791397D01*
X68473486Y-123858329D01*
X68401903Y-124102298D01*
X66840000Y-124102298D01*
X66840000Y-123989508D01*
X66819236Y-123778691D01*
X66737182Y-123508192D01*
X66603932Y-123258899D01*
X66424607Y-123040392D01*
X66206100Y-122861068D01*
X65956807Y-122727818D01*
X65686308Y-122645764D01*
X65405000Y-122618057D01*
X65123691Y-122645764D01*
X64853192Y-122727818D01*
X64603899Y-122861068D01*
X64385392Y-123040393D01*
X64206068Y-123258900D01*
X64137735Y-123386742D01*
X63987601Y-123157161D01*
X63789895Y-122955500D01*
X63556646Y-122796285D01*
X63296818Y-122685633D01*
X63214039Y-122668096D01*
X62992000Y-122790085D01*
X62738000Y-122790085D01*
X62515961Y-122668096D01*
X62433182Y-122685633D01*
X62173354Y-122796285D01*
X61940105Y-122955500D01*
X61742399Y-123157161D01*
X61592265Y-123386741D01*
X61523932Y-123258899D01*
X61344607Y-123040392D01*
X61126100Y-122861068D01*
X60876807Y-122727818D01*
X60606308Y-122645764D01*
X60325000Y-122618057D01*
X60043691Y-122645764D01*
X59773192Y-122727818D01*
X59523899Y-122861068D01*
X59305392Y-123040393D01*
X59212581Y-123153483D01*
X59210812Y-123135518D01*
X59174502Y-123015820D01*
X59115537Y-122905506D01*
X59036185Y-122808815D01*
X58939494Y-122729463D01*
X58829180Y-122670498D01*
X58709482Y-122634188D01*
X58585000Y-122621928D01*
X56985000Y-122621928D01*
X56860518Y-122634188D01*
X56740820Y-122670498D01*
X56630506Y-122729463D01*
X56533815Y-122808815D01*
X56454463Y-122905506D01*
X56395498Y-123015820D01*
X56359188Y-123135518D01*
X56346928Y-123260000D01*
X54217003Y-123260000D01*
X54112240Y-123190000D01*
X54286632Y-123073475D01*
X54493475Y-122866632D01*
X54655990Y-122623411D01*
X54767932Y-122353158D01*
X54825000Y-122066260D01*
X54825000Y-121773740D01*
X54767932Y-121486842D01*
X54655990Y-121216589D01*
X54493475Y-120973368D01*
X54286632Y-120766525D01*
X54104466Y-120644805D01*
X54221355Y-120575178D01*
X54437588Y-120380269D01*
X54611641Y-120146920D01*
X54736825Y-119884099D01*
X54781476Y-119736890D01*
X54660155Y-119507000D01*
X53467000Y-119507000D01*
X53467000Y-119527000D01*
X53213000Y-119527000D01*
X53213000Y-119507000D01*
X52019845Y-119507000D01*
X51898524Y-119736890D01*
X51943175Y-119884099D01*
X52068359Y-120146920D01*
X52242412Y-120380269D01*
X52458645Y-120575178D01*
X52575534Y-120644805D01*
X52393368Y-120766525D01*
X52186525Y-120973368D01*
X52024010Y-121216589D01*
X51912068Y-121486842D01*
X51855000Y-121773740D01*
X51460000Y-121773740D01*
X51460000Y-115990000D01*
X51851928Y-115990000D01*
X51851928Y-117690000D01*
X51864188Y-117814482D01*
X51900498Y-117934180D01*
X51959463Y-118044494D01*
X52038815Y-118141185D01*
X52135506Y-118220537D01*
X52245820Y-118279502D01*
X52326466Y-118303966D01*
X52242412Y-118379731D01*
X52068359Y-118613080D01*
X51943175Y-118875901D01*
X51898524Y-119023110D01*
X52019845Y-119253000D01*
X53213000Y-119253000D01*
X53213000Y-119233000D01*
X53467000Y-119233000D01*
X53467000Y-119253000D01*
X54660155Y-119253000D01*
X54781476Y-119023110D01*
X54736825Y-118875901D01*
X54611641Y-118613080D01*
X54437588Y-118379731D01*
X54353534Y-118303966D01*
X54434180Y-118279502D01*
X54544494Y-118220537D01*
X54641185Y-118141185D01*
X54720537Y-118044494D01*
X54779502Y-117934180D01*
X54815812Y-117814482D01*
X54828072Y-117690000D01*
X54828072Y-116369509D01*
X56350000Y-116369509D01*
X56350000Y-117310492D01*
X56370764Y-117521309D01*
X56452818Y-117791808D01*
X56586068Y-118041101D01*
X56765393Y-118259608D01*
X56983900Y-118438932D01*
X57233193Y-118572182D01*
X57503692Y-118654236D01*
X57785000Y-118681943D01*
X58066309Y-118654236D01*
X58336808Y-118572182D01*
X58586101Y-118438932D01*
X58804608Y-118259608D01*
X58983932Y-118041101D01*
X59055000Y-117908142D01*
X59126068Y-118041101D01*
X59305393Y-118259608D01*
X59523900Y-118438932D01*
X59773193Y-118572182D01*
X60043692Y-118654236D01*
X60325000Y-118681943D01*
X60606309Y-118654236D01*
X60817836Y-118590071D01*
X62920506Y-120692742D01*
X62948341Y-120726659D01*
X63083709Y-120837753D01*
X63238149Y-120920303D01*
X63304058Y-120940296D01*
X63405724Y-120971136D01*
X63428387Y-120973368D01*
X63536333Y-120984000D01*
X63536339Y-120984000D01*
X63579999Y-120988300D01*
X63623659Y-120984000D01*
X68083151Y-120984000D01*
X68100363Y-121009759D01*
X68300241Y-121209637D01*
X68535273Y-121366680D01*
X68796426Y-121474853D01*
X69073665Y-121530000D01*
X69356335Y-121530000D01*
X69633574Y-121474853D01*
X69894727Y-121366680D01*
X70129759Y-121209637D01*
X70329637Y-121009759D01*
X70486680Y-120774727D01*
X70594853Y-120513574D01*
X70650000Y-120236335D01*
X70650000Y-119953665D01*
X70594853Y-119676426D01*
X70486680Y-119415273D01*
X70329637Y-119180241D01*
X70129759Y-118980363D01*
X69894727Y-118823320D01*
X69633574Y-118715147D01*
X69356335Y-118660000D01*
X69073665Y-118660000D01*
X68796426Y-118715147D01*
X68535273Y-118823320D01*
X68300241Y-118980363D01*
X68100363Y-119180241D01*
X68083151Y-119206000D01*
X63948236Y-119206000D01*
X63338248Y-118596013D01*
X63416808Y-118572182D01*
X63666101Y-118438932D01*
X63884608Y-118259608D01*
X64063932Y-118041101D01*
X64135000Y-117908142D01*
X64206068Y-118041101D01*
X64385393Y-118259608D01*
X64603900Y-118438932D01*
X64853193Y-118572182D01*
X65123692Y-118654236D01*
X65405000Y-118681943D01*
X65686309Y-118654236D01*
X65956808Y-118572182D01*
X66206101Y-118438932D01*
X66424608Y-118259608D01*
X66603932Y-118041101D01*
X66737182Y-117791808D01*
X66819236Y-117521309D01*
X66840000Y-117310491D01*
X66840000Y-116662223D01*
X70665000Y-116662223D01*
X70665000Y-117017777D01*
X70734365Y-117366499D01*
X70870429Y-117694988D01*
X71067965Y-117990621D01*
X71319379Y-118242035D01*
X71615012Y-118439571D01*
X71943501Y-118575635D01*
X72292223Y-118645000D01*
X72647777Y-118645000D01*
X72996499Y-118575635D01*
X73324988Y-118439571D01*
X73620621Y-118242035D01*
X73872035Y-117990621D01*
X74069571Y-117694988D01*
X74205635Y-117366499D01*
X74275000Y-117017777D01*
X74275000Y-116662223D01*
X75665000Y-116662223D01*
X75665000Y-117017777D01*
X75734365Y-117366499D01*
X75870429Y-117694988D01*
X76067965Y-117990621D01*
X76319379Y-118242035D01*
X76615012Y-118439571D01*
X76943501Y-118575635D01*
X77292223Y-118645000D01*
X77647777Y-118645000D01*
X77996499Y-118575635D01*
X78324988Y-118439571D01*
X78620621Y-118242035D01*
X78872035Y-117990621D01*
X79069571Y-117694988D01*
X79205635Y-117366499D01*
X79275000Y-117017777D01*
X79275000Y-116662223D01*
X80665000Y-116662223D01*
X80665000Y-117017777D01*
X80734365Y-117366499D01*
X80870429Y-117694988D01*
X81067965Y-117990621D01*
X81319379Y-118242035D01*
X81615012Y-118439571D01*
X81943501Y-118575635D01*
X82292223Y-118645000D01*
X82647777Y-118645000D01*
X82996499Y-118575635D01*
X83324988Y-118439571D01*
X83620621Y-118242035D01*
X83872035Y-117990621D01*
X84069571Y-117694988D01*
X84205635Y-117366499D01*
X84275000Y-117017777D01*
X84275000Y-116662223D01*
X84205635Y-116313501D01*
X84069571Y-115985012D01*
X83872035Y-115689379D01*
X83620621Y-115437965D01*
X83324988Y-115240429D01*
X82996499Y-115104365D01*
X82647777Y-115035000D01*
X82292223Y-115035000D01*
X81943501Y-115104365D01*
X81615012Y-115240429D01*
X81319379Y-115437965D01*
X81067965Y-115689379D01*
X80870429Y-115985012D01*
X80734365Y-116313501D01*
X80665000Y-116662223D01*
X79275000Y-116662223D01*
X79205635Y-116313501D01*
X79069571Y-115985012D01*
X78872035Y-115689379D01*
X78620621Y-115437965D01*
X78324988Y-115240429D01*
X77996499Y-115104365D01*
X77647777Y-115035000D01*
X77292223Y-115035000D01*
X76943501Y-115104365D01*
X76615012Y-115240429D01*
X76319379Y-115437965D01*
X76067965Y-115689379D01*
X75870429Y-115985012D01*
X75734365Y-116313501D01*
X75665000Y-116662223D01*
X74275000Y-116662223D01*
X74205635Y-116313501D01*
X74069571Y-115985012D01*
X73872035Y-115689379D01*
X73620621Y-115437965D01*
X73324988Y-115240429D01*
X72996499Y-115104365D01*
X72647777Y-115035000D01*
X72292223Y-115035000D01*
X71943501Y-115104365D01*
X71615012Y-115240429D01*
X71319379Y-115437965D01*
X71067965Y-115689379D01*
X70870429Y-115985012D01*
X70734365Y-116313501D01*
X70665000Y-116662223D01*
X66840000Y-116662223D01*
X66840000Y-116369508D01*
X66819236Y-116158691D01*
X66737182Y-115888192D01*
X66603932Y-115638899D01*
X66424607Y-115420392D01*
X66206100Y-115241068D01*
X65956807Y-115107818D01*
X65686308Y-115025764D01*
X65405000Y-114998057D01*
X65123691Y-115025764D01*
X64853192Y-115107818D01*
X64603899Y-115241068D01*
X64385392Y-115420393D01*
X64206068Y-115638900D01*
X64135000Y-115771858D01*
X64063932Y-115638899D01*
X63884607Y-115420392D01*
X63666100Y-115241068D01*
X63416807Y-115107818D01*
X63146308Y-115025764D01*
X62865000Y-114998057D01*
X62583691Y-115025764D01*
X62313192Y-115107818D01*
X62063899Y-115241068D01*
X61845392Y-115420393D01*
X61666068Y-115638900D01*
X61595000Y-115771858D01*
X61523932Y-115638899D01*
X61344607Y-115420392D01*
X61126100Y-115241068D01*
X60876807Y-115107818D01*
X60606308Y-115025764D01*
X60325000Y-114998057D01*
X60043691Y-115025764D01*
X59773192Y-115107818D01*
X59523899Y-115241068D01*
X59305392Y-115420393D01*
X59126068Y-115638900D01*
X59055000Y-115771858D01*
X58983932Y-115638899D01*
X58804607Y-115420392D01*
X58586100Y-115241068D01*
X58336807Y-115107818D01*
X58066308Y-115025764D01*
X57785000Y-114998057D01*
X57503691Y-115025764D01*
X57233192Y-115107818D01*
X56983899Y-115241068D01*
X56765392Y-115420393D01*
X56586068Y-115638900D01*
X56452818Y-115888193D01*
X56370764Y-116158692D01*
X56350000Y-116369509D01*
X54828072Y-116369509D01*
X54828072Y-115990000D01*
X54815812Y-115865518D01*
X54779502Y-115745820D01*
X54720537Y-115635506D01*
X54641185Y-115538815D01*
X54544494Y-115459463D01*
X54434180Y-115400498D01*
X54314482Y-115364188D01*
X54190000Y-115351928D01*
X52490000Y-115351928D01*
X52365518Y-115364188D01*
X52245820Y-115400498D01*
X52135506Y-115459463D01*
X52038815Y-115538815D01*
X51959463Y-115635506D01*
X51900498Y-115745820D01*
X51864188Y-115865518D01*
X51851928Y-115990000D01*
X51460000Y-115990000D01*
X51460000Y-114325000D01*
X103480001Y-114325000D01*
X103480000Y-140945000D01*
%TD*%
M02*
