%TF.GenerationSoftware,KiCad,Pcbnew,(5.1.6)-1*%
%TF.CreationDate,2020-12-16T20:36:01-05:00*%
%TF.ProjectId,SummingAmp,53756d6d-696e-4674-916d-702e6b696361,rev?*%
%TF.SameCoordinates,Original*%
%TF.FileFunction,Legend,Top*%
%TF.FilePolarity,Positive*%
%FSLAX46Y46*%
G04 Gerber Fmt 4.6, Leading zero omitted, Abs format (unit mm)*
G04 Created by KiCad (PCBNEW (5.1.6)-1) date 2020-12-16 20:36:01*
%MOMM*%
%LPD*%
G01*
G04 APERTURE LIST*
%ADD10C,0.187500*%
%ADD11C,0.120000*%
%ADD12C,0.150000*%
G04 APERTURE END LIST*
D10*
X55679571Y-122527142D02*
X55679571Y-121955714D01*
X55215285Y-121705714D02*
X55965285Y-121455714D01*
X55215285Y-121205714D01*
X55679571Y-117447142D02*
X55679571Y-116875714D01*
X55965285Y-117161428D02*
X55393857Y-117161428D01*
X55215285Y-116625714D02*
X55965285Y-116375714D01*
X55215285Y-116125714D01*
X55536714Y-119737142D02*
X55536714Y-119022857D01*
X55751000Y-119594285D02*
X55751000Y-119165714D01*
X55215285Y-119380000D02*
X55536714Y-119380000D01*
X55965285Y-119308571D02*
X55965285Y-119451428D01*
X55088285Y-125210000D02*
X55088285Y-125067142D01*
X55124000Y-124995714D01*
X55195428Y-124924285D01*
X55338285Y-124888571D01*
X55588285Y-124888571D01*
X55731142Y-124924285D01*
X55802571Y-124995714D01*
X55838285Y-125067142D01*
X55838285Y-125210000D01*
X55802571Y-125281428D01*
X55731142Y-125352857D01*
X55588285Y-125388571D01*
X55338285Y-125388571D01*
X55195428Y-125352857D01*
X55124000Y-125281428D01*
X55088285Y-125210000D01*
X55088285Y-124567142D02*
X55695428Y-124567142D01*
X55766857Y-124531428D01*
X55802571Y-124495714D01*
X55838285Y-124424285D01*
X55838285Y-124281428D01*
X55802571Y-124210000D01*
X55766857Y-124174285D01*
X55695428Y-124138571D01*
X55088285Y-124138571D01*
X55088285Y-123888571D02*
X55088285Y-123460000D01*
X55838285Y-123674285D02*
X55088285Y-123674285D01*
D11*
X99695000Y-123190000D02*
X99695000Y-125730000D01*
X99695000Y-125730000D02*
X100711000Y-125730000D01*
X100203000Y-123190000D02*
X99695000Y-123190000D01*
X99695000Y-120650000D02*
X99695000Y-123190000D01*
X100203000Y-120650000D02*
X99695000Y-120650000D01*
X92710000Y-125730000D02*
X92710000Y-123190000D01*
X91694000Y-125730000D02*
X92710000Y-125730000D01*
X92202000Y-123190000D02*
X92710000Y-123190000D01*
X92710000Y-120650000D02*
X92710000Y-123190000D01*
X92202000Y-120650000D02*
X92710000Y-120650000D01*
D10*
X100885714Y-128609285D02*
X100885714Y-127859285D01*
X101242857Y-128609285D02*
X101242857Y-127859285D01*
X101671428Y-128609285D01*
X101671428Y-127859285D01*
X101921428Y-127859285D02*
X102171428Y-128609285D01*
X102421428Y-127859285D01*
X90162142Y-128216428D02*
X89912142Y-128216428D01*
X89912142Y-128609285D02*
X89912142Y-127859285D01*
X90269285Y-127859285D01*
X90805000Y-128216428D02*
X90912142Y-128252142D01*
X90947857Y-128287857D01*
X90983571Y-128359285D01*
X90983571Y-128466428D01*
X90947857Y-128537857D01*
X90912142Y-128573571D01*
X90840714Y-128609285D01*
X90555000Y-128609285D01*
X90555000Y-127859285D01*
X90805000Y-127859285D01*
X90876428Y-127895000D01*
X90912142Y-127930714D01*
X90947857Y-128002142D01*
X90947857Y-128073571D01*
X90912142Y-128145000D01*
X90876428Y-128180714D01*
X90805000Y-128216428D01*
X90555000Y-128216428D01*
X91305000Y-128609285D02*
X91305000Y-127859285D01*
X91733571Y-128609285D02*
X91412142Y-128180714D01*
X91733571Y-127859285D02*
X91305000Y-128287857D01*
X99399285Y-124960000D02*
X99042142Y-125210000D01*
X99399285Y-125388571D02*
X98649285Y-125388571D01*
X98649285Y-125102857D01*
X98685000Y-125031428D01*
X98720714Y-124995714D01*
X98792142Y-124960000D01*
X98899285Y-124960000D01*
X98970714Y-124995714D01*
X99006428Y-125031428D01*
X99042142Y-125102857D01*
X99042142Y-125388571D01*
X99363571Y-124674285D02*
X99399285Y-124567142D01*
X99399285Y-124388571D01*
X99363571Y-124317142D01*
X99327857Y-124281428D01*
X99256428Y-124245714D01*
X99185000Y-124245714D01*
X99113571Y-124281428D01*
X99077857Y-124317142D01*
X99042142Y-124388571D01*
X99006428Y-124531428D01*
X98970714Y-124602857D01*
X98935000Y-124638571D01*
X98863571Y-124674285D01*
X98792142Y-124674285D01*
X98720714Y-124638571D01*
X98685000Y-124602857D01*
X98649285Y-124531428D01*
X98649285Y-124352857D01*
X98685000Y-124245714D01*
X99399285Y-123495714D02*
X99042142Y-123745714D01*
X99399285Y-123924285D02*
X98649285Y-123924285D01*
X98649285Y-123638571D01*
X98685000Y-123567142D01*
X98720714Y-123531428D01*
X98792142Y-123495714D01*
X98899285Y-123495714D01*
X98970714Y-123531428D01*
X99006428Y-123567142D01*
X99042142Y-123638571D01*
X99042142Y-123924285D01*
X99327857Y-122384285D02*
X99363571Y-122420000D01*
X99399285Y-122527142D01*
X99399285Y-122598571D01*
X99363571Y-122705714D01*
X99292142Y-122777142D01*
X99220714Y-122812857D01*
X99077857Y-122848571D01*
X98970714Y-122848571D01*
X98827857Y-122812857D01*
X98756428Y-122777142D01*
X98685000Y-122705714D01*
X98649285Y-122598571D01*
X98649285Y-122527142D01*
X98685000Y-122420000D01*
X98720714Y-122384285D01*
X99185000Y-122098571D02*
X99185000Y-121741428D01*
X99399285Y-122170000D02*
X98649285Y-121920000D01*
X99399285Y-121670000D01*
X99399285Y-121420000D02*
X98649285Y-121420000D01*
X98649285Y-121134285D01*
X98685000Y-121062857D01*
X98720714Y-121027142D01*
X98792142Y-120991428D01*
X98899285Y-120991428D01*
X98970714Y-121027142D01*
X99006428Y-121062857D01*
X99042142Y-121134285D01*
X99042142Y-121420000D01*
X94247857Y-124924285D02*
X94283571Y-124960000D01*
X94319285Y-125067142D01*
X94319285Y-125138571D01*
X94283571Y-125245714D01*
X94212142Y-125317142D01*
X94140714Y-125352857D01*
X93997857Y-125388571D01*
X93890714Y-125388571D01*
X93747857Y-125352857D01*
X93676428Y-125317142D01*
X93605000Y-125245714D01*
X93569285Y-125138571D01*
X93569285Y-125067142D01*
X93605000Y-124960000D01*
X93640714Y-124924285D01*
X94105000Y-124638571D02*
X94105000Y-124281428D01*
X94319285Y-124710000D02*
X93569285Y-124460000D01*
X94319285Y-124210000D01*
X94319285Y-123960000D02*
X93569285Y-123960000D01*
X93569285Y-123674285D01*
X93605000Y-123602857D01*
X93640714Y-123567142D01*
X93712142Y-123531428D01*
X93819285Y-123531428D01*
X93890714Y-123567142D01*
X93926428Y-123602857D01*
X93962142Y-123674285D01*
X93962142Y-123960000D01*
X94319285Y-122420000D02*
X93962142Y-122670000D01*
X94319285Y-122848571D02*
X93569285Y-122848571D01*
X93569285Y-122562857D01*
X93605000Y-122491428D01*
X93640714Y-122455714D01*
X93712142Y-122420000D01*
X93819285Y-122420000D01*
X93890714Y-122455714D01*
X93926428Y-122491428D01*
X93962142Y-122562857D01*
X93962142Y-122848571D01*
X94283571Y-122134285D02*
X94319285Y-122027142D01*
X94319285Y-121848571D01*
X94283571Y-121777142D01*
X94247857Y-121741428D01*
X94176428Y-121705714D01*
X94105000Y-121705714D01*
X94033571Y-121741428D01*
X93997857Y-121777142D01*
X93962142Y-121848571D01*
X93926428Y-121991428D01*
X93890714Y-122062857D01*
X93855000Y-122098571D01*
X93783571Y-122134285D01*
X93712142Y-122134285D01*
X93640714Y-122098571D01*
X93605000Y-122062857D01*
X93569285Y-121991428D01*
X93569285Y-121812857D01*
X93605000Y-121705714D01*
X94319285Y-120955714D02*
X93962142Y-121205714D01*
X94319285Y-121384285D02*
X93569285Y-121384285D01*
X93569285Y-121098571D01*
X93605000Y-121027142D01*
X93640714Y-120991428D01*
X93712142Y-120955714D01*
X93819285Y-120955714D01*
X93890714Y-120991428D01*
X93926428Y-121027142D01*
X93962142Y-121098571D01*
X93962142Y-121384285D01*
X91313571Y-115138035D02*
X91456428Y-115138035D01*
X91527857Y-115173750D01*
X91599285Y-115245178D01*
X91635000Y-115388035D01*
X91635000Y-115638035D01*
X91599285Y-115780892D01*
X91527857Y-115852321D01*
X91456428Y-115888035D01*
X91313571Y-115888035D01*
X91242142Y-115852321D01*
X91170714Y-115780892D01*
X91135000Y-115638035D01*
X91135000Y-115388035D01*
X91170714Y-115245178D01*
X91242142Y-115173750D01*
X91313571Y-115138035D01*
X91956428Y-115388035D02*
X91956428Y-116138035D01*
X91956428Y-115423750D02*
X92027857Y-115388035D01*
X92170714Y-115388035D01*
X92242142Y-115423750D01*
X92277857Y-115459464D01*
X92313571Y-115530892D01*
X92313571Y-115745178D01*
X92277857Y-115816607D01*
X92242142Y-115852321D01*
X92170714Y-115888035D01*
X92027857Y-115888035D01*
X91956428Y-115852321D01*
X92635000Y-115602321D02*
X93206428Y-115602321D01*
X93527857Y-115673750D02*
X93885000Y-115673750D01*
X93456428Y-115888035D02*
X93706428Y-115138035D01*
X93956428Y-115888035D01*
X94206428Y-115888035D02*
X94206428Y-115388035D01*
X94206428Y-115459464D02*
X94242142Y-115423750D01*
X94313571Y-115388035D01*
X94420714Y-115388035D01*
X94492142Y-115423750D01*
X94527857Y-115495178D01*
X94527857Y-115888035D01*
X94527857Y-115495178D02*
X94563571Y-115423750D01*
X94635000Y-115388035D01*
X94742142Y-115388035D01*
X94813571Y-115423750D01*
X94849285Y-115495178D01*
X94849285Y-115888035D01*
X95206428Y-115388035D02*
X95206428Y-116138035D01*
X95206428Y-115423750D02*
X95277857Y-115388035D01*
X95420714Y-115388035D01*
X95492142Y-115423750D01*
X95527857Y-115459464D01*
X95563571Y-115530892D01*
X95563571Y-115745178D01*
X95527857Y-115816607D01*
X95492142Y-115852321D01*
X95420714Y-115888035D01*
X95277857Y-115888035D01*
X95206428Y-115852321D01*
X96420714Y-115852321D02*
X96527857Y-115888035D01*
X96706428Y-115888035D01*
X96777857Y-115852321D01*
X96813571Y-115816607D01*
X96849285Y-115745178D01*
X96849285Y-115673750D01*
X96813571Y-115602321D01*
X96777857Y-115566607D01*
X96706428Y-115530892D01*
X96563571Y-115495178D01*
X96492142Y-115459464D01*
X96456428Y-115423750D01*
X96420714Y-115352321D01*
X96420714Y-115280892D01*
X96456428Y-115209464D01*
X96492142Y-115173750D01*
X96563571Y-115138035D01*
X96742142Y-115138035D01*
X96849285Y-115173750D01*
X97492142Y-115388035D02*
X97492142Y-115888035D01*
X97170714Y-115388035D02*
X97170714Y-115780892D01*
X97206428Y-115852321D01*
X97277857Y-115888035D01*
X97385000Y-115888035D01*
X97456428Y-115852321D01*
X97492142Y-115816607D01*
X97849285Y-115888035D02*
X97849285Y-115388035D01*
X97849285Y-115459464D02*
X97885000Y-115423750D01*
X97956428Y-115388035D01*
X98063571Y-115388035D01*
X98135000Y-115423750D01*
X98170714Y-115495178D01*
X98170714Y-115888035D01*
X98170714Y-115495178D02*
X98206428Y-115423750D01*
X98277857Y-115388035D01*
X98385000Y-115388035D01*
X98456428Y-115423750D01*
X98492142Y-115495178D01*
X98492142Y-115888035D01*
X98849285Y-115888035D02*
X98849285Y-115388035D01*
X98849285Y-115459464D02*
X98885000Y-115423750D01*
X98956428Y-115388035D01*
X99063571Y-115388035D01*
X99135000Y-115423750D01*
X99170714Y-115495178D01*
X99170714Y-115888035D01*
X99170714Y-115495178D02*
X99206428Y-115423750D01*
X99277857Y-115388035D01*
X99385000Y-115388035D01*
X99456428Y-115423750D01*
X99492142Y-115495178D01*
X99492142Y-115888035D01*
X100135000Y-115852321D02*
X100063571Y-115888035D01*
X99920714Y-115888035D01*
X99849285Y-115852321D01*
X99813571Y-115780892D01*
X99813571Y-115495178D01*
X99849285Y-115423750D01*
X99920714Y-115388035D01*
X100063571Y-115388035D01*
X100135000Y-115423750D01*
X100170714Y-115495178D01*
X100170714Y-115566607D01*
X99813571Y-115638035D01*
X100492142Y-115888035D02*
X100492142Y-115388035D01*
X100492142Y-115530892D02*
X100527857Y-115459464D01*
X100563571Y-115423750D01*
X100635000Y-115388035D01*
X100706428Y-115388035D01*
X90474285Y-116450535D02*
X90974285Y-116450535D01*
X90474285Y-117200535D01*
X90974285Y-117200535D01*
X91581428Y-117200535D02*
X91581428Y-116807678D01*
X91545714Y-116736250D01*
X91474285Y-116700535D01*
X91331428Y-116700535D01*
X91260000Y-116736250D01*
X91581428Y-117164821D02*
X91510000Y-117200535D01*
X91331428Y-117200535D01*
X91260000Y-117164821D01*
X91224285Y-117093392D01*
X91224285Y-117021964D01*
X91260000Y-116950535D01*
X91331428Y-116914821D01*
X91510000Y-116914821D01*
X91581428Y-116879107D01*
X92260000Y-117164821D02*
X92188571Y-117200535D01*
X92045714Y-117200535D01*
X91974285Y-117164821D01*
X91938571Y-117129107D01*
X91902857Y-117057678D01*
X91902857Y-116843392D01*
X91938571Y-116771964D01*
X91974285Y-116736250D01*
X92045714Y-116700535D01*
X92188571Y-116700535D01*
X92260000Y-116736250D01*
X92581428Y-117200535D02*
X92581428Y-116450535D01*
X92902857Y-117200535D02*
X92902857Y-116807678D01*
X92867142Y-116736250D01*
X92795714Y-116700535D01*
X92688571Y-116700535D01*
X92617142Y-116736250D01*
X92581428Y-116771964D01*
X94081428Y-116807678D02*
X94188571Y-116843392D01*
X94224285Y-116879107D01*
X94260000Y-116950535D01*
X94260000Y-117057678D01*
X94224285Y-117129107D01*
X94188571Y-117164821D01*
X94117142Y-117200535D01*
X93831428Y-117200535D01*
X93831428Y-116450535D01*
X94081428Y-116450535D01*
X94152857Y-116486250D01*
X94188571Y-116521964D01*
X94224285Y-116593392D01*
X94224285Y-116664821D01*
X94188571Y-116736250D01*
X94152857Y-116771964D01*
X94081428Y-116807678D01*
X93831428Y-116807678D01*
X94902857Y-117200535D02*
X94902857Y-116807678D01*
X94867142Y-116736250D01*
X94795714Y-116700535D01*
X94652857Y-116700535D01*
X94581428Y-116736250D01*
X94902857Y-117164821D02*
X94831428Y-117200535D01*
X94652857Y-117200535D01*
X94581428Y-117164821D01*
X94545714Y-117093392D01*
X94545714Y-117021964D01*
X94581428Y-116950535D01*
X94652857Y-116914821D01*
X94831428Y-116914821D01*
X94902857Y-116879107D01*
X95367142Y-117200535D02*
X95295714Y-117164821D01*
X95260000Y-117093392D01*
X95260000Y-116450535D01*
X95974285Y-117200535D02*
X95974285Y-116450535D01*
X95974285Y-117164821D02*
X95902857Y-117200535D01*
X95760000Y-117200535D01*
X95688571Y-117164821D01*
X95652857Y-117129107D01*
X95617142Y-117057678D01*
X95617142Y-116843392D01*
X95652857Y-116771964D01*
X95688571Y-116736250D01*
X95760000Y-116700535D01*
X95902857Y-116700535D01*
X95974285Y-116736250D01*
X96260000Y-116700535D02*
X96402857Y-117200535D01*
X96545714Y-116843392D01*
X96688571Y-117200535D01*
X96831428Y-116700535D01*
X97117142Y-117200535D02*
X97117142Y-116700535D01*
X97117142Y-116450535D02*
X97081428Y-116486250D01*
X97117142Y-116521964D01*
X97152857Y-116486250D01*
X97117142Y-116450535D01*
X97117142Y-116521964D01*
X97474285Y-116700535D02*
X97474285Y-117200535D01*
X97474285Y-116771964D02*
X97510000Y-116736250D01*
X97581428Y-116700535D01*
X97688571Y-116700535D01*
X97760000Y-116736250D01*
X97795714Y-116807678D01*
X97795714Y-117200535D01*
X98688571Y-116521964D02*
X98724285Y-116486250D01*
X98795714Y-116450535D01*
X98974285Y-116450535D01*
X99045714Y-116486250D01*
X99081428Y-116521964D01*
X99117142Y-116593392D01*
X99117142Y-116664821D01*
X99081428Y-116771964D01*
X98652857Y-117200535D01*
X99117142Y-117200535D01*
X99581428Y-116450535D02*
X99652857Y-116450535D01*
X99724285Y-116486250D01*
X99760000Y-116521964D01*
X99795714Y-116593392D01*
X99831428Y-116736250D01*
X99831428Y-116914821D01*
X99795714Y-117057678D01*
X99760000Y-117129107D01*
X99724285Y-117164821D01*
X99652857Y-117200535D01*
X99581428Y-117200535D01*
X99510000Y-117164821D01*
X99474285Y-117129107D01*
X99438571Y-117057678D01*
X99402857Y-116914821D01*
X99402857Y-116736250D01*
X99438571Y-116593392D01*
X99474285Y-116521964D01*
X99510000Y-116486250D01*
X99581428Y-116450535D01*
X100117142Y-116521964D02*
X100152857Y-116486250D01*
X100224285Y-116450535D01*
X100402857Y-116450535D01*
X100474285Y-116486250D01*
X100510000Y-116521964D01*
X100545714Y-116593392D01*
X100545714Y-116664821D01*
X100510000Y-116771964D01*
X100081428Y-117200535D01*
X100545714Y-117200535D01*
X101010000Y-116450535D02*
X101081428Y-116450535D01*
X101152857Y-116486250D01*
X101188571Y-116521964D01*
X101224285Y-116593392D01*
X101260000Y-116736250D01*
X101260000Y-116914821D01*
X101224285Y-117057678D01*
X101188571Y-117129107D01*
X101152857Y-117164821D01*
X101081428Y-117200535D01*
X101010000Y-117200535D01*
X100938571Y-117164821D01*
X100902857Y-117129107D01*
X100867142Y-117057678D01*
X100831428Y-116914821D01*
X100831428Y-116736250D01*
X100867142Y-116593392D01*
X100902857Y-116521964D01*
X100938571Y-116486250D01*
X101010000Y-116450535D01*
D11*
%TO.C,R21*%
X83170000Y-122270000D02*
X87010000Y-122270000D01*
X83170000Y-124110000D02*
X87010000Y-124110000D01*
%TO.C,C3*%
X61825000Y-126565000D02*
X66365000Y-126565000D01*
X61825000Y-128705000D02*
X66365000Y-128705000D01*
X61825000Y-126565000D02*
X61825000Y-126580000D01*
X61825000Y-128690000D02*
X61825000Y-128705000D01*
X66365000Y-126565000D02*
X66365000Y-126580000D01*
X66365000Y-128690000D02*
X66365000Y-128705000D01*
%TO.C,C2*%
X70285000Y-120325000D02*
X70285000Y-124865000D01*
X68145000Y-120325000D02*
X68145000Y-124865000D01*
X70285000Y-120325000D02*
X70270000Y-120325000D01*
X68160000Y-120325000D02*
X68145000Y-120325000D01*
X70285000Y-124865000D02*
X70270000Y-124865000D01*
X68160000Y-124865000D02*
X68145000Y-124865000D01*
%TO.C,U1*%
X56455000Y-121650000D02*
X56455000Y-122900000D01*
X56455000Y-122900000D02*
X66735000Y-122900000D01*
X66735000Y-122900000D02*
X66735000Y-118400000D01*
X66735000Y-118400000D02*
X56455000Y-118400000D01*
X56455000Y-118400000D02*
X56455000Y-119650000D01*
X56455000Y-119650000D02*
G75*
G02*
X56455000Y-121650000I0J-1000000D01*
G01*
%TO.C,RV1*%
X69350000Y-118460000D02*
X69350000Y-110220000D01*
X85590000Y-118460000D02*
X85590000Y-110220000D01*
X69350000Y-118460000D02*
X85590000Y-118460000D01*
X69350000Y-110220000D02*
X85590000Y-110220000D01*
X72350000Y-110220000D02*
X72350000Y-101220000D01*
X82590000Y-110220000D02*
X82590000Y-101220000D01*
X72350000Y-110220000D02*
X82590000Y-110220000D01*
X72350000Y-101220000D02*
X82590000Y-101220000D01*
X74350000Y-101220000D02*
X74350000Y-85220000D01*
X80591000Y-101220000D02*
X80591000Y-85220000D01*
X74350000Y-101220000D02*
X80591000Y-101220000D01*
X74350000Y-85220000D02*
X80591000Y-85220000D01*
%TO.C,R20*%
X102520000Y-131430000D02*
X102520000Y-135270000D01*
X100680000Y-131430000D02*
X100680000Y-135270000D01*
%TO.C,R19*%
X99980000Y-131430000D02*
X99980000Y-135270000D01*
X98140000Y-131430000D02*
X98140000Y-135270000D01*
%TO.C,R18*%
X97440000Y-131430000D02*
X97440000Y-135270000D01*
X95600000Y-131430000D02*
X95600000Y-135270000D01*
%TO.C,R17*%
X94900000Y-131430000D02*
X94900000Y-135270000D01*
X93060000Y-131430000D02*
X93060000Y-135270000D01*
%TO.C,R16*%
X92360000Y-131430000D02*
X92360000Y-135270000D01*
X90520000Y-131430000D02*
X90520000Y-135270000D01*
%TO.C,R15*%
X89820000Y-131430000D02*
X89820000Y-135270000D01*
X87980000Y-131430000D02*
X87980000Y-135270000D01*
%TO.C,R14*%
X87280000Y-131430000D02*
X87280000Y-135270000D01*
X85440000Y-131430000D02*
X85440000Y-135270000D01*
%TO.C,R13*%
X84740000Y-131430000D02*
X84740000Y-135270000D01*
X82900000Y-131430000D02*
X82900000Y-135270000D01*
%TO.C,R12*%
X82200000Y-131430000D02*
X82200000Y-135270000D01*
X80360000Y-131430000D02*
X80360000Y-135270000D01*
%TO.C,R11*%
X79660000Y-131430000D02*
X79660000Y-135270000D01*
X77820000Y-131430000D02*
X77820000Y-135270000D01*
%TO.C,R10*%
X77120000Y-131430000D02*
X77120000Y-135270000D01*
X75280000Y-131430000D02*
X75280000Y-135270000D01*
%TO.C,R9*%
X74580000Y-131430000D02*
X74580000Y-135270000D01*
X72740000Y-131430000D02*
X72740000Y-135270000D01*
%TO.C,R8*%
X72040000Y-131430000D02*
X72040000Y-135270000D01*
X70200000Y-131430000D02*
X70200000Y-135270000D01*
%TO.C,R7*%
X69500000Y-131430000D02*
X69500000Y-135270000D01*
X67660000Y-131430000D02*
X67660000Y-135270000D01*
%TO.C,R6*%
X66960000Y-131430000D02*
X66960000Y-135270000D01*
X65120000Y-131430000D02*
X65120000Y-135270000D01*
%TO.C,R5*%
X64420000Y-131430000D02*
X64420000Y-135270000D01*
X62580000Y-131430000D02*
X62580000Y-135270000D01*
%TO.C,R4*%
X61880000Y-131430000D02*
X61880000Y-135270000D01*
X60040000Y-131430000D02*
X60040000Y-135270000D01*
%TO.C,R3*%
X59340000Y-131430000D02*
X59340000Y-135270000D01*
X57500000Y-131430000D02*
X57500000Y-135270000D01*
%TO.C,R2*%
X56800000Y-131430000D02*
X56800000Y-135270000D01*
X54960000Y-131430000D02*
X54960000Y-135270000D01*
%TO.C,R1*%
X54260000Y-131430000D02*
X54260000Y-135270000D01*
X52420000Y-131430000D02*
X52420000Y-135270000D01*
%TO.C,J4*%
X92135000Y-119320000D02*
X89475000Y-119320000D01*
X92135000Y-124460000D02*
X92135000Y-119320000D01*
X89475000Y-124460000D02*
X89475000Y-119320000D01*
X92135000Y-124460000D02*
X89475000Y-124460000D01*
X92135000Y-125730000D02*
X92135000Y-127060000D01*
X92135000Y-127060000D02*
X90805000Y-127060000D01*
%TO.C,J3*%
X52010000Y-125790000D02*
X54670000Y-125790000D01*
X52010000Y-118110000D02*
X52010000Y-125790000D01*
X54670000Y-118110000D02*
X54670000Y-125790000D01*
X52010000Y-118110000D02*
X54670000Y-118110000D01*
X52010000Y-116840000D02*
X52010000Y-115510000D01*
X52010000Y-115510000D02*
X53340000Y-115510000D01*
%TO.C,J2*%
X102930000Y-119320000D02*
X100270000Y-119320000D01*
X102930000Y-124460000D02*
X102930000Y-119320000D01*
X100270000Y-124460000D02*
X100270000Y-119320000D01*
X102930000Y-124460000D02*
X100270000Y-124460000D01*
X102930000Y-125730000D02*
X102930000Y-127060000D01*
X102930000Y-127060000D02*
X101600000Y-127060000D01*
%TO.C,J1*%
X102930000Y-140395000D02*
X102930000Y-137735000D01*
X54610000Y-140395000D02*
X102930000Y-140395000D01*
X54610000Y-137735000D02*
X102930000Y-137735000D01*
X54610000Y-140395000D02*
X54610000Y-137735000D01*
X53340000Y-140395000D02*
X52010000Y-140395000D01*
X52010000Y-140395000D02*
X52010000Y-139065000D01*
%TO.C,C5*%
X82780000Y-124660000D02*
X87320000Y-124660000D01*
X82780000Y-126800000D02*
X87320000Y-126800000D01*
X82780000Y-124660000D02*
X82780000Y-124675000D01*
X82780000Y-126785000D02*
X82780000Y-126800000D01*
X87320000Y-124660000D02*
X87320000Y-124675000D01*
X87320000Y-126785000D02*
X87320000Y-126800000D01*
%TO.C,C1*%
X96085000Y-125420000D02*
X96085000Y-120880000D01*
X98225000Y-125420000D02*
X98225000Y-120880000D01*
X96085000Y-125420000D02*
X96100000Y-125420000D01*
X98210000Y-125420000D02*
X98225000Y-125420000D01*
X96085000Y-120880000D02*
X96100000Y-120880000D01*
X98210000Y-120880000D02*
X98225000Y-120880000D01*
%TO.C,R21*%
D12*
X84447142Y-123642380D02*
X84113809Y-123166190D01*
X83875714Y-123642380D02*
X83875714Y-122642380D01*
X84256666Y-122642380D01*
X84351904Y-122690000D01*
X84399523Y-122737619D01*
X84447142Y-122832857D01*
X84447142Y-122975714D01*
X84399523Y-123070952D01*
X84351904Y-123118571D01*
X84256666Y-123166190D01*
X83875714Y-123166190D01*
X84828095Y-122737619D02*
X84875714Y-122690000D01*
X84970952Y-122642380D01*
X85209047Y-122642380D01*
X85304285Y-122690000D01*
X85351904Y-122737619D01*
X85399523Y-122832857D01*
X85399523Y-122928095D01*
X85351904Y-123070952D01*
X84780476Y-123642380D01*
X85399523Y-123642380D01*
X86351904Y-123642380D02*
X85780476Y-123642380D01*
X86066190Y-123642380D02*
X86066190Y-122642380D01*
X85970952Y-122785238D01*
X85875714Y-122880476D01*
X85780476Y-122928095D01*
%TO.C,C3*%
X63928333Y-127992142D02*
X63880714Y-128039761D01*
X63737857Y-128087380D01*
X63642619Y-128087380D01*
X63499761Y-128039761D01*
X63404523Y-127944523D01*
X63356904Y-127849285D01*
X63309285Y-127658809D01*
X63309285Y-127515952D01*
X63356904Y-127325476D01*
X63404523Y-127230238D01*
X63499761Y-127135000D01*
X63642619Y-127087380D01*
X63737857Y-127087380D01*
X63880714Y-127135000D01*
X63928333Y-127182619D01*
X64261666Y-127087380D02*
X64880714Y-127087380D01*
X64547380Y-127468333D01*
X64690238Y-127468333D01*
X64785476Y-127515952D01*
X64833095Y-127563571D01*
X64880714Y-127658809D01*
X64880714Y-127896904D01*
X64833095Y-127992142D01*
X64785476Y-128039761D01*
X64690238Y-128087380D01*
X64404523Y-128087380D01*
X64309285Y-128039761D01*
X64261666Y-127992142D01*
%TO.C,C2*%
X69572142Y-122761666D02*
X69619761Y-122809285D01*
X69667380Y-122952142D01*
X69667380Y-123047380D01*
X69619761Y-123190238D01*
X69524523Y-123285476D01*
X69429285Y-123333095D01*
X69238809Y-123380714D01*
X69095952Y-123380714D01*
X68905476Y-123333095D01*
X68810238Y-123285476D01*
X68715000Y-123190238D01*
X68667380Y-123047380D01*
X68667380Y-122952142D01*
X68715000Y-122809285D01*
X68762619Y-122761666D01*
X68762619Y-122380714D02*
X68715000Y-122333095D01*
X68667380Y-122237857D01*
X68667380Y-121999761D01*
X68715000Y-121904523D01*
X68762619Y-121856904D01*
X68857857Y-121809285D01*
X68953095Y-121809285D01*
X69095952Y-121856904D01*
X69667380Y-122428333D01*
X69667380Y-121809285D01*
%TO.C,U1*%
X59777380Y-121411904D02*
X60586904Y-121411904D01*
X60682142Y-121364285D01*
X60729761Y-121316666D01*
X60777380Y-121221428D01*
X60777380Y-121030952D01*
X60729761Y-120935714D01*
X60682142Y-120888095D01*
X60586904Y-120840476D01*
X59777380Y-120840476D01*
X60777380Y-119840476D02*
X60777380Y-120411904D01*
X60777380Y-120126190D02*
X59777380Y-120126190D01*
X59920238Y-120221428D01*
X60015476Y-120316666D01*
X60063095Y-120411904D01*
%TO.C,RV1*%
X68672380Y-117435238D02*
X68196190Y-117768571D01*
X68672380Y-118006666D02*
X67672380Y-118006666D01*
X67672380Y-117625714D01*
X67720000Y-117530476D01*
X67767619Y-117482857D01*
X67862857Y-117435238D01*
X68005714Y-117435238D01*
X68100952Y-117482857D01*
X68148571Y-117530476D01*
X68196190Y-117625714D01*
X68196190Y-118006666D01*
X67672380Y-117149523D02*
X68672380Y-116816190D01*
X67672380Y-116482857D01*
X68672380Y-115625714D02*
X68672380Y-116197142D01*
X68672380Y-115911428D02*
X67672380Y-115911428D01*
X67815238Y-116006666D01*
X67910476Y-116101904D01*
X67958095Y-116197142D01*
%TO.C,R20*%
X102052380Y-133992857D02*
X101576190Y-134326190D01*
X102052380Y-134564285D02*
X101052380Y-134564285D01*
X101052380Y-134183333D01*
X101100000Y-134088095D01*
X101147619Y-134040476D01*
X101242857Y-133992857D01*
X101385714Y-133992857D01*
X101480952Y-134040476D01*
X101528571Y-134088095D01*
X101576190Y-134183333D01*
X101576190Y-134564285D01*
X101147619Y-133611904D02*
X101100000Y-133564285D01*
X101052380Y-133469047D01*
X101052380Y-133230952D01*
X101100000Y-133135714D01*
X101147619Y-133088095D01*
X101242857Y-133040476D01*
X101338095Y-133040476D01*
X101480952Y-133088095D01*
X102052380Y-133659523D01*
X102052380Y-133040476D01*
X101052380Y-132421428D02*
X101052380Y-132326190D01*
X101100000Y-132230952D01*
X101147619Y-132183333D01*
X101242857Y-132135714D01*
X101433333Y-132088095D01*
X101671428Y-132088095D01*
X101861904Y-132135714D01*
X101957142Y-132183333D01*
X102004761Y-132230952D01*
X102052380Y-132326190D01*
X102052380Y-132421428D01*
X102004761Y-132516666D01*
X101957142Y-132564285D01*
X101861904Y-132611904D01*
X101671428Y-132659523D01*
X101433333Y-132659523D01*
X101242857Y-132611904D01*
X101147619Y-132564285D01*
X101100000Y-132516666D01*
X101052380Y-132421428D01*
%TO.C,R19*%
X99512380Y-133992857D02*
X99036190Y-134326190D01*
X99512380Y-134564285D02*
X98512380Y-134564285D01*
X98512380Y-134183333D01*
X98560000Y-134088095D01*
X98607619Y-134040476D01*
X98702857Y-133992857D01*
X98845714Y-133992857D01*
X98940952Y-134040476D01*
X98988571Y-134088095D01*
X99036190Y-134183333D01*
X99036190Y-134564285D01*
X99512380Y-133040476D02*
X99512380Y-133611904D01*
X99512380Y-133326190D02*
X98512380Y-133326190D01*
X98655238Y-133421428D01*
X98750476Y-133516666D01*
X98798095Y-133611904D01*
X99512380Y-132564285D02*
X99512380Y-132373809D01*
X99464761Y-132278571D01*
X99417142Y-132230952D01*
X99274285Y-132135714D01*
X99083809Y-132088095D01*
X98702857Y-132088095D01*
X98607619Y-132135714D01*
X98560000Y-132183333D01*
X98512380Y-132278571D01*
X98512380Y-132469047D01*
X98560000Y-132564285D01*
X98607619Y-132611904D01*
X98702857Y-132659523D01*
X98940952Y-132659523D01*
X99036190Y-132611904D01*
X99083809Y-132564285D01*
X99131428Y-132469047D01*
X99131428Y-132278571D01*
X99083809Y-132183333D01*
X99036190Y-132135714D01*
X98940952Y-132088095D01*
%TO.C,R18*%
X96972380Y-133992857D02*
X96496190Y-134326190D01*
X96972380Y-134564285D02*
X95972380Y-134564285D01*
X95972380Y-134183333D01*
X96020000Y-134088095D01*
X96067619Y-134040476D01*
X96162857Y-133992857D01*
X96305714Y-133992857D01*
X96400952Y-134040476D01*
X96448571Y-134088095D01*
X96496190Y-134183333D01*
X96496190Y-134564285D01*
X96972380Y-133040476D02*
X96972380Y-133611904D01*
X96972380Y-133326190D02*
X95972380Y-133326190D01*
X96115238Y-133421428D01*
X96210476Y-133516666D01*
X96258095Y-133611904D01*
X96400952Y-132469047D02*
X96353333Y-132564285D01*
X96305714Y-132611904D01*
X96210476Y-132659523D01*
X96162857Y-132659523D01*
X96067619Y-132611904D01*
X96020000Y-132564285D01*
X95972380Y-132469047D01*
X95972380Y-132278571D01*
X96020000Y-132183333D01*
X96067619Y-132135714D01*
X96162857Y-132088095D01*
X96210476Y-132088095D01*
X96305714Y-132135714D01*
X96353333Y-132183333D01*
X96400952Y-132278571D01*
X96400952Y-132469047D01*
X96448571Y-132564285D01*
X96496190Y-132611904D01*
X96591428Y-132659523D01*
X96781904Y-132659523D01*
X96877142Y-132611904D01*
X96924761Y-132564285D01*
X96972380Y-132469047D01*
X96972380Y-132278571D01*
X96924761Y-132183333D01*
X96877142Y-132135714D01*
X96781904Y-132088095D01*
X96591428Y-132088095D01*
X96496190Y-132135714D01*
X96448571Y-132183333D01*
X96400952Y-132278571D01*
%TO.C,R17*%
X94432380Y-133992857D02*
X93956190Y-134326190D01*
X94432380Y-134564285D02*
X93432380Y-134564285D01*
X93432380Y-134183333D01*
X93480000Y-134088095D01*
X93527619Y-134040476D01*
X93622857Y-133992857D01*
X93765714Y-133992857D01*
X93860952Y-134040476D01*
X93908571Y-134088095D01*
X93956190Y-134183333D01*
X93956190Y-134564285D01*
X94432380Y-133040476D02*
X94432380Y-133611904D01*
X94432380Y-133326190D02*
X93432380Y-133326190D01*
X93575238Y-133421428D01*
X93670476Y-133516666D01*
X93718095Y-133611904D01*
X93432380Y-132707142D02*
X93432380Y-132040476D01*
X94432380Y-132469047D01*
%TO.C,R16*%
X91892380Y-133992857D02*
X91416190Y-134326190D01*
X91892380Y-134564285D02*
X90892380Y-134564285D01*
X90892380Y-134183333D01*
X90940000Y-134088095D01*
X90987619Y-134040476D01*
X91082857Y-133992857D01*
X91225714Y-133992857D01*
X91320952Y-134040476D01*
X91368571Y-134088095D01*
X91416190Y-134183333D01*
X91416190Y-134564285D01*
X91892380Y-133040476D02*
X91892380Y-133611904D01*
X91892380Y-133326190D02*
X90892380Y-133326190D01*
X91035238Y-133421428D01*
X91130476Y-133516666D01*
X91178095Y-133611904D01*
X90892380Y-132183333D02*
X90892380Y-132373809D01*
X90940000Y-132469047D01*
X90987619Y-132516666D01*
X91130476Y-132611904D01*
X91320952Y-132659523D01*
X91701904Y-132659523D01*
X91797142Y-132611904D01*
X91844761Y-132564285D01*
X91892380Y-132469047D01*
X91892380Y-132278571D01*
X91844761Y-132183333D01*
X91797142Y-132135714D01*
X91701904Y-132088095D01*
X91463809Y-132088095D01*
X91368571Y-132135714D01*
X91320952Y-132183333D01*
X91273333Y-132278571D01*
X91273333Y-132469047D01*
X91320952Y-132564285D01*
X91368571Y-132611904D01*
X91463809Y-132659523D01*
%TO.C,R15*%
X89352380Y-133992857D02*
X88876190Y-134326190D01*
X89352380Y-134564285D02*
X88352380Y-134564285D01*
X88352380Y-134183333D01*
X88400000Y-134088095D01*
X88447619Y-134040476D01*
X88542857Y-133992857D01*
X88685714Y-133992857D01*
X88780952Y-134040476D01*
X88828571Y-134088095D01*
X88876190Y-134183333D01*
X88876190Y-134564285D01*
X89352380Y-133040476D02*
X89352380Y-133611904D01*
X89352380Y-133326190D02*
X88352380Y-133326190D01*
X88495238Y-133421428D01*
X88590476Y-133516666D01*
X88638095Y-133611904D01*
X88352380Y-132135714D02*
X88352380Y-132611904D01*
X88828571Y-132659523D01*
X88780952Y-132611904D01*
X88733333Y-132516666D01*
X88733333Y-132278571D01*
X88780952Y-132183333D01*
X88828571Y-132135714D01*
X88923809Y-132088095D01*
X89161904Y-132088095D01*
X89257142Y-132135714D01*
X89304761Y-132183333D01*
X89352380Y-132278571D01*
X89352380Y-132516666D01*
X89304761Y-132611904D01*
X89257142Y-132659523D01*
%TO.C,R14*%
X86812380Y-133992857D02*
X86336190Y-134326190D01*
X86812380Y-134564285D02*
X85812380Y-134564285D01*
X85812380Y-134183333D01*
X85860000Y-134088095D01*
X85907619Y-134040476D01*
X86002857Y-133992857D01*
X86145714Y-133992857D01*
X86240952Y-134040476D01*
X86288571Y-134088095D01*
X86336190Y-134183333D01*
X86336190Y-134564285D01*
X86812380Y-133040476D02*
X86812380Y-133611904D01*
X86812380Y-133326190D02*
X85812380Y-133326190D01*
X85955238Y-133421428D01*
X86050476Y-133516666D01*
X86098095Y-133611904D01*
X86145714Y-132183333D02*
X86812380Y-132183333D01*
X85764761Y-132421428D02*
X86479047Y-132659523D01*
X86479047Y-132040476D01*
%TO.C,R13*%
X84272380Y-133992857D02*
X83796190Y-134326190D01*
X84272380Y-134564285D02*
X83272380Y-134564285D01*
X83272380Y-134183333D01*
X83320000Y-134088095D01*
X83367619Y-134040476D01*
X83462857Y-133992857D01*
X83605714Y-133992857D01*
X83700952Y-134040476D01*
X83748571Y-134088095D01*
X83796190Y-134183333D01*
X83796190Y-134564285D01*
X84272380Y-133040476D02*
X84272380Y-133611904D01*
X84272380Y-133326190D02*
X83272380Y-133326190D01*
X83415238Y-133421428D01*
X83510476Y-133516666D01*
X83558095Y-133611904D01*
X83272380Y-132707142D02*
X83272380Y-132088095D01*
X83653333Y-132421428D01*
X83653333Y-132278571D01*
X83700952Y-132183333D01*
X83748571Y-132135714D01*
X83843809Y-132088095D01*
X84081904Y-132088095D01*
X84177142Y-132135714D01*
X84224761Y-132183333D01*
X84272380Y-132278571D01*
X84272380Y-132564285D01*
X84224761Y-132659523D01*
X84177142Y-132707142D01*
%TO.C,R12*%
X81732380Y-133992857D02*
X81256190Y-134326190D01*
X81732380Y-134564285D02*
X80732380Y-134564285D01*
X80732380Y-134183333D01*
X80780000Y-134088095D01*
X80827619Y-134040476D01*
X80922857Y-133992857D01*
X81065714Y-133992857D01*
X81160952Y-134040476D01*
X81208571Y-134088095D01*
X81256190Y-134183333D01*
X81256190Y-134564285D01*
X81732380Y-133040476D02*
X81732380Y-133611904D01*
X81732380Y-133326190D02*
X80732380Y-133326190D01*
X80875238Y-133421428D01*
X80970476Y-133516666D01*
X81018095Y-133611904D01*
X80827619Y-132659523D02*
X80780000Y-132611904D01*
X80732380Y-132516666D01*
X80732380Y-132278571D01*
X80780000Y-132183333D01*
X80827619Y-132135714D01*
X80922857Y-132088095D01*
X81018095Y-132088095D01*
X81160952Y-132135714D01*
X81732380Y-132707142D01*
X81732380Y-132088095D01*
%TO.C,R11*%
X79192380Y-133992857D02*
X78716190Y-134326190D01*
X79192380Y-134564285D02*
X78192380Y-134564285D01*
X78192380Y-134183333D01*
X78240000Y-134088095D01*
X78287619Y-134040476D01*
X78382857Y-133992857D01*
X78525714Y-133992857D01*
X78620952Y-134040476D01*
X78668571Y-134088095D01*
X78716190Y-134183333D01*
X78716190Y-134564285D01*
X79192380Y-133040476D02*
X79192380Y-133611904D01*
X79192380Y-133326190D02*
X78192380Y-133326190D01*
X78335238Y-133421428D01*
X78430476Y-133516666D01*
X78478095Y-133611904D01*
X79192380Y-132088095D02*
X79192380Y-132659523D01*
X79192380Y-132373809D02*
X78192380Y-132373809D01*
X78335238Y-132469047D01*
X78430476Y-132564285D01*
X78478095Y-132659523D01*
%TO.C,R10*%
X76652380Y-133992857D02*
X76176190Y-134326190D01*
X76652380Y-134564285D02*
X75652380Y-134564285D01*
X75652380Y-134183333D01*
X75700000Y-134088095D01*
X75747619Y-134040476D01*
X75842857Y-133992857D01*
X75985714Y-133992857D01*
X76080952Y-134040476D01*
X76128571Y-134088095D01*
X76176190Y-134183333D01*
X76176190Y-134564285D01*
X76652380Y-133040476D02*
X76652380Y-133611904D01*
X76652380Y-133326190D02*
X75652380Y-133326190D01*
X75795238Y-133421428D01*
X75890476Y-133516666D01*
X75938095Y-133611904D01*
X75652380Y-132421428D02*
X75652380Y-132326190D01*
X75700000Y-132230952D01*
X75747619Y-132183333D01*
X75842857Y-132135714D01*
X76033333Y-132088095D01*
X76271428Y-132088095D01*
X76461904Y-132135714D01*
X76557142Y-132183333D01*
X76604761Y-132230952D01*
X76652380Y-132326190D01*
X76652380Y-132421428D01*
X76604761Y-132516666D01*
X76557142Y-132564285D01*
X76461904Y-132611904D01*
X76271428Y-132659523D01*
X76033333Y-132659523D01*
X75842857Y-132611904D01*
X75747619Y-132564285D01*
X75700000Y-132516666D01*
X75652380Y-132421428D01*
%TO.C,R9*%
X74112380Y-133516666D02*
X73636190Y-133850000D01*
X74112380Y-134088095D02*
X73112380Y-134088095D01*
X73112380Y-133707142D01*
X73160000Y-133611904D01*
X73207619Y-133564285D01*
X73302857Y-133516666D01*
X73445714Y-133516666D01*
X73540952Y-133564285D01*
X73588571Y-133611904D01*
X73636190Y-133707142D01*
X73636190Y-134088095D01*
X74112380Y-133040476D02*
X74112380Y-132850000D01*
X74064761Y-132754761D01*
X74017142Y-132707142D01*
X73874285Y-132611904D01*
X73683809Y-132564285D01*
X73302857Y-132564285D01*
X73207619Y-132611904D01*
X73160000Y-132659523D01*
X73112380Y-132754761D01*
X73112380Y-132945238D01*
X73160000Y-133040476D01*
X73207619Y-133088095D01*
X73302857Y-133135714D01*
X73540952Y-133135714D01*
X73636190Y-133088095D01*
X73683809Y-133040476D01*
X73731428Y-132945238D01*
X73731428Y-132754761D01*
X73683809Y-132659523D01*
X73636190Y-132611904D01*
X73540952Y-132564285D01*
%TO.C,R8*%
X71572380Y-133516666D02*
X71096190Y-133850000D01*
X71572380Y-134088095D02*
X70572380Y-134088095D01*
X70572380Y-133707142D01*
X70620000Y-133611904D01*
X70667619Y-133564285D01*
X70762857Y-133516666D01*
X70905714Y-133516666D01*
X71000952Y-133564285D01*
X71048571Y-133611904D01*
X71096190Y-133707142D01*
X71096190Y-134088095D01*
X71000952Y-132945238D02*
X70953333Y-133040476D01*
X70905714Y-133088095D01*
X70810476Y-133135714D01*
X70762857Y-133135714D01*
X70667619Y-133088095D01*
X70620000Y-133040476D01*
X70572380Y-132945238D01*
X70572380Y-132754761D01*
X70620000Y-132659523D01*
X70667619Y-132611904D01*
X70762857Y-132564285D01*
X70810476Y-132564285D01*
X70905714Y-132611904D01*
X70953333Y-132659523D01*
X71000952Y-132754761D01*
X71000952Y-132945238D01*
X71048571Y-133040476D01*
X71096190Y-133088095D01*
X71191428Y-133135714D01*
X71381904Y-133135714D01*
X71477142Y-133088095D01*
X71524761Y-133040476D01*
X71572380Y-132945238D01*
X71572380Y-132754761D01*
X71524761Y-132659523D01*
X71477142Y-132611904D01*
X71381904Y-132564285D01*
X71191428Y-132564285D01*
X71096190Y-132611904D01*
X71048571Y-132659523D01*
X71000952Y-132754761D01*
%TO.C,R7*%
X69032380Y-133516666D02*
X68556190Y-133850000D01*
X69032380Y-134088095D02*
X68032380Y-134088095D01*
X68032380Y-133707142D01*
X68080000Y-133611904D01*
X68127619Y-133564285D01*
X68222857Y-133516666D01*
X68365714Y-133516666D01*
X68460952Y-133564285D01*
X68508571Y-133611904D01*
X68556190Y-133707142D01*
X68556190Y-134088095D01*
X68032380Y-133183333D02*
X68032380Y-132516666D01*
X69032380Y-132945238D01*
%TO.C,R6*%
X66492380Y-133516666D02*
X66016190Y-133850000D01*
X66492380Y-134088095D02*
X65492380Y-134088095D01*
X65492380Y-133707142D01*
X65540000Y-133611904D01*
X65587619Y-133564285D01*
X65682857Y-133516666D01*
X65825714Y-133516666D01*
X65920952Y-133564285D01*
X65968571Y-133611904D01*
X66016190Y-133707142D01*
X66016190Y-134088095D01*
X65492380Y-132659523D02*
X65492380Y-132850000D01*
X65540000Y-132945238D01*
X65587619Y-132992857D01*
X65730476Y-133088095D01*
X65920952Y-133135714D01*
X66301904Y-133135714D01*
X66397142Y-133088095D01*
X66444761Y-133040476D01*
X66492380Y-132945238D01*
X66492380Y-132754761D01*
X66444761Y-132659523D01*
X66397142Y-132611904D01*
X66301904Y-132564285D01*
X66063809Y-132564285D01*
X65968571Y-132611904D01*
X65920952Y-132659523D01*
X65873333Y-132754761D01*
X65873333Y-132945238D01*
X65920952Y-133040476D01*
X65968571Y-133088095D01*
X66063809Y-133135714D01*
%TO.C,R5*%
X63952380Y-133516666D02*
X63476190Y-133850000D01*
X63952380Y-134088095D02*
X62952380Y-134088095D01*
X62952380Y-133707142D01*
X63000000Y-133611904D01*
X63047619Y-133564285D01*
X63142857Y-133516666D01*
X63285714Y-133516666D01*
X63380952Y-133564285D01*
X63428571Y-133611904D01*
X63476190Y-133707142D01*
X63476190Y-134088095D01*
X62952380Y-132611904D02*
X62952380Y-133088095D01*
X63428571Y-133135714D01*
X63380952Y-133088095D01*
X63333333Y-132992857D01*
X63333333Y-132754761D01*
X63380952Y-132659523D01*
X63428571Y-132611904D01*
X63523809Y-132564285D01*
X63761904Y-132564285D01*
X63857142Y-132611904D01*
X63904761Y-132659523D01*
X63952380Y-132754761D01*
X63952380Y-132992857D01*
X63904761Y-133088095D01*
X63857142Y-133135714D01*
%TO.C,R4*%
X61412380Y-133516666D02*
X60936190Y-133850000D01*
X61412380Y-134088095D02*
X60412380Y-134088095D01*
X60412380Y-133707142D01*
X60460000Y-133611904D01*
X60507619Y-133564285D01*
X60602857Y-133516666D01*
X60745714Y-133516666D01*
X60840952Y-133564285D01*
X60888571Y-133611904D01*
X60936190Y-133707142D01*
X60936190Y-134088095D01*
X60745714Y-132659523D02*
X61412380Y-132659523D01*
X60364761Y-132897619D02*
X61079047Y-133135714D01*
X61079047Y-132516666D01*
%TO.C,R3*%
X58872380Y-133516666D02*
X58396190Y-133850000D01*
X58872380Y-134088095D02*
X57872380Y-134088095D01*
X57872380Y-133707142D01*
X57920000Y-133611904D01*
X57967619Y-133564285D01*
X58062857Y-133516666D01*
X58205714Y-133516666D01*
X58300952Y-133564285D01*
X58348571Y-133611904D01*
X58396190Y-133707142D01*
X58396190Y-134088095D01*
X57872380Y-133183333D02*
X57872380Y-132564285D01*
X58253333Y-132897619D01*
X58253333Y-132754761D01*
X58300952Y-132659523D01*
X58348571Y-132611904D01*
X58443809Y-132564285D01*
X58681904Y-132564285D01*
X58777142Y-132611904D01*
X58824761Y-132659523D01*
X58872380Y-132754761D01*
X58872380Y-133040476D01*
X58824761Y-133135714D01*
X58777142Y-133183333D01*
%TO.C,R2*%
X56332380Y-133516666D02*
X55856190Y-133850000D01*
X56332380Y-134088095D02*
X55332380Y-134088095D01*
X55332380Y-133707142D01*
X55380000Y-133611904D01*
X55427619Y-133564285D01*
X55522857Y-133516666D01*
X55665714Y-133516666D01*
X55760952Y-133564285D01*
X55808571Y-133611904D01*
X55856190Y-133707142D01*
X55856190Y-134088095D01*
X55427619Y-133135714D02*
X55380000Y-133088095D01*
X55332380Y-132992857D01*
X55332380Y-132754761D01*
X55380000Y-132659523D01*
X55427619Y-132611904D01*
X55522857Y-132564285D01*
X55618095Y-132564285D01*
X55760952Y-132611904D01*
X56332380Y-133183333D01*
X56332380Y-132564285D01*
%TO.C,R1*%
X53792380Y-133516666D02*
X53316190Y-133850000D01*
X53792380Y-134088095D02*
X52792380Y-134088095D01*
X52792380Y-133707142D01*
X52840000Y-133611904D01*
X52887619Y-133564285D01*
X52982857Y-133516666D01*
X53125714Y-133516666D01*
X53220952Y-133564285D01*
X53268571Y-133611904D01*
X53316190Y-133707142D01*
X53316190Y-134088095D01*
X53792380Y-132564285D02*
X53792380Y-133135714D01*
X53792380Y-132850000D02*
X52792380Y-132850000D01*
X52935238Y-132945238D01*
X53030476Y-133040476D01*
X53078095Y-133135714D01*
%TO.C,J4*%
X87717380Y-120348333D02*
X88431666Y-120348333D01*
X88574523Y-120395952D01*
X88669761Y-120491190D01*
X88717380Y-120634047D01*
X88717380Y-120729285D01*
X88050714Y-119443571D02*
X88717380Y-119443571D01*
X87669761Y-119681666D02*
X88384047Y-119919761D01*
X88384047Y-119300714D01*
%TO.C,J3*%
X53006666Y-126452380D02*
X53006666Y-127166666D01*
X52959047Y-127309523D01*
X52863809Y-127404761D01*
X52720952Y-127452380D01*
X52625714Y-127452380D01*
X53387619Y-126452380D02*
X54006666Y-126452380D01*
X53673333Y-126833333D01*
X53816190Y-126833333D01*
X53911428Y-126880952D01*
X53959047Y-126928571D01*
X54006666Y-127023809D01*
X54006666Y-127261904D01*
X53959047Y-127357142D01*
X53911428Y-127404761D01*
X53816190Y-127452380D01*
X53530476Y-127452380D01*
X53435238Y-127404761D01*
X53387619Y-127357142D01*
%TO.C,J2*%
X101266666Y-117562380D02*
X101266666Y-118276666D01*
X101219047Y-118419523D01*
X101123809Y-118514761D01*
X100980952Y-118562380D01*
X100885714Y-118562380D01*
X101695238Y-117657619D02*
X101742857Y-117610000D01*
X101838095Y-117562380D01*
X102076190Y-117562380D01*
X102171428Y-117610000D01*
X102219047Y-117657619D01*
X102266666Y-117752857D01*
X102266666Y-117848095D01*
X102219047Y-117990952D01*
X101647619Y-118562380D01*
X102266666Y-118562380D01*
%TO.C,J1*%
X51830695Y-136420318D02*
X51830695Y-136956033D01*
X51794980Y-137063175D01*
X51723552Y-137134604D01*
X51616409Y-137170318D01*
X51544980Y-137170318D01*
X52580695Y-137170318D02*
X52152123Y-137170318D01*
X52366409Y-137170318D02*
X52366409Y-136420318D01*
X52294980Y-136527461D01*
X52223552Y-136598890D01*
X52152123Y-136634604D01*
%TO.C,C5*%
X84883333Y-126087142D02*
X84835714Y-126134761D01*
X84692857Y-126182380D01*
X84597619Y-126182380D01*
X84454761Y-126134761D01*
X84359523Y-126039523D01*
X84311904Y-125944285D01*
X84264285Y-125753809D01*
X84264285Y-125610952D01*
X84311904Y-125420476D01*
X84359523Y-125325238D01*
X84454761Y-125230000D01*
X84597619Y-125182380D01*
X84692857Y-125182380D01*
X84835714Y-125230000D01*
X84883333Y-125277619D01*
X85788095Y-125182380D02*
X85311904Y-125182380D01*
X85264285Y-125658571D01*
X85311904Y-125610952D01*
X85407142Y-125563333D01*
X85645238Y-125563333D01*
X85740476Y-125610952D01*
X85788095Y-125658571D01*
X85835714Y-125753809D01*
X85835714Y-125991904D01*
X85788095Y-126087142D01*
X85740476Y-126134761D01*
X85645238Y-126182380D01*
X85407142Y-126182380D01*
X85311904Y-126134761D01*
X85264285Y-126087142D01*
%TO.C,C1*%
X97512142Y-123356666D02*
X97559761Y-123404285D01*
X97607380Y-123547142D01*
X97607380Y-123642380D01*
X97559761Y-123785238D01*
X97464523Y-123880476D01*
X97369285Y-123928095D01*
X97178809Y-123975714D01*
X97035952Y-123975714D01*
X96845476Y-123928095D01*
X96750238Y-123880476D01*
X96655000Y-123785238D01*
X96607380Y-123642380D01*
X96607380Y-123547142D01*
X96655000Y-123404285D01*
X96702619Y-123356666D01*
X97607380Y-122404285D02*
X97607380Y-122975714D01*
X97607380Y-122690000D02*
X96607380Y-122690000D01*
X96750238Y-122785238D01*
X96845476Y-122880476D01*
X96893095Y-122975714D01*
%TD*%
M02*
