%TF.GenerationSoftware,KiCad,Pcbnew,(5.1.6)-1*%
%TF.CreationDate,2020-12-16T20:36:01-05:00*%
%TF.ProjectId,SummingAmp,53756d6d-696e-4674-916d-702e6b696361,rev?*%
%TF.SameCoordinates,Original*%
%TF.FileFunction,Copper,L1,Top*%
%TF.FilePolarity,Positive*%
%FSLAX46Y46*%
G04 Gerber Fmt 4.6, Leading zero omitted, Abs format (unit mm)*
G04 Created by KiCad (PCBNEW (5.1.6)-1) date 2020-12-16 20:36:01*
%MOMM*%
%LPD*%
G01*
G04 APERTURE LIST*
%TA.AperFunction,ComponentPad*%
%ADD10O,1.400000X1.400000*%
%TD*%
%TA.AperFunction,ComponentPad*%
%ADD11C,1.400000*%
%TD*%
%TA.AperFunction,ComponentPad*%
%ADD12C,1.600000*%
%TD*%
%TA.AperFunction,ComponentPad*%
%ADD13O,1.600000X2.400000*%
%TD*%
%TA.AperFunction,ComponentPad*%
%ADD14R,1.600000X2.400000*%
%TD*%
%TA.AperFunction,ComponentPad*%
%ADD15C,2.340000*%
%TD*%
%TA.AperFunction,ComponentPad*%
%ADD16O,1.700000X1.700000*%
%TD*%
%TA.AperFunction,ComponentPad*%
%ADD17R,1.700000X1.700000*%
%TD*%
%TA.AperFunction,Conductor*%
%ADD18C,0.508000*%
%TD*%
G04 APERTURE END LIST*
D10*
%TO.P,R21,2*%
%TO.N,Net-(J4-Pad3)*%
X87630000Y-123190000D03*
D11*
%TO.P,R21,1*%
%TO.N,/OUT*%
X82550000Y-123190000D03*
%TD*%
D12*
%TO.P,C3,2*%
%TO.N,-15V*%
X66595000Y-127635000D03*
%TO.P,C3,1*%
%TO.N,GND*%
X61595000Y-127635000D03*
%TD*%
%TO.P,C2,2*%
%TO.N,GND*%
X69215000Y-125095000D03*
%TO.P,C2,1*%
%TO.N,+15V*%
X69215000Y-120095000D03*
%TD*%
D13*
%TO.P,U1,8*%
%TO.N,Net-(U1-Pad8)*%
X57785000Y-116840000D03*
%TO.P,U1,4*%
%TO.N,-15V*%
X65405000Y-124460000D03*
%TO.P,U1,7*%
%TO.N,+15V*%
X60325000Y-116840000D03*
%TO.P,U1,3*%
%TO.N,GND*%
X62865000Y-124460000D03*
%TO.P,U1,6*%
%TO.N,/OUT*%
X62865000Y-116840000D03*
%TO.P,U1,2*%
%TO.N,Net-(J2-Pad2)*%
X60325000Y-124460000D03*
%TO.P,U1,5*%
%TO.N,Net-(U1-Pad5)*%
X65405000Y-116840000D03*
D14*
%TO.P,U1,1*%
%TO.N,Net-(U1-Pad1)*%
X57785000Y-124460000D03*
%TD*%
D15*
%TO.P,RV1,1*%
%TO.N,Net-(J2-Pad2)*%
X82470000Y-116840000D03*
%TO.P,RV1,2*%
%TO.N,Net-(J4-Pad2)*%
X77470000Y-116840000D03*
%TO.P,RV1,3*%
%TO.N,Net-(RV1-Pad3)*%
X72470000Y-116840000D03*
%TD*%
D10*
%TO.P,R20,2*%
%TO.N,Net-(J1-Pad20)*%
X101600000Y-135890000D03*
D11*
%TO.P,R20,1*%
%TO.N,Net-(C1-Pad1)*%
X101600000Y-130810000D03*
%TD*%
D10*
%TO.P,R19,2*%
%TO.N,Net-(J1-Pad19)*%
X99060000Y-135890000D03*
D11*
%TO.P,R19,1*%
%TO.N,Net-(C1-Pad1)*%
X99060000Y-130810000D03*
%TD*%
D10*
%TO.P,R18,2*%
%TO.N,Net-(J1-Pad18)*%
X96520000Y-135890000D03*
D11*
%TO.P,R18,1*%
%TO.N,Net-(C1-Pad1)*%
X96520000Y-130810000D03*
%TD*%
D10*
%TO.P,R17,2*%
%TO.N,Net-(J1-Pad17)*%
X93980000Y-135890000D03*
D11*
%TO.P,R17,1*%
%TO.N,Net-(C1-Pad1)*%
X93980000Y-130810000D03*
%TD*%
D10*
%TO.P,R16,2*%
%TO.N,Net-(J1-Pad16)*%
X91440000Y-135890000D03*
D11*
%TO.P,R16,1*%
%TO.N,Net-(C1-Pad1)*%
X91440000Y-130810000D03*
%TD*%
D10*
%TO.P,R15,2*%
%TO.N,Net-(J1-Pad15)*%
X88900000Y-135890000D03*
D11*
%TO.P,R15,1*%
%TO.N,Net-(C1-Pad1)*%
X88900000Y-130810000D03*
%TD*%
D10*
%TO.P,R14,2*%
%TO.N,Net-(J1-Pad14)*%
X86360000Y-135890000D03*
D11*
%TO.P,R14,1*%
%TO.N,Net-(C1-Pad1)*%
X86360000Y-130810000D03*
%TD*%
D10*
%TO.P,R13,2*%
%TO.N,Net-(J1-Pad13)*%
X83820000Y-135890000D03*
D11*
%TO.P,R13,1*%
%TO.N,Net-(C1-Pad1)*%
X83820000Y-130810000D03*
%TD*%
D10*
%TO.P,R12,2*%
%TO.N,Net-(J1-Pad12)*%
X81280000Y-135890000D03*
D11*
%TO.P,R12,1*%
%TO.N,Net-(C1-Pad1)*%
X81280000Y-130810000D03*
%TD*%
D10*
%TO.P,R11,2*%
%TO.N,Net-(J1-Pad11)*%
X78740000Y-135890000D03*
D11*
%TO.P,R11,1*%
%TO.N,Net-(C1-Pad1)*%
X78740000Y-130810000D03*
%TD*%
D10*
%TO.P,R10,2*%
%TO.N,Net-(J1-Pad10)*%
X76200000Y-135890000D03*
D11*
%TO.P,R10,1*%
%TO.N,Net-(C1-Pad1)*%
X76200000Y-130810000D03*
%TD*%
D10*
%TO.P,R9,2*%
%TO.N,Net-(J1-Pad9)*%
X73660000Y-135890000D03*
D11*
%TO.P,R9,1*%
%TO.N,Net-(C1-Pad1)*%
X73660000Y-130810000D03*
%TD*%
D10*
%TO.P,R8,2*%
%TO.N,Net-(J1-Pad8)*%
X71120000Y-135890000D03*
D11*
%TO.P,R8,1*%
%TO.N,Net-(C1-Pad1)*%
X71120000Y-130810000D03*
%TD*%
D10*
%TO.P,R7,2*%
%TO.N,Net-(J1-Pad7)*%
X68580000Y-135890000D03*
D11*
%TO.P,R7,1*%
%TO.N,Net-(C1-Pad1)*%
X68580000Y-130810000D03*
%TD*%
D10*
%TO.P,R6,2*%
%TO.N,Net-(J1-Pad6)*%
X66040000Y-135890000D03*
D11*
%TO.P,R6,1*%
%TO.N,Net-(C1-Pad1)*%
X66040000Y-130810000D03*
%TD*%
D10*
%TO.P,R5,2*%
%TO.N,Net-(J1-Pad5)*%
X63500000Y-135890000D03*
D11*
%TO.P,R5,1*%
%TO.N,Net-(C1-Pad1)*%
X63500000Y-130810000D03*
%TD*%
D10*
%TO.P,R4,2*%
%TO.N,Net-(J1-Pad4)*%
X60960000Y-135890000D03*
D11*
%TO.P,R4,1*%
%TO.N,Net-(C1-Pad1)*%
X60960000Y-130810000D03*
%TD*%
D10*
%TO.P,R3,2*%
%TO.N,Net-(J1-Pad3)*%
X58420000Y-135890000D03*
D11*
%TO.P,R3,1*%
%TO.N,Net-(C1-Pad1)*%
X58420000Y-130810000D03*
%TD*%
D10*
%TO.P,R2,2*%
%TO.N,Net-(J1-Pad2)*%
X55880000Y-135890000D03*
D11*
%TO.P,R2,1*%
%TO.N,Net-(C1-Pad1)*%
X55880000Y-130810000D03*
%TD*%
D10*
%TO.P,R1,2*%
%TO.N,Net-(J1-Pad1)*%
X53340000Y-135890000D03*
D11*
%TO.P,R1,1*%
%TO.N,Net-(C1-Pad1)*%
X53340000Y-130810000D03*
%TD*%
D16*
%TO.P,J4,3*%
%TO.N,Net-(J4-Pad3)*%
X90805000Y-120650000D03*
%TO.P,J4,2*%
%TO.N,Net-(J4-Pad2)*%
X90805000Y-123190000D03*
D17*
%TO.P,J4,1*%
%TO.N,Net-(C5-Pad2)*%
X90805000Y-125730000D03*
%TD*%
D16*
%TO.P,J3,4*%
%TO.N,/OUT*%
X53340000Y-124460000D03*
%TO.P,J3,3*%
%TO.N,-15V*%
X53340000Y-121920000D03*
%TO.P,J3,2*%
%TO.N,GND*%
X53340000Y-119380000D03*
D17*
%TO.P,J3,1*%
%TO.N,+15V*%
X53340000Y-116840000D03*
%TD*%
D16*
%TO.P,J2,3*%
%TO.N,Net-(C1-Pad2)*%
X101600000Y-120650000D03*
%TO.P,J2,2*%
%TO.N,Net-(J2-Pad2)*%
X101600000Y-123190000D03*
D17*
%TO.P,J2,1*%
%TO.N,Net-(C1-Pad1)*%
X101600000Y-125730000D03*
%TD*%
D16*
%TO.P,J1,20*%
%TO.N,Net-(J1-Pad20)*%
X101600000Y-139065000D03*
%TO.P,J1,19*%
%TO.N,Net-(J1-Pad19)*%
X99060000Y-139065000D03*
%TO.P,J1,18*%
%TO.N,Net-(J1-Pad18)*%
X96520000Y-139065000D03*
%TO.P,J1,17*%
%TO.N,Net-(J1-Pad17)*%
X93980000Y-139065000D03*
%TO.P,J1,16*%
%TO.N,Net-(J1-Pad16)*%
X91440000Y-139065000D03*
%TO.P,J1,15*%
%TO.N,Net-(J1-Pad15)*%
X88900000Y-139065000D03*
%TO.P,J1,14*%
%TO.N,Net-(J1-Pad14)*%
X86360000Y-139065000D03*
%TO.P,J1,13*%
%TO.N,Net-(J1-Pad13)*%
X83820000Y-139065000D03*
%TO.P,J1,12*%
%TO.N,Net-(J1-Pad12)*%
X81280000Y-139065000D03*
%TO.P,J1,11*%
%TO.N,Net-(J1-Pad11)*%
X78740000Y-139065000D03*
%TO.P,J1,10*%
%TO.N,Net-(J1-Pad10)*%
X76200000Y-139065000D03*
%TO.P,J1,9*%
%TO.N,Net-(J1-Pad9)*%
X73660000Y-139065000D03*
%TO.P,J1,8*%
%TO.N,Net-(J1-Pad8)*%
X71120000Y-139065000D03*
%TO.P,J1,7*%
%TO.N,Net-(J1-Pad7)*%
X68580000Y-139065000D03*
%TO.P,J1,6*%
%TO.N,Net-(J1-Pad6)*%
X66040000Y-139065000D03*
%TO.P,J1,5*%
%TO.N,Net-(J1-Pad5)*%
X63500000Y-139065000D03*
%TO.P,J1,4*%
%TO.N,Net-(J1-Pad4)*%
X60960000Y-139065000D03*
%TO.P,J1,3*%
%TO.N,Net-(J1-Pad3)*%
X58420000Y-139065000D03*
%TO.P,J1,2*%
%TO.N,Net-(J1-Pad2)*%
X55880000Y-139065000D03*
D17*
%TO.P,J1,1*%
%TO.N,Net-(J1-Pad1)*%
X53340000Y-139065000D03*
%TD*%
D12*
%TO.P,C5,2*%
%TO.N,Net-(C5-Pad2)*%
X87550000Y-125730000D03*
%TO.P,C5,1*%
%TO.N,/OUT*%
X82550000Y-125730000D03*
%TD*%
%TO.P,C1,2*%
%TO.N,Net-(C1-Pad2)*%
X97155000Y-120650000D03*
%TO.P,C1,1*%
%TO.N,Net-(C1-Pad1)*%
X97155000Y-125650000D03*
%TD*%
D18*
%TO.N,Net-(C1-Pad2)*%
X97155000Y-120650000D02*
X101600000Y-120650000D01*
%TO.N,Net-(C1-Pad1)*%
X101600000Y-130810000D02*
X53340000Y-130810000D01*
X101520000Y-125650000D02*
X101600000Y-125730000D01*
X101600000Y-125730000D02*
X101600000Y-130810000D01*
X97235000Y-125730000D02*
X97155000Y-125650000D01*
X101600000Y-125730000D02*
X97235000Y-125730000D01*
%TO.N,GND*%
X62865000Y-126365000D02*
X61595000Y-127635000D01*
X62865000Y-124460000D02*
X62865000Y-126365000D01*
X64519010Y-122805990D02*
X62865000Y-124460000D01*
X66925990Y-122805990D02*
X64519010Y-122805990D01*
X69215000Y-125095000D02*
X66925990Y-122805990D01*
%TO.N,+15V*%
X58670990Y-115185990D02*
X60325000Y-116840000D01*
X54994010Y-115185990D02*
X58670990Y-115185990D01*
X53340000Y-116840000D02*
X54994010Y-115185990D01*
%TO.N,-15V*%
X65405000Y-126445000D02*
X66595000Y-127635000D01*
X65405000Y-124460000D02*
X65405000Y-126445000D01*
X65340999Y-128889001D02*
X55864001Y-128889001D01*
X66595000Y-127635000D02*
X65340999Y-128889001D01*
X52035999Y-123224001D02*
X53340000Y-121920000D01*
X52035999Y-125060999D02*
X52035999Y-123224001D01*
X55864001Y-128889001D02*
X52035999Y-125060999D01*
%TO.N,Net-(C5-Pad2)*%
X90805000Y-125730000D02*
X87550000Y-125730000D01*
%TO.N,/OUT*%
X59305990Y-118494010D02*
X53340000Y-124460000D01*
X61210990Y-118494010D02*
X59305990Y-118494010D01*
X62865000Y-116840000D02*
X61210990Y-118494010D01*
X82550000Y-123190000D02*
X82550000Y-125730000D01*
X64865999Y-118840999D02*
X62865000Y-116840000D01*
X78200999Y-118840999D02*
X64865999Y-118840999D01*
X82550000Y-123190000D02*
X78200999Y-118840999D01*
%TO.N,Net-(J1-Pad20)*%
X101600000Y-139065000D02*
X101600000Y-135890000D01*
%TO.N,Net-(J1-Pad19)*%
X99060000Y-135890000D02*
X99060000Y-139065000D01*
%TO.N,Net-(J1-Pad18)*%
X96520000Y-139065000D02*
X96520000Y-135890000D01*
%TO.N,Net-(J1-Pad17)*%
X93980000Y-135890000D02*
X93980000Y-139065000D01*
%TO.N,Net-(J1-Pad16)*%
X91440000Y-139065000D02*
X91440000Y-135890000D01*
%TO.N,Net-(J1-Pad15)*%
X88900000Y-135890000D02*
X88900000Y-139065000D01*
%TO.N,Net-(J1-Pad14)*%
X86360000Y-139065000D02*
X86360000Y-135890000D01*
%TO.N,Net-(J1-Pad13)*%
X83820000Y-135890000D02*
X83820000Y-139065000D01*
%TO.N,Net-(J1-Pad12)*%
X81280000Y-139065000D02*
X81280000Y-135890000D01*
%TO.N,Net-(J1-Pad11)*%
X78740000Y-135890000D02*
X78740000Y-139065000D01*
%TO.N,Net-(J1-Pad10)*%
X76200000Y-139065000D02*
X76200000Y-135890000D01*
%TO.N,Net-(J1-Pad9)*%
X73660000Y-135890000D02*
X73660000Y-139065000D01*
%TO.N,Net-(J1-Pad8)*%
X71120000Y-139065000D02*
X71120000Y-135890000D01*
%TO.N,Net-(J1-Pad7)*%
X68580000Y-135890000D02*
X68580000Y-139065000D01*
%TO.N,Net-(J1-Pad6)*%
X66040000Y-139065000D02*
X66040000Y-135890000D01*
%TO.N,Net-(J1-Pad5)*%
X63500000Y-135890000D02*
X63500000Y-139065000D01*
%TO.N,Net-(J1-Pad4)*%
X60960000Y-139065000D02*
X60960000Y-135890000D01*
%TO.N,Net-(J1-Pad3)*%
X58420000Y-135890000D02*
X58420000Y-139065000D01*
%TO.N,Net-(J1-Pad2)*%
X55880000Y-139065000D02*
X55880000Y-135890000D01*
%TO.N,Net-(J1-Pad1)*%
X53340000Y-135890000D02*
X53340000Y-139065000D01*
%TO.N,Net-(J2-Pad2)*%
X98474078Y-123190000D02*
X101600000Y-123190000D01*
X73025000Y-127049078D02*
X69215000Y-123239078D01*
X69215000Y-123239078D02*
X69215000Y-123190000D01*
X69215000Y-123190000D02*
X67945000Y-121920000D01*
X62865000Y-121920000D02*
X60325000Y-124460000D01*
X67945000Y-121920000D02*
X62865000Y-121920000D01*
X91489078Y-116840000D02*
X97839078Y-123190000D01*
X97839078Y-123190000D02*
X98474078Y-123190000D01*
X82470000Y-116840000D02*
X91489078Y-116840000D01*
X97839078Y-123190000D02*
X97790000Y-123190000D01*
X73040077Y-127034001D02*
X73025000Y-127049078D01*
X93945999Y-127034001D02*
X73040077Y-127034001D01*
X97790000Y-123190000D02*
X93945999Y-127034001D01*
%TO.N,Net-(J4-Pad3)*%
X90170000Y-120650000D02*
X87630000Y-123190000D01*
X90805000Y-120650000D02*
X90170000Y-120650000D01*
%TO.N,Net-(J4-Pad2)*%
X77907922Y-116840000D02*
X77470000Y-116840000D01*
X85411923Y-124344001D02*
X77907922Y-116840000D01*
X89650999Y-124344001D02*
X85411923Y-124344001D01*
X90805000Y-123190000D02*
X89650999Y-124344001D01*
%TD*%
M02*
