%TF.GenerationSoftware,KiCad,Pcbnew,(5.1.6)-1*%
%TF.CreationDate,2020-12-16T20:36:01-05:00*%
%TF.ProjectId,SummingAmp,53756d6d-696e-4674-916d-702e6b696361,rev?*%
%TF.SameCoordinates,Original*%
%TF.FileFunction,Soldermask,Top*%
%TF.FilePolarity,Negative*%
%FSLAX46Y46*%
G04 Gerber Fmt 4.6, Leading zero omitted, Abs format (unit mm)*
G04 Created by KiCad (PCBNEW (5.1.6)-1) date 2020-12-16 20:36:01*
%MOMM*%
%LPD*%
G01*
G04 APERTURE LIST*
%ADD10O,1.500000X1.500000*%
%ADD11C,1.500000*%
%ADD12C,1.700000*%
%ADD13O,1.700000X2.500000*%
%ADD14R,1.700000X2.500000*%
%ADD15C,2.440000*%
%ADD16O,1.800000X1.800000*%
%ADD17R,1.800000X1.800000*%
G04 APERTURE END LIST*
D10*
%TO.C,R21*%
X87630000Y-123190000D03*
D11*
X82550000Y-123190000D03*
%TD*%
D12*
%TO.C,C3*%
X66595000Y-127635000D03*
X61595000Y-127635000D03*
%TD*%
%TO.C,C2*%
X69215000Y-125095000D03*
X69215000Y-120095000D03*
%TD*%
D13*
%TO.C,U1*%
X57785000Y-116840000D03*
X65405000Y-124460000D03*
X60325000Y-116840000D03*
X62865000Y-124460000D03*
X62865000Y-116840000D03*
X60325000Y-124460000D03*
X65405000Y-116840000D03*
D14*
X57785000Y-124460000D03*
%TD*%
D15*
%TO.C,RV1*%
X82470000Y-116840000D03*
X77470000Y-116840000D03*
X72470000Y-116840000D03*
%TD*%
D10*
%TO.C,R20*%
X101600000Y-135890000D03*
D11*
X101600000Y-130810000D03*
%TD*%
D10*
%TO.C,R19*%
X99060000Y-135890000D03*
D11*
X99060000Y-130810000D03*
%TD*%
D10*
%TO.C,R18*%
X96520000Y-135890000D03*
D11*
X96520000Y-130810000D03*
%TD*%
D10*
%TO.C,R17*%
X93980000Y-135890000D03*
D11*
X93980000Y-130810000D03*
%TD*%
D10*
%TO.C,R16*%
X91440000Y-135890000D03*
D11*
X91440000Y-130810000D03*
%TD*%
D10*
%TO.C,R15*%
X88900000Y-135890000D03*
D11*
X88900000Y-130810000D03*
%TD*%
D10*
%TO.C,R14*%
X86360000Y-135890000D03*
D11*
X86360000Y-130810000D03*
%TD*%
D10*
%TO.C,R13*%
X83820000Y-135890000D03*
D11*
X83820000Y-130810000D03*
%TD*%
D10*
%TO.C,R12*%
X81280000Y-135890000D03*
D11*
X81280000Y-130810000D03*
%TD*%
D10*
%TO.C,R11*%
X78740000Y-135890000D03*
D11*
X78740000Y-130810000D03*
%TD*%
D10*
%TO.C,R10*%
X76200000Y-135890000D03*
D11*
X76200000Y-130810000D03*
%TD*%
D10*
%TO.C,R9*%
X73660000Y-135890000D03*
D11*
X73660000Y-130810000D03*
%TD*%
D10*
%TO.C,R8*%
X71120000Y-135890000D03*
D11*
X71120000Y-130810000D03*
%TD*%
D10*
%TO.C,R7*%
X68580000Y-135890000D03*
D11*
X68580000Y-130810000D03*
%TD*%
D10*
%TO.C,R6*%
X66040000Y-135890000D03*
D11*
X66040000Y-130810000D03*
%TD*%
D10*
%TO.C,R5*%
X63500000Y-135890000D03*
D11*
X63500000Y-130810000D03*
%TD*%
D10*
%TO.C,R4*%
X60960000Y-135890000D03*
D11*
X60960000Y-130810000D03*
%TD*%
D10*
%TO.C,R3*%
X58420000Y-135890000D03*
D11*
X58420000Y-130810000D03*
%TD*%
D10*
%TO.C,R2*%
X55880000Y-135890000D03*
D11*
X55880000Y-130810000D03*
%TD*%
D10*
%TO.C,R1*%
X53340000Y-135890000D03*
D11*
X53340000Y-130810000D03*
%TD*%
D16*
%TO.C,J4*%
X90805000Y-120650000D03*
X90805000Y-123190000D03*
D17*
X90805000Y-125730000D03*
%TD*%
D16*
%TO.C,J3*%
X53340000Y-124460000D03*
X53340000Y-121920000D03*
X53340000Y-119380000D03*
D17*
X53340000Y-116840000D03*
%TD*%
D16*
%TO.C,J2*%
X101600000Y-120650000D03*
X101600000Y-123190000D03*
D17*
X101600000Y-125730000D03*
%TD*%
D16*
%TO.C,J1*%
X101600000Y-139065000D03*
X99060000Y-139065000D03*
X96520000Y-139065000D03*
X93980000Y-139065000D03*
X91440000Y-139065000D03*
X88900000Y-139065000D03*
X86360000Y-139065000D03*
X83820000Y-139065000D03*
X81280000Y-139065000D03*
X78740000Y-139065000D03*
X76200000Y-139065000D03*
X73660000Y-139065000D03*
X71120000Y-139065000D03*
X68580000Y-139065000D03*
X66040000Y-139065000D03*
X63500000Y-139065000D03*
X60960000Y-139065000D03*
X58420000Y-139065000D03*
X55880000Y-139065000D03*
D17*
X53340000Y-139065000D03*
%TD*%
D12*
%TO.C,C5*%
X87550000Y-125730000D03*
X82550000Y-125730000D03*
%TD*%
%TO.C,C1*%
X97155000Y-120650000D03*
X97155000Y-125650000D03*
%TD*%
M02*
