M48
; DRILL file {KiCad (5.1.6)-1} date 12/16/20 20:36:06
; FORMAT={-:-/ absolute / inch / decimal}
; #@! TF.CreationDate,2020-12-16T20:36:06-05:00
; #@! TF.GenerationSoftware,Kicad,Pcbnew,(5.1.6)-1
; #@! TF.FileFunction,Plated,1,2,PTH
FMAT,2
INCH
T1C0.0276
T2C0.0315
T3C0.0394
T4C0.0512
%
G90
G05
T1
X3.1Y-5.15
X3.1Y-5.35
X2.6Y-5.15
X2.6Y-5.35
X3.4Y-5.15
X3.4Y-5.35
X2.8Y-5.15
X2.8Y-5.35
X2.7Y-5.15
X2.7Y-5.35
X3.0Y-5.15
X3.0Y-5.35
X2.3Y-5.15
X2.3Y-5.35
X3.2Y-5.15
X3.2Y-5.35
X2.2Y-5.15
X2.2Y-5.35
X3.6Y-5.15
X3.6Y-5.35
X3.7Y-5.15
X3.7Y-5.35
X3.25Y-4.85
X3.45Y-4.85
X3.3Y-5.15
X3.3Y-5.35
X2.1Y-5.15
X2.1Y-5.35
X3.9Y-5.15
X3.9Y-5.35
X4.0Y-5.15
X4.0Y-5.35
X3.8Y-5.15
X3.8Y-5.35
X2.9Y-5.15
X2.9Y-5.35
X3.5Y-5.15
X3.5Y-5.35
X2.5Y-5.15
X2.5Y-5.35
X2.4Y-5.15
X2.4Y-5.35
T2
X3.25Y-4.95
X3.4469Y-4.95
X2.725Y-4.7281
X2.725Y-4.925
X3.825Y-4.75
X3.825Y-4.9469
X2.425Y-5.025
X2.6219Y-5.025
X2.275Y-4.6
X2.275Y-4.9
X2.375Y-4.6
X2.375Y-4.9
X2.475Y-4.6
X2.475Y-4.9
X2.575Y-4.6
X2.575Y-4.9
T3
X3.575Y-4.75
X3.575Y-4.85
X3.575Y-4.95
X2.1Y-5.475
X2.2Y-5.475
X2.3Y-5.475
X2.4Y-5.475
X2.5Y-5.475
X2.6Y-5.475
X2.7Y-5.475
X2.8Y-5.475
X2.9Y-5.475
X3.0Y-5.475
X3.1Y-5.475
X3.2Y-5.475
X3.3Y-5.475
X3.4Y-5.475
X3.5Y-5.475
X3.6Y-5.475
X3.7Y-5.475
X3.8Y-5.475
X3.9Y-5.475
X4.0Y-5.475
X4.0Y-4.75
X4.0Y-4.85
X4.0Y-4.95
X2.1Y-4.6
X2.1Y-4.7
X2.1Y-4.8
X2.1Y-4.9
T4
X2.8531Y-4.6
X3.05Y-4.6
X3.2469Y-4.6
T0
M30
