%TF.GenerationSoftware,KiCad,Pcbnew,(5.1.6)-1*%
%TF.CreationDate,2021-01-30T08:39:32-05:00*%
%TF.ProjectId,EnvelopeFilter,456e7665-6c6f-4706-9546-696c7465722e,rev?*%
%TF.SameCoordinates,Original*%
%TF.FileFunction,Legend,Top*%
%TF.FilePolarity,Positive*%
%FSLAX46Y46*%
G04 Gerber Fmt 4.6, Leading zero omitted, Abs format (unit mm)*
G04 Created by KiCad (PCBNEW (5.1.6)-1) date 2021-01-30 08:39:32*
%MOMM*%
%LPD*%
G01*
G04 APERTURE LIST*
%ADD10C,0.120000*%
%ADD11C,0.187500*%
%ADD12C,0.150000*%
G04 APERTURE END LIST*
D10*
X175514000Y-132715000D02*
X175514000Y-130175000D01*
X175514000Y-135255000D02*
X175514000Y-132715000D01*
D11*
X176488285Y-135393571D02*
X176131142Y-135643571D01*
X176488285Y-135822142D02*
X175738285Y-135822142D01*
X175738285Y-135536428D01*
X175774000Y-135465000D01*
X175809714Y-135429285D01*
X175881142Y-135393571D01*
X175988285Y-135393571D01*
X176059714Y-135429285D01*
X176095428Y-135465000D01*
X176131142Y-135536428D01*
X176131142Y-135822142D01*
X176095428Y-135072142D02*
X176095428Y-134822142D01*
X176488285Y-134715000D02*
X176488285Y-135072142D01*
X175738285Y-135072142D01*
X175738285Y-134715000D01*
X176452571Y-134429285D02*
X176488285Y-134322142D01*
X176488285Y-134143571D01*
X176452571Y-134072142D01*
X176416857Y-134036428D01*
X176345428Y-134000714D01*
X176274000Y-134000714D01*
X176202571Y-134036428D01*
X176166857Y-134072142D01*
X176131142Y-134143571D01*
X176095428Y-134286428D01*
X176059714Y-134357857D01*
X176024000Y-134393571D01*
X175952571Y-134429285D01*
X175881142Y-134429285D01*
X175809714Y-134393571D01*
X175774000Y-134357857D01*
X175738285Y-134286428D01*
X175738285Y-134107857D01*
X175774000Y-134000714D01*
X175738285Y-133536428D02*
X175738285Y-133393571D01*
X175774000Y-133322142D01*
X175845428Y-133250714D01*
X175988285Y-133215000D01*
X176238285Y-133215000D01*
X176381142Y-133250714D01*
X176452571Y-133322142D01*
X176488285Y-133393571D01*
X176488285Y-133536428D01*
X176452571Y-133607857D01*
X176381142Y-133679285D01*
X176238285Y-133715000D01*
X175988285Y-133715000D01*
X175845428Y-133679285D01*
X175774000Y-133607857D01*
X175738285Y-133536428D01*
X176488285Y-132893571D02*
X175738285Y-132893571D01*
X176488285Y-132465000D01*
X175738285Y-132465000D01*
X176274000Y-132143571D02*
X176274000Y-131786428D01*
X176488285Y-132215000D02*
X175738285Y-131965000D01*
X176488285Y-131715000D01*
X176488285Y-131465000D02*
X175738285Y-131465000D01*
X176488285Y-131036428D01*
X175738285Y-131036428D01*
X176416857Y-130250714D02*
X176452571Y-130286428D01*
X176488285Y-130393571D01*
X176488285Y-130465000D01*
X176452571Y-130572142D01*
X176381142Y-130643571D01*
X176309714Y-130679285D01*
X176166857Y-130715000D01*
X176059714Y-130715000D01*
X175916857Y-130679285D01*
X175845428Y-130643571D01*
X175774000Y-130572142D01*
X175738285Y-130465000D01*
X175738285Y-130393571D01*
X175774000Y-130286428D01*
X175809714Y-130250714D01*
X176095428Y-129929285D02*
X176095428Y-129679285D01*
X176488285Y-129572142D02*
X176488285Y-129929285D01*
X175738285Y-129929285D01*
X175738285Y-129572142D01*
D10*
X157480000Y-139954000D02*
X157480000Y-141097000D01*
X162560000Y-140462000D02*
X162560000Y-141097000D01*
X160020000Y-141097000D02*
X162560000Y-141097000D01*
X157480000Y-141097000D02*
X160020000Y-141097000D01*
X160020000Y-140462000D02*
X160020000Y-141097000D01*
D11*
X158107142Y-141678428D02*
X158214285Y-141714142D01*
X158250000Y-141749857D01*
X158285714Y-141821285D01*
X158285714Y-141928428D01*
X158250000Y-141999857D01*
X158214285Y-142035571D01*
X158142857Y-142071285D01*
X157857142Y-142071285D01*
X157857142Y-141321285D01*
X158107142Y-141321285D01*
X158178571Y-141357000D01*
X158214285Y-141392714D01*
X158250000Y-141464142D01*
X158250000Y-141535571D01*
X158214285Y-141607000D01*
X158178571Y-141642714D01*
X158107142Y-141678428D01*
X157857142Y-141678428D01*
X158750000Y-141714142D02*
X158750000Y-142071285D01*
X158500000Y-141321285D02*
X158750000Y-141714142D01*
X159000000Y-141321285D01*
X159250000Y-142071285D02*
X159250000Y-141321285D01*
X159535714Y-141321285D01*
X159607142Y-141357000D01*
X159642857Y-141392714D01*
X159678571Y-141464142D01*
X159678571Y-141571285D01*
X159642857Y-141642714D01*
X159607142Y-141678428D01*
X159535714Y-141714142D01*
X159250000Y-141714142D01*
X160504285Y-141857000D02*
X160861428Y-141857000D01*
X160432857Y-142071285D02*
X160682857Y-141321285D01*
X160932857Y-142071285D01*
X161540000Y-142071285D02*
X161182857Y-142071285D01*
X161182857Y-141321285D01*
X162147142Y-142071285D02*
X161790000Y-142071285D01*
X161790000Y-141321285D01*
X145996428Y-99067857D02*
X146032142Y-98960714D01*
X146067857Y-98925000D01*
X146139285Y-98889285D01*
X146246428Y-98889285D01*
X146317857Y-98925000D01*
X146353571Y-98960714D01*
X146389285Y-99032142D01*
X146389285Y-99317857D01*
X145639285Y-99317857D01*
X145639285Y-99067857D01*
X145675000Y-98996428D01*
X145710714Y-98960714D01*
X145782142Y-98925000D01*
X145853571Y-98925000D01*
X145925000Y-98960714D01*
X145960714Y-98996428D01*
X145996428Y-99067857D01*
X145996428Y-99317857D01*
X146032142Y-98425000D02*
X146389285Y-98425000D01*
X145639285Y-98675000D02*
X146032142Y-98425000D01*
X145639285Y-98175000D01*
X146389285Y-97925000D02*
X145639285Y-97925000D01*
X145639285Y-97639285D01*
X145675000Y-97567857D01*
X145710714Y-97532142D01*
X145782142Y-97496428D01*
X145889285Y-97496428D01*
X145960714Y-97532142D01*
X145996428Y-97567857D01*
X146032142Y-97639285D01*
X146032142Y-97925000D01*
D10*
X146685000Y-97155000D02*
X146685000Y-99695000D01*
X147193000Y-99695000D02*
X146685000Y-99695000D01*
X146685000Y-99695000D02*
X146685000Y-102235000D01*
D11*
X146389285Y-101357857D02*
X145639285Y-101357857D01*
X145996428Y-101357857D02*
X145996428Y-100929285D01*
X146389285Y-100929285D02*
X145639285Y-100929285D01*
X146389285Y-100572142D02*
X145639285Y-100572142D01*
D10*
X147193000Y-102235000D02*
X146685000Y-102235000D01*
X147701000Y-97155000D02*
X146685000Y-97155000D01*
X160528000Y-97155000D02*
X160401000Y-97155000D01*
X161036000Y-102235000D02*
X160401000Y-102235000D01*
X160401000Y-99695000D02*
X160401000Y-102235000D01*
X160401000Y-97155000D02*
X160401000Y-99695000D01*
X160528000Y-99695000D02*
X160401000Y-99695000D01*
D11*
X160105285Y-99389285D02*
X159355285Y-99389285D01*
X159891000Y-99139285D01*
X159355285Y-98889285D01*
X160105285Y-98889285D01*
X159891000Y-98567857D02*
X159891000Y-98210714D01*
X160105285Y-98639285D02*
X159355285Y-98389285D01*
X160105285Y-98139285D01*
X160105285Y-97889285D02*
X159355285Y-97889285D01*
X160105285Y-97460714D01*
X159355285Y-97460714D01*
X159712428Y-101840000D02*
X159712428Y-101590000D01*
X160105285Y-101482857D02*
X160105285Y-101840000D01*
X159355285Y-101840000D01*
X159355285Y-101482857D01*
X160105285Y-101161428D02*
X159355285Y-101161428D01*
X160105285Y-100732857D01*
X159355285Y-100732857D01*
X159355285Y-100482857D02*
X160105285Y-100232857D01*
X159355285Y-99982857D01*
D10*
X155956000Y-99695000D02*
X155956000Y-102235000D01*
X155956000Y-97155000D02*
X155956000Y-99695000D01*
D11*
X155660285Y-102552142D02*
X154910285Y-102552142D01*
X155446000Y-102302142D01*
X154910285Y-102052142D01*
X155660285Y-102052142D01*
X155446000Y-101730714D02*
X155446000Y-101373571D01*
X155660285Y-101802142D02*
X154910285Y-101552142D01*
X155660285Y-101302142D01*
X155660285Y-101052142D02*
X154910285Y-101052142D01*
X155660285Y-100623571D01*
X154910285Y-100623571D01*
X155374571Y-100266428D02*
X155374571Y-99695000D01*
X155267428Y-99087857D02*
X155267428Y-99337857D01*
X155660285Y-99337857D02*
X154910285Y-99337857D01*
X154910285Y-98980714D01*
X155660285Y-98266428D02*
X155303142Y-98516428D01*
X155660285Y-98695000D02*
X154910285Y-98695000D01*
X154910285Y-98409285D01*
X154946000Y-98337857D01*
X154981714Y-98302142D01*
X155053142Y-98266428D01*
X155160285Y-98266428D01*
X155231714Y-98302142D01*
X155267428Y-98337857D01*
X155303142Y-98409285D01*
X155303142Y-98695000D01*
X155267428Y-97945000D02*
X155267428Y-97695000D01*
X155660285Y-97587857D02*
X155660285Y-97945000D01*
X154910285Y-97945000D01*
X154910285Y-97587857D01*
X155731714Y-96766428D02*
X155696000Y-96837857D01*
X155624571Y-96909285D01*
X155517428Y-97016428D01*
X155481714Y-97087857D01*
X155481714Y-97159285D01*
X155660285Y-97123571D02*
X155624571Y-97195000D01*
X155553142Y-97266428D01*
X155410285Y-97302142D01*
X155160285Y-97302142D01*
X155017428Y-97266428D01*
X154946000Y-97195000D01*
X154910285Y-97123571D01*
X154910285Y-96980714D01*
X154946000Y-96909285D01*
X155017428Y-96837857D01*
X155160285Y-96802142D01*
X155410285Y-96802142D01*
X155553142Y-96837857D01*
X155624571Y-96909285D01*
X155660285Y-96980714D01*
X155660285Y-97123571D01*
D10*
X152146000Y-97155000D02*
X151511000Y-97155000D01*
X151638000Y-102235000D02*
X151511000Y-102235000D01*
X151511000Y-99695000D02*
X151511000Y-102235000D01*
X151511000Y-97155000D02*
X151511000Y-99695000D01*
X151638000Y-99695000D02*
X151511000Y-99695000D01*
D11*
X150822428Y-99067857D02*
X150858142Y-98960714D01*
X150893857Y-98925000D01*
X150965285Y-98889285D01*
X151072428Y-98889285D01*
X151143857Y-98925000D01*
X151179571Y-98960714D01*
X151215285Y-99032142D01*
X151215285Y-99317857D01*
X150465285Y-99317857D01*
X150465285Y-99067857D01*
X150501000Y-98996428D01*
X150536714Y-98960714D01*
X150608142Y-98925000D01*
X150679571Y-98925000D01*
X150751000Y-98960714D01*
X150786714Y-98996428D01*
X150822428Y-99067857D01*
X150822428Y-99317857D01*
X150858142Y-98425000D02*
X151215285Y-98425000D01*
X150465285Y-98675000D02*
X150858142Y-98425000D01*
X150465285Y-98175000D01*
X151215285Y-97925000D02*
X150465285Y-97925000D01*
X150465285Y-97639285D01*
X150501000Y-97567857D01*
X150536714Y-97532142D01*
X150608142Y-97496428D01*
X150715285Y-97496428D01*
X150786714Y-97532142D01*
X150822428Y-97567857D01*
X150858142Y-97639285D01*
X150858142Y-97925000D01*
X151215285Y-101554285D02*
X151215285Y-101911428D01*
X150465285Y-101911428D01*
X150465285Y-101161428D02*
X150465285Y-101018571D01*
X150501000Y-100947142D01*
X150572428Y-100875714D01*
X150715285Y-100840000D01*
X150965285Y-100840000D01*
X151108142Y-100875714D01*
X151179571Y-100947142D01*
X151215285Y-101018571D01*
X151215285Y-101161428D01*
X151179571Y-101232857D01*
X151108142Y-101304285D01*
X150965285Y-101340000D01*
X150715285Y-101340000D01*
X150572428Y-101304285D01*
X150501000Y-101232857D01*
X150465285Y-101161428D01*
X150465285Y-100590000D02*
X151215285Y-100411428D01*
X150679571Y-100268571D01*
X151215285Y-100125714D01*
X150465285Y-99947142D01*
X170105178Y-77003571D02*
X170105178Y-76753571D01*
X170498035Y-76646428D02*
X170498035Y-77003571D01*
X169748035Y-77003571D01*
X169748035Y-76646428D01*
X169748035Y-76396428D02*
X170498035Y-75896428D01*
X169748035Y-75896428D02*
X170498035Y-76396428D01*
X169748035Y-75717857D02*
X169748035Y-75289285D01*
X170498035Y-75503571D02*
X169748035Y-75503571D01*
X171060535Y-77342857D02*
X171060535Y-76914285D01*
X171810535Y-77128571D02*
X171060535Y-77128571D01*
X171810535Y-76235714D02*
X171453392Y-76485714D01*
X171810535Y-76664285D02*
X171060535Y-76664285D01*
X171060535Y-76378571D01*
X171096250Y-76307142D01*
X171131964Y-76271428D01*
X171203392Y-76235714D01*
X171310535Y-76235714D01*
X171381964Y-76271428D01*
X171417678Y-76307142D01*
X171453392Y-76378571D01*
X171453392Y-76664285D01*
X171810535Y-75914285D02*
X171060535Y-75914285D01*
X171096250Y-75164285D02*
X171060535Y-75235714D01*
X171060535Y-75342857D01*
X171096250Y-75450000D01*
X171167678Y-75521428D01*
X171239107Y-75557142D01*
X171381964Y-75592857D01*
X171489107Y-75592857D01*
X171631964Y-75557142D01*
X171703392Y-75521428D01*
X171774821Y-75450000D01*
X171810535Y-75342857D01*
X171810535Y-75271428D01*
X171774821Y-75164285D01*
X171739107Y-75128571D01*
X171489107Y-75128571D01*
X171489107Y-75271428D01*
D10*
X172085000Y-91440000D02*
X172085000Y-93980000D01*
X173101000Y-93980000D02*
X172085000Y-93980000D01*
X172085000Y-93980000D02*
X172720000Y-93980000D01*
X172593000Y-91440000D02*
X172085000Y-91440000D01*
X172085000Y-88900000D02*
X172085000Y-91440000D01*
X172593000Y-88900000D02*
X172085000Y-88900000D01*
D11*
X170519285Y-92636428D02*
X170162142Y-92886428D01*
X170519285Y-93065000D02*
X169769285Y-93065000D01*
X169769285Y-92779285D01*
X169805000Y-92707857D01*
X169840714Y-92672142D01*
X169912142Y-92636428D01*
X170019285Y-92636428D01*
X170090714Y-92672142D01*
X170126428Y-92707857D01*
X170162142Y-92779285D01*
X170162142Y-93065000D01*
X170305000Y-92350714D02*
X170305000Y-91993571D01*
X170519285Y-92422142D02*
X169769285Y-92172142D01*
X170519285Y-91922142D01*
X170519285Y-91672142D02*
X169769285Y-91672142D01*
X170519285Y-91243571D01*
X169769285Y-91243571D01*
X169805000Y-90493571D02*
X169769285Y-90565000D01*
X169769285Y-90672142D01*
X169805000Y-90779285D01*
X169876428Y-90850714D01*
X169947857Y-90886428D01*
X170090714Y-90922142D01*
X170197857Y-90922142D01*
X170340714Y-90886428D01*
X170412142Y-90850714D01*
X170483571Y-90779285D01*
X170519285Y-90672142D01*
X170519285Y-90600714D01*
X170483571Y-90493571D01*
X170447857Y-90457857D01*
X170197857Y-90457857D01*
X170197857Y-90600714D01*
X170126428Y-90136428D02*
X170126428Y-89886428D01*
X170519285Y-89779285D02*
X170519285Y-90136428D01*
X169769285Y-90136428D01*
X169769285Y-89779285D01*
X171391696Y-89830714D02*
X171427410Y-89795000D01*
X171498839Y-89759285D01*
X171677410Y-89759285D01*
X171748839Y-89795000D01*
X171784553Y-89830714D01*
X171820267Y-89902142D01*
X171820267Y-89973571D01*
X171784553Y-90080714D01*
X171355982Y-90509285D01*
X171820267Y-90509285D01*
X171820267Y-93049285D02*
X171391696Y-93049285D01*
X171605982Y-93049285D02*
X171605982Y-92299285D01*
X171534553Y-92406428D01*
X171463125Y-92477857D01*
X171391696Y-92513571D01*
X170605982Y-104479285D02*
X170605982Y-103729285D01*
X171034553Y-104479285D01*
X171034553Y-103729285D01*
X171820267Y-104407857D02*
X171784553Y-104443571D01*
X171677410Y-104479285D01*
X171605982Y-104479285D01*
X171498839Y-104443571D01*
X171427410Y-104372142D01*
X171391696Y-104300714D01*
X171355982Y-104157857D01*
X171355982Y-104050714D01*
X171391696Y-103907857D01*
X171427410Y-103836428D01*
X171498839Y-103765000D01*
X171605982Y-103729285D01*
X171677410Y-103729285D01*
X171784553Y-103765000D01*
X171820267Y-103800714D01*
X170605982Y-107019285D02*
X170605982Y-106269285D01*
X171034553Y-107019285D01*
X171034553Y-106269285D01*
X171820267Y-106947857D02*
X171784553Y-106983571D01*
X171677410Y-107019285D01*
X171605982Y-107019285D01*
X171498839Y-106983571D01*
X171427410Y-106912142D01*
X171391696Y-106840714D01*
X171355982Y-106697857D01*
X171355982Y-106590714D01*
X171391696Y-106447857D01*
X171427410Y-106376428D01*
X171498839Y-106305000D01*
X171605982Y-106269285D01*
X171677410Y-106269285D01*
X171784553Y-106305000D01*
X171820267Y-106340714D01*
X170605982Y-109559285D02*
X170605982Y-108809285D01*
X171034553Y-109559285D01*
X171034553Y-108809285D01*
X171820267Y-109487857D02*
X171784553Y-109523571D01*
X171677410Y-109559285D01*
X171605982Y-109559285D01*
X171498839Y-109523571D01*
X171427410Y-109452142D01*
X171391696Y-109380714D01*
X171355982Y-109237857D01*
X171355982Y-109130714D01*
X171391696Y-108987857D01*
X171427410Y-108916428D01*
X171498839Y-108845000D01*
X171605982Y-108809285D01*
X171677410Y-108809285D01*
X171784553Y-108845000D01*
X171820267Y-108880714D01*
X170998839Y-112099285D02*
X170998839Y-111349285D01*
X171355982Y-112099285D02*
X171355982Y-111349285D01*
X171784553Y-112099285D01*
X171784553Y-111349285D01*
X169891696Y-113925000D02*
X169820267Y-113889285D01*
X169713125Y-113889285D01*
X169605982Y-113925000D01*
X169534553Y-113996428D01*
X169498839Y-114067857D01*
X169463125Y-114210714D01*
X169463125Y-114317857D01*
X169498839Y-114460714D01*
X169534553Y-114532142D01*
X169605982Y-114603571D01*
X169713125Y-114639285D01*
X169784553Y-114639285D01*
X169891696Y-114603571D01*
X169927410Y-114567857D01*
X169927410Y-114317857D01*
X169784553Y-114317857D01*
X170213125Y-114425000D02*
X170570267Y-114425000D01*
X170141696Y-114639285D02*
X170391696Y-113889285D01*
X170641696Y-114639285D01*
X170784553Y-113889285D02*
X171213125Y-113889285D01*
X170998839Y-114639285D02*
X170998839Y-113889285D01*
X171463125Y-114246428D02*
X171713125Y-114246428D01*
X171820267Y-114639285D02*
X171463125Y-114639285D01*
X171463125Y-113889285D01*
X171820267Y-113889285D01*
X170141696Y-116429285D02*
X170284553Y-116429285D01*
X170355982Y-116465000D01*
X170427410Y-116536428D01*
X170463125Y-116679285D01*
X170463125Y-116929285D01*
X170427410Y-117072142D01*
X170355982Y-117143571D01*
X170284553Y-117179285D01*
X170141696Y-117179285D01*
X170070267Y-117143571D01*
X169998839Y-117072142D01*
X169963125Y-116929285D01*
X169963125Y-116679285D01*
X169998839Y-116536428D01*
X170070267Y-116465000D01*
X170141696Y-116429285D01*
X170784553Y-116429285D02*
X170784553Y-117036428D01*
X170820267Y-117107857D01*
X170855982Y-117143571D01*
X170927410Y-117179285D01*
X171070267Y-117179285D01*
X171141696Y-117143571D01*
X171177410Y-117107857D01*
X171213125Y-117036428D01*
X171213125Y-116429285D01*
X171463125Y-116429285D02*
X171891696Y-116429285D01*
X171677410Y-117179285D02*
X171677410Y-116429285D01*
X169141696Y-119433571D02*
X169713125Y-119433571D01*
X170463125Y-119719285D02*
X170034553Y-119719285D01*
X170248839Y-119719285D02*
X170248839Y-118969285D01*
X170177410Y-119076428D01*
X170105982Y-119147857D01*
X170034553Y-119183571D01*
X171141696Y-118969285D02*
X170784553Y-118969285D01*
X170748839Y-119326428D01*
X170784553Y-119290714D01*
X170855982Y-119255000D01*
X171034553Y-119255000D01*
X171105982Y-119290714D01*
X171141696Y-119326428D01*
X171177410Y-119397857D01*
X171177410Y-119576428D01*
X171141696Y-119647857D01*
X171105982Y-119683571D01*
X171034553Y-119719285D01*
X170855982Y-119719285D01*
X170784553Y-119683571D01*
X170748839Y-119647857D01*
X171391696Y-118969285D02*
X171641696Y-119719285D01*
X171891696Y-118969285D01*
X169141696Y-124513571D02*
X169713125Y-124513571D01*
X169427410Y-124799285D02*
X169427410Y-124227857D01*
X170463125Y-124799285D02*
X170034553Y-124799285D01*
X170248839Y-124799285D02*
X170248839Y-124049285D01*
X170177410Y-124156428D01*
X170105982Y-124227857D01*
X170034553Y-124263571D01*
X171141696Y-124049285D02*
X170784553Y-124049285D01*
X170748839Y-124406428D01*
X170784553Y-124370714D01*
X170855982Y-124335000D01*
X171034553Y-124335000D01*
X171105982Y-124370714D01*
X171141696Y-124406428D01*
X171177410Y-124477857D01*
X171177410Y-124656428D01*
X171141696Y-124727857D01*
X171105982Y-124763571D01*
X171034553Y-124799285D01*
X170855982Y-124799285D01*
X170784553Y-124763571D01*
X170748839Y-124727857D01*
X171391696Y-124049285D02*
X171641696Y-124799285D01*
X171891696Y-124049285D01*
X170248839Y-121545000D02*
X170177410Y-121509285D01*
X170070267Y-121509285D01*
X169963125Y-121545000D01*
X169891696Y-121616428D01*
X169855982Y-121687857D01*
X169820267Y-121830714D01*
X169820267Y-121937857D01*
X169855982Y-122080714D01*
X169891696Y-122152142D01*
X169963125Y-122223571D01*
X170070267Y-122259285D01*
X170141696Y-122259285D01*
X170248839Y-122223571D01*
X170284553Y-122187857D01*
X170284553Y-121937857D01*
X170141696Y-121937857D01*
X170605982Y-122259285D02*
X170605982Y-121509285D01*
X171034553Y-122259285D01*
X171034553Y-121509285D01*
X171391696Y-122259285D02*
X171391696Y-121509285D01*
X171570267Y-121509285D01*
X171677410Y-121545000D01*
X171748839Y-121616428D01*
X171784553Y-121687857D01*
X171820267Y-121830714D01*
X171820267Y-121937857D01*
X171784553Y-122080714D01*
X171748839Y-122152142D01*
X171677410Y-122223571D01*
X171570267Y-122259285D01*
X171391696Y-122259285D01*
X172645178Y-58663571D02*
X172645178Y-58413571D01*
X173038035Y-58306428D02*
X173038035Y-58663571D01*
X172288035Y-58663571D01*
X172288035Y-58306428D01*
X172538035Y-57985000D02*
X173038035Y-57985000D01*
X172609464Y-57985000D02*
X172573750Y-57949285D01*
X172538035Y-57877857D01*
X172538035Y-57770714D01*
X172573750Y-57699285D01*
X172645178Y-57663571D01*
X173038035Y-57663571D01*
X172538035Y-57377857D02*
X173038035Y-57199285D01*
X172538035Y-57020714D01*
X173002321Y-56449285D02*
X173038035Y-56520714D01*
X173038035Y-56663571D01*
X173002321Y-56735000D01*
X172930892Y-56770714D01*
X172645178Y-56770714D01*
X172573750Y-56735000D01*
X172538035Y-56663571D01*
X172538035Y-56520714D01*
X172573750Y-56449285D01*
X172645178Y-56413571D01*
X172716607Y-56413571D01*
X172788035Y-56770714D01*
X173038035Y-55985000D02*
X173002321Y-56056428D01*
X172930892Y-56092142D01*
X172288035Y-56092142D01*
X173038035Y-55592142D02*
X173002321Y-55663571D01*
X172966607Y-55699285D01*
X172895178Y-55735000D01*
X172680892Y-55735000D01*
X172609464Y-55699285D01*
X172573750Y-55663571D01*
X172538035Y-55592142D01*
X172538035Y-55485000D01*
X172573750Y-55413571D01*
X172609464Y-55377857D01*
X172680892Y-55342142D01*
X172895178Y-55342142D01*
X172966607Y-55377857D01*
X173002321Y-55413571D01*
X173038035Y-55485000D01*
X173038035Y-55592142D01*
X172538035Y-55020714D02*
X173288035Y-55020714D01*
X172573750Y-55020714D02*
X172538035Y-54949285D01*
X172538035Y-54806428D01*
X172573750Y-54735000D01*
X172609464Y-54699285D01*
X172680892Y-54663571D01*
X172895178Y-54663571D01*
X172966607Y-54699285D01*
X173002321Y-54735000D01*
X173038035Y-54806428D01*
X173038035Y-54949285D01*
X173002321Y-55020714D01*
X173002321Y-54056428D02*
X173038035Y-54127857D01*
X173038035Y-54270714D01*
X173002321Y-54342142D01*
X172930892Y-54377857D01*
X172645178Y-54377857D01*
X172573750Y-54342142D01*
X172538035Y-54270714D01*
X172538035Y-54127857D01*
X172573750Y-54056428D01*
X172645178Y-54020714D01*
X172716607Y-54020714D01*
X172788035Y-54377857D01*
X172645178Y-52877857D02*
X172645178Y-53127857D01*
X173038035Y-53127857D02*
X172288035Y-53127857D01*
X172288035Y-52770714D01*
X173038035Y-52485000D02*
X172538035Y-52485000D01*
X172288035Y-52485000D02*
X172323750Y-52520714D01*
X172359464Y-52485000D01*
X172323750Y-52449285D01*
X172288035Y-52485000D01*
X172359464Y-52485000D01*
X173038035Y-52020714D02*
X173002321Y-52092142D01*
X172930892Y-52127857D01*
X172288035Y-52127857D01*
X172538035Y-51842142D02*
X172538035Y-51556428D01*
X172288035Y-51735000D02*
X172930892Y-51735000D01*
X173002321Y-51699285D01*
X173038035Y-51627857D01*
X173038035Y-51556428D01*
X173002321Y-51020714D02*
X173038035Y-51092142D01*
X173038035Y-51235000D01*
X173002321Y-51306428D01*
X172930892Y-51342142D01*
X172645178Y-51342142D01*
X172573750Y-51306428D01*
X172538035Y-51235000D01*
X172538035Y-51092142D01*
X172573750Y-51020714D01*
X172645178Y-50985000D01*
X172716607Y-50985000D01*
X172788035Y-51342142D01*
X173038035Y-50663571D02*
X172538035Y-50663571D01*
X172680892Y-50663571D02*
X172609464Y-50627857D01*
X172573750Y-50592142D01*
X172538035Y-50520714D01*
X172538035Y-50449285D01*
X173600535Y-60020714D02*
X173600535Y-59520714D01*
X174350535Y-60020714D01*
X174350535Y-59520714D01*
X174350535Y-58913571D02*
X173957678Y-58913571D01*
X173886250Y-58949285D01*
X173850535Y-59020714D01*
X173850535Y-59163571D01*
X173886250Y-59235000D01*
X174314821Y-58913571D02*
X174350535Y-58985000D01*
X174350535Y-59163571D01*
X174314821Y-59235000D01*
X174243392Y-59270714D01*
X174171964Y-59270714D01*
X174100535Y-59235000D01*
X174064821Y-59163571D01*
X174064821Y-58985000D01*
X174029107Y-58913571D01*
X174314821Y-58235000D02*
X174350535Y-58306428D01*
X174350535Y-58449285D01*
X174314821Y-58520714D01*
X174279107Y-58556428D01*
X174207678Y-58592142D01*
X173993392Y-58592142D01*
X173921964Y-58556428D01*
X173886250Y-58520714D01*
X173850535Y-58449285D01*
X173850535Y-58306428D01*
X173886250Y-58235000D01*
X174350535Y-57913571D02*
X173600535Y-57913571D01*
X174350535Y-57592142D02*
X173957678Y-57592142D01*
X173886250Y-57627857D01*
X173850535Y-57699285D01*
X173850535Y-57806428D01*
X173886250Y-57877857D01*
X173921964Y-57913571D01*
X173957678Y-56413571D02*
X173993392Y-56306428D01*
X174029107Y-56270714D01*
X174100535Y-56235000D01*
X174207678Y-56235000D01*
X174279107Y-56270714D01*
X174314821Y-56306428D01*
X174350535Y-56377857D01*
X174350535Y-56663571D01*
X173600535Y-56663571D01*
X173600535Y-56413571D01*
X173636250Y-56342142D01*
X173671964Y-56306428D01*
X173743392Y-56270714D01*
X173814821Y-56270714D01*
X173886250Y-56306428D01*
X173921964Y-56342142D01*
X173957678Y-56413571D01*
X173957678Y-56663571D01*
X174350535Y-55592142D02*
X173957678Y-55592142D01*
X173886250Y-55627857D01*
X173850535Y-55699285D01*
X173850535Y-55842142D01*
X173886250Y-55913571D01*
X174314821Y-55592142D02*
X174350535Y-55663571D01*
X174350535Y-55842142D01*
X174314821Y-55913571D01*
X174243392Y-55949285D01*
X174171964Y-55949285D01*
X174100535Y-55913571D01*
X174064821Y-55842142D01*
X174064821Y-55663571D01*
X174029107Y-55592142D01*
X174350535Y-55127857D02*
X174314821Y-55199285D01*
X174243392Y-55235000D01*
X173600535Y-55235000D01*
X174350535Y-54520714D02*
X173600535Y-54520714D01*
X174314821Y-54520714D02*
X174350535Y-54592142D01*
X174350535Y-54735000D01*
X174314821Y-54806428D01*
X174279107Y-54842142D01*
X174207678Y-54877857D01*
X173993392Y-54877857D01*
X173921964Y-54842142D01*
X173886250Y-54806428D01*
X173850535Y-54735000D01*
X173850535Y-54592142D01*
X173886250Y-54520714D01*
X173850535Y-54235000D02*
X174350535Y-54092142D01*
X173993392Y-53949285D01*
X174350535Y-53806428D01*
X173850535Y-53663571D01*
X174350535Y-53377857D02*
X173850535Y-53377857D01*
X173600535Y-53377857D02*
X173636250Y-53413571D01*
X173671964Y-53377857D01*
X173636250Y-53342142D01*
X173600535Y-53377857D01*
X173671964Y-53377857D01*
X173850535Y-53020714D02*
X174350535Y-53020714D01*
X173921964Y-53020714D02*
X173886250Y-52985000D01*
X173850535Y-52913571D01*
X173850535Y-52806428D01*
X173886250Y-52735000D01*
X173957678Y-52699285D01*
X174350535Y-52699285D01*
X173671964Y-51806428D02*
X173636250Y-51770714D01*
X173600535Y-51699285D01*
X173600535Y-51520714D01*
X173636250Y-51449285D01*
X173671964Y-51413571D01*
X173743392Y-51377857D01*
X173814821Y-51377857D01*
X173921964Y-51413571D01*
X174350535Y-51842142D01*
X174350535Y-51377857D01*
X173600535Y-50913571D02*
X173600535Y-50842142D01*
X173636250Y-50770714D01*
X173671964Y-50735000D01*
X173743392Y-50699285D01*
X173886250Y-50663571D01*
X174064821Y-50663571D01*
X174207678Y-50699285D01*
X174279107Y-50735000D01*
X174314821Y-50770714D01*
X174350535Y-50842142D01*
X174350535Y-50913571D01*
X174314821Y-50985000D01*
X174279107Y-51020714D01*
X174207678Y-51056428D01*
X174064821Y-51092142D01*
X173886250Y-51092142D01*
X173743392Y-51056428D01*
X173671964Y-51020714D01*
X173636250Y-50985000D01*
X173600535Y-50913571D01*
X173671964Y-50377857D02*
X173636250Y-50342142D01*
X173600535Y-50270714D01*
X173600535Y-50092142D01*
X173636250Y-50020714D01*
X173671964Y-49985000D01*
X173743392Y-49949285D01*
X173814821Y-49949285D01*
X173921964Y-49985000D01*
X174350535Y-50413571D01*
X174350535Y-49949285D01*
X173600535Y-49485000D02*
X173600535Y-49413571D01*
X173636250Y-49342142D01*
X173671964Y-49306428D01*
X173743392Y-49270714D01*
X173886250Y-49235000D01*
X174064821Y-49235000D01*
X174207678Y-49270714D01*
X174279107Y-49306428D01*
X174314821Y-49342142D01*
X174350535Y-49413571D01*
X174350535Y-49485000D01*
X174314821Y-49556428D01*
X174279107Y-49592142D01*
X174207678Y-49627857D01*
X174064821Y-49663571D01*
X173886250Y-49663571D01*
X173743392Y-49627857D01*
X173671964Y-49592142D01*
X173636250Y-49556428D01*
X173600535Y-49485000D01*
D10*
%TO.C,C12*%
X171280000Y-62865000D02*
G75*
G03*
X171280000Y-62865000I-4120000J0D01*
G01*
X167160000Y-66945000D02*
X167160000Y-58785000D01*
X167120000Y-66945000D02*
X167120000Y-58785000D01*
X167080000Y-66945000D02*
X167080000Y-58785000D01*
X167040000Y-66944000D02*
X167040000Y-58786000D01*
X167000000Y-66942000D02*
X167000000Y-58788000D01*
X166960000Y-66941000D02*
X166960000Y-58789000D01*
X166920000Y-66939000D02*
X166920000Y-58791000D01*
X166880000Y-66936000D02*
X166880000Y-58794000D01*
X166840000Y-66933000D02*
X166840000Y-58797000D01*
X166800000Y-66930000D02*
X166800000Y-58800000D01*
X166760000Y-66926000D02*
X166760000Y-58804000D01*
X166720000Y-66922000D02*
X166720000Y-58808000D01*
X166680000Y-66917000D02*
X166680000Y-58813000D01*
X166640000Y-66913000D02*
X166640000Y-58817000D01*
X166600000Y-66907000D02*
X166600000Y-58823000D01*
X166560000Y-66902000D02*
X166560000Y-58828000D01*
X166520000Y-66895000D02*
X166520000Y-58835000D01*
X166480000Y-66889000D02*
X166480000Y-58841000D01*
X166439000Y-66882000D02*
X166439000Y-63905000D01*
X166439000Y-61825000D02*
X166439000Y-58848000D01*
X166399000Y-66875000D02*
X166399000Y-63905000D01*
X166399000Y-61825000D02*
X166399000Y-58855000D01*
X166359000Y-66867000D02*
X166359000Y-63905000D01*
X166359000Y-61825000D02*
X166359000Y-58863000D01*
X166319000Y-66859000D02*
X166319000Y-63905000D01*
X166319000Y-61825000D02*
X166319000Y-58871000D01*
X166279000Y-66850000D02*
X166279000Y-63905000D01*
X166279000Y-61825000D02*
X166279000Y-58880000D01*
X166239000Y-66841000D02*
X166239000Y-63905000D01*
X166239000Y-61825000D02*
X166239000Y-58889000D01*
X166199000Y-66832000D02*
X166199000Y-63905000D01*
X166199000Y-61825000D02*
X166199000Y-58898000D01*
X166159000Y-66822000D02*
X166159000Y-63905000D01*
X166159000Y-61825000D02*
X166159000Y-58908000D01*
X166119000Y-66812000D02*
X166119000Y-63905000D01*
X166119000Y-61825000D02*
X166119000Y-58918000D01*
X166079000Y-66801000D02*
X166079000Y-63905000D01*
X166079000Y-61825000D02*
X166079000Y-58929000D01*
X166039000Y-66790000D02*
X166039000Y-63905000D01*
X166039000Y-61825000D02*
X166039000Y-58940000D01*
X165999000Y-66779000D02*
X165999000Y-63905000D01*
X165999000Y-61825000D02*
X165999000Y-58951000D01*
X165959000Y-66767000D02*
X165959000Y-63905000D01*
X165959000Y-61825000D02*
X165959000Y-58963000D01*
X165919000Y-66754000D02*
X165919000Y-63905000D01*
X165919000Y-61825000D02*
X165919000Y-58976000D01*
X165879000Y-66742000D02*
X165879000Y-63905000D01*
X165879000Y-61825000D02*
X165879000Y-58988000D01*
X165839000Y-66728000D02*
X165839000Y-63905000D01*
X165839000Y-61825000D02*
X165839000Y-59002000D01*
X165799000Y-66715000D02*
X165799000Y-63905000D01*
X165799000Y-61825000D02*
X165799000Y-59015000D01*
X165759000Y-66700000D02*
X165759000Y-63905000D01*
X165759000Y-61825000D02*
X165759000Y-59030000D01*
X165719000Y-66686000D02*
X165719000Y-63905000D01*
X165719000Y-61825000D02*
X165719000Y-59044000D01*
X165679000Y-66670000D02*
X165679000Y-63905000D01*
X165679000Y-61825000D02*
X165679000Y-59060000D01*
X165639000Y-66655000D02*
X165639000Y-63905000D01*
X165639000Y-61825000D02*
X165639000Y-59075000D01*
X165599000Y-66639000D02*
X165599000Y-63905000D01*
X165599000Y-61825000D02*
X165599000Y-59091000D01*
X165559000Y-66622000D02*
X165559000Y-63905000D01*
X165559000Y-61825000D02*
X165559000Y-59108000D01*
X165519000Y-66605000D02*
X165519000Y-63905000D01*
X165519000Y-61825000D02*
X165519000Y-59125000D01*
X165479000Y-66587000D02*
X165479000Y-63905000D01*
X165479000Y-61825000D02*
X165479000Y-59143000D01*
X165439000Y-66569000D02*
X165439000Y-63905000D01*
X165439000Y-61825000D02*
X165439000Y-59161000D01*
X165399000Y-66551000D02*
X165399000Y-63905000D01*
X165399000Y-61825000D02*
X165399000Y-59179000D01*
X165359000Y-66531000D02*
X165359000Y-63905000D01*
X165359000Y-61825000D02*
X165359000Y-59199000D01*
X165319000Y-66512000D02*
X165319000Y-63905000D01*
X165319000Y-61825000D02*
X165319000Y-59218000D01*
X165279000Y-66492000D02*
X165279000Y-63905000D01*
X165279000Y-61825000D02*
X165279000Y-59238000D01*
X165239000Y-66471000D02*
X165239000Y-63905000D01*
X165239000Y-61825000D02*
X165239000Y-59259000D01*
X165199000Y-66449000D02*
X165199000Y-63905000D01*
X165199000Y-61825000D02*
X165199000Y-59281000D01*
X165159000Y-66427000D02*
X165159000Y-63905000D01*
X165159000Y-61825000D02*
X165159000Y-59303000D01*
X165119000Y-66405000D02*
X165119000Y-63905000D01*
X165119000Y-61825000D02*
X165119000Y-59325000D01*
X165079000Y-66382000D02*
X165079000Y-63905000D01*
X165079000Y-61825000D02*
X165079000Y-59348000D01*
X165039000Y-66358000D02*
X165039000Y-63905000D01*
X165039000Y-61825000D02*
X165039000Y-59372000D01*
X164999000Y-66334000D02*
X164999000Y-63905000D01*
X164999000Y-61825000D02*
X164999000Y-59396000D01*
X164959000Y-66309000D02*
X164959000Y-63905000D01*
X164959000Y-61825000D02*
X164959000Y-59421000D01*
X164919000Y-66283000D02*
X164919000Y-63905000D01*
X164919000Y-61825000D02*
X164919000Y-59447000D01*
X164879000Y-66257000D02*
X164879000Y-63905000D01*
X164879000Y-61825000D02*
X164879000Y-59473000D01*
X164839000Y-66230000D02*
X164839000Y-63905000D01*
X164839000Y-61825000D02*
X164839000Y-59500000D01*
X164799000Y-66203000D02*
X164799000Y-63905000D01*
X164799000Y-61825000D02*
X164799000Y-59527000D01*
X164759000Y-66174000D02*
X164759000Y-63905000D01*
X164759000Y-61825000D02*
X164759000Y-59556000D01*
X164719000Y-66145000D02*
X164719000Y-63905000D01*
X164719000Y-61825000D02*
X164719000Y-59585000D01*
X164679000Y-66115000D02*
X164679000Y-63905000D01*
X164679000Y-61825000D02*
X164679000Y-59615000D01*
X164639000Y-66085000D02*
X164639000Y-63905000D01*
X164639000Y-61825000D02*
X164639000Y-59645000D01*
X164599000Y-66054000D02*
X164599000Y-63905000D01*
X164599000Y-61825000D02*
X164599000Y-59676000D01*
X164559000Y-66021000D02*
X164559000Y-63905000D01*
X164559000Y-61825000D02*
X164559000Y-59709000D01*
X164519000Y-65989000D02*
X164519000Y-63905000D01*
X164519000Y-61825000D02*
X164519000Y-59741000D01*
X164479000Y-65955000D02*
X164479000Y-63905000D01*
X164479000Y-61825000D02*
X164479000Y-59775000D01*
X164439000Y-65920000D02*
X164439000Y-63905000D01*
X164439000Y-61825000D02*
X164439000Y-59810000D01*
X164399000Y-65884000D02*
X164399000Y-63905000D01*
X164399000Y-61825000D02*
X164399000Y-59846000D01*
X164359000Y-65848000D02*
X164359000Y-59882000D01*
X164319000Y-65810000D02*
X164319000Y-59920000D01*
X164279000Y-65772000D02*
X164279000Y-59958000D01*
X164239000Y-65732000D02*
X164239000Y-59998000D01*
X164199000Y-65691000D02*
X164199000Y-60039000D01*
X164159000Y-65649000D02*
X164159000Y-60081000D01*
X164119000Y-65606000D02*
X164119000Y-60124000D01*
X164079000Y-65562000D02*
X164079000Y-60168000D01*
X164039000Y-65516000D02*
X164039000Y-60214000D01*
X163999000Y-65469000D02*
X163999000Y-60261000D01*
X163959000Y-65421000D02*
X163959000Y-60309000D01*
X163919000Y-65370000D02*
X163919000Y-60360000D01*
X163879000Y-65319000D02*
X163879000Y-60411000D01*
X163839000Y-65265000D02*
X163839000Y-60465000D01*
X163799000Y-65210000D02*
X163799000Y-60520000D01*
X163759000Y-65152000D02*
X163759000Y-60578000D01*
X163719000Y-65093000D02*
X163719000Y-60637000D01*
X163679000Y-65031000D02*
X163679000Y-60699000D01*
X163639000Y-64967000D02*
X163639000Y-60763000D01*
X163599000Y-64899000D02*
X163599000Y-60831000D01*
X163559000Y-64829000D02*
X163559000Y-60901000D01*
X163519000Y-64755000D02*
X163519000Y-60975000D01*
X163479000Y-64678000D02*
X163479000Y-61052000D01*
X163439000Y-64596000D02*
X163439000Y-61134000D01*
X163399000Y-64510000D02*
X163399000Y-61220000D01*
X163359000Y-64417000D02*
X163359000Y-61313000D01*
X163319000Y-64318000D02*
X163319000Y-61412000D01*
X163279000Y-64211000D02*
X163279000Y-61519000D01*
X163239000Y-64094000D02*
X163239000Y-61636000D01*
X163199000Y-63963000D02*
X163199000Y-61767000D01*
X163159000Y-63813000D02*
X163159000Y-61917000D01*
X163119000Y-63633000D02*
X163119000Y-62097000D01*
X163079000Y-63398000D02*
X163079000Y-62332000D01*
X171569698Y-65180000D02*
X170769698Y-65180000D01*
X171169698Y-65580000D02*
X171169698Y-64780000D01*
%TO.C,C11*%
X171280000Y-53340000D02*
G75*
G03*
X171280000Y-53340000I-4120000J0D01*
G01*
X167160000Y-49260000D02*
X167160000Y-57420000D01*
X167200000Y-49260000D02*
X167200000Y-57420000D01*
X167240000Y-49260000D02*
X167240000Y-57420000D01*
X167280000Y-49261000D02*
X167280000Y-57419000D01*
X167320000Y-49263000D02*
X167320000Y-57417000D01*
X167360000Y-49264000D02*
X167360000Y-57416000D01*
X167400000Y-49266000D02*
X167400000Y-57414000D01*
X167440000Y-49269000D02*
X167440000Y-57411000D01*
X167480000Y-49272000D02*
X167480000Y-57408000D01*
X167520000Y-49275000D02*
X167520000Y-57405000D01*
X167560000Y-49279000D02*
X167560000Y-57401000D01*
X167600000Y-49283000D02*
X167600000Y-57397000D01*
X167640000Y-49288000D02*
X167640000Y-57392000D01*
X167680000Y-49292000D02*
X167680000Y-57388000D01*
X167720000Y-49298000D02*
X167720000Y-57382000D01*
X167760000Y-49303000D02*
X167760000Y-57377000D01*
X167800000Y-49310000D02*
X167800000Y-57370000D01*
X167840000Y-49316000D02*
X167840000Y-57364000D01*
X167881000Y-49323000D02*
X167881000Y-52300000D01*
X167881000Y-54380000D02*
X167881000Y-57357000D01*
X167921000Y-49330000D02*
X167921000Y-52300000D01*
X167921000Y-54380000D02*
X167921000Y-57350000D01*
X167961000Y-49338000D02*
X167961000Y-52300000D01*
X167961000Y-54380000D02*
X167961000Y-57342000D01*
X168001000Y-49346000D02*
X168001000Y-52300000D01*
X168001000Y-54380000D02*
X168001000Y-57334000D01*
X168041000Y-49355000D02*
X168041000Y-52300000D01*
X168041000Y-54380000D02*
X168041000Y-57325000D01*
X168081000Y-49364000D02*
X168081000Y-52300000D01*
X168081000Y-54380000D02*
X168081000Y-57316000D01*
X168121000Y-49373000D02*
X168121000Y-52300000D01*
X168121000Y-54380000D02*
X168121000Y-57307000D01*
X168161000Y-49383000D02*
X168161000Y-52300000D01*
X168161000Y-54380000D02*
X168161000Y-57297000D01*
X168201000Y-49393000D02*
X168201000Y-52300000D01*
X168201000Y-54380000D02*
X168201000Y-57287000D01*
X168241000Y-49404000D02*
X168241000Y-52300000D01*
X168241000Y-54380000D02*
X168241000Y-57276000D01*
X168281000Y-49415000D02*
X168281000Y-52300000D01*
X168281000Y-54380000D02*
X168281000Y-57265000D01*
X168321000Y-49426000D02*
X168321000Y-52300000D01*
X168321000Y-54380000D02*
X168321000Y-57254000D01*
X168361000Y-49438000D02*
X168361000Y-52300000D01*
X168361000Y-54380000D02*
X168361000Y-57242000D01*
X168401000Y-49451000D02*
X168401000Y-52300000D01*
X168401000Y-54380000D02*
X168401000Y-57229000D01*
X168441000Y-49463000D02*
X168441000Y-52300000D01*
X168441000Y-54380000D02*
X168441000Y-57217000D01*
X168481000Y-49477000D02*
X168481000Y-52300000D01*
X168481000Y-54380000D02*
X168481000Y-57203000D01*
X168521000Y-49490000D02*
X168521000Y-52300000D01*
X168521000Y-54380000D02*
X168521000Y-57190000D01*
X168561000Y-49505000D02*
X168561000Y-52300000D01*
X168561000Y-54380000D02*
X168561000Y-57175000D01*
X168601000Y-49519000D02*
X168601000Y-52300000D01*
X168601000Y-54380000D02*
X168601000Y-57161000D01*
X168641000Y-49535000D02*
X168641000Y-52300000D01*
X168641000Y-54380000D02*
X168641000Y-57145000D01*
X168681000Y-49550000D02*
X168681000Y-52300000D01*
X168681000Y-54380000D02*
X168681000Y-57130000D01*
X168721000Y-49566000D02*
X168721000Y-52300000D01*
X168721000Y-54380000D02*
X168721000Y-57114000D01*
X168761000Y-49583000D02*
X168761000Y-52300000D01*
X168761000Y-54380000D02*
X168761000Y-57097000D01*
X168801000Y-49600000D02*
X168801000Y-52300000D01*
X168801000Y-54380000D02*
X168801000Y-57080000D01*
X168841000Y-49618000D02*
X168841000Y-52300000D01*
X168841000Y-54380000D02*
X168841000Y-57062000D01*
X168881000Y-49636000D02*
X168881000Y-52300000D01*
X168881000Y-54380000D02*
X168881000Y-57044000D01*
X168921000Y-49654000D02*
X168921000Y-52300000D01*
X168921000Y-54380000D02*
X168921000Y-57026000D01*
X168961000Y-49674000D02*
X168961000Y-52300000D01*
X168961000Y-54380000D02*
X168961000Y-57006000D01*
X169001000Y-49693000D02*
X169001000Y-52300000D01*
X169001000Y-54380000D02*
X169001000Y-56987000D01*
X169041000Y-49713000D02*
X169041000Y-52300000D01*
X169041000Y-54380000D02*
X169041000Y-56967000D01*
X169081000Y-49734000D02*
X169081000Y-52300000D01*
X169081000Y-54380000D02*
X169081000Y-56946000D01*
X169121000Y-49756000D02*
X169121000Y-52300000D01*
X169121000Y-54380000D02*
X169121000Y-56924000D01*
X169161000Y-49778000D02*
X169161000Y-52300000D01*
X169161000Y-54380000D02*
X169161000Y-56902000D01*
X169201000Y-49800000D02*
X169201000Y-52300000D01*
X169201000Y-54380000D02*
X169201000Y-56880000D01*
X169241000Y-49823000D02*
X169241000Y-52300000D01*
X169241000Y-54380000D02*
X169241000Y-56857000D01*
X169281000Y-49847000D02*
X169281000Y-52300000D01*
X169281000Y-54380000D02*
X169281000Y-56833000D01*
X169321000Y-49871000D02*
X169321000Y-52300000D01*
X169321000Y-54380000D02*
X169321000Y-56809000D01*
X169361000Y-49896000D02*
X169361000Y-52300000D01*
X169361000Y-54380000D02*
X169361000Y-56784000D01*
X169401000Y-49922000D02*
X169401000Y-52300000D01*
X169401000Y-54380000D02*
X169401000Y-56758000D01*
X169441000Y-49948000D02*
X169441000Y-52300000D01*
X169441000Y-54380000D02*
X169441000Y-56732000D01*
X169481000Y-49975000D02*
X169481000Y-52300000D01*
X169481000Y-54380000D02*
X169481000Y-56705000D01*
X169521000Y-50002000D02*
X169521000Y-52300000D01*
X169521000Y-54380000D02*
X169521000Y-56678000D01*
X169561000Y-50031000D02*
X169561000Y-52300000D01*
X169561000Y-54380000D02*
X169561000Y-56649000D01*
X169601000Y-50060000D02*
X169601000Y-52300000D01*
X169601000Y-54380000D02*
X169601000Y-56620000D01*
X169641000Y-50090000D02*
X169641000Y-52300000D01*
X169641000Y-54380000D02*
X169641000Y-56590000D01*
X169681000Y-50120000D02*
X169681000Y-52300000D01*
X169681000Y-54380000D02*
X169681000Y-56560000D01*
X169721000Y-50151000D02*
X169721000Y-52300000D01*
X169721000Y-54380000D02*
X169721000Y-56529000D01*
X169761000Y-50184000D02*
X169761000Y-52300000D01*
X169761000Y-54380000D02*
X169761000Y-56496000D01*
X169801000Y-50216000D02*
X169801000Y-52300000D01*
X169801000Y-54380000D02*
X169801000Y-56464000D01*
X169841000Y-50250000D02*
X169841000Y-52300000D01*
X169841000Y-54380000D02*
X169841000Y-56430000D01*
X169881000Y-50285000D02*
X169881000Y-52300000D01*
X169881000Y-54380000D02*
X169881000Y-56395000D01*
X169921000Y-50321000D02*
X169921000Y-52300000D01*
X169921000Y-54380000D02*
X169921000Y-56359000D01*
X169961000Y-50357000D02*
X169961000Y-56323000D01*
X170001000Y-50395000D02*
X170001000Y-56285000D01*
X170041000Y-50433000D02*
X170041000Y-56247000D01*
X170081000Y-50473000D02*
X170081000Y-56207000D01*
X170121000Y-50514000D02*
X170121000Y-56166000D01*
X170161000Y-50556000D02*
X170161000Y-56124000D01*
X170201000Y-50599000D02*
X170201000Y-56081000D01*
X170241000Y-50643000D02*
X170241000Y-56037000D01*
X170281000Y-50689000D02*
X170281000Y-55991000D01*
X170321000Y-50736000D02*
X170321000Y-55944000D01*
X170361000Y-50784000D02*
X170361000Y-55896000D01*
X170401000Y-50835000D02*
X170401000Y-55845000D01*
X170441000Y-50886000D02*
X170441000Y-55794000D01*
X170481000Y-50940000D02*
X170481000Y-55740000D01*
X170521000Y-50995000D02*
X170521000Y-55685000D01*
X170561000Y-51053000D02*
X170561000Y-55627000D01*
X170601000Y-51112000D02*
X170601000Y-55568000D01*
X170641000Y-51174000D02*
X170641000Y-55506000D01*
X170681000Y-51238000D02*
X170681000Y-55442000D01*
X170721000Y-51306000D02*
X170721000Y-55374000D01*
X170761000Y-51376000D02*
X170761000Y-55304000D01*
X170801000Y-51450000D02*
X170801000Y-55230000D01*
X170841000Y-51527000D02*
X170841000Y-55153000D01*
X170881000Y-51609000D02*
X170881000Y-55071000D01*
X170921000Y-51695000D02*
X170921000Y-54985000D01*
X170961000Y-51788000D02*
X170961000Y-54892000D01*
X171001000Y-51887000D02*
X171001000Y-54793000D01*
X171041000Y-51994000D02*
X171041000Y-54686000D01*
X171081000Y-52111000D02*
X171081000Y-54569000D01*
X171121000Y-52242000D02*
X171121000Y-54438000D01*
X171161000Y-52392000D02*
X171161000Y-54288000D01*
X171201000Y-52572000D02*
X171201000Y-54108000D01*
X171241000Y-52807000D02*
X171241000Y-53873000D01*
X162750302Y-51025000D02*
X163550302Y-51025000D01*
X163150302Y-50625000D02*
X163150302Y-51425000D01*
%TO.C,J4*%
X147260000Y-95825000D02*
X148590000Y-95825000D01*
X147260000Y-97155000D02*
X147260000Y-95825000D01*
X147260000Y-98425000D02*
X149920000Y-98425000D01*
X149920000Y-98425000D02*
X149920000Y-103565000D01*
X147260000Y-98425000D02*
X147260000Y-103565000D01*
X147260000Y-103565000D02*
X149920000Y-103565000D01*
%TO.C,J8*%
X175320000Y-136585000D02*
X173990000Y-136585000D01*
X175320000Y-135255000D02*
X175320000Y-136585000D01*
X175320000Y-133985000D02*
X172660000Y-133985000D01*
X172660000Y-133985000D02*
X172660000Y-128845000D01*
X175320000Y-133985000D02*
X175320000Y-128845000D01*
X175320000Y-128845000D02*
X172660000Y-128845000D01*
%TO.C,R30*%
X157765000Y-111140000D02*
X157765000Y-107300000D01*
X155925000Y-111140000D02*
X155925000Y-107300000D01*
%TO.C,R28*%
X152685000Y-130190000D02*
X152685000Y-126350000D01*
X150845000Y-130190000D02*
X150845000Y-126350000D01*
%TO.C,U1*%
X142815000Y-116095000D02*
X142815000Y-117745000D01*
X165795000Y-116095000D02*
X142815000Y-116095000D01*
X165795000Y-121395000D02*
X165795000Y-116095000D01*
X142815000Y-121395000D02*
X165795000Y-121395000D01*
X142815000Y-119745000D02*
X142815000Y-121395000D01*
X142815000Y-117745000D02*
G75*
G02*
X142815000Y-119745000I0J-1000000D01*
G01*
%TO.C,R29*%
X161640000Y-126350000D02*
X161640000Y-130190000D01*
X163480000Y-126350000D02*
X163480000Y-130190000D01*
%TO.C,R27*%
X152685000Y-111140000D02*
X152685000Y-107300000D01*
X150845000Y-111140000D02*
X150845000Y-107300000D01*
%TO.C,R26*%
X160305000Y-111140000D02*
X160305000Y-107300000D01*
X158465000Y-111140000D02*
X158465000Y-107300000D01*
%TO.C,R25*%
X145765000Y-107300000D02*
X145765000Y-111140000D01*
X147605000Y-107300000D02*
X147605000Y-111140000D01*
%TO.C,R24*%
X150145000Y-111140000D02*
X150145000Y-107300000D01*
X148305000Y-111140000D02*
X148305000Y-107300000D01*
%TO.C,R23*%
X143225000Y-107300000D02*
X143225000Y-111140000D01*
X145065000Y-107300000D02*
X145065000Y-111140000D01*
%TO.C,R19*%
X155925000Y-126350000D02*
X155925000Y-130190000D01*
X157765000Y-126350000D02*
X157765000Y-130190000D01*
%TO.C,R15*%
X144765000Y-135540000D02*
X148605000Y-135540000D01*
X144765000Y-133700000D02*
X148605000Y-133700000D01*
%TO.C,R12*%
X157465000Y-135540000D02*
X161305000Y-135540000D01*
X157465000Y-133700000D02*
X161305000Y-133700000D01*
%TO.C,R9*%
X150145000Y-130190000D02*
X150145000Y-126350000D01*
X148305000Y-130190000D02*
X148305000Y-126350000D01*
%TO.C,R4*%
X145065000Y-130190000D02*
X145065000Y-126350000D01*
X143225000Y-130190000D02*
X143225000Y-126350000D01*
%TO.C,R3*%
X145765000Y-126350000D02*
X145765000Y-130190000D01*
X147605000Y-126350000D02*
X147605000Y-130190000D01*
%TO.C,J7*%
X151705000Y-95825000D02*
X153035000Y-95825000D01*
X151705000Y-97155000D02*
X151705000Y-95825000D01*
X151705000Y-98425000D02*
X154365000Y-98425000D01*
X154365000Y-98425000D02*
X154365000Y-103565000D01*
X151705000Y-98425000D02*
X151705000Y-103565000D01*
X151705000Y-103565000D02*
X154365000Y-103565000D01*
%TO.C,J6*%
X156150000Y-95825000D02*
X157480000Y-95825000D01*
X156150000Y-97155000D02*
X156150000Y-95825000D01*
X156150000Y-98425000D02*
X158810000Y-98425000D01*
X158810000Y-98425000D02*
X158810000Y-103565000D01*
X156150000Y-98425000D02*
X156150000Y-103565000D01*
X156150000Y-103565000D02*
X158810000Y-103565000D01*
%TO.C,J5*%
X163255000Y-103565000D02*
X161925000Y-103565000D01*
X163255000Y-102235000D02*
X163255000Y-103565000D01*
X163255000Y-100965000D02*
X160595000Y-100965000D01*
X160595000Y-100965000D02*
X160595000Y-95825000D01*
X163255000Y-100965000D02*
X163255000Y-95825000D01*
X163255000Y-95825000D02*
X160595000Y-95825000D01*
%TO.C,J2*%
X156150000Y-140395000D02*
X156150000Y-139065000D01*
X157480000Y-140395000D02*
X156150000Y-140395000D01*
X158750000Y-140395000D02*
X158750000Y-137735000D01*
X158750000Y-137735000D02*
X163890000Y-137735000D01*
X158750000Y-140395000D02*
X163890000Y-140395000D01*
X163890000Y-140395000D02*
X163890000Y-137735000D01*
%TO.C,C10*%
X164680000Y-130500000D02*
X164665000Y-130500000D01*
X166805000Y-130500000D02*
X166790000Y-130500000D01*
X164680000Y-125960000D02*
X164665000Y-125960000D01*
X166805000Y-125960000D02*
X166790000Y-125960000D01*
X164665000Y-125960000D02*
X164665000Y-130500000D01*
X166805000Y-125960000D02*
X166805000Y-130500000D01*
%TO.C,C9*%
X141390000Y-117705000D02*
X141405000Y-117705000D01*
X139265000Y-117705000D02*
X139280000Y-117705000D01*
X141390000Y-122245000D02*
X141405000Y-122245000D01*
X139265000Y-122245000D02*
X139280000Y-122245000D01*
X141405000Y-122245000D02*
X141405000Y-117705000D01*
X139265000Y-122245000D02*
X139265000Y-117705000D01*
%TO.C,C4*%
X160870000Y-111530000D02*
X160855000Y-111530000D01*
X162995000Y-111530000D02*
X162980000Y-111530000D01*
X160870000Y-106990000D02*
X160855000Y-106990000D01*
X162995000Y-106990000D02*
X162980000Y-106990000D01*
X160855000Y-106990000D02*
X160855000Y-111530000D01*
X162995000Y-106990000D02*
X162995000Y-111530000D01*
%TO.C,C3*%
X160440000Y-125960000D02*
X160455000Y-125960000D01*
X158315000Y-125960000D02*
X158330000Y-125960000D01*
X160440000Y-130500000D02*
X160455000Y-130500000D01*
X158315000Y-130500000D02*
X158330000Y-130500000D01*
X160455000Y-130500000D02*
X160455000Y-125960000D01*
X158315000Y-130500000D02*
X158315000Y-125960000D01*
%TO.C,C1*%
X155360000Y-125960000D02*
X155375000Y-125960000D01*
X153235000Y-125960000D02*
X153250000Y-125960000D01*
X155360000Y-130500000D02*
X155375000Y-130500000D01*
X153235000Y-130500000D02*
X153250000Y-130500000D01*
X155375000Y-130500000D02*
X155375000Y-125960000D01*
X153235000Y-130500000D02*
X153235000Y-125960000D01*
%TO.C,J9*%
X175320000Y-102810000D02*
X172660000Y-102810000D01*
X175320000Y-123190000D02*
X175320000Y-102810000D01*
X172660000Y-123190000D02*
X172660000Y-102810000D01*
X175320000Y-123190000D02*
X172660000Y-123190000D01*
X175320000Y-124460000D02*
X175320000Y-125790000D01*
X175320000Y-125790000D02*
X173990000Y-125790000D01*
%TO.C,C8*%
X158950000Y-58190000D02*
X158950000Y-53650000D01*
X161090000Y-58190000D02*
X161090000Y-53650000D01*
X158950000Y-58190000D02*
X158965000Y-58190000D01*
X161075000Y-58190000D02*
X161090000Y-58190000D01*
X158950000Y-53650000D02*
X158965000Y-53650000D01*
X161075000Y-53650000D02*
X161090000Y-53650000D01*
%TO.C,RV4*%
X132430000Y-142105000D02*
X124190000Y-142105000D01*
X132430000Y-125865000D02*
X124190000Y-125865000D01*
X132430000Y-142105000D02*
X132430000Y-125865000D01*
X124190000Y-142105000D02*
X124190000Y-125865000D01*
X124190000Y-139105000D02*
X115190000Y-139105000D01*
X124190000Y-128865000D02*
X115190000Y-128865000D01*
X124190000Y-139105000D02*
X124190000Y-128865000D01*
X115190000Y-139105000D02*
X115190000Y-128865000D01*
X115190000Y-137105000D02*
X99190000Y-137105000D01*
X115190000Y-130864000D02*
X99190000Y-130864000D01*
X115190000Y-137105000D02*
X115190000Y-130864000D01*
X99190000Y-137105000D02*
X99190000Y-130864000D01*
%TO.C,RV3*%
X132430000Y-116705000D02*
X124190000Y-116705000D01*
X132430000Y-100465000D02*
X124190000Y-100465000D01*
X132430000Y-116705000D02*
X132430000Y-100465000D01*
X124190000Y-116705000D02*
X124190000Y-100465000D01*
X124190000Y-113705000D02*
X115190000Y-113705000D01*
X124190000Y-103465000D02*
X115190000Y-103465000D01*
X124190000Y-113705000D02*
X124190000Y-103465000D01*
X115190000Y-113705000D02*
X115190000Y-103465000D01*
X115190000Y-111705000D02*
X99190000Y-111705000D01*
X115190000Y-105464000D02*
X99190000Y-105464000D01*
X115190000Y-111705000D02*
X115190000Y-105464000D01*
X99190000Y-111705000D02*
X99190000Y-105464000D01*
%TO.C,RV2*%
X132430000Y-91305000D02*
X124190000Y-91305000D01*
X132430000Y-75065000D02*
X124190000Y-75065000D01*
X132430000Y-91305000D02*
X132430000Y-75065000D01*
X124190000Y-91305000D02*
X124190000Y-75065000D01*
X124190000Y-88305000D02*
X115190000Y-88305000D01*
X124190000Y-78065000D02*
X115190000Y-78065000D01*
X124190000Y-88305000D02*
X124190000Y-78065000D01*
X115190000Y-88305000D02*
X115190000Y-78065000D01*
X115190000Y-86305000D02*
X99190000Y-86305000D01*
X115190000Y-80064000D02*
X99190000Y-80064000D01*
X115190000Y-86305000D02*
X115190000Y-80064000D01*
X99190000Y-86305000D02*
X99190000Y-80064000D01*
%TO.C,RV1*%
X132430000Y-65905000D02*
X124190000Y-65905000D01*
X132430000Y-49665000D02*
X124190000Y-49665000D01*
X132430000Y-65905000D02*
X132430000Y-49665000D01*
X124190000Y-65905000D02*
X124190000Y-49665000D01*
X124190000Y-62905000D02*
X115190000Y-62905000D01*
X124190000Y-52665000D02*
X115190000Y-52665000D01*
X124190000Y-62905000D02*
X124190000Y-52665000D01*
X115190000Y-62905000D02*
X115190000Y-52665000D01*
X115190000Y-60905000D02*
X99190000Y-60905000D01*
X115190000Y-54664000D02*
X99190000Y-54664000D01*
X115190000Y-60905000D02*
X115190000Y-54664000D01*
X99190000Y-60905000D02*
X99190000Y-54664000D01*
%TO.C,U3*%
X145990000Y-56880000D02*
X145990000Y-58130000D01*
X145990000Y-58130000D02*
X156270000Y-58130000D01*
X156270000Y-58130000D02*
X156270000Y-53630000D01*
X156270000Y-53630000D02*
X145990000Y-53630000D01*
X145990000Y-53630000D02*
X145990000Y-54880000D01*
X145930000Y-61130000D02*
X156330000Y-61130000D01*
X156330000Y-61130000D02*
X156330000Y-50630000D01*
X156330000Y-50630000D02*
X145930000Y-50630000D01*
X145930000Y-50630000D02*
X145930000Y-61130000D01*
X145990000Y-54880000D02*
G75*
G02*
X145990000Y-56880000I0J-1000000D01*
G01*
%TO.C,U2*%
X152130000Y-90865000D02*
X153380000Y-90865000D01*
X153380000Y-90865000D02*
X153380000Y-70425000D01*
X153380000Y-70425000D02*
X148880000Y-70425000D01*
X148880000Y-70425000D02*
X148880000Y-90865000D01*
X148880000Y-90865000D02*
X150130000Y-90865000D01*
X156380000Y-90925000D02*
X156380000Y-70365000D01*
X156380000Y-70365000D02*
X145880000Y-70365000D01*
X145880000Y-70365000D02*
X145880000Y-90925000D01*
X145880000Y-90925000D02*
X156380000Y-90925000D01*
X150130000Y-90865000D02*
G75*
G02*
X152130000Y-90865000I1000000J0D01*
G01*
%TO.C,R2*%
X169895000Y-134635000D02*
X169895000Y-130795000D01*
X171735000Y-134635000D02*
X171735000Y-130795000D01*
%TO.C,R1*%
X169195000Y-130795000D02*
X169195000Y-134635000D01*
X167355000Y-130795000D02*
X167355000Y-134635000D01*
%TO.C,R22*%
X153050000Y-93630000D02*
X149210000Y-93630000D01*
X153050000Y-91790000D02*
X149210000Y-91790000D01*
%TO.C,R21*%
X164930000Y-71755000D02*
G75*
G03*
X164930000Y-71755000I-2370000J0D01*
G01*
X164930000Y-71755000D02*
X166140000Y-71755000D01*
%TO.C,R20*%
X161910000Y-75915000D02*
X165750000Y-75915000D01*
X161910000Y-77755000D02*
X165750000Y-77755000D01*
%TO.C,R18*%
X161910000Y-87345000D02*
X165750000Y-87345000D01*
X161910000Y-89185000D02*
X165750000Y-89185000D01*
%TO.C,R17*%
X136810000Y-135875000D02*
X136810000Y-139715000D01*
X134970000Y-135875000D02*
X134970000Y-139715000D01*
%TO.C,R16*%
X136810000Y-110475000D02*
X136810000Y-114315000D01*
X134970000Y-110475000D02*
X134970000Y-114315000D01*
%TO.C,R14*%
X136810000Y-85075000D02*
X136810000Y-88915000D01*
X134970000Y-85075000D02*
X134970000Y-88915000D01*
%TO.C,R13*%
X136810000Y-59675000D02*
X136810000Y-63515000D01*
X134970000Y-59675000D02*
X134970000Y-63515000D01*
%TO.C,C13*%
X165750000Y-85375000D02*
X161910000Y-85375000D01*
X165750000Y-83535000D02*
X161910000Y-83535000D01*
%TO.C,R10*%
X173070000Y-69865000D02*
X173070000Y-66025000D01*
X174910000Y-69865000D02*
X174910000Y-66025000D01*
%TO.C,R8*%
X134970000Y-132095000D02*
X134970000Y-128255000D01*
X136810000Y-132095000D02*
X136810000Y-128255000D01*
%TO.C,R7*%
X134970000Y-106695000D02*
X134970000Y-102855000D01*
X136810000Y-106695000D02*
X136810000Y-102855000D01*
%TO.C,R6*%
X134970000Y-81295000D02*
X134970000Y-77455000D01*
X136810000Y-81295000D02*
X136810000Y-77455000D01*
%TO.C,R5*%
X134970000Y-55895000D02*
X134970000Y-52055000D01*
X136810000Y-55895000D02*
X136810000Y-52055000D01*
%TO.C,J3*%
X175320000Y-87570000D02*
X172660000Y-87570000D01*
X175320000Y-92710000D02*
X175320000Y-87570000D01*
X172660000Y-92710000D02*
X172660000Y-87570000D01*
X175320000Y-92710000D02*
X172660000Y-92710000D01*
X175320000Y-93980000D02*
X175320000Y-95310000D01*
X175320000Y-95310000D02*
X173990000Y-95310000D01*
%TO.C,J1*%
X175320000Y-73600000D02*
X172660000Y-73600000D01*
X175320000Y-76200000D02*
X175320000Y-73600000D01*
X172660000Y-76200000D02*
X172660000Y-73600000D01*
X175320000Y-76200000D02*
X172660000Y-76200000D01*
X175320000Y-77470000D02*
X175320000Y-78800000D01*
X175320000Y-78800000D02*
X173990000Y-78800000D01*
%TO.C,D2*%
X143360000Y-53760000D02*
X141120000Y-53760000D01*
X141120000Y-53760000D02*
X141120000Y-58000000D01*
X141120000Y-58000000D02*
X143360000Y-58000000D01*
X143360000Y-58000000D02*
X143360000Y-53760000D01*
X142240000Y-53110000D02*
X142240000Y-53760000D01*
X142240000Y-58650000D02*
X142240000Y-58000000D01*
X143360000Y-54480000D02*
X141120000Y-54480000D01*
X143360000Y-54600000D02*
X141120000Y-54600000D01*
X143360000Y-54360000D02*
X141120000Y-54360000D01*
%TO.C,D1*%
X166855000Y-92495000D02*
X164615000Y-92495000D01*
X164615000Y-92495000D02*
X164615000Y-96735000D01*
X164615000Y-96735000D02*
X166855000Y-96735000D01*
X166855000Y-96735000D02*
X166855000Y-92495000D01*
X165735000Y-91845000D02*
X165735000Y-92495000D01*
X165735000Y-97385000D02*
X165735000Y-96735000D01*
X166855000Y-93215000D02*
X164615000Y-93215000D01*
X166855000Y-93335000D02*
X164615000Y-93335000D01*
X166855000Y-93095000D02*
X164615000Y-93095000D01*
%TO.C,C7*%
X169140000Y-83385000D02*
X173680000Y-83385000D01*
X169140000Y-85525000D02*
X173680000Y-85525000D01*
X169140000Y-83385000D02*
X169140000Y-83400000D01*
X169140000Y-85510000D02*
X169140000Y-85525000D01*
X173680000Y-83385000D02*
X173680000Y-83400000D01*
X173680000Y-85510000D02*
X173680000Y-85525000D01*
%TO.C,C6*%
X169220000Y-97990000D02*
X173760000Y-97990000D01*
X169220000Y-100130000D02*
X173760000Y-100130000D01*
X169220000Y-97990000D02*
X169220000Y-98005000D01*
X169220000Y-100115000D02*
X169220000Y-100130000D01*
X173760000Y-97990000D02*
X173760000Y-98005000D01*
X173760000Y-100115000D02*
X173760000Y-100130000D01*
%TO.C,C5*%
X148820000Y-66875000D02*
X153360000Y-66875000D01*
X148820000Y-69015000D02*
X153360000Y-69015000D01*
X148820000Y-66875000D02*
X148820000Y-66890000D01*
X148820000Y-69000000D02*
X148820000Y-69015000D01*
X153360000Y-66875000D02*
X153360000Y-66890000D01*
X153360000Y-69000000D02*
X153360000Y-69015000D01*
%TO.C,C2*%
X161520000Y-79575000D02*
X166060000Y-79575000D01*
X161520000Y-81715000D02*
X166060000Y-81715000D01*
X161520000Y-79575000D02*
X161520000Y-79590000D01*
X161520000Y-81700000D02*
X161520000Y-81715000D01*
X166060000Y-79575000D02*
X166060000Y-79590000D01*
X166060000Y-81700000D02*
X166060000Y-81715000D01*
%TO.C,C12*%
D12*
X166517142Y-68472142D02*
X166469523Y-68519761D01*
X166326666Y-68567380D01*
X166231428Y-68567380D01*
X166088571Y-68519761D01*
X165993333Y-68424523D01*
X165945714Y-68329285D01*
X165898095Y-68138809D01*
X165898095Y-67995952D01*
X165945714Y-67805476D01*
X165993333Y-67710238D01*
X166088571Y-67615000D01*
X166231428Y-67567380D01*
X166326666Y-67567380D01*
X166469523Y-67615000D01*
X166517142Y-67662619D01*
X167469523Y-68567380D02*
X166898095Y-68567380D01*
X167183809Y-68567380D02*
X167183809Y-67567380D01*
X167088571Y-67710238D01*
X166993333Y-67805476D01*
X166898095Y-67853095D01*
X167850476Y-67662619D02*
X167898095Y-67615000D01*
X167993333Y-67567380D01*
X168231428Y-67567380D01*
X168326666Y-67615000D01*
X168374285Y-67662619D01*
X168421904Y-67757857D01*
X168421904Y-67853095D01*
X168374285Y-67995952D01*
X167802857Y-68567380D01*
X168421904Y-68567380D01*
%TO.C,C11*%
X166517142Y-48447142D02*
X166469523Y-48494761D01*
X166326666Y-48542380D01*
X166231428Y-48542380D01*
X166088571Y-48494761D01*
X165993333Y-48399523D01*
X165945714Y-48304285D01*
X165898095Y-48113809D01*
X165898095Y-47970952D01*
X165945714Y-47780476D01*
X165993333Y-47685238D01*
X166088571Y-47590000D01*
X166231428Y-47542380D01*
X166326666Y-47542380D01*
X166469523Y-47590000D01*
X166517142Y-47637619D01*
X167469523Y-48542380D02*
X166898095Y-48542380D01*
X167183809Y-48542380D02*
X167183809Y-47542380D01*
X167088571Y-47685238D01*
X166993333Y-47780476D01*
X166898095Y-47828095D01*
X168421904Y-48542380D02*
X167850476Y-48542380D01*
X168136190Y-48542380D02*
X168136190Y-47542380D01*
X168040952Y-47685238D01*
X167945714Y-47780476D01*
X167850476Y-47828095D01*
%TO.C,J4*%
X148256666Y-94067380D02*
X148256666Y-94781666D01*
X148209047Y-94924523D01*
X148113809Y-95019761D01*
X147970952Y-95067380D01*
X147875714Y-95067380D01*
X149161428Y-94400714D02*
X149161428Y-95067380D01*
X148923333Y-94019761D02*
X148685238Y-94734047D01*
X149304285Y-94734047D01*
%TO.C,J8*%
X173656666Y-137037380D02*
X173656666Y-137751666D01*
X173609047Y-137894523D01*
X173513809Y-137989761D01*
X173370952Y-138037380D01*
X173275714Y-138037380D01*
X174275714Y-137465952D02*
X174180476Y-137418333D01*
X174132857Y-137370714D01*
X174085238Y-137275476D01*
X174085238Y-137227857D01*
X174132857Y-137132619D01*
X174180476Y-137085000D01*
X174275714Y-137037380D01*
X174466190Y-137037380D01*
X174561428Y-137085000D01*
X174609047Y-137132619D01*
X174656666Y-137227857D01*
X174656666Y-137275476D01*
X174609047Y-137370714D01*
X174561428Y-137418333D01*
X174466190Y-137465952D01*
X174275714Y-137465952D01*
X174180476Y-137513571D01*
X174132857Y-137561190D01*
X174085238Y-137656428D01*
X174085238Y-137846904D01*
X174132857Y-137942142D01*
X174180476Y-137989761D01*
X174275714Y-138037380D01*
X174466190Y-138037380D01*
X174561428Y-137989761D01*
X174609047Y-137942142D01*
X174656666Y-137846904D01*
X174656666Y-137656428D01*
X174609047Y-137561190D01*
X174561428Y-137513571D01*
X174466190Y-137465952D01*
%TO.C,R30*%
X157297380Y-109862857D02*
X156821190Y-110196190D01*
X157297380Y-110434285D02*
X156297380Y-110434285D01*
X156297380Y-110053333D01*
X156345000Y-109958095D01*
X156392619Y-109910476D01*
X156487857Y-109862857D01*
X156630714Y-109862857D01*
X156725952Y-109910476D01*
X156773571Y-109958095D01*
X156821190Y-110053333D01*
X156821190Y-110434285D01*
X156297380Y-109529523D02*
X156297380Y-108910476D01*
X156678333Y-109243809D01*
X156678333Y-109100952D01*
X156725952Y-109005714D01*
X156773571Y-108958095D01*
X156868809Y-108910476D01*
X157106904Y-108910476D01*
X157202142Y-108958095D01*
X157249761Y-109005714D01*
X157297380Y-109100952D01*
X157297380Y-109386666D01*
X157249761Y-109481904D01*
X157202142Y-109529523D01*
X156297380Y-108291428D02*
X156297380Y-108196190D01*
X156345000Y-108100952D01*
X156392619Y-108053333D01*
X156487857Y-108005714D01*
X156678333Y-107958095D01*
X156916428Y-107958095D01*
X157106904Y-108005714D01*
X157202142Y-108053333D01*
X157249761Y-108100952D01*
X157297380Y-108196190D01*
X157297380Y-108291428D01*
X157249761Y-108386666D01*
X157202142Y-108434285D01*
X157106904Y-108481904D01*
X156916428Y-108529523D01*
X156678333Y-108529523D01*
X156487857Y-108481904D01*
X156392619Y-108434285D01*
X156345000Y-108386666D01*
X156297380Y-108291428D01*
%TO.C,R28*%
X152217380Y-128912857D02*
X151741190Y-129246190D01*
X152217380Y-129484285D02*
X151217380Y-129484285D01*
X151217380Y-129103333D01*
X151265000Y-129008095D01*
X151312619Y-128960476D01*
X151407857Y-128912857D01*
X151550714Y-128912857D01*
X151645952Y-128960476D01*
X151693571Y-129008095D01*
X151741190Y-129103333D01*
X151741190Y-129484285D01*
X151312619Y-128531904D02*
X151265000Y-128484285D01*
X151217380Y-128389047D01*
X151217380Y-128150952D01*
X151265000Y-128055714D01*
X151312619Y-128008095D01*
X151407857Y-127960476D01*
X151503095Y-127960476D01*
X151645952Y-128008095D01*
X152217380Y-128579523D01*
X152217380Y-127960476D01*
X151645952Y-127389047D02*
X151598333Y-127484285D01*
X151550714Y-127531904D01*
X151455476Y-127579523D01*
X151407857Y-127579523D01*
X151312619Y-127531904D01*
X151265000Y-127484285D01*
X151217380Y-127389047D01*
X151217380Y-127198571D01*
X151265000Y-127103333D01*
X151312619Y-127055714D01*
X151407857Y-127008095D01*
X151455476Y-127008095D01*
X151550714Y-127055714D01*
X151598333Y-127103333D01*
X151645952Y-127198571D01*
X151645952Y-127389047D01*
X151693571Y-127484285D01*
X151741190Y-127531904D01*
X151836428Y-127579523D01*
X152026904Y-127579523D01*
X152122142Y-127531904D01*
X152169761Y-127484285D01*
X152217380Y-127389047D01*
X152217380Y-127198571D01*
X152169761Y-127103333D01*
X152122142Y-127055714D01*
X152026904Y-127008095D01*
X151836428Y-127008095D01*
X151741190Y-127055714D01*
X151693571Y-127103333D01*
X151645952Y-127198571D01*
%TO.C,U1*%
X166457380Y-115696904D02*
X167266904Y-115696904D01*
X167362142Y-115649285D01*
X167409761Y-115601666D01*
X167457380Y-115506428D01*
X167457380Y-115315952D01*
X167409761Y-115220714D01*
X167362142Y-115173095D01*
X167266904Y-115125476D01*
X166457380Y-115125476D01*
X167457380Y-114125476D02*
X167457380Y-114696904D01*
X167457380Y-114411190D02*
X166457380Y-114411190D01*
X166600238Y-114506428D01*
X166695476Y-114601666D01*
X166743095Y-114696904D01*
%TO.C,R29*%
X163012380Y-128912857D02*
X162536190Y-129246190D01*
X163012380Y-129484285D02*
X162012380Y-129484285D01*
X162012380Y-129103333D01*
X162060000Y-129008095D01*
X162107619Y-128960476D01*
X162202857Y-128912857D01*
X162345714Y-128912857D01*
X162440952Y-128960476D01*
X162488571Y-129008095D01*
X162536190Y-129103333D01*
X162536190Y-129484285D01*
X162107619Y-128531904D02*
X162060000Y-128484285D01*
X162012380Y-128389047D01*
X162012380Y-128150952D01*
X162060000Y-128055714D01*
X162107619Y-128008095D01*
X162202857Y-127960476D01*
X162298095Y-127960476D01*
X162440952Y-128008095D01*
X163012380Y-128579523D01*
X163012380Y-127960476D01*
X163012380Y-127484285D02*
X163012380Y-127293809D01*
X162964761Y-127198571D01*
X162917142Y-127150952D01*
X162774285Y-127055714D01*
X162583809Y-127008095D01*
X162202857Y-127008095D01*
X162107619Y-127055714D01*
X162060000Y-127103333D01*
X162012380Y-127198571D01*
X162012380Y-127389047D01*
X162060000Y-127484285D01*
X162107619Y-127531904D01*
X162202857Y-127579523D01*
X162440952Y-127579523D01*
X162536190Y-127531904D01*
X162583809Y-127484285D01*
X162631428Y-127389047D01*
X162631428Y-127198571D01*
X162583809Y-127103333D01*
X162536190Y-127055714D01*
X162440952Y-127008095D01*
%TO.C,R27*%
X152217380Y-109862857D02*
X151741190Y-110196190D01*
X152217380Y-110434285D02*
X151217380Y-110434285D01*
X151217380Y-110053333D01*
X151265000Y-109958095D01*
X151312619Y-109910476D01*
X151407857Y-109862857D01*
X151550714Y-109862857D01*
X151645952Y-109910476D01*
X151693571Y-109958095D01*
X151741190Y-110053333D01*
X151741190Y-110434285D01*
X151312619Y-109481904D02*
X151265000Y-109434285D01*
X151217380Y-109339047D01*
X151217380Y-109100952D01*
X151265000Y-109005714D01*
X151312619Y-108958095D01*
X151407857Y-108910476D01*
X151503095Y-108910476D01*
X151645952Y-108958095D01*
X152217380Y-109529523D01*
X152217380Y-108910476D01*
X151217380Y-108577142D02*
X151217380Y-107910476D01*
X152217380Y-108339047D01*
%TO.C,R26*%
X159837380Y-109862857D02*
X159361190Y-110196190D01*
X159837380Y-110434285D02*
X158837380Y-110434285D01*
X158837380Y-110053333D01*
X158885000Y-109958095D01*
X158932619Y-109910476D01*
X159027857Y-109862857D01*
X159170714Y-109862857D01*
X159265952Y-109910476D01*
X159313571Y-109958095D01*
X159361190Y-110053333D01*
X159361190Y-110434285D01*
X158932619Y-109481904D02*
X158885000Y-109434285D01*
X158837380Y-109339047D01*
X158837380Y-109100952D01*
X158885000Y-109005714D01*
X158932619Y-108958095D01*
X159027857Y-108910476D01*
X159123095Y-108910476D01*
X159265952Y-108958095D01*
X159837380Y-109529523D01*
X159837380Y-108910476D01*
X158837380Y-108053333D02*
X158837380Y-108243809D01*
X158885000Y-108339047D01*
X158932619Y-108386666D01*
X159075476Y-108481904D01*
X159265952Y-108529523D01*
X159646904Y-108529523D01*
X159742142Y-108481904D01*
X159789761Y-108434285D01*
X159837380Y-108339047D01*
X159837380Y-108148571D01*
X159789761Y-108053333D01*
X159742142Y-108005714D01*
X159646904Y-107958095D01*
X159408809Y-107958095D01*
X159313571Y-108005714D01*
X159265952Y-108053333D01*
X159218333Y-108148571D01*
X159218333Y-108339047D01*
X159265952Y-108434285D01*
X159313571Y-108481904D01*
X159408809Y-108529523D01*
%TO.C,R25*%
X147137380Y-109862857D02*
X146661190Y-110196190D01*
X147137380Y-110434285D02*
X146137380Y-110434285D01*
X146137380Y-110053333D01*
X146185000Y-109958095D01*
X146232619Y-109910476D01*
X146327857Y-109862857D01*
X146470714Y-109862857D01*
X146565952Y-109910476D01*
X146613571Y-109958095D01*
X146661190Y-110053333D01*
X146661190Y-110434285D01*
X146232619Y-109481904D02*
X146185000Y-109434285D01*
X146137380Y-109339047D01*
X146137380Y-109100952D01*
X146185000Y-109005714D01*
X146232619Y-108958095D01*
X146327857Y-108910476D01*
X146423095Y-108910476D01*
X146565952Y-108958095D01*
X147137380Y-109529523D01*
X147137380Y-108910476D01*
X146137380Y-108005714D02*
X146137380Y-108481904D01*
X146613571Y-108529523D01*
X146565952Y-108481904D01*
X146518333Y-108386666D01*
X146518333Y-108148571D01*
X146565952Y-108053333D01*
X146613571Y-108005714D01*
X146708809Y-107958095D01*
X146946904Y-107958095D01*
X147042142Y-108005714D01*
X147089761Y-108053333D01*
X147137380Y-108148571D01*
X147137380Y-108386666D01*
X147089761Y-108481904D01*
X147042142Y-108529523D01*
%TO.C,R24*%
X149677380Y-109862857D02*
X149201190Y-110196190D01*
X149677380Y-110434285D02*
X148677380Y-110434285D01*
X148677380Y-110053333D01*
X148725000Y-109958095D01*
X148772619Y-109910476D01*
X148867857Y-109862857D01*
X149010714Y-109862857D01*
X149105952Y-109910476D01*
X149153571Y-109958095D01*
X149201190Y-110053333D01*
X149201190Y-110434285D01*
X148772619Y-109481904D02*
X148725000Y-109434285D01*
X148677380Y-109339047D01*
X148677380Y-109100952D01*
X148725000Y-109005714D01*
X148772619Y-108958095D01*
X148867857Y-108910476D01*
X148963095Y-108910476D01*
X149105952Y-108958095D01*
X149677380Y-109529523D01*
X149677380Y-108910476D01*
X149010714Y-108053333D02*
X149677380Y-108053333D01*
X148629761Y-108291428D02*
X149344047Y-108529523D01*
X149344047Y-107910476D01*
%TO.C,R23*%
X144597380Y-109862857D02*
X144121190Y-110196190D01*
X144597380Y-110434285D02*
X143597380Y-110434285D01*
X143597380Y-110053333D01*
X143645000Y-109958095D01*
X143692619Y-109910476D01*
X143787857Y-109862857D01*
X143930714Y-109862857D01*
X144025952Y-109910476D01*
X144073571Y-109958095D01*
X144121190Y-110053333D01*
X144121190Y-110434285D01*
X143692619Y-109481904D02*
X143645000Y-109434285D01*
X143597380Y-109339047D01*
X143597380Y-109100952D01*
X143645000Y-109005714D01*
X143692619Y-108958095D01*
X143787857Y-108910476D01*
X143883095Y-108910476D01*
X144025952Y-108958095D01*
X144597380Y-109529523D01*
X144597380Y-108910476D01*
X143597380Y-108577142D02*
X143597380Y-107958095D01*
X143978333Y-108291428D01*
X143978333Y-108148571D01*
X144025952Y-108053333D01*
X144073571Y-108005714D01*
X144168809Y-107958095D01*
X144406904Y-107958095D01*
X144502142Y-108005714D01*
X144549761Y-108053333D01*
X144597380Y-108148571D01*
X144597380Y-108434285D01*
X144549761Y-108529523D01*
X144502142Y-108577142D01*
%TO.C,R19*%
X157297380Y-128912857D02*
X156821190Y-129246190D01*
X157297380Y-129484285D02*
X156297380Y-129484285D01*
X156297380Y-129103333D01*
X156345000Y-129008095D01*
X156392619Y-128960476D01*
X156487857Y-128912857D01*
X156630714Y-128912857D01*
X156725952Y-128960476D01*
X156773571Y-129008095D01*
X156821190Y-129103333D01*
X156821190Y-129484285D01*
X157297380Y-127960476D02*
X157297380Y-128531904D01*
X157297380Y-128246190D02*
X156297380Y-128246190D01*
X156440238Y-128341428D01*
X156535476Y-128436666D01*
X156583095Y-128531904D01*
X157297380Y-127484285D02*
X157297380Y-127293809D01*
X157249761Y-127198571D01*
X157202142Y-127150952D01*
X157059285Y-127055714D01*
X156868809Y-127008095D01*
X156487857Y-127008095D01*
X156392619Y-127055714D01*
X156345000Y-127103333D01*
X156297380Y-127198571D01*
X156297380Y-127389047D01*
X156345000Y-127484285D01*
X156392619Y-127531904D01*
X156487857Y-127579523D01*
X156725952Y-127579523D01*
X156821190Y-127531904D01*
X156868809Y-127484285D01*
X156916428Y-127389047D01*
X156916428Y-127198571D01*
X156868809Y-127103333D01*
X156821190Y-127055714D01*
X156725952Y-127008095D01*
%TO.C,R15*%
X142692380Y-135262857D02*
X142216190Y-135596190D01*
X142692380Y-135834285D02*
X141692380Y-135834285D01*
X141692380Y-135453333D01*
X141740000Y-135358095D01*
X141787619Y-135310476D01*
X141882857Y-135262857D01*
X142025714Y-135262857D01*
X142120952Y-135310476D01*
X142168571Y-135358095D01*
X142216190Y-135453333D01*
X142216190Y-135834285D01*
X142692380Y-134310476D02*
X142692380Y-134881904D01*
X142692380Y-134596190D02*
X141692380Y-134596190D01*
X141835238Y-134691428D01*
X141930476Y-134786666D01*
X141978095Y-134881904D01*
X141692380Y-133405714D02*
X141692380Y-133881904D01*
X142168571Y-133929523D01*
X142120952Y-133881904D01*
X142073333Y-133786666D01*
X142073333Y-133548571D01*
X142120952Y-133453333D01*
X142168571Y-133405714D01*
X142263809Y-133358095D01*
X142501904Y-133358095D01*
X142597142Y-133405714D01*
X142644761Y-133453333D01*
X142692380Y-133548571D01*
X142692380Y-133786666D01*
X142644761Y-133881904D01*
X142597142Y-133929523D01*
%TO.C,R12*%
X158742142Y-136977380D02*
X158408809Y-136501190D01*
X158170714Y-136977380D02*
X158170714Y-135977380D01*
X158551666Y-135977380D01*
X158646904Y-136025000D01*
X158694523Y-136072619D01*
X158742142Y-136167857D01*
X158742142Y-136310714D01*
X158694523Y-136405952D01*
X158646904Y-136453571D01*
X158551666Y-136501190D01*
X158170714Y-136501190D01*
X159694523Y-136977380D02*
X159123095Y-136977380D01*
X159408809Y-136977380D02*
X159408809Y-135977380D01*
X159313571Y-136120238D01*
X159218333Y-136215476D01*
X159123095Y-136263095D01*
X160075476Y-136072619D02*
X160123095Y-136025000D01*
X160218333Y-135977380D01*
X160456428Y-135977380D01*
X160551666Y-136025000D01*
X160599285Y-136072619D01*
X160646904Y-136167857D01*
X160646904Y-136263095D01*
X160599285Y-136405952D01*
X160027857Y-136977380D01*
X160646904Y-136977380D01*
%TO.C,R9*%
X149677380Y-128436666D02*
X149201190Y-128770000D01*
X149677380Y-129008095D02*
X148677380Y-129008095D01*
X148677380Y-128627142D01*
X148725000Y-128531904D01*
X148772619Y-128484285D01*
X148867857Y-128436666D01*
X149010714Y-128436666D01*
X149105952Y-128484285D01*
X149153571Y-128531904D01*
X149201190Y-128627142D01*
X149201190Y-129008095D01*
X149677380Y-127960476D02*
X149677380Y-127770000D01*
X149629761Y-127674761D01*
X149582142Y-127627142D01*
X149439285Y-127531904D01*
X149248809Y-127484285D01*
X148867857Y-127484285D01*
X148772619Y-127531904D01*
X148725000Y-127579523D01*
X148677380Y-127674761D01*
X148677380Y-127865238D01*
X148725000Y-127960476D01*
X148772619Y-128008095D01*
X148867857Y-128055714D01*
X149105952Y-128055714D01*
X149201190Y-128008095D01*
X149248809Y-127960476D01*
X149296428Y-127865238D01*
X149296428Y-127674761D01*
X149248809Y-127579523D01*
X149201190Y-127531904D01*
X149105952Y-127484285D01*
%TO.C,R4*%
X144597380Y-128436666D02*
X144121190Y-128770000D01*
X144597380Y-129008095D02*
X143597380Y-129008095D01*
X143597380Y-128627142D01*
X143645000Y-128531904D01*
X143692619Y-128484285D01*
X143787857Y-128436666D01*
X143930714Y-128436666D01*
X144025952Y-128484285D01*
X144073571Y-128531904D01*
X144121190Y-128627142D01*
X144121190Y-129008095D01*
X143930714Y-127579523D02*
X144597380Y-127579523D01*
X143549761Y-127817619D02*
X144264047Y-128055714D01*
X144264047Y-127436666D01*
%TO.C,R3*%
X147137380Y-128436666D02*
X146661190Y-128770000D01*
X147137380Y-129008095D02*
X146137380Y-129008095D01*
X146137380Y-128627142D01*
X146185000Y-128531904D01*
X146232619Y-128484285D01*
X146327857Y-128436666D01*
X146470714Y-128436666D01*
X146565952Y-128484285D01*
X146613571Y-128531904D01*
X146661190Y-128627142D01*
X146661190Y-129008095D01*
X146137380Y-128103333D02*
X146137380Y-127484285D01*
X146518333Y-127817619D01*
X146518333Y-127674761D01*
X146565952Y-127579523D01*
X146613571Y-127531904D01*
X146708809Y-127484285D01*
X146946904Y-127484285D01*
X147042142Y-127531904D01*
X147089761Y-127579523D01*
X147137380Y-127674761D01*
X147137380Y-127960476D01*
X147089761Y-128055714D01*
X147042142Y-128103333D01*
%TO.C,J7*%
X152701666Y-94067380D02*
X152701666Y-94781666D01*
X152654047Y-94924523D01*
X152558809Y-95019761D01*
X152415952Y-95067380D01*
X152320714Y-95067380D01*
X153082619Y-94067380D02*
X153749285Y-94067380D01*
X153320714Y-95067380D01*
%TO.C,J6*%
X157146666Y-94067380D02*
X157146666Y-94781666D01*
X157099047Y-94924523D01*
X157003809Y-95019761D01*
X156860952Y-95067380D01*
X156765714Y-95067380D01*
X158051428Y-94067380D02*
X157860952Y-94067380D01*
X157765714Y-94115000D01*
X157718095Y-94162619D01*
X157622857Y-94305476D01*
X157575238Y-94495952D01*
X157575238Y-94876904D01*
X157622857Y-94972142D01*
X157670476Y-95019761D01*
X157765714Y-95067380D01*
X157956190Y-95067380D01*
X158051428Y-95019761D01*
X158099047Y-94972142D01*
X158146666Y-94876904D01*
X158146666Y-94638809D01*
X158099047Y-94543571D01*
X158051428Y-94495952D01*
X157956190Y-94448333D01*
X157765714Y-94448333D01*
X157670476Y-94495952D01*
X157622857Y-94543571D01*
X157575238Y-94638809D01*
%TO.C,J5*%
X161591666Y-94067380D02*
X161591666Y-94781666D01*
X161544047Y-94924523D01*
X161448809Y-95019761D01*
X161305952Y-95067380D01*
X161210714Y-95067380D01*
X162544047Y-94067380D02*
X162067857Y-94067380D01*
X162020238Y-94543571D01*
X162067857Y-94495952D01*
X162163095Y-94448333D01*
X162401190Y-94448333D01*
X162496428Y-94495952D01*
X162544047Y-94543571D01*
X162591666Y-94638809D01*
X162591666Y-94876904D01*
X162544047Y-94972142D01*
X162496428Y-95019761D01*
X162401190Y-95067380D01*
X162163095Y-95067380D01*
X162067857Y-95019761D01*
X162020238Y-94972142D01*
%TO.C,J2*%
X164552380Y-139398333D02*
X165266666Y-139398333D01*
X165409523Y-139445952D01*
X165504761Y-139541190D01*
X165552380Y-139684047D01*
X165552380Y-139779285D01*
X164647619Y-138969761D02*
X164600000Y-138922142D01*
X164552380Y-138826904D01*
X164552380Y-138588809D01*
X164600000Y-138493571D01*
X164647619Y-138445952D01*
X164742857Y-138398333D01*
X164838095Y-138398333D01*
X164980952Y-138445952D01*
X165552380Y-139017380D01*
X165552380Y-138398333D01*
%TO.C,C10*%
X166092142Y-128832857D02*
X166139761Y-128880476D01*
X166187380Y-129023333D01*
X166187380Y-129118571D01*
X166139761Y-129261428D01*
X166044523Y-129356666D01*
X165949285Y-129404285D01*
X165758809Y-129451904D01*
X165615952Y-129451904D01*
X165425476Y-129404285D01*
X165330238Y-129356666D01*
X165235000Y-129261428D01*
X165187380Y-129118571D01*
X165187380Y-129023333D01*
X165235000Y-128880476D01*
X165282619Y-128832857D01*
X166187380Y-127880476D02*
X166187380Y-128451904D01*
X166187380Y-128166190D02*
X165187380Y-128166190D01*
X165330238Y-128261428D01*
X165425476Y-128356666D01*
X165473095Y-128451904D01*
X165187380Y-127261428D02*
X165187380Y-127166190D01*
X165235000Y-127070952D01*
X165282619Y-127023333D01*
X165377857Y-126975714D01*
X165568333Y-126928095D01*
X165806428Y-126928095D01*
X165996904Y-126975714D01*
X166092142Y-127023333D01*
X166139761Y-127070952D01*
X166187380Y-127166190D01*
X166187380Y-127261428D01*
X166139761Y-127356666D01*
X166092142Y-127404285D01*
X165996904Y-127451904D01*
X165806428Y-127499523D01*
X165568333Y-127499523D01*
X165377857Y-127451904D01*
X165282619Y-127404285D01*
X165235000Y-127356666D01*
X165187380Y-127261428D01*
%TO.C,C9*%
X138492142Y-120141666D02*
X138539761Y-120189285D01*
X138587380Y-120332142D01*
X138587380Y-120427380D01*
X138539761Y-120570238D01*
X138444523Y-120665476D01*
X138349285Y-120713095D01*
X138158809Y-120760714D01*
X138015952Y-120760714D01*
X137825476Y-120713095D01*
X137730238Y-120665476D01*
X137635000Y-120570238D01*
X137587380Y-120427380D01*
X137587380Y-120332142D01*
X137635000Y-120189285D01*
X137682619Y-120141666D01*
X138587380Y-119665476D02*
X138587380Y-119475000D01*
X138539761Y-119379761D01*
X138492142Y-119332142D01*
X138349285Y-119236904D01*
X138158809Y-119189285D01*
X137777857Y-119189285D01*
X137682619Y-119236904D01*
X137635000Y-119284523D01*
X137587380Y-119379761D01*
X137587380Y-119570238D01*
X137635000Y-119665476D01*
X137682619Y-119713095D01*
X137777857Y-119760714D01*
X138015952Y-119760714D01*
X138111190Y-119713095D01*
X138158809Y-119665476D01*
X138206428Y-119570238D01*
X138206428Y-119379761D01*
X138158809Y-119284523D01*
X138111190Y-119236904D01*
X138015952Y-119189285D01*
%TO.C,C4*%
X162282142Y-109386666D02*
X162329761Y-109434285D01*
X162377380Y-109577142D01*
X162377380Y-109672380D01*
X162329761Y-109815238D01*
X162234523Y-109910476D01*
X162139285Y-109958095D01*
X161948809Y-110005714D01*
X161805952Y-110005714D01*
X161615476Y-109958095D01*
X161520238Y-109910476D01*
X161425000Y-109815238D01*
X161377380Y-109672380D01*
X161377380Y-109577142D01*
X161425000Y-109434285D01*
X161472619Y-109386666D01*
X161710714Y-108529523D02*
X162377380Y-108529523D01*
X161329761Y-108767619D02*
X162044047Y-109005714D01*
X162044047Y-108386666D01*
%TO.C,C3*%
X159742142Y-128436666D02*
X159789761Y-128484285D01*
X159837380Y-128627142D01*
X159837380Y-128722380D01*
X159789761Y-128865238D01*
X159694523Y-128960476D01*
X159599285Y-129008095D01*
X159408809Y-129055714D01*
X159265952Y-129055714D01*
X159075476Y-129008095D01*
X158980238Y-128960476D01*
X158885000Y-128865238D01*
X158837380Y-128722380D01*
X158837380Y-128627142D01*
X158885000Y-128484285D01*
X158932619Y-128436666D01*
X158837380Y-128103333D02*
X158837380Y-127484285D01*
X159218333Y-127817619D01*
X159218333Y-127674761D01*
X159265952Y-127579523D01*
X159313571Y-127531904D01*
X159408809Y-127484285D01*
X159646904Y-127484285D01*
X159742142Y-127531904D01*
X159789761Y-127579523D01*
X159837380Y-127674761D01*
X159837380Y-127960476D01*
X159789761Y-128055714D01*
X159742142Y-128103333D01*
%TO.C,C1*%
X154662142Y-128436666D02*
X154709761Y-128484285D01*
X154757380Y-128627142D01*
X154757380Y-128722380D01*
X154709761Y-128865238D01*
X154614523Y-128960476D01*
X154519285Y-129008095D01*
X154328809Y-129055714D01*
X154185952Y-129055714D01*
X153995476Y-129008095D01*
X153900238Y-128960476D01*
X153805000Y-128865238D01*
X153757380Y-128722380D01*
X153757380Y-128627142D01*
X153805000Y-128484285D01*
X153852619Y-128436666D01*
X154757380Y-127484285D02*
X154757380Y-128055714D01*
X154757380Y-127770000D02*
X153757380Y-127770000D01*
X153900238Y-127865238D01*
X153995476Y-127960476D01*
X154043095Y-128055714D01*
%TO.C,J9*%
X173656666Y-126242380D02*
X173656666Y-126956666D01*
X173609047Y-127099523D01*
X173513809Y-127194761D01*
X173370952Y-127242380D01*
X173275714Y-127242380D01*
X174180476Y-127242380D02*
X174370952Y-127242380D01*
X174466190Y-127194761D01*
X174513809Y-127147142D01*
X174609047Y-127004285D01*
X174656666Y-126813809D01*
X174656666Y-126432857D01*
X174609047Y-126337619D01*
X174561428Y-126290000D01*
X174466190Y-126242380D01*
X174275714Y-126242380D01*
X174180476Y-126290000D01*
X174132857Y-126337619D01*
X174085238Y-126432857D01*
X174085238Y-126670952D01*
X174132857Y-126766190D01*
X174180476Y-126813809D01*
X174275714Y-126861428D01*
X174466190Y-126861428D01*
X174561428Y-126813809D01*
X174609047Y-126766190D01*
X174656666Y-126670952D01*
%TO.C,C8*%
X162282142Y-56086666D02*
X162329761Y-56134285D01*
X162377380Y-56277142D01*
X162377380Y-56372380D01*
X162329761Y-56515238D01*
X162234523Y-56610476D01*
X162139285Y-56658095D01*
X161948809Y-56705714D01*
X161805952Y-56705714D01*
X161615476Y-56658095D01*
X161520238Y-56610476D01*
X161425000Y-56515238D01*
X161377380Y-56372380D01*
X161377380Y-56277142D01*
X161425000Y-56134285D01*
X161472619Y-56086666D01*
X161805952Y-55515238D02*
X161758333Y-55610476D01*
X161710714Y-55658095D01*
X161615476Y-55705714D01*
X161567857Y-55705714D01*
X161472619Y-55658095D01*
X161425000Y-55610476D01*
X161377380Y-55515238D01*
X161377380Y-55324761D01*
X161425000Y-55229523D01*
X161472619Y-55181904D01*
X161567857Y-55134285D01*
X161615476Y-55134285D01*
X161710714Y-55181904D01*
X161758333Y-55229523D01*
X161805952Y-55324761D01*
X161805952Y-55515238D01*
X161853571Y-55610476D01*
X161901190Y-55658095D01*
X161996428Y-55705714D01*
X162186904Y-55705714D01*
X162282142Y-55658095D01*
X162329761Y-55610476D01*
X162377380Y-55515238D01*
X162377380Y-55324761D01*
X162329761Y-55229523D01*
X162282142Y-55181904D01*
X162186904Y-55134285D01*
X161996428Y-55134285D01*
X161901190Y-55181904D01*
X161853571Y-55229523D01*
X161805952Y-55324761D01*
%TO.C,RV4*%
X130214761Y-143687380D02*
X129881428Y-143211190D01*
X129643333Y-143687380D02*
X129643333Y-142687380D01*
X130024285Y-142687380D01*
X130119523Y-142735000D01*
X130167142Y-142782619D01*
X130214761Y-142877857D01*
X130214761Y-143020714D01*
X130167142Y-143115952D01*
X130119523Y-143163571D01*
X130024285Y-143211190D01*
X129643333Y-143211190D01*
X130500476Y-142687380D02*
X130833809Y-143687380D01*
X131167142Y-142687380D01*
X131929047Y-143020714D02*
X131929047Y-143687380D01*
X131690952Y-142639761D02*
X131452857Y-143354047D01*
X132071904Y-143354047D01*
%TO.C,RV3*%
X131262380Y-118430238D02*
X130786190Y-118763571D01*
X131262380Y-119001666D02*
X130262380Y-119001666D01*
X130262380Y-118620714D01*
X130310000Y-118525476D01*
X130357619Y-118477857D01*
X130452857Y-118430238D01*
X130595714Y-118430238D01*
X130690952Y-118477857D01*
X130738571Y-118525476D01*
X130786190Y-118620714D01*
X130786190Y-119001666D01*
X130262380Y-118144523D02*
X131262380Y-117811190D01*
X130262380Y-117477857D01*
X130262380Y-117239761D02*
X130262380Y-116620714D01*
X130643333Y-116954047D01*
X130643333Y-116811190D01*
X130690952Y-116715952D01*
X130738571Y-116668333D01*
X130833809Y-116620714D01*
X131071904Y-116620714D01*
X131167142Y-116668333D01*
X131214761Y-116715952D01*
X131262380Y-116811190D01*
X131262380Y-117096904D01*
X131214761Y-117192142D01*
X131167142Y-117239761D01*
%TO.C,RV2*%
X130214761Y-92887380D02*
X129881428Y-92411190D01*
X129643333Y-92887380D02*
X129643333Y-91887380D01*
X130024285Y-91887380D01*
X130119523Y-91935000D01*
X130167142Y-91982619D01*
X130214761Y-92077857D01*
X130214761Y-92220714D01*
X130167142Y-92315952D01*
X130119523Y-92363571D01*
X130024285Y-92411190D01*
X129643333Y-92411190D01*
X130500476Y-91887380D02*
X130833809Y-92887380D01*
X131167142Y-91887380D01*
X131452857Y-91982619D02*
X131500476Y-91935000D01*
X131595714Y-91887380D01*
X131833809Y-91887380D01*
X131929047Y-91935000D01*
X131976666Y-91982619D01*
X132024285Y-92077857D01*
X132024285Y-92173095D01*
X131976666Y-92315952D01*
X131405238Y-92887380D01*
X132024285Y-92887380D01*
%TO.C,RV1*%
X130214761Y-67487380D02*
X129881428Y-67011190D01*
X129643333Y-67487380D02*
X129643333Y-66487380D01*
X130024285Y-66487380D01*
X130119523Y-66535000D01*
X130167142Y-66582619D01*
X130214761Y-66677857D01*
X130214761Y-66820714D01*
X130167142Y-66915952D01*
X130119523Y-66963571D01*
X130024285Y-67011190D01*
X129643333Y-67011190D01*
X130500476Y-66487380D02*
X130833809Y-67487380D01*
X131167142Y-66487380D01*
X132024285Y-67487380D02*
X131452857Y-67487380D01*
X131738571Y-67487380D02*
X131738571Y-66487380D01*
X131643333Y-66630238D01*
X131548095Y-66725476D01*
X131452857Y-66773095D01*
%TO.C,U3*%
X156932380Y-56641904D02*
X157741904Y-56641904D01*
X157837142Y-56594285D01*
X157884761Y-56546666D01*
X157932380Y-56451428D01*
X157932380Y-56260952D01*
X157884761Y-56165714D01*
X157837142Y-56118095D01*
X157741904Y-56070476D01*
X156932380Y-56070476D01*
X156932380Y-55689523D02*
X156932380Y-55070476D01*
X157313333Y-55403809D01*
X157313333Y-55260952D01*
X157360952Y-55165714D01*
X157408571Y-55118095D01*
X157503809Y-55070476D01*
X157741904Y-55070476D01*
X157837142Y-55118095D01*
X157884761Y-55165714D01*
X157932380Y-55260952D01*
X157932380Y-55546666D01*
X157884761Y-55641904D01*
X157837142Y-55689523D01*
%TO.C,U2*%
X156932380Y-90296904D02*
X157741904Y-90296904D01*
X157837142Y-90249285D01*
X157884761Y-90201666D01*
X157932380Y-90106428D01*
X157932380Y-89915952D01*
X157884761Y-89820714D01*
X157837142Y-89773095D01*
X157741904Y-89725476D01*
X156932380Y-89725476D01*
X157027619Y-89296904D02*
X156980000Y-89249285D01*
X156932380Y-89154047D01*
X156932380Y-88915952D01*
X156980000Y-88820714D01*
X157027619Y-88773095D01*
X157122857Y-88725476D01*
X157218095Y-88725476D01*
X157360952Y-88773095D01*
X157932380Y-89344523D01*
X157932380Y-88725476D01*
%TO.C,R2*%
X170648333Y-128722380D02*
X170315000Y-128246190D01*
X170076904Y-128722380D02*
X170076904Y-127722380D01*
X170457857Y-127722380D01*
X170553095Y-127770000D01*
X170600714Y-127817619D01*
X170648333Y-127912857D01*
X170648333Y-128055714D01*
X170600714Y-128150952D01*
X170553095Y-128198571D01*
X170457857Y-128246190D01*
X170076904Y-128246190D01*
X171029285Y-127817619D02*
X171076904Y-127770000D01*
X171172142Y-127722380D01*
X171410238Y-127722380D01*
X171505476Y-127770000D01*
X171553095Y-127817619D01*
X171600714Y-127912857D01*
X171600714Y-128008095D01*
X171553095Y-128150952D01*
X170981666Y-128722380D01*
X171600714Y-128722380D01*
%TO.C,R1*%
X168108333Y-128722380D02*
X167775000Y-128246190D01*
X167536904Y-128722380D02*
X167536904Y-127722380D01*
X167917857Y-127722380D01*
X168013095Y-127770000D01*
X168060714Y-127817619D01*
X168108333Y-127912857D01*
X168108333Y-128055714D01*
X168060714Y-128150952D01*
X168013095Y-128198571D01*
X167917857Y-128246190D01*
X167536904Y-128246190D01*
X169060714Y-128722380D02*
X168489285Y-128722380D01*
X168775000Y-128722380D02*
X168775000Y-127722380D01*
X168679761Y-127865238D01*
X168584523Y-127960476D01*
X168489285Y-128008095D01*
%TO.C,R22*%
X156027380Y-93352857D02*
X155551190Y-93686190D01*
X156027380Y-93924285D02*
X155027380Y-93924285D01*
X155027380Y-93543333D01*
X155075000Y-93448095D01*
X155122619Y-93400476D01*
X155217857Y-93352857D01*
X155360714Y-93352857D01*
X155455952Y-93400476D01*
X155503571Y-93448095D01*
X155551190Y-93543333D01*
X155551190Y-93924285D01*
X155122619Y-92971904D02*
X155075000Y-92924285D01*
X155027380Y-92829047D01*
X155027380Y-92590952D01*
X155075000Y-92495714D01*
X155122619Y-92448095D01*
X155217857Y-92400476D01*
X155313095Y-92400476D01*
X155455952Y-92448095D01*
X156027380Y-93019523D01*
X156027380Y-92400476D01*
X155122619Y-92019523D02*
X155075000Y-91971904D01*
X155027380Y-91876666D01*
X155027380Y-91638571D01*
X155075000Y-91543333D01*
X155122619Y-91495714D01*
X155217857Y-91448095D01*
X155313095Y-91448095D01*
X155455952Y-91495714D01*
X156027380Y-92067142D01*
X156027380Y-91448095D01*
%TO.C,R21*%
X159202380Y-72397857D02*
X158726190Y-72731190D01*
X159202380Y-72969285D02*
X158202380Y-72969285D01*
X158202380Y-72588333D01*
X158250000Y-72493095D01*
X158297619Y-72445476D01*
X158392857Y-72397857D01*
X158535714Y-72397857D01*
X158630952Y-72445476D01*
X158678571Y-72493095D01*
X158726190Y-72588333D01*
X158726190Y-72969285D01*
X158297619Y-72016904D02*
X158250000Y-71969285D01*
X158202380Y-71874047D01*
X158202380Y-71635952D01*
X158250000Y-71540714D01*
X158297619Y-71493095D01*
X158392857Y-71445476D01*
X158488095Y-71445476D01*
X158630952Y-71493095D01*
X159202380Y-72064523D01*
X159202380Y-71445476D01*
X159202380Y-70493095D02*
X159202380Y-71064523D01*
X159202380Y-70778809D02*
X158202380Y-70778809D01*
X158345238Y-70874047D01*
X158440476Y-70969285D01*
X158488095Y-71064523D01*
%TO.C,R20*%
X159837380Y-77477857D02*
X159361190Y-77811190D01*
X159837380Y-78049285D02*
X158837380Y-78049285D01*
X158837380Y-77668333D01*
X158885000Y-77573095D01*
X158932619Y-77525476D01*
X159027857Y-77477857D01*
X159170714Y-77477857D01*
X159265952Y-77525476D01*
X159313571Y-77573095D01*
X159361190Y-77668333D01*
X159361190Y-78049285D01*
X158932619Y-77096904D02*
X158885000Y-77049285D01*
X158837380Y-76954047D01*
X158837380Y-76715952D01*
X158885000Y-76620714D01*
X158932619Y-76573095D01*
X159027857Y-76525476D01*
X159123095Y-76525476D01*
X159265952Y-76573095D01*
X159837380Y-77144523D01*
X159837380Y-76525476D01*
X158837380Y-75906428D02*
X158837380Y-75811190D01*
X158885000Y-75715952D01*
X158932619Y-75668333D01*
X159027857Y-75620714D01*
X159218333Y-75573095D01*
X159456428Y-75573095D01*
X159646904Y-75620714D01*
X159742142Y-75668333D01*
X159789761Y-75715952D01*
X159837380Y-75811190D01*
X159837380Y-75906428D01*
X159789761Y-76001666D01*
X159742142Y-76049285D01*
X159646904Y-76096904D01*
X159456428Y-76144523D01*
X159218333Y-76144523D01*
X159027857Y-76096904D01*
X158932619Y-76049285D01*
X158885000Y-76001666D01*
X158837380Y-75906428D01*
%TO.C,R18*%
X159837380Y-88907857D02*
X159361190Y-89241190D01*
X159837380Y-89479285D02*
X158837380Y-89479285D01*
X158837380Y-89098333D01*
X158885000Y-89003095D01*
X158932619Y-88955476D01*
X159027857Y-88907857D01*
X159170714Y-88907857D01*
X159265952Y-88955476D01*
X159313571Y-89003095D01*
X159361190Y-89098333D01*
X159361190Y-89479285D01*
X159837380Y-87955476D02*
X159837380Y-88526904D01*
X159837380Y-88241190D02*
X158837380Y-88241190D01*
X158980238Y-88336428D01*
X159075476Y-88431666D01*
X159123095Y-88526904D01*
X159265952Y-87384047D02*
X159218333Y-87479285D01*
X159170714Y-87526904D01*
X159075476Y-87574523D01*
X159027857Y-87574523D01*
X158932619Y-87526904D01*
X158885000Y-87479285D01*
X158837380Y-87384047D01*
X158837380Y-87193571D01*
X158885000Y-87098333D01*
X158932619Y-87050714D01*
X159027857Y-87003095D01*
X159075476Y-87003095D01*
X159170714Y-87050714D01*
X159218333Y-87098333D01*
X159265952Y-87193571D01*
X159265952Y-87384047D01*
X159313571Y-87479285D01*
X159361190Y-87526904D01*
X159456428Y-87574523D01*
X159646904Y-87574523D01*
X159742142Y-87526904D01*
X159789761Y-87479285D01*
X159837380Y-87384047D01*
X159837380Y-87193571D01*
X159789761Y-87098333D01*
X159742142Y-87050714D01*
X159646904Y-87003095D01*
X159456428Y-87003095D01*
X159361190Y-87050714D01*
X159313571Y-87098333D01*
X159265952Y-87193571D01*
%TO.C,R17*%
X134437380Y-138437857D02*
X133961190Y-138771190D01*
X134437380Y-139009285D02*
X133437380Y-139009285D01*
X133437380Y-138628333D01*
X133485000Y-138533095D01*
X133532619Y-138485476D01*
X133627857Y-138437857D01*
X133770714Y-138437857D01*
X133865952Y-138485476D01*
X133913571Y-138533095D01*
X133961190Y-138628333D01*
X133961190Y-139009285D01*
X134437380Y-137485476D02*
X134437380Y-138056904D01*
X134437380Y-137771190D02*
X133437380Y-137771190D01*
X133580238Y-137866428D01*
X133675476Y-137961666D01*
X133723095Y-138056904D01*
X133437380Y-137152142D02*
X133437380Y-136485476D01*
X134437380Y-136914047D01*
%TO.C,R16*%
X134437380Y-113037857D02*
X133961190Y-113371190D01*
X134437380Y-113609285D02*
X133437380Y-113609285D01*
X133437380Y-113228333D01*
X133485000Y-113133095D01*
X133532619Y-113085476D01*
X133627857Y-113037857D01*
X133770714Y-113037857D01*
X133865952Y-113085476D01*
X133913571Y-113133095D01*
X133961190Y-113228333D01*
X133961190Y-113609285D01*
X134437380Y-112085476D02*
X134437380Y-112656904D01*
X134437380Y-112371190D02*
X133437380Y-112371190D01*
X133580238Y-112466428D01*
X133675476Y-112561666D01*
X133723095Y-112656904D01*
X133437380Y-111228333D02*
X133437380Y-111418809D01*
X133485000Y-111514047D01*
X133532619Y-111561666D01*
X133675476Y-111656904D01*
X133865952Y-111704523D01*
X134246904Y-111704523D01*
X134342142Y-111656904D01*
X134389761Y-111609285D01*
X134437380Y-111514047D01*
X134437380Y-111323571D01*
X134389761Y-111228333D01*
X134342142Y-111180714D01*
X134246904Y-111133095D01*
X134008809Y-111133095D01*
X133913571Y-111180714D01*
X133865952Y-111228333D01*
X133818333Y-111323571D01*
X133818333Y-111514047D01*
X133865952Y-111609285D01*
X133913571Y-111656904D01*
X134008809Y-111704523D01*
%TO.C,R14*%
X134437380Y-87637857D02*
X133961190Y-87971190D01*
X134437380Y-88209285D02*
X133437380Y-88209285D01*
X133437380Y-87828333D01*
X133485000Y-87733095D01*
X133532619Y-87685476D01*
X133627857Y-87637857D01*
X133770714Y-87637857D01*
X133865952Y-87685476D01*
X133913571Y-87733095D01*
X133961190Y-87828333D01*
X133961190Y-88209285D01*
X134437380Y-86685476D02*
X134437380Y-87256904D01*
X134437380Y-86971190D02*
X133437380Y-86971190D01*
X133580238Y-87066428D01*
X133675476Y-87161666D01*
X133723095Y-87256904D01*
X133770714Y-85828333D02*
X134437380Y-85828333D01*
X133389761Y-86066428D02*
X134104047Y-86304523D01*
X134104047Y-85685476D01*
%TO.C,R13*%
X134437380Y-62237857D02*
X133961190Y-62571190D01*
X134437380Y-62809285D02*
X133437380Y-62809285D01*
X133437380Y-62428333D01*
X133485000Y-62333095D01*
X133532619Y-62285476D01*
X133627857Y-62237857D01*
X133770714Y-62237857D01*
X133865952Y-62285476D01*
X133913571Y-62333095D01*
X133961190Y-62428333D01*
X133961190Y-62809285D01*
X134437380Y-61285476D02*
X134437380Y-61856904D01*
X134437380Y-61571190D02*
X133437380Y-61571190D01*
X133580238Y-61666428D01*
X133675476Y-61761666D01*
X133723095Y-61856904D01*
X133437380Y-60952142D02*
X133437380Y-60333095D01*
X133818333Y-60666428D01*
X133818333Y-60523571D01*
X133865952Y-60428333D01*
X133913571Y-60380714D01*
X134008809Y-60333095D01*
X134246904Y-60333095D01*
X134342142Y-60380714D01*
X134389761Y-60428333D01*
X134437380Y-60523571D01*
X134437380Y-60809285D01*
X134389761Y-60904523D01*
X134342142Y-60952142D01*
%TO.C,C13*%
X159742142Y-85097857D02*
X159789761Y-85145476D01*
X159837380Y-85288333D01*
X159837380Y-85383571D01*
X159789761Y-85526428D01*
X159694523Y-85621666D01*
X159599285Y-85669285D01*
X159408809Y-85716904D01*
X159265952Y-85716904D01*
X159075476Y-85669285D01*
X158980238Y-85621666D01*
X158885000Y-85526428D01*
X158837380Y-85383571D01*
X158837380Y-85288333D01*
X158885000Y-85145476D01*
X158932619Y-85097857D01*
X159837380Y-84145476D02*
X159837380Y-84716904D01*
X159837380Y-84431190D02*
X158837380Y-84431190D01*
X158980238Y-84526428D01*
X159075476Y-84621666D01*
X159123095Y-84716904D01*
X158837380Y-83812142D02*
X158837380Y-83193095D01*
X159218333Y-83526428D01*
X159218333Y-83383571D01*
X159265952Y-83288333D01*
X159313571Y-83240714D01*
X159408809Y-83193095D01*
X159646904Y-83193095D01*
X159742142Y-83240714D01*
X159789761Y-83288333D01*
X159837380Y-83383571D01*
X159837380Y-83669285D01*
X159789761Y-83764523D01*
X159742142Y-83812142D01*
%TO.C,R10*%
X172522380Y-68587857D02*
X172046190Y-68921190D01*
X172522380Y-69159285D02*
X171522380Y-69159285D01*
X171522380Y-68778333D01*
X171570000Y-68683095D01*
X171617619Y-68635476D01*
X171712857Y-68587857D01*
X171855714Y-68587857D01*
X171950952Y-68635476D01*
X171998571Y-68683095D01*
X172046190Y-68778333D01*
X172046190Y-69159285D01*
X172522380Y-67635476D02*
X172522380Y-68206904D01*
X172522380Y-67921190D02*
X171522380Y-67921190D01*
X171665238Y-68016428D01*
X171760476Y-68111666D01*
X171808095Y-68206904D01*
X171522380Y-67016428D02*
X171522380Y-66921190D01*
X171570000Y-66825952D01*
X171617619Y-66778333D01*
X171712857Y-66730714D01*
X171903333Y-66683095D01*
X172141428Y-66683095D01*
X172331904Y-66730714D01*
X172427142Y-66778333D01*
X172474761Y-66825952D01*
X172522380Y-66921190D01*
X172522380Y-67016428D01*
X172474761Y-67111666D01*
X172427142Y-67159285D01*
X172331904Y-67206904D01*
X172141428Y-67254523D01*
X171903333Y-67254523D01*
X171712857Y-67206904D01*
X171617619Y-67159285D01*
X171570000Y-67111666D01*
X171522380Y-67016428D01*
%TO.C,R8*%
X134437380Y-130341666D02*
X133961190Y-130675000D01*
X134437380Y-130913095D02*
X133437380Y-130913095D01*
X133437380Y-130532142D01*
X133485000Y-130436904D01*
X133532619Y-130389285D01*
X133627857Y-130341666D01*
X133770714Y-130341666D01*
X133865952Y-130389285D01*
X133913571Y-130436904D01*
X133961190Y-130532142D01*
X133961190Y-130913095D01*
X133865952Y-129770238D02*
X133818333Y-129865476D01*
X133770714Y-129913095D01*
X133675476Y-129960714D01*
X133627857Y-129960714D01*
X133532619Y-129913095D01*
X133485000Y-129865476D01*
X133437380Y-129770238D01*
X133437380Y-129579761D01*
X133485000Y-129484523D01*
X133532619Y-129436904D01*
X133627857Y-129389285D01*
X133675476Y-129389285D01*
X133770714Y-129436904D01*
X133818333Y-129484523D01*
X133865952Y-129579761D01*
X133865952Y-129770238D01*
X133913571Y-129865476D01*
X133961190Y-129913095D01*
X134056428Y-129960714D01*
X134246904Y-129960714D01*
X134342142Y-129913095D01*
X134389761Y-129865476D01*
X134437380Y-129770238D01*
X134437380Y-129579761D01*
X134389761Y-129484523D01*
X134342142Y-129436904D01*
X134246904Y-129389285D01*
X134056428Y-129389285D01*
X133961190Y-129436904D01*
X133913571Y-129484523D01*
X133865952Y-129579761D01*
%TO.C,R7*%
X134422380Y-104941666D02*
X133946190Y-105275000D01*
X134422380Y-105513095D02*
X133422380Y-105513095D01*
X133422380Y-105132142D01*
X133470000Y-105036904D01*
X133517619Y-104989285D01*
X133612857Y-104941666D01*
X133755714Y-104941666D01*
X133850952Y-104989285D01*
X133898571Y-105036904D01*
X133946190Y-105132142D01*
X133946190Y-105513095D01*
X133422380Y-104608333D02*
X133422380Y-103941666D01*
X134422380Y-104370238D01*
%TO.C,R6*%
X134437380Y-79541666D02*
X133961190Y-79875000D01*
X134437380Y-80113095D02*
X133437380Y-80113095D01*
X133437380Y-79732142D01*
X133485000Y-79636904D01*
X133532619Y-79589285D01*
X133627857Y-79541666D01*
X133770714Y-79541666D01*
X133865952Y-79589285D01*
X133913571Y-79636904D01*
X133961190Y-79732142D01*
X133961190Y-80113095D01*
X133437380Y-78684523D02*
X133437380Y-78875000D01*
X133485000Y-78970238D01*
X133532619Y-79017857D01*
X133675476Y-79113095D01*
X133865952Y-79160714D01*
X134246904Y-79160714D01*
X134342142Y-79113095D01*
X134389761Y-79065476D01*
X134437380Y-78970238D01*
X134437380Y-78779761D01*
X134389761Y-78684523D01*
X134342142Y-78636904D01*
X134246904Y-78589285D01*
X134008809Y-78589285D01*
X133913571Y-78636904D01*
X133865952Y-78684523D01*
X133818333Y-78779761D01*
X133818333Y-78970238D01*
X133865952Y-79065476D01*
X133913571Y-79113095D01*
X134008809Y-79160714D01*
%TO.C,R5*%
X134422380Y-54141666D02*
X133946190Y-54475000D01*
X134422380Y-54713095D02*
X133422380Y-54713095D01*
X133422380Y-54332142D01*
X133470000Y-54236904D01*
X133517619Y-54189285D01*
X133612857Y-54141666D01*
X133755714Y-54141666D01*
X133850952Y-54189285D01*
X133898571Y-54236904D01*
X133946190Y-54332142D01*
X133946190Y-54713095D01*
X133422380Y-53236904D02*
X133422380Y-53713095D01*
X133898571Y-53760714D01*
X133850952Y-53713095D01*
X133803333Y-53617857D01*
X133803333Y-53379761D01*
X133850952Y-53284523D01*
X133898571Y-53236904D01*
X133993809Y-53189285D01*
X134231904Y-53189285D01*
X134327142Y-53236904D01*
X134374761Y-53284523D01*
X134422380Y-53379761D01*
X134422380Y-53617857D01*
X134374761Y-53713095D01*
X134327142Y-53760714D01*
%TO.C,J3*%
X173656666Y-95762380D02*
X173656666Y-96476666D01*
X173609047Y-96619523D01*
X173513809Y-96714761D01*
X173370952Y-96762380D01*
X173275714Y-96762380D01*
X174037619Y-95762380D02*
X174656666Y-95762380D01*
X174323333Y-96143333D01*
X174466190Y-96143333D01*
X174561428Y-96190952D01*
X174609047Y-96238571D01*
X174656666Y-96333809D01*
X174656666Y-96571904D01*
X174609047Y-96667142D01*
X174561428Y-96714761D01*
X174466190Y-96762380D01*
X174180476Y-96762380D01*
X174085238Y-96714761D01*
X174037619Y-96667142D01*
%TO.C,J1*%
X173656666Y-79252380D02*
X173656666Y-79966666D01*
X173609047Y-80109523D01*
X173513809Y-80204761D01*
X173370952Y-80252380D01*
X173275714Y-80252380D01*
X174656666Y-80252380D02*
X174085238Y-80252380D01*
X174370952Y-80252380D02*
X174370952Y-79252380D01*
X174275714Y-79395238D01*
X174180476Y-79490476D01*
X174085238Y-79538095D01*
%TO.C,D2*%
X140787380Y-56618095D02*
X139787380Y-56618095D01*
X139787380Y-56380000D01*
X139835000Y-56237142D01*
X139930238Y-56141904D01*
X140025476Y-56094285D01*
X140215952Y-56046666D01*
X140358809Y-56046666D01*
X140549285Y-56094285D01*
X140644523Y-56141904D01*
X140739761Y-56237142D01*
X140787380Y-56380000D01*
X140787380Y-56618095D01*
X139882619Y-55665714D02*
X139835000Y-55618095D01*
X139787380Y-55522857D01*
X139787380Y-55284761D01*
X139835000Y-55189523D01*
X139882619Y-55141904D01*
X139977857Y-55094285D01*
X140073095Y-55094285D01*
X140215952Y-55141904D01*
X140787380Y-55713333D01*
X140787380Y-55094285D01*
X144492380Y-52331904D02*
X143492380Y-52331904D01*
X144492380Y-51760476D02*
X143920952Y-52189047D01*
X143492380Y-51760476D02*
X144063809Y-52331904D01*
%TO.C,D1*%
X168307380Y-95353095D02*
X167307380Y-95353095D01*
X167307380Y-95115000D01*
X167355000Y-94972142D01*
X167450238Y-94876904D01*
X167545476Y-94829285D01*
X167735952Y-94781666D01*
X167878809Y-94781666D01*
X168069285Y-94829285D01*
X168164523Y-94876904D01*
X168259761Y-94972142D01*
X168307380Y-95115000D01*
X168307380Y-95353095D01*
X168307380Y-93829285D02*
X168307380Y-94400714D01*
X168307380Y-94115000D02*
X167307380Y-94115000D01*
X167450238Y-94210238D01*
X167545476Y-94305476D01*
X167593095Y-94400714D01*
X167987380Y-91066904D02*
X166987380Y-91066904D01*
X167987380Y-90495476D02*
X167415952Y-90924047D01*
X166987380Y-90495476D02*
X167558809Y-91066904D01*
%TO.C,C7*%
X171243333Y-82612142D02*
X171195714Y-82659761D01*
X171052857Y-82707380D01*
X170957619Y-82707380D01*
X170814761Y-82659761D01*
X170719523Y-82564523D01*
X170671904Y-82469285D01*
X170624285Y-82278809D01*
X170624285Y-82135952D01*
X170671904Y-81945476D01*
X170719523Y-81850238D01*
X170814761Y-81755000D01*
X170957619Y-81707380D01*
X171052857Y-81707380D01*
X171195714Y-81755000D01*
X171243333Y-81802619D01*
X171576666Y-81707380D02*
X172243333Y-81707380D01*
X171814761Y-82707380D01*
%TO.C,C6*%
X171323333Y-97217142D02*
X171275714Y-97264761D01*
X171132857Y-97312380D01*
X171037619Y-97312380D01*
X170894761Y-97264761D01*
X170799523Y-97169523D01*
X170751904Y-97074285D01*
X170704285Y-96883809D01*
X170704285Y-96740952D01*
X170751904Y-96550476D01*
X170799523Y-96455238D01*
X170894761Y-96360000D01*
X171037619Y-96312380D01*
X171132857Y-96312380D01*
X171275714Y-96360000D01*
X171323333Y-96407619D01*
X172180476Y-96312380D02*
X171990000Y-96312380D01*
X171894761Y-96360000D01*
X171847142Y-96407619D01*
X171751904Y-96550476D01*
X171704285Y-96740952D01*
X171704285Y-97121904D01*
X171751904Y-97217142D01*
X171799523Y-97264761D01*
X171894761Y-97312380D01*
X172085238Y-97312380D01*
X172180476Y-97264761D01*
X172228095Y-97217142D01*
X172275714Y-97121904D01*
X172275714Y-96883809D01*
X172228095Y-96788571D01*
X172180476Y-96740952D01*
X172085238Y-96693333D01*
X171894761Y-96693333D01*
X171799523Y-96740952D01*
X171751904Y-96788571D01*
X171704285Y-96883809D01*
%TO.C,C5*%
X150923333Y-66102142D02*
X150875714Y-66149761D01*
X150732857Y-66197380D01*
X150637619Y-66197380D01*
X150494761Y-66149761D01*
X150399523Y-66054523D01*
X150351904Y-65959285D01*
X150304285Y-65768809D01*
X150304285Y-65625952D01*
X150351904Y-65435476D01*
X150399523Y-65340238D01*
X150494761Y-65245000D01*
X150637619Y-65197380D01*
X150732857Y-65197380D01*
X150875714Y-65245000D01*
X150923333Y-65292619D01*
X151828095Y-65197380D02*
X151351904Y-65197380D01*
X151304285Y-65673571D01*
X151351904Y-65625952D01*
X151447142Y-65578333D01*
X151685238Y-65578333D01*
X151780476Y-65625952D01*
X151828095Y-65673571D01*
X151875714Y-65768809D01*
X151875714Y-66006904D01*
X151828095Y-66102142D01*
X151780476Y-66149761D01*
X151685238Y-66197380D01*
X151447142Y-66197380D01*
X151351904Y-66149761D01*
X151304285Y-66102142D01*
%TO.C,C2*%
X159742142Y-80811666D02*
X159789761Y-80859285D01*
X159837380Y-81002142D01*
X159837380Y-81097380D01*
X159789761Y-81240238D01*
X159694523Y-81335476D01*
X159599285Y-81383095D01*
X159408809Y-81430714D01*
X159265952Y-81430714D01*
X159075476Y-81383095D01*
X158980238Y-81335476D01*
X158885000Y-81240238D01*
X158837380Y-81097380D01*
X158837380Y-81002142D01*
X158885000Y-80859285D01*
X158932619Y-80811666D01*
X158932619Y-80430714D02*
X158885000Y-80383095D01*
X158837380Y-80287857D01*
X158837380Y-80049761D01*
X158885000Y-79954523D01*
X158932619Y-79906904D01*
X159027857Y-79859285D01*
X159123095Y-79859285D01*
X159265952Y-79906904D01*
X159837380Y-80478333D01*
X159837380Y-79859285D01*
%TD*%
M02*
