M48
; DRILL file {KiCad (5.1.6)-1} date 01/30/21 12:25:41
; FORMAT={-:-/ absolute / inch / decimal}
; #@! TF.CreationDate,2021-01-30T12:25:41-05:00
; #@! TF.GenerationSoftware,Kicad,Pcbnew,(5.1.6)-1
; #@! TF.FileFunction,Plated,1,2,PTH
FMAT,2
INCH
T1C0.0157
T2C0.0276
T3C0.0315
T4C0.0394
T5C0.0472
T6C0.0512
%
G90
G05
T1
X5.15Y-1.95
X5.15Y-2.95
X5.15Y-4.8
X5.275Y-5.325
X5.3739Y-4.7239
X5.4Y-3.925
X5.475Y-2.35
X5.5Y-3.075
X5.5Y-4.3
X5.6Y-2.825
X5.675Y-3.2
X5.675Y-3.35
X5.675Y-4.725
X5.7001Y-2.1251
X5.775Y-3.625
X5.775Y-5.3
X5.8Y-2.475
X5.825Y-5.05
X5.975Y-3.325
X5.975Y-4.1488
X6.05Y-2.2
X6.075Y-2.45
X6.2Y-2.075
X6.2Y-3.275
X6.275Y-5.3
X6.3Y-2.425
X6.375Y-4.1
X6.375Y-4.148
X6.425Y-3.575
X6.6Y-4.6
X6.725Y-4.95
X6.725Y-5.4
X6.775Y-5.05
X6.9Y-1.925
T2
X5.675Y-4.2
X5.675Y-4.4
X5.35Y-5.025
X5.35Y-5.225
X6.35Y-3.325
X6.55Y-3.325
X5.35Y-2.025
X5.35Y-2.225
X5.975Y-4.95
X5.975Y-5.15
X5.35Y-3.325
X5.35Y-3.525
X6.275Y-4.2
X6.275Y-4.4
X5.35Y-4.325
X5.35Y-4.525
X6.625Y-5.125
X6.625Y-5.325
X5.775Y-4.95
X5.775Y-5.15
X5.35Y-4.025
X5.35Y-4.225
X5.35Y-5.325
X5.35Y-5.525
X5.675Y-4.95
X5.675Y-5.15
X6.525Y-5.25
X6.525Y-5.45
X6.4Y-4.95
X6.4Y-5.15
X6.175Y-4.2
X6.175Y-4.4
X6.35Y-3.475
X6.55Y-3.475
X6.35Y-3.025
X6.55Y-3.025
X5.85Y-3.65
X6.05Y-3.65
X5.875Y-4.95
X5.875Y-5.15
X5.775Y-4.2
X5.775Y-4.4
X5.875Y-4.2
X5.875Y-4.4
X5.35Y-3.025
X5.35Y-3.225
X6.175Y-4.95
X6.175Y-5.15
X6.85Y-2.575
X6.85Y-2.775
X5.975Y-4.2
X5.975Y-4.4
X6.725Y-5.125
X6.725Y-5.325
X6.175Y-5.3
X6.375Y-5.3
X5.35Y-2.325
X5.35Y-2.525
X5.675Y-5.3
X5.875Y-5.3
T3
X5.8Y-2.05
X5.8Y-2.35
X5.9Y-2.05
X5.9Y-2.35
X6.0Y-2.05
X6.0Y-2.35
X6.1Y-2.05
X6.1Y-2.35
X6.525Y-3.575
X6.525Y-3.875
X5.6Y-2.05
X5.6Y-2.35
X6.075Y-4.95
X6.075Y-5.1469
X5.85Y-2.675
X6.0469Y-2.675
X5.675Y-4.525
X5.675Y-4.825
X5.775Y-4.525
X5.775Y-4.825
X5.875Y-4.525
X5.875Y-4.825
X5.975Y-4.525
X5.975Y-4.825
X6.075Y-4.525
X6.075Y-4.825
X6.175Y-4.525
X6.175Y-4.825
X6.275Y-4.525
X6.275Y-4.825
X6.375Y-4.525
X6.375Y-4.825
X6.475Y-4.525
X6.475Y-4.825
X6.275Y-4.95
X6.275Y-5.1469
X6.35Y-3.175
X6.5469Y-3.175
X6.3Y-2.1031
X6.3Y-2.3
X5.8Y-2.825
X5.8Y-2.925
X5.8Y-3.025
X5.8Y-3.125
X5.8Y-3.225
X5.8Y-3.325
X5.8Y-3.425
X5.8Y-3.525
X6.1Y-2.825
X6.1Y-2.925
X6.1Y-3.025
X6.1Y-3.125
X6.1Y-3.225
X6.1Y-3.325
X6.1Y-3.425
X6.1Y-3.525
X6.5122Y-2.1
X6.65Y-2.1
X6.525Y-4.95
X6.525Y-5.1469
X6.6531Y-3.9
X6.85Y-3.9
X6.5122Y-2.475
X6.65Y-2.475
X6.65Y-3.325
X6.8469Y-3.325
X6.375Y-4.2031
X6.375Y-4.4
X5.525Y-4.625
X5.525Y-4.8219
T4
X6.025Y-3.825
X6.025Y-3.925
X6.025Y-4.025
X6.2Y-5.475
X6.3Y-5.475
X6.4Y-5.475
X6.2Y-3.825
X6.2Y-3.925
X6.2Y-4.025
X6.85Y-4.1
X6.85Y-4.2
X6.85Y-4.3
X6.85Y-4.4
X6.85Y-4.5
X6.85Y-4.6
X6.85Y-4.7
X6.85Y-4.8
X6.85Y-4.9
X6.85Y-3.5
X6.85Y-3.6
X6.85Y-3.7
X6.375Y-3.825
X6.375Y-3.925
X6.375Y-4.025
X6.85Y-5.125
X6.85Y-5.225
X6.85Y-5.325
X5.85Y-3.825
X5.85Y-3.925
X5.85Y-4.025
X6.85Y-2.95
X6.85Y-3.05
T5
X6.4Y-2.825
X6.6Y-2.825
T6
X5.15Y-4.0781
X5.15Y-4.275
X5.15Y-4.4719
X5.15Y-3.0781
X5.15Y-3.275
X5.15Y-3.4719
X5.15Y-5.0781
X5.15Y-5.275
X5.15Y-5.4719
X5.15Y-2.0781
X5.15Y-2.275
X5.15Y-2.4719
T0
M30
