  0
SECTION
  2
HEADER
  9
$ANGBASE
  50
0.0
  9
$ANGDIR
  70
1
  9
$MEASUREMENT
  70
0
  0
ENDSEC
  0
SECTION
  2
TABLES
  0
TABLE
  2
LTYPE
  70
4
  0
LTYPE
  5
40F
  2
CONTINUOUS
  70
0
  3
Solid line
  72
65
  73
0
  40
0.0
  0
LTYPE
  5
410
  2
DASHDOT
 70
0
  3
Dash Dot ____ _ ____ _
 72
65
 73
4
 40
2.0
 49
1.25
 49
-0.25
 49
0.25
 49
-0.25
  0
LTYPE
  5
411
  2
DASHED
 70
0
  3
Dashed __ __ __ __ __
 72
65
 73
2
 40
0.75
 49
0.5
 49
-0.25
  0
LTYPE
  5
43B
  2
DOTTED
 70
0
  3
Dotted .  .  .  .
 72
65
 73
2
 40
0.2
 49
0.0
 49
-0.2
  0
ENDTAB
  0
TABLE
  2
STYLE
  70
4
  0
STYLE
  2
KICAD
  70
0
  40
0
  41
1
  42
1
  50
0
  71
0
  3
isocp.shx
  0
STYLE
  2
KICADB
  70
0
  40
0
  41
1
  42
1
  50
0
  71
0
  3
isocp.shx
  0
STYLE
  2
KICADI
  70
0
  40
0
  41
1
  42
1
  50
15
  71
0
  3
isocp.shx
  0
STYLE
  2
KICADBI
  70
0
  40
0
  41
1
  42
1
  50
15
  71
0
  3
isocp.shx
  0
ENDTAB
  0
TABLE
  2
LAYER
  70
1
  0
LAYER
  2
BLACK
  70
0
  62
7
  6
CONTINUOUS
  0
ENDTAB
  0
ENDSEC
  0
SECTION
  2
ENTITIES
0
LINE
8
BLACK
6
CONTINUOUS
10
21.2501
20
-1.99705
11
21.2506
21
-1.99709
0
LINE
8
BLACK
6
CONTINUOUS
10
21.2506
20
-1.99709
11
21.2511
21
-1.99726
0
LINE
8
BLACK
6
CONTINUOUS
10
21.2511
20
-1.99726
11
21.2516
21
-1.99753
0
LINE
8
BLACK
6
CONTINUOUS
10
21.2516
20
-1.99753
11
21.2521
21
-1.9979
0
LINE
8
BLACK
6
CONTINUOUS
10
21.2521
20
-1.9979
11
21.2525
21
-1.99835
0
LINE
8
BLACK
6
CONTINUOUS
10
21.2525
20
-1.99835
11
21.2527
21
-1.99886
0
LINE
8
BLACK
6
CONTINUOUS
10
21.2527
20
-1.99886
11
21.2529
21
-1.99942
0
LINE
8
BLACK
6
CONTINUOUS
10
21.2529
20
-1.99942
11
21.253
21
-2
0
LINE
8
BLACK
6
CONTINUOUS
10
21.253
20
-2
11
21.253
21
-2.00014
0
LINE
8
BLACK
6
CONTINUOUS
10
21.253
20
-2.00014
11
21.253
21
-8.49986
0
LINE
8
BLACK
6
CONTINUOUS
10
21.253
20
-8.49986
11
21.253
21
-8.5
0
LINE
8
BLACK
6
CONTINUOUS
10
21.253
20
-8.5
11
21.2529
21
-8.50058
0
LINE
8
BLACK
6
CONTINUOUS
10
21.2529
20
-8.50058
11
21.2527
21
-8.50114
0
LINE
8
BLACK
6
CONTINUOUS
10
21.2527
20
-8.50114
11
21.2525
21
-8.50165
0
LINE
8
BLACK
6
CONTINUOUS
10
21.2525
20
-8.50165
11
21.2521
21
-8.5021
0
LINE
8
BLACK
6
CONTINUOUS
10
21.2521
20
-8.5021
11
21.2516
21
-8.50247
0
LINE
8
BLACK
6
CONTINUOUS
10
21.2516
20
-8.50247
11
21.2511
21
-8.50274
0
LINE
8
BLACK
6
CONTINUOUS
10
21.2511
20
-8.50274
11
21.2506
21
-8.50291
0
LINE
8
BLACK
6
CONTINUOUS
10
21.2506
20
-8.50291
11
21.2501
21
-8.50295
0
LINE
8
BLACK
6
CONTINUOUS
10
21.2501
20
-8.50295
11
21.25
21
-8.50297
0
LINE
8
BLACK
6
CONTINUOUS
10
21.25
20
-8.50297
11
21.2499
21
-8.50295
0
LINE
8
BLACK
6
CONTINUOUS
10
21.2499
20
-8.50295
11
0.750145
21
-8.50295
0
LINE
8
BLACK
6
CONTINUOUS
10
0.750145
20
-8.50295
11
0.75
21
-8.50297
0
LINE
8
BLACK
6
CONTINUOUS
10
0.75
20
-8.50297
11
0.749421
21
-8.50291
0
LINE
8
BLACK
6
CONTINUOUS
10
0.749421
20
-8.50291
11
0.748865
21
-8.50274
0
LINE
8
BLACK
6
CONTINUOUS
10
0.748865
20
-8.50274
11
0.748352
21
-8.50247
0
LINE
8
BLACK
6
CONTINUOUS
10
0.748352
20
-8.50247
11
0.747902
21
-8.5021
0
LINE
8
BLACK
6
CONTINUOUS
10
0.747902
20
-8.5021
11
0.747533
21
-8.50165
0
LINE
8
BLACK
6
CONTINUOUS
10
0.747533
20
-8.50165
11
0.747259
21
-8.50114
0
LINE
8
BLACK
6
CONTINUOUS
10
0.747259
20
-8.50114
11
0.74709
21
-8.50058
0
LINE
8
BLACK
6
CONTINUOUS
10
0.74709
20
-8.50058
11
0.747033
21
-8.5
0
LINE
8
BLACK
6
CONTINUOUS
10
0.747033
20
-8.5
11
0.747047
21
-8.49986
0
LINE
8
BLACK
6
CONTINUOUS
10
0.747047
20
-8.49986
11
0.747047
21
-2.00015
0
LINE
8
BLACK
6
CONTINUOUS
10
0.747047
20
-2.00015
11
0.747033
21
-2
0
LINE
8
BLACK
6
CONTINUOUS
10
0.747033
20
-2
11
0.74709
21
-1.99942
0
LINE
8
BLACK
6
CONTINUOUS
10
0.74709
20
-1.99942
11
0.747259
21
-1.99886
0
LINE
8
BLACK
6
CONTINUOUS
10
0.747259
20
-1.99886
11
0.747533
21
-1.99835
0
LINE
8
BLACK
6
CONTINUOUS
10
0.747533
20
-1.99835
11
0.747902
21
-1.9979
0
LINE
8
BLACK
6
CONTINUOUS
10
0.747902
20
-1.9979
11
0.748352
21
-1.99753
0
LINE
8
BLACK
6
CONTINUOUS
10
0.748352
20
-1.99753
11
0.748865
21
-1.99726
0
LINE
8
BLACK
6
CONTINUOUS
10
0.748865
20
-1.99726
11
0.749421
21
-1.99709
0
LINE
8
BLACK
6
CONTINUOUS
10
0.749421
20
-1.99709
11
0.749855
21
-1.99705
0
LINE
8
BLACK
6
CONTINUOUS
10
0.749855
20
-1.99705
11
0.75
21
-1.99703
0
LINE
8
BLACK
6
CONTINUOUS
10
0.75
20
-1.99703
11
0.750145
21
-1.99705
0
LINE
8
BLACK
6
CONTINUOUS
10
0.750145
20
-1.99705
11
21.2499
21
-1.99705
0
LINE
8
BLACK
6
CONTINUOUS
10
21.2499
20
-1.99705
11
21.25
21
-1.99703
0
LINE
8
BLACK
6
CONTINUOUS
10
21.25
20
-1.99703
11
21.2501
21
-1.99705
0
LINE
8
BLACK
6
CONTINUOUS
10
0.752953
20
-2.00295
11
0.752953
21
-8.49705
0
LINE
8
BLACK
6
CONTINUOUS
10
0.752953
20
-8.49705
11
21.247
21
-8.49705
0
LINE
8
BLACK
6
CONTINUOUS
10
21.247
20
-8.49705
11
21.247
21
-2.00295
0
LINE
8
BLACK
6
CONTINUOUS
10
21.247
20
-2.00295
11
0.752953
21
-2.00295
0
LINE
8
BLACK
6
CONTINUOUS
10
3.52928
20
-6.44114
11
3.52971
21
-6.44118
0
LINE
8
BLACK
6
CONTINUOUS
10
3.52971
20
-6.44118
11
3.53027
21
-6.44135
0
LINE
8
BLACK
6
CONTINUOUS
10
3.53027
20
-6.44135
11
3.53078
21
-6.44163
0
LINE
8
BLACK
6
CONTINUOUS
10
3.53078
20
-6.44163
11
3.53123
21
-6.442
0
LINE
8
BLACK
6
CONTINUOUS
10
3.53123
20
-6.442
11
3.5316
21
-6.44245
0
LINE
8
BLACK
6
CONTINUOUS
10
3.5316
20
-6.44245
11
3.53187
21
-6.44296
0
LINE
8
BLACK
6
CONTINUOUS
10
3.53187
20
-6.44296
11
3.53204
21
-6.44352
0
LINE
8
BLACK
6
CONTINUOUS
10
3.53204
20
-6.44352
11
3.5321
21
-6.44409
0
LINE
8
BLACK
6
CONTINUOUS
10
3.5321
20
-6.44409
11
3.53209
21
-6.44424
0
LINE
8
BLACK
6
CONTINUOUS
10
3.53209
20
-6.44424
11
3.53209
21
-7.68017
0
LINE
8
BLACK
6
CONTINUOUS
10
3.53209
20
-7.68017
11
3.5321
21
-7.68031
0
LINE
8
BLACK
6
CONTINUOUS
10
3.5321
20
-7.68031
11
3.53204
21
-7.68089
0
LINE
8
BLACK
6
CONTINUOUS
10
3.53204
20
-7.68089
11
3.53187
21
-7.68145
0
LINE
8
BLACK
6
CONTINUOUS
10
3.53187
20
-7.68145
11
3.5316
21
-7.68196
0
LINE
8
BLACK
6
CONTINUOUS
10
3.5316
20
-7.68196
11
3.53123
21
-7.68241
0
LINE
8
BLACK
6
CONTINUOUS
10
3.53123
20
-7.68241
11
3.53078
21
-7.68278
0
LINE
8
BLACK
6
CONTINUOUS
10
3.53078
20
-7.68278
11
3.53027
21
-7.68306
0
LINE
8
BLACK
6
CONTINUOUS
10
3.53027
20
-7.68306
11
3.52971
21
-7.68322
0
LINE
8
BLACK
6
CONTINUOUS
10
3.52971
20
-7.68322
11
3.52928
21
-7.68327
0
LINE
8
BLACK
6
CONTINUOUS
10
3.52928
20
-7.68327
11
3.52913
21
-7.68328
0
LINE
8
BLACK
6
CONTINUOUS
10
3.52913
20
-7.68328
11
3.52899
21
-7.68327
0
LINE
8
BLACK
6
CONTINUOUS
10
3.52899
20
-7.68327
11
2.45448
21
-7.68327
0
LINE
8
BLACK
6
CONTINUOUS
10
2.45448
20
-7.68327
11
2.45433
21
-7.68328
0
LINE
8
BLACK
6
CONTINUOUS
10
2.45433
20
-7.68328
11
2.45419
21
-7.68327
0
LINE
8
BLACK
6
CONTINUOUS
10
2.45419
20
-7.68327
11
2.45375
21
-7.68322
0
LINE
8
BLACK
6
CONTINUOUS
10
2.45375
20
-7.68322
11
2.4532
21
-7.68306
0
LINE
8
BLACK
6
CONTINUOUS
10
2.4532
20
-7.68306
11
2.45268
21
-7.68278
0
LINE
8
BLACK
6
CONTINUOUS
10
2.45268
20
-7.68278
11
2.45223
21
-7.68241
0
LINE
8
BLACK
6
CONTINUOUS
10
2.45223
20
-7.68241
11
2.45186
21
-7.68196
0
LINE
8
BLACK
6
CONTINUOUS
10
2.45186
20
-7.68196
11
2.45159
21
-7.68145
0
LINE
8
BLACK
6
CONTINUOUS
10
2.45159
20
-7.68145
11
2.45142
21
-7.68089
0
LINE
8
BLACK
6
CONTINUOUS
10
2.45142
20
-7.68089
11
2.45136
21
-7.68031
0
LINE
8
BLACK
6
CONTINUOUS
10
2.45136
20
-7.68031
11
2.45138
21
-7.68017
0
LINE
8
BLACK
6
CONTINUOUS
10
2.45138
20
-7.68017
11
2.45138
21
-6.44424
0
LINE
8
BLACK
6
CONTINUOUS
10
2.45138
20
-6.44424
11
2.45136
21
-6.44409
0
LINE
8
BLACK
6
CONTINUOUS
10
2.45136
20
-6.44409
11
2.45142
21
-6.44352
0
LINE
8
BLACK
6
CONTINUOUS
10
2.45142
20
-6.44352
11
2.45159
21
-6.44296
0
LINE
8
BLACK
6
CONTINUOUS
10
2.45159
20
-6.44296
11
2.45186
21
-6.44245
0
LINE
8
BLACK
6
CONTINUOUS
10
2.45186
20
-6.44245
11
2.45223
21
-6.442
0
LINE
8
BLACK
6
CONTINUOUS
10
2.45223
20
-6.442
11
2.45268
21
-6.44163
0
LINE
8
BLACK
6
CONTINUOUS
10
2.45268
20
-6.44163
11
2.4532
21
-6.44135
0
LINE
8
BLACK
6
CONTINUOUS
10
2.4532
20
-6.44135
11
2.45375
21
-6.44118
0
LINE
8
BLACK
6
CONTINUOUS
10
2.45375
20
-6.44118
11
2.45419
21
-6.44114
0
LINE
8
BLACK
6
CONTINUOUS
10
2.45419
20
-6.44114
11
2.45433
21
-6.44113
0
LINE
8
BLACK
6
CONTINUOUS
10
2.45433
20
-6.44113
11
2.45448
21
-6.44114
0
LINE
8
BLACK
6
CONTINUOUS
10
2.45448
20
-6.44114
11
3.52899
21
-6.44114
0
LINE
8
BLACK
6
CONTINUOUS
10
3.52899
20
-6.44114
11
3.52913
21
-6.44113
0
LINE
8
BLACK
6
CONTINUOUS
10
3.52913
20
-6.44113
11
3.52928
21
-6.44114
0
LINE
8
BLACK
6
CONTINUOUS
10
2.45728
20
-6.44705
11
2.45728
21
-7.67736
0
LINE
8
BLACK
6
CONTINUOUS
10
2.45728
20
-7.67736
11
3.52618
21
-7.67736
0
LINE
8
BLACK
6
CONTINUOUS
10
3.52618
20
-7.67736
11
3.52618
21
-6.44705
0
LINE
8
BLACK
6
CONTINUOUS
10
3.52618
20
-6.44705
11
2.45728
21
-6.44705
0
LINE
8
BLACK
6
CONTINUOUS
10
10.9191
20
-7.97606
11
10.9253
21
-7.96112
0
LINE
8
BLACK
6
CONTINUOUS
10
10.9253
20
-7.96112
11
10.9343
21
-7.94768
0
LINE
8
BLACK
6
CONTINUOUS
10
10.9343
20
-7.94768
11
10.9457
21
-7.93624
0
LINE
8
BLACK
6
CONTINUOUS
10
10.9457
20
-7.93624
11
10.9592
21
-7.92726
0
LINE
8
BLACK
6
CONTINUOUS
10
10.9592
20
-7.92726
11
10.9741
21
-7.92107
0
LINE
8
BLACK
6
CONTINUOUS
10
10.9741
20
-7.92107
11
10.9899
21
-7.91792
0
LINE
8
BLACK
6
CONTINUOUS
10
10.9899
20
-7.91792
11
11.0061
21
-7.91792
0
LINE
8
BLACK
6
CONTINUOUS
10
11.0061
20
-7.91792
11
11.022
21
-7.92107
0
LINE
8
BLACK
6
CONTINUOUS
10
11.022
20
-7.92107
11
11.0369
21
-7.92726
0
LINE
8
BLACK
6
CONTINUOUS
10
11.0369
20
-7.92726
11
11.0504
21
-7.93624
0
LINE
8
BLACK
6
CONTINUOUS
10
11.0504
20
-7.93624
11
11.0618
21
-7.94768
0
LINE
8
BLACK
6
CONTINUOUS
10
11.0618
20
-7.94768
11
11.0708
21
-7.96112
0
LINE
8
BLACK
6
CONTINUOUS
10
11.0708
20
-7.96112
11
11.077
21
-7.97606
0
LINE
8
BLACK
6
CONTINUOUS
10
11.077
20
-7.97606
11
11.0801
21
-7.99192
0
LINE
8
BLACK
6
CONTINUOUS
10
11.0801
20
-7.99192
11
11.0801
21
-8.00808
0
LINE
8
BLACK
6
CONTINUOUS
10
11.0801
20
-8.00808
11
11.077
21
-8.02394
0
LINE
8
BLACK
6
CONTINUOUS
10
11.077
20
-8.02394
11
11.0708
21
-8.03888
0
LINE
8
BLACK
6
CONTINUOUS
10
11.0708
20
-8.03888
11
11.0618
21
-8.05232
0
LINE
8
BLACK
6
CONTINUOUS
10
11.0618
20
-8.05232
11
11.0504
21
-8.06376
0
LINE
8
BLACK
6
CONTINUOUS
10
11.0504
20
-8.06376
11
11.0369
21
-8.07274
0
LINE
8
BLACK
6
CONTINUOUS
10
11.0369
20
-8.07274
11
11.022
21
-8.07893
0
LINE
8
BLACK
6
CONTINUOUS
10
11.022
20
-8.07893
11
11.0061
21
-8.08208
0
LINE
8
BLACK
6
CONTINUOUS
10
11.0061
20
-8.08208
11
10.9899
21
-8.08208
0
LINE
8
BLACK
6
CONTINUOUS
10
10.9899
20
-8.08208
11
10.9741
21
-8.07893
0
LINE
8
BLACK
6
CONTINUOUS
10
10.9741
20
-8.07893
11
10.9592
21
-8.07274
0
LINE
8
BLACK
6
CONTINUOUS
10
10.9592
20
-8.07274
11
10.9457
21
-8.06376
0
LINE
8
BLACK
6
CONTINUOUS
10
10.9457
20
-8.06376
11
10.9343
21
-8.05232
0
LINE
8
BLACK
6
CONTINUOUS
10
10.9343
20
-8.05232
11
10.9253
21
-8.03888
0
LINE
8
BLACK
6
CONTINUOUS
10
10.9253
20
-8.03888
11
10.9191
21
-8.02394
0
LINE
8
BLACK
6
CONTINUOUS
10
10.9191
20
-8.02394
11
10.9159
21
-8.00808
0
LINE
8
BLACK
6
CONTINUOUS
10
10.9159
20
-8.00808
11
10.9159
21
-7.99192
0
LINE
8
BLACK
6
CONTINUOUS
10
10.9159
20
-7.99192
11
10.9191
21
-7.97606
0
LINE
8
BLACK
6
CONTINUOUS
10
10.9255
20
-8.022
11
10.9312
21
-8.03573
0
LINE
8
BLACK
6
CONTINUOUS
10
10.9312
20
-8.03573
11
10.9394
21
-8.04808
0
LINE
8
BLACK
6
CONTINUOUS
10
10.9394
20
-8.04808
11
10.95
21
-8.05858
0
LINE
8
BLACK
6
CONTINUOUS
10
10.95
20
-8.05858
11
10.9623
21
-8.06684
0
LINE
8
BLACK
6
CONTINUOUS
10
10.9623
20
-8.06684
11
10.976
21
-8.07252
0
LINE
8
BLACK
6
CONTINUOUS
10
10.976
20
-8.07252
11
10.9906
21
-8.07542
0
LINE
8
BLACK
6
CONTINUOUS
10
10.9906
20
-8.07542
11
11.0055
21
-8.07542
0
LINE
8
BLACK
6
CONTINUOUS
10
11.0055
20
-8.07542
11
11.02
21
-8.07252
0
LINE
8
BLACK
6
CONTINUOUS
10
11.02
20
-8.07252
11
11.0338
21
-8.06684
0
LINE
8
BLACK
6
CONTINUOUS
10
11.0338
20
-8.06684
11
11.0461
21
-8.05858
0
LINE
8
BLACK
6
CONTINUOUS
10
11.0461
20
-8.05858
11
11.0566
21
-8.04808
0
LINE
8
BLACK
6
CONTINUOUS
10
11.0566
20
-8.04808
11
11.0649
21
-8.03573
0
LINE
8
BLACK
6
CONTINUOUS
10
11.0649
20
-8.03573
11
11.0706
21
-8.022
0
LINE
8
BLACK
6
CONTINUOUS
10
11.0706
20
-8.022
11
11.0735
21
-8.00743
0
LINE
8
BLACK
6
CONTINUOUS
10
11.0735
20
-8.00743
11
11.0735
21
-7.99257
0
LINE
8
BLACK
6
CONTINUOUS
10
11.0735
20
-7.99257
11
11.0706
21
-7.978
0
LINE
8
BLACK
6
CONTINUOUS
10
11.0706
20
-7.978
11
11.0649
21
-7.96427
0
LINE
8
BLACK
6
CONTINUOUS
10
11.0649
20
-7.96427
11
11.0566
21
-7.95192
0
LINE
8
BLACK
6
CONTINUOUS
10
11.0566
20
-7.95192
11
11.0461
21
-7.94142
0
LINE
8
BLACK
6
CONTINUOUS
10
11.0461
20
-7.94142
11
11.0338
21
-7.93316
0
LINE
8
BLACK
6
CONTINUOUS
10
11.0338
20
-7.93316
11
11.02
21
-7.92748
0
LINE
8
BLACK
6
CONTINUOUS
10
11.02
20
-7.92748
11
11.0055
21
-7.92458
0
LINE
8
BLACK
6
CONTINUOUS
10
11.0055
20
-7.92458
11
10.9906
21
-7.92458
0
LINE
8
BLACK
6
CONTINUOUS
10
10.9906
20
-7.92458
11
10.976
21
-7.92748
0
LINE
8
BLACK
6
CONTINUOUS
10
10.976
20
-7.92748
11
10.9623
21
-7.93316
0
LINE
8
BLACK
6
CONTINUOUS
10
10.9623
20
-7.93316
11
10.95
21
-7.94142
0
LINE
8
BLACK
6
CONTINUOUS
10
10.95
20
-7.94142
11
10.9394
21
-7.95192
0
LINE
8
BLACK
6
CONTINUOUS
10
10.9394
20
-7.95192
11
10.9312
21
-7.96427
0
LINE
8
BLACK
6
CONTINUOUS
10
10.9312
20
-7.96427
11
10.9255
21
-7.978
0
LINE
8
BLACK
6
CONTINUOUS
10
10.9255
20
-7.978
11
10.9226
21
-7.99257
0
LINE
8
BLACK
6
CONTINUOUS
10
10.9226
20
-7.99257
11
10.9226
21
-8.00743
0
LINE
8
BLACK
6
CONTINUOUS
10
10.9226
20
-8.00743
11
10.9255
21
-8.022
0
LINE
8
BLACK
6
CONTINUOUS
10
6.1691
20
-7.97606
11
6.17529
21
-7.96112
0
LINE
8
BLACK
6
CONTINUOUS
10
6.17529
20
-7.96112
11
6.18427
21
-7.94768
0
LINE
8
BLACK
6
CONTINUOUS
10
6.18427
20
-7.94768
11
6.19571
21
-7.93624
0
LINE
8
BLACK
6
CONTINUOUS
10
6.19571
20
-7.93624
11
6.20915
21
-7.92726
0
LINE
8
BLACK
6
CONTINUOUS
10
6.20915
20
-7.92726
11
6.22409
21
-7.92107
0
LINE
8
BLACK
6
CONTINUOUS
10
6.22409
20
-7.92107
11
6.23995
21
-7.91792
0
LINE
8
BLACK
6
CONTINUOUS
10
6.23995
20
-7.91792
11
6.25612
21
-7.91792
0
LINE
8
BLACK
6
CONTINUOUS
10
6.25612
20
-7.91792
11
6.27197
21
-7.92107
0
LINE
8
BLACK
6
CONTINUOUS
10
6.27197
20
-7.92107
11
6.28691
21
-7.92726
0
LINE
8
BLACK
6
CONTINUOUS
10
6.28691
20
-7.92726
11
6.30036
21
-7.93624
0
LINE
8
BLACK
6
CONTINUOUS
10
6.30036
20
-7.93624
11
6.31179
21
-7.94768
0
LINE
8
BLACK
6
CONTINUOUS
10
6.31179
20
-7.94768
11
6.32077
21
-7.96112
0
LINE
8
BLACK
6
CONTINUOUS
10
6.32077
20
-7.96112
11
6.32696
21
-7.97606
0
LINE
8
BLACK
6
CONTINUOUS
10
6.32696
20
-7.97606
11
6.33011
21
-7.99192
0
LINE
8
BLACK
6
CONTINUOUS
10
6.33011
20
-7.99192
11
6.33011
21
-8.00808
0
LINE
8
BLACK
6
CONTINUOUS
10
6.33011
20
-8.00808
11
6.32696
21
-8.02394
0
LINE
8
BLACK
6
CONTINUOUS
10
6.32696
20
-8.02394
11
6.32077
21
-8.03888
0
LINE
8
BLACK
6
CONTINUOUS
10
6.32077
20
-8.03888
11
6.31179
21
-8.05232
0
LINE
8
BLACK
6
CONTINUOUS
10
6.31179
20
-8.05232
11
6.30036
21
-8.06376
0
LINE
8
BLACK
6
CONTINUOUS
10
6.30036
20
-8.06376
11
6.28691
21
-8.07274
0
LINE
8
BLACK
6
CONTINUOUS
10
6.28691
20
-8.07274
11
6.27197
21
-8.07893
0
LINE
8
BLACK
6
CONTINUOUS
10
6.27197
20
-8.07893
11
6.25612
21
-8.08208
0
LINE
8
BLACK
6
CONTINUOUS
10
6.25612
20
-8.08208
11
6.23995
21
-8.08208
0
LINE
8
BLACK
6
CONTINUOUS
10
6.23995
20
-8.08208
11
6.22409
21
-8.07893
0
LINE
8
BLACK
6
CONTINUOUS
10
6.22409
20
-8.07893
11
6.20915
21
-8.07274
0
LINE
8
BLACK
6
CONTINUOUS
10
6.20915
20
-8.07274
11
6.19571
21
-8.06376
0
LINE
8
BLACK
6
CONTINUOUS
10
6.19571
20
-8.06376
11
6.18427
21
-8.05232
0
LINE
8
BLACK
6
CONTINUOUS
10
6.18427
20
-8.05232
11
6.17529
21
-8.03888
0
LINE
8
BLACK
6
CONTINUOUS
10
6.17529
20
-8.03888
11
6.1691
21
-8.02394
0
LINE
8
BLACK
6
CONTINUOUS
10
6.1691
20
-8.02394
11
6.16595
21
-8.00808
0
LINE
8
BLACK
6
CONTINUOUS
10
6.16595
20
-8.00808
11
6.16595
21
-7.99192
0
LINE
8
BLACK
6
CONTINUOUS
10
6.16595
20
-7.99192
11
6.1691
21
-7.97606
0
LINE
8
BLACK
6
CONTINUOUS
10
6.17551
20
-8.022
11
6.18119
21
-8.03573
0
LINE
8
BLACK
6
CONTINUOUS
10
6.18119
20
-8.03573
11
6.18945
21
-8.04808
0
LINE
8
BLACK
6
CONTINUOUS
10
6.18945
20
-8.04808
11
6.19995
21
-8.05858
0
LINE
8
BLACK
6
CONTINUOUS
10
6.19995
20
-8.05858
11
6.21231
21
-8.06684
0
LINE
8
BLACK
6
CONTINUOUS
10
6.21231
20
-8.06684
11
6.22603
21
-8.07252
0
LINE
8
BLACK
6
CONTINUOUS
10
6.22603
20
-8.07252
11
6.2406
21
-8.07542
0
LINE
8
BLACK
6
CONTINUOUS
10
6.2406
20
-8.07542
11
6.25546
21
-8.07542
0
LINE
8
BLACK
6
CONTINUOUS
10
6.25546
20
-8.07542
11
6.27003
21
-8.07252
0
LINE
8
BLACK
6
CONTINUOUS
10
6.27003
20
-8.07252
11
6.28376
21
-8.06684
0
LINE
8
BLACK
6
CONTINUOUS
10
6.28376
20
-8.06684
11
6.29611
21
-8.05858
0
LINE
8
BLACK
6
CONTINUOUS
10
6.29611
20
-8.05858
11
6.30662
21
-8.04808
0
LINE
8
BLACK
6
CONTINUOUS
10
6.30662
20
-8.04808
11
6.31487
21
-8.03573
0
LINE
8
BLACK
6
CONTINUOUS
10
6.31487
20
-8.03573
11
6.32056
21
-8.022
0
LINE
8
BLACK
6
CONTINUOUS
10
6.32056
20
-8.022
11
6.32345
21
-8.00743
0
LINE
8
BLACK
6
CONTINUOUS
10
6.32345
20
-8.00743
11
6.32345
21
-7.99257
0
LINE
8
BLACK
6
CONTINUOUS
10
6.32345
20
-7.99257
11
6.32056
21
-7.978
0
LINE
8
BLACK
6
CONTINUOUS
10
6.32056
20
-7.978
11
6.31487
21
-7.96427
0
LINE
8
BLACK
6
CONTINUOUS
10
6.31487
20
-7.96427
11
6.30662
21
-7.95192
0
LINE
8
BLACK
6
CONTINUOUS
10
6.30662
20
-7.95192
11
6.29611
21
-7.94142
0
LINE
8
BLACK
6
CONTINUOUS
10
6.29611
20
-7.94142
11
6.28376
21
-7.93316
0
LINE
8
BLACK
6
CONTINUOUS
10
6.28376
20
-7.93316
11
6.27003
21
-7.92748
0
LINE
8
BLACK
6
CONTINUOUS
10
6.27003
20
-7.92748
11
6.25546
21
-7.92458
0
LINE
8
BLACK
6
CONTINUOUS
10
6.25546
20
-7.92458
11
6.2406
21
-7.92458
0
LINE
8
BLACK
6
CONTINUOUS
10
6.2406
20
-7.92458
11
6.22603
21
-7.92748
0
LINE
8
BLACK
6
CONTINUOUS
10
6.22603
20
-7.92748
11
6.21231
21
-7.93316
0
LINE
8
BLACK
6
CONTINUOUS
10
6.21231
20
-7.93316
11
6.19995
21
-7.94142
0
LINE
8
BLACK
6
CONTINUOUS
10
6.19995
20
-7.94142
11
6.18945
21
-7.95192
0
LINE
8
BLACK
6
CONTINUOUS
10
6.18945
20
-7.95192
11
6.18119
21
-7.96427
0
LINE
8
BLACK
6
CONTINUOUS
10
6.18119
20
-7.96427
11
6.17551
21
-7.978
0
LINE
8
BLACK
6
CONTINUOUS
10
6.17551
20
-7.978
11
6.17261
21
-7.99257
0
LINE
8
BLACK
6
CONTINUOUS
10
6.17261
20
-7.99257
11
6.17261
21
-8.00743
0
LINE
8
BLACK
6
CONTINUOUS
10
6.17261
20
-8.00743
11
6.17551
21
-8.022
0
LINE
8
BLACK
6
CONTINUOUS
10
20.6711
20
-7.97606
11
20.6773
21
-7.96112
0
LINE
8
BLACK
6
CONTINUOUS
10
20.6773
20
-7.96112
11
20.6862
21
-7.94768
0
LINE
8
BLACK
6
CONTINUOUS
10
20.6862
20
-7.94768
11
20.6977
21
-7.93624
0
LINE
8
BLACK
6
CONTINUOUS
10
20.6977
20
-7.93624
11
20.7111
21
-7.92726
0
LINE
8
BLACK
6
CONTINUOUS
10
20.7111
20
-7.92726
11
20.7261
21
-7.92107
0
LINE
8
BLACK
6
CONTINUOUS
10
20.7261
20
-7.92107
11
20.7419
21
-7.91792
0
LINE
8
BLACK
6
CONTINUOUS
10
20.7419
20
-7.91792
11
20.7581
21
-7.91792
0
LINE
8
BLACK
6
CONTINUOUS
10
20.7581
20
-7.91792
11
20.7739
21
-7.92107
0
LINE
8
BLACK
6
CONTINUOUS
10
20.7739
20
-7.92107
11
20.7889
21
-7.92726
0
LINE
8
BLACK
6
CONTINUOUS
10
20.7889
20
-7.92726
11
20.8023
21
-7.93624
0
LINE
8
BLACK
6
CONTINUOUS
10
20.8023
20
-7.93624
11
20.8138
21
-7.94768
0
LINE
8
BLACK
6
CONTINUOUS
10
20.8138
20
-7.94768
11
20.8227
21
-7.96112
0
LINE
8
BLACK
6
CONTINUOUS
10
20.8227
20
-7.96112
11
20.8289
21
-7.97606
0
LINE
8
BLACK
6
CONTINUOUS
10
20.8289
20
-7.97606
11
20.8321
21
-7.99192
0
LINE
8
BLACK
6
CONTINUOUS
10
20.8321
20
-7.99192
11
20.8321
21
-8.00808
0
LINE
8
BLACK
6
CONTINUOUS
10
20.8321
20
-8.00808
11
20.8289
21
-8.02394
0
LINE
8
BLACK
6
CONTINUOUS
10
20.8289
20
-8.02394
11
20.8227
21
-8.03888
0
LINE
8
BLACK
6
CONTINUOUS
10
20.8227
20
-8.03888
11
20.8138
21
-8.05232
0
LINE
8
BLACK
6
CONTINUOUS
10
20.8138
20
-8.05232
11
20.8023
21
-8.06376
0
LINE
8
BLACK
6
CONTINUOUS
10
20.8023
20
-8.06376
11
20.7889
21
-8.07274
0
LINE
8
BLACK
6
CONTINUOUS
10
20.7889
20
-8.07274
11
20.7739
21
-8.07893
0
LINE
8
BLACK
6
CONTINUOUS
10
20.7739
20
-8.07893
11
20.7581
21
-8.08208
0
LINE
8
BLACK
6
CONTINUOUS
10
20.7581
20
-8.08208
11
20.7419
21
-8.08208
0
LINE
8
BLACK
6
CONTINUOUS
10
20.7419
20
-8.08208
11
20.7261
21
-8.07893
0
LINE
8
BLACK
6
CONTINUOUS
10
20.7261
20
-8.07893
11
20.7111
21
-8.07274
0
LINE
8
BLACK
6
CONTINUOUS
10
20.7111
20
-8.07274
11
20.6977
21
-8.06376
0
LINE
8
BLACK
6
CONTINUOUS
10
20.6977
20
-8.06376
11
20.6862
21
-8.05232
0
LINE
8
BLACK
6
CONTINUOUS
10
20.6862
20
-8.05232
11
20.6773
21
-8.03888
0
LINE
8
BLACK
6
CONTINUOUS
10
20.6773
20
-8.03888
11
20.6711
21
-8.02394
0
LINE
8
BLACK
6
CONTINUOUS
10
20.6711
20
-8.02394
11
20.6679
21
-8.00808
0
LINE
8
BLACK
6
CONTINUOUS
10
20.6679
20
-8.00808
11
20.6679
21
-7.99192
0
LINE
8
BLACK
6
CONTINUOUS
10
20.6679
20
-7.99192
11
20.6711
21
-7.97606
0
LINE
8
BLACK
6
CONTINUOUS
10
20.6775
20
-8.022
11
20.6832
21
-8.03573
0
LINE
8
BLACK
6
CONTINUOUS
10
20.6832
20
-8.03573
11
20.6914
21
-8.04808
0
LINE
8
BLACK
6
CONTINUOUS
10
20.6914
20
-8.04808
11
20.7019
21
-8.05858
0
LINE
8
BLACK
6
CONTINUOUS
10
20.7019
20
-8.05858
11
20.7143
21
-8.06684
0
LINE
8
BLACK
6
CONTINUOUS
10
20.7143
20
-8.06684
11
20.728
21
-8.07252
0
LINE
8
BLACK
6
CONTINUOUS
10
20.728
20
-8.07252
11
20.7426
21
-8.07542
0
LINE
8
BLACK
6
CONTINUOUS
10
20.7426
20
-8.07542
11
20.7574
21
-8.07542
0
LINE
8
BLACK
6
CONTINUOUS
10
20.7574
20
-8.07542
11
20.772
21
-8.07252
0
LINE
8
BLACK
6
CONTINUOUS
10
20.772
20
-8.07252
11
20.7857
21
-8.06684
0
LINE
8
BLACK
6
CONTINUOUS
10
20.7857
20
-8.06684
11
20.7981
21
-8.05858
0
LINE
8
BLACK
6
CONTINUOUS
10
20.7981
20
-8.05858
11
20.8086
21
-8.04808
0
LINE
8
BLACK
6
CONTINUOUS
10
20.8086
20
-8.04808
11
20.8168
21
-8.03573
0
LINE
8
BLACK
6
CONTINUOUS
10
20.8168
20
-8.03573
11
20.8225
21
-8.022
0
LINE
8
BLACK
6
CONTINUOUS
10
20.8225
20
-8.022
11
20.8254
21
-8.00743
0
LINE
8
BLACK
6
CONTINUOUS
10
20.8254
20
-8.00743
11
20.8254
21
-7.99257
0
LINE
8
BLACK
6
CONTINUOUS
10
20.8254
20
-7.99257
11
20.8225
21
-7.978
0
LINE
8
BLACK
6
CONTINUOUS
10
20.8225
20
-7.978
11
20.8168
21
-7.96427
0
LINE
8
BLACK
6
CONTINUOUS
10
20.8168
20
-7.96427
11
20.8086
21
-7.95192
0
LINE
8
BLACK
6
CONTINUOUS
10
20.8086
20
-7.95192
11
20.7981
21
-7.94142
0
LINE
8
BLACK
6
CONTINUOUS
10
20.7981
20
-7.94142
11
20.7857
21
-7.93316
0
LINE
8
BLACK
6
CONTINUOUS
10
20.7857
20
-7.93316
11
20.772
21
-7.92748
0
LINE
8
BLACK
6
CONTINUOUS
10
20.772
20
-7.92748
11
20.7574
21
-7.92458
0
LINE
8
BLACK
6
CONTINUOUS
10
20.7574
20
-7.92458
11
20.7426
21
-7.92458
0
LINE
8
BLACK
6
CONTINUOUS
10
20.7426
20
-7.92458
11
20.728
21
-7.92748
0
LINE
8
BLACK
6
CONTINUOUS
10
20.728
20
-7.92748
11
20.7143
21
-7.93316
0
LINE
8
BLACK
6
CONTINUOUS
10
20.7143
20
-7.93316
11
20.7019
21
-7.94142
0
LINE
8
BLACK
6
CONTINUOUS
10
20.7019
20
-7.94142
11
20.6914
21
-7.95192
0
LINE
8
BLACK
6
CONTINUOUS
10
20.6914
20
-7.95192
11
20.6832
21
-7.96427
0
LINE
8
BLACK
6
CONTINUOUS
10
20.6832
20
-7.96427
11
20.6775
21
-7.978
0
LINE
8
BLACK
6
CONTINUOUS
10
20.6775
20
-7.978
11
20.6746
21
-7.99257
0
LINE
8
BLACK
6
CONTINUOUS
10
20.6746
20
-7.99257
11
20.6746
21
-8.00743
0
LINE
8
BLACK
6
CONTINUOUS
10
20.6746
20
-8.00743
11
20.6775
21
-8.022
0
LINE
8
BLACK
6
CONTINUOUS
10
1.17107
20
-7.917
11
1.17726
21
-7.90206
0
LINE
8
BLACK
6
CONTINUOUS
10
1.17726
20
-7.90206
11
1.18624
21
-7.88862
0
LINE
8
BLACK
6
CONTINUOUS
10
1.18624
20
-7.88862
11
1.19768
21
-7.87719
0
LINE
8
BLACK
6
CONTINUOUS
10
1.19768
20
-7.87719
11
1.21112
21
-7.8682
0
LINE
8
BLACK
6
CONTINUOUS
10
1.21112
20
-7.8682
11
1.22606
21
-7.86202
0
LINE
8
BLACK
6
CONTINUOUS
10
1.22606
20
-7.86202
11
1.24192
21
-7.85886
0
LINE
8
BLACK
6
CONTINUOUS
10
1.24192
20
-7.85886
11
1.25808
21
-7.85886
0
LINE
8
BLACK
6
CONTINUOUS
10
1.25808
20
-7.85886
11
1.27394
21
-7.86202
0
LINE
8
BLACK
6
CONTINUOUS
10
1.27394
20
-7.86202
11
1.28888
21
-7.8682
0
LINE
8
BLACK
6
CONTINUOUS
10
1.28888
20
-7.8682
11
1.30232
21
-7.87719
0
LINE
8
BLACK
6
CONTINUOUS
10
1.30232
20
-7.87719
11
1.31376
21
-7.88862
0
LINE
8
BLACK
6
CONTINUOUS
10
1.31376
20
-7.88862
11
1.32274
21
-7.90206
0
LINE
8
BLACK
6
CONTINUOUS
10
1.32274
20
-7.90206
11
1.32893
21
-7.917
0
LINE
8
BLACK
6
CONTINUOUS
10
1.32893
20
-7.917
11
1.33208
21
-7.93286
0
LINE
8
BLACK
6
CONTINUOUS
10
1.33208
20
-7.93286
11
1.33208
21
-7.94903
0
LINE
8
BLACK
6
CONTINUOUS
10
1.33208
20
-7.94903
11
1.32893
21
-7.96489
0
LINE
8
BLACK
6
CONTINUOUS
10
1.32893
20
-7.96489
11
1.32274
21
-7.97983
0
LINE
8
BLACK
6
CONTINUOUS
10
1.32274
20
-7.97983
11
1.31376
21
-7.99327
0
LINE
8
BLACK
6
CONTINUOUS
10
1.31376
20
-7.99327
11
1.30232
21
-8.0047
0
LINE
8
BLACK
6
CONTINUOUS
10
1.30232
20
-8.0047
11
1.28888
21
-8.01369
0
LINE
8
BLACK
6
CONTINUOUS
10
1.28888
20
-8.01369
11
1.27394
21
-8.01987
0
LINE
8
BLACK
6
CONTINUOUS
10
1.27394
20
-8.01987
11
1.25808
21
-8.02303
0
LINE
8
BLACK
6
CONTINUOUS
10
1.25808
20
-8.02303
11
1.24192
21
-8.02303
0
LINE
8
BLACK
6
CONTINUOUS
10
1.24192
20
-8.02303
11
1.22606
21
-8.01987
0
LINE
8
BLACK
6
CONTINUOUS
10
1.22606
20
-8.01987
11
1.21112
21
-8.01369
0
LINE
8
BLACK
6
CONTINUOUS
10
1.21112
20
-8.01369
11
1.19768
21
-8.0047
0
LINE
8
BLACK
6
CONTINUOUS
10
1.19768
20
-8.0047
11
1.18624
21
-7.99327
0
LINE
8
BLACK
6
CONTINUOUS
10
1.18624
20
-7.99327
11
1.17726
21
-7.97983
0
LINE
8
BLACK
6
CONTINUOUS
10
1.17726
20
-7.97983
11
1.17107
21
-7.96489
0
LINE
8
BLACK
6
CONTINUOUS
10
1.17107
20
-7.96489
11
1.16792
21
-7.94903
0
LINE
8
BLACK
6
CONTINUOUS
10
1.16792
20
-7.94903
11
1.16792
21
-7.93286
0
LINE
8
BLACK
6
CONTINUOUS
10
1.16792
20
-7.93286
11
1.17107
21
-7.917
0
LINE
8
BLACK
6
CONTINUOUS
10
1.17748
20
-7.96294
11
1.18316
21
-7.97667
0
LINE
8
BLACK
6
CONTINUOUS
10
1.18316
20
-7.97667
11
1.19142
21
-7.98902
0
LINE
8
BLACK
6
CONTINUOUS
10
1.19142
20
-7.98902
11
1.20192
21
-7.99953
0
LINE
8
BLACK
6
CONTINUOUS
10
1.20192
20
-7.99953
11
1.21427
21
-8.00778
0
LINE
8
BLACK
6
CONTINUOUS
10
1.21427
20
-8.00778
11
1.228
21
-8.01347
0
LINE
8
BLACK
6
CONTINUOUS
10
1.228
20
-8.01347
11
1.24257
21
-8.01637
0
LINE
8
BLACK
6
CONTINUOUS
10
1.24257
20
-8.01637
11
1.25743
21
-8.01637
0
LINE
8
BLACK
6
CONTINUOUS
10
1.25743
20
-8.01637
11
1.272
21
-8.01347
0
LINE
8
BLACK
6
CONTINUOUS
10
1.272
20
-8.01347
11
1.28573
21
-8.00778
0
LINE
8
BLACK
6
CONTINUOUS
10
1.28573
20
-8.00778
11
1.29808
21
-7.99953
0
LINE
8
BLACK
6
CONTINUOUS
10
1.29808
20
-7.99953
11
1.30858
21
-7.98902
0
LINE
8
BLACK
6
CONTINUOUS
10
1.30858
20
-7.98902
11
1.31684
21
-7.97667
0
LINE
8
BLACK
6
CONTINUOUS
10
1.31684
20
-7.97667
11
1.32252
21
-7.96294
0
LINE
8
BLACK
6
CONTINUOUS
10
1.32252
20
-7.96294
11
1.32542
21
-7.94837
0
LINE
8
BLACK
6
CONTINUOUS
10
1.32542
20
-7.94837
11
1.32542
21
-7.93352
0
LINE
8
BLACK
6
CONTINUOUS
10
1.32542
20
-7.93352
11
1.32252
21
-7.91894
0
LINE
8
BLACK
6
CONTINUOUS
10
1.32252
20
-7.91894
11
1.31684
21
-7.90522
0
LINE
8
BLACK
6
CONTINUOUS
10
1.31684
20
-7.90522
11
1.30858
21
-7.89287
0
LINE
8
BLACK
6
CONTINUOUS
10
1.30858
20
-7.89287
11
1.29808
21
-7.88236
0
LINE
8
BLACK
6
CONTINUOUS
10
1.29808
20
-7.88236
11
1.28573
21
-7.87411
0
LINE
8
BLACK
6
CONTINUOUS
10
1.28573
20
-7.87411
11
1.272
21
-7.86842
0
LINE
8
BLACK
6
CONTINUOUS
10
1.272
20
-7.86842
11
1.25743
21
-7.86552
0
LINE
8
BLACK
6
CONTINUOUS
10
1.25743
20
-7.86552
11
1.24257
21
-7.86552
0
LINE
8
BLACK
6
CONTINUOUS
10
1.24257
20
-7.86552
11
1.228
21
-7.86842
0
LINE
8
BLACK
6
CONTINUOUS
10
1.228
20
-7.86842
11
1.21427
21
-7.87411
0
LINE
8
BLACK
6
CONTINUOUS
10
1.21427
20
-7.87411
11
1.20192
21
-7.88236
0
LINE
8
BLACK
6
CONTINUOUS
10
1.20192
20
-7.88236
11
1.19142
21
-7.89287
0
LINE
8
BLACK
6
CONTINUOUS
10
1.19142
20
-7.89287
11
1.18316
21
-7.90522
0
LINE
8
BLACK
6
CONTINUOUS
10
1.18316
20
-7.90522
11
1.17748
21
-7.91894
0
LINE
8
BLACK
6
CONTINUOUS
10
1.17748
20
-7.91894
11
1.17458
21
-7.93352
0
LINE
8
BLACK
6
CONTINUOUS
10
1.17458
20
-7.93352
11
1.17458
21
-7.94837
0
LINE
8
BLACK
6
CONTINUOUS
10
1.17458
20
-7.94837
11
1.17748
21
-7.96294
0
LINE
8
BLACK
6
CONTINUOUS
10
7.46366
20
-7.01385
11
7.47926
21
-6.97308
0
LINE
8
BLACK
6
CONTINUOUS
10
7.47926
20
-6.97308
11
7.50062
21
-6.93501
0
LINE
8
BLACK
6
CONTINUOUS
10
7.50062
20
-6.93501
11
7.5273
21
-6.90046
0
LINE
8
BLACK
6
CONTINUOUS
10
7.5273
20
-6.90046
11
7.55873
21
-6.87016
0
LINE
8
BLACK
6
CONTINUOUS
10
7.55873
20
-6.87016
11
7.59423
21
-6.84476
0
LINE
8
BLACK
6
CONTINUOUS
10
7.59423
20
-6.84476
11
7.63305
21
-6.8248
0
LINE
8
BLACK
6
CONTINUOUS
10
7.63305
20
-6.8248
11
7.67437
21
-6.81071
0
LINE
8
BLACK
6
CONTINUOUS
10
7.67437
20
-6.81071
11
7.7173
21
-6.80278
0
LINE
8
BLACK
6
CONTINUOUS
10
7.7173
20
-6.80278
11
7.76092
21
-6.80118
0
LINE
8
BLACK
6
CONTINUOUS
10
7.76092
20
-6.80118
11
7.80431
21
-6.80596
0
LINE
8
BLACK
6
CONTINUOUS
10
7.80431
20
-6.80596
11
7.84655
21
-6.817
0
LINE
8
BLACK
6
CONTINUOUS
10
7.84655
20
-6.817
11
7.88672
21
-6.83407
0
LINE
8
BLACK
6
CONTINUOUS
10
7.88672
20
-6.83407
11
7.92398
21
-6.85681
0
LINE
8
BLACK
6
CONTINUOUS
10
7.92398
20
-6.85681
11
7.95754
21
-6.88474
0
LINE
8
BLACK
6
CONTINUOUS
10
7.95754
20
-6.88474
11
7.98667
21
-6.91725
0
LINE
8
BLACK
6
CONTINUOUS
10
7.98667
20
-6.91725
11
8.01076
21
-6.95366
0
LINE
8
BLACK
6
CONTINUOUS
10
8.01076
20
-6.95366
11
8.02929
21
-6.99318
0
LINE
8
BLACK
6
CONTINUOUS
10
8.02929
20
-6.99318
11
8.04186
21
-7.03498
0
LINE
8
BLACK
6
CONTINUOUS
10
8.04186
20
-7.03498
11
8.04822
21
-7.07817
0
LINE
8
BLACK
6
CONTINUOUS
10
8.04822
20
-7.07817
11
8.04822
21
-7.12183
0
LINE
8
BLACK
6
CONTINUOUS
10
8.04822
20
-7.12183
11
8.04186
21
-7.16502
0
LINE
8
BLACK
6
CONTINUOUS
10
8.04186
20
-7.16502
11
8.02929
21
-7.20682
0
LINE
8
BLACK
6
CONTINUOUS
10
8.02929
20
-7.20682
11
8.01076
21
-7.24634
0
LINE
8
BLACK
6
CONTINUOUS
10
8.01076
20
-7.24634
11
7.98667
21
-7.28275
0
LINE
8
BLACK
6
CONTINUOUS
10
7.98667
20
-7.28275
11
7.95754
21
-7.31526
0
LINE
8
BLACK
6
CONTINUOUS
10
7.95754
20
-7.31526
11
7.92398
21
-7.34319
0
LINE
8
BLACK
6
CONTINUOUS
10
7.92398
20
-7.34319
11
7.88672
21
-7.36593
0
LINE
8
BLACK
6
CONTINUOUS
10
7.88672
20
-7.36593
11
7.84655
21
-7.383
0
LINE
8
BLACK
6
CONTINUOUS
10
7.84655
20
-7.383
11
7.80431
21
-7.39404
0
LINE
8
BLACK
6
CONTINUOUS
10
7.80431
20
-7.39404
11
7.76092
21
-7.39882
0
LINE
8
BLACK
6
CONTINUOUS
10
7.76092
20
-7.39882
11
7.7173
21
-7.39722
0
LINE
8
BLACK
6
CONTINUOUS
10
7.7173
20
-7.39722
11
7.67437
21
-7.38929
0
LINE
8
BLACK
6
CONTINUOUS
10
7.67437
20
-7.38929
11
7.63305
21
-7.3752
0
LINE
8
BLACK
6
CONTINUOUS
10
7.63305
20
-7.3752
11
7.59423
21
-7.35524
0
LINE
8
BLACK
6
CONTINUOUS
10
7.59423
20
-7.35524
11
7.55873
21
-7.32984
0
LINE
8
BLACK
6
CONTINUOUS
10
7.55873
20
-7.32984
11
7.5273
21
-7.29954
0
LINE
8
BLACK
6
CONTINUOUS
10
7.5273
20
-7.29954
11
7.50062
21
-7.26499
0
LINE
8
BLACK
6
CONTINUOUS
10
7.50062
20
-7.26499
11
7.47926
21
-7.22692
0
LINE
8
BLACK
6
CONTINUOUS
10
7.47926
20
-7.22692
11
7.46366
21
-7.18615
0
LINE
8
BLACK
6
CONTINUOUS
10
7.46366
20
-7.18615
11
7.45417
21
-7.14354
0
LINE
8
BLACK
6
CONTINUOUS
10
7.45417
20
-7.14354
11
7.45098
21
-7.1
0
LINE
8
BLACK
6
CONTINUOUS
10
7.45098
20
-7.1
11
7.45417
21
-7.05646
0
LINE
8
BLACK
6
CONTINUOUS
10
7.45417
20
-7.05646
11
7.46366
21
-7.01385
0
LINE
8
BLACK
6
CONTINUOUS
10
7.47007
20
-7.18422
11
7.48532
21
-7.22408
0
LINE
8
BLACK
6
CONTINUOUS
10
7.48532
20
-7.22408
11
7.5062
21
-7.26129
0
LINE
8
BLACK
6
CONTINUOUS
10
7.5062
20
-7.26129
11
7.53229
21
-7.29507
0
LINE
8
BLACK
6
CONTINUOUS
10
7.53229
20
-7.29507
11
7.56301
21
-7.32469
0
LINE
8
BLACK
6
CONTINUOUS
10
7.56301
20
-7.32469
11
7.59772
21
-7.34952
0
LINE
8
BLACK
6
CONTINUOUS
10
7.59772
20
-7.34952
11
7.63567
21
-7.36904
0
LINE
8
BLACK
6
CONTINUOUS
10
7.63567
20
-7.36904
11
7.67606
21
-7.38282
0
LINE
8
BLACK
6
CONTINUOUS
10
7.67606
20
-7.38282
11
7.71803
21
-7.39057
0
LINE
8
BLACK
6
CONTINUOUS
10
7.71803
20
-7.39057
11
7.76068
21
-7.39213
0
LINE
8
BLACK
6
CONTINUOUS
10
7.76068
20
-7.39213
11
7.8031
21
-7.38746
0
LINE
8
BLACK
6
CONTINUOUS
10
7.8031
20
-7.38746
11
7.84439
21
-7.37667
0
LINE
8
BLACK
6
CONTINUOUS
10
7.84439
20
-7.37667
11
7.88366
21
-7.35997
0
LINE
8
BLACK
6
CONTINUOUS
10
7.88366
20
-7.35997
11
7.92009
21
-7.33774
0
LINE
8
BLACK
6
CONTINUOUS
10
7.92009
20
-7.33774
11
7.95289
21
-7.31044
0
LINE
8
BLACK
6
CONTINUOUS
10
7.95289
20
-7.31044
11
7.98137
21
-7.27866
0
LINE
8
BLACK
6
CONTINUOUS
10
7.98137
20
-7.27866
11
8.00492
21
-7.24307
0
LINE
8
BLACK
6
CONTINUOUS
10
8.00492
20
-7.24307
11
8.02303
21
-7.20443
0
LINE
8
BLACK
6
CONTINUOUS
10
8.02303
20
-7.20443
11
8.03533
21
-7.16356
0
LINE
8
BLACK
6
CONTINUOUS
10
8.03533
20
-7.16356
11
8.04154
21
-7.12134
0
LINE
8
BLACK
6
CONTINUOUS
10
8.04154
20
-7.12134
11
8.04154
21
-7.07866
0
LINE
8
BLACK
6
CONTINUOUS
10
8.04154
20
-7.07866
11
8.03533
21
-7.03644
0
LINE
8
BLACK
6
CONTINUOUS
10
8.03533
20
-7.03644
11
8.02303
21
-6.99557
0
LINE
8
BLACK
6
CONTINUOUS
10
8.02303
20
-6.99557
11
8.00492
21
-6.95693
0
LINE
8
BLACK
6
CONTINUOUS
10
8.00492
20
-6.95693
11
7.98137
21
-6.92134
0
LINE
8
BLACK
6
CONTINUOUS
10
7.98137
20
-6.92134
11
7.95289
21
-6.88956
0
LINE
8
BLACK
6
CONTINUOUS
10
7.95289
20
-6.88956
11
7.92009
21
-6.86226
0
LINE
8
BLACK
6
CONTINUOUS
10
7.92009
20
-6.86226
11
7.88366
21
-6.84002
0
LINE
8
BLACK
6
CONTINUOUS
10
7.88366
20
-6.84002
11
7.84439
21
-6.82333
0
LINE
8
BLACK
6
CONTINUOUS
10
7.84439
20
-6.82333
11
7.8031
21
-6.81254
0
LINE
8
BLACK
6
CONTINUOUS
10
7.8031
20
-6.81254
11
7.76068
21
-6.80787
0
LINE
8
BLACK
6
CONTINUOUS
10
7.76068
20
-6.80787
11
7.71803
21
-6.80943
0
LINE
8
BLACK
6
CONTINUOUS
10
7.71803
20
-6.80943
11
7.67606
21
-6.81718
0
LINE
8
BLACK
6
CONTINUOUS
10
7.67606
20
-6.81718
11
7.63567
21
-6.83096
0
LINE
8
BLACK
6
CONTINUOUS
10
7.63567
20
-6.83096
11
7.59772
21
-6.85048
0
LINE
8
BLACK
6
CONTINUOUS
10
7.59772
20
-6.85048
11
7.56301
21
-6.87531
0
LINE
8
BLACK
6
CONTINUOUS
10
7.56301
20
-6.87531
11
7.53229
21
-6.90493
0
LINE
8
BLACK
6
CONTINUOUS
10
7.53229
20
-6.90493
11
7.5062
21
-6.93871
0
LINE
8
BLACK
6
CONTINUOUS
10
7.5062
20
-6.93871
11
7.48532
21
-6.97592
0
LINE
8
BLACK
6
CONTINUOUS
10
7.48532
20
-6.97592
11
7.47007
21
-7.01578
0
LINE
8
BLACK
6
CONTINUOUS
10
7.47007
20
-7.01578
11
7.46079
21
-7.05744
0
LINE
8
BLACK
6
CONTINUOUS
10
7.46079
20
-7.05744
11
7.45768
21
-7.1
0
LINE
8
BLACK
6
CONTINUOUS
10
7.45768
20
-7.1
11
7.46079
21
-7.14256
0
LINE
8
BLACK
6
CONTINUOUS
10
7.46079
20
-7.14256
11
7.47007
21
-7.18422
0
LINE
8
BLACK
6
CONTINUOUS
10
9.26366
20
-7.01385
11
9.27926
21
-6.97308
0
LINE
8
BLACK
6
CONTINUOUS
10
9.27926
20
-6.97308
11
9.30062
21
-6.93501
0
LINE
8
BLACK
6
CONTINUOUS
10
9.30062
20
-6.93501
11
9.3273
21
-6.90046
0
LINE
8
BLACK
6
CONTINUOUS
10
9.3273
20
-6.90046
11
9.35873
21
-6.87016
0
LINE
8
BLACK
6
CONTINUOUS
10
9.35873
20
-6.87016
11
9.39423
21
-6.84476
0
LINE
8
BLACK
6
CONTINUOUS
10
9.39423
20
-6.84476
11
9.43305
21
-6.8248
0
LINE
8
BLACK
6
CONTINUOUS
10
9.43305
20
-6.8248
11
9.47437
21
-6.81071
0
LINE
8
BLACK
6
CONTINUOUS
10
9.47437
20
-6.81071
11
9.5173
21
-6.80278
0
LINE
8
BLACK
6
CONTINUOUS
10
9.5173
20
-6.80278
11
9.56092
21
-6.80118
0
LINE
8
BLACK
6
CONTINUOUS
10
9.56092
20
-6.80118
11
9.60431
21
-6.80596
0
LINE
8
BLACK
6
CONTINUOUS
10
9.60431
20
-6.80596
11
9.64655
21
-6.817
0
LINE
8
BLACK
6
CONTINUOUS
10
9.64655
20
-6.817
11
9.68672
21
-6.83407
0
LINE
8
BLACK
6
CONTINUOUS
10
9.68672
20
-6.83407
11
9.72398
21
-6.85681
0
LINE
8
BLACK
6
CONTINUOUS
10
9.72398
20
-6.85681
11
9.75754
21
-6.88474
0
LINE
8
BLACK
6
CONTINUOUS
10
9.75754
20
-6.88474
11
9.78667
21
-6.91725
0
LINE
8
BLACK
6
CONTINUOUS
10
9.78667
20
-6.91725
11
9.81076
21
-6.95366
0
LINE
8
BLACK
6
CONTINUOUS
10
9.81076
20
-6.95366
11
9.82929
21
-6.99318
0
LINE
8
BLACK
6
CONTINUOUS
10
9.82929
20
-6.99318
11
9.84186
21
-7.03498
0
LINE
8
BLACK
6
CONTINUOUS
10
9.84186
20
-7.03498
11
9.84822
21
-7.07817
0
LINE
8
BLACK
6
CONTINUOUS
10
9.84822
20
-7.07817
11
9.84822
21
-7.12183
0
LINE
8
BLACK
6
CONTINUOUS
10
9.84822
20
-7.12183
11
9.84186
21
-7.16502
0
LINE
8
BLACK
6
CONTINUOUS
10
9.84186
20
-7.16502
11
9.82929
21
-7.20682
0
LINE
8
BLACK
6
CONTINUOUS
10
9.82929
20
-7.20682
11
9.81076
21
-7.24634
0
LINE
8
BLACK
6
CONTINUOUS
10
9.81076
20
-7.24634
11
9.78667
21
-7.28275
0
LINE
8
BLACK
6
CONTINUOUS
10
9.78667
20
-7.28275
11
9.75754
21
-7.31526
0
LINE
8
BLACK
6
CONTINUOUS
10
9.75754
20
-7.31526
11
9.72398
21
-7.34319
0
LINE
8
BLACK
6
CONTINUOUS
10
9.72398
20
-7.34319
11
9.68672
21
-7.36593
0
LINE
8
BLACK
6
CONTINUOUS
10
9.68672
20
-7.36593
11
9.64655
21
-7.383
0
LINE
8
BLACK
6
CONTINUOUS
10
9.64655
20
-7.383
11
9.60431
21
-7.39404
0
LINE
8
BLACK
6
CONTINUOUS
10
9.60431
20
-7.39404
11
9.56092
21
-7.39882
0
LINE
8
BLACK
6
CONTINUOUS
10
9.56092
20
-7.39882
11
9.5173
21
-7.39722
0
LINE
8
BLACK
6
CONTINUOUS
10
9.5173
20
-7.39722
11
9.47437
21
-7.38929
0
LINE
8
BLACK
6
CONTINUOUS
10
9.47437
20
-7.38929
11
9.43305
21
-7.3752
0
LINE
8
BLACK
6
CONTINUOUS
10
9.43305
20
-7.3752
11
9.39423
21
-7.35524
0
LINE
8
BLACK
6
CONTINUOUS
10
9.39423
20
-7.35524
11
9.35873
21
-7.32984
0
LINE
8
BLACK
6
CONTINUOUS
10
9.35873
20
-7.32984
11
9.3273
21
-7.29954
0
LINE
8
BLACK
6
CONTINUOUS
10
9.3273
20
-7.29954
11
9.30062
21
-7.26499
0
LINE
8
BLACK
6
CONTINUOUS
10
9.30062
20
-7.26499
11
9.27926
21
-7.22692
0
LINE
8
BLACK
6
CONTINUOUS
10
9.27926
20
-7.22692
11
9.26366
21
-7.18615
0
LINE
8
BLACK
6
CONTINUOUS
10
9.26366
20
-7.18615
11
9.25417
21
-7.14354
0
LINE
8
BLACK
6
CONTINUOUS
10
9.25417
20
-7.14354
11
9.25098
21
-7.1
0
LINE
8
BLACK
6
CONTINUOUS
10
9.25098
20
-7.1
11
9.25417
21
-7.05646
0
LINE
8
BLACK
6
CONTINUOUS
10
9.25417
20
-7.05646
11
9.26366
21
-7.01385
0
LINE
8
BLACK
6
CONTINUOUS
10
9.27007
20
-7.18422
11
9.28532
21
-7.22408
0
LINE
8
BLACK
6
CONTINUOUS
10
9.28532
20
-7.22408
11
9.3062
21
-7.26129
0
LINE
8
BLACK
6
CONTINUOUS
10
9.3062
20
-7.26129
11
9.33229
21
-7.29507
0
LINE
8
BLACK
6
CONTINUOUS
10
9.33229
20
-7.29507
11
9.36301
21
-7.32469
0
LINE
8
BLACK
6
CONTINUOUS
10
9.36301
20
-7.32469
11
9.39772
21
-7.34952
0
LINE
8
BLACK
6
CONTINUOUS
10
9.39772
20
-7.34952
11
9.43567
21
-7.36904
0
LINE
8
BLACK
6
CONTINUOUS
10
9.43567
20
-7.36904
11
9.47606
21
-7.38282
0
LINE
8
BLACK
6
CONTINUOUS
10
9.47606
20
-7.38282
11
9.51803
21
-7.39057
0
LINE
8
BLACK
6
CONTINUOUS
10
9.51803
20
-7.39057
11
9.56068
21
-7.39213
0
LINE
8
BLACK
6
CONTINUOUS
10
9.56068
20
-7.39213
11
9.6031
21
-7.38746
0
LINE
8
BLACK
6
CONTINUOUS
10
9.6031
20
-7.38746
11
9.64439
21
-7.37667
0
LINE
8
BLACK
6
CONTINUOUS
10
9.64439
20
-7.37667
11
9.68366
21
-7.35997
0
LINE
8
BLACK
6
CONTINUOUS
10
9.68366
20
-7.35997
11
9.72009
21
-7.33774
0
LINE
8
BLACK
6
CONTINUOUS
10
9.72009
20
-7.33774
11
9.75289
21
-7.31044
0
LINE
8
BLACK
6
CONTINUOUS
10
9.75289
20
-7.31044
11
9.78137
21
-7.27866
0
LINE
8
BLACK
6
CONTINUOUS
10
9.78137
20
-7.27866
11
9.80492
21
-7.24307
0
LINE
8
BLACK
6
CONTINUOUS
10
9.80492
20
-7.24307
11
9.82303
21
-7.20443
0
LINE
8
BLACK
6
CONTINUOUS
10
9.82303
20
-7.20443
11
9.83533
21
-7.16356
0
LINE
8
BLACK
6
CONTINUOUS
10
9.83533
20
-7.16356
11
9.84154
21
-7.12134
0
LINE
8
BLACK
6
CONTINUOUS
10
9.84154
20
-7.12134
11
9.84154
21
-7.07866
0
LINE
8
BLACK
6
CONTINUOUS
10
9.84154
20
-7.07866
11
9.83533
21
-7.03644
0
LINE
8
BLACK
6
CONTINUOUS
10
9.83533
20
-7.03644
11
9.82303
21
-6.99557
0
LINE
8
BLACK
6
CONTINUOUS
10
9.82303
20
-6.99557
11
9.80492
21
-6.95693
0
LINE
8
BLACK
6
CONTINUOUS
10
9.80492
20
-6.95693
11
9.78137
21
-6.92134
0
LINE
8
BLACK
6
CONTINUOUS
10
9.78137
20
-6.92134
11
9.75289
21
-6.88956
0
LINE
8
BLACK
6
CONTINUOUS
10
9.75289
20
-6.88956
11
9.72009
21
-6.86226
0
LINE
8
BLACK
6
CONTINUOUS
10
9.72009
20
-6.86226
11
9.68366
21
-6.84002
0
LINE
8
BLACK
6
CONTINUOUS
10
9.68366
20
-6.84002
11
9.64439
21
-6.82333
0
LINE
8
BLACK
6
CONTINUOUS
10
9.64439
20
-6.82333
11
9.6031
21
-6.81254
0
LINE
8
BLACK
6
CONTINUOUS
10
9.6031
20
-6.81254
11
9.56068
21
-6.80787
0
LINE
8
BLACK
6
CONTINUOUS
10
9.56068
20
-6.80787
11
9.51803
21
-6.80943
0
LINE
8
BLACK
6
CONTINUOUS
10
9.51803
20
-6.80943
11
9.47606
21
-6.81718
0
LINE
8
BLACK
6
CONTINUOUS
10
9.47606
20
-6.81718
11
9.43567
21
-6.83096
0
LINE
8
BLACK
6
CONTINUOUS
10
9.43567
20
-6.83096
11
9.39772
21
-6.85048
0
LINE
8
BLACK
6
CONTINUOUS
10
9.39772
20
-6.85048
11
9.36301
21
-6.87531
0
LINE
8
BLACK
6
CONTINUOUS
10
9.36301
20
-6.87531
11
9.33229
21
-6.90493
0
LINE
8
BLACK
6
CONTINUOUS
10
9.33229
20
-6.90493
11
9.3062
21
-6.93871
0
LINE
8
BLACK
6
CONTINUOUS
10
9.3062
20
-6.93871
11
9.28532
21
-6.97592
0
LINE
8
BLACK
6
CONTINUOUS
10
9.28532
20
-6.97592
11
9.27007
21
-7.01578
0
LINE
8
BLACK
6
CONTINUOUS
10
9.27007
20
-7.01578
11
9.26079
21
-7.05744
0
LINE
8
BLACK
6
CONTINUOUS
10
9.26079
20
-7.05744
11
9.25768
21
-7.1
0
LINE
8
BLACK
6
CONTINUOUS
10
9.25768
20
-7.1
11
9.26079
21
-7.14256
0
LINE
8
BLACK
6
CONTINUOUS
10
9.26079
20
-7.14256
11
9.27007
21
-7.18422
0
LINE
8
BLACK
6
CONTINUOUS
10
7.24323
20
-7.08063
11
7.24823
21
-7.06854
0
LINE
8
BLACK
6
CONTINUOUS
10
7.24823
20
-7.06854
11
7.2555
21
-7.05767
0
LINE
8
BLACK
6
CONTINUOUS
10
7.2555
20
-7.05767
11
7.26475
21
-7.04842
0
LINE
8
BLACK
6
CONTINUOUS
10
7.26475
20
-7.04842
11
7.27563
21
-7.04115
0
LINE
8
BLACK
6
CONTINUOUS
10
7.27563
20
-7.04115
11
7.28772
21
-7.03614
0
LINE
8
BLACK
6
CONTINUOUS
10
7.28772
20
-7.03614
11
7.30055
21
-7.03359
0
LINE
8
BLACK
6
CONTINUOUS
10
7.30055
20
-7.03359
11
7.31363
21
-7.03359
0
LINE
8
BLACK
6
CONTINUOUS
10
7.31363
20
-7.03359
11
7.32646
21
-7.03614
0
LINE
8
BLACK
6
CONTINUOUS
10
7.32646
20
-7.03614
11
7.33854
21
-7.04115
0
LINE
8
BLACK
6
CONTINUOUS
10
7.33854
20
-7.04115
11
7.34942
21
-7.04842
0
LINE
8
BLACK
6
CONTINUOUS
10
7.34942
20
-7.04842
11
7.35867
21
-7.05767
0
LINE
8
BLACK
6
CONTINUOUS
10
7.35867
20
-7.05767
11
7.36594
21
-7.06854
0
LINE
8
BLACK
6
CONTINUOUS
10
7.36594
20
-7.06854
11
7.37095
21
-7.08063
0
LINE
8
BLACK
6
CONTINUOUS
10
7.37095
20
-7.08063
11
7.3735
21
-7.09346
0
LINE
8
BLACK
6
CONTINUOUS
10
7.3735
20
-7.09346
11
7.3735
21
-7.10654
0
LINE
8
BLACK
6
CONTINUOUS
10
7.3735
20
-7.10654
11
7.37095
21
-7.11937
0
LINE
8
BLACK
6
CONTINUOUS
10
7.37095
20
-7.11937
11
7.36594
21
-7.13146
0
LINE
8
BLACK
6
CONTINUOUS
10
7.36594
20
-7.13146
11
7.35867
21
-7.14233
0
LINE
8
BLACK
6
CONTINUOUS
10
7.35867
20
-7.14233
11
7.34942
21
-7.15158
0
LINE
8
BLACK
6
CONTINUOUS
10
7.34942
20
-7.15158
11
7.33854
21
-7.15885
0
LINE
8
BLACK
6
CONTINUOUS
10
7.33854
20
-7.15885
11
7.32646
21
-7.16386
0
LINE
8
BLACK
6
CONTINUOUS
10
7.32646
20
-7.16386
11
7.31363
21
-7.16641
0
LINE
8
BLACK
6
CONTINUOUS
10
7.31363
20
-7.16641
11
7.30055
21
-7.16641
0
LINE
8
BLACK
6
CONTINUOUS
10
7.30055
20
-7.16641
11
7.28772
21
-7.16386
0
LINE
8
BLACK
6
CONTINUOUS
10
7.28772
20
-7.16386
11
7.27563
21
-7.15885
0
LINE
8
BLACK
6
CONTINUOUS
10
7.27563
20
-7.15885
11
7.26475
21
-7.15158
0
LINE
8
BLACK
6
CONTINUOUS
10
7.26475
20
-7.15158
11
7.2555
21
-7.14233
0
LINE
8
BLACK
6
CONTINUOUS
10
7.2555
20
-7.14233
11
7.24823
21
-7.13146
0
LINE
8
BLACK
6
CONTINUOUS
10
7.24823
20
-7.13146
11
7.24323
21
-7.11937
0
LINE
8
BLACK
6
CONTINUOUS
10
7.24323
20
-7.11937
11
7.24068
21
-7.10654
0
LINE
8
BLACK
6
CONTINUOUS
10
7.24068
20
-7.10654
11
7.24068
21
-7.09346
0
LINE
8
BLACK
6
CONTINUOUS
10
7.24068
20
-7.09346
11
7.24323
21
-7.08063
0
LINE
8
BLACK
6
CONTINUOUS
10
7.24963
20
-7.11743
11
7.25414
21
-7.1283
0
LINE
8
BLACK
6
CONTINUOUS
10
7.25414
20
-7.1283
11
7.26068
21
-7.13809
0
LINE
8
BLACK
6
CONTINUOUS
10
7.26068
20
-7.13809
11
7.269
21
-7.14641
0
LINE
8
BLACK
6
CONTINUOUS
10
7.269
20
-7.14641
11
7.27878
21
-7.15295
0
LINE
8
BLACK
6
CONTINUOUS
10
7.27878
20
-7.15295
11
7.28966
21
-7.15745
0
LINE
8
BLACK
6
CONTINUOUS
10
7.28966
20
-7.15745
11
7.3012
21
-7.15975
0
LINE
8
BLACK
6
CONTINUOUS
10
7.3012
20
-7.15975
11
7.31297
21
-7.15975
0
LINE
8
BLACK
6
CONTINUOUS
10
7.31297
20
-7.15975
11
7.32452
21
-7.15745
0
LINE
8
BLACK
6
CONTINUOUS
10
7.32452
20
-7.15745
11
7.33539
21
-7.15295
0
LINE
8
BLACK
6
CONTINUOUS
10
7.33539
20
-7.15295
11
7.34518
21
-7.14641
0
LINE
8
BLACK
6
CONTINUOUS
10
7.34518
20
-7.14641
11
7.3535
21
-7.13809
0
LINE
8
BLACK
6
CONTINUOUS
10
7.3535
20
-7.13809
11
7.36004
21
-7.1283
0
LINE
8
BLACK
6
CONTINUOUS
10
7.36004
20
-7.1283
11
7.36454
21
-7.11743
0
LINE
8
BLACK
6
CONTINUOUS
10
7.36454
20
-7.11743
11
7.36684
21
-7.10588
0
LINE
8
BLACK
6
CONTINUOUS
10
7.36684
20
-7.10588
11
7.36684
21
-7.09412
0
LINE
8
BLACK
6
CONTINUOUS
10
7.36684
20
-7.09412
11
7.36454
21
-7.08257
0
LINE
8
BLACK
6
CONTINUOUS
10
7.36454
20
-7.08257
11
7.36004
21
-7.0717
0
LINE
8
BLACK
6
CONTINUOUS
10
7.36004
20
-7.0717
11
7.3535
21
-7.06191
0
LINE
8
BLACK
6
CONTINUOUS
10
7.3535
20
-7.06191
11
7.34518
21
-7.05359
0
LINE
8
BLACK
6
CONTINUOUS
10
7.34518
20
-7.05359
11
7.33539
21
-7.04705
0
LINE
8
BLACK
6
CONTINUOUS
10
7.33539
20
-7.04705
11
7.32452
21
-7.04255
0
LINE
8
BLACK
6
CONTINUOUS
10
7.32452
20
-7.04255
11
7.31297
21
-7.04025
0
LINE
8
BLACK
6
CONTINUOUS
10
7.31297
20
-7.04025
11
7.3012
21
-7.04025
0
LINE
8
BLACK
6
CONTINUOUS
10
7.3012
20
-7.04025
11
7.28966
21
-7.04255
0
LINE
8
BLACK
6
CONTINUOUS
10
7.28966
20
-7.04255
11
7.27878
21
-7.04705
0
LINE
8
BLACK
6
CONTINUOUS
10
7.27878
20
-7.04705
11
7.269
21
-7.05359
0
LINE
8
BLACK
6
CONTINUOUS
10
7.269
20
-7.05359
11
7.26068
21
-7.06191
0
LINE
8
BLACK
6
CONTINUOUS
10
7.26068
20
-7.06191
11
7.25414
21
-7.0717
0
LINE
8
BLACK
6
CONTINUOUS
10
7.25414
20
-7.0717
11
7.24963
21
-7.08257
0
LINE
8
BLACK
6
CONTINUOUS
10
7.24963
20
-7.08257
11
7.24734
21
-7.09412
0
LINE
8
BLACK
6
CONTINUOUS
10
7.24734
20
-7.09412
11
7.24734
21
-7.10588
0
LINE
8
BLACK
6
CONTINUOUS
10
7.24734
20
-7.10588
11
7.24963
21
-7.11743
0
LINE
8
BLACK
6
CONTINUOUS
10
9.04323
20
-7.08063
11
9.04823
21
-7.06854
0
LINE
8
BLACK
6
CONTINUOUS
10
9.04823
20
-7.06854
11
9.0555
21
-7.05767
0
LINE
8
BLACK
6
CONTINUOUS
10
9.0555
20
-7.05767
11
9.06475
21
-7.04842
0
LINE
8
BLACK
6
CONTINUOUS
10
9.06475
20
-7.04842
11
9.07563
21
-7.04115
0
LINE
8
BLACK
6
CONTINUOUS
10
9.07563
20
-7.04115
11
9.08772
21
-7.03614
0
LINE
8
BLACK
6
CONTINUOUS
10
9.08772
20
-7.03614
11
9.10055
21
-7.03359
0
LINE
8
BLACK
6
CONTINUOUS
10
9.10055
20
-7.03359
11
9.11363
21
-7.03359
0
LINE
8
BLACK
6
CONTINUOUS
10
9.11363
20
-7.03359
11
9.12646
21
-7.03614
0
LINE
8
BLACK
6
CONTINUOUS
10
9.12646
20
-7.03614
11
9.13854
21
-7.04115
0
LINE
8
BLACK
6
CONTINUOUS
10
9.13854
20
-7.04115
11
9.14942
21
-7.04842
0
LINE
8
BLACK
6
CONTINUOUS
10
9.14942
20
-7.04842
11
9.15867
21
-7.05767
0
LINE
8
BLACK
6
CONTINUOUS
10
9.15867
20
-7.05767
11
9.16594
21
-7.06854
0
LINE
8
BLACK
6
CONTINUOUS
10
9.16594
20
-7.06854
11
9.17095
21
-7.08063
0
LINE
8
BLACK
6
CONTINUOUS
10
9.17095
20
-7.08063
11
9.1735
21
-7.09346
0
LINE
8
BLACK
6
CONTINUOUS
10
9.1735
20
-7.09346
11
9.1735
21
-7.10654
0
LINE
8
BLACK
6
CONTINUOUS
10
9.1735
20
-7.10654
11
9.17095
21
-7.11937
0
LINE
8
BLACK
6
CONTINUOUS
10
9.17095
20
-7.11937
11
9.16594
21
-7.13146
0
LINE
8
BLACK
6
CONTINUOUS
10
9.16594
20
-7.13146
11
9.15867
21
-7.14233
0
LINE
8
BLACK
6
CONTINUOUS
10
9.15867
20
-7.14233
11
9.14942
21
-7.15158
0
LINE
8
BLACK
6
CONTINUOUS
10
9.14942
20
-7.15158
11
9.13854
21
-7.15885
0
LINE
8
BLACK
6
CONTINUOUS
10
9.13854
20
-7.15885
11
9.12646
21
-7.16386
0
LINE
8
BLACK
6
CONTINUOUS
10
9.12646
20
-7.16386
11
9.11363
21
-7.16641
0
LINE
8
BLACK
6
CONTINUOUS
10
9.11363
20
-7.16641
11
9.10055
21
-7.16641
0
LINE
8
BLACK
6
CONTINUOUS
10
9.10055
20
-7.16641
11
9.08772
21
-7.16386
0
LINE
8
BLACK
6
CONTINUOUS
10
9.08772
20
-7.16386
11
9.07563
21
-7.15885
0
LINE
8
BLACK
6
CONTINUOUS
10
9.07563
20
-7.15885
11
9.06475
21
-7.15158
0
LINE
8
BLACK
6
CONTINUOUS
10
9.06475
20
-7.15158
11
9.0555
21
-7.14233
0
LINE
8
BLACK
6
CONTINUOUS
10
9.0555
20
-7.14233
11
9.04823
21
-7.13146
0
LINE
8
BLACK
6
CONTINUOUS
10
9.04823
20
-7.13146
11
9.04323
21
-7.11937
0
LINE
8
BLACK
6
CONTINUOUS
10
9.04323
20
-7.11937
11
9.04068
21
-7.10654
0
LINE
8
BLACK
6
CONTINUOUS
10
9.04068
20
-7.10654
11
9.04068
21
-7.09346
0
LINE
8
BLACK
6
CONTINUOUS
10
9.04068
20
-7.09346
11
9.04323
21
-7.08063
0
LINE
8
BLACK
6
CONTINUOUS
10
9.04963
20
-7.11743
11
9.05414
21
-7.1283
0
LINE
8
BLACK
6
CONTINUOUS
10
9.05414
20
-7.1283
11
9.06068
21
-7.13809
0
LINE
8
BLACK
6
CONTINUOUS
10
9.06068
20
-7.13809
11
9.069
21
-7.14641
0
LINE
8
BLACK
6
CONTINUOUS
10
9.069
20
-7.14641
11
9.07878
21
-7.15295
0
LINE
8
BLACK
6
CONTINUOUS
10
9.07878
20
-7.15295
11
9.08966
21
-7.15745
0
LINE
8
BLACK
6
CONTINUOUS
10
9.08966
20
-7.15745
11
9.1012
21
-7.15975
0
LINE
8
BLACK
6
CONTINUOUS
10
9.1012
20
-7.15975
11
9.11297
21
-7.15975
0
LINE
8
BLACK
6
CONTINUOUS
10
9.11297
20
-7.15975
11
9.12452
21
-7.15745
0
LINE
8
BLACK
6
CONTINUOUS
10
9.12452
20
-7.15745
11
9.13539
21
-7.15295
0
LINE
8
BLACK
6
CONTINUOUS
10
9.13539
20
-7.15295
11
9.14518
21
-7.14641
0
LINE
8
BLACK
6
CONTINUOUS
10
9.14518
20
-7.14641
11
9.1535
21
-7.13809
0
LINE
8
BLACK
6
CONTINUOUS
10
9.1535
20
-7.13809
11
9.16004
21
-7.1283
0
LINE
8
BLACK
6
CONTINUOUS
10
9.16004
20
-7.1283
11
9.16454
21
-7.11743
0
LINE
8
BLACK
6
CONTINUOUS
10
9.16454
20
-7.11743
11
9.16684
21
-7.10588
0
LINE
8
BLACK
6
CONTINUOUS
10
9.16684
20
-7.10588
11
9.16684
21
-7.09412
0
LINE
8
BLACK
6
CONTINUOUS
10
9.16684
20
-7.09412
11
9.16454
21
-7.08257
0
LINE
8
BLACK
6
CONTINUOUS
10
9.16454
20
-7.08257
11
9.16004
21
-7.0717
0
LINE
8
BLACK
6
CONTINUOUS
10
9.16004
20
-7.0717
11
9.1535
21
-7.06191
0
LINE
8
BLACK
6
CONTINUOUS
10
9.1535
20
-7.06191
11
9.14518
21
-7.05359
0
LINE
8
BLACK
6
CONTINUOUS
10
9.14518
20
-7.05359
11
9.13539
21
-7.04705
0
LINE
8
BLACK
6
CONTINUOUS
10
9.13539
20
-7.04705
11
9.12452
21
-7.04255
0
LINE
8
BLACK
6
CONTINUOUS
10
9.12452
20
-7.04255
11
9.11297
21
-7.04025
0
LINE
8
BLACK
6
CONTINUOUS
10
9.11297
20
-7.04025
11
9.1012
21
-7.04025
0
LINE
8
BLACK
6
CONTINUOUS
10
9.1012
20
-7.04025
11
9.08966
21
-7.04255
0
LINE
8
BLACK
6
CONTINUOUS
10
9.08966
20
-7.04255
11
9.07878
21
-7.04705
0
LINE
8
BLACK
6
CONTINUOUS
10
9.07878
20
-7.04705
11
9.069
21
-7.05359
0
LINE
8
BLACK
6
CONTINUOUS
10
9.069
20
-7.05359
11
9.06068
21
-7.06191
0
LINE
8
BLACK
6
CONTINUOUS
10
9.06068
20
-7.06191
11
9.05414
21
-7.0717
0
LINE
8
BLACK
6
CONTINUOUS
10
9.05414
20
-7.0717
11
9.04963
21
-7.08257
0
LINE
8
BLACK
6
CONTINUOUS
10
9.04963
20
-7.08257
11
9.04734
21
-7.09412
0
LINE
8
BLACK
6
CONTINUOUS
10
9.04734
20
-7.09412
11
9.04734
21
-7.10588
0
LINE
8
BLACK
6
CONTINUOUS
10
9.04734
20
-7.10588
11
9.04963
21
-7.11743
0
LINE
8
BLACK
6
CONTINUOUS
10
9.92905
20
-7.08063
11
9.93406
21
-7.06854
0
LINE
8
BLACK
6
CONTINUOUS
10
9.93406
20
-7.06854
11
9.94133
21
-7.05767
0
LINE
8
BLACK
6
CONTINUOUS
10
9.94133
20
-7.05767
11
9.95058
21
-7.04842
0
LINE
8
BLACK
6
CONTINUOUS
10
9.95058
20
-7.04842
11
9.96146
21
-7.04115
0
LINE
8
BLACK
6
CONTINUOUS
10
9.96146
20
-7.04115
11
9.97354
21
-7.03614
0
LINE
8
BLACK
6
CONTINUOUS
10
9.97354
20
-7.03614
11
9.98637
21
-7.03359
0
LINE
8
BLACK
6
CONTINUOUS
10
9.98637
20
-7.03359
11
9.99945
21
-7.03359
0
LINE
8
BLACK
6
CONTINUOUS
10
9.99945
20
-7.03359
11
10.0123
21
-7.03614
0
LINE
8
BLACK
6
CONTINUOUS
10
10.0123
20
-7.03614
11
10.0244
21
-7.04115
0
LINE
8
BLACK
6
CONTINUOUS
10
10.0244
20
-7.04115
11
10.0352
21
-7.04842
0
LINE
8
BLACK
6
CONTINUOUS
10
10.0352
20
-7.04842
11
10.0445
21
-7.05767
0
LINE
8
BLACK
6
CONTINUOUS
10
10.0445
20
-7.05767
11
10.0518
21
-7.06854
0
LINE
8
BLACK
6
CONTINUOUS
10
10.0518
20
-7.06854
11
10.0568
21
-7.08063
0
LINE
8
BLACK
6
CONTINUOUS
10
10.0568
20
-7.08063
11
10.0593
21
-7.09346
0
LINE
8
BLACK
6
CONTINUOUS
10
10.0593
20
-7.09346
11
10.0593
21
-7.10654
0
LINE
8
BLACK
6
CONTINUOUS
10
10.0593
20
-7.10654
11
10.0568
21
-7.11937
0
LINE
8
BLACK
6
CONTINUOUS
10
10.0568
20
-7.11937
11
10.0518
21
-7.13146
0
LINE
8
BLACK
6
CONTINUOUS
10
10.0518
20
-7.13146
11
10.0445
21
-7.14233
0
LINE
8
BLACK
6
CONTINUOUS
10
10.0445
20
-7.14233
11
10.0352
21
-7.15158
0
LINE
8
BLACK
6
CONTINUOUS
10
10.0352
20
-7.15158
11
10.0244
21
-7.15885
0
LINE
8
BLACK
6
CONTINUOUS
10
10.0244
20
-7.15885
11
10.0123
21
-7.16386
0
LINE
8
BLACK
6
CONTINUOUS
10
10.0123
20
-7.16386
11
9.99945
21
-7.16641
0
LINE
8
BLACK
6
CONTINUOUS
10
9.99945
20
-7.16641
11
9.98637
21
-7.16641
0
LINE
8
BLACK
6
CONTINUOUS
10
9.98637
20
-7.16641
11
9.97354
21
-7.16386
0
LINE
8
BLACK
6
CONTINUOUS
10
9.97354
20
-7.16386
11
9.96146
21
-7.15885
0
LINE
8
BLACK
6
CONTINUOUS
10
9.96146
20
-7.15885
11
9.95058
21
-7.15158
0
LINE
8
BLACK
6
CONTINUOUS
10
9.95058
20
-7.15158
11
9.94133
21
-7.14233
0
LINE
8
BLACK
6
CONTINUOUS
10
9.94133
20
-7.14233
11
9.93406
21
-7.13146
0
LINE
8
BLACK
6
CONTINUOUS
10
9.93406
20
-7.13146
11
9.92905
21
-7.11937
0
LINE
8
BLACK
6
CONTINUOUS
10
9.92905
20
-7.11937
11
9.9265
21
-7.10654
0
LINE
8
BLACK
6
CONTINUOUS
10
9.9265
20
-7.10654
11
9.9265
21
-7.09346
0
LINE
8
BLACK
6
CONTINUOUS
10
9.9265
20
-7.09346
11
9.92905
21
-7.08063
0
LINE
8
BLACK
6
CONTINUOUS
10
9.93546
20
-7.11743
11
9.93996
21
-7.1283
0
LINE
8
BLACK
6
CONTINUOUS
10
9.93996
20
-7.1283
11
9.9465
21
-7.13809
0
LINE
8
BLACK
6
CONTINUOUS
10
9.9465
20
-7.13809
11
9.95482
21
-7.14641
0
LINE
8
BLACK
6
CONTINUOUS
10
9.95482
20
-7.14641
11
9.96461
21
-7.15295
0
LINE
8
BLACK
6
CONTINUOUS
10
9.96461
20
-7.15295
11
9.97548
21
-7.15745
0
LINE
8
BLACK
6
CONTINUOUS
10
9.97548
20
-7.15745
11
9.98703
21
-7.15975
0
LINE
8
BLACK
6
CONTINUOUS
10
9.98703
20
-7.15975
11
9.9988
21
-7.15975
0
LINE
8
BLACK
6
CONTINUOUS
10
9.9988
20
-7.15975
11
10.0103
21
-7.15745
0
LINE
8
BLACK
6
CONTINUOUS
10
10.0103
20
-7.15745
11
10.0212
21
-7.15295
0
LINE
8
BLACK
6
CONTINUOUS
10
10.0212
20
-7.15295
11
10.031
21
-7.14641
0
LINE
8
BLACK
6
CONTINUOUS
10
10.031
20
-7.14641
11
10.0393
21
-7.13809
0
LINE
8
BLACK
6
CONTINUOUS
10
10.0393
20
-7.13809
11
10.0459
21
-7.1283
0
LINE
8
BLACK
6
CONTINUOUS
10
10.0459
20
-7.1283
11
10.0504
21
-7.11743
0
LINE
8
BLACK
6
CONTINUOUS
10
10.0504
20
-7.11743
11
10.0527
21
-7.10588
0
LINE
8
BLACK
6
CONTINUOUS
10
10.0527
20
-7.10588
11
10.0527
21
-7.09412
0
LINE
8
BLACK
6
CONTINUOUS
10
10.0527
20
-7.09412
11
10.0504
21
-7.08257
0
LINE
8
BLACK
6
CONTINUOUS
10
10.0504
20
-7.08257
11
10.0459
21
-7.0717
0
LINE
8
BLACK
6
CONTINUOUS
10
10.0459
20
-7.0717
11
10.0393
21
-7.06191
0
LINE
8
BLACK
6
CONTINUOUS
10
10.0393
20
-7.06191
11
10.031
21
-7.05359
0
LINE
8
BLACK
6
CONTINUOUS
10
10.031
20
-7.05359
11
10.0212
21
-7.04705
0
LINE
8
BLACK
6
CONTINUOUS
10
10.0212
20
-7.04705
11
10.0103
21
-7.04255
0
LINE
8
BLACK
6
CONTINUOUS
10
10.0103
20
-7.04255
11
9.9988
21
-7.04025
0
LINE
8
BLACK
6
CONTINUOUS
10
9.9988
20
-7.04025
11
9.98703
21
-7.04025
0
LINE
8
BLACK
6
CONTINUOUS
10
9.98703
20
-7.04025
11
9.97548
21
-7.04255
0
LINE
8
BLACK
6
CONTINUOUS
10
9.97548
20
-7.04255
11
9.96461
21
-7.04705
0
LINE
8
BLACK
6
CONTINUOUS
10
9.96461
20
-7.04705
11
9.95482
21
-7.05359
0
LINE
8
BLACK
6
CONTINUOUS
10
9.95482
20
-7.05359
11
9.9465
21
-7.06191
0
LINE
8
BLACK
6
CONTINUOUS
10
9.9465
20
-7.06191
11
9.93996
21
-7.0717
0
LINE
8
BLACK
6
CONTINUOUS
10
9.93996
20
-7.0717
11
9.93546
21
-7.08257
0
LINE
8
BLACK
6
CONTINUOUS
10
9.93546
20
-7.08257
11
9.93316
21
-7.09412
0
LINE
8
BLACK
6
CONTINUOUS
10
9.93316
20
-7.09412
11
9.93316
21
-7.10588
0
LINE
8
BLACK
6
CONTINUOUS
10
9.93316
20
-7.10588
11
9.93546
21
-7.11743
0
LINE
8
BLACK
6
CONTINUOUS
10
8.12905
20
-7.08063
11
8.13406
21
-7.06854
0
LINE
8
BLACK
6
CONTINUOUS
10
8.13406
20
-7.06854
11
8.14133
21
-7.05767
0
LINE
8
BLACK
6
CONTINUOUS
10
8.14133
20
-7.05767
11
8.15058
21
-7.04842
0
LINE
8
BLACK
6
CONTINUOUS
10
8.15058
20
-7.04842
11
8.16146
21
-7.04115
0
LINE
8
BLACK
6
CONTINUOUS
10
8.16146
20
-7.04115
11
8.17354
21
-7.03614
0
LINE
8
BLACK
6
CONTINUOUS
10
8.17354
20
-7.03614
11
8.18637
21
-7.03359
0
LINE
8
BLACK
6
CONTINUOUS
10
8.18637
20
-7.03359
11
8.19945
21
-7.03359
0
LINE
8
BLACK
6
CONTINUOUS
10
8.19945
20
-7.03359
11
8.21228
21
-7.03614
0
LINE
8
BLACK
6
CONTINUOUS
10
8.21228
20
-7.03614
11
8.22437
21
-7.04115
0
LINE
8
BLACK
6
CONTINUOUS
10
8.22437
20
-7.04115
11
8.23525
21
-7.04842
0
LINE
8
BLACK
6
CONTINUOUS
10
8.23525
20
-7.04842
11
8.2445
21
-7.05767
0
LINE
8
BLACK
6
CONTINUOUS
10
8.2445
20
-7.05767
11
8.25177
21
-7.06854
0
LINE
8
BLACK
6
CONTINUOUS
10
8.25177
20
-7.06854
11
8.25677
21
-7.08063
0
LINE
8
BLACK
6
CONTINUOUS
10
8.25677
20
-7.08063
11
8.25932
21
-7.09346
0
LINE
8
BLACK
6
CONTINUOUS
10
8.25932
20
-7.09346
11
8.25932
21
-7.10654
0
LINE
8
BLACK
6
CONTINUOUS
10
8.25932
20
-7.10654
11
8.25677
21
-7.11937
0
LINE
8
BLACK
6
CONTINUOUS
10
8.25677
20
-7.11937
11
8.25177
21
-7.13146
0
LINE
8
BLACK
6
CONTINUOUS
10
8.25177
20
-7.13146
11
8.2445
21
-7.14233
0
LINE
8
BLACK
6
CONTINUOUS
10
8.2445
20
-7.14233
11
8.23525
21
-7.15158
0
LINE
8
BLACK
6
CONTINUOUS
10
8.23525
20
-7.15158
11
8.22437
21
-7.15885
0
LINE
8
BLACK
6
CONTINUOUS
10
8.22437
20
-7.15885
11
8.21228
21
-7.16386
0
LINE
8
BLACK
6
CONTINUOUS
10
8.21228
20
-7.16386
11
8.19945
21
-7.16641
0
LINE
8
BLACK
6
CONTINUOUS
10
8.19945
20
-7.16641
11
8.18637
21
-7.16641
0
LINE
8
BLACK
6
CONTINUOUS
10
8.18637
20
-7.16641
11
8.17354
21
-7.16386
0
LINE
8
BLACK
6
CONTINUOUS
10
8.17354
20
-7.16386
11
8.16146
21
-7.15885
0
LINE
8
BLACK
6
CONTINUOUS
10
8.16146
20
-7.15885
11
8.15058
21
-7.15158
0
LINE
8
BLACK
6
CONTINUOUS
10
8.15058
20
-7.15158
11
8.14133
21
-7.14233
0
LINE
8
BLACK
6
CONTINUOUS
10
8.14133
20
-7.14233
11
8.13406
21
-7.13146
0
LINE
8
BLACK
6
CONTINUOUS
10
8.13406
20
-7.13146
11
8.12905
21
-7.11937
0
LINE
8
BLACK
6
CONTINUOUS
10
8.12905
20
-7.11937
11
8.1265
21
-7.10654
0
LINE
8
BLACK
6
CONTINUOUS
10
8.1265
20
-7.10654
11
8.1265
21
-7.09346
0
LINE
8
BLACK
6
CONTINUOUS
10
8.1265
20
-7.09346
11
8.12905
21
-7.08063
0
LINE
8
BLACK
6
CONTINUOUS
10
8.13546
20
-7.11743
11
8.13996
21
-7.1283
0
LINE
8
BLACK
6
CONTINUOUS
10
8.13996
20
-7.1283
11
8.1465
21
-7.13809
0
LINE
8
BLACK
6
CONTINUOUS
10
8.1465
20
-7.13809
11
8.15482
21
-7.14641
0
LINE
8
BLACK
6
CONTINUOUS
10
8.15482
20
-7.14641
11
8.16461
21
-7.15295
0
LINE
8
BLACK
6
CONTINUOUS
10
8.16461
20
-7.15295
11
8.17548
21
-7.15745
0
LINE
8
BLACK
6
CONTINUOUS
10
8.17548
20
-7.15745
11
8.18703
21
-7.15975
0
LINE
8
BLACK
6
CONTINUOUS
10
8.18703
20
-7.15975
11
8.1988
21
-7.15975
0
LINE
8
BLACK
6
CONTINUOUS
10
8.1988
20
-7.15975
11
8.21034
21
-7.15745
0
LINE
8
BLACK
6
CONTINUOUS
10
8.21034
20
-7.15745
11
8.22122
21
-7.15295
0
LINE
8
BLACK
6
CONTINUOUS
10
8.22122
20
-7.15295
11
8.231
21
-7.14641
0
LINE
8
BLACK
6
CONTINUOUS
10
8.231
20
-7.14641
11
8.23932
21
-7.13809
0
LINE
8
BLACK
6
CONTINUOUS
10
8.23932
20
-7.13809
11
8.24586
21
-7.1283
0
LINE
8
BLACK
6
CONTINUOUS
10
8.24586
20
-7.1283
11
8.25037
21
-7.11743
0
LINE
8
BLACK
6
CONTINUOUS
10
8.25037
20
-7.11743
11
8.25266
21
-7.10588
0
LINE
8
BLACK
6
CONTINUOUS
10
8.25266
20
-7.10588
11
8.25266
21
-7.09412
0
LINE
8
BLACK
6
CONTINUOUS
10
8.25266
20
-7.09412
11
8.25037
21
-7.08257
0
LINE
8
BLACK
6
CONTINUOUS
10
8.25037
20
-7.08257
11
8.24586
21
-7.0717
0
LINE
8
BLACK
6
CONTINUOUS
10
8.24586
20
-7.0717
11
8.23932
21
-7.06191
0
LINE
8
BLACK
6
CONTINUOUS
10
8.23932
20
-7.06191
11
8.231
21
-7.05359
0
LINE
8
BLACK
6
CONTINUOUS
10
8.231
20
-7.05359
11
8.22122
21
-7.04705
0
LINE
8
BLACK
6
CONTINUOUS
10
8.22122
20
-7.04705
11
8.21034
21
-7.04255
0
LINE
8
BLACK
6
CONTINUOUS
10
8.21034
20
-7.04255
11
8.1988
21
-7.04025
0
LINE
8
BLACK
6
CONTINUOUS
10
8.1988
20
-7.04025
11
8.18703
21
-7.04025
0
LINE
8
BLACK
6
CONTINUOUS
10
8.18703
20
-7.04025
11
8.17548
21
-7.04255
0
LINE
8
BLACK
6
CONTINUOUS
10
8.17548
20
-7.04255
11
8.16461
21
-7.04705
0
LINE
8
BLACK
6
CONTINUOUS
10
8.16461
20
-7.04705
11
8.15482
21
-7.05359
0
LINE
8
BLACK
6
CONTINUOUS
10
8.15482
20
-7.05359
11
8.1465
21
-7.06191
0
LINE
8
BLACK
6
CONTINUOUS
10
8.1465
20
-7.06191
11
8.13996
21
-7.0717
0
LINE
8
BLACK
6
CONTINUOUS
10
8.13996
20
-7.0717
11
8.13546
21
-7.08257
0
LINE
8
BLACK
6
CONTINUOUS
10
8.13546
20
-7.08257
11
8.13316
21
-7.09412
0
LINE
8
BLACK
6
CONTINUOUS
10
8.13316
20
-7.09412
11
8.13316
21
-7.10588
0
LINE
8
BLACK
6
CONTINUOUS
10
8.13316
20
-7.10588
11
8.13546
21
-7.11743
0
LINE
8
BLACK
6
CONTINUOUS
10
2.0423
20
-7.04112
11
2.04775
21
-7.02796
0
LINE
8
BLACK
6
CONTINUOUS
10
2.04775
20
-7.02796
11
2.05566
21
-7.01612
0
LINE
8
BLACK
6
CONTINUOUS
10
2.05566
20
-7.01612
11
2.06573
21
-7.00605
0
LINE
8
BLACK
6
CONTINUOUS
10
2.06573
20
-7.00605
11
2.07757
21
-6.99814
0
LINE
8
BLACK
6
CONTINUOUS
10
2.07757
20
-6.99814
11
2.09073
21
-6.99269
0
LINE
8
BLACK
6
CONTINUOUS
10
2.09073
20
-6.99269
11
2.10469
21
-6.98992
0
LINE
8
BLACK
6
CONTINUOUS
10
2.10469
20
-6.98992
11
2.11893
21
-6.98992
0
LINE
8
BLACK
6
CONTINUOUS
10
2.11893
20
-6.98992
11
2.1329
21
-6.99269
0
LINE
8
BLACK
6
CONTINUOUS
10
2.1329
20
-6.99269
11
2.14605
21
-6.99814
0
LINE
8
BLACK
6
CONTINUOUS
10
2.14605
20
-6.99814
11
2.15789
21
-7.00605
0
LINE
8
BLACK
6
CONTINUOUS
10
2.15789
20
-7.00605
11
2.16796
21
-7.01612
0
LINE
8
BLACK
6
CONTINUOUS
10
2.16796
20
-7.01612
11
2.17587
21
-7.02796
0
LINE
8
BLACK
6
CONTINUOUS
10
2.17587
20
-7.02796
11
2.18132
21
-7.04112
0
LINE
8
BLACK
6
CONTINUOUS
10
2.18132
20
-7.04112
11
2.1841
21
-7.05508
0
LINE
8
BLACK
6
CONTINUOUS
10
2.1841
20
-7.05508
11
2.1841
21
-7.06932
0
LINE
8
BLACK
6
CONTINUOUS
10
2.1841
20
-7.06932
11
2.18132
21
-7.08329
0
LINE
8
BLACK
6
CONTINUOUS
10
2.18132
20
-7.08329
11
2.17587
21
-7.09645
0
LINE
8
BLACK
6
CONTINUOUS
10
2.17587
20
-7.09645
11
2.16796
21
-7.10829
0
LINE
8
BLACK
6
CONTINUOUS
10
2.16796
20
-7.10829
11
2.15789
21
-7.11835
0
LINE
8
BLACK
6
CONTINUOUS
10
2.15789
20
-7.11835
11
2.14605
21
-7.12627
0
LINE
8
BLACK
6
CONTINUOUS
10
2.14605
20
-7.12627
11
2.1329
21
-7.13171
0
LINE
8
BLACK
6
CONTINUOUS
10
2.1329
20
-7.13171
11
2.11893
21
-7.13449
0
LINE
8
BLACK
6
CONTINUOUS
10
2.11893
20
-7.13449
11
2.10469
21
-7.13449
0
LINE
8
BLACK
6
CONTINUOUS
10
2.10469
20
-7.13449
11
2.09073
21
-7.13171
0
LINE
8
BLACK
6
CONTINUOUS
10
2.09073
20
-7.13171
11
2.07757
21
-7.12627
0
LINE
8
BLACK
6
CONTINUOUS
10
2.07757
20
-7.12627
11
2.06573
21
-7.11835
0
LINE
8
BLACK
6
CONTINUOUS
10
2.06573
20
-7.11835
11
2.05566
21
-7.10829
0
LINE
8
BLACK
6
CONTINUOUS
10
2.05566
20
-7.10829
11
2.04775
21
-7.09645
0
LINE
8
BLACK
6
CONTINUOUS
10
2.04775
20
-7.09645
11
2.0423
21
-7.08329
0
LINE
8
BLACK
6
CONTINUOUS
10
2.0423
20
-7.08329
11
2.03952
21
-7.06932
0
LINE
8
BLACK
6
CONTINUOUS
10
2.03952
20
-7.06932
11
2.03952
21
-7.05508
0
LINE
8
BLACK
6
CONTINUOUS
10
2.03952
20
-7.05508
11
2.0423
21
-7.04112
0
LINE
8
BLACK
6
CONTINUOUS
10
2.04871
20
-7.08135
11
2.05365
21
-7.09329
0
LINE
8
BLACK
6
CONTINUOUS
10
2.05365
20
-7.09329
11
2.06083
21
-7.10404
0
LINE
8
BLACK
6
CONTINUOUS
10
2.06083
20
-7.10404
11
2.06998
21
-7.11318
0
LINE
8
BLACK
6
CONTINUOUS
10
2.06998
20
-7.11318
11
2.08072
21
-7.12036
0
LINE
8
BLACK
6
CONTINUOUS
10
2.08072
20
-7.12036
11
2.09267
21
-7.12531
0
LINE
8
BLACK
6
CONTINUOUS
10
2.09267
20
-7.12531
11
2.10535
21
-7.12783
0
LINE
8
BLACK
6
CONTINUOUS
10
2.10535
20
-7.12783
11
2.11827
21
-7.12783
0
LINE
8
BLACK
6
CONTINUOUS
10
2.11827
20
-7.12783
11
2.13095
21
-7.12531
0
LINE
8
BLACK
6
CONTINUOUS
10
2.13095
20
-7.12531
11
2.1429
21
-7.12036
0
LINE
8
BLACK
6
CONTINUOUS
10
2.1429
20
-7.12036
11
2.15365
21
-7.11318
0
LINE
8
BLACK
6
CONTINUOUS
10
2.15365
20
-7.11318
11
2.16279
21
-7.10404
0
LINE
8
BLACK
6
CONTINUOUS
10
2.16279
20
-7.10404
11
2.16997
21
-7.09329
0
LINE
8
BLACK
6
CONTINUOUS
10
2.16997
20
-7.09329
11
2.17492
21
-7.08135
0
LINE
8
BLACK
6
CONTINUOUS
10
2.17492
20
-7.08135
11
2.17744
21
-7.06867
0
LINE
8
BLACK
6
CONTINUOUS
10
2.17744
20
-7.06867
11
2.17744
21
-7.05574
0
LINE
8
BLACK
6
CONTINUOUS
10
2.17744
20
-7.05574
11
2.17492
21
-7.04306
0
LINE
8
BLACK
6
CONTINUOUS
10
2.17492
20
-7.04306
11
2.16997
21
-7.03112
0
LINE
8
BLACK
6
CONTINUOUS
10
2.16997
20
-7.03112
11
2.16279
21
-7.02037
0
LINE
8
BLACK
6
CONTINUOUS
10
2.16279
20
-7.02037
11
2.15365
21
-7.01123
0
LINE
8
BLACK
6
CONTINUOUS
10
2.15365
20
-7.01123
11
2.1429
21
-7.00405
0
LINE
8
BLACK
6
CONTINUOUS
10
2.1429
20
-7.00405
11
2.13095
21
-6.9991
0
LINE
8
BLACK
6
CONTINUOUS
10
2.13095
20
-6.9991
11
2.11827
21
-6.99658
0
LINE
8
BLACK
6
CONTINUOUS
10
2.11827
20
-6.99658
11
2.10535
21
-6.99658
0
LINE
8
BLACK
6
CONTINUOUS
10
2.10535
20
-6.99658
11
2.09267
21
-6.9991
0
LINE
8
BLACK
6
CONTINUOUS
10
2.09267
20
-6.9991
11
2.08072
21
-7.00405
0
LINE
8
BLACK
6
CONTINUOUS
10
2.08072
20
-7.00405
11
2.06998
21
-7.01123
0
LINE
8
BLACK
6
CONTINUOUS
10
2.06998
20
-7.01123
11
2.06083
21
-7.02037
0
LINE
8
BLACK
6
CONTINUOUS
10
2.06083
20
-7.02037
11
2.05365
21
-7.03112
0
LINE
8
BLACK
6
CONTINUOUS
10
2.05365
20
-7.03112
11
2.04871
21
-7.04306
0
LINE
8
BLACK
6
CONTINUOUS
10
2.04871
20
-7.04306
11
2.04618
21
-7.05574
0
LINE
8
BLACK
6
CONTINUOUS
10
2.04618
20
-7.05574
11
2.04618
21
-7.06867
0
LINE
8
BLACK
6
CONTINUOUS
10
2.04618
20
-7.06867
11
2.04871
21
-7.08135
0
LINE
8
BLACK
6
CONTINUOUS
10
3.80214
20
-7.04112
11
3.80759
21
-7.02796
0
LINE
8
BLACK
6
CONTINUOUS
10
3.80759
20
-7.02796
11
3.8155
21
-7.01612
0
LINE
8
BLACK
6
CONTINUOUS
10
3.8155
20
-7.01612
11
3.82557
21
-7.00605
0
LINE
8
BLACK
6
CONTINUOUS
10
3.82557
20
-7.00605
11
3.83741
21
-6.99814
0
LINE
8
BLACK
6
CONTINUOUS
10
3.83741
20
-6.99814
11
3.85057
21
-6.99269
0
LINE
8
BLACK
6
CONTINUOUS
10
3.85057
20
-6.99269
11
3.86453
21
-6.98992
0
LINE
8
BLACK
6
CONTINUOUS
10
3.86453
20
-6.98992
11
3.87877
21
-6.98992
0
LINE
8
BLACK
6
CONTINUOUS
10
3.87877
20
-6.98992
11
3.89274
21
-6.99269
0
LINE
8
BLACK
6
CONTINUOUS
10
3.89274
20
-6.99269
11
3.90589
21
-6.99814
0
LINE
8
BLACK
6
CONTINUOUS
10
3.90589
20
-6.99814
11
3.91773
21
-7.00605
0
LINE
8
BLACK
6
CONTINUOUS
10
3.91773
20
-7.00605
11
3.9278
21
-7.01612
0
LINE
8
BLACK
6
CONTINUOUS
10
3.9278
20
-7.01612
11
3.93571
21
-7.02796
0
LINE
8
BLACK
6
CONTINUOUS
10
3.93571
20
-7.02796
11
3.94116
21
-7.04112
0
LINE
8
BLACK
6
CONTINUOUS
10
3.94116
20
-7.04112
11
3.94394
21
-7.05508
0
LINE
8
BLACK
6
CONTINUOUS
10
3.94394
20
-7.05508
11
3.94394
21
-7.06932
0
LINE
8
BLACK
6
CONTINUOUS
10
3.94394
20
-7.06932
11
3.94116
21
-7.08329
0
LINE
8
BLACK
6
CONTINUOUS
10
3.94116
20
-7.08329
11
3.93571
21
-7.09645
0
LINE
8
BLACK
6
CONTINUOUS
10
3.93571
20
-7.09645
11
3.9278
21
-7.10829
0
LINE
8
BLACK
6
CONTINUOUS
10
3.9278
20
-7.10829
11
3.91773
21
-7.11835
0
LINE
8
BLACK
6
CONTINUOUS
10
3.91773
20
-7.11835
11
3.90589
21
-7.12627
0
LINE
8
BLACK
6
CONTINUOUS
10
3.90589
20
-7.12627
11
3.89274
21
-7.13171
0
LINE
8
BLACK
6
CONTINUOUS
10
3.89274
20
-7.13171
11
3.87877
21
-7.13449
0
LINE
8
BLACK
6
CONTINUOUS
10
3.87877
20
-7.13449
11
3.86453
21
-7.13449
0
LINE
8
BLACK
6
CONTINUOUS
10
3.86453
20
-7.13449
11
3.85057
21
-7.13171
0
LINE
8
BLACK
6
CONTINUOUS
10
3.85057
20
-7.13171
11
3.83741
21
-7.12627
0
LINE
8
BLACK
6
CONTINUOUS
10
3.83741
20
-7.12627
11
3.82557
21
-7.11835
0
LINE
8
BLACK
6
CONTINUOUS
10
3.82557
20
-7.11835
11
3.8155
21
-7.10829
0
LINE
8
BLACK
6
CONTINUOUS
10
3.8155
20
-7.10829
11
3.80759
21
-7.09645
0
LINE
8
BLACK
6
CONTINUOUS
10
3.80759
20
-7.09645
11
3.80214
21
-7.08329
0
LINE
8
BLACK
6
CONTINUOUS
10
3.80214
20
-7.08329
11
3.79937
21
-7.06932
0
LINE
8
BLACK
6
CONTINUOUS
10
3.79937
20
-7.06932
11
3.79937
21
-7.05508
0
LINE
8
BLACK
6
CONTINUOUS
10
3.79937
20
-7.05508
11
3.80214
21
-7.04112
0
LINE
8
BLACK
6
CONTINUOUS
10
3.80855
20
-7.08135
11
3.8135
21
-7.09329
0
LINE
8
BLACK
6
CONTINUOUS
10
3.8135
20
-7.09329
11
3.82068
21
-7.10404
0
LINE
8
BLACK
6
CONTINUOUS
10
3.82068
20
-7.10404
11
3.82982
21
-7.11318
0
LINE
8
BLACK
6
CONTINUOUS
10
3.82982
20
-7.11318
11
3.84057
21
-7.12036
0
LINE
8
BLACK
6
CONTINUOUS
10
3.84057
20
-7.12036
11
3.85251
21
-7.12531
0
LINE
8
BLACK
6
CONTINUOUS
10
3.85251
20
-7.12531
11
3.86519
21
-7.12783
0
LINE
8
BLACK
6
CONTINUOUS
10
3.86519
20
-7.12783
11
3.87812
21
-7.12783
0
LINE
8
BLACK
6
CONTINUOUS
10
3.87812
20
-7.12783
11
3.8908
21
-7.12531
0
LINE
8
BLACK
6
CONTINUOUS
10
3.8908
20
-7.12531
11
3.90274
21
-7.12036
0
LINE
8
BLACK
6
CONTINUOUS
10
3.90274
20
-7.12036
11
3.91349
21
-7.11318
0
LINE
8
BLACK
6
CONTINUOUS
10
3.91349
20
-7.11318
11
3.92263
21
-7.10404
0
LINE
8
BLACK
6
CONTINUOUS
10
3.92263
20
-7.10404
11
3.92981
21
-7.09329
0
LINE
8
BLACK
6
CONTINUOUS
10
3.92981
20
-7.09329
11
3.93476
21
-7.08135
0
LINE
8
BLACK
6
CONTINUOUS
10
3.93476
20
-7.08135
11
3.93728
21
-7.06867
0
LINE
8
BLACK
6
CONTINUOUS
10
3.93728
20
-7.06867
11
3.93728
21
-7.05574
0
LINE
8
BLACK
6
CONTINUOUS
10
3.93728
20
-7.05574
11
3.93476
21
-7.04306
0
LINE
8
BLACK
6
CONTINUOUS
10
3.93476
20
-7.04306
11
3.92981
21
-7.03112
0
LINE
8
BLACK
6
CONTINUOUS
10
3.92981
20
-7.03112
11
3.92263
21
-7.02037
0
LINE
8
BLACK
6
CONTINUOUS
10
3.92263
20
-7.02037
11
3.91349
21
-7.01123
0
LINE
8
BLACK
6
CONTINUOUS
10
3.91349
20
-7.01123
11
3.90274
21
-7.00405
0
LINE
8
BLACK
6
CONTINUOUS
10
3.90274
20
-7.00405
11
3.8908
21
-6.9991
0
LINE
8
BLACK
6
CONTINUOUS
10
3.8908
20
-6.9991
11
3.87812
21
-6.99658
0
LINE
8
BLACK
6
CONTINUOUS
10
3.87812
20
-6.99658
11
3.86519
21
-6.99658
0
LINE
8
BLACK
6
CONTINUOUS
10
3.86519
20
-6.99658
11
3.85251
21
-6.9991
0
LINE
8
BLACK
6
CONTINUOUS
10
3.85251
20
-6.9991
11
3.84057
21
-7.00405
0
LINE
8
BLACK
6
CONTINUOUS
10
3.84057
20
-7.00405
11
3.82982
21
-7.01123
0
LINE
8
BLACK
6
CONTINUOUS
10
3.82982
20
-7.01123
11
3.82068
21
-7.02037
0
LINE
8
BLACK
6
CONTINUOUS
10
3.82068
20
-7.02037
11
3.8135
21
-7.03112
0
LINE
8
BLACK
6
CONTINUOUS
10
3.8135
20
-7.03112
11
3.80855
21
-7.04306
0
LINE
8
BLACK
6
CONTINUOUS
10
3.80855
20
-7.04306
11
3.80603
21
-7.05574
0
LINE
8
BLACK
6
CONTINUOUS
10
3.80603
20
-7.05574
11
3.80603
21
-7.06867
0
LINE
8
BLACK
6
CONTINUOUS
10
3.80603
20
-7.06867
11
3.80855
21
-7.08135
0
LINE
8
BLACK
6
CONTINUOUS
10
1.17107
20
-2.47606
11
1.17726
21
-2.46112
0
LINE
8
BLACK
6
CONTINUOUS
10
1.17726
20
-2.46112
11
1.18624
21
-2.44768
0
LINE
8
BLACK
6
CONTINUOUS
10
1.18624
20
-2.44768
11
1.19768
21
-2.43624
0
LINE
8
BLACK
6
CONTINUOUS
10
1.19768
20
-2.43624
11
1.21112
21
-2.42726
0
LINE
8
BLACK
6
CONTINUOUS
10
1.21112
20
-2.42726
11
1.22606
21
-2.42107
0
LINE
8
BLACK
6
CONTINUOUS
10
1.22606
20
-2.42107
11
1.24192
21
-2.41792
0
LINE
8
BLACK
6
CONTINUOUS
10
1.24192
20
-2.41792
11
1.25808
21
-2.41792
0
LINE
8
BLACK
6
CONTINUOUS
10
1.25808
20
-2.41792
11
1.27394
21
-2.42107
0
LINE
8
BLACK
6
CONTINUOUS
10
1.27394
20
-2.42107
11
1.28888
21
-2.42726
0
LINE
8
BLACK
6
CONTINUOUS
10
1.28888
20
-2.42726
11
1.30232
21
-2.43624
0
LINE
8
BLACK
6
CONTINUOUS
10
1.30232
20
-2.43624
11
1.31376
21
-2.44768
0
LINE
8
BLACK
6
CONTINUOUS
10
1.31376
20
-2.44768
11
1.32274
21
-2.46112
0
LINE
8
BLACK
6
CONTINUOUS
10
1.32274
20
-2.46112
11
1.32893
21
-2.47606
0
LINE
8
BLACK
6
CONTINUOUS
10
1.32893
20
-2.47606
11
1.33208
21
-2.49192
0
LINE
8
BLACK
6
CONTINUOUS
10
1.33208
20
-2.49192
11
1.33208
21
-2.50808
0
LINE
8
BLACK
6
CONTINUOUS
10
1.33208
20
-2.50808
11
1.32893
21
-2.52394
0
LINE
8
BLACK
6
CONTINUOUS
10
1.32893
20
-2.52394
11
1.32274
21
-2.53888
0
LINE
8
BLACK
6
CONTINUOUS
10
1.32274
20
-2.53888
11
1.31376
21
-2.55232
0
LINE
8
BLACK
6
CONTINUOUS
10
1.31376
20
-2.55232
11
1.30232
21
-2.56376
0
LINE
8
BLACK
6
CONTINUOUS
10
1.30232
20
-2.56376
11
1.28888
21
-2.57274
0
LINE
8
BLACK
6
CONTINUOUS
10
1.28888
20
-2.57274
11
1.27394
21
-2.57893
0
LINE
8
BLACK
6
CONTINUOUS
10
1.27394
20
-2.57893
11
1.25808
21
-2.58208
0
LINE
8
BLACK
6
CONTINUOUS
10
1.25808
20
-2.58208
11
1.24192
21
-2.58208
0
LINE
8
BLACK
6
CONTINUOUS
10
1.24192
20
-2.58208
11
1.22606
21
-2.57893
0
LINE
8
BLACK
6
CONTINUOUS
10
1.22606
20
-2.57893
11
1.21112
21
-2.57274
0
LINE
8
BLACK
6
CONTINUOUS
10
1.21112
20
-2.57274
11
1.19768
21
-2.56376
0
LINE
8
BLACK
6
CONTINUOUS
10
1.19768
20
-2.56376
11
1.18624
21
-2.55232
0
LINE
8
BLACK
6
CONTINUOUS
10
1.18624
20
-2.55232
11
1.17726
21
-2.53888
0
LINE
8
BLACK
6
CONTINUOUS
10
1.17726
20
-2.53888
11
1.17107
21
-2.52394
0
LINE
8
BLACK
6
CONTINUOUS
10
1.17107
20
-2.52394
11
1.16792
21
-2.50808
0
LINE
8
BLACK
6
CONTINUOUS
10
1.16792
20
-2.50808
11
1.16792
21
-2.49192
0
LINE
8
BLACK
6
CONTINUOUS
10
1.16792
20
-2.49192
11
1.17107
21
-2.47606
0
LINE
8
BLACK
6
CONTINUOUS
10
1.17748
20
-2.522
11
1.18316
21
-2.53573
0
LINE
8
BLACK
6
CONTINUOUS
10
1.18316
20
-2.53573
11
1.19142
21
-2.54808
0
LINE
8
BLACK
6
CONTINUOUS
10
1.19142
20
-2.54808
11
1.20192
21
-2.55858
0
LINE
8
BLACK
6
CONTINUOUS
10
1.20192
20
-2.55858
11
1.21427
21
-2.56684
0
LINE
8
BLACK
6
CONTINUOUS
10
1.21427
20
-2.56684
11
1.228
21
-2.57252
0
LINE
8
BLACK
6
CONTINUOUS
10
1.228
20
-2.57252
11
1.24257
21
-2.57542
0
LINE
8
BLACK
6
CONTINUOUS
10
1.24257
20
-2.57542
11
1.25743
21
-2.57542
0
LINE
8
BLACK
6
CONTINUOUS
10
1.25743
20
-2.57542
11
1.272
21
-2.57252
0
LINE
8
BLACK
6
CONTINUOUS
10
1.272
20
-2.57252
11
1.28573
21
-2.56684
0
LINE
8
BLACK
6
CONTINUOUS
10
1.28573
20
-2.56684
11
1.29808
21
-2.55858
0
LINE
8
BLACK
6
CONTINUOUS
10
1.29808
20
-2.55858
11
1.30858
21
-2.54808
0
LINE
8
BLACK
6
CONTINUOUS
10
1.30858
20
-2.54808
11
1.31684
21
-2.53573
0
LINE
8
BLACK
6
CONTINUOUS
10
1.31684
20
-2.53573
11
1.32252
21
-2.522
0
LINE
8
BLACK
6
CONTINUOUS
10
1.32252
20
-2.522
11
1.32542
21
-2.50743
0
LINE
8
BLACK
6
CONTINUOUS
10
1.32542
20
-2.50743
11
1.32542
21
-2.49257
0
LINE
8
BLACK
6
CONTINUOUS
10
1.32542
20
-2.49257
11
1.32252
21
-2.478
0
LINE
8
BLACK
6
CONTINUOUS
10
1.32252
20
-2.478
11
1.31684
21
-2.46427
0
LINE
8
BLACK
6
CONTINUOUS
10
1.31684
20
-2.46427
11
1.30858
21
-2.45192
0
LINE
8
BLACK
6
CONTINUOUS
10
1.30858
20
-2.45192
11
1.29808
21
-2.44142
0
LINE
8
BLACK
6
CONTINUOUS
10
1.29808
20
-2.44142
11
1.28573
21
-2.43316
0
LINE
8
BLACK
6
CONTINUOUS
10
1.28573
20
-2.43316
11
1.272
21
-2.42748
0
LINE
8
BLACK
6
CONTINUOUS
10
1.272
20
-2.42748
11
1.25743
21
-2.42458
0
LINE
8
BLACK
6
CONTINUOUS
10
1.25743
20
-2.42458
11
1.24257
21
-2.42458
0
LINE
8
BLACK
6
CONTINUOUS
10
1.24257
20
-2.42458
11
1.228
21
-2.42748
0
LINE
8
BLACK
6
CONTINUOUS
10
1.228
20
-2.42748
11
1.21427
21
-2.43316
0
LINE
8
BLACK
6
CONTINUOUS
10
1.21427
20
-2.43316
11
1.20192
21
-2.44142
0
LINE
8
BLACK
6
CONTINUOUS
10
1.20192
20
-2.44142
11
1.19142
21
-2.45192
0
LINE
8
BLACK
6
CONTINUOUS
10
1.19142
20
-2.45192
11
1.18316
21
-2.46427
0
LINE
8
BLACK
6
CONTINUOUS
10
1.18316
20
-2.46427
11
1.17748
21
-2.478
0
LINE
8
BLACK
6
CONTINUOUS
10
1.17748
20
-2.478
11
1.17458
21
-2.49257
0
LINE
8
BLACK
6
CONTINUOUS
10
1.17458
20
-2.49257
11
1.17458
21
-2.50743
0
LINE
8
BLACK
6
CONTINUOUS
10
1.17458
20
-2.50743
11
1.17748
21
-2.522
0
LINE
8
BLACK
6
CONTINUOUS
10
20.6711
20
-2.47606
11
20.6773
21
-2.46112
0
LINE
8
BLACK
6
CONTINUOUS
10
20.6773
20
-2.46112
11
20.6862
21
-2.44768
0
LINE
8
BLACK
6
CONTINUOUS
10
20.6862
20
-2.44768
11
20.6977
21
-2.43624
0
LINE
8
BLACK
6
CONTINUOUS
10
20.6977
20
-2.43624
11
20.7111
21
-2.42726
0
LINE
8
BLACK
6
CONTINUOUS
10
20.7111
20
-2.42726
11
20.7261
21
-2.42107
0
LINE
8
BLACK
6
CONTINUOUS
10
20.7261
20
-2.42107
11
20.7419
21
-2.41792
0
LINE
8
BLACK
6
CONTINUOUS
10
20.7419
20
-2.41792
11
20.7581
21
-2.41792
0
LINE
8
BLACK
6
CONTINUOUS
10
20.7581
20
-2.41792
11
20.7739
21
-2.42107
0
LINE
8
BLACK
6
CONTINUOUS
10
20.7739
20
-2.42107
11
20.7889
21
-2.42726
0
LINE
8
BLACK
6
CONTINUOUS
10
20.7889
20
-2.42726
11
20.8023
21
-2.43624
0
LINE
8
BLACK
6
CONTINUOUS
10
20.8023
20
-2.43624
11
20.8138
21
-2.44768
0
LINE
8
BLACK
6
CONTINUOUS
10
20.8138
20
-2.44768
11
20.8227
21
-2.46112
0
LINE
8
BLACK
6
CONTINUOUS
10
20.8227
20
-2.46112
11
20.8289
21
-2.47606
0
LINE
8
BLACK
6
CONTINUOUS
10
20.8289
20
-2.47606
11
20.8321
21
-2.49192
0
LINE
8
BLACK
6
CONTINUOUS
10
20.8321
20
-2.49192
11
20.8321
21
-2.50808
0
LINE
8
BLACK
6
CONTINUOUS
10
20.8321
20
-2.50808
11
20.8289
21
-2.52394
0
LINE
8
BLACK
6
CONTINUOUS
10
20.8289
20
-2.52394
11
20.8227
21
-2.53888
0
LINE
8
BLACK
6
CONTINUOUS
10
20.8227
20
-2.53888
11
20.8138
21
-2.55232
0
LINE
8
BLACK
6
CONTINUOUS
10
20.8138
20
-2.55232
11
20.8023
21
-2.56376
0
LINE
8
BLACK
6
CONTINUOUS
10
20.8023
20
-2.56376
11
20.7889
21
-2.57274
0
LINE
8
BLACK
6
CONTINUOUS
10
20.7889
20
-2.57274
11
20.7739
21
-2.57893
0
LINE
8
BLACK
6
CONTINUOUS
10
20.7739
20
-2.57893
11
20.7581
21
-2.58208
0
LINE
8
BLACK
6
CONTINUOUS
10
20.7581
20
-2.58208
11
20.7419
21
-2.58208
0
LINE
8
BLACK
6
CONTINUOUS
10
20.7419
20
-2.58208
11
20.7261
21
-2.57893
0
LINE
8
BLACK
6
CONTINUOUS
10
20.7261
20
-2.57893
11
20.7111
21
-2.57274
0
LINE
8
BLACK
6
CONTINUOUS
10
20.7111
20
-2.57274
11
20.6977
21
-2.56376
0
LINE
8
BLACK
6
CONTINUOUS
10
20.6977
20
-2.56376
11
20.6862
21
-2.55232
0
LINE
8
BLACK
6
CONTINUOUS
10
20.6862
20
-2.55232
11
20.6773
21
-2.53888
0
LINE
8
BLACK
6
CONTINUOUS
10
20.6773
20
-2.53888
11
20.6711
21
-2.52394
0
LINE
8
BLACK
6
CONTINUOUS
10
20.6711
20
-2.52394
11
20.6679
21
-2.50808
0
LINE
8
BLACK
6
CONTINUOUS
10
20.6679
20
-2.50808
11
20.6679
21
-2.49192
0
LINE
8
BLACK
6
CONTINUOUS
10
20.6679
20
-2.49192
11
20.6711
21
-2.47606
0
LINE
8
BLACK
6
CONTINUOUS
10
20.6775
20
-2.522
11
20.6832
21
-2.53573
0
LINE
8
BLACK
6
CONTINUOUS
10
20.6832
20
-2.53573
11
20.6914
21
-2.54808
0
LINE
8
BLACK
6
CONTINUOUS
10
20.6914
20
-2.54808
11
20.7019
21
-2.55858
0
LINE
8
BLACK
6
CONTINUOUS
10
20.7019
20
-2.55858
11
20.7143
21
-2.56684
0
LINE
8
BLACK
6
CONTINUOUS
10
20.7143
20
-2.56684
11
20.728
21
-2.57252
0
LINE
8
BLACK
6
CONTINUOUS
10
20.728
20
-2.57252
11
20.7426
21
-2.57542
0
LINE
8
BLACK
6
CONTINUOUS
10
20.7426
20
-2.57542
11
20.7574
21
-2.57542
0
LINE
8
BLACK
6
CONTINUOUS
10
20.7574
20
-2.57542
11
20.772
21
-2.57252
0
LINE
8
BLACK
6
CONTINUOUS
10
20.772
20
-2.57252
11
20.7857
21
-2.56684
0
LINE
8
BLACK
6
CONTINUOUS
10
20.7857
20
-2.56684
11
20.7981
21
-2.55858
0
LINE
8
BLACK
6
CONTINUOUS
10
20.7981
20
-2.55858
11
20.8086
21
-2.54808
0
LINE
8
BLACK
6
CONTINUOUS
10
20.8086
20
-2.54808
11
20.8168
21
-2.53573
0
LINE
8
BLACK
6
CONTINUOUS
10
20.8168
20
-2.53573
11
20.8225
21
-2.522
0
LINE
8
BLACK
6
CONTINUOUS
10
20.8225
20
-2.522
11
20.8254
21
-2.50743
0
LINE
8
BLACK
6
CONTINUOUS
10
20.8254
20
-2.50743
11
20.8254
21
-2.49257
0
LINE
8
BLACK
6
CONTINUOUS
10
20.8254
20
-2.49257
11
20.8225
21
-2.478
0
LINE
8
BLACK
6
CONTINUOUS
10
20.8225
20
-2.478
11
20.8168
21
-2.46427
0
LINE
8
BLACK
6
CONTINUOUS
10
20.8168
20
-2.46427
11
20.8086
21
-2.45192
0
LINE
8
BLACK
6
CONTINUOUS
10
20.8086
20
-2.45192
11
20.7981
21
-2.44142
0
LINE
8
BLACK
6
CONTINUOUS
10
20.7981
20
-2.44142
11
20.7857
21
-2.43316
0
LINE
8
BLACK
6
CONTINUOUS
10
20.7857
20
-2.43316
11
20.772
21
-2.42748
0
LINE
8
BLACK
6
CONTINUOUS
10
20.772
20
-2.42748
11
20.7574
21
-2.42458
0
LINE
8
BLACK
6
CONTINUOUS
10
20.7574
20
-2.42458
11
20.7426
21
-2.42458
0
LINE
8
BLACK
6
CONTINUOUS
10
20.7426
20
-2.42458
11
20.728
21
-2.42748
0
LINE
8
BLACK
6
CONTINUOUS
10
20.728
20
-2.42748
11
20.7143
21
-2.43316
0
LINE
8
BLACK
6
CONTINUOUS
10
20.7143
20
-2.43316
11
20.7019
21
-2.44142
0
LINE
8
BLACK
6
CONTINUOUS
10
20.7019
20
-2.44142
11
20.6914
21
-2.45192
0
LINE
8
BLACK
6
CONTINUOUS
10
20.6914
20
-2.45192
11
20.6832
21
-2.46427
0
LINE
8
BLACK
6
CONTINUOUS
10
20.6832
20
-2.46427
11
20.6775
21
-2.478
0
LINE
8
BLACK
6
CONTINUOUS
10
20.6775
20
-2.478
11
20.6746
21
-2.49257
0
LINE
8
BLACK
6
CONTINUOUS
10
20.6746
20
-2.49257
11
20.6746
21
-2.50743
0
LINE
8
BLACK
6
CONTINUOUS
10
20.6746
20
-2.50743
11
20.6775
21
-2.522
0
LINE
8
BLACK
6
CONTINUOUS
10
10.9191
20
-2.47606
11
10.9253
21
-2.46112
0
LINE
8
BLACK
6
CONTINUOUS
10
10.9253
20
-2.46112
11
10.9343
21
-2.44768
0
LINE
8
BLACK
6
CONTINUOUS
10
10.9343
20
-2.44768
11
10.9457
21
-2.43624
0
LINE
8
BLACK
6
CONTINUOUS
10
10.9457
20
-2.43624
11
10.9592
21
-2.42726
0
LINE
8
BLACK
6
CONTINUOUS
10
10.9592
20
-2.42726
11
10.9741
21
-2.42107
0
LINE
8
BLACK
6
CONTINUOUS
10
10.9741
20
-2.42107
11
10.9899
21
-2.41792
0
LINE
8
BLACK
6
CONTINUOUS
10
10.9899
20
-2.41792
11
11.0061
21
-2.41792
0
LINE
8
BLACK
6
CONTINUOUS
10
11.0061
20
-2.41792
11
11.022
21
-2.42107
0
LINE
8
BLACK
6
CONTINUOUS
10
11.022
20
-2.42107
11
11.0369
21
-2.42726
0
LINE
8
BLACK
6
CONTINUOUS
10
11.0369
20
-2.42726
11
11.0504
21
-2.43624
0
LINE
8
BLACK
6
CONTINUOUS
10
11.0504
20
-2.43624
11
11.0618
21
-2.44768
0
LINE
8
BLACK
6
CONTINUOUS
10
11.0618
20
-2.44768
11
11.0708
21
-2.46112
0
LINE
8
BLACK
6
CONTINUOUS
10
11.0708
20
-2.46112
11
11.077
21
-2.47606
0
LINE
8
BLACK
6
CONTINUOUS
10
11.077
20
-2.47606
11
11.0801
21
-2.49192
0
LINE
8
BLACK
6
CONTINUOUS
10
11.0801
20
-2.49192
11
11.0801
21
-2.50808
0
LINE
8
BLACK
6
CONTINUOUS
10
11.0801
20
-2.50808
11
11.077
21
-2.52394
0
LINE
8
BLACK
6
CONTINUOUS
10
11.077
20
-2.52394
11
11.0708
21
-2.53888
0
LINE
8
BLACK
6
CONTINUOUS
10
11.0708
20
-2.53888
11
11.0618
21
-2.55232
0
LINE
8
BLACK
6
CONTINUOUS
10
11.0618
20
-2.55232
11
11.0504
21
-2.56376
0
LINE
8
BLACK
6
CONTINUOUS
10
11.0504
20
-2.56376
11
11.0369
21
-2.57274
0
LINE
8
BLACK
6
CONTINUOUS
10
11.0369
20
-2.57274
11
11.022
21
-2.57893
0
LINE
8
BLACK
6
CONTINUOUS
10
11.022
20
-2.57893
11
11.0061
21
-2.58208
0
LINE
8
BLACK
6
CONTINUOUS
10
11.0061
20
-2.58208
11
10.9899
21
-2.58208
0
LINE
8
BLACK
6
CONTINUOUS
10
10.9899
20
-2.58208
11
10.9741
21
-2.57893
0
LINE
8
BLACK
6
CONTINUOUS
10
10.9741
20
-2.57893
11
10.9592
21
-2.57274
0
LINE
8
BLACK
6
CONTINUOUS
10
10.9592
20
-2.57274
11
10.9457
21
-2.56376
0
LINE
8
BLACK
6
CONTINUOUS
10
10.9457
20
-2.56376
11
10.9343
21
-2.55232
0
LINE
8
BLACK
6
CONTINUOUS
10
10.9343
20
-2.55232
11
10.9253
21
-2.53888
0
LINE
8
BLACK
6
CONTINUOUS
10
10.9253
20
-2.53888
11
10.9191
21
-2.52394
0
LINE
8
BLACK
6
CONTINUOUS
10
10.9191
20
-2.52394
11
10.9159
21
-2.50808
0
LINE
8
BLACK
6
CONTINUOUS
10
10.9159
20
-2.50808
11
10.9159
21
-2.49192
0
LINE
8
BLACK
6
CONTINUOUS
10
10.9159
20
-2.49192
11
10.9191
21
-2.47606
0
LINE
8
BLACK
6
CONTINUOUS
10
10.9255
20
-2.522
11
10.9312
21
-2.53573
0
LINE
8
BLACK
6
CONTINUOUS
10
10.9312
20
-2.53573
11
10.9394
21
-2.54808
0
LINE
8
BLACK
6
CONTINUOUS
10
10.9394
20
-2.54808
11
10.95
21
-2.55858
0
LINE
8
BLACK
6
CONTINUOUS
10
10.95
20
-2.55858
11
10.9623
21
-2.56684
0
LINE
8
BLACK
6
CONTINUOUS
10
10.9623
20
-2.56684
11
10.976
21
-2.57252
0
LINE
8
BLACK
6
CONTINUOUS
10
10.976
20
-2.57252
11
10.9906
21
-2.57542
0
LINE
8
BLACK
6
CONTINUOUS
10
10.9906
20
-2.57542
11
11.0055
21
-2.57542
0
LINE
8
BLACK
6
CONTINUOUS
10
11.0055
20
-2.57542
11
11.02
21
-2.57252
0
LINE
8
BLACK
6
CONTINUOUS
10
11.02
20
-2.57252
11
11.0338
21
-2.56684
0
LINE
8
BLACK
6
CONTINUOUS
10
11.0338
20
-2.56684
11
11.0461
21
-2.55858
0
LINE
8
BLACK
6
CONTINUOUS
10
11.0461
20
-2.55858
11
11.0566
21
-2.54808
0
LINE
8
BLACK
6
CONTINUOUS
10
11.0566
20
-2.54808
11
11.0649
21
-2.53573
0
LINE
8
BLACK
6
CONTINUOUS
10
11.0649
20
-2.53573
11
11.0706
21
-2.522
0
LINE
8
BLACK
6
CONTINUOUS
10
11.0706
20
-2.522
11
11.0735
21
-2.50743
0
LINE
8
BLACK
6
CONTINUOUS
10
11.0735
20
-2.50743
11
11.0735
21
-2.49257
0
LINE
8
BLACK
6
CONTINUOUS
10
11.0735
20
-2.49257
11
11.0706
21
-2.478
0
LINE
8
BLACK
6
CONTINUOUS
10
11.0706
20
-2.478
11
11.0649
21
-2.46427
0
LINE
8
BLACK
6
CONTINUOUS
10
11.0649
20
-2.46427
11
11.0566
21
-2.45192
0
LINE
8
BLACK
6
CONTINUOUS
10
11.0566
20
-2.45192
11
11.0461
21
-2.44142
0
LINE
8
BLACK
6
CONTINUOUS
10
11.0461
20
-2.44142
11
11.0338
21
-2.43316
0
LINE
8
BLACK
6
CONTINUOUS
10
11.0338
20
-2.43316
11
11.02
21
-2.42748
0
LINE
8
BLACK
6
CONTINUOUS
10
11.02
20
-2.42748
11
11.0055
21
-2.42458
0
LINE
8
BLACK
6
CONTINUOUS
10
11.0055
20
-2.42458
11
10.9906
21
-2.42458
0
LINE
8
BLACK
6
CONTINUOUS
10
10.9906
20
-2.42458
11
10.976
21
-2.42748
0
LINE
8
BLACK
6
CONTINUOUS
10
10.976
20
-2.42748
11
10.9623
21
-2.43316
0
LINE
8
BLACK
6
CONTINUOUS
10
10.9623
20
-2.43316
11
10.95
21
-2.44142
0
LINE
8
BLACK
6
CONTINUOUS
10
10.95
20
-2.44142
11
10.9394
21
-2.45192
0
LINE
8
BLACK
6
CONTINUOUS
10
10.9394
20
-2.45192
11
10.9312
21
-2.46427
0
LINE
8
BLACK
6
CONTINUOUS
10
10.9312
20
-2.46427
11
10.9255
21
-2.478
0
LINE
8
BLACK
6
CONTINUOUS
10
10.9255
20
-2.478
11
10.9226
21
-2.49257
0
LINE
8
BLACK
6
CONTINUOUS
10
10.9226
20
-2.49257
11
10.9226
21
-2.50743
0
LINE
8
BLACK
6
CONTINUOUS
10
10.9226
20
-2.50743
11
10.9255
21
-2.522
  0
ENDSEC
  0
EOF
