  0
SECTION
  2
HEADER
  9
$ANGBASE
  50
0.0
  9
$ANGDIR
  70
1
  9
$MEASUREMENT
  70
0
  0
ENDSEC
  0
SECTION
  2
TABLES
  0
TABLE
  2
LTYPE
  70
4
  0
LTYPE
  5
40F
  2
CONTINUOUS
  70
0
  3
Solid line
  72
65
  73
0
  40
0.0
  0
LTYPE
  5
410
  2
DASHDOT
 70
0
  3
Dash Dot ____ _ ____ _
 72
65
 73
4
 40
2.0
 49
1.25
 49
-0.25
 49
0.25
 49
-0.25
  0
LTYPE
  5
411
  2
DASHED
 70
0
  3
Dashed __ __ __ __ __
 72
65
 73
2
 40
0.75
 49
0.5
 49
-0.25
  0
LTYPE
  5
43B
  2
DOTTED
 70
0
  3
Dotted .  .  .  .
 72
65
 73
2
 40
0.2
 49
0.0
 49
-0.2
  0
ENDTAB
  0
TABLE
  2
STYLE
  70
4
  0
STYLE
  2
KICAD
  70
0
  40
0
  41
1
  42
1
  50
0
  71
0
  3
isocp.shx
  0
STYLE
  2
KICADB
  70
0
  40
0
  41
1
  42
1
  50
0
  71
0
  3
isocp.shx
  0
STYLE
  2
KICADI
  70
0
  40
0
  41
1
  42
1
  50
15
  71
0
  3
isocp.shx
  0
STYLE
  2
KICADBI
  70
0
  40
0
  41
1
  42
1
  50
15
  71
0
  3
isocp.shx
  0
ENDTAB
  0
TABLE
  2
LAYER
  70
1
  0
LAYER
  2
BLACK
  70
0
  62
7
  6
CONTINUOUS
  0
ENDTAB
  0
ENDSEC
  0
SECTION
  2
ENTITIES
0
LINE
8
BLACK
6
CONTINUOUS
10
8.21439
20
-5.38256
11
8.21623
21
-5.38313
0
LINE
8
BLACK
6
CONTINUOUS
10
8.21623
20
-5.38313
11
8.21791
21
-5.38404
0
LINE
8
BLACK
6
CONTINUOUS
10
8.21791
20
-5.38404
11
8.21939
21
-5.38527
0
LINE
8
BLACK
6
CONTINUOUS
10
8.21939
20
-5.38527
11
8.22061
21
-5.38675
0
LINE
8
BLACK
6
CONTINUOUS
10
8.22061
20
-5.38675
11
8.22151
21
-5.38845
0
LINE
8
BLACK
6
CONTINUOUS
10
8.22151
20
-5.38845
11
8.22207
21
-5.39029
0
LINE
8
BLACK
6
CONTINUOUS
10
8.22207
20
-5.39029
11
8.22225
21
-5.3922
0
LINE
8
BLACK
6
CONTINUOUS
10
8.22225
20
-5.3922
11
8.22225
21
-5.55156
0
LINE
8
BLACK
6
CONTINUOUS
10
8.22225
20
-5.55156
11
8.22225
21
-5.55169
0
LINE
8
BLACK
6
CONTINUOUS
10
8.22225
20
-5.55169
11
8.22222
21
-5.55198
0
LINE
8
BLACK
6
CONTINUOUS
10
8.22222
20
-5.55198
11
8.22223
21
-5.55227
0
LINE
8
BLACK
6
CONTINUOUS
10
8.22223
20
-5.55227
11
8.22211
21
-5.55293
0
LINE
8
BLACK
6
CONTINUOUS
10
8.22211
20
-5.55293
11
8.22204
21
-5.5536
0
LINE
8
BLACK
6
CONTINUOUS
10
8.22204
20
-5.5536
11
8.22195
21
-5.55388
0
LINE
8
BLACK
6
CONTINUOUS
10
8.22195
20
-5.55388
11
8.2219
21
-5.55416
0
LINE
8
BLACK
6
CONTINUOUS
10
8.2219
20
-5.55416
11
8.22166
21
-5.55479
0
LINE
8
BLACK
6
CONTINUOUS
10
8.22166
20
-5.55479
11
8.22146
21
-5.55543
0
LINE
8
BLACK
6
CONTINUOUS
10
8.22146
20
-5.55543
11
8.22132
21
-5.55569
0
LINE
8
BLACK
6
CONTINUOUS
10
8.22132
20
-5.55569
11
8.22121
21
-5.55596
0
LINE
8
BLACK
6
CONTINUOUS
10
8.22121
20
-5.55596
11
8.21184
21
-5.57471
0
LINE
8
BLACK
6
CONTINUOUS
10
8.21184
20
-5.57471
11
8.21178
21
-5.57483
0
LINE
8
BLACK
6
CONTINUOUS
10
8.21178
20
-5.57483
11
8.21148
21
-5.57529
0
LINE
8
BLACK
6
CONTINUOUS
10
8.21148
20
-5.57529
11
8.21122
21
-5.57578
0
LINE
8
BLACK
6
CONTINUOUS
10
8.21122
20
-5.57578
11
8.21096
21
-5.5761
0
LINE
8
BLACK
6
CONTINUOUS
10
8.21096
20
-5.5761
11
8.21073
21
-5.57644
0
LINE
8
BLACK
6
CONTINUOUS
10
8.21073
20
-5.57644
11
8.21035
21
-5.57684
0
LINE
8
BLACK
6
CONTINUOUS
10
8.21035
20
-5.57684
11
8.21
21
-5.57726
0
LINE
8
BLACK
6
CONTINUOUS
10
8.21
20
-5.57726
11
8.20062
21
-5.58664
0
LINE
8
BLACK
6
CONTINUOUS
10
8.20062
20
-5.58664
11
8.20053
21
-5.58673
0
LINE
8
BLACK
6
CONTINUOUS
10
8.20053
20
-5.58673
11
8.20009
21
-5.58708
0
LINE
8
BLACK
6
CONTINUOUS
10
8.20009
20
-5.58708
11
8.19969
21
-5.58746
0
LINE
8
BLACK
6
CONTINUOUS
10
8.19969
20
-5.58746
11
8.19934
21
-5.58768
0
LINE
8
BLACK
6
CONTINUOUS
10
8.19934
20
-5.58768
11
8.19902
21
-5.58793
0
LINE
8
BLACK
6
CONTINUOUS
10
8.19902
20
-5.58793
11
8.19853
21
-5.58819
0
LINE
8
BLACK
6
CONTINUOUS
10
8.19853
20
-5.58819
11
8.19806
21
-5.58848
0
LINE
8
BLACK
6
CONTINUOUS
10
8.19806
20
-5.58848
11
8.17932
21
-5.59785
0
LINE
8
BLACK
6
CONTINUOUS
10
8.17932
20
-5.59785
11
8.17919
21
-5.59792
0
LINE
8
BLACK
6
CONTINUOUS
10
8.17919
20
-5.59792
11
8.17892
21
-5.59802
0
LINE
8
BLACK
6
CONTINUOUS
10
8.17892
20
-5.59802
11
8.17867
21
-5.59815
0
LINE
8
BLACK
6
CONTINUOUS
10
8.17867
20
-5.59815
11
8.17802
21
-5.59835
0
LINE
8
BLACK
6
CONTINUOUS
10
8.17802
20
-5.59835
11
8.17739
21
-5.59858
0
LINE
8
BLACK
6
CONTINUOUS
10
8.17739
20
-5.59858
11
8.1771
21
-5.59862
0
LINE
8
BLACK
6
CONTINUOUS
10
8.1771
20
-5.59862
11
8.17683
21
-5.59871
0
LINE
8
BLACK
6
CONTINUOUS
10
8.17683
20
-5.59871
11
8.17616
21
-5.59877
0
LINE
8
BLACK
6
CONTINUOUS
10
8.17616
20
-5.59877
11
8.17549
21
-5.59888
0
LINE
8
BLACK
6
CONTINUOUS
10
8.17549
20
-5.59888
11
8.1752
21
-5.59887
0
LINE
8
BLACK
6
CONTINUOUS
10
8.1752
20
-5.59887
11
8.17492
21
-5.59889
0
LINE
8
BLACK
6
CONTINUOUS
10
8.17492
20
-5.59889
11
8.13742
21
-5.59889
0
LINE
8
BLACK
6
CONTINUOUS
10
8.13742
20
-5.59889
11
8.13728
21
-5.59889
0
LINE
8
BLACK
6
CONTINUOUS
10
8.13728
20
-5.59889
11
8.13699
21
-5.59886
0
LINE
8
BLACK
6
CONTINUOUS
10
8.13699
20
-5.59886
11
8.13671
21
-5.59887
0
LINE
8
BLACK
6
CONTINUOUS
10
8.13671
20
-5.59887
11
8.13604
21
-5.59875
0
LINE
8
BLACK
6
CONTINUOUS
10
8.13604
20
-5.59875
11
8.13537
21
-5.59868
0
LINE
8
BLACK
6
CONTINUOUS
10
8.13537
20
-5.59868
11
8.1351
21
-5.59859
0
LINE
8
BLACK
6
CONTINUOUS
10
8.1351
20
-5.59859
11
8.13481
21
-5.59854
0
LINE
8
BLACK
6
CONTINUOUS
10
8.13481
20
-5.59854
11
8.13418
21
-5.5983
0
LINE
8
BLACK
6
CONTINUOUS
10
8.13418
20
-5.5983
11
8.13354
21
-5.5981
0
LINE
8
BLACK
6
CONTINUOUS
10
8.13354
20
-5.5981
11
8.13329
21
-5.59796
0
LINE
8
BLACK
6
CONTINUOUS
10
8.13329
20
-5.59796
11
8.13302
21
-5.59785
0
LINE
8
BLACK
6
CONTINUOUS
10
8.13302
20
-5.59785
11
8.11427
21
-5.58848
0
LINE
8
BLACK
6
CONTINUOUS
10
8.11427
20
-5.58848
11
8.11415
21
-5.58842
0
LINE
8
BLACK
6
CONTINUOUS
10
8.11415
20
-5.58842
11
8.11368
21
-5.58812
0
LINE
8
BLACK
6
CONTINUOUS
10
8.11368
20
-5.58812
11
8.1132
21
-5.58786
0
LINE
8
BLACK
6
CONTINUOUS
10
8.1132
20
-5.58786
11
8.11288
21
-5.5876
0
LINE
8
BLACK
6
CONTINUOUS
10
8.11288
20
-5.5876
11
8.11254
21
-5.58737
0
LINE
8
BLACK
6
CONTINUOUS
10
8.11254
20
-5.58737
11
8.11214
21
-5.58699
0
LINE
8
BLACK
6
CONTINUOUS
10
8.11214
20
-5.58699
11
8.11171
21
-5.58664
0
LINE
8
BLACK
6
CONTINUOUS
10
8.11171
20
-5.58664
11
8.10234
21
-5.57726
0
LINE
8
BLACK
6
CONTINUOUS
10
8.10234
20
-5.57726
11
8.10224
21
-5.57717
0
LINE
8
BLACK
6
CONTINUOUS
10
8.10224
20
-5.57717
11
8.1019
21
-5.57673
0
LINE
8
BLACK
6
CONTINUOUS
10
8.1019
20
-5.57673
11
8.10152
21
-5.57633
0
LINE
8
BLACK
6
CONTINUOUS
10
8.10152
20
-5.57633
11
8.1013
21
-5.57598
0
LINE
8
BLACK
6
CONTINUOUS
10
8.1013
20
-5.57598
11
8.10104
21
-5.57566
0
LINE
8
BLACK
6
CONTINUOUS
10
8.10104
20
-5.57566
11
8.10079
21
-5.57517
0
LINE
8
BLACK
6
CONTINUOUS
10
8.10079
20
-5.57517
11
8.1005
21
-5.57471
0
LINE
8
BLACK
6
CONTINUOUS
10
8.1005
20
-5.57471
11
8.09112
21
-5.55596
0
LINE
8
BLACK
6
CONTINUOUS
10
8.09112
20
-5.55596
11
8.09106
21
-5.55583
0
LINE
8
BLACK
6
CONTINUOUS
10
8.09106
20
-5.55583
11
8.09096
21
-5.55556
0
LINE
8
BLACK
6
CONTINUOUS
10
8.09096
20
-5.55556
11
8.09083
21
-5.55531
0
LINE
8
BLACK
6
CONTINUOUS
10
8.09083
20
-5.55531
11
8.09063
21
-5.55466
0
LINE
8
BLACK
6
CONTINUOUS
10
8.09063
20
-5.55466
11
8.0904
21
-5.55403
0
LINE
8
BLACK
6
CONTINUOUS
10
8.0904
20
-5.55403
11
8.09035
21
-5.55375
0
LINE
8
BLACK
6
CONTINUOUS
10
8.09035
20
-5.55375
11
8.09027
21
-5.55347
0
LINE
8
BLACK
6
CONTINUOUS
10
8.09027
20
-5.55347
11
8.0902
21
-5.5528
0
LINE
8
BLACK
6
CONTINUOUS
10
8.0902
20
-5.5528
11
8.0901
21
-5.55213
0
LINE
8
BLACK
6
CONTINUOUS
10
8.0901
20
-5.55213
11
8.09011
21
-5.55184
0
LINE
8
BLACK
6
CONTINUOUS
10
8.09011
20
-5.55184
11
8.09008
21
-5.55156
0
LINE
8
BLACK
6
CONTINUOUS
10
8.09008
20
-5.55156
11
8.09008
21
-5.3922
0
LINE
8
BLACK
6
CONTINUOUS
10
8.09008
20
-5.3922
11
8.09008
21
-5.39206
0
LINE
8
BLACK
6
CONTINUOUS
10
8.09008
20
-5.39206
11
8.0903
21
-5.39015
0
LINE
8
BLACK
6
CONTINUOUS
10
8.0903
20
-5.39015
11
8.09088
21
-5.38832
0
LINE
8
BLACK
6
CONTINUOUS
10
8.09088
20
-5.38832
11
8.0918
21
-5.38664
0
LINE
8
BLACK
6
CONTINUOUS
10
8.0918
20
-5.38664
11
8.09304
21
-5.38517
0
LINE
8
BLACK
6
CONTINUOUS
10
8.09304
20
-5.38517
11
8.09454
21
-5.38397
0
LINE
8
BLACK
6
CONTINUOUS
10
8.09454
20
-5.38397
11
8.09624
21
-5.38308
0
LINE
8
BLACK
6
CONTINUOUS
10
8.09624
20
-5.38308
11
8.09808
21
-5.38253
0
LINE
8
BLACK
6
CONTINUOUS
10
8.09808
20
-5.38253
11
8.09999
21
-5.38236
0
LINE
8
BLACK
6
CONTINUOUS
10
8.09999
20
-5.38236
11
8.1019
21
-5.38256
0
LINE
8
BLACK
6
CONTINUOUS
10
8.1019
20
-5.38256
11
8.10374
21
-5.38313
0
LINE
8
BLACK
6
CONTINUOUS
10
8.10374
20
-5.38313
11
8.10543
21
-5.38404
0
LINE
8
BLACK
6
CONTINUOUS
10
8.10543
20
-5.38404
11
8.10691
21
-5.38527
0
LINE
8
BLACK
6
CONTINUOUS
10
8.10691
20
-5.38527
11
8.10812
21
-5.38675
0
LINE
8
BLACK
6
CONTINUOUS
10
8.10812
20
-5.38675
11
8.10902
21
-5.38845
0
LINE
8
BLACK
6
CONTINUOUS
10
8.10902
20
-5.38845
11
8.10958
21
-5.39029
0
LINE
8
BLACK
6
CONTINUOUS
10
8.10958
20
-5.39029
11
8.10977
21
-5.3922
0
LINE
8
BLACK
6
CONTINUOUS
10
8.10977
20
-5.3922
11
8.10977
21
-5.54923
0
LINE
8
BLACK
6
CONTINUOUS
10
8.10977
20
-5.54923
11
8.11739
21
-5.56447
0
LINE
8
BLACK
6
CONTINUOUS
10
8.11739
20
-5.56447
11
8.1245
21
-5.57159
0
LINE
8
BLACK
6
CONTINUOUS
10
8.1245
20
-5.57159
11
8.13974
21
-5.57921
0
LINE
8
BLACK
6
CONTINUOUS
10
8.13974
20
-5.57921
11
8.17259
21
-5.57921
0
LINE
8
BLACK
6
CONTINUOUS
10
8.17259
20
-5.57921
11
8.18783
21
-5.57159
0
LINE
8
BLACK
6
CONTINUOUS
10
8.18783
20
-5.57159
11
8.19495
21
-5.56447
0
LINE
8
BLACK
6
CONTINUOUS
10
8.19495
20
-5.56447
11
8.20257
21
-5.54923
0
LINE
8
BLACK
6
CONTINUOUS
10
8.20257
20
-5.54923
11
8.20257
21
-5.3922
0
LINE
8
BLACK
6
CONTINUOUS
10
8.20257
20
-5.3922
11
8.20257
21
-5.39206
0
LINE
8
BLACK
6
CONTINUOUS
10
8.20257
20
-5.39206
11
8.20278
21
-5.39015
0
LINE
8
BLACK
6
CONTINUOUS
10
8.20278
20
-5.39015
11
8.20336
21
-5.38832
0
LINE
8
BLACK
6
CONTINUOUS
10
8.20336
20
-5.38832
11
8.20429
21
-5.38664
0
LINE
8
BLACK
6
CONTINUOUS
10
8.20429
20
-5.38664
11
8.20552
21
-5.38517
0
LINE
8
BLACK
6
CONTINUOUS
10
8.20552
20
-5.38517
11
8.20702
21
-5.38397
0
LINE
8
BLACK
6
CONTINUOUS
10
8.20702
20
-5.38397
11
8.20872
21
-5.38308
0
LINE
8
BLACK
6
CONTINUOUS
10
8.20872
20
-5.38308
11
8.21057
21
-5.38253
0
LINE
8
BLACK
6
CONTINUOUS
10
8.21057
20
-5.38253
11
8.21248
21
-5.38236
0
LINE
8
BLACK
6
CONTINUOUS
10
8.21248
20
-5.38236
11
8.21439
21
-5.38256
0
LINE
8
BLACK
6
CONTINUOUS
10
9.18296
20
-5.38236
11
9.18351
21
-5.38242
0
LINE
8
BLACK
6
CONTINUOUS
10
9.18351
20
-5.38242
11
9.18407
21
-5.38244
0
LINE
8
BLACK
6
CONTINUOUS
10
9.18407
20
-5.38244
11
9.18447
21
-5.38253
0
LINE
8
BLACK
6
CONTINUOUS
10
9.18447
20
-5.38253
11
9.18487
21
-5.38257
0
LINE
8
BLACK
6
CONTINUOUS
10
9.18487
20
-5.38257
11
9.1854
21
-5.38274
0
LINE
8
BLACK
6
CONTINUOUS
10
9.1854
20
-5.38274
11
9.18594
21
-5.38286
0
LINE
8
BLACK
6
CONTINUOUS
10
9.18594
20
-5.38286
11
9.21406
21
-5.39224
0
LINE
8
BLACK
6
CONTINUOUS
10
9.21406
20
-5.39224
11
9.21419
21
-5.39228
0
LINE
8
BLACK
6
CONTINUOUS
10
9.21419
20
-5.39228
11
9.21445
21
-5.3924
0
LINE
8
BLACK
6
CONTINUOUS
10
9.21445
20
-5.3924
11
9.21473
21
-5.39249
0
LINE
8
BLACK
6
CONTINUOUS
10
9.21473
20
-5.39249
11
9.21532
21
-5.39281
0
LINE
8
BLACK
6
CONTINUOUS
10
9.21532
20
-5.39281
11
9.21593
21
-5.39309
0
LINE
8
BLACK
6
CONTINUOUS
10
9.21593
20
-5.39309
11
9.21617
21
-5.39326
0
LINE
8
BLACK
6
CONTINUOUS
10
9.21617
20
-5.39326
11
9.21642
21
-5.3934
0
LINE
8
BLACK
6
CONTINUOUS
10
9.21642
20
-5.3934
11
9.21694
21
-5.39382
0
LINE
8
BLACK
6
CONTINUOUS
10
9.21694
20
-5.39382
11
9.21749
21
-5.39422
0
LINE
8
BLACK
6
CONTINUOUS
10
9.21749
20
-5.39422
11
9.21768
21
-5.39443
0
LINE
8
BLACK
6
CONTINUOUS
10
9.21768
20
-5.39443
11
9.21791
21
-5.39462
0
LINE
8
BLACK
6
CONTINUOUS
10
9.21791
20
-5.39462
11
9.23666
21
-5.41336
0
LINE
8
BLACK
6
CONTINUOUS
10
9.23666
20
-5.41336
11
9.23675
21
-5.41346
0
LINE
8
BLACK
6
CONTINUOUS
10
9.23675
20
-5.41346
11
9.2371
21
-5.41389
0
LINE
8
BLACK
6
CONTINUOUS
10
9.2371
20
-5.41389
11
9.23748
21
-5.41429
0
LINE
8
BLACK
6
CONTINUOUS
10
9.23748
20
-5.41429
11
9.2377
21
-5.41464
0
LINE
8
BLACK
6
CONTINUOUS
10
9.2377
20
-5.41464
11
9.23795
21
-5.41496
0
LINE
8
BLACK
6
CONTINUOUS
10
9.23795
20
-5.41496
11
9.23821
21
-5.41545
0
LINE
8
BLACK
6
CONTINUOUS
10
9.23821
20
-5.41545
11
9.2385
21
-5.41592
0
LINE
8
BLACK
6
CONTINUOUS
10
9.2385
20
-5.41592
11
9.24787
21
-5.43467
0
LINE
8
BLACK
6
CONTINUOUS
10
9.24787
20
-5.43467
11
9.24793
21
-5.43479
0
LINE
8
BLACK
6
CONTINUOUS
10
9.24793
20
-5.43479
11
9.24795
21
-5.43483
0
LINE
8
BLACK
6
CONTINUOUS
10
9.24795
20
-5.43483
11
9.24797
21
-5.43487
0
LINE
8
BLACK
6
CONTINUOUS
10
9.24797
20
-5.43487
11
9.24828
21
-5.43573
0
LINE
8
BLACK
6
CONTINUOUS
10
9.24828
20
-5.43573
11
9.2486
21
-5.43659
0
LINE
8
BLACK
6
CONTINUOUS
10
9.2486
20
-5.43659
11
9.2486
21
-5.43664
0
LINE
8
BLACK
6
CONTINUOUS
10
9.2486
20
-5.43664
11
9.24862
21
-5.43668
0
LINE
8
BLACK
6
CONTINUOUS
10
9.24862
20
-5.43668
11
9.25799
21
-5.47418
0
LINE
8
BLACK
6
CONTINUOUS
10
9.25799
20
-5.47418
11
9.25802
21
-5.47431
0
LINE
8
BLACK
6
CONTINUOUS
10
9.25802
20
-5.47431
11
9.25805
21
-5.47449
0
LINE
8
BLACK
6
CONTINUOUS
10
9.25805
20
-5.47449
11
9.2581
21
-5.47465
0
LINE
8
BLACK
6
CONTINUOUS
10
9.2581
20
-5.47465
11
9.25818
21
-5.47544
0
LINE
8
BLACK
6
CONTINUOUS
10
9.25818
20
-5.47544
11
9.25828
21
-5.47622
0
LINE
8
BLACK
6
CONTINUOUS
10
9.25828
20
-5.47622
11
9.25827
21
-5.47639
0
LINE
8
BLACK
6
CONTINUOUS
10
9.25827
20
-5.47639
11
9.25829
21
-5.47657
0
LINE
8
BLACK
6
CONTINUOUS
10
9.25829
20
-5.47657
11
9.25829
21
-5.50469
0
LINE
8
BLACK
6
CONTINUOUS
10
9.25829
20
-5.50469
11
9.25829
21
-5.50482
0
LINE
8
BLACK
6
CONTINUOUS
10
9.25829
20
-5.50482
11
9.25827
21
-5.505
0
LINE
8
BLACK
6
CONTINUOUS
10
9.25827
20
-5.505
11
9.25827
21
-5.50517
0
LINE
8
BLACK
6
CONTINUOUS
10
9.25827
20
-5.50517
11
9.25816
21
-5.50595
0
LINE
8
BLACK
6
CONTINUOUS
10
9.25816
20
-5.50595
11
9.25807
21
-5.50673
0
LINE
8
BLACK
6
CONTINUOUS
10
9.25807
20
-5.50673
11
9.25802
21
-5.5069
0
LINE
8
BLACK
6
CONTINUOUS
10
9.25802
20
-5.5069
11
9.25799
21
-5.50707
0
LINE
8
BLACK
6
CONTINUOUS
10
9.25799
20
-5.50707
11
9.24862
21
-5.54457
0
LINE
8
BLACK
6
CONTINUOUS
10
9.24862
20
-5.54457
11
9.24858
21
-5.5447
0
LINE
8
BLACK
6
CONTINUOUS
10
9.24858
20
-5.5447
11
9.24857
21
-5.54475
0
LINE
8
BLACK
6
CONTINUOUS
10
9.24857
20
-5.54475
11
9.24856
21
-5.54479
0
LINE
8
BLACK
6
CONTINUOUS
10
9.24856
20
-5.54479
11
9.24823
21
-5.54565
0
LINE
8
BLACK
6
CONTINUOUS
10
9.24823
20
-5.54565
11
9.24791
21
-5.5465
0
LINE
8
BLACK
6
CONTINUOUS
10
9.24791
20
-5.5465
11
9.24789
21
-5.54654
0
LINE
8
BLACK
6
CONTINUOUS
10
9.24789
20
-5.54654
11
9.24787
21
-5.54658
0
LINE
8
BLACK
6
CONTINUOUS
10
9.24787
20
-5.54658
11
9.2385
21
-5.56533
0
LINE
8
BLACK
6
CONTINUOUS
10
9.2385
20
-5.56533
11
9.23844
21
-5.56545
0
LINE
8
BLACK
6
CONTINUOUS
10
9.23844
20
-5.56545
11
9.23814
21
-5.56592
0
LINE
8
BLACK
6
CONTINUOUS
10
9.23814
20
-5.56592
11
9.23788
21
-5.56641
0
LINE
8
BLACK
6
CONTINUOUS
10
9.23788
20
-5.56641
11
9.23762
21
-5.56672
0
LINE
8
BLACK
6
CONTINUOUS
10
9.23762
20
-5.56672
11
9.23739
21
-5.56707
0
LINE
8
BLACK
6
CONTINUOUS
10
9.23739
20
-5.56707
11
9.23701
21
-5.56746
0
LINE
8
BLACK
6
CONTINUOUS
10
9.23701
20
-5.56746
11
9.23666
21
-5.56789
0
LINE
8
BLACK
6
CONTINUOUS
10
9.23666
20
-5.56789
11
9.21791
21
-5.58664
0
LINE
8
BLACK
6
CONTINUOUS
10
9.21791
20
-5.58664
11
9.21781
21
-5.58673
0
LINE
8
BLACK
6
CONTINUOUS
10
9.21781
20
-5.58673
11
9.21758
21
-5.58691
0
LINE
8
BLACK
6
CONTINUOUS
10
9.21758
20
-5.58691
11
9.21738
21
-5.58712
0
LINE
8
BLACK
6
CONTINUOUS
10
9.21738
20
-5.58712
11
9.21683
21
-5.58751
0
LINE
8
BLACK
6
CONTINUOUS
10
9.21683
20
-5.58751
11
9.21631
21
-5.58793
0
LINE
8
BLACK
6
CONTINUOUS
10
9.21631
20
-5.58793
11
9.21605
21
-5.58807
0
LINE
8
BLACK
6
CONTINUOUS
10
9.21605
20
-5.58807
11
9.21582
21
-5.58823
0
LINE
8
BLACK
6
CONTINUOUS
10
9.21582
20
-5.58823
11
9.2152
21
-5.58851
0
LINE
8
BLACK
6
CONTINUOUS
10
9.2152
20
-5.58851
11
9.2146
21
-5.58882
0
LINE
8
BLACK
6
CONTINUOUS
10
9.2146
20
-5.58882
11
9.21433
21
-5.5889
0
LINE
8
BLACK
6
CONTINUOUS
10
9.21433
20
-5.5889
11
9.21406
21
-5.58901
0
LINE
8
BLACK
6
CONTINUOUS
10
9.21406
20
-5.58901
11
9.18594
21
-5.59839
0
LINE
8
BLACK
6
CONTINUOUS
10
9.18594
20
-5.59839
11
9.18581
21
-5.59843
0
LINE
8
BLACK
6
CONTINUOUS
10
9.18581
20
-5.59843
11
9.18527
21
-5.59855
0
LINE
8
BLACK
6
CONTINUOUS
10
9.18527
20
-5.59855
11
9.18474
21
-5.59871
0
LINE
8
BLACK
6
CONTINUOUS
10
9.18474
20
-5.59871
11
9.18433
21
-5.59875
0
LINE
8
BLACK
6
CONTINUOUS
10
9.18433
20
-5.59875
11
9.18393
21
-5.59883
0
LINE
8
BLACK
6
CONTINUOUS
10
9.18393
20
-5.59883
11
9.18338
21
-5.59884
0
LINE
8
BLACK
6
CONTINUOUS
10
9.18338
20
-5.59884
11
9.18283
21
-5.59889
0
LINE
8
BLACK
6
CONTINUOUS
10
9.18283
20
-5.59889
11
9.13596
21
-5.59889
0
LINE
8
BLACK
6
CONTINUOUS
10
9.13596
20
-5.59889
11
9.13589
21
-5.59889
0
LINE
8
BLACK
6
CONTINUOUS
10
9.13589
20
-5.59889
11
9.13589
21
-5.59889
0
LINE
8
BLACK
6
CONTINUOUS
10
9.13589
20
-5.59889
11
9.13589
21
-5.59889
0
LINE
8
BLACK
6
CONTINUOUS
10
9.13589
20
-5.59889
11
9.13582
21
-5.59889
0
LINE
8
BLACK
6
CONTINUOUS
10
9.13582
20
-5.59889
11
9.1349
21
-5.59879
0
LINE
8
BLACK
6
CONTINUOUS
10
9.1349
20
-5.59879
11
9.13398
21
-5.59869
0
LINE
8
BLACK
6
CONTINUOUS
10
9.13398
20
-5.59869
11
9.13395
21
-5.59868
0
LINE
8
BLACK
6
CONTINUOUS
10
9.13395
20
-5.59868
11
9.13391
21
-5.59868
0
LINE
8
BLACK
6
CONTINUOUS
10
9.13391
20
-5.59868
11
9.13303
21
-5.5984
0
LINE
8
BLACK
6
CONTINUOUS
10
9.13303
20
-5.5984
11
9.13214
21
-5.59812
0
LINE
8
BLACK
6
CONTINUOUS
10
9.13214
20
-5.59812
11
9.13211
21
-5.59811
0
LINE
8
BLACK
6
CONTINUOUS
10
9.13211
20
-5.59811
11
9.13208
21
-5.5981
0
LINE
8
BLACK
6
CONTINUOUS
10
9.13208
20
-5.5981
11
9.13127
21
-5.59765
0
LINE
8
BLACK
6
CONTINUOUS
10
9.13127
20
-5.59765
11
9.13045
21
-5.59721
0
LINE
8
BLACK
6
CONTINUOUS
10
9.13045
20
-5.59721
11
9.13043
21
-5.59719
0
LINE
8
BLACK
6
CONTINUOUS
10
9.13043
20
-5.59719
11
9.1304
21
-5.59717
0
LINE
8
BLACK
6
CONTINUOUS
10
9.1304
20
-5.59717
11
9.12969
21
-5.59658
0
LINE
8
BLACK
6
CONTINUOUS
10
9.12969
20
-5.59658
11
9.12897
21
-5.59599
0
LINE
8
BLACK
6
CONTINUOUS
10
9.12897
20
-5.59599
11
9.12895
21
-5.59596
0
LINE
8
BLACK
6
CONTINUOUS
10
9.12895
20
-5.59596
11
9.12893
21
-5.59594
0
LINE
8
BLACK
6
CONTINUOUS
10
9.12893
20
-5.59594
11
9.12835
21
-5.59522
0
LINE
8
BLACK
6
CONTINUOUS
10
9.12835
20
-5.59522
11
9.12776
21
-5.5945
0
LINE
8
BLACK
6
CONTINUOUS
10
9.12776
20
-5.5945
11
9.12774
21
-5.59447
0
LINE
8
BLACK
6
CONTINUOUS
10
9.12774
20
-5.59447
11
9.12772
21
-5.59444
0
LINE
8
BLACK
6
CONTINUOUS
10
9.12772
20
-5.59444
11
9.12729
21
-5.59362
0
LINE
8
BLACK
6
CONTINUOUS
10
9.12729
20
-5.59362
11
9.12686
21
-5.5928
0
LINE
8
BLACK
6
CONTINUOUS
10
9.12686
20
-5.5928
11
9.12685
21
-5.59277
0
LINE
8
BLACK
6
CONTINUOUS
10
9.12685
20
-5.59277
11
9.12683
21
-5.59274
0
LINE
8
BLACK
6
CONTINUOUS
10
9.12683
20
-5.59274
11
9.12657
21
-5.59185
0
LINE
8
BLACK
6
CONTINUOUS
10
9.12657
20
-5.59185
11
9.1263
21
-5.59096
0
LINE
8
BLACK
6
CONTINUOUS
10
9.1263
20
-5.59096
11
9.1263
21
-5.59093
0
LINE
8
BLACK
6
CONTINUOUS
10
9.1263
20
-5.59093
11
9.12629
21
-5.5909
0
LINE
8
BLACK
6
CONTINUOUS
10
9.12629
20
-5.5909
11
9.12621
21
-5.58997
0
LINE
8
BLACK
6
CONTINUOUS
10
9.12621
20
-5.58997
11
9.12612
21
-5.58905
0
LINE
8
BLACK
6
CONTINUOUS
10
9.12612
20
-5.58905
11
9.12612
21
-5.3922
0
LINE
8
BLACK
6
CONTINUOUS
10
9.12612
20
-5.3922
11
9.12612
21
-5.39213
0
LINE
8
BLACK
6
CONTINUOUS
10
9.12612
20
-5.39213
11
9.12612
21
-5.39213
0
LINE
8
BLACK
6
CONTINUOUS
10
9.12612
20
-5.39213
11
9.12612
21
-5.39213
0
LINE
8
BLACK
6
CONTINUOUS
10
9.12612
20
-5.39213
11
9.12612
21
-5.39206
0
LINE
8
BLACK
6
CONTINUOUS
10
9.12612
20
-5.39206
11
9.12622
21
-5.39114
0
LINE
8
BLACK
6
CONTINUOUS
10
9.12622
20
-5.39114
11
9.12632
21
-5.39022
0
LINE
8
BLACK
6
CONTINUOUS
10
9.12632
20
-5.39022
11
9.12633
21
-5.39019
0
LINE
8
BLACK
6
CONTINUOUS
10
9.12633
20
-5.39019
11
9.12633
21
-5.39015
0
LINE
8
BLACK
6
CONTINUOUS
10
9.12633
20
-5.39015
11
9.12661
21
-5.38927
0
LINE
8
BLACK
6
CONTINUOUS
10
9.12661
20
-5.38927
11
9.12688
21
-5.38839
0
LINE
8
BLACK
6
CONTINUOUS
10
9.12688
20
-5.38839
11
9.1269
21
-5.38836
0
LINE
8
BLACK
6
CONTINUOUS
10
9.1269
20
-5.38836
11
9.12691
21
-5.38832
0
LINE
8
BLACK
6
CONTINUOUS
10
9.12691
20
-5.38832
11
9.12736
21
-5.38751
0
LINE
8
BLACK
6
CONTINUOUS
10
9.12736
20
-5.38751
11
9.1278
21
-5.3867
0
LINE
8
BLACK
6
CONTINUOUS
10
9.1278
20
-5.3867
11
9.12782
21
-5.38667
0
LINE
8
BLACK
6
CONTINUOUS
10
9.12782
20
-5.38667
11
9.12784
21
-5.38664
0
LINE
8
BLACK
6
CONTINUOUS
10
9.12784
20
-5.38664
11
9.12843
21
-5.38593
0
LINE
8
BLACK
6
CONTINUOUS
10
9.12843
20
-5.38593
11
9.12902
21
-5.38522
0
LINE
8
BLACK
6
CONTINUOUS
10
9.12902
20
-5.38522
11
9.12905
21
-5.3852
0
LINE
8
BLACK
6
CONTINUOUS
10
9.12905
20
-5.3852
11
9.12907
21
-5.38517
0
LINE
8
BLACK
6
CONTINUOUS
10
9.12907
20
-5.38517
11
9.12979
21
-5.38459
0
LINE
8
BLACK
6
CONTINUOUS
10
9.12979
20
-5.38459
11
9.13051
21
-5.384
0
LINE
8
BLACK
6
CONTINUOUS
10
9.13051
20
-5.384
11
9.13054
21
-5.38399
0
LINE
8
BLACK
6
CONTINUOUS
10
9.13054
20
-5.38399
11
9.13057
21
-5.38397
0
LINE
8
BLACK
6
CONTINUOUS
10
9.13057
20
-5.38397
11
9.13139
21
-5.38354
0
LINE
8
BLACK
6
CONTINUOUS
10
9.13139
20
-5.38354
11
9.13221
21
-5.3831
0
LINE
8
BLACK
6
CONTINUOUS
10
9.13221
20
-5.3831
11
9.13224
21
-5.38309
0
LINE
8
BLACK
6
CONTINUOUS
10
9.13224
20
-5.38309
11
9.13227
21
-5.38308
0
LINE
8
BLACK
6
CONTINUOUS
10
9.13227
20
-5.38308
11
9.13316
21
-5.38281
0
LINE
8
BLACK
6
CONTINUOUS
10
9.13316
20
-5.38281
11
9.13405
21
-5.38255
0
LINE
8
BLACK
6
CONTINUOUS
10
9.13405
20
-5.38255
11
9.13408
21
-5.38254
0
LINE
8
BLACK
6
CONTINUOUS
10
9.13408
20
-5.38254
11
9.13411
21
-5.38253
0
LINE
8
BLACK
6
CONTINUOUS
10
9.13411
20
-5.38253
11
9.13504
21
-5.38245
0
LINE
8
BLACK
6
CONTINUOUS
10
9.13504
20
-5.38245
11
9.13596
21
-5.38236
0
LINE
8
BLACK
6
CONTINUOUS
10
9.13596
20
-5.38236
11
9.18283
21
-5.38236
0
LINE
8
BLACK
6
CONTINUOUS
10
9.18283
20
-5.38236
11
9.18296
21
-5.38236
0
LINE
8
BLACK
6
CONTINUOUS
10
9.1458
20
-5.40204
11
9.1458
21
-5.57921
0
LINE
8
BLACK
6
CONTINUOUS
10
9.1458
20
-5.57921
11
9.18123
21
-5.57921
0
LINE
8
BLACK
6
CONTINUOUS
10
9.18123
20
-5.57921
11
9.20563
21
-5.57107
0
LINE
8
BLACK
6
CONTINUOUS
10
9.20563
20
-5.57107
11
9.22161
21
-5.5551
0
LINE
8
BLACK
6
CONTINUOUS
10
9.22161
20
-5.5551
11
9.22978
21
-5.53875
0
LINE
8
BLACK
6
CONTINUOUS
10
9.22978
20
-5.53875
11
9.2386
21
-5.50348
0
LINE
8
BLACK
6
CONTINUOUS
10
9.2386
20
-5.50348
11
9.2386
21
-5.47778
0
LINE
8
BLACK
6
CONTINUOUS
10
9.2386
20
-5.47778
11
9.22978
21
-5.44251
0
LINE
8
BLACK
6
CONTINUOUS
10
9.22978
20
-5.44251
11
9.22161
21
-5.42615
0
LINE
8
BLACK
6
CONTINUOUS
10
9.22161
20
-5.42615
11
9.20563
21
-5.41018
0
LINE
8
BLACK
6
CONTINUOUS
10
9.20563
20
-5.41018
11
9.18123
21
-5.40204
0
LINE
8
BLACK
6
CONTINUOUS
10
9.18123
20
-5.40204
11
9.1458
21
-5.40204
0
LINE
8
BLACK
6
CONTINUOUS
10
7.15331
20
-5.38236
11
7.15386
21
-5.38242
0
LINE
8
BLACK
6
CONTINUOUS
10
7.15386
20
-5.38242
11
7.15441
21
-5.38244
0
LINE
8
BLACK
6
CONTINUOUS
10
7.15441
20
-5.38244
11
7.15481
21
-5.38253
0
LINE
8
BLACK
6
CONTINUOUS
10
7.15481
20
-5.38253
11
7.15521
21
-5.38257
0
LINE
8
BLACK
6
CONTINUOUS
10
7.15521
20
-5.38257
11
7.15574
21
-5.38274
0
LINE
8
BLACK
6
CONTINUOUS
10
7.15574
20
-5.38274
11
7.15628
21
-5.38286
0
LINE
8
BLACK
6
CONTINUOUS
10
7.15628
20
-5.38286
11
7.1844
21
-5.39224
0
LINE
8
BLACK
6
CONTINUOUS
10
7.1844
20
-5.39224
11
7.18453
21
-5.39228
0
LINE
8
BLACK
6
CONTINUOUS
10
7.18453
20
-5.39228
11
7.1848
21
-5.3924
0
LINE
8
BLACK
6
CONTINUOUS
10
7.1848
20
-5.3924
11
7.18507
21
-5.39249
0
LINE
8
BLACK
6
CONTINUOUS
10
7.18507
20
-5.39249
11
7.18567
21
-5.39281
0
LINE
8
BLACK
6
CONTINUOUS
10
7.18567
20
-5.39281
11
7.18628
21
-5.39309
0
LINE
8
BLACK
6
CONTINUOUS
10
7.18628
20
-5.39309
11
7.18651
21
-5.39326
0
LINE
8
BLACK
6
CONTINUOUS
10
7.18651
20
-5.39326
11
7.18677
21
-5.3934
0
LINE
8
BLACK
6
CONTINUOUS
10
7.18677
20
-5.3934
11
7.18729
21
-5.39382
0
LINE
8
BLACK
6
CONTINUOUS
10
7.18729
20
-5.39382
11
7.18783
21
-5.39422
0
LINE
8
BLACK
6
CONTINUOUS
10
7.18783
20
-5.39422
11
7.18803
21
-5.39443
0
LINE
8
BLACK
6
CONTINUOUS
10
7.18803
20
-5.39443
11
7.18825
21
-5.39462
0
LINE
8
BLACK
6
CONTINUOUS
10
7.18825
20
-5.39462
11
7.207
21
-5.41336
0
LINE
8
BLACK
6
CONTINUOUS
10
7.207
20
-5.41336
11
7.20709
21
-5.41346
0
LINE
8
BLACK
6
CONTINUOUS
10
7.20709
20
-5.41346
11
7.20744
21
-5.41389
0
LINE
8
BLACK
6
CONTINUOUS
10
7.20744
20
-5.41389
11
7.20782
21
-5.41429
0
LINE
8
BLACK
6
CONTINUOUS
10
7.20782
20
-5.41429
11
7.20804
21
-5.41464
0
LINE
8
BLACK
6
CONTINUOUS
10
7.20804
20
-5.41464
11
7.20829
21
-5.41496
0
LINE
8
BLACK
6
CONTINUOUS
10
7.20829
20
-5.41496
11
7.20855
21
-5.41545
0
LINE
8
BLACK
6
CONTINUOUS
10
7.20855
20
-5.41545
11
7.20884
21
-5.41592
0
LINE
8
BLACK
6
CONTINUOUS
10
7.20884
20
-5.41592
11
7.21821
21
-5.43467
0
LINE
8
BLACK
6
CONTINUOUS
10
7.21821
20
-5.43467
11
7.21828
21
-5.43479
0
LINE
8
BLACK
6
CONTINUOUS
10
7.21828
20
-5.43479
11
7.21829
21
-5.43483
0
LINE
8
BLACK
6
CONTINUOUS
10
7.21829
20
-5.43483
11
7.21831
21
-5.43487
0
LINE
8
BLACK
6
CONTINUOUS
10
7.21831
20
-5.43487
11
7.21862
21
-5.43574
0
LINE
8
BLACK
6
CONTINUOUS
10
7.21862
20
-5.43574
11
7.21894
21
-5.43659
0
LINE
8
BLACK
6
CONTINUOUS
10
7.21894
20
-5.43659
11
7.21894
21
-5.43664
0
LINE
8
BLACK
6
CONTINUOUS
10
7.21894
20
-5.43664
11
7.21896
21
-5.43668
0
LINE
8
BLACK
6
CONTINUOUS
10
7.21896
20
-5.43668
11
7.22833
21
-5.47418
0
LINE
8
BLACK
6
CONTINUOUS
10
7.22833
20
-5.47418
11
7.22837
21
-5.47431
0
LINE
8
BLACK
6
CONTINUOUS
10
7.22837
20
-5.47431
11
7.22839
21
-5.47449
0
LINE
8
BLACK
6
CONTINUOUS
10
7.22839
20
-5.47449
11
7.22844
21
-5.47465
0
LINE
8
BLACK
6
CONTINUOUS
10
7.22844
20
-5.47465
11
7.22852
21
-5.47544
0
LINE
8
BLACK
6
CONTINUOUS
10
7.22852
20
-5.47544
11
7.22862
21
-5.47622
0
LINE
8
BLACK
6
CONTINUOUS
10
7.22862
20
-5.47622
11
7.22861
21
-5.47639
0
LINE
8
BLACK
6
CONTINUOUS
10
7.22861
20
-5.47639
11
7.22863
21
-5.47657
0
LINE
8
BLACK
6
CONTINUOUS
10
7.22863
20
-5.47657
11
7.22863
21
-5.50469
0
LINE
8
BLACK
6
CONTINUOUS
10
7.22863
20
-5.50469
11
7.22863
21
-5.50482
0
LINE
8
BLACK
6
CONTINUOUS
10
7.22863
20
-5.50482
11
7.22861
21
-5.505
0
LINE
8
BLACK
6
CONTINUOUS
10
7.22861
20
-5.505
11
7.22862
21
-5.50517
0
LINE
8
BLACK
6
CONTINUOUS
10
7.22862
20
-5.50517
11
7.2285
21
-5.50595
0
LINE
8
BLACK
6
CONTINUOUS
10
7.2285
20
-5.50595
11
7.22841
21
-5.50673
0
LINE
8
BLACK
6
CONTINUOUS
10
7.22841
20
-5.50673
11
7.22836
21
-5.5069
0
LINE
8
BLACK
6
CONTINUOUS
10
7.22836
20
-5.5069
11
7.22833
21
-5.50707
0
LINE
8
BLACK
6
CONTINUOUS
10
7.22833
20
-5.50707
11
7.21896
21
-5.54457
0
LINE
8
BLACK
6
CONTINUOUS
10
7.21896
20
-5.54457
11
7.21893
21
-5.5447
0
LINE
8
BLACK
6
CONTINUOUS
10
7.21893
20
-5.5447
11
7.21891
21
-5.54475
0
LINE
8
BLACK
6
CONTINUOUS
10
7.21891
20
-5.54475
11
7.2189
21
-5.54479
0
LINE
8
BLACK
6
CONTINUOUS
10
7.2189
20
-5.54479
11
7.21857
21
-5.54565
0
LINE
8
BLACK
6
CONTINUOUS
10
7.21857
20
-5.54565
11
7.21825
21
-5.5465
0
LINE
8
BLACK
6
CONTINUOUS
10
7.21825
20
-5.5465
11
7.21823
21
-5.54654
0
LINE
8
BLACK
6
CONTINUOUS
10
7.21823
20
-5.54654
11
7.21821
21
-5.54658
0
LINE
8
BLACK
6
CONTINUOUS
10
7.21821
20
-5.54658
11
7.20884
21
-5.56533
0
LINE
8
BLACK
6
CONTINUOUS
10
7.20884
20
-5.56533
11
7.20878
21
-5.56545
0
LINE
8
BLACK
6
CONTINUOUS
10
7.20878
20
-5.56545
11
7.20848
21
-5.56592
0
LINE
8
BLACK
6
CONTINUOUS
10
7.20848
20
-5.56592
11
7.20822
21
-5.56641
0
LINE
8
BLACK
6
CONTINUOUS
10
7.20822
20
-5.56641
11
7.20796
21
-5.56672
0
LINE
8
BLACK
6
CONTINUOUS
10
7.20796
20
-5.56672
11
7.20773
21
-5.56707
0
LINE
8
BLACK
6
CONTINUOUS
10
7.20773
20
-5.56707
11
7.20735
21
-5.56746
0
LINE
8
BLACK
6
CONTINUOUS
10
7.20735
20
-5.56746
11
7.207
21
-5.56789
0
LINE
8
BLACK
6
CONTINUOUS
10
7.207
20
-5.56789
11
7.18825
21
-5.58664
0
LINE
8
BLACK
6
CONTINUOUS
10
7.18825
20
-5.58664
11
7.18815
21
-5.58673
0
LINE
8
BLACK
6
CONTINUOUS
10
7.18815
20
-5.58673
11
7.18793
21
-5.58691
0
LINE
8
BLACK
6
CONTINUOUS
10
7.18793
20
-5.58691
11
7.18773
21
-5.58712
0
LINE
8
BLACK
6
CONTINUOUS
10
7.18773
20
-5.58712
11
7.18718
21
-5.58751
0
LINE
8
BLACK
6
CONTINUOUS
10
7.18718
20
-5.58751
11
7.18665
21
-5.58793
0
LINE
8
BLACK
6
CONTINUOUS
10
7.18665
20
-5.58793
11
7.18639
21
-5.58807
0
LINE
8
BLACK
6
CONTINUOUS
10
7.18639
20
-5.58807
11
7.18616
21
-5.58823
0
LINE
8
BLACK
6
CONTINUOUS
10
7.18616
20
-5.58823
11
7.18554
21
-5.58851
0
LINE
8
BLACK
6
CONTINUOUS
10
7.18554
20
-5.58851
11
7.18494
21
-5.58882
0
LINE
8
BLACK
6
CONTINUOUS
10
7.18494
20
-5.58882
11
7.18467
21
-5.5889
0
LINE
8
BLACK
6
CONTINUOUS
10
7.18467
20
-5.5889
11
7.1844
21
-5.58901
0
LINE
8
BLACK
6
CONTINUOUS
10
7.1844
20
-5.58901
11
7.15628
21
-5.59839
0
LINE
8
BLACK
6
CONTINUOUS
10
7.15628
20
-5.59839
11
7.15615
21
-5.59843
0
LINE
8
BLACK
6
CONTINUOUS
10
7.15615
20
-5.59843
11
7.15561
21
-5.59855
0
LINE
8
BLACK
6
CONTINUOUS
10
7.15561
20
-5.59855
11
7.15508
21
-5.59871
0
LINE
8
BLACK
6
CONTINUOUS
10
7.15508
20
-5.59871
11
7.15467
21
-5.59875
0
LINE
8
BLACK
6
CONTINUOUS
10
7.15467
20
-5.59875
11
7.15427
21
-5.59883
0
LINE
8
BLACK
6
CONTINUOUS
10
7.15427
20
-5.59883
11
7.15372
21
-5.59884
0
LINE
8
BLACK
6
CONTINUOUS
10
7.15372
20
-5.59884
11
7.15317
21
-5.59889
0
LINE
8
BLACK
6
CONTINUOUS
10
7.15317
20
-5.59889
11
7.1063
21
-5.59889
0
LINE
8
BLACK
6
CONTINUOUS
10
7.1063
20
-5.59889
11
7.10623
21
-5.59889
0
LINE
8
BLACK
6
CONTINUOUS
10
7.10623
20
-5.59889
11
7.10623
21
-5.59889
0
LINE
8
BLACK
6
CONTINUOUS
10
7.10623
20
-5.59889
11
7.10623
21
-5.59889
0
LINE
8
BLACK
6
CONTINUOUS
10
7.10623
20
-5.59889
11
7.10616
21
-5.59889
0
LINE
8
BLACK
6
CONTINUOUS
10
7.10616
20
-5.59889
11
7.10524
21
-5.59879
0
LINE
8
BLACK
6
CONTINUOUS
10
7.10524
20
-5.59879
11
7.10432
21
-5.59869
0
LINE
8
BLACK
6
CONTINUOUS
10
7.10432
20
-5.59869
11
7.10429
21
-5.59868
0
LINE
8
BLACK
6
CONTINUOUS
10
7.10429
20
-5.59868
11
7.10425
21
-5.59868
0
LINE
8
BLACK
6
CONTINUOUS
10
7.10425
20
-5.59868
11
7.10337
21
-5.5984
0
LINE
8
BLACK
6
CONTINUOUS
10
7.10337
20
-5.5984
11
7.10249
21
-5.59812
0
LINE
8
BLACK
6
CONTINUOUS
10
7.10249
20
-5.59812
11
7.10245
21
-5.59811
0
LINE
8
BLACK
6
CONTINUOUS
10
7.10245
20
-5.59811
11
7.10242
21
-5.5981
0
LINE
8
BLACK
6
CONTINUOUS
10
7.10242
20
-5.5981
11
7.10161
21
-5.59765
0
LINE
8
BLACK
6
CONTINUOUS
10
7.10161
20
-5.59765
11
7.1008
21
-5.59721
0
LINE
8
BLACK
6
CONTINUOUS
10
7.1008
20
-5.59721
11
7.10077
21
-5.59719
0
LINE
8
BLACK
6
CONTINUOUS
10
7.10077
20
-5.59719
11
7.10074
21
-5.59717
0
LINE
8
BLACK
6
CONTINUOUS
10
7.10074
20
-5.59717
11
7.10003
21
-5.59658
0
LINE
8
BLACK
6
CONTINUOUS
10
7.10003
20
-5.59658
11
7.09932
21
-5.59599
0
LINE
8
BLACK
6
CONTINUOUS
10
7.09932
20
-5.59599
11
7.09929
21
-5.59596
0
LINE
8
BLACK
6
CONTINUOUS
10
7.09929
20
-5.59596
11
7.09927
21
-5.59594
0
LINE
8
BLACK
6
CONTINUOUS
10
7.09927
20
-5.59594
11
7.09869
21
-5.59522
0
LINE
8
BLACK
6
CONTINUOUS
10
7.09869
20
-5.59522
11
7.0981
21
-5.5945
0
LINE
8
BLACK
6
CONTINUOUS
10
7.0981
20
-5.5945
11
7.09809
21
-5.59447
0
LINE
8
BLACK
6
CONTINUOUS
10
7.09809
20
-5.59447
11
7.09806
21
-5.59444
0
LINE
8
BLACK
6
CONTINUOUS
10
7.09806
20
-5.59444
11
7.09763
21
-5.59362
0
LINE
8
BLACK
6
CONTINUOUS
10
7.09763
20
-5.59362
11
7.0972
21
-5.5928
0
LINE
8
BLACK
6
CONTINUOUS
10
7.0972
20
-5.5928
11
7.09719
21
-5.59277
0
LINE
8
BLACK
6
CONTINUOUS
10
7.09719
20
-5.59277
11
7.09717
21
-5.59274
0
LINE
8
BLACK
6
CONTINUOUS
10
7.09717
20
-5.59274
11
7.09691
21
-5.59185
0
LINE
8
BLACK
6
CONTINUOUS
10
7.09691
20
-5.59185
11
7.09664
21
-5.59096
0
LINE
8
BLACK
6
CONTINUOUS
10
7.09664
20
-5.59096
11
7.09664
21
-5.59093
0
LINE
8
BLACK
6
CONTINUOUS
10
7.09664
20
-5.59093
11
7.09663
21
-5.5909
0
LINE
8
BLACK
6
CONTINUOUS
10
7.09663
20
-5.5909
11
7.09655
21
-5.58997
0
LINE
8
BLACK
6
CONTINUOUS
10
7.09655
20
-5.58997
11
7.09646
21
-5.58905
0
LINE
8
BLACK
6
CONTINUOUS
10
7.09646
20
-5.58905
11
7.09646
21
-5.3922
0
LINE
8
BLACK
6
CONTINUOUS
10
7.09646
20
-5.3922
11
7.09646
21
-5.39213
0
LINE
8
BLACK
6
CONTINUOUS
10
7.09646
20
-5.39213
11
7.09646
21
-5.39213
0
LINE
8
BLACK
6
CONTINUOUS
10
7.09646
20
-5.39213
11
7.09646
21
-5.39213
0
LINE
8
BLACK
6
CONTINUOUS
10
7.09646
20
-5.39213
11
7.09646
21
-5.39206
0
LINE
8
BLACK
6
CONTINUOUS
10
7.09646
20
-5.39206
11
7.09656
21
-5.39114
0
LINE
8
BLACK
6
CONTINUOUS
10
7.09656
20
-5.39114
11
7.09666
21
-5.39022
0
LINE
8
BLACK
6
CONTINUOUS
10
7.09666
20
-5.39022
11
7.09667
21
-5.39019
0
LINE
8
BLACK
6
CONTINUOUS
10
7.09667
20
-5.39019
11
7.09667
21
-5.39015
0
LINE
8
BLACK
6
CONTINUOUS
10
7.09667
20
-5.39015
11
7.09695
21
-5.38927
0
LINE
8
BLACK
6
CONTINUOUS
10
7.09695
20
-5.38927
11
7.09723
21
-5.38839
0
LINE
8
BLACK
6
CONTINUOUS
10
7.09723
20
-5.38839
11
7.09724
21
-5.38836
0
LINE
8
BLACK
6
CONTINUOUS
10
7.09724
20
-5.38836
11
7.09725
21
-5.38832
0
LINE
8
BLACK
6
CONTINUOUS
10
7.09725
20
-5.38832
11
7.0977
21
-5.38751
0
LINE
8
BLACK
6
CONTINUOUS
10
7.0977
20
-5.38751
11
7.09814
21
-5.3867
0
LINE
8
BLACK
6
CONTINUOUS
10
7.09814
20
-5.3867
11
7.09816
21
-5.38667
0
LINE
8
BLACK
6
CONTINUOUS
10
7.09816
20
-5.38667
11
7.09818
21
-5.38664
0
LINE
8
BLACK
6
CONTINUOUS
10
7.09818
20
-5.38664
11
7.09877
21
-5.38593
0
LINE
8
BLACK
6
CONTINUOUS
10
7.09877
20
-5.38593
11
7.09936
21
-5.38522
0
LINE
8
BLACK
6
CONTINUOUS
10
7.09936
20
-5.38522
11
7.09939
21
-5.3852
0
LINE
8
BLACK
6
CONTINUOUS
10
7.09939
20
-5.3852
11
7.09941
21
-5.38517
0
LINE
8
BLACK
6
CONTINUOUS
10
7.09941
20
-5.38517
11
7.10013
21
-5.38459
0
LINE
8
BLACK
6
CONTINUOUS
10
7.10013
20
-5.38459
11
7.10085
21
-5.384
0
LINE
8
BLACK
6
CONTINUOUS
10
7.10085
20
-5.384
11
7.10088
21
-5.38399
0
LINE
8
BLACK
6
CONTINUOUS
10
7.10088
20
-5.38399
11
7.10091
21
-5.38397
0
LINE
8
BLACK
6
CONTINUOUS
10
7.10091
20
-5.38397
11
7.10173
21
-5.38354
0
LINE
8
BLACK
6
CONTINUOUS
10
7.10173
20
-5.38354
11
7.10255
21
-5.3831
0
LINE
8
BLACK
6
CONTINUOUS
10
7.10255
20
-5.3831
11
7.10258
21
-5.38309
0
LINE
8
BLACK
6
CONTINUOUS
10
7.10258
20
-5.38309
11
7.10261
21
-5.38308
0
LINE
8
BLACK
6
CONTINUOUS
10
7.10261
20
-5.38308
11
7.1035
21
-5.38281
0
LINE
8
BLACK
6
CONTINUOUS
10
7.1035
20
-5.38281
11
7.10439
21
-5.38255
0
LINE
8
BLACK
6
CONTINUOUS
10
7.10439
20
-5.38255
11
7.10442
21
-5.38254
0
LINE
8
BLACK
6
CONTINUOUS
10
7.10442
20
-5.38254
11
7.10445
21
-5.38253
0
LINE
8
BLACK
6
CONTINUOUS
10
7.10445
20
-5.38253
11
7.10538
21
-5.38245
0
LINE
8
BLACK
6
CONTINUOUS
10
7.10538
20
-5.38245
11
7.1063
21
-5.38236
0
LINE
8
BLACK
6
CONTINUOUS
10
7.1063
20
-5.38236
11
7.15317
21
-5.38236
0
LINE
8
BLACK
6
CONTINUOUS
10
7.15317
20
-5.38236
11
7.15331
21
-5.38236
0
LINE
8
BLACK
6
CONTINUOUS
10
7.11614
20
-5.40204
11
7.11614
21
-5.57921
0
LINE
8
BLACK
6
CONTINUOUS
10
7.11614
20
-5.57921
11
7.15157
21
-5.57921
0
LINE
8
BLACK
6
CONTINUOUS
10
7.15157
20
-5.57921
11
7.17597
21
-5.57107
0
LINE
8
BLACK
6
CONTINUOUS
10
7.17597
20
-5.57107
11
7.19195
21
-5.5551
0
LINE
8
BLACK
6
CONTINUOUS
10
7.19195
20
-5.5551
11
7.20012
21
-5.53875
0
LINE
8
BLACK
6
CONTINUOUS
10
7.20012
20
-5.53875
11
7.20894
21
-5.50348
0
LINE
8
BLACK
6
CONTINUOUS
10
7.20894
20
-5.50348
11
7.20894
21
-5.47778
0
LINE
8
BLACK
6
CONTINUOUS
10
7.20894
20
-5.47778
11
7.20012
21
-5.44251
0
LINE
8
BLACK
6
CONTINUOUS
10
7.20012
20
-5.44251
11
7.19195
21
-5.42615
0
LINE
8
BLACK
6
CONTINUOUS
10
7.19195
20
-5.42615
11
7.17597
21
-5.41018
0
LINE
8
BLACK
6
CONTINUOUS
10
7.17597
20
-5.41018
11
7.15157
21
-5.40204
0
LINE
8
BLACK
6
CONTINUOUS
10
7.15157
20
-5.40204
11
7.11614
21
-5.40204
0
LINE
8
BLACK
6
CONTINUOUS
10
6.91912
20
-5.38238
11
6.91934
21
-5.38237
0
LINE
8
BLACK
6
CONTINUOUS
10
6.91934
20
-5.38237
11
6.92007
21
-5.38248
0
LINE
8
BLACK
6
CONTINUOUS
10
6.92007
20
-5.38248
11
6.9208
21
-5.38256
0
LINE
8
BLACK
6
CONTINUOUS
10
6.9208
20
-5.38256
11
6.92102
21
-5.38263
0
LINE
8
BLACK
6
CONTINUOUS
10
6.92102
20
-5.38263
11
6.92124
21
-5.38266
0
LINE
8
BLACK
6
CONTINUOUS
10
6.92124
20
-5.38266
11
6.92193
21
-5.38291
0
LINE
8
BLACK
6
CONTINUOUS
10
6.92193
20
-5.38291
11
6.92264
21
-5.38313
0
LINE
8
BLACK
6
CONTINUOUS
10
6.92264
20
-5.38313
11
6.92284
21
-5.38323
0
LINE
8
BLACK
6
CONTINUOUS
10
6.92284
20
-5.38323
11
6.92305
21
-5.38331
0
LINE
8
BLACK
6
CONTINUOUS
10
6.92305
20
-5.38331
11
6.92368
21
-5.38369
0
LINE
8
BLACK
6
CONTINUOUS
10
6.92368
20
-5.38369
11
6.92433
21
-5.38404
0
LINE
8
BLACK
6
CONTINUOUS
10
6.92433
20
-5.38404
11
6.9245
21
-5.38418
0
LINE
8
BLACK
6
CONTINUOUS
10
6.9245
20
-5.38418
11
6.92469
21
-5.3843
0
LINE
8
BLACK
6
CONTINUOUS
10
6.92469
20
-5.3843
11
6.92524
21
-5.3848
0
LINE
8
BLACK
6
CONTINUOUS
10
6.92524
20
-5.3848
11
6.92581
21
-5.38527
0
LINE
8
BLACK
6
CONTINUOUS
10
6.92581
20
-5.38527
11
6.92595
21
-5.38544
0
LINE
8
BLACK
6
CONTINUOUS
10
6.92595
20
-5.38544
11
6.92612
21
-5.38559
0
LINE
8
BLACK
6
CONTINUOUS
10
6.92612
20
-5.38559
11
6.92655
21
-5.38618
0
LINE
8
BLACK
6
CONTINUOUS
10
6.92655
20
-5.38618
11
6.92702
21
-5.38675
0
LINE
8
BLACK
6
CONTINUOUS
10
6.92702
20
-5.38675
11
6.92713
21
-5.38695
0
LINE
8
BLACK
6
CONTINUOUS
10
6.92713
20
-5.38695
11
6.92726
21
-5.38713
0
LINE
8
BLACK
6
CONTINUOUS
10
6.92726
20
-5.38713
11
6.92758
21
-5.3878
0
LINE
8
BLACK
6
CONTINUOUS
10
6.92758
20
-5.3878
11
6.92792
21
-5.38845
0
LINE
8
BLACK
6
CONTINUOUS
10
6.92792
20
-5.38845
11
6.92799
21
-5.38867
0
LINE
8
BLACK
6
CONTINUOUS
10
6.92799
20
-5.38867
11
6.92808
21
-5.38887
0
LINE
8
BLACK
6
CONTINUOUS
10
6.92808
20
-5.38887
11
6.92826
21
-5.38958
0
LINE
8
BLACK
6
CONTINUOUS
10
6.92826
20
-5.38958
11
6.92848
21
-5.39029
0
LINE
8
BLACK
6
CONTINUOUS
10
6.92848
20
-5.39029
11
6.9285
21
-5.39051
0
LINE
8
BLACK
6
CONTINUOUS
10
6.9285
20
-5.39051
11
6.92855
21
-5.39073
0
LINE
8
BLACK
6
CONTINUOUS
10
6.92855
20
-5.39073
11
6.92859
21
-5.39147
0
LINE
8
BLACK
6
CONTINUOUS
10
6.92859
20
-5.39147
11
6.92867
21
-5.3922
0
LINE
8
BLACK
6
CONTINUOUS
10
6.92867
20
-5.3922
11
6.92867
21
-5.58905
0
LINE
8
BLACK
6
CONTINUOUS
10
6.92867
20
-5.58905
11
6.92866
21
-5.58919
0
LINE
8
BLACK
6
CONTINUOUS
10
6.92866
20
-5.58919
11
6.92845
21
-5.5911
0
LINE
8
BLACK
6
CONTINUOUS
10
6.92845
20
-5.5911
11
6.92787
21
-5.59293
0
LINE
8
BLACK
6
CONTINUOUS
10
6.92787
20
-5.59293
11
6.92694
21
-5.59461
0
LINE
8
BLACK
6
CONTINUOUS
10
6.92694
20
-5.59461
11
6.92571
21
-5.59608
0
LINE
8
BLACK
6
CONTINUOUS
10
6.92571
20
-5.59608
11
6.92421
21
-5.59729
0
LINE
8
BLACK
6
CONTINUOUS
10
6.92421
20
-5.59729
11
6.92251
21
-5.59818
0
LINE
8
BLACK
6
CONTINUOUS
10
6.92251
20
-5.59818
11
6.92067
21
-5.59872
0
LINE
8
BLACK
6
CONTINUOUS
10
6.92067
20
-5.59872
11
6.91875
21
-5.59889
0
LINE
8
BLACK
6
CONTINUOUS
10
6.91875
20
-5.59889
11
6.91684
21
-5.59869
0
LINE
8
BLACK
6
CONTINUOUS
10
6.91684
20
-5.59869
11
6.91501
21
-5.59812
0
LINE
8
BLACK
6
CONTINUOUS
10
6.91501
20
-5.59812
11
6.91332
21
-5.59721
0
LINE
8
BLACK
6
CONTINUOUS
10
6.91332
20
-5.59721
11
6.91184
21
-5.59599
0
LINE
8
BLACK
6
CONTINUOUS
10
6.91184
20
-5.59599
11
6.91062
21
-5.5945
0
LINE
8
BLACK
6
CONTINUOUS
10
6.91062
20
-5.5945
11
6.90972
21
-5.5928
0
LINE
8
BLACK
6
CONTINUOUS
10
6.90972
20
-5.5928
11
6.90917
21
-5.59096
0
LINE
8
BLACK
6
CONTINUOUS
10
6.90917
20
-5.59096
11
6.90898
21
-5.58905
0
LINE
8
BLACK
6
CONTINUOUS
10
6.90898
20
-5.58905
11
6.90898
21
-5.43657
0
LINE
8
BLACK
6
CONTINUOUS
10
6.90898
20
-5.43657
11
6.86212
21
-5.53697
0
LINE
8
BLACK
6
CONTINUOUS
10
6.86212
20
-5.53697
11
6.86207
21
-5.53709
0
LINE
8
BLACK
6
CONTINUOUS
10
6.86207
20
-5.53709
11
6.8618
21
-5.53753
0
LINE
8
BLACK
6
CONTINUOUS
10
6.8618
20
-5.53753
11
6.86157
21
-5.53799
0
LINE
8
BLACK
6
CONTINUOUS
10
6.86157
20
-5.53799
11
6.8613
21
-5.53835
0
LINE
8
BLACK
6
CONTINUOUS
10
6.8613
20
-5.53835
11
6.86106
21
-5.53873
0
LINE
8
BLACK
6
CONTINUOUS
10
6.86106
20
-5.53873
11
6.86072
21
-5.53911
0
LINE
8
BLACK
6
CONTINUOUS
10
6.86072
20
-5.53911
11
6.86041
21
-5.53952
0
LINE
8
BLACK
6
CONTINUOUS
10
6.86041
20
-5.53952
11
6.86007
21
-5.53982
0
LINE
8
BLACK
6
CONTINUOUS
10
6.86007
20
-5.53982
11
6.85976
21
-5.54015
0
LINE
8
BLACK
6
CONTINUOUS
10
6.85976
20
-5.54015
11
6.85935
21
-5.54045
0
LINE
8
BLACK
6
CONTINUOUS
10
6.85935
20
-5.54045
11
6.85897
21
-5.54079
0
LINE
8
BLACK
6
CONTINUOUS
10
6.85897
20
-5.54079
11
6.85858
21
-5.54102
0
LINE
8
BLACK
6
CONTINUOUS
10
6.85858
20
-5.54102
11
6.85821
21
-5.54128
0
LINE
8
BLACK
6
CONTINUOUS
10
6.85821
20
-5.54128
11
6.85775
21
-5.5415
0
LINE
8
BLACK
6
CONTINUOUS
10
6.85775
20
-5.5415
11
6.85731
21
-5.54176
0
LINE
8
BLACK
6
CONTINUOUS
10
6.85731
20
-5.54176
11
6.85688
21
-5.5419
0
LINE
8
BLACK
6
CONTINUOUS
10
6.85688
20
-5.5419
11
6.85647
21
-5.54209
0
LINE
8
BLACK
6
CONTINUOUS
10
6.85647
20
-5.54209
11
6.85597
21
-5.54222
0
LINE
8
BLACK
6
CONTINUOUS
10
6.85597
20
-5.54222
11
6.85549
21
-5.54238
0
LINE
8
BLACK
6
CONTINUOUS
10
6.85549
20
-5.54238
11
6.85504
21
-5.54244
0
LINE
8
BLACK
6
CONTINUOUS
10
6.85504
20
-5.54244
11
6.85461
21
-5.54255
0
LINE
8
BLACK
6
CONTINUOUS
10
6.85461
20
-5.54255
11
6.85409
21
-5.54257
0
LINE
8
BLACK
6
CONTINUOUS
10
6.85409
20
-5.54257
11
6.85359
21
-5.54264
0
LINE
8
BLACK
6
CONTINUOUS
10
6.85359
20
-5.54264
11
6.85314
21
-5.54262
0
LINE
8
BLACK
6
CONTINUOUS
10
6.85314
20
-5.54262
11
6.85269
21
-5.54264
0
LINE
8
BLACK
6
CONTINUOUS
10
6.85269
20
-5.54264
11
6.85218
21
-5.54256
0
LINE
8
BLACK
6
CONTINUOUS
10
6.85218
20
-5.54256
11
6.85167
21
-5.54253
0
LINE
8
BLACK
6
CONTINUOUS
10
6.85167
20
-5.54253
11
6.85123
21
-5.54242
0
LINE
8
BLACK
6
CONTINUOUS
10
6.85123
20
-5.54242
11
6.85079
21
-5.54235
0
LINE
8
BLACK
6
CONTINUOUS
10
6.85079
20
-5.54235
11
6.85031
21
-5.54218
0
LINE
8
BLACK
6
CONTINUOUS
10
6.85031
20
-5.54218
11
6.84981
21
-5.54205
0
LINE
8
BLACK
6
CONTINUOUS
10
6.84981
20
-5.54205
11
6.8494
21
-5.54185
0
LINE
8
BLACK
6
CONTINUOUS
10
6.8494
20
-5.54185
11
6.84898
21
-5.5417
0
LINE
8
BLACK
6
CONTINUOUS
10
6.84898
20
-5.5417
11
6.84854
21
-5.54143
0
LINE
8
BLACK
6
CONTINUOUS
10
6.84854
20
-5.54143
11
6.84808
21
-5.54121
0
LINE
8
BLACK
6
CONTINUOUS
10
6.84808
20
-5.54121
11
6.84772
21
-5.54094
0
LINE
8
BLACK
6
CONTINUOUS
10
6.84772
20
-5.54094
11
6.84734
21
-5.54071
0
LINE
8
BLACK
6
CONTINUOUS
10
6.84734
20
-5.54071
11
6.84696
21
-5.54036
0
LINE
8
BLACK
6
CONTINUOUS
10
6.84696
20
-5.54036
11
6.84655
21
-5.54006
0
LINE
8
BLACK
6
CONTINUOUS
10
6.84655
20
-5.54006
11
6.84625
21
-5.53972
0
LINE
8
BLACK
6
CONTINUOUS
10
6.84625
20
-5.53972
11
6.84591
21
-5.53942
0
LINE
8
BLACK
6
CONTINUOUS
10
6.84591
20
-5.53942
11
6.84561
21
-5.53901
0
LINE
8
BLACK
6
CONTINUOUS
10
6.84561
20
-5.53901
11
6.84526
21
-5.53862
0
LINE
8
BLACK
6
CONTINUOUS
10
6.84526
20
-5.53862
11
6.84504
21
-5.53824
0
LINE
8
BLACK
6
CONTINUOUS
10
6.84504
20
-5.53824
11
6.84477
21
-5.53788
0
LINE
8
BLACK
6
CONTINUOUS
10
6.84477
20
-5.53788
11
6.84455
21
-5.53741
0
LINE
8
BLACK
6
CONTINUOUS
10
6.84455
20
-5.53741
11
6.84429
21
-5.53697
0
LINE
8
BLACK
6
CONTINUOUS
10
6.84429
20
-5.53697
11
6.79743
21
-5.43657
0
LINE
8
BLACK
6
CONTINUOUS
10
6.79743
20
-5.43657
11
6.79743
21
-5.58905
0
LINE
8
BLACK
6
CONTINUOUS
10
6.79743
20
-5.58905
11
6.79743
21
-5.58919
0
LINE
8
BLACK
6
CONTINUOUS
10
6.79743
20
-5.58919
11
6.79722
21
-5.5911
0
LINE
8
BLACK
6
CONTINUOUS
10
6.79722
20
-5.5911
11
6.79664
21
-5.59293
0
LINE
8
BLACK
6
CONTINUOUS
10
6.79664
20
-5.59293
11
6.79571
21
-5.59461
0
LINE
8
BLACK
6
CONTINUOUS
10
6.79571
20
-5.59461
11
6.79448
21
-5.59608
0
LINE
8
BLACK
6
CONTINUOUS
10
6.79448
20
-5.59608
11
6.79298
21
-5.59729
0
LINE
8
BLACK
6
CONTINUOUS
10
6.79298
20
-5.59729
11
6.79128
21
-5.59818
0
LINE
8
BLACK
6
CONTINUOUS
10
6.79128
20
-5.59818
11
6.78943
21
-5.59872
0
LINE
8
BLACK
6
CONTINUOUS
10
6.78943
20
-5.59872
11
6.78752
21
-5.59889
0
LINE
8
BLACK
6
CONTINUOUS
10
6.78752
20
-5.59889
11
6.78561
21
-5.59869
0
LINE
8
BLACK
6
CONTINUOUS
10
6.78561
20
-5.59869
11
6.78377
21
-5.59812
0
LINE
8
BLACK
6
CONTINUOUS
10
6.78377
20
-5.59812
11
6.78209
21
-5.59721
0
LINE
8
BLACK
6
CONTINUOUS
10
6.78209
20
-5.59721
11
6.78061
21
-5.59599
0
LINE
8
BLACK
6
CONTINUOUS
10
6.78061
20
-5.59599
11
6.77939
21
-5.5945
0
LINE
8
BLACK
6
CONTINUOUS
10
6.77939
20
-5.5945
11
6.77849
21
-5.5928
0
LINE
8
BLACK
6
CONTINUOUS
10
6.77849
20
-5.5928
11
6.77793
21
-5.59096
0
LINE
8
BLACK
6
CONTINUOUS
10
6.77793
20
-5.59096
11
6.77775
21
-5.58905
0
LINE
8
BLACK
6
CONTINUOUS
10
6.77775
20
-5.58905
11
6.77775
21
-5.3922
0
LINE
8
BLACK
6
CONTINUOUS
10
6.77775
20
-5.3922
11
6.77775
21
-5.39206
0
LINE
8
BLACK
6
CONTINUOUS
10
6.77775
20
-5.39206
11
6.77783
21
-5.39133
0
LINE
8
BLACK
6
CONTINUOUS
10
6.77783
20
-5.39133
11
6.77788
21
-5.3906
0
LINE
8
BLACK
6
CONTINUOUS
10
6.77788
20
-5.3906
11
6.77794
21
-5.39038
0
LINE
8
BLACK
6
CONTINUOUS
10
6.77794
20
-5.39038
11
6.77796
21
-5.39015
0
LINE
8
BLACK
6
CONTINUOUS
10
6.77796
20
-5.39015
11
6.77818
21
-5.38945
0
LINE
8
BLACK
6
CONTINUOUS
10
6.77818
20
-5.38945
11
6.77837
21
-5.38874
0
LINE
8
BLACK
6
CONTINUOUS
10
6.77837
20
-5.38874
11
6.77847
21
-5.38854
0
LINE
8
BLACK
6
CONTINUOUS
10
6.77847
20
-5.38854
11
6.77854
21
-5.38832
0
LINE
8
BLACK
6
CONTINUOUS
10
6.77854
20
-5.38832
11
6.7789
21
-5.38768
0
LINE
8
BLACK
6
CONTINUOUS
10
6.7789
20
-5.38768
11
6.77922
21
-5.38702
0
LINE
8
BLACK
6
CONTINUOUS
10
6.77922
20
-5.38702
11
6.77936
21
-5.38684
0
LINE
8
BLACK
6
CONTINUOUS
10
6.77936
20
-5.38684
11
6.77947
21
-5.38664
0
LINE
8
BLACK
6
CONTINUOUS
10
6.77947
20
-5.38664
11
6.77994
21
-5.38608
0
LINE
8
BLACK
6
CONTINUOUS
10
6.77994
20
-5.38608
11
6.78039
21
-5.38549
0
LINE
8
BLACK
6
CONTINUOUS
10
6.78039
20
-5.38549
11
6.78056
21
-5.38534
0
LINE
8
BLACK
6
CONTINUOUS
10
6.78056
20
-5.38534
11
6.7807
21
-5.38517
0
LINE
8
BLACK
6
CONTINUOUS
10
6.7807
20
-5.38517
11
6.78128
21
-5.38471
0
LINE
8
BLACK
6
CONTINUOUS
10
6.78128
20
-5.38471
11
6.78183
21
-5.38422
0
LINE
8
BLACK
6
CONTINUOUS
10
6.78183
20
-5.38422
11
6.78202
21
-5.38411
0
LINE
8
BLACK
6
CONTINUOUS
10
6.78202
20
-5.38411
11
6.7822
21
-5.38397
0
LINE
8
BLACK
6
CONTINUOUS
10
6.7822
20
-5.38397
11
6.78285
21
-5.38362
0
LINE
8
BLACK
6
CONTINUOUS
10
6.78285
20
-5.38362
11
6.78349
21
-5.38325
0
LINE
8
BLACK
6
CONTINUOUS
10
6.78349
20
-5.38325
11
6.7837
21
-5.38318
0
LINE
8
BLACK
6
CONTINUOUS
10
6.7837
20
-5.38318
11
6.7839
21
-5.38308
0
LINE
8
BLACK
6
CONTINUOUS
10
6.7839
20
-5.38308
11
6.78461
21
-5.38287
0
LINE
8
BLACK
6
CONTINUOUS
10
6.78461
20
-5.38287
11
6.78531
21
-5.38263
0
LINE
8
BLACK
6
CONTINUOUS
10
6.78531
20
-5.38263
11
6.78553
21
-5.3826
0
LINE
8
BLACK
6
CONTINUOUS
10
6.78553
20
-5.3826
11
6.78574
21
-5.38253
0
LINE
8
BLACK
6
CONTINUOUS
10
6.78574
20
-5.38253
11
6.78648
21
-5.38247
0
LINE
8
BLACK
6
CONTINUOUS
10
6.78648
20
-5.38247
11
6.78721
21
-5.38237
0
LINE
8
BLACK
6
CONTINUOUS
10
6.78721
20
-5.38237
11
6.78743
21
-5.38238
0
LINE
8
BLACK
6
CONTINUOUS
10
6.78743
20
-5.38238
11
6.78766
21
-5.38236
0
LINE
8
BLACK
6
CONTINUOUS
10
6.78766
20
-5.38236
11
6.78839
21
-5.38244
0
LINE
8
BLACK
6
CONTINUOUS
10
6.78839
20
-5.38244
11
6.78913
21
-5.38248
0
LINE
8
BLACK
6
CONTINUOUS
10
6.78913
20
-5.38248
11
6.78934
21
-5.38254
0
LINE
8
BLACK
6
CONTINUOUS
10
6.78934
20
-5.38254
11
6.78957
21
-5.38256
0
LINE
8
BLACK
6
CONTINUOUS
10
6.78957
20
-5.38256
11
6.79027
21
-5.38278
0
LINE
8
BLACK
6
CONTINUOUS
10
6.79027
20
-5.38278
11
6.79098
21
-5.38296
0
LINE
8
BLACK
6
CONTINUOUS
10
6.79098
20
-5.38296
11
6.79119
21
-5.38306
0
LINE
8
BLACK
6
CONTINUOUS
10
6.79119
20
-5.38306
11
6.7914
21
-5.38313
0
LINE
8
BLACK
6
CONTINUOUS
10
6.7914
20
-5.38313
11
6.79205
21
-5.38348
0
LINE
8
BLACK
6
CONTINUOUS
10
6.79205
20
-5.38348
11
6.79271
21
-5.3838
0
LINE
8
BLACK
6
CONTINUOUS
10
6.79271
20
-5.3838
11
6.79289
21
-5.38393
0
LINE
8
BLACK
6
CONTINUOUS
10
6.79289
20
-5.38393
11
6.79309
21
-5.38404
0
LINE
8
BLACK
6
CONTINUOUS
10
6.79309
20
-5.38404
11
6.79366
21
-5.38451
0
LINE
8
BLACK
6
CONTINUOUS
10
6.79366
20
-5.38451
11
6.79425
21
-5.38495
0
LINE
8
BLACK
6
CONTINUOUS
10
6.79425
20
-5.38495
11
6.7944
21
-5.38512
0
LINE
8
BLACK
6
CONTINUOUS
10
6.7944
20
-5.38512
11
6.79457
21
-5.38527
0
LINE
8
BLACK
6
CONTINUOUS
10
6.79457
20
-5.38527
11
6.79504
21
-5.38584
0
LINE
8
BLACK
6
CONTINUOUS
10
6.79504
20
-5.38584
11
6.79553
21
-5.38639
0
LINE
8
BLACK
6
CONTINUOUS
10
6.79553
20
-5.38639
11
6.79564
21
-5.38658
0
LINE
8
BLACK
6
CONTINUOUS
10
6.79564
20
-5.38658
11
6.79579
21
-5.38675
0
LINE
8
BLACK
6
CONTINUOUS
10
6.79579
20
-5.38675
11
6.79613
21
-5.3874
0
LINE
8
BLACK
6
CONTINUOUS
10
6.79613
20
-5.3874
11
6.79651
21
-5.38804
0
LINE
8
BLACK
6
CONTINUOUS
10
6.79651
20
-5.38804
11
6.85321
21
-5.50953
0
LINE
8
BLACK
6
CONTINUOUS
10
6.85321
20
-5.50953
11
6.9099
21
-5.38804
0
LINE
8
BLACK
6
CONTINUOUS
10
6.9099
20
-5.38804
11
6.90996
21
-5.38791
0
LINE
8
BLACK
6
CONTINUOUS
10
6.90996
20
-5.38791
11
6.91035
21
-5.38729
0
LINE
8
BLACK
6
CONTINUOUS
10
6.91035
20
-5.38729
11
6.9107
21
-5.38664
0
LINE
8
BLACK
6
CONTINUOUS
10
6.9107
20
-5.38664
11
6.91085
21
-5.38647
0
LINE
8
BLACK
6
CONTINUOUS
10
6.91085
20
-5.38647
11
6.91096
21
-5.38628
0
LINE
8
BLACK
6
CONTINUOUS
10
6.91096
20
-5.38628
11
6.91146
21
-5.38573
0
LINE
8
BLACK
6
CONTINUOUS
10
6.91146
20
-5.38573
11
6.91194
21
-5.38517
0
LINE
8
BLACK
6
CONTINUOUS
10
6.91194
20
-5.38517
11
6.91211
21
-5.38503
0
LINE
8
BLACK
6
CONTINUOUS
10
6.91211
20
-5.38503
11
6.91226
21
-5.38486
0
LINE
8
BLACK
6
CONTINUOUS
10
6.91226
20
-5.38486
11
6.91286
21
-5.38443
0
LINE
8
BLACK
6
CONTINUOUS
10
6.91286
20
-5.38443
11
6.91343
21
-5.38397
0
LINE
8
BLACK
6
CONTINUOUS
10
6.91343
20
-5.38397
11
6.91363
21
-5.38386
0
LINE
8
BLACK
6
CONTINUOUS
10
6.91363
20
-5.38386
11
6.91381
21
-5.38373
0
LINE
8
BLACK
6
CONTINUOUS
10
6.91381
20
-5.38373
11
6.91448
21
-5.38342
0
LINE
8
BLACK
6
CONTINUOUS
10
6.91448
20
-5.38342
11
6.91514
21
-5.38308
0
LINE
8
BLACK
6
CONTINUOUS
10
6.91514
20
-5.38308
11
6.91535
21
-5.38301
0
LINE
8
BLACK
6
CONTINUOUS
10
6.91535
20
-5.38301
11
6.91556
21
-5.38292
0
LINE
8
BLACK
6
CONTINUOUS
10
6.91556
20
-5.38292
11
6.91627
21
-5.38274
0
LINE
8
BLACK
6
CONTINUOUS
10
6.91627
20
-5.38274
11
6.91698
21
-5.38253
0
LINE
8
BLACK
6
CONTINUOUS
10
6.91698
20
-5.38253
11
6.9172
21
-5.38251
0
LINE
8
BLACK
6
CONTINUOUS
10
6.9172
20
-5.38251
11
6.91742
21
-5.38246
0
LINE
8
BLACK
6
CONTINUOUS
10
6.91742
20
-5.38246
11
6.91816
21
-5.38243
0
LINE
8
BLACK
6
CONTINUOUS
10
6.91816
20
-5.38243
11
6.91889
21
-5.38236
0
LINE
8
BLACK
6
CONTINUOUS
10
6.91889
20
-5.38236
11
6.91912
21
-5.38238
0
LINE
8
BLACK
6
CONTINUOUS
10
8.94877
20
-5.38238
11
8.949
21
-5.38237
0
LINE
8
BLACK
6
CONTINUOUS
10
8.949
20
-5.38237
11
8.94973
21
-5.38248
0
LINE
8
BLACK
6
CONTINUOUS
10
8.94973
20
-5.38248
11
8.95046
21
-5.38256
0
LINE
8
BLACK
6
CONTINUOUS
10
8.95046
20
-5.38256
11
8.95068
21
-5.38263
0
LINE
8
BLACK
6
CONTINUOUS
10
8.95068
20
-5.38263
11
8.9509
21
-5.38266
0
LINE
8
BLACK
6
CONTINUOUS
10
8.9509
20
-5.38266
11
8.95159
21
-5.38291
0
LINE
8
BLACK
6
CONTINUOUS
10
8.95159
20
-5.38291
11
8.9523
21
-5.38313
0
LINE
8
BLACK
6
CONTINUOUS
10
8.9523
20
-5.38313
11
8.95249
21
-5.38323
0
LINE
8
BLACK
6
CONTINUOUS
10
8.95249
20
-5.38323
11
8.95271
21
-5.38331
0
LINE
8
BLACK
6
CONTINUOUS
10
8.95271
20
-5.38331
11
8.95334
21
-5.38369
0
LINE
8
BLACK
6
CONTINUOUS
10
8.95334
20
-5.38369
11
8.95399
21
-5.38404
0
LINE
8
BLACK
6
CONTINUOUS
10
8.95399
20
-5.38404
11
8.95416
21
-5.38418
0
LINE
8
BLACK
6
CONTINUOUS
10
8.95416
20
-5.38418
11
8.95435
21
-5.3843
0
LINE
8
BLACK
6
CONTINUOUS
10
8.95435
20
-5.3843
11
8.9549
21
-5.3848
0
LINE
8
BLACK
6
CONTINUOUS
10
8.9549
20
-5.3848
11
8.95547
21
-5.38527
0
LINE
8
BLACK
6
CONTINUOUS
10
8.95547
20
-5.38527
11
8.95561
21
-5.38544
0
LINE
8
BLACK
6
CONTINUOUS
10
8.95561
20
-5.38544
11
8.95577
21
-5.38559
0
LINE
8
BLACK
6
CONTINUOUS
10
8.95577
20
-5.38559
11
8.95621
21
-5.38618
0
LINE
8
BLACK
6
CONTINUOUS
10
8.95621
20
-5.38618
11
8.95668
21
-5.38675
0
LINE
8
BLACK
6
CONTINUOUS
10
8.95668
20
-5.38675
11
8.95679
21
-5.38695
0
LINE
8
BLACK
6
CONTINUOUS
10
8.95679
20
-5.38695
11
8.95692
21
-5.38713
0
LINE
8
BLACK
6
CONTINUOUS
10
8.95692
20
-5.38713
11
8.95724
21
-5.3878
0
LINE
8
BLACK
6
CONTINUOUS
10
8.95724
20
-5.3878
11
8.95758
21
-5.38845
0
LINE
8
BLACK
6
CONTINUOUS
10
8.95758
20
-5.38845
11
8.95765
21
-5.38867
0
LINE
8
BLACK
6
CONTINUOUS
10
8.95765
20
-5.38867
11
8.95774
21
-5.38887
0
LINE
8
BLACK
6
CONTINUOUS
10
8.95774
20
-5.38887
11
8.95792
21
-5.38958
0
LINE
8
BLACK
6
CONTINUOUS
10
8.95792
20
-5.38958
11
8.95814
21
-5.39029
0
LINE
8
BLACK
6
CONTINUOUS
10
8.95814
20
-5.39029
11
8.95816
21
-5.39051
0
LINE
8
BLACK
6
CONTINUOUS
10
8.95816
20
-5.39051
11
8.95821
21
-5.39073
0
LINE
8
BLACK
6
CONTINUOUS
10
8.95821
20
-5.39073
11
8.95825
21
-5.39147
0
LINE
8
BLACK
6
CONTINUOUS
10
8.95825
20
-5.39147
11
8.95832
21
-5.3922
0
LINE
8
BLACK
6
CONTINUOUS
10
8.95832
20
-5.3922
11
8.95832
21
-5.58905
0
LINE
8
BLACK
6
CONTINUOUS
10
8.95832
20
-5.58905
11
8.95832
21
-5.58919
0
LINE
8
BLACK
6
CONTINUOUS
10
8.95832
20
-5.58919
11
8.95811
21
-5.5911
0
LINE
8
BLACK
6
CONTINUOUS
10
8.95811
20
-5.5911
11
8.95753
21
-5.59293
0
LINE
8
BLACK
6
CONTINUOUS
10
8.95753
20
-5.59293
11
8.9566
21
-5.59461
0
LINE
8
BLACK
6
CONTINUOUS
10
8.9566
20
-5.59461
11
8.95537
21
-5.59608
0
LINE
8
BLACK
6
CONTINUOUS
10
8.95537
20
-5.59608
11
8.95387
21
-5.59729
0
LINE
8
BLACK
6
CONTINUOUS
10
8.95387
20
-5.59729
11
8.95217
21
-5.59818
0
LINE
8
BLACK
6
CONTINUOUS
10
8.95217
20
-5.59818
11
8.95033
21
-5.59872
0
LINE
8
BLACK
6
CONTINUOUS
10
8.95033
20
-5.59872
11
8.94841
21
-5.59889
0
LINE
8
BLACK
6
CONTINUOUS
10
8.94841
20
-5.59889
11
8.9465
21
-5.59869
0
LINE
8
BLACK
6
CONTINUOUS
10
8.9465
20
-5.59869
11
8.94467
21
-5.59812
0
LINE
8
BLACK
6
CONTINUOUS
10
8.94467
20
-5.59812
11
8.94298
21
-5.59721
0
LINE
8
BLACK
6
CONTINUOUS
10
8.94298
20
-5.59721
11
8.9415
21
-5.59599
0
LINE
8
BLACK
6
CONTINUOUS
10
8.9415
20
-5.59599
11
8.94028
21
-5.5945
0
LINE
8
BLACK
6
CONTINUOUS
10
8.94028
20
-5.5945
11
8.93938
21
-5.5928
0
LINE
8
BLACK
6
CONTINUOUS
10
8.93938
20
-5.5928
11
8.93883
21
-5.59096
0
LINE
8
BLACK
6
CONTINUOUS
10
8.93883
20
-5.59096
11
8.93864
21
-5.58905
0
LINE
8
BLACK
6
CONTINUOUS
10
8.93864
20
-5.58905
11
8.93864
21
-5.43657
0
LINE
8
BLACK
6
CONTINUOUS
10
8.93864
20
-5.43657
11
8.89178
21
-5.53697
0
LINE
8
BLACK
6
CONTINUOUS
10
8.89178
20
-5.53697
11
8.89172
21
-5.53709
0
LINE
8
BLACK
6
CONTINUOUS
10
8.89172
20
-5.53709
11
8.89146
21
-5.53753
0
LINE
8
BLACK
6
CONTINUOUS
10
8.89146
20
-5.53753
11
8.89123
21
-5.53799
0
LINE
8
BLACK
6
CONTINUOUS
10
8.89123
20
-5.53799
11
8.89096
21
-5.53835
0
LINE
8
BLACK
6
CONTINUOUS
10
8.89096
20
-5.53835
11
8.89072
21
-5.53873
0
LINE
8
BLACK
6
CONTINUOUS
10
8.89072
20
-5.53873
11
8.89038
21
-5.53911
0
LINE
8
BLACK
6
CONTINUOUS
10
8.89038
20
-5.53911
11
8.89006
21
-5.53952
0
LINE
8
BLACK
6
CONTINUOUS
10
8.89006
20
-5.53952
11
8.88973
21
-5.53982
0
LINE
8
BLACK
6
CONTINUOUS
10
8.88973
20
-5.53982
11
8.88942
21
-5.54015
0
LINE
8
BLACK
6
CONTINUOUS
10
8.88942
20
-5.54015
11
8.88901
21
-5.54045
0
LINE
8
BLACK
6
CONTINUOUS
10
8.88901
20
-5.54045
11
8.88862
21
-5.54079
0
LINE
8
BLACK
6
CONTINUOUS
10
8.88862
20
-5.54079
11
8.88824
21
-5.54102
0
LINE
8
BLACK
6
CONTINUOUS
10
8.88824
20
-5.54102
11
8.88787
21
-5.54128
0
LINE
8
BLACK
6
CONTINUOUS
10
8.88787
20
-5.54128
11
8.88741
21
-5.5415
0
LINE
8
BLACK
6
CONTINUOUS
10
8.88741
20
-5.5415
11
8.88696
21
-5.54176
0
LINE
8
BLACK
6
CONTINUOUS
10
8.88696
20
-5.54176
11
8.88654
21
-5.5419
0
LINE
8
BLACK
6
CONTINUOUS
10
8.88654
20
-5.5419
11
8.88613
21
-5.54209
0
LINE
8
BLACK
6
CONTINUOUS
10
8.88613
20
-5.54209
11
8.88563
21
-5.54222
0
LINE
8
BLACK
6
CONTINUOUS
10
8.88563
20
-5.54222
11
8.88515
21
-5.54238
0
LINE
8
BLACK
6
CONTINUOUS
10
8.88515
20
-5.54238
11
8.8847
21
-5.54244
0
LINE
8
BLACK
6
CONTINUOUS
10
8.8847
20
-5.54244
11
8.88427
21
-5.54255
0
LINE
8
BLACK
6
CONTINUOUS
10
8.88427
20
-5.54255
11
8.88375
21
-5.54257
0
LINE
8
BLACK
6
CONTINUOUS
10
8.88375
20
-5.54257
11
8.88325
21
-5.54264
0
LINE
8
BLACK
6
CONTINUOUS
10
8.88325
20
-5.54264
11
8.8828
21
-5.54262
0
LINE
8
BLACK
6
CONTINUOUS
10
8.8828
20
-5.54262
11
8.88235
21
-5.54264
0
LINE
8
BLACK
6
CONTINUOUS
10
8.88235
20
-5.54264
11
8.88184
21
-5.54256
0
LINE
8
BLACK
6
CONTINUOUS
10
8.88184
20
-5.54256
11
8.88133
21
-5.54253
0
LINE
8
BLACK
6
CONTINUOUS
10
8.88133
20
-5.54253
11
8.88089
21
-5.54242
0
LINE
8
BLACK
6
CONTINUOUS
10
8.88089
20
-5.54242
11
8.88045
21
-5.54235
0
LINE
8
BLACK
6
CONTINUOUS
10
8.88045
20
-5.54235
11
8.87997
21
-5.54218
0
LINE
8
BLACK
6
CONTINUOUS
10
8.87997
20
-5.54218
11
8.87947
21
-5.54205
0
LINE
8
BLACK
6
CONTINUOUS
10
8.87947
20
-5.54205
11
8.87906
21
-5.54185
0
LINE
8
BLACK
6
CONTINUOUS
10
8.87906
20
-5.54185
11
8.87864
21
-5.5417
0
LINE
8
BLACK
6
CONTINUOUS
10
8.87864
20
-5.5417
11
8.8782
21
-5.54143
0
LINE
8
BLACK
6
CONTINUOUS
10
8.8782
20
-5.54143
11
8.87774
21
-5.54121
0
LINE
8
BLACK
6
CONTINUOUS
10
8.87774
20
-5.54121
11
8.87738
21
-5.54094
0
LINE
8
BLACK
6
CONTINUOUS
10
8.87738
20
-5.54094
11
8.87699
21
-5.54071
0
LINE
8
BLACK
6
CONTINUOUS
10
8.87699
20
-5.54071
11
8.87661
21
-5.54036
0
LINE
8
BLACK
6
CONTINUOUS
10
8.87661
20
-5.54036
11
8.8762
21
-5.54006
0
LINE
8
BLACK
6
CONTINUOUS
10
8.8762
20
-5.54006
11
8.8759
21
-5.53972
0
LINE
8
BLACK
6
CONTINUOUS
10
8.8759
20
-5.53972
11
8.87557
21
-5.53942
0
LINE
8
BLACK
6
CONTINUOUS
10
8.87557
20
-5.53942
11
8.87527
21
-5.53901
0
LINE
8
BLACK
6
CONTINUOUS
10
8.87527
20
-5.53901
11
8.87492
21
-5.53862
0
LINE
8
BLACK
6
CONTINUOUS
10
8.87492
20
-5.53862
11
8.87469
21
-5.53824
0
LINE
8
BLACK
6
CONTINUOUS
10
8.87469
20
-5.53824
11
8.87443
21
-5.53788
0
LINE
8
BLACK
6
CONTINUOUS
10
8.87443
20
-5.53788
11
8.87421
21
-5.53741
0
LINE
8
BLACK
6
CONTINUOUS
10
8.87421
20
-5.53741
11
8.87395
21
-5.53697
0
LINE
8
BLACK
6
CONTINUOUS
10
8.87395
20
-5.53697
11
8.82709
21
-5.43657
0
LINE
8
BLACK
6
CONTINUOUS
10
8.82709
20
-5.43657
11
8.82709
21
-5.58905
0
LINE
8
BLACK
6
CONTINUOUS
10
8.82709
20
-5.58905
11
8.82709
21
-5.58919
0
LINE
8
BLACK
6
CONTINUOUS
10
8.82709
20
-5.58919
11
8.82688
21
-5.5911
0
LINE
8
BLACK
6
CONTINUOUS
10
8.82688
20
-5.5911
11
8.82629
21
-5.59293
0
LINE
8
BLACK
6
CONTINUOUS
10
8.82629
20
-5.59293
11
8.82537
21
-5.59461
0
LINE
8
BLACK
6
CONTINUOUS
10
8.82537
20
-5.59461
11
8.82413
21
-5.59608
0
LINE
8
BLACK
6
CONTINUOUS
10
8.82413
20
-5.59608
11
8.82264
21
-5.59729
0
LINE
8
BLACK
6
CONTINUOUS
10
8.82264
20
-5.59729
11
8.82093
21
-5.59818
0
LINE
8
BLACK
6
CONTINUOUS
10
8.82093
20
-5.59818
11
8.81909
21
-5.59872
0
LINE
8
BLACK
6
CONTINUOUS
10
8.81909
20
-5.59872
11
8.81718
21
-5.59889
0
LINE
8
BLACK
6
CONTINUOUS
10
8.81718
20
-5.59889
11
8.81527
21
-5.59869
0
LINE
8
BLACK
6
CONTINUOUS
10
8.81527
20
-5.59869
11
8.81343
21
-5.59812
0
LINE
8
BLACK
6
CONTINUOUS
10
8.81343
20
-5.59812
11
8.81174
21
-5.59721
0
LINE
8
BLACK
6
CONTINUOUS
10
8.81174
20
-5.59721
11
8.81026
21
-5.59599
0
LINE
8
BLACK
6
CONTINUOUS
10
8.81026
20
-5.59599
11
8.80905
21
-5.5945
0
LINE
8
BLACK
6
CONTINUOUS
10
8.80905
20
-5.5945
11
8.80815
21
-5.5928
0
LINE
8
BLACK
6
CONTINUOUS
10
8.80815
20
-5.5928
11
8.80759
21
-5.59096
0
LINE
8
BLACK
6
CONTINUOUS
10
8.80759
20
-5.59096
11
8.80741
21
-5.58905
0
LINE
8
BLACK
6
CONTINUOUS
10
8.80741
20
-5.58905
11
8.80741
21
-5.3922
0
LINE
8
BLACK
6
CONTINUOUS
10
8.80741
20
-5.3922
11
8.80741
21
-5.39206
0
LINE
8
BLACK
6
CONTINUOUS
10
8.80741
20
-5.39206
11
8.80749
21
-5.39133
0
LINE
8
BLACK
6
CONTINUOUS
10
8.80749
20
-5.39133
11
8.80754
21
-5.3906
0
LINE
8
BLACK
6
CONTINUOUS
10
8.80754
20
-5.3906
11
8.8076
21
-5.39038
0
LINE
8
BLACK
6
CONTINUOUS
10
8.8076
20
-5.39038
11
8.80762
21
-5.39015
0
LINE
8
BLACK
6
CONTINUOUS
10
8.80762
20
-5.39015
11
8.80784
21
-5.38945
0
LINE
8
BLACK
6
CONTINUOUS
10
8.80784
20
-5.38945
11
8.80803
21
-5.38874
0
LINE
8
BLACK
6
CONTINUOUS
10
8.80803
20
-5.38874
11
8.80813
21
-5.38854
0
LINE
8
BLACK
6
CONTINUOUS
10
8.80813
20
-5.38854
11
8.8082
21
-5.38832
0
LINE
8
BLACK
6
CONTINUOUS
10
8.8082
20
-5.38832
11
8.80856
21
-5.38768
0
LINE
8
BLACK
6
CONTINUOUS
10
8.80856
20
-5.38768
11
8.80888
21
-5.38702
0
LINE
8
BLACK
6
CONTINUOUS
10
8.80888
20
-5.38702
11
8.80902
21
-5.38684
0
LINE
8
BLACK
6
CONTINUOUS
10
8.80902
20
-5.38684
11
8.80913
21
-5.38664
0
LINE
8
BLACK
6
CONTINUOUS
10
8.80913
20
-5.38664
11
8.8096
21
-5.38608
0
LINE
8
BLACK
6
CONTINUOUS
10
8.8096
20
-5.38608
11
8.81005
21
-5.38549
0
LINE
8
BLACK
6
CONTINUOUS
10
8.81005
20
-5.38549
11
8.81022
21
-5.38534
0
LINE
8
BLACK
6
CONTINUOUS
10
8.81022
20
-5.38534
11
8.81036
21
-5.38517
0
LINE
8
BLACK
6
CONTINUOUS
10
8.81036
20
-5.38517
11
8.81094
21
-5.38471
0
LINE
8
BLACK
6
CONTINUOUS
10
8.81094
20
-5.38471
11
8.81149
21
-5.38422
0
LINE
8
BLACK
6
CONTINUOUS
10
8.81149
20
-5.38422
11
8.81168
21
-5.38411
0
LINE
8
BLACK
6
CONTINUOUS
10
8.81168
20
-5.38411
11
8.81186
21
-5.38397
0
LINE
8
BLACK
6
CONTINUOUS
10
8.81186
20
-5.38397
11
8.81251
21
-5.38362
0
LINE
8
BLACK
6
CONTINUOUS
10
8.81251
20
-5.38362
11
8.81315
21
-5.38325
0
LINE
8
BLACK
6
CONTINUOUS
10
8.81315
20
-5.38325
11
8.81336
21
-5.38318
0
LINE
8
BLACK
6
CONTINUOUS
10
8.81336
20
-5.38318
11
8.81356
21
-5.38308
0
LINE
8
BLACK
6
CONTINUOUS
10
8.81356
20
-5.38308
11
8.81427
21
-5.38287
0
LINE
8
BLACK
6
CONTINUOUS
10
8.81427
20
-5.38287
11
8.81496
21
-5.38263
0
LINE
8
BLACK
6
CONTINUOUS
10
8.81496
20
-5.38263
11
8.81519
21
-5.3826
0
LINE
8
BLACK
6
CONTINUOUS
10
8.81519
20
-5.3826
11
8.8154
21
-5.38253
0
LINE
8
BLACK
6
CONTINUOUS
10
8.8154
20
-5.38253
11
8.81614
21
-5.38247
0
LINE
8
BLACK
6
CONTINUOUS
10
8.81614
20
-5.38247
11
8.81687
21
-5.38237
0
LINE
8
BLACK
6
CONTINUOUS
10
8.81687
20
-5.38237
11
8.81709
21
-5.38238
0
LINE
8
BLACK
6
CONTINUOUS
10
8.81709
20
-5.38238
11
8.81732
21
-5.38236
0
LINE
8
BLACK
6
CONTINUOUS
10
8.81732
20
-5.38236
11
8.81805
21
-5.38244
0
LINE
8
BLACK
6
CONTINUOUS
10
8.81805
20
-5.38244
11
8.81878
21
-5.38248
0
LINE
8
BLACK
6
CONTINUOUS
10
8.81878
20
-5.38248
11
8.819
21
-5.38254
0
LINE
8
BLACK
6
CONTINUOUS
10
8.819
20
-5.38254
11
8.81923
21
-5.38256
0
LINE
8
BLACK
6
CONTINUOUS
10
8.81923
20
-5.38256
11
8.81993
21
-5.38278
0
LINE
8
BLACK
6
CONTINUOUS
10
8.81993
20
-5.38278
11
8.82064
21
-5.38296
0
LINE
8
BLACK
6
CONTINUOUS
10
8.82064
20
-5.38296
11
8.82085
21
-5.38306
0
LINE
8
BLACK
6
CONTINUOUS
10
8.82085
20
-5.38306
11
8.82106
21
-5.38313
0
LINE
8
BLACK
6
CONTINUOUS
10
8.82106
20
-5.38313
11
8.82171
21
-5.38348
0
LINE
8
BLACK
6
CONTINUOUS
10
8.82171
20
-5.38348
11
8.82237
21
-5.3838
0
LINE
8
BLACK
6
CONTINUOUS
10
8.82237
20
-5.3838
11
8.82255
21
-5.38393
0
LINE
8
BLACK
6
CONTINUOUS
10
8.82255
20
-5.38393
11
8.82275
21
-5.38404
0
LINE
8
BLACK
6
CONTINUOUS
10
8.82275
20
-5.38404
11
8.82332
21
-5.38451
0
LINE
8
BLACK
6
CONTINUOUS
10
8.82332
20
-5.38451
11
8.82391
21
-5.38495
0
LINE
8
BLACK
6
CONTINUOUS
10
8.82391
20
-5.38495
11
8.82406
21
-5.38512
0
LINE
8
BLACK
6
CONTINUOUS
10
8.82406
20
-5.38512
11
8.82423
21
-5.38527
0
LINE
8
BLACK
6
CONTINUOUS
10
8.82423
20
-5.38527
11
8.8247
21
-5.38584
0
LINE
8
BLACK
6
CONTINUOUS
10
8.8247
20
-5.38584
11
8.82519
21
-5.38639
0
LINE
8
BLACK
6
CONTINUOUS
10
8.82519
20
-5.38639
11
8.8253
21
-5.38658
0
LINE
8
BLACK
6
CONTINUOUS
10
8.8253
20
-5.38658
11
8.82545
21
-5.38675
0
LINE
8
BLACK
6
CONTINUOUS
10
8.82545
20
-5.38675
11
8.82579
21
-5.3874
0
LINE
8
BLACK
6
CONTINUOUS
10
8.82579
20
-5.3874
11
8.82617
21
-5.38804
0
LINE
8
BLACK
6
CONTINUOUS
10
8.82617
20
-5.38804
11
8.88286
21
-5.50953
0
LINE
8
BLACK
6
CONTINUOUS
10
8.88286
20
-5.50953
11
8.93956
21
-5.38804
0
LINE
8
BLACK
6
CONTINUOUS
10
8.93956
20
-5.38804
11
8.93962
21
-5.38791
0
LINE
8
BLACK
6
CONTINUOUS
10
8.93962
20
-5.38791
11
8.94001
21
-5.38729
0
LINE
8
BLACK
6
CONTINUOUS
10
8.94001
20
-5.38729
11
8.94036
21
-5.38664
0
LINE
8
BLACK
6
CONTINUOUS
10
8.94036
20
-5.38664
11
8.9405
21
-5.38647
0
LINE
8
BLACK
6
CONTINUOUS
10
8.9405
20
-5.38647
11
8.94062
21
-5.38628
0
LINE
8
BLACK
6
CONTINUOUS
10
8.94062
20
-5.38628
11
8.94112
21
-5.38573
0
LINE
8
BLACK
6
CONTINUOUS
10
8.94112
20
-5.38573
11
8.94159
21
-5.38517
0
LINE
8
BLACK
6
CONTINUOUS
10
8.94159
20
-5.38517
11
8.94177
21
-5.38503
0
LINE
8
BLACK
6
CONTINUOUS
10
8.94177
20
-5.38503
11
8.94192
21
-5.38486
0
LINE
8
BLACK
6
CONTINUOUS
10
8.94192
20
-5.38486
11
8.94252
21
-5.38443
0
LINE
8
BLACK
6
CONTINUOUS
10
8.94252
20
-5.38443
11
8.94309
21
-5.38397
0
LINE
8
BLACK
6
CONTINUOUS
10
8.94309
20
-5.38397
11
8.94329
21
-5.38386
0
LINE
8
BLACK
6
CONTINUOUS
10
8.94329
20
-5.38386
11
8.94347
21
-5.38373
0
LINE
8
BLACK
6
CONTINUOUS
10
8.94347
20
-5.38373
11
8.94414
21
-5.38342
0
LINE
8
BLACK
6
CONTINUOUS
10
8.94414
20
-5.38342
11
8.94479
21
-5.38308
0
LINE
8
BLACK
6
CONTINUOUS
10
8.94479
20
-5.38308
11
8.94501
21
-5.38301
0
LINE
8
BLACK
6
CONTINUOUS
10
8.94501
20
-5.38301
11
8.94521
21
-5.38292
0
LINE
8
BLACK
6
CONTINUOUS
10
8.94521
20
-5.38292
11
8.94593
21
-5.38274
0
LINE
8
BLACK
6
CONTINUOUS
10
8.94593
20
-5.38274
11
8.94664
21
-5.38253
0
LINE
8
BLACK
6
CONTINUOUS
10
8.94664
20
-5.38253
11
8.94686
21
-5.38251
0
LINE
8
BLACK
6
CONTINUOUS
10
8.94686
20
-5.38251
11
8.94708
21
-5.38246
0
LINE
8
BLACK
6
CONTINUOUS
10
8.94708
20
-5.38246
11
8.94782
21
-5.38243
0
LINE
8
BLACK
6
CONTINUOUS
10
8.94782
20
-5.38243
11
8.94855
21
-5.38236
0
LINE
8
BLACK
6
CONTINUOUS
10
8.94855
20
-5.38236
11
8.94877
21
-5.38238
0
LINE
8
BLACK
6
CONTINUOUS
10
9.0442
20
-5.38256
11
9.04603
21
-5.38313
0
LINE
8
BLACK
6
CONTINUOUS
10
9.04603
20
-5.38313
11
9.04772
21
-5.38404
0
LINE
8
BLACK
6
CONTINUOUS
10
9.04772
20
-5.38404
11
9.0492
21
-5.38527
0
LINE
8
BLACK
6
CONTINUOUS
10
9.0492
20
-5.38527
11
9.05042
21
-5.38675
0
LINE
8
BLACK
6
CONTINUOUS
10
9.05042
20
-5.38675
11
9.05132
21
-5.38845
0
LINE
8
BLACK
6
CONTINUOUS
10
9.05132
20
-5.38845
11
9.05187
21
-5.39029
0
LINE
8
BLACK
6
CONTINUOUS
10
9.05187
20
-5.39029
11
9.05206
21
-5.3922
0
LINE
8
BLACK
6
CONTINUOUS
10
9.05206
20
-5.3922
11
9.05206
21
-5.58905
0
LINE
8
BLACK
6
CONTINUOUS
10
9.05206
20
-5.58905
11
9.05206
21
-5.58919
0
LINE
8
BLACK
6
CONTINUOUS
10
9.05206
20
-5.58919
11
9.05185
21
-5.5911
0
LINE
8
BLACK
6
CONTINUOUS
10
9.05185
20
-5.5911
11
9.05127
21
-5.59293
0
LINE
8
BLACK
6
CONTINUOUS
10
9.05127
20
-5.59293
11
9.05034
21
-5.59461
0
LINE
8
BLACK
6
CONTINUOUS
10
9.05034
20
-5.59461
11
9.04911
21
-5.59608
0
LINE
8
BLACK
6
CONTINUOUS
10
9.04911
20
-5.59608
11
9.04761
21
-5.59729
0
LINE
8
BLACK
6
CONTINUOUS
10
9.04761
20
-5.59729
11
9.04591
21
-5.59818
0
LINE
8
BLACK
6
CONTINUOUS
10
9.04591
20
-5.59818
11
9.04406
21
-5.59872
0
LINE
8
BLACK
6
CONTINUOUS
10
9.04406
20
-5.59872
11
9.04215
21
-5.59889
0
LINE
8
BLACK
6
CONTINUOUS
10
9.04215
20
-5.59889
11
9.04024
21
-5.59869
0
LINE
8
BLACK
6
CONTINUOUS
10
9.04024
20
-5.59869
11
9.03841
21
-5.59812
0
LINE
8
BLACK
6
CONTINUOUS
10
9.03841
20
-5.59812
11
9.03672
21
-5.59721
0
LINE
8
BLACK
6
CONTINUOUS
10
9.03672
20
-5.59721
11
9.03524
21
-5.59599
0
LINE
8
BLACK
6
CONTINUOUS
10
9.03524
20
-5.59599
11
9.03402
21
-5.5945
0
LINE
8
BLACK
6
CONTINUOUS
10
9.03402
20
-5.5945
11
9.03312
21
-5.5928
0
LINE
8
BLACK
6
CONTINUOUS
10
9.03312
20
-5.5928
11
9.03256
21
-5.59096
0
LINE
8
BLACK
6
CONTINUOUS
10
9.03256
20
-5.59096
11
9.03238
21
-5.58905
0
LINE
8
BLACK
6
CONTINUOUS
10
9.03238
20
-5.58905
11
9.03238
21
-5.3922
0
LINE
8
BLACK
6
CONTINUOUS
10
9.03238
20
-5.3922
11
9.03238
21
-5.39206
0
LINE
8
BLACK
6
CONTINUOUS
10
9.03238
20
-5.39206
11
9.03259
21
-5.39015
0
LINE
8
BLACK
6
CONTINUOUS
10
9.03259
20
-5.39015
11
9.03317
21
-5.38832
0
LINE
8
BLACK
6
CONTINUOUS
10
9.03317
20
-5.38832
11
9.0341
21
-5.38664
0
LINE
8
BLACK
6
CONTINUOUS
10
9.0341
20
-5.38664
11
9.03533
21
-5.38517
0
LINE
8
BLACK
6
CONTINUOUS
10
9.03533
20
-5.38517
11
9.03683
21
-5.38397
0
LINE
8
BLACK
6
CONTINUOUS
10
9.03683
20
-5.38397
11
9.03853
21
-5.38308
0
LINE
8
BLACK
6
CONTINUOUS
10
9.03853
20
-5.38308
11
9.04038
21
-5.38253
0
LINE
8
BLACK
6
CONTINUOUS
10
9.04038
20
-5.38253
11
9.04229
21
-5.38236
0
LINE
8
BLACK
6
CONTINUOUS
10
9.04229
20
-5.38236
11
9.0442
21
-5.38256
0
LINE
8
BLACK
6
CONTINUOUS
10
7.9782
20
-5.38236
11
7.97849
21
-5.38239
0
LINE
8
BLACK
6
CONTINUOUS
10
7.97849
20
-5.38239
11
7.97878
21
-5.38238
0
LINE
8
BLACK
6
CONTINUOUS
10
7.97878
20
-5.38238
11
7.97944
21
-5.3825
0
LINE
8
BLACK
6
CONTINUOUS
10
7.97944
20
-5.3825
11
7.98011
21
-5.38257
0
LINE
8
BLACK
6
CONTINUOUS
10
7.98011
20
-5.38257
11
7.98039
21
-5.38266
0
LINE
8
BLACK
6
CONTINUOUS
10
7.98039
20
-5.38266
11
7.98067
21
-5.38271
0
LINE
8
BLACK
6
CONTINUOUS
10
7.98067
20
-5.38271
11
7.9813
21
-5.38295
0
LINE
8
BLACK
6
CONTINUOUS
10
7.9813
20
-5.38295
11
7.98194
21
-5.38315
0
LINE
8
BLACK
6
CONTINUOUS
10
7.98194
20
-5.38315
11
7.9822
21
-5.38329
0
LINE
8
BLACK
6
CONTINUOUS
10
7.9822
20
-5.38329
11
7.98247
21
-5.3834
0
LINE
8
BLACK
6
CONTINUOUS
10
7.98247
20
-5.3834
11
8.00121
21
-5.39277
0
LINE
8
BLACK
6
CONTINUOUS
10
8.00121
20
-5.39277
11
8.00134
21
-5.39283
0
LINE
8
BLACK
6
CONTINUOUS
10
8.00134
20
-5.39283
11
8.0018
21
-5.39313
0
LINE
8
BLACK
6
CONTINUOUS
10
8.0018
20
-5.39313
11
8.00229
21
-5.3934
0
LINE
8
BLACK
6
CONTINUOUS
10
8.00229
20
-5.3934
11
8.00261
21
-5.39366
0
LINE
8
BLACK
6
CONTINUOUS
10
8.00261
20
-5.39366
11
8.00295
21
-5.39388
0
LINE
8
BLACK
6
CONTINUOUS
10
8.00295
20
-5.39388
11
8.00335
21
-5.39426
0
LINE
8
BLACK
6
CONTINUOUS
10
8.00335
20
-5.39426
11
8.00377
21
-5.39462
0
LINE
8
BLACK
6
CONTINUOUS
10
8.00377
20
-5.39462
11
8.01315
21
-5.40399
0
LINE
8
BLACK
6
CONTINUOUS
10
8.01315
20
-5.40399
11
8.01324
21
-5.40409
0
LINE
8
BLACK
6
CONTINUOUS
10
8.01324
20
-5.40409
11
8.01359
21
-5.40452
0
LINE
8
BLACK
6
CONTINUOUS
10
8.01359
20
-5.40452
11
8.01397
21
-5.40492
0
LINE
8
BLACK
6
CONTINUOUS
10
8.01397
20
-5.40492
11
8.01419
21
-5.40527
0
LINE
8
BLACK
6
CONTINUOUS
10
8.01419
20
-5.40527
11
8.01444
21
-5.40559
0
LINE
8
BLACK
6
CONTINUOUS
10
8.01444
20
-5.40559
11
8.0147
21
-5.40608
0
LINE
8
BLACK
6
CONTINUOUS
10
8.0147
20
-5.40608
11
8.01499
21
-5.40655
0
LINE
8
BLACK
6
CONTINUOUS
10
8.01499
20
-5.40655
11
8.02436
21
-5.42529
0
LINE
8
BLACK
6
CONTINUOUS
10
8.02436
20
-5.42529
11
8.02442
21
-5.42542
0
LINE
8
BLACK
6
CONTINUOUS
10
8.02442
20
-5.42542
11
8.02452
21
-5.42569
0
LINE
8
BLACK
6
CONTINUOUS
10
8.02452
20
-5.42569
11
8.02466
21
-5.42595
0
LINE
8
BLACK
6
CONTINUOUS
10
8.02466
20
-5.42595
11
8.02485
21
-5.42659
0
LINE
8
BLACK
6
CONTINUOUS
10
8.02485
20
-5.42659
11
8.02509
21
-5.42722
0
LINE
8
BLACK
6
CONTINUOUS
10
8.02509
20
-5.42722
11
8.02513
21
-5.42751
0
LINE
8
BLACK
6
CONTINUOUS
10
8.02513
20
-5.42751
11
8.02522
21
-5.42778
0
LINE
8
BLACK
6
CONTINUOUS
10
8.02522
20
-5.42778
11
8.02528
21
-5.42845
0
LINE
8
BLACK
6
CONTINUOUS
10
8.02528
20
-5.42845
11
8.02539
21
-5.42912
0
LINE
8
BLACK
6
CONTINUOUS
10
8.02539
20
-5.42912
11
8.02537
21
-5.42941
0
LINE
8
BLACK
6
CONTINUOUS
10
8.02537
20
-5.42941
11
8.0254
21
-5.4297
0
LINE
8
BLACK
6
CONTINUOUS
10
8.0254
20
-5.4297
11
8.0254
21
-5.45782
0
LINE
8
BLACK
6
CONTINUOUS
10
8.0254
20
-5.45782
11
8.0254
21
-5.45796
0
LINE
8
BLACK
6
CONTINUOUS
10
8.0254
20
-5.45796
11
8.02537
21
-5.45824
0
LINE
8
BLACK
6
CONTINUOUS
10
8.02537
20
-5.45824
11
8.02538
21
-5.45853
0
LINE
8
BLACK
6
CONTINUOUS
10
8.02538
20
-5.45853
11
8.02526
21
-5.4592
0
LINE
8
BLACK
6
CONTINUOUS
10
8.02526
20
-5.4592
11
8.02519
21
-5.45986
0
LINE
8
BLACK
6
CONTINUOUS
10
8.02519
20
-5.45986
11
8.0251
21
-5.46014
0
LINE
8
BLACK
6
CONTINUOUS
10
8.0251
20
-5.46014
11
8.02505
21
-5.46043
0
LINE
8
BLACK
6
CONTINUOUS
10
8.02505
20
-5.46043
11
8.02481
21
-5.46105
0
LINE
8
BLACK
6
CONTINUOUS
10
8.02481
20
-5.46105
11
8.02461
21
-5.4617
0
LINE
8
BLACK
6
CONTINUOUS
10
8.02461
20
-5.4617
11
8.02447
21
-5.46195
0
LINE
8
BLACK
6
CONTINUOUS
10
8.02447
20
-5.46195
11
8.02436
21
-5.46222
0
LINE
8
BLACK
6
CONTINUOUS
10
8.02436
20
-5.46222
11
8.01499
21
-5.48097
0
LINE
8
BLACK
6
CONTINUOUS
10
8.01499
20
-5.48097
11
8.01493
21
-5.48109
0
LINE
8
BLACK
6
CONTINUOUS
10
8.01493
20
-5.48109
11
8.01463
21
-5.48155
0
LINE
8
BLACK
6
CONTINUOUS
10
8.01463
20
-5.48155
11
8.01437
21
-5.48204
0
LINE
8
BLACK
6
CONTINUOUS
10
8.01437
20
-5.48204
11
8.01411
21
-5.48236
0
LINE
8
BLACK
6
CONTINUOUS
10
8.01411
20
-5.48236
11
8.01388
21
-5.4827
0
LINE
8
BLACK
6
CONTINUOUS
10
8.01388
20
-5.4827
11
8.0135
21
-5.4831
0
LINE
8
BLACK
6
CONTINUOUS
10
8.0135
20
-5.4831
11
8.01315
21
-5.48353
0
LINE
8
BLACK
6
CONTINUOUS
10
8.01315
20
-5.48353
11
8.00377
21
-5.4929
0
LINE
8
BLACK
6
CONTINUOUS
10
8.00377
20
-5.4929
11
8.00367
21
-5.493
0
LINE
8
BLACK
6
CONTINUOUS
10
8.00367
20
-5.493
11
8.00324
21
-5.49334
0
LINE
8
BLACK
6
CONTINUOUS
10
8.00324
20
-5.49334
11
8.00284
21
-5.49372
0
LINE
8
BLACK
6
CONTINUOUS
10
8.00284
20
-5.49372
11
8.00249
21
-5.49394
0
LINE
8
BLACK
6
CONTINUOUS
10
8.00249
20
-5.49394
11
8.00217
21
-5.49419
0
LINE
8
BLACK
6
CONTINUOUS
10
8.00217
20
-5.49419
11
8.00168
21
-5.49445
0
LINE
8
BLACK
6
CONTINUOUS
10
8.00168
20
-5.49445
11
8.00121
21
-5.49474
0
LINE
8
BLACK
6
CONTINUOUS
10
8.00121
20
-5.49474
11
7.98247
21
-5.50412
0
LINE
8
BLACK
6
CONTINUOUS
10
7.98247
20
-5.50412
11
7.98234
21
-5.50418
0
LINE
8
BLACK
6
CONTINUOUS
10
7.98234
20
-5.50418
11
7.98207
21
-5.50428
0
LINE
8
BLACK
6
CONTINUOUS
10
7.98207
20
-5.50428
11
7.98182
21
-5.50441
0
LINE
8
BLACK
6
CONTINUOUS
10
7.98182
20
-5.50441
11
7.98117
21
-5.50461
0
LINE
8
BLACK
6
CONTINUOUS
10
7.98117
20
-5.50461
11
7.98054
21
-5.50484
0
LINE
8
BLACK
6
CONTINUOUS
10
7.98054
20
-5.50484
11
7.98025
21
-5.50488
0
LINE
8
BLACK
6
CONTINUOUS
10
7.98025
20
-5.50488
11
7.97998
21
-5.50497
0
LINE
8
BLACK
6
CONTINUOUS
10
7.97998
20
-5.50497
11
7.97931
21
-5.50503
0
LINE
8
BLACK
6
CONTINUOUS
10
7.97931
20
-5.50503
11
7.97864
21
-5.50514
0
LINE
8
BLACK
6
CONTINUOUS
10
7.97864
20
-5.50514
11
7.97835
21
-5.50513
0
LINE
8
BLACK
6
CONTINUOUS
10
7.97835
20
-5.50513
11
7.97807
21
-5.50516
0
LINE
8
BLACK
6
CONTINUOUS
10
7.97807
20
-5.50516
11
7.96885
21
-5.50516
0
LINE
8
BLACK
6
CONTINUOUS
10
7.96885
20
-5.50516
11
8.02362
21
-5.58341
0
LINE
8
BLACK
6
CONTINUOUS
10
8.02362
20
-5.58341
11
8.0237
21
-5.58352
0
LINE
8
BLACK
6
CONTINUOUS
10
8.0237
20
-5.58352
11
8.02462
21
-5.58521
0
LINE
8
BLACK
6
CONTINUOUS
10
8.02462
20
-5.58521
11
8.0252
21
-5.58704
0
LINE
8
BLACK
6
CONTINUOUS
10
8.0252
20
-5.58704
11
8.0254
21
-5.58895
0
LINE
8
BLACK
6
CONTINUOUS
10
8.0254
20
-5.58895
11
8.02523
21
-5.59086
0
LINE
8
BLACK
6
CONTINUOUS
10
8.02523
20
-5.59086
11
8.0247
21
-5.59271
0
LINE
8
BLACK
6
CONTINUOUS
10
8.0247
20
-5.59271
11
8.02381
21
-5.59441
0
LINE
8
BLACK
6
CONTINUOUS
10
8.02381
20
-5.59441
11
8.02262
21
-5.59591
0
LINE
8
BLACK
6
CONTINUOUS
10
8.02262
20
-5.59591
11
8.02115
21
-5.59715
0
LINE
8
BLACK
6
CONTINUOUS
10
8.02115
20
-5.59715
11
8.01947
21
-5.59808
0
LINE
8
BLACK
6
CONTINUOUS
10
8.01947
20
-5.59808
11
8.01764
21
-5.59867
0
LINE
8
BLACK
6
CONTINUOUS
10
8.01764
20
-5.59867
11
8.01573
21
-5.59889
0
LINE
8
BLACK
6
CONTINUOUS
10
8.01573
20
-5.59889
11
8.01382
21
-5.59874
0
LINE
8
BLACK
6
CONTINUOUS
10
8.01382
20
-5.59874
11
8.01197
21
-5.59821
0
LINE
8
BLACK
6
CONTINUOUS
10
8.01197
20
-5.59821
11
8.01026
21
-5.59734
0
LINE
8
BLACK
6
CONTINUOUS
10
8.01026
20
-5.59734
11
8.00875
21
-5.59615
0
LINE
8
BLACK
6
CONTINUOUS
10
8.00875
20
-5.59615
11
8.0075
21
-5.5947
0
LINE
8
BLACK
6
CONTINUOUS
10
8.0075
20
-5.5947
11
7.94482
21
-5.50516
0
LINE
8
BLACK
6
CONTINUOUS
10
7.94482
20
-5.50516
11
7.91292
21
-5.50516
0
LINE
8
BLACK
6
CONTINUOUS
10
7.91292
20
-5.50516
11
7.91292
21
-5.58905
0
LINE
8
BLACK
6
CONTINUOUS
10
7.91292
20
-5.58905
11
7.91292
21
-5.58919
0
LINE
8
BLACK
6
CONTINUOUS
10
7.91292
20
-5.58919
11
7.9127
21
-5.5911
0
LINE
8
BLACK
6
CONTINUOUS
10
7.9127
20
-5.5911
11
7.91212
21
-5.59293
0
LINE
8
BLACK
6
CONTINUOUS
10
7.91212
20
-5.59293
11
7.9112
21
-5.59461
0
LINE
8
BLACK
6
CONTINUOUS
10
7.9112
20
-5.59461
11
7.90996
21
-5.59608
0
LINE
8
BLACK
6
CONTINUOUS
10
7.90996
20
-5.59608
11
7.90846
21
-5.59729
0
LINE
8
BLACK
6
CONTINUOUS
10
7.90846
20
-5.59729
11
7.90676
21
-5.59818
0
LINE
8
BLACK
6
CONTINUOUS
10
7.90676
20
-5.59818
11
7.90492
21
-5.59872
0
LINE
8
BLACK
6
CONTINUOUS
10
7.90492
20
-5.59872
11
7.90301
21
-5.59889
0
LINE
8
BLACK
6
CONTINUOUS
10
7.90301
20
-5.59889
11
7.9011
21
-5.59869
0
LINE
8
BLACK
6
CONTINUOUS
10
7.9011
20
-5.59869
11
7.89926
21
-5.59812
0
LINE
8
BLACK
6
CONTINUOUS
10
7.89926
20
-5.59812
11
7.89757
21
-5.59721
0
LINE
8
BLACK
6
CONTINUOUS
10
7.89757
20
-5.59721
11
7.89609
21
-5.59599
0
LINE
8
BLACK
6
CONTINUOUS
10
7.89609
20
-5.59599
11
7.89488
21
-5.5945
0
LINE
8
BLACK
6
CONTINUOUS
10
7.89488
20
-5.5945
11
7.89397
21
-5.5928
0
LINE
8
BLACK
6
CONTINUOUS
10
7.89397
20
-5.5928
11
7.89342
21
-5.59096
0
LINE
8
BLACK
6
CONTINUOUS
10
7.89342
20
-5.59096
11
7.89323
21
-5.58905
0
LINE
8
BLACK
6
CONTINUOUS
10
7.89323
20
-5.58905
11
7.89323
21
-5.3922
0
LINE
8
BLACK
6
CONTINUOUS
10
7.89323
20
-5.3922
11
7.89323
21
-5.39213
0
LINE
8
BLACK
6
CONTINUOUS
10
7.89323
20
-5.39213
11
7.89323
21
-5.39213
0
LINE
8
BLACK
6
CONTINUOUS
10
7.89323
20
-5.39213
11
7.89323
21
-5.39213
0
LINE
8
BLACK
6
CONTINUOUS
10
7.89323
20
-5.39213
11
7.89323
21
-5.39206
0
LINE
8
BLACK
6
CONTINUOUS
10
7.89323
20
-5.39206
11
7.89334
21
-5.39114
0
LINE
8
BLACK
6
CONTINUOUS
10
7.89334
20
-5.39114
11
7.89343
21
-5.39022
0
LINE
8
BLACK
6
CONTINUOUS
10
7.89343
20
-5.39022
11
7.89344
21
-5.39019
0
LINE
8
BLACK
6
CONTINUOUS
10
7.89344
20
-5.39019
11
7.89345
21
-5.39015
0
LINE
8
BLACK
6
CONTINUOUS
10
7.89345
20
-5.39015
11
7.89373
21
-5.38927
0
LINE
8
BLACK
6
CONTINUOUS
10
7.89373
20
-5.38927
11
7.894
21
-5.38839
0
LINE
8
BLACK
6
CONTINUOUS
10
7.894
20
-5.38839
11
7.89402
21
-5.38836
0
LINE
8
BLACK
6
CONTINUOUS
10
7.89402
20
-5.38836
11
7.89403
21
-5.38832
0
LINE
8
BLACK
6
CONTINUOUS
10
7.89403
20
-5.38832
11
7.89447
21
-5.38751
0
LINE
8
BLACK
6
CONTINUOUS
10
7.89447
20
-5.38751
11
7.89491
21
-5.3867
0
LINE
8
BLACK
6
CONTINUOUS
10
7.89491
20
-5.3867
11
7.89494
21
-5.38667
0
LINE
8
BLACK
6
CONTINUOUS
10
7.89494
20
-5.38667
11
7.89495
21
-5.38664
0
LINE
8
BLACK
6
CONTINUOUS
10
7.89495
20
-5.38664
11
7.89555
21
-5.38593
0
LINE
8
BLACK
6
CONTINUOUS
10
7.89555
20
-5.38593
11
7.89614
21
-5.38522
0
LINE
8
BLACK
6
CONTINUOUS
10
7.89614
20
-5.38522
11
7.89617
21
-5.3852
0
LINE
8
BLACK
6
CONTINUOUS
10
7.89617
20
-5.3852
11
7.89619
21
-5.38517
0
LINE
8
BLACK
6
CONTINUOUS
10
7.89619
20
-5.38517
11
7.89691
21
-5.38459
0
LINE
8
BLACK
6
CONTINUOUS
10
7.89691
20
-5.38459
11
7.89763
21
-5.384
0
LINE
8
BLACK
6
CONTINUOUS
10
7.89763
20
-5.384
11
7.89766
21
-5.38399
0
LINE
8
BLACK
6
CONTINUOUS
10
7.89766
20
-5.38399
11
7.89769
21
-5.38397
0
LINE
8
BLACK
6
CONTINUOUS
10
7.89769
20
-5.38397
11
7.89851
21
-5.38354
0
LINE
8
BLACK
6
CONTINUOUS
10
7.89851
20
-5.38354
11
7.89932
21
-5.3831
0
LINE
8
BLACK
6
CONTINUOUS
10
7.89932
20
-5.3831
11
7.89936
21
-5.38309
0
LINE
8
BLACK
6
CONTINUOUS
10
7.89936
20
-5.38309
11
7.89939
21
-5.38308
0
LINE
8
BLACK
6
CONTINUOUS
10
7.89939
20
-5.38308
11
7.90027
21
-5.38281
0
LINE
8
BLACK
6
CONTINUOUS
10
7.90027
20
-5.38281
11
7.90116
21
-5.38255
0
LINE
8
BLACK
6
CONTINUOUS
10
7.90116
20
-5.38255
11
7.9012
21
-5.38254
0
LINE
8
BLACK
6
CONTINUOUS
10
7.9012
20
-5.38254
11
7.90123
21
-5.38253
0
LINE
8
BLACK
6
CONTINUOUS
10
7.90123
20
-5.38253
11
7.90215
21
-5.38245
0
LINE
8
BLACK
6
CONTINUOUS
10
7.90215
20
-5.38245
11
7.90307
21
-5.38236
0
LINE
8
BLACK
6
CONTINUOUS
10
7.90307
20
-5.38236
11
7.97807
21
-5.38236
0
LINE
8
BLACK
6
CONTINUOUS
10
7.97807
20
-5.38236
11
7.9782
21
-5.38236
0
LINE
8
BLACK
6
CONTINUOUS
10
7.91292
20
-5.40204
11
7.91292
21
-5.48547
0
LINE
8
BLACK
6
CONTINUOUS
10
7.91292
20
-5.48547
11
7.97574
21
-5.48547
0
LINE
8
BLACK
6
CONTINUOUS
10
7.97574
20
-5.48547
11
7.99098
21
-5.47785
0
LINE
8
BLACK
6
CONTINUOUS
10
7.99098
20
-5.47785
11
7.9981
21
-5.47074
0
LINE
8
BLACK
6
CONTINUOUS
10
7.9981
20
-5.47074
11
8.00572
21
-5.45549
0
LINE
8
BLACK
6
CONTINUOUS
10
8.00572
20
-5.45549
11
8.00572
21
-5.43202
0
LINE
8
BLACK
6
CONTINUOUS
10
8.00572
20
-5.43202
11
7.9981
21
-5.41678
0
LINE
8
BLACK
6
CONTINUOUS
10
7.9981
20
-5.41678
11
7.99098
21
-5.40966
0
LINE
8
BLACK
6
CONTINUOUS
10
7.99098
20
-5.40966
11
7.97574
21
-5.40204
0
LINE
8
BLACK
6
CONTINUOUS
10
7.97574
20
-5.40204
11
7.91292
21
-5.40204
0
LINE
8
BLACK
6
CONTINUOUS
10
7.81132
20
-5.38256
11
7.81315
21
-5.38313
0
LINE
8
BLACK
6
CONTINUOUS
10
7.81315
20
-5.38313
11
7.81484
21
-5.38404
0
LINE
8
BLACK
6
CONTINUOUS
10
7.81484
20
-5.38404
11
7.81632
21
-5.38527
0
LINE
8
BLACK
6
CONTINUOUS
10
7.81632
20
-5.38527
11
7.81753
21
-5.38675
0
LINE
8
BLACK
6
CONTINUOUS
10
7.81753
20
-5.38675
11
7.81844
21
-5.38845
0
LINE
8
BLACK
6
CONTINUOUS
10
7.81844
20
-5.38845
11
7.81899
21
-5.39029
0
LINE
8
BLACK
6
CONTINUOUS
10
7.81899
20
-5.39029
11
7.81918
21
-5.3922
0
LINE
8
BLACK
6
CONTINUOUS
10
7.81918
20
-5.3922
11
7.81918
21
-5.58905
0
LINE
8
BLACK
6
CONTINUOUS
10
7.81918
20
-5.58905
11
7.81918
21
-5.58919
0
LINE
8
BLACK
6
CONTINUOUS
10
7.81918
20
-5.58919
11
7.81896
21
-5.5911
0
LINE
8
BLACK
6
CONTINUOUS
10
7.81896
20
-5.5911
11
7.81838
21
-5.59293
0
LINE
8
BLACK
6
CONTINUOUS
10
7.81838
20
-5.59293
11
7.81746
21
-5.59461
0
LINE
8
BLACK
6
CONTINUOUS
10
7.81746
20
-5.59461
11
7.81622
21
-5.59608
0
LINE
8
BLACK
6
CONTINUOUS
10
7.81622
20
-5.59608
11
7.81473
21
-5.59729
0
LINE
8
BLACK
6
CONTINUOUS
10
7.81473
20
-5.59729
11
7.81302
21
-5.59818
0
LINE
8
BLACK
6
CONTINUOUS
10
7.81302
20
-5.59818
11
7.81118
21
-5.59872
0
LINE
8
BLACK
6
CONTINUOUS
10
7.81118
20
-5.59872
11
7.80927
21
-5.59889
0
LINE
8
BLACK
6
CONTINUOUS
10
7.80927
20
-5.59889
11
7.80736
21
-5.59869
0
LINE
8
BLACK
6
CONTINUOUS
10
7.80736
20
-5.59869
11
7.80552
21
-5.59812
0
LINE
8
BLACK
6
CONTINUOUS
10
7.80552
20
-5.59812
11
7.80383
21
-5.59721
0
LINE
8
BLACK
6
CONTINUOUS
10
7.80383
20
-5.59721
11
7.80235
21
-5.59599
0
LINE
8
BLACK
6
CONTINUOUS
10
7.80235
20
-5.59599
11
7.80114
21
-5.5945
0
LINE
8
BLACK
6
CONTINUOUS
10
7.80114
20
-5.5945
11
7.80024
21
-5.5928
0
LINE
8
BLACK
6
CONTINUOUS
10
7.80024
20
-5.5928
11
7.79968
21
-5.59096
0
LINE
8
BLACK
6
CONTINUOUS
10
7.79968
20
-5.59096
11
7.79949
21
-5.58905
0
LINE
8
BLACK
6
CONTINUOUS
10
7.79949
20
-5.58905
11
7.79949
21
-5.49578
0
LINE
8
BLACK
6
CONTINUOUS
10
7.79949
20
-5.49578
11
7.70669
21
-5.49578
0
LINE
8
BLACK
6
CONTINUOUS
10
7.70669
20
-5.49578
11
7.70669
21
-5.58905
0
LINE
8
BLACK
6
CONTINUOUS
10
7.70669
20
-5.58905
11
7.70669
21
-5.58919
0
LINE
8
BLACK
6
CONTINUOUS
10
7.70669
20
-5.58919
11
7.70648
21
-5.5911
0
LINE
8
BLACK
6
CONTINUOUS
10
7.70648
20
-5.5911
11
7.7059
21
-5.59293
0
LINE
8
BLACK
6
CONTINUOUS
10
7.7059
20
-5.59293
11
7.70497
21
-5.59461
0
LINE
8
BLACK
6
CONTINUOUS
10
7.70497
20
-5.59461
11
7.70374
21
-5.59608
0
LINE
8
BLACK
6
CONTINUOUS
10
7.70374
20
-5.59608
11
7.70224
21
-5.59729
0
LINE
8
BLACK
6
CONTINUOUS
10
7.70224
20
-5.59729
11
7.70054
21
-5.59818
0
LINE
8
BLACK
6
CONTINUOUS
10
7.70054
20
-5.59818
11
7.69869
21
-5.59872
0
LINE
8
BLACK
6
CONTINUOUS
10
7.69869
20
-5.59872
11
7.69678
21
-5.59889
0
LINE
8
BLACK
6
CONTINUOUS
10
7.69678
20
-5.59889
11
7.69487
21
-5.59869
0
LINE
8
BLACK
6
CONTINUOUS
10
7.69487
20
-5.59869
11
7.69304
21
-5.59812
0
LINE
8
BLACK
6
CONTINUOUS
10
7.69304
20
-5.59812
11
7.69135
21
-5.59721
0
LINE
8
BLACK
6
CONTINUOUS
10
7.69135
20
-5.59721
11
7.68987
21
-5.59599
0
LINE
8
BLACK
6
CONTINUOUS
10
7.68987
20
-5.59599
11
7.68865
21
-5.5945
0
LINE
8
BLACK
6
CONTINUOUS
10
7.68865
20
-5.5945
11
7.68775
21
-5.5928
0
LINE
8
BLACK
6
CONTINUOUS
10
7.68775
20
-5.5928
11
7.6872
21
-5.59096
0
LINE
8
BLACK
6
CONTINUOUS
10
7.6872
20
-5.59096
11
7.68701
21
-5.58905
0
LINE
8
BLACK
6
CONTINUOUS
10
7.68701
20
-5.58905
11
7.68701
21
-5.3922
0
LINE
8
BLACK
6
CONTINUOUS
10
7.68701
20
-5.3922
11
7.68701
21
-5.39206
0
LINE
8
BLACK
6
CONTINUOUS
10
7.68701
20
-5.39206
11
7.68722
21
-5.39015
0
LINE
8
BLACK
6
CONTINUOUS
10
7.68722
20
-5.39015
11
7.6878
21
-5.38832
0
LINE
8
BLACK
6
CONTINUOUS
10
7.6878
20
-5.38832
11
7.68873
21
-5.38664
0
LINE
8
BLACK
6
CONTINUOUS
10
7.68873
20
-5.38664
11
7.68996
21
-5.38517
0
LINE
8
BLACK
6
CONTINUOUS
10
7.68996
20
-5.38517
11
7.69146
21
-5.38397
0
LINE
8
BLACK
6
CONTINUOUS
10
7.69146
20
-5.38397
11
7.69316
21
-5.38308
0
LINE
8
BLACK
6
CONTINUOUS
10
7.69316
20
-5.38308
11
7.69501
21
-5.38253
0
LINE
8
BLACK
6
CONTINUOUS
10
7.69501
20
-5.38253
11
7.69692
21
-5.38236
0
LINE
8
BLACK
6
CONTINUOUS
10
7.69692
20
-5.38236
11
7.69883
21
-5.38256
0
LINE
8
BLACK
6
CONTINUOUS
10
7.69883
20
-5.38256
11
7.70066
21
-5.38313
0
LINE
8
BLACK
6
CONTINUOUS
10
7.70066
20
-5.38313
11
7.70235
21
-5.38404
0
LINE
8
BLACK
6
CONTINUOUS
10
7.70235
20
-5.38404
11
7.70383
21
-5.38527
0
LINE
8
BLACK
6
CONTINUOUS
10
7.70383
20
-5.38527
11
7.70505
21
-5.38675
0
LINE
8
BLACK
6
CONTINUOUS
10
7.70505
20
-5.38675
11
7.70595
21
-5.38845
0
LINE
8
BLACK
6
CONTINUOUS
10
7.70595
20
-5.38845
11
7.70651
21
-5.39029
0
LINE
8
BLACK
6
CONTINUOUS
10
7.70651
20
-5.39029
11
7.70669
21
-5.3922
0
LINE
8
BLACK
6
CONTINUOUS
10
7.70669
20
-5.3922
11
7.70669
21
-5.4761
0
LINE
8
BLACK
6
CONTINUOUS
10
7.70669
20
-5.4761
11
7.79949
21
-5.4761
0
LINE
8
BLACK
6
CONTINUOUS
10
7.79949
20
-5.4761
11
7.79949
21
-5.3922
0
LINE
8
BLACK
6
CONTINUOUS
10
7.79949
20
-5.3922
11
7.79949
21
-5.39206
0
LINE
8
BLACK
6
CONTINUOUS
10
7.79949
20
-5.39206
11
7.79971
21
-5.39015
0
LINE
8
BLACK
6
CONTINUOUS
10
7.79971
20
-5.39015
11
7.80029
21
-5.38832
0
LINE
8
BLACK
6
CONTINUOUS
10
7.80029
20
-5.38832
11
7.80122
21
-5.38664
0
LINE
8
BLACK
6
CONTINUOUS
10
7.80122
20
-5.38664
11
7.80245
21
-5.38517
0
LINE
8
BLACK
6
CONTINUOUS
10
7.80245
20
-5.38517
11
7.80395
21
-5.38397
0
LINE
8
BLACK
6
CONTINUOUS
10
7.80395
20
-5.38397
11
7.80565
21
-5.38308
0
LINE
8
BLACK
6
CONTINUOUS
10
7.80565
20
-5.38308
11
7.80749
21
-5.38253
0
LINE
8
BLACK
6
CONTINUOUS
10
7.80749
20
-5.38253
11
7.8094
21
-5.38236
0
LINE
8
BLACK
6
CONTINUOUS
10
7.8094
20
-5.38236
11
7.81132
21
-5.38256
0
LINE
8
BLACK
6
CONTINUOUS
10
7.63137
20
-5.38236
11
7.63328
21
-5.38257
0
LINE
8
BLACK
6
CONTINUOUS
10
7.63328
20
-5.38257
11
7.63511
21
-5.38315
0
LINE
8
BLACK
6
CONTINUOUS
10
7.63511
20
-5.38315
11
7.63679
21
-5.38408
0
LINE
8
BLACK
6
CONTINUOUS
10
7.63679
20
-5.38408
11
7.63827
21
-5.38531
0
LINE
8
BLACK
6
CONTINUOUS
10
7.63827
20
-5.38531
11
7.63947
21
-5.38681
0
LINE
8
BLACK
6
CONTINUOUS
10
7.63947
20
-5.38681
11
7.64036
21
-5.38851
0
LINE
8
BLACK
6
CONTINUOUS
10
7.64036
20
-5.38851
11
7.6409
21
-5.39036
0
LINE
8
BLACK
6
CONTINUOUS
10
7.6409
20
-5.39036
11
7.64108
21
-5.39227
0
LINE
8
BLACK
6
CONTINUOUS
10
7.64108
20
-5.39227
11
7.64088
21
-5.39418
0
LINE
8
BLACK
6
CONTINUOUS
10
7.64088
20
-5.39418
11
7.64031
21
-5.39602
0
LINE
8
BLACK
6
CONTINUOUS
10
7.64031
20
-5.39602
11
7.63939
21
-5.3977
0
LINE
8
BLACK
6
CONTINUOUS
10
7.63939
20
-5.3977
11
7.63817
21
-5.39918
0
LINE
8
BLACK
6
CONTINUOUS
10
7.63817
20
-5.39918
11
7.63668
21
-5.4004
0
LINE
8
BLACK
6
CONTINUOUS
10
7.63668
20
-5.4004
11
7.63498
21
-5.4013
0
LINE
8
BLACK
6
CONTINUOUS
10
7.63498
20
-5.4013
11
7.63315
21
-5.40186
0
LINE
8
BLACK
6
CONTINUOUS
10
7.63315
20
-5.40186
11
7.63123
21
-5.40204
0
LINE
8
BLACK
6
CONTINUOUS
10
7.63123
20
-5.40204
11
7.58483
21
-5.40204
0
LINE
8
BLACK
6
CONTINUOUS
10
7.58483
20
-5.40204
11
7.58483
21
-5.58905
0
LINE
8
BLACK
6
CONTINUOUS
10
7.58483
20
-5.58905
11
7.58483
21
-5.58919
0
LINE
8
BLACK
6
CONTINUOUS
10
7.58483
20
-5.58919
11
7.58462
21
-5.5911
0
LINE
8
BLACK
6
CONTINUOUS
10
7.58462
20
-5.5911
11
7.58404
21
-5.59293
0
LINE
8
BLACK
6
CONTINUOUS
10
7.58404
20
-5.59293
11
7.58311
21
-5.59461
0
LINE
8
BLACK
6
CONTINUOUS
10
7.58311
20
-5.59461
11
7.58188
21
-5.59608
0
LINE
8
BLACK
6
CONTINUOUS
10
7.58188
20
-5.59608
11
7.58038
21
-5.59729
0
LINE
8
BLACK
6
CONTINUOUS
10
7.58038
20
-5.59729
11
7.57868
21
-5.59818
0
LINE
8
BLACK
6
CONTINUOUS
10
7.57868
20
-5.59818
11
7.57683
21
-5.59872
0
LINE
8
BLACK
6
CONTINUOUS
10
7.57683
20
-5.59872
11
7.57492
21
-5.59889
0
LINE
8
BLACK
6
CONTINUOUS
10
7.57492
20
-5.59889
11
7.57301
21
-5.59869
0
LINE
8
BLACK
6
CONTINUOUS
10
7.57301
20
-5.59869
11
7.57118
21
-5.59812
0
LINE
8
BLACK
6
CONTINUOUS
10
7.57118
20
-5.59812
11
7.56949
21
-5.59721
0
LINE
8
BLACK
6
CONTINUOUS
10
7.56949
20
-5.59721
11
7.56801
21
-5.59599
0
LINE
8
BLACK
6
CONTINUOUS
10
7.56801
20
-5.59599
11
7.56679
21
-5.5945
0
LINE
8
BLACK
6
CONTINUOUS
10
7.56679
20
-5.5945
11
7.56589
21
-5.5928
0
LINE
8
BLACK
6
CONTINUOUS
10
7.56589
20
-5.5928
11
7.56534
21
-5.59096
0
LINE
8
BLACK
6
CONTINUOUS
10
7.56534
20
-5.59096
11
7.56515
21
-5.58905
0
LINE
8
BLACK
6
CONTINUOUS
10
7.56515
20
-5.58905
11
7.56515
21
-5.40204
0
LINE
8
BLACK
6
CONTINUOUS
10
7.56515
20
-5.40204
11
7.51875
21
-5.40204
0
LINE
8
BLACK
6
CONTINUOUS
10
7.51875
20
-5.40204
11
7.51861
21
-5.40204
0
LINE
8
BLACK
6
CONTINUOUS
10
7.51861
20
-5.40204
11
7.5167
21
-5.40183
0
LINE
8
BLACK
6
CONTINUOUS
10
7.5167
20
-5.40183
11
7.51487
21
-5.40125
0
LINE
8
BLACK
6
CONTINUOUS
10
7.51487
20
-5.40125
11
7.51319
21
-5.40032
0
LINE
8
BLACK
6
CONTINUOUS
10
7.51319
20
-5.40032
11
7.51172
21
-5.39909
0
LINE
8
BLACK
6
CONTINUOUS
10
7.51172
20
-5.39909
11
7.51051
21
-5.39759
0
LINE
8
BLACK
6
CONTINUOUS
10
7.51051
20
-5.39759
11
7.50962
21
-5.39589
0
LINE
8
BLACK
6
CONTINUOUS
10
7.50962
20
-5.39589
11
7.50908
21
-5.39405
0
LINE
8
BLACK
6
CONTINUOUS
10
7.50908
20
-5.39405
11
7.50891
21
-5.39213
0
LINE
8
BLACK
6
CONTINUOUS
10
7.50891
20
-5.39213
11
7.50911
21
-5.39022
0
LINE
8
BLACK
6
CONTINUOUS
10
7.50911
20
-5.39022
11
7.50967
21
-5.38839
0
LINE
8
BLACK
6
CONTINUOUS
10
7.50967
20
-5.38839
11
7.51059
21
-5.3867
0
LINE
8
BLACK
6
CONTINUOUS
10
7.51059
20
-5.3867
11
7.51181
21
-5.38522
0
LINE
8
BLACK
6
CONTINUOUS
10
7.51181
20
-5.38522
11
7.5133
21
-5.384
0
LINE
8
BLACK
6
CONTINUOUS
10
7.5133
20
-5.384
11
7.515
21
-5.3831
0
LINE
8
BLACK
6
CONTINUOUS
10
7.515
20
-5.3831
11
7.51684
21
-5.38255
0
LINE
8
BLACK
6
CONTINUOUS
10
7.51684
20
-5.38255
11
7.51875
21
-5.38236
0
LINE
8
BLACK
6
CONTINUOUS
10
7.51875
20
-5.38236
11
7.63123
21
-5.38236
0
LINE
8
BLACK
6
CONTINUOUS
10
7.63123
20
-5.38236
11
7.63137
21
-5.38236
0
LINE
8
BLACK
6
CONTINUOUS
10
7.30513
20
-5.38256
11
7.30696
21
-5.38313
0
LINE
8
BLACK
6
CONTINUOUS
10
7.30696
20
-5.38313
11
7.30865
21
-5.38404
0
LINE
8
BLACK
6
CONTINUOUS
10
7.30865
20
-5.38404
11
7.31013
21
-5.38527
0
LINE
8
BLACK
6
CONTINUOUS
10
7.31013
20
-5.38527
11
7.31135
21
-5.38675
0
LINE
8
BLACK
6
CONTINUOUS
10
7.31135
20
-5.38675
11
7.31225
21
-5.38845
0
LINE
8
BLACK
6
CONTINUOUS
10
7.31225
20
-5.38845
11
7.3128
21
-5.39029
0
LINE
8
BLACK
6
CONTINUOUS
10
7.3128
20
-5.39029
11
7.31299
21
-5.3922
0
LINE
8
BLACK
6
CONTINUOUS
10
7.31299
20
-5.3922
11
7.31299
21
-5.58905
0
LINE
8
BLACK
6
CONTINUOUS
10
7.31299
20
-5.58905
11
7.31299
21
-5.58919
0
LINE
8
BLACK
6
CONTINUOUS
10
7.31299
20
-5.58919
11
7.31278
21
-5.5911
0
LINE
8
BLACK
6
CONTINUOUS
10
7.31278
20
-5.5911
11
7.3122
21
-5.59293
0
LINE
8
BLACK
6
CONTINUOUS
10
7.3122
20
-5.59293
11
7.31127
21
-5.59461
0
LINE
8
BLACK
6
CONTINUOUS
10
7.31127
20
-5.59461
11
7.31004
21
-5.59608
0
LINE
8
BLACK
6
CONTINUOUS
10
7.31004
20
-5.59608
11
7.30854
21
-5.59729
0
LINE
8
BLACK
6
CONTINUOUS
10
7.30854
20
-5.59729
11
7.30684
21
-5.59818
0
LINE
8
BLACK
6
CONTINUOUS
10
7.30684
20
-5.59818
11
7.30499
21
-5.59872
0
LINE
8
BLACK
6
CONTINUOUS
10
7.30499
20
-5.59872
11
7.30308
21
-5.59889
0
LINE
8
BLACK
6
CONTINUOUS
10
7.30308
20
-5.59889
11
7.30117
21
-5.59869
0
LINE
8
BLACK
6
CONTINUOUS
10
7.30117
20
-5.59869
11
7.29934
21
-5.59812
0
LINE
8
BLACK
6
CONTINUOUS
10
7.29934
20
-5.59812
11
7.29765
21
-5.59721
0
LINE
8
BLACK
6
CONTINUOUS
10
7.29765
20
-5.59721
11
7.29617
21
-5.59599
0
LINE
8
BLACK
6
CONTINUOUS
10
7.29617
20
-5.59599
11
7.29495
21
-5.5945
0
LINE
8
BLACK
6
CONTINUOUS
10
7.29495
20
-5.5945
11
7.29405
21
-5.5928
0
LINE
8
BLACK
6
CONTINUOUS
10
7.29405
20
-5.5928
11
7.29349
21
-5.59096
0
LINE
8
BLACK
6
CONTINUOUS
10
7.29349
20
-5.59096
11
7.29331
21
-5.58905
0
LINE
8
BLACK
6
CONTINUOUS
10
7.29331
20
-5.58905
11
7.29331
21
-5.3922
0
LINE
8
BLACK
6
CONTINUOUS
10
7.29331
20
-5.3922
11
7.29331
21
-5.39206
0
LINE
8
BLACK
6
CONTINUOUS
10
7.29331
20
-5.39206
11
7.29352
21
-5.39015
0
LINE
8
BLACK
6
CONTINUOUS
10
7.29352
20
-5.39015
11
7.2941
21
-5.38832
0
LINE
8
BLACK
6
CONTINUOUS
10
7.2941
20
-5.38832
11
7.29503
21
-5.38664
0
LINE
8
BLACK
6
CONTINUOUS
10
7.29503
20
-5.38664
11
7.29626
21
-5.38517
0
LINE
8
BLACK
6
CONTINUOUS
10
7.29626
20
-5.38517
11
7.29776
21
-5.38397
0
LINE
8
BLACK
6
CONTINUOUS
10
7.29776
20
-5.38397
11
7.29946
21
-5.38308
0
LINE
8
BLACK
6
CONTINUOUS
10
7.29946
20
-5.38308
11
7.30131
21
-5.38253
0
LINE
8
BLACK
6
CONTINUOUS
10
7.30131
20
-5.38253
11
7.30322
21
-5.38236
0
LINE
8
BLACK
6
CONTINUOUS
10
7.30322
20
-5.38236
11
7.30513
21
-5.38256
0
LINE
8
BLACK
6
CONTINUOUS
10
9.78473
20
-5.38256
11
9.78657
21
-5.38313
0
LINE
8
BLACK
6
CONTINUOUS
10
9.78657
20
-5.38313
11
9.78826
21
-5.38404
0
LINE
8
BLACK
6
CONTINUOUS
10
9.78826
20
-5.38404
11
9.78974
21
-5.38527
0
LINE
8
BLACK
6
CONTINUOUS
10
9.78974
20
-5.38527
11
9.79095
21
-5.38675
0
LINE
8
BLACK
6
CONTINUOUS
10
9.79095
20
-5.38675
11
9.79185
21
-5.38845
0
LINE
8
BLACK
6
CONTINUOUS
10
9.79185
20
-5.38845
11
9.79241
21
-5.39029
0
LINE
8
BLACK
6
CONTINUOUS
10
9.79241
20
-5.39029
11
9.79259
21
-5.3922
0
LINE
8
BLACK
6
CONTINUOUS
10
9.79259
20
-5.3922
11
9.79259
21
-5.58905
0
LINE
8
BLACK
6
CONTINUOUS
10
9.79259
20
-5.58905
11
9.79259
21
-5.58919
0
LINE
8
BLACK
6
CONTINUOUS
10
9.79259
20
-5.58919
11
9.79256
21
-5.58952
0
LINE
8
BLACK
6
CONTINUOUS
10
9.79256
20
-5.58952
11
9.79256
21
-5.58985
0
LINE
8
BLACK
6
CONTINUOUS
10
9.79256
20
-5.58985
11
9.79245
21
-5.59047
0
LINE
8
BLACK
6
CONTINUOUS
10
9.79245
20
-5.59047
11
9.79238
21
-5.5911
0
LINE
8
BLACK
6
CONTINUOUS
10
9.79238
20
-5.5911
11
9.79228
21
-5.59141
0
LINE
8
BLACK
6
CONTINUOUS
10
9.79228
20
-5.59141
11
9.79222
21
-5.59174
0
LINE
8
BLACK
6
CONTINUOUS
10
9.79222
20
-5.59174
11
9.79199
21
-5.59233
0
LINE
8
BLACK
6
CONTINUOUS
10
9.79199
20
-5.59233
11
9.7918
21
-5.59293
0
LINE
8
BLACK
6
CONTINUOUS
10
9.7918
20
-5.59293
11
9.79164
21
-5.59322
0
LINE
8
BLACK
6
CONTINUOUS
10
9.79164
20
-5.59322
11
9.79152
21
-5.59353
0
LINE
8
BLACK
6
CONTINUOUS
10
9.79152
20
-5.59353
11
9.79118
21
-5.59406
0
LINE
8
BLACK
6
CONTINUOUS
10
9.79118
20
-5.59406
11
9.79087
21
-5.59461
0
LINE
8
BLACK
6
CONTINUOUS
10
9.79087
20
-5.59461
11
9.79066
21
-5.59487
0
LINE
8
BLACK
6
CONTINUOUS
10
9.79066
20
-5.59487
11
9.79048
21
-5.59515
0
LINE
8
BLACK
6
CONTINUOUS
10
9.79048
20
-5.59515
11
9.79004
21
-5.5956
0
LINE
8
BLACK
6
CONTINUOUS
10
9.79004
20
-5.5956
11
9.78964
21
-5.59608
0
LINE
8
BLACK
6
CONTINUOUS
10
9.78964
20
-5.59608
11
9.78938
21
-5.59629
0
LINE
8
BLACK
6
CONTINUOUS
10
9.78938
20
-5.59629
11
9.78915
21
-5.59653
0
LINE
8
BLACK
6
CONTINUOUS
10
9.78915
20
-5.59653
11
9.78863
21
-5.59689
0
LINE
8
BLACK
6
CONTINUOUS
10
9.78863
20
-5.59689
11
9.78814
21
-5.59729
0
LINE
8
BLACK
6
CONTINUOUS
10
9.78814
20
-5.59729
11
9.78785
21
-5.59744
0
LINE
8
BLACK
6
CONTINUOUS
10
9.78785
20
-5.59744
11
9.78758
21
-5.59763
0
LINE
8
BLACK
6
CONTINUOUS
10
9.78758
20
-5.59763
11
9.787
21
-5.59789
0
LINE
8
BLACK
6
CONTINUOUS
10
9.787
20
-5.59789
11
9.78644
21
-5.59818
0
LINE
8
BLACK
6
CONTINUOUS
10
9.78644
20
-5.59818
11
9.78612
21
-5.59827
0
LINE
8
BLACK
6
CONTINUOUS
10
9.78612
20
-5.59827
11
9.78582
21
-5.5984
0
LINE
8
BLACK
6
CONTINUOUS
10
9.78582
20
-5.5984
11
9.7852
21
-5.59854
0
LINE
8
BLACK
6
CONTINUOUS
10
9.7852
20
-5.59854
11
9.7846
21
-5.59872
0
LINE
8
BLACK
6
CONTINUOUS
10
9.7846
20
-5.59872
11
9.78427
21
-5.59875
0
LINE
8
BLACK
6
CONTINUOUS
10
9.78427
20
-5.59875
11
9.78394
21
-5.59882
0
LINE
8
BLACK
6
CONTINUOUS
10
9.78394
20
-5.59882
11
9.78331
21
-5.59884
0
LINE
8
BLACK
6
CONTINUOUS
10
9.78331
20
-5.59884
11
9.78268
21
-5.59889
0
LINE
8
BLACK
6
CONTINUOUS
10
9.78268
20
-5.59889
11
9.78235
21
-5.59886
0
LINE
8
BLACK
6
CONTINUOUS
10
9.78235
20
-5.59886
11
9.78202
21
-5.59887
0
LINE
8
BLACK
6
CONTINUOUS
10
9.78202
20
-5.59887
11
9.7814
21
-5.59876
0
LINE
8
BLACK
6
CONTINUOUS
10
9.7814
20
-5.59876
11
9.78077
21
-5.59869
0
LINE
8
BLACK
6
CONTINUOUS
10
9.78077
20
-5.59869
11
9.78046
21
-5.59859
0
LINE
8
BLACK
6
CONTINUOUS
10
9.78046
20
-5.59859
11
9.78013
21
-5.59854
0
LINE
8
BLACK
6
CONTINUOUS
10
9.78013
20
-5.59854
11
9.77954
21
-5.59831
0
LINE
8
BLACK
6
CONTINUOUS
10
9.77954
20
-5.59831
11
9.77894
21
-5.59812
0
LINE
8
BLACK
6
CONTINUOUS
10
9.77894
20
-5.59812
11
9.77865
21
-5.59797
0
LINE
8
BLACK
6
CONTINUOUS
10
9.77865
20
-5.59797
11
9.77834
21
-5.59785
0
LINE
8
BLACK
6
CONTINUOUS
10
9.77834
20
-5.59785
11
9.7778
21
-5.59751
0
LINE
8
BLACK
6
CONTINUOUS
10
9.7778
20
-5.59751
11
9.77725
21
-5.59721
0
LINE
8
BLACK
6
CONTINUOUS
10
9.77725
20
-5.59721
11
9.77699
21
-5.597
0
LINE
8
BLACK
6
CONTINUOUS
10
9.77699
20
-5.597
11
9.77671
21
-5.59682
0
LINE
8
BLACK
6
CONTINUOUS
10
9.77671
20
-5.59682
11
9.77625
21
-5.59639
0
LINE
8
BLACK
6
CONTINUOUS
10
9.77625
20
-5.59639
11
9.77577
21
-5.59599
0
LINE
8
BLACK
6
CONTINUOUS
10
9.77577
20
-5.59599
11
9.77556
21
-5.59573
0
LINE
8
BLACK
6
CONTINUOUS
10
9.77556
20
-5.59573
11
9.77532
21
-5.5955
0
LINE
8
BLACK
6
CONTINUOUS
10
9.77532
20
-5.5955
11
9.77495
21
-5.59499
0
LINE
8
BLACK
6
CONTINUOUS
10
9.77495
20
-5.59499
11
9.77455
21
-5.5945
0
LINE
8
BLACK
6
CONTINUOUS
10
9.77455
20
-5.5945
11
9.7744
21
-5.59421
0
LINE
8
BLACK
6
CONTINUOUS
10
9.7744
20
-5.59421
11
9.77421
21
-5.59393
0
LINE
8
BLACK
6
CONTINUOUS
10
9.77421
20
-5.59393
11
9.68011
21
-5.42926
0
LINE
8
BLACK
6
CONTINUOUS
10
9.68011
20
-5.42926
11
9.68011
21
-5.58905
0
LINE
8
BLACK
6
CONTINUOUS
10
9.68011
20
-5.58905
11
9.68011
21
-5.58919
0
LINE
8
BLACK
6
CONTINUOUS
10
9.68011
20
-5.58919
11
9.67989
21
-5.5911
0
LINE
8
BLACK
6
CONTINUOUS
10
9.67989
20
-5.5911
11
9.67931
21
-5.59293
0
LINE
8
BLACK
6
CONTINUOUS
10
9.67931
20
-5.59293
11
9.67839
21
-5.59461
0
LINE
8
BLACK
6
CONTINUOUS
10
9.67839
20
-5.59461
11
9.67715
21
-5.59608
0
LINE
8
BLACK
6
CONTINUOUS
10
9.67715
20
-5.59608
11
9.67566
21
-5.59729
0
LINE
8
BLACK
6
CONTINUOUS
10
9.67566
20
-5.59729
11
9.67395
21
-5.59818
0
LINE
8
BLACK
6
CONTINUOUS
10
9.67395
20
-5.59818
11
9.67211
21
-5.59872
0
LINE
8
BLACK
6
CONTINUOUS
10
9.67211
20
-5.59872
11
9.6702
21
-5.59889
0
LINE
8
BLACK
6
CONTINUOUS
10
9.6702
20
-5.59889
11
9.66829
21
-5.59869
0
LINE
8
BLACK
6
CONTINUOUS
10
9.66829
20
-5.59869
11
9.66645
21
-5.59812
0
LINE
8
BLACK
6
CONTINUOUS
10
9.66645
20
-5.59812
11
9.66476
21
-5.59721
0
LINE
8
BLACK
6
CONTINUOUS
10
9.66476
20
-5.59721
11
9.66328
21
-5.59599
0
LINE
8
BLACK
6
CONTINUOUS
10
9.66328
20
-5.59599
11
9.66207
21
-5.5945
0
LINE
8
BLACK
6
CONTINUOUS
10
9.66207
20
-5.5945
11
9.66117
21
-5.5928
0
LINE
8
BLACK
6
CONTINUOUS
10
9.66117
20
-5.5928
11
9.66061
21
-5.59096
0
LINE
8
BLACK
6
CONTINUOUS
10
9.66061
20
-5.59096
11
9.66042
21
-5.58905
0
LINE
8
BLACK
6
CONTINUOUS
10
9.66042
20
-5.58905
11
9.66042
21
-5.3922
0
LINE
8
BLACK
6
CONTINUOUS
10
9.66042
20
-5.3922
11
9.66042
21
-5.39206
0
LINE
8
BLACK
6
CONTINUOUS
10
9.66042
20
-5.39206
11
9.66046
21
-5.39173
0
LINE
8
BLACK
6
CONTINUOUS
10
9.66046
20
-5.39173
11
9.66046
21
-5.3914
0
LINE
8
BLACK
6
CONTINUOUS
10
9.66046
20
-5.3914
11
9.66057
21
-5.39078
0
LINE
8
BLACK
6
CONTINUOUS
10
9.66057
20
-5.39078
11
9.66064
21
-5.39015
0
LINE
8
BLACK
6
CONTINUOUS
10
9.66064
20
-5.39015
11
9.66074
21
-5.38984
0
LINE
8
BLACK
6
CONTINUOUS
10
9.66074
20
-5.38984
11
9.6608
21
-5.38951
0
LINE
8
BLACK
6
CONTINUOUS
10
9.6608
20
-5.38951
11
9.66103
21
-5.38892
0
LINE
8
BLACK
6
CONTINUOUS
10
9.66103
20
-5.38892
11
9.66122
21
-5.38832
0
LINE
8
BLACK
6
CONTINUOUS
10
9.66122
20
-5.38832
11
9.66138
21
-5.38803
0
LINE
8
BLACK
6
CONTINUOUS
10
9.66138
20
-5.38803
11
9.6615
21
-5.38772
0
LINE
8
BLACK
6
CONTINUOUS
10
9.6615
20
-5.38772
11
9.66184
21
-5.38719
0
LINE
8
BLACK
6
CONTINUOUS
10
9.66184
20
-5.38719
11
9.66215
21
-5.38664
0
LINE
8
BLACK
6
CONTINUOUS
10
9.66215
20
-5.38664
11
9.66236
21
-5.38639
0
LINE
8
BLACK
6
CONTINUOUS
10
9.66236
20
-5.38639
11
9.66254
21
-5.38611
0
LINE
8
BLACK
6
CONTINUOUS
10
9.66254
20
-5.38611
11
9.66297
21
-5.38565
0
LINE
8
BLACK
6
CONTINUOUS
10
9.66297
20
-5.38565
11
9.66338
21
-5.38517
0
LINE
8
BLACK
6
CONTINUOUS
10
9.66338
20
-5.38517
11
9.66364
21
-5.38496
0
LINE
8
BLACK
6
CONTINUOUS
10
9.66364
20
-5.38496
11
9.66387
21
-5.38472
0
LINE
8
BLACK
6
CONTINUOUS
10
9.66387
20
-5.38472
11
9.66439
21
-5.38436
0
LINE
8
BLACK
6
CONTINUOUS
10
9.66439
20
-5.38436
11
9.66488
21
-5.38397
0
LINE
8
BLACK
6
CONTINUOUS
10
9.66488
20
-5.38397
11
9.66517
21
-5.38381
0
LINE
8
BLACK
6
CONTINUOUS
10
9.66517
20
-5.38381
11
9.66544
21
-5.38362
0
LINE
8
BLACK
6
CONTINUOUS
10
9.66544
20
-5.38362
11
9.66602
21
-5.38337
0
LINE
8
BLACK
6
CONTINUOUS
10
9.66602
20
-5.38337
11
9.66658
21
-5.38308
0
LINE
8
BLACK
6
CONTINUOUS
10
9.66658
20
-5.38308
11
9.6669
21
-5.38298
0
LINE
8
BLACK
6
CONTINUOUS
10
9.6669
20
-5.38298
11
9.6672
21
-5.38285
0
LINE
8
BLACK
6
CONTINUOUS
10
9.6672
20
-5.38285
11
9.66782
21
-5.38271
0
LINE
8
BLACK
6
CONTINUOUS
10
9.66782
20
-5.38271
11
9.66842
21
-5.38253
0
LINE
8
BLACK
6
CONTINUOUS
10
9.66842
20
-5.38253
11
9.66875
21
-5.3825
0
LINE
8
BLACK
6
CONTINUOUS
10
9.66875
20
-5.3825
11
9.66908
21
-5.38243
0
LINE
8
BLACK
6
CONTINUOUS
10
9.66908
20
-5.38243
11
9.66971
21
-5.38242
0
LINE
8
BLACK
6
CONTINUOUS
10
9.66971
20
-5.38242
11
9.67033
21
-5.38236
0
LINE
8
BLACK
6
CONTINUOUS
10
9.67033
20
-5.38236
11
9.67067
21
-5.38239
0
LINE
8
BLACK
6
CONTINUOUS
10
9.67067
20
-5.38239
11
9.671
21
-5.38239
0
LINE
8
BLACK
6
CONTINUOUS
10
9.671
20
-5.38239
11
9.67162
21
-5.38249
0
LINE
8
BLACK
6
CONTINUOUS
10
9.67162
20
-5.38249
11
9.67225
21
-5.38256
0
LINE
8
BLACK
6
CONTINUOUS
10
9.67225
20
-5.38256
11
9.67256
21
-5.38266
0
LINE
8
BLACK
6
CONTINUOUS
10
9.67256
20
-5.38266
11
9.67289
21
-5.38271
0
LINE
8
BLACK
6
CONTINUOUS
10
9.67289
20
-5.38271
11
9.67348
21
-5.38294
0
LINE
8
BLACK
6
CONTINUOUS
10
9.67348
20
-5.38294
11
9.67408
21
-5.38313
0
LINE
8
BLACK
6
CONTINUOUS
10
9.67408
20
-5.38313
11
9.67437
21
-5.38329
0
LINE
8
BLACK
6
CONTINUOUS
10
9.67437
20
-5.38329
11
9.67468
21
-5.3834
0
LINE
8
BLACK
6
CONTINUOUS
10
9.67468
20
-5.3834
11
9.67522
21
-5.38374
0
LINE
8
BLACK
6
CONTINUOUS
10
9.67522
20
-5.38374
11
9.67577
21
-5.38404
0
LINE
8
BLACK
6
CONTINUOUS
10
9.67577
20
-5.38404
11
9.67603
21
-5.38425
0
LINE
8
BLACK
6
CONTINUOUS
10
9.67603
20
-5.38425
11
9.67631
21
-5.38443
0
LINE
8
BLACK
6
CONTINUOUS
10
9.67631
20
-5.38443
11
9.67676
21
-5.38486
0
LINE
8
BLACK
6
CONTINUOUS
10
9.67676
20
-5.38486
11
9.67725
21
-5.38527
0
LINE
8
BLACK
6
CONTINUOUS
10
9.67725
20
-5.38527
11
9.67746
21
-5.38552
0
LINE
8
BLACK
6
CONTINUOUS
10
9.67746
20
-5.38552
11
9.6777
21
-5.38575
0
LINE
8
BLACK
6
CONTINUOUS
10
9.6777
20
-5.38575
11
9.67807
21
-5.38627
0
LINE
8
BLACK
6
CONTINUOUS
10
9.67807
20
-5.38627
11
9.67846
21
-5.38675
0
LINE
8
BLACK
6
CONTINUOUS
10
9.67846
20
-5.38675
11
9.67862
21
-5.38705
0
LINE
8
BLACK
6
CONTINUOUS
10
9.67862
20
-5.38705
11
9.67881
21
-5.38732
0
LINE
8
BLACK
6
CONTINUOUS
10
9.67881
20
-5.38732
11
9.77291
21
-5.55199
0
LINE
8
BLACK
6
CONTINUOUS
10
9.77291
20
-5.55199
11
9.77291
21
-5.3922
0
LINE
8
BLACK
6
CONTINUOUS
10
9.77291
20
-5.3922
11
9.77291
21
-5.39206
0
LINE
8
BLACK
6
CONTINUOUS
10
9.77291
20
-5.39206
11
9.77312
21
-5.39015
0
LINE
8
BLACK
6
CONTINUOUS
10
9.77312
20
-5.39015
11
9.77371
21
-5.38832
0
LINE
8
BLACK
6
CONTINUOUS
10
9.77371
20
-5.38832
11
9.77463
21
-5.38664
0
LINE
8
BLACK
6
CONTINUOUS
10
9.77463
20
-5.38664
11
9.77587
21
-5.38517
0
LINE
8
BLACK
6
CONTINUOUS
10
9.77587
20
-5.38517
11
9.77736
21
-5.38397
0
LINE
8
BLACK
6
CONTINUOUS
10
9.77736
20
-5.38397
11
9.77907
21
-5.38308
0
LINE
8
BLACK
6
CONTINUOUS
10
9.77907
20
-5.38308
11
9.78091
21
-5.38253
0
LINE
8
BLACK
6
CONTINUOUS
10
9.78091
20
-5.38253
11
9.78282
21
-5.38236
0
LINE
8
BLACK
6
CONTINUOUS
10
9.78282
20
-5.38236
11
9.78473
21
-5.38256
0
LINE
8
BLACK
6
CONTINUOUS
10
7.01454
20
-5.38256
11
7.01638
21
-5.38313
0
LINE
8
BLACK
6
CONTINUOUS
10
7.01638
20
-5.38313
11
7.01806
21
-5.38404
0
LINE
8
BLACK
6
CONTINUOUS
10
7.01806
20
-5.38404
11
7.01954
21
-5.38527
0
LINE
8
BLACK
6
CONTINUOUS
10
7.01954
20
-5.38527
11
7.02076
21
-5.38675
0
LINE
8
BLACK
6
CONTINUOUS
10
7.02076
20
-5.38675
11
7.02166
21
-5.38845
0
LINE
8
BLACK
6
CONTINUOUS
10
7.02166
20
-5.38845
11
7.02222
21
-5.39029
0
LINE
8
BLACK
6
CONTINUOUS
10
7.02222
20
-5.39029
11
7.0224
21
-5.3922
0
LINE
8
BLACK
6
CONTINUOUS
10
7.0224
20
-5.3922
11
7.0224
21
-5.58905
0
LINE
8
BLACK
6
CONTINUOUS
10
7.0224
20
-5.58905
11
7.0224
21
-5.58919
0
LINE
8
BLACK
6
CONTINUOUS
10
7.0224
20
-5.58919
11
7.02219
21
-5.5911
0
LINE
8
BLACK
6
CONTINUOUS
10
7.02219
20
-5.5911
11
7.02161
21
-5.59293
0
LINE
8
BLACK
6
CONTINUOUS
10
7.02161
20
-5.59293
11
7.02068
21
-5.59461
0
LINE
8
BLACK
6
CONTINUOUS
10
7.02068
20
-5.59461
11
7.01945
21
-5.59608
0
LINE
8
BLACK
6
CONTINUOUS
10
7.01945
20
-5.59608
11
7.01795
21
-5.59729
0
LINE
8
BLACK
6
CONTINUOUS
10
7.01795
20
-5.59729
11
7.01625
21
-5.59818
0
LINE
8
BLACK
6
CONTINUOUS
10
7.01625
20
-5.59818
11
7.01441
21
-5.59872
0
LINE
8
BLACK
6
CONTINUOUS
10
7.01441
20
-5.59872
11
7.01249
21
-5.59889
0
LINE
8
BLACK
6
CONTINUOUS
10
7.01249
20
-5.59889
11
7.01058
21
-5.59869
0
LINE
8
BLACK
6
CONTINUOUS
10
7.01058
20
-5.59869
11
7.00875
21
-5.59812
0
LINE
8
BLACK
6
CONTINUOUS
10
7.00875
20
-5.59812
11
7.00706
21
-5.59721
0
LINE
8
BLACK
6
CONTINUOUS
10
7.00706
20
-5.59721
11
7.00558
21
-5.59599
0
LINE
8
BLACK
6
CONTINUOUS
10
7.00558
20
-5.59599
11
7.00436
21
-5.5945
0
LINE
8
BLACK
6
CONTINUOUS
10
7.00436
20
-5.5945
11
7.00346
21
-5.5928
0
LINE
8
BLACK
6
CONTINUOUS
10
7.00346
20
-5.5928
11
7.00291
21
-5.59096
0
LINE
8
BLACK
6
CONTINUOUS
10
7.00291
20
-5.59096
11
7.00272
21
-5.58905
0
LINE
8
BLACK
6
CONTINUOUS
10
7.00272
20
-5.58905
11
7.00272
21
-5.3922
0
LINE
8
BLACK
6
CONTINUOUS
10
7.00272
20
-5.3922
11
7.00272
21
-5.39206
0
LINE
8
BLACK
6
CONTINUOUS
10
7.00272
20
-5.39206
11
7.00293
21
-5.39015
0
LINE
8
BLACK
6
CONTINUOUS
10
7.00293
20
-5.39015
11
7.00351
21
-5.38832
0
LINE
8
BLACK
6
CONTINUOUS
10
7.00351
20
-5.38832
11
7.00444
21
-5.38664
0
LINE
8
BLACK
6
CONTINUOUS
10
7.00444
20
-5.38664
11
7.00567
21
-5.38517
0
LINE
8
BLACK
6
CONTINUOUS
10
7.00567
20
-5.38517
11
7.00717
21
-5.38397
0
LINE
8
BLACK
6
CONTINUOUS
10
7.00717
20
-5.38397
11
7.00887
21
-5.38308
0
LINE
8
BLACK
6
CONTINUOUS
10
7.00887
20
-5.38308
11
7.01072
21
-5.38253
0
LINE
8
BLACK
6
CONTINUOUS
10
7.01072
20
-5.38253
11
7.01263
21
-5.38236
0
LINE
8
BLACK
6
CONTINUOUS
10
7.01263
20
-5.38236
11
7.01454
21
-5.38256
0
LINE
8
BLACK
6
CONTINUOUS
10
9.33479
20
-5.38256
11
9.33662
21
-5.38313
0
LINE
8
BLACK
6
CONTINUOUS
10
9.33662
20
-5.38313
11
9.33831
21
-5.38404
0
LINE
8
BLACK
6
CONTINUOUS
10
9.33831
20
-5.38404
11
9.33979
21
-5.38527
0
LINE
8
BLACK
6
CONTINUOUS
10
9.33979
20
-5.38527
11
9.34101
21
-5.38675
0
LINE
8
BLACK
6
CONTINUOUS
10
9.34101
20
-5.38675
11
9.34191
21
-5.38845
0
LINE
8
BLACK
6
CONTINUOUS
10
9.34191
20
-5.38845
11
9.34246
21
-5.39029
0
LINE
8
BLACK
6
CONTINUOUS
10
9.34246
20
-5.39029
11
9.34265
21
-5.3922
0
LINE
8
BLACK
6
CONTINUOUS
10
9.34265
20
-5.3922
11
9.34265
21
-5.58905
0
LINE
8
BLACK
6
CONTINUOUS
10
9.34265
20
-5.58905
11
9.34265
21
-5.58919
0
LINE
8
BLACK
6
CONTINUOUS
10
9.34265
20
-5.58919
11
9.34244
21
-5.5911
0
LINE
8
BLACK
6
CONTINUOUS
10
9.34244
20
-5.5911
11
9.34185
21
-5.59293
0
LINE
8
BLACK
6
CONTINUOUS
10
9.34185
20
-5.59293
11
9.34093
21
-5.59461
0
LINE
8
BLACK
6
CONTINUOUS
10
9.34093
20
-5.59461
11
9.33969
21
-5.59608
0
LINE
8
BLACK
6
CONTINUOUS
10
9.33969
20
-5.59608
11
9.3382
21
-5.59729
0
LINE
8
BLACK
6
CONTINUOUS
10
9.3382
20
-5.59729
11
9.3365
21
-5.59818
0
LINE
8
BLACK
6
CONTINUOUS
10
9.3365
20
-5.59818
11
9.33465
21
-5.59872
0
LINE
8
BLACK
6
CONTINUOUS
10
9.33465
20
-5.59872
11
9.33274
21
-5.59889
0
LINE
8
BLACK
6
CONTINUOUS
10
9.33274
20
-5.59889
11
9.33083
21
-5.59869
0
LINE
8
BLACK
6
CONTINUOUS
10
9.33083
20
-5.59869
11
9.32899
21
-5.59812
0
LINE
8
BLACK
6
CONTINUOUS
10
9.32899
20
-5.59812
11
9.3273
21
-5.59721
0
LINE
8
BLACK
6
CONTINUOUS
10
9.3273
20
-5.59721
11
9.32582
21
-5.59599
0
LINE
8
BLACK
6
CONTINUOUS
10
9.32582
20
-5.59599
11
9.32461
21
-5.5945
0
LINE
8
BLACK
6
CONTINUOUS
10
9.32461
20
-5.5945
11
9.32371
21
-5.5928
0
LINE
8
BLACK
6
CONTINUOUS
10
9.32371
20
-5.5928
11
9.32315
21
-5.59096
0
LINE
8
BLACK
6
CONTINUOUS
10
9.32315
20
-5.59096
11
9.32297
21
-5.58905
0
LINE
8
BLACK
6
CONTINUOUS
10
9.32297
20
-5.58905
11
9.32297
21
-5.3922
0
LINE
8
BLACK
6
CONTINUOUS
10
9.32297
20
-5.3922
11
9.32297
21
-5.39206
0
LINE
8
BLACK
6
CONTINUOUS
10
9.32297
20
-5.39206
11
9.32318
21
-5.39015
0
LINE
8
BLACK
6
CONTINUOUS
10
9.32318
20
-5.39015
11
9.32376
21
-5.38832
0
LINE
8
BLACK
6
CONTINUOUS
10
9.32376
20
-5.38832
11
9.32469
21
-5.38664
0
LINE
8
BLACK
6
CONTINUOUS
10
9.32469
20
-5.38664
11
9.32592
21
-5.38517
0
LINE
8
BLACK
6
CONTINUOUS
10
9.32592
20
-5.38517
11
9.32742
21
-5.38397
0
LINE
8
BLACK
6
CONTINUOUS
10
9.32742
20
-5.38397
11
9.32912
21
-5.38308
0
LINE
8
BLACK
6
CONTINUOUS
10
9.32912
20
-5.38308
11
9.33096
21
-5.38253
0
LINE
8
BLACK
6
CONTINUOUS
10
9.33096
20
-5.38253
11
9.33288
21
-5.38236
0
LINE
8
BLACK
6
CONTINUOUS
10
9.33288
20
-5.38236
11
9.33479
21
-5.38256
0
LINE
8
BLACK
6
CONTINUOUS
10
9.57851
20
-5.38256
11
9.58034
21
-5.38313
0
LINE
8
BLACK
6
CONTINUOUS
10
9.58034
20
-5.38313
11
9.58203
21
-5.38404
0
LINE
8
BLACK
6
CONTINUOUS
10
9.58203
20
-5.38404
11
9.58351
21
-5.38527
0
LINE
8
BLACK
6
CONTINUOUS
10
9.58351
20
-5.38527
11
9.58473
21
-5.38675
0
LINE
8
BLACK
6
CONTINUOUS
10
9.58473
20
-5.38675
11
9.58563
21
-5.38845
0
LINE
8
BLACK
6
CONTINUOUS
10
9.58563
20
-5.38845
11
9.58618
21
-5.39029
0
LINE
8
BLACK
6
CONTINUOUS
10
9.58618
20
-5.39029
11
9.58637
21
-5.3922
0
LINE
8
BLACK
6
CONTINUOUS
10
9.58637
20
-5.3922
11
9.58637
21
-5.58905
0
LINE
8
BLACK
6
CONTINUOUS
10
9.58637
20
-5.58905
11
9.58637
21
-5.58919
0
LINE
8
BLACK
6
CONTINUOUS
10
9.58637
20
-5.58919
11
9.58616
21
-5.5911
0
LINE
8
BLACK
6
CONTINUOUS
10
9.58616
20
-5.5911
11
9.58557
21
-5.59293
0
LINE
8
BLACK
6
CONTINUOUS
10
9.58557
20
-5.59293
11
9.58465
21
-5.59461
0
LINE
8
BLACK
6
CONTINUOUS
10
9.58465
20
-5.59461
11
9.58341
21
-5.59608
0
LINE
8
BLACK
6
CONTINUOUS
10
9.58341
20
-5.59608
11
9.58192
21
-5.59729
0
LINE
8
BLACK
6
CONTINUOUS
10
9.58192
20
-5.59729
11
9.58021
21
-5.59818
0
LINE
8
BLACK
6
CONTINUOUS
10
9.58021
20
-5.59818
11
9.57837
21
-5.59872
0
LINE
8
BLACK
6
CONTINUOUS
10
9.57837
20
-5.59872
11
9.57646
21
-5.59889
0
LINE
8
BLACK
6
CONTINUOUS
10
9.57646
20
-5.59889
11
9.57455
21
-5.59869
0
LINE
8
BLACK
6
CONTINUOUS
10
9.57455
20
-5.59869
11
9.57271
21
-5.59812
0
LINE
8
BLACK
6
CONTINUOUS
10
9.57271
20
-5.59812
11
9.57102
21
-5.59721
0
LINE
8
BLACK
6
CONTINUOUS
10
9.57102
20
-5.59721
11
9.56954
21
-5.59599
0
LINE
8
BLACK
6
CONTINUOUS
10
9.56954
20
-5.59599
11
9.56833
21
-5.5945
0
LINE
8
BLACK
6
CONTINUOUS
10
9.56833
20
-5.5945
11
9.56743
21
-5.5928
0
LINE
8
BLACK
6
CONTINUOUS
10
9.56743
20
-5.5928
11
9.56687
21
-5.59096
0
LINE
8
BLACK
6
CONTINUOUS
10
9.56687
20
-5.59096
11
9.56669
21
-5.58905
0
LINE
8
BLACK
6
CONTINUOUS
10
9.56669
20
-5.58905
11
9.56669
21
-5.3922
0
LINE
8
BLACK
6
CONTINUOUS
10
9.56669
20
-5.3922
11
9.56669
21
-5.39206
0
LINE
8
BLACK
6
CONTINUOUS
10
9.56669
20
-5.39206
11
9.5669
21
-5.39015
0
LINE
8
BLACK
6
CONTINUOUS
10
9.5669
20
-5.39015
11
9.56748
21
-5.38832
0
LINE
8
BLACK
6
CONTINUOUS
10
9.56748
20
-5.38832
11
9.56841
21
-5.38664
0
LINE
8
BLACK
6
CONTINUOUS
10
9.56841
20
-5.38664
11
9.56964
21
-5.38517
0
LINE
8
BLACK
6
CONTINUOUS
10
9.56964
20
-5.38517
11
9.57114
21
-5.38397
0
LINE
8
BLACK
6
CONTINUOUS
10
9.57114
20
-5.38397
11
9.57284
21
-5.38308
0
LINE
8
BLACK
6
CONTINUOUS
10
9.57284
20
-5.38308
11
9.57468
21
-5.38253
0
LINE
8
BLACK
6
CONTINUOUS
10
9.57468
20
-5.38253
11
9.5766
21
-5.38236
0
LINE
8
BLACK
6
CONTINUOUS
10
9.5766
20
-5.38236
11
9.57851
21
-5.38256
0
LINE
8
BLACK
6
CONTINUOUS
10
2.81735
20
-4.98236
11
2.81764
21
-4.98239
0
LINE
8
BLACK
6
CONTINUOUS
10
2.81764
20
-4.98239
11
2.81793
21
-4.98238
0
LINE
8
BLACK
6
CONTINUOUS
10
2.81793
20
-4.98238
11
2.81859
21
-4.9825
0
LINE
8
BLACK
6
CONTINUOUS
10
2.81859
20
-4.9825
11
2.81926
21
-4.98257
0
LINE
8
BLACK
6
CONTINUOUS
10
2.81926
20
-4.98257
11
2.81953
21
-4.98266
0
LINE
8
BLACK
6
CONTINUOUS
10
2.81953
20
-4.98266
11
2.81982
21
-4.98271
0
LINE
8
BLACK
6
CONTINUOUS
10
2.81982
20
-4.98271
11
2.82045
21
-4.98295
0
LINE
8
BLACK
6
CONTINUOUS
10
2.82045
20
-4.98295
11
2.82109
21
-4.98315
0
LINE
8
BLACK
6
CONTINUOUS
10
2.82109
20
-4.98315
11
2.82134
21
-4.98329
0
LINE
8
BLACK
6
CONTINUOUS
10
2.82134
20
-4.98329
11
2.82161
21
-4.9834
0
LINE
8
BLACK
6
CONTINUOUS
10
2.82161
20
-4.9834
11
2.84036
21
-4.99277
0
LINE
8
BLACK
6
CONTINUOUS
10
2.84036
20
-4.99277
11
2.84048
21
-4.99283
0
LINE
8
BLACK
6
CONTINUOUS
10
2.84048
20
-4.99283
11
2.84095
21
-4.99313
0
LINE
8
BLACK
6
CONTINUOUS
10
2.84095
20
-4.99313
11
2.84143
21
-4.9934
0
LINE
8
BLACK
6
CONTINUOUS
10
2.84143
20
-4.9934
11
2.84175
21
-4.99366
0
LINE
8
BLACK
6
CONTINUOUS
10
2.84175
20
-4.99366
11
2.84209
21
-4.99388
0
LINE
8
BLACK
6
CONTINUOUS
10
2.84209
20
-4.99388
11
2.84249
21
-4.99426
0
LINE
8
BLACK
6
CONTINUOUS
10
2.84249
20
-4.99426
11
2.84292
21
-4.99462
0
LINE
8
BLACK
6
CONTINUOUS
10
2.84292
20
-4.99462
11
2.86167
21
-5.01336
0
LINE
8
BLACK
6
CONTINUOUS
10
2.86167
20
-5.01336
11
2.86176
21
-5.01346
0
LINE
8
BLACK
6
CONTINUOUS
10
2.86176
20
-5.01346
11
2.86218
21
-5.01398
0
LINE
8
BLACK
6
CONTINUOUS
10
2.86218
20
-5.01398
11
2.86262
21
-5.01448
0
LINE
8
BLACK
6
CONTINUOUS
10
2.86262
20
-5.01448
11
2.86278
21
-5.01473
0
LINE
8
BLACK
6
CONTINUOUS
10
2.86278
20
-5.01473
11
2.86296
21
-5.01496
0
LINE
8
BLACK
6
CONTINUOUS
10
2.86296
20
-5.01496
11
2.86327
21
-5.01555
0
LINE
8
BLACK
6
CONTINUOUS
10
2.86327
20
-5.01555
11
2.86361
21
-5.01613
0
LINE
8
BLACK
6
CONTINUOUS
10
2.86361
20
-5.01613
11
2.86371
21
-5.0164
0
LINE
8
BLACK
6
CONTINUOUS
10
2.86371
20
-5.0164
11
2.86384
21
-5.01667
0
LINE
8
BLACK
6
CONTINUOUS
10
2.86384
20
-5.01667
11
2.86403
21
-5.01731
0
LINE
8
BLACK
6
CONTINUOUS
10
2.86403
20
-5.01731
11
2.86425
21
-5.01794
0
LINE
8
BLACK
6
CONTINUOUS
10
2.86425
20
-5.01794
11
2.87363
21
-5.05543
0
LINE
8
BLACK
6
CONTINUOUS
10
2.87363
20
-5.05543
11
2.87366
21
-5.05556
0
LINE
8
BLACK
6
CONTINUOUS
10
2.87366
20
-5.05556
11
2.87368
21
-5.05574
0
LINE
8
BLACK
6
CONTINUOUS
10
2.87368
20
-5.05574
11
2.87373
21
-5.05591
0
LINE
8
BLACK
6
CONTINUOUS
10
2.87373
20
-5.05591
11
2.87381
21
-5.05669
0
LINE
8
BLACK
6
CONTINUOUS
10
2.87381
20
-5.05669
11
2.87392
21
-5.05747
0
LINE
8
BLACK
6
CONTINUOUS
10
2.87392
20
-5.05747
11
2.8739
21
-5.05764
0
LINE
8
BLACK
6
CONTINUOUS
10
2.8739
20
-5.05764
11
2.87392
21
-5.05782
0
LINE
8
BLACK
6
CONTINUOUS
10
2.87392
20
-5.05782
11
2.87392
21
-5.12343
0
LINE
8
BLACK
6
CONTINUOUS
10
2.87392
20
-5.12343
11
2.87392
21
-5.12357
0
LINE
8
BLACK
6
CONTINUOUS
10
2.87392
20
-5.12357
11
2.8739
21
-5.12375
0
LINE
8
BLACK
6
CONTINUOUS
10
2.8739
20
-5.12375
11
2.87391
21
-5.12392
0
LINE
8
BLACK
6
CONTINUOUS
10
2.87391
20
-5.12392
11
2.87379
21
-5.1247
0
LINE
8
BLACK
6
CONTINUOUS
10
2.87379
20
-5.1247
11
2.87371
21
-5.12548
0
LINE
8
BLACK
6
CONTINUOUS
10
2.87371
20
-5.12548
11
2.87365
21
-5.12565
0
LINE
8
BLACK
6
CONTINUOUS
10
2.87365
20
-5.12565
11
2.87363
21
-5.12582
0
LINE
8
BLACK
6
CONTINUOUS
10
2.87363
20
-5.12582
11
2.86425
21
-5.16332
0
LINE
8
BLACK
6
CONTINUOUS
10
2.86425
20
-5.16332
11
2.86422
21
-5.16345
0
LINE
8
BLACK
6
CONTINUOUS
10
2.86422
20
-5.16345
11
2.86399
21
-5.16408
0
LINE
8
BLACK
6
CONTINUOUS
10
2.86399
20
-5.16408
11
2.86379
21
-5.16471
0
LINE
8
BLACK
6
CONTINUOUS
10
2.86379
20
-5.16471
11
2.86365
21
-5.16497
0
LINE
8
BLACK
6
CONTINUOUS
10
2.86365
20
-5.16497
11
2.86355
21
-5.16525
0
LINE
8
BLACK
6
CONTINUOUS
10
2.86355
20
-5.16525
11
2.8632
21
-5.16582
0
LINE
8
BLACK
6
CONTINUOUS
10
2.8632
20
-5.16582
11
2.86288
21
-5.16641
0
LINE
8
BLACK
6
CONTINUOUS
10
2.86288
20
-5.16641
11
2.8627
21
-5.16663
0
LINE
8
BLACK
6
CONTINUOUS
10
2.8627
20
-5.16663
11
2.86254
21
-5.16689
0
LINE
8
BLACK
6
CONTINUOUS
10
2.86254
20
-5.16689
11
2.86209
21
-5.16737
0
LINE
8
BLACK
6
CONTINUOUS
10
2.86209
20
-5.16737
11
2.86167
21
-5.16789
0
LINE
8
BLACK
6
CONTINUOUS
10
2.86167
20
-5.16789
11
2.84292
21
-5.18664
0
LINE
8
BLACK
6
CONTINUOUS
10
2.84292
20
-5.18664
11
2.84282
21
-5.18673
0
LINE
8
BLACK
6
CONTINUOUS
10
2.84282
20
-5.18673
11
2.84239
21
-5.18708
0
LINE
8
BLACK
6
CONTINUOUS
10
2.84239
20
-5.18708
11
2.84199
21
-5.18746
0
LINE
8
BLACK
6
CONTINUOUS
10
2.84199
20
-5.18746
11
2.84164
21
-5.18768
0
LINE
8
BLACK
6
CONTINUOUS
10
2.84164
20
-5.18768
11
2.84132
21
-5.18793
0
LINE
8
BLACK
6
CONTINUOUS
10
2.84132
20
-5.18793
11
2.84083
21
-5.18819
0
LINE
8
BLACK
6
CONTINUOUS
10
2.84083
20
-5.18819
11
2.84036
21
-5.18848
0
LINE
8
BLACK
6
CONTINUOUS
10
2.84036
20
-5.18848
11
2.82161
21
-5.19785
0
LINE
8
BLACK
6
CONTINUOUS
10
2.82161
20
-5.19785
11
2.82149
21
-5.19792
0
LINE
8
BLACK
6
CONTINUOUS
10
2.82149
20
-5.19792
11
2.82122
21
-5.19802
0
LINE
8
BLACK
6
CONTINUOUS
10
2.82122
20
-5.19802
11
2.82096
21
-5.19815
0
LINE
8
BLACK
6
CONTINUOUS
10
2.82096
20
-5.19815
11
2.82032
21
-5.19835
0
LINE
8
BLACK
6
CONTINUOUS
10
2.82032
20
-5.19835
11
2.81969
21
-5.19858
0
LINE
8
BLACK
6
CONTINUOUS
10
2.81969
20
-5.19858
11
2.8194
21
-5.19862
0
LINE
8
BLACK
6
CONTINUOUS
10
2.8194
20
-5.19862
11
2.81912
21
-5.19871
0
LINE
8
BLACK
6
CONTINUOUS
10
2.81912
20
-5.19871
11
2.81845
21
-5.19877
0
LINE
8
BLACK
6
CONTINUOUS
10
2.81845
20
-5.19877
11
2.81779
21
-5.19888
0
LINE
8
BLACK
6
CONTINUOUS
10
2.81779
20
-5.19888
11
2.8175
21
-5.19887
0
LINE
8
BLACK
6
CONTINUOUS
10
2.8175
20
-5.19887
11
2.81721
21
-5.19889
0
LINE
8
BLACK
6
CONTINUOUS
10
2.81721
20
-5.19889
11
2.77971
21
-5.19889
0
LINE
8
BLACK
6
CONTINUOUS
10
2.77971
20
-5.19889
11
2.77958
21
-5.19889
0
LINE
8
BLACK
6
CONTINUOUS
10
2.77958
20
-5.19889
11
2.77929
21
-5.19886
0
LINE
8
BLACK
6
CONTINUOUS
10
2.77929
20
-5.19886
11
2.779
21
-5.19887
0
LINE
8
BLACK
6
CONTINUOUS
10
2.779
20
-5.19887
11
2.77834
21
-5.19875
0
LINE
8
BLACK
6
CONTINUOUS
10
2.77834
20
-5.19875
11
2.77767
21
-5.19868
0
LINE
8
BLACK
6
CONTINUOUS
10
2.77767
20
-5.19868
11
2.77739
21
-5.19859
0
LINE
8
BLACK
6
CONTINUOUS
10
2.77739
20
-5.19859
11
2.77711
21
-5.19854
0
LINE
8
BLACK
6
CONTINUOUS
10
2.77711
20
-5.19854
11
2.77648
21
-5.1983
0
LINE
8
BLACK
6
CONTINUOUS
10
2.77648
20
-5.1983
11
2.77584
21
-5.1981
0
LINE
8
BLACK
6
CONTINUOUS
10
2.77584
20
-5.1981
11
2.77558
21
-5.19796
0
LINE
8
BLACK
6
CONTINUOUS
10
2.77558
20
-5.19796
11
2.77531
21
-5.19785
0
LINE
8
BLACK
6
CONTINUOUS
10
2.77531
20
-5.19785
11
2.75657
21
-5.18848
0
LINE
8
BLACK
6
CONTINUOUS
10
2.75657
20
-5.18848
11
2.75644
21
-5.18842
0
LINE
8
BLACK
6
CONTINUOUS
10
2.75644
20
-5.18842
11
2.75598
21
-5.18812
0
LINE
8
BLACK
6
CONTINUOUS
10
2.75598
20
-5.18812
11
2.75549
21
-5.18786
0
LINE
8
BLACK
6
CONTINUOUS
10
2.75549
20
-5.18786
11
2.75518
21
-5.1876
0
LINE
8
BLACK
6
CONTINUOUS
10
2.75518
20
-5.1876
11
2.75483
21
-5.18737
0
LINE
8
BLACK
6
CONTINUOUS
10
2.75483
20
-5.18737
11
2.75444
21
-5.18699
0
LINE
8
BLACK
6
CONTINUOUS
10
2.75444
20
-5.18699
11
2.75401
21
-5.18664
0
LINE
8
BLACK
6
CONTINUOUS
10
2.75401
20
-5.18664
11
2.73526
21
-5.16789
0
LINE
8
BLACK
6
CONTINUOUS
10
2.73526
20
-5.16789
11
2.73516
21
-5.16779
0
LINE
8
BLACK
6
CONTINUOUS
10
2.73516
20
-5.16779
11
2.73475
21
-5.16727
0
LINE
8
BLACK
6
CONTINUOUS
10
2.73475
20
-5.16727
11
2.7343
21
-5.16678
0
LINE
8
BLACK
6
CONTINUOUS
10
2.7343
20
-5.16678
11
2.73415
21
-5.16652
0
LINE
8
BLACK
6
CONTINUOUS
10
2.73415
20
-5.16652
11
2.73397
21
-5.16629
0
LINE
8
BLACK
6
CONTINUOUS
10
2.73397
20
-5.16629
11
2.73366
21
-5.1657
0
LINE
8
BLACK
6
CONTINUOUS
10
2.73366
20
-5.1657
11
2.73332
21
-5.16513
0
LINE
8
BLACK
6
CONTINUOUS
10
2.73332
20
-5.16513
11
2.73322
21
-5.16485
0
LINE
8
BLACK
6
CONTINUOUS
10
2.73322
20
-5.16485
11
2.73308
21
-5.16459
0
LINE
8
BLACK
6
CONTINUOUS
10
2.73308
20
-5.16459
11
2.7329
21
-5.16395
0
LINE
8
BLACK
6
CONTINUOUS
10
2.7329
20
-5.16395
11
2.73267
21
-5.16332
0
LINE
8
BLACK
6
CONTINUOUS
10
2.73267
20
-5.16332
11
2.7233
21
-5.12582
0
LINE
8
BLACK
6
CONTINUOUS
10
2.7233
20
-5.12582
11
2.72326
21
-5.12569
0
LINE
8
BLACK
6
CONTINUOUS
10
2.72326
20
-5.12569
11
2.72324
21
-5.12551
0
LINE
8
BLACK
6
CONTINUOUS
10
2.72324
20
-5.12551
11
2.72319
21
-5.12535
0
LINE
8
BLACK
6
CONTINUOUS
10
2.72319
20
-5.12535
11
2.72311
21
-5.12456
0
LINE
8
BLACK
6
CONTINUOUS
10
2.72311
20
-5.12456
11
2.72301
21
-5.12378
0
LINE
8
BLACK
6
CONTINUOUS
10
2.72301
20
-5.12378
11
2.72302
21
-5.12361
0
LINE
8
BLACK
6
CONTINUOUS
10
2.72302
20
-5.12361
11
2.723
21
-5.12343
0
LINE
8
BLACK
6
CONTINUOUS
10
2.723
20
-5.12343
11
2.723
21
-5.05782
0
LINE
8
BLACK
6
CONTINUOUS
10
2.723
20
-5.05782
11
2.723
21
-5.05768
0
LINE
8
BLACK
6
CONTINUOUS
10
2.723
20
-5.05768
11
2.72302
21
-5.05751
0
LINE
8
BLACK
6
CONTINUOUS
10
2.72302
20
-5.05751
11
2.72302
21
-5.05733
0
LINE
8
BLACK
6
CONTINUOUS
10
2.72302
20
-5.05733
11
2.72313
21
-5.05655
0
LINE
8
BLACK
6
CONTINUOUS
10
2.72313
20
-5.05655
11
2.72322
21
-5.05577
0
LINE
8
BLACK
6
CONTINUOUS
10
2.72322
20
-5.05577
11
2.72327
21
-5.0556
0
LINE
8
BLACK
6
CONTINUOUS
10
2.72327
20
-5.0556
11
2.7233
21
-5.05543
0
LINE
8
BLACK
6
CONTINUOUS
10
2.7233
20
-5.05543
11
2.73267
21
-5.01794
0
LINE
8
BLACK
6
CONTINUOUS
10
2.73267
20
-5.01794
11
2.73271
21
-5.0178
0
LINE
8
BLACK
6
CONTINUOUS
10
2.73271
20
-5.0178
11
2.73294
21
-5.01718
0
LINE
8
BLACK
6
CONTINUOUS
10
2.73294
20
-5.01718
11
2.73313
21
-5.01654
0
LINE
8
BLACK
6
CONTINUOUS
10
2.73313
20
-5.01654
11
2.73327
21
-5.01628
0
LINE
8
BLACK
6
CONTINUOUS
10
2.73327
20
-5.01628
11
2.73338
21
-5.016
0
LINE
8
BLACK
6
CONTINUOUS
10
2.73338
20
-5.016
11
2.73373
21
-5.01543
0
LINE
8
BLACK
6
CONTINUOUS
10
2.73373
20
-5.01543
11
2.73404
21
-5.01485
0
LINE
8
BLACK
6
CONTINUOUS
10
2.73404
20
-5.01485
11
2.73423
21
-5.01462
0
LINE
8
BLACK
6
CONTINUOUS
10
2.73423
20
-5.01462
11
2.73438
21
-5.01437
0
LINE
8
BLACK
6
CONTINUOUS
10
2.73438
20
-5.01437
11
2.73484
21
-5.01388
0
LINE
8
BLACK
6
CONTINUOUS
10
2.73484
20
-5.01388
11
2.73526
21
-5.01336
0
LINE
8
BLACK
6
CONTINUOUS
10
2.73526
20
-5.01336
11
2.75401
21
-4.99462
0
LINE
8
BLACK
6
CONTINUOUS
10
2.75401
20
-4.99462
11
2.75411
21
-4.99452
0
LINE
8
BLACK
6
CONTINUOUS
10
2.75411
20
-4.99452
11
2.75454
21
-4.99417
0
LINE
8
BLACK
6
CONTINUOUS
10
2.75454
20
-4.99417
11
2.75494
21
-4.99379
0
LINE
8
BLACK
6
CONTINUOUS
10
2.75494
20
-4.99379
11
2.75529
21
-4.99358
0
LINE
8
BLACK
6
CONTINUOUS
10
2.75529
20
-4.99358
11
2.75561
21
-4.99332
0
LINE
8
BLACK
6
CONTINUOUS
10
2.75561
20
-4.99332
11
2.7561
21
-4.99307
0
LINE
8
BLACK
6
CONTINUOUS
10
2.7561
20
-4.99307
11
2.75657
21
-4.99277
0
LINE
8
BLACK
6
CONTINUOUS
10
2.75657
20
-4.99277
11
2.77531
21
-4.9834
0
LINE
8
BLACK
6
CONTINUOUS
10
2.77531
20
-4.9834
11
2.77544
21
-4.98334
0
LINE
8
BLACK
6
CONTINUOUS
10
2.77544
20
-4.98334
11
2.77571
21
-4.98324
0
LINE
8
BLACK
6
CONTINUOUS
10
2.77571
20
-4.98324
11
2.77596
21
-4.9831
0
LINE
8
BLACK
6
CONTINUOUS
10
2.77596
20
-4.9831
11
2.77661
21
-4.98291
0
LINE
8
BLACK
6
CONTINUOUS
10
2.77661
20
-4.98291
11
2.77724
21
-4.98267
0
LINE
8
BLACK
6
CONTINUOUS
10
2.77724
20
-4.98267
11
2.77753
21
-4.98263
0
LINE
8
BLACK
6
CONTINUOUS
10
2.77753
20
-4.98263
11
2.7778
21
-4.98255
0
LINE
8
BLACK
6
CONTINUOUS
10
2.7778
20
-4.98255
11
2.77847
21
-4.98248
0
LINE
8
BLACK
6
CONTINUOUS
10
2.77847
20
-4.98248
11
2.77914
21
-4.98238
0
LINE
8
BLACK
6
CONTINUOUS
10
2.77914
20
-4.98238
11
2.77943
21
-4.98239
0
LINE
8
BLACK
6
CONTINUOUS
10
2.77943
20
-4.98239
11
2.77971
21
-4.98236
0
LINE
8
BLACK
6
CONTINUOUS
10
2.77971
20
-4.98236
11
2.81721
21
-4.98236
0
LINE
8
BLACK
6
CONTINUOUS
10
2.81721
20
-4.98236
11
2.81735
21
-4.98236
0
LINE
8
BLACK
6
CONTINUOUS
10
2.78204
20
-5.00204
11
2.7668
21
-5.00966
0
LINE
8
BLACK
6
CONTINUOUS
10
2.7668
20
-5.00966
11
2.75111
21
-5.02535
0
LINE
8
BLACK
6
CONTINUOUS
10
2.75111
20
-5.02535
11
2.74269
21
-5.05903
0
LINE
8
BLACK
6
CONTINUOUS
10
2.74269
20
-5.05903
11
2.74269
21
-5.12222
0
LINE
8
BLACK
6
CONTINUOUS
10
2.74269
20
-5.12222
11
2.75111
21
-5.1559
0
LINE
8
BLACK
6
CONTINUOUS
10
2.75111
20
-5.1559
11
2.7668
21
-5.17159
0
LINE
8
BLACK
6
CONTINUOUS
10
2.7668
20
-5.17159
11
2.78204
21
-5.17921
0
LINE
8
BLACK
6
CONTINUOUS
10
2.78204
20
-5.17921
11
2.81489
21
-5.17921
0
LINE
8
BLACK
6
CONTINUOUS
10
2.81489
20
-5.17921
11
2.83013
21
-5.17159
0
LINE
8
BLACK
6
CONTINUOUS
10
2.83013
20
-5.17159
11
2.84582
21
-5.1559
0
LINE
8
BLACK
6
CONTINUOUS
10
2.84582
20
-5.1559
11
2.85424
21
-5.12222
0
LINE
8
BLACK
6
CONTINUOUS
10
2.85424
20
-5.12222
11
2.85424
21
-5.05903
0
LINE
8
BLACK
6
CONTINUOUS
10
2.85424
20
-5.05903
11
2.84582
21
-5.02535
0
LINE
8
BLACK
6
CONTINUOUS
10
2.84582
20
-5.02535
11
2.83013
21
-5.00966
0
LINE
8
BLACK
6
CONTINUOUS
10
2.83013
20
-5.00966
11
2.81489
21
-5.00204
0
LINE
8
BLACK
6
CONTINUOUS
10
2.81489
20
-5.00204
11
2.78204
21
-5.00204
0
LINE
8
BLACK
6
CONTINUOUS
10
3.26729
20
-4.98236
11
3.2692
21
-4.98257
0
LINE
8
BLACK
6
CONTINUOUS
10
3.2692
20
-4.98257
11
3.27103
21
-4.98315
0
LINE
8
BLACK
6
CONTINUOUS
10
3.27103
20
-4.98315
11
3.27271
21
-4.98408
0
LINE
8
BLACK
6
CONTINUOUS
10
3.27271
20
-4.98408
11
3.27419
21
-4.98531
0
LINE
8
BLACK
6
CONTINUOUS
10
3.27419
20
-4.98531
11
3.27539
21
-4.98681
0
LINE
8
BLACK
6
CONTINUOUS
10
3.27539
20
-4.98681
11
3.27628
21
-4.98851
0
LINE
8
BLACK
6
CONTINUOUS
10
3.27628
20
-4.98851
11
3.27682
21
-4.99036
0
LINE
8
BLACK
6
CONTINUOUS
10
3.27682
20
-4.99036
11
3.277
21
-4.99227
0
LINE
8
BLACK
6
CONTINUOUS
10
3.277
20
-4.99227
11
3.2768
21
-4.99418
0
LINE
8
BLACK
6
CONTINUOUS
10
3.2768
20
-4.99418
11
3.27623
21
-4.99602
0
LINE
8
BLACK
6
CONTINUOUS
10
3.27623
20
-4.99602
11
3.27531
21
-4.9977
0
LINE
8
BLACK
6
CONTINUOUS
10
3.27531
20
-4.9977
11
3.27409
21
-4.99918
0
LINE
8
BLACK
6
CONTINUOUS
10
3.27409
20
-4.99918
11
3.2726
21
-5.0004
0
LINE
8
BLACK
6
CONTINUOUS
10
3.2726
20
-5.0004
11
3.2709
21
-5.0013
0
LINE
8
BLACK
6
CONTINUOUS
10
3.2709
20
-5.0013
11
3.26907
21
-5.00186
0
LINE
8
BLACK
6
CONTINUOUS
10
3.26907
20
-5.00186
11
3.26715
21
-5.00204
0
LINE
8
BLACK
6
CONTINUOUS
10
3.26715
20
-5.00204
11
3.18326
21
-5.00204
0
LINE
8
BLACK
6
CONTINUOUS
10
3.18326
20
-5.00204
11
3.18326
21
-5.0761
0
LINE
8
BLACK
6
CONTINUOUS
10
3.18326
20
-5.0761
11
3.23903
21
-5.0761
0
LINE
8
BLACK
6
CONTINUOUS
10
3.23903
20
-5.0761
11
3.23917
21
-5.0761
0
LINE
8
BLACK
6
CONTINUOUS
10
3.23917
20
-5.0761
11
3.24108
21
-5.07631
0
LINE
8
BLACK
6
CONTINUOUS
10
3.24108
20
-5.07631
11
3.24291
21
-5.07689
0
LINE
8
BLACK
6
CONTINUOUS
10
3.24291
20
-5.07689
11
3.24459
21
-5.07782
0
LINE
8
BLACK
6
CONTINUOUS
10
3.24459
20
-5.07782
11
3.24606
21
-5.07905
0
LINE
8
BLACK
6
CONTINUOUS
10
3.24606
20
-5.07905
11
3.24727
21
-5.08055
0
LINE
8
BLACK
6
CONTINUOUS
10
3.24727
20
-5.08055
11
3.24816
21
-5.08225
0
LINE
8
BLACK
6
CONTINUOUS
10
3.24816
20
-5.08225
11
3.2487
21
-5.08409
0
LINE
8
BLACK
6
CONTINUOUS
10
3.2487
20
-5.08409
11
3.24887
21
-5.08601
0
LINE
8
BLACK
6
CONTINUOUS
10
3.24887
20
-5.08601
11
3.24867
21
-5.08792
0
LINE
8
BLACK
6
CONTINUOUS
10
3.24867
20
-5.08792
11
3.24811
21
-5.08975
0
LINE
8
BLACK
6
CONTINUOUS
10
3.24811
20
-5.08975
11
3.24719
21
-5.09144
0
LINE
8
BLACK
6
CONTINUOUS
10
3.24719
20
-5.09144
11
3.24597
21
-5.09292
0
LINE
8
BLACK
6
CONTINUOUS
10
3.24597
20
-5.09292
11
3.24448
21
-5.09414
0
LINE
8
BLACK
6
CONTINUOUS
10
3.24448
20
-5.09414
11
3.24278
21
-5.09504
0
LINE
8
BLACK
6
CONTINUOUS
10
3.24278
20
-5.09504
11
3.24094
21
-5.09559
0
LINE
8
BLACK
6
CONTINUOUS
10
3.24094
20
-5.09559
11
3.23903
21
-5.09578
0
LINE
8
BLACK
6
CONTINUOUS
10
3.23903
20
-5.09578
11
3.18326
21
-5.09578
0
LINE
8
BLACK
6
CONTINUOUS
10
3.18326
20
-5.09578
11
3.18326
21
-5.17921
0
LINE
8
BLACK
6
CONTINUOUS
10
3.18326
20
-5.17921
11
3.26715
21
-5.17921
0
LINE
8
BLACK
6
CONTINUOUS
10
3.26715
20
-5.17921
11
3.26729
21
-5.17921
0
LINE
8
BLACK
6
CONTINUOUS
10
3.26729
20
-5.17921
11
3.2692
21
-5.17942
0
LINE
8
BLACK
6
CONTINUOUS
10
3.2692
20
-5.17942
11
3.27103
21
-5.18
0
LINE
8
BLACK
6
CONTINUOUS
10
3.27103
20
-5.18
11
3.27271
21
-5.18093
0
LINE
8
BLACK
6
CONTINUOUS
10
3.27271
20
-5.18093
11
3.27419
21
-5.18216
0
LINE
8
BLACK
6
CONTINUOUS
10
3.27419
20
-5.18216
11
3.27539
21
-5.18366
0
LINE
8
BLACK
6
CONTINUOUS
10
3.27539
20
-5.18366
11
3.27628
21
-5.18536
0
LINE
8
BLACK
6
CONTINUOUS
10
3.27628
20
-5.18536
11
3.27682
21
-5.18721
0
LINE
8
BLACK
6
CONTINUOUS
10
3.27682
20
-5.18721
11
3.277
21
-5.18912
0
LINE
8
BLACK
6
CONTINUOUS
10
3.277
20
-5.18912
11
3.2768
21
-5.19103
0
LINE
8
BLACK
6
CONTINUOUS
10
3.2768
20
-5.19103
11
3.27623
21
-5.19287
0
LINE
8
BLACK
6
CONTINUOUS
10
3.27623
20
-5.19287
11
3.27531
21
-5.19456
0
LINE
8
BLACK
6
CONTINUOUS
10
3.27531
20
-5.19456
11
3.27409
21
-5.19604
0
LINE
8
BLACK
6
CONTINUOUS
10
3.27409
20
-5.19604
11
3.2726
21
-5.19725
0
LINE
8
BLACK
6
CONTINUOUS
10
3.2726
20
-5.19725
11
3.2709
21
-5.19815
0
LINE
8
BLACK
6
CONTINUOUS
10
3.2709
20
-5.19815
11
3.26907
21
-5.19871
0
LINE
8
BLACK
6
CONTINUOUS
10
3.26907
20
-5.19871
11
3.26715
21
-5.19889
0
LINE
8
BLACK
6
CONTINUOUS
10
3.26715
20
-5.19889
11
3.17342
21
-5.19889
0
LINE
8
BLACK
6
CONTINUOUS
10
3.17342
20
-5.19889
11
3.17335
21
-5.19889
0
LINE
8
BLACK
6
CONTINUOUS
10
3.17335
20
-5.19889
11
3.17335
21
-5.19889
0
LINE
8
BLACK
6
CONTINUOUS
10
3.17335
20
-5.19889
11
3.17334
21
-5.19889
0
LINE
8
BLACK
6
CONTINUOUS
10
3.17334
20
-5.19889
11
3.17328
21
-5.19889
0
LINE
8
BLACK
6
CONTINUOUS
10
3.17328
20
-5.19889
11
3.17236
21
-5.19879
0
LINE
8
BLACK
6
CONTINUOUS
10
3.17236
20
-5.19879
11
3.17144
21
-5.19869
0
LINE
8
BLACK
6
CONTINUOUS
10
3.17144
20
-5.19869
11
3.1714
21
-5.19868
0
LINE
8
BLACK
6
CONTINUOUS
10
3.1714
20
-5.19868
11
3.17137
21
-5.19868
0
LINE
8
BLACK
6
CONTINUOUS
10
3.17137
20
-5.19868
11
3.17049
21
-5.1984
0
LINE
8
BLACK
6
CONTINUOUS
10
3.17049
20
-5.1984
11
3.1696
21
-5.19812
0
LINE
8
BLACK
6
CONTINUOUS
10
3.1696
20
-5.19812
11
3.16957
21
-5.19811
0
LINE
8
BLACK
6
CONTINUOUS
10
3.16957
20
-5.19811
11
3.16954
21
-5.1981
0
LINE
8
BLACK
6
CONTINUOUS
10
3.16954
20
-5.1981
11
3.16873
21
-5.19765
0
LINE
8
BLACK
6
CONTINUOUS
10
3.16873
20
-5.19765
11
3.16791
21
-5.19721
0
LINE
8
BLACK
6
CONTINUOUS
10
3.16791
20
-5.19721
11
3.16789
21
-5.19719
0
LINE
8
BLACK
6
CONTINUOUS
10
3.16789
20
-5.19719
11
3.16786
21
-5.19717
0
LINE
8
BLACK
6
CONTINUOUS
10
3.16786
20
-5.19717
11
3.16715
21
-5.19658
0
LINE
8
BLACK
6
CONTINUOUS
10
3.16715
20
-5.19658
11
3.16643
21
-5.19599
0
LINE
8
BLACK
6
CONTINUOUS
10
3.16643
20
-5.19599
11
3.16641
21
-5.19596
0
LINE
8
BLACK
6
CONTINUOUS
10
3.16641
20
-5.19596
11
3.16638
21
-5.19594
0
LINE
8
BLACK
6
CONTINUOUS
10
3.16638
20
-5.19594
11
3.1658
21
-5.19522
0
LINE
8
BLACK
6
CONTINUOUS
10
3.1658
20
-5.19522
11
3.16522
21
-5.1945
0
LINE
8
BLACK
6
CONTINUOUS
10
3.16522
20
-5.1945
11
3.1652
21
-5.19447
0
LINE
8
BLACK
6
CONTINUOUS
10
3.1652
20
-5.19447
11
3.16518
21
-5.19444
0
LINE
8
BLACK
6
CONTINUOUS
10
3.16518
20
-5.19444
11
3.16475
21
-5.19362
0
LINE
8
BLACK
6
CONTINUOUS
10
3.16475
20
-5.19362
11
3.16432
21
-5.1928
0
LINE
8
BLACK
6
CONTINUOUS
10
3.16432
20
-5.1928
11
3.16431
21
-5.19277
0
LINE
8
BLACK
6
CONTINUOUS
10
3.16431
20
-5.19277
11
3.16429
21
-5.19274
0
LINE
8
BLACK
6
CONTINUOUS
10
3.16429
20
-5.19274
11
3.16403
21
-5.19185
0
LINE
8
BLACK
6
CONTINUOUS
10
3.16403
20
-5.19185
11
3.16376
21
-5.19096
0
LINE
8
BLACK
6
CONTINUOUS
10
3.16376
20
-5.19096
11
3.16376
21
-5.19093
0
LINE
8
BLACK
6
CONTINUOUS
10
3.16376
20
-5.19093
11
3.16375
21
-5.1909
0
LINE
8
BLACK
6
CONTINUOUS
10
3.16375
20
-5.1909
11
3.16366
21
-5.18997
0
LINE
8
BLACK
6
CONTINUOUS
10
3.16366
20
-5.18997
11
3.16357
21
-5.18905
0
LINE
8
BLACK
6
CONTINUOUS
10
3.16357
20
-5.18905
11
3.16357
21
-4.9922
0
LINE
8
BLACK
6
CONTINUOUS
10
3.16357
20
-4.9922
11
3.16357
21
-4.99213
0
LINE
8
BLACK
6
CONTINUOUS
10
3.16357
20
-4.99213
11
3.16357
21
-4.99213
0
LINE
8
BLACK
6
CONTINUOUS
10
3.16357
20
-4.99213
11
3.16357
21
-4.99213
0
LINE
8
BLACK
6
CONTINUOUS
10
3.16357
20
-4.99213
11
3.16357
21
-4.99206
0
LINE
8
BLACK
6
CONTINUOUS
10
3.16357
20
-4.99206
11
3.16368
21
-4.99114
0
LINE
8
BLACK
6
CONTINUOUS
10
3.16368
20
-4.99114
11
3.16377
21
-4.99022
0
LINE
8
BLACK
6
CONTINUOUS
10
3.16377
20
-4.99022
11
3.16378
21
-4.99019
0
LINE
8
BLACK
6
CONTINUOUS
10
3.16378
20
-4.99019
11
3.16379
21
-4.99015
0
LINE
8
BLACK
6
CONTINUOUS
10
3.16379
20
-4.99015
11
3.16407
21
-4.98927
0
LINE
8
BLACK
6
CONTINUOUS
10
3.16407
20
-4.98927
11
3.16434
21
-4.98839
0
LINE
8
BLACK
6
CONTINUOUS
10
3.16434
20
-4.98839
11
3.16436
21
-4.98836
0
LINE
8
BLACK
6
CONTINUOUS
10
3.16436
20
-4.98836
11
3.16437
21
-4.98832
0
LINE
8
BLACK
6
CONTINUOUS
10
3.16437
20
-4.98832
11
3.16482
21
-4.98751
0
LINE
8
BLACK
6
CONTINUOUS
10
3.16482
20
-4.98751
11
3.16526
21
-4.9867
0
LINE
8
BLACK
6
CONTINUOUS
10
3.16526
20
-4.9867
11
3.16528
21
-4.98667
0
LINE
8
BLACK
6
CONTINUOUS
10
3.16528
20
-4.98667
11
3.16529
21
-4.98664
0
LINE
8
BLACK
6
CONTINUOUS
10
3.16529
20
-4.98664
11
3.16589
21
-4.98593
0
LINE
8
BLACK
6
CONTINUOUS
10
3.16589
20
-4.98593
11
3.16648
21
-4.98522
0
LINE
8
BLACK
6
CONTINUOUS
10
3.16648
20
-4.98522
11
3.16651
21
-4.9852
0
LINE
8
BLACK
6
CONTINUOUS
10
3.16651
20
-4.9852
11
3.16653
21
-4.98517
0
LINE
8
BLACK
6
CONTINUOUS
10
3.16653
20
-4.98517
11
3.16725
21
-4.98459
0
LINE
8
BLACK
6
CONTINUOUS
10
3.16725
20
-4.98459
11
3.16797
21
-4.984
0
LINE
8
BLACK
6
CONTINUOUS
10
3.16797
20
-4.984
11
3.168
21
-4.98399
0
LINE
8
BLACK
6
CONTINUOUS
10
3.168
20
-4.98399
11
3.16803
21
-4.98397
0
LINE
8
BLACK
6
CONTINUOUS
10
3.16803
20
-4.98397
11
3.16885
21
-4.98354
0
LINE
8
BLACK
6
CONTINUOUS
10
3.16885
20
-4.98354
11
3.16967
21
-4.9831
0
LINE
8
BLACK
6
CONTINUOUS
10
3.16967
20
-4.9831
11
3.1697
21
-4.98309
0
LINE
8
BLACK
6
CONTINUOUS
10
3.1697
20
-4.98309
11
3.16973
21
-4.98308
0
LINE
8
BLACK
6
CONTINUOUS
10
3.16973
20
-4.98308
11
3.17062
21
-4.98281
0
LINE
8
BLACK
6
CONTINUOUS
10
3.17062
20
-4.98281
11
3.1715
21
-4.98255
0
LINE
8
BLACK
6
CONTINUOUS
10
3.1715
20
-4.98255
11
3.17154
21
-4.98254
0
LINE
8
BLACK
6
CONTINUOUS
10
3.17154
20
-4.98254
11
3.17157
21
-4.98253
0
LINE
8
BLACK
6
CONTINUOUS
10
3.17157
20
-4.98253
11
3.17249
21
-4.98245
0
LINE
8
BLACK
6
CONTINUOUS
10
3.17249
20
-4.98245
11
3.17342
21
-4.98236
0
LINE
8
BLACK
6
CONTINUOUS
10
3.17342
20
-4.98236
11
3.26715
21
-4.98236
0
LINE
8
BLACK
6
CONTINUOUS
10
3.26715
20
-4.98236
11
3.26729
21
-4.98236
0
LINE
8
BLACK
6
CONTINUOUS
10
2.6205
20
-4.98236
11
2.62079
21
-4.98239
0
LINE
8
BLACK
6
CONTINUOUS
10
2.62079
20
-4.98239
11
2.62107
21
-4.98238
0
LINE
8
BLACK
6
CONTINUOUS
10
2.62107
20
-4.98238
11
2.62174
21
-4.9825
0
LINE
8
BLACK
6
CONTINUOUS
10
2.62174
20
-4.9825
11
2.62241
21
-4.98257
0
LINE
8
BLACK
6
CONTINUOUS
10
2.62241
20
-4.98257
11
2.62268
21
-4.98266
0
LINE
8
BLACK
6
CONTINUOUS
10
2.62268
20
-4.98266
11
2.62297
21
-4.98271
0
LINE
8
BLACK
6
CONTINUOUS
10
2.62297
20
-4.98271
11
2.6236
21
-4.98295
0
LINE
8
BLACK
6
CONTINUOUS
10
2.6236
20
-4.98295
11
2.62424
21
-4.98315
0
LINE
8
BLACK
6
CONTINUOUS
10
2.62424
20
-4.98315
11
2.62449
21
-4.98329
0
LINE
8
BLACK
6
CONTINUOUS
10
2.62449
20
-4.98329
11
2.62476
21
-4.9834
0
LINE
8
BLACK
6
CONTINUOUS
10
2.62476
20
-4.9834
11
2.64351
21
-4.99277
0
LINE
8
BLACK
6
CONTINUOUS
10
2.64351
20
-4.99277
11
2.64363
21
-4.99283
0
LINE
8
BLACK
6
CONTINUOUS
10
2.64363
20
-4.99283
11
2.6441
21
-4.99313
0
LINE
8
BLACK
6
CONTINUOUS
10
2.6441
20
-4.99313
11
2.64458
21
-4.9934
0
LINE
8
BLACK
6
CONTINUOUS
10
2.64458
20
-4.9934
11
2.6449
21
-4.99366
0
LINE
8
BLACK
6
CONTINUOUS
10
2.6449
20
-4.99366
11
2.64524
21
-4.99388
0
LINE
8
BLACK
6
CONTINUOUS
10
2.64524
20
-4.99388
11
2.64564
21
-4.99426
0
LINE
8
BLACK
6
CONTINUOUS
10
2.64564
20
-4.99426
11
2.64607
21
-4.99462
0
LINE
8
BLACK
6
CONTINUOUS
10
2.64607
20
-4.99462
11
2.65544
21
-5.00399
0
LINE
8
BLACK
6
CONTINUOUS
10
2.65544
20
-5.00399
11
2.65554
21
-5.00409
0
LINE
8
BLACK
6
CONTINUOUS
10
2.65554
20
-5.00409
11
2.65588
21
-5.00452
0
LINE
8
BLACK
6
CONTINUOUS
10
2.65588
20
-5.00452
11
2.65626
21
-5.00492
0
LINE
8
BLACK
6
CONTINUOUS
10
2.65626
20
-5.00492
11
2.65648
21
-5.00527
0
LINE
8
BLACK
6
CONTINUOUS
10
2.65648
20
-5.00527
11
2.65674
21
-5.00559
0
LINE
8
BLACK
6
CONTINUOUS
10
2.65674
20
-5.00559
11
2.65699
21
-5.00608
0
LINE
8
BLACK
6
CONTINUOUS
10
2.65699
20
-5.00608
11
2.65728
21
-5.00655
0
LINE
8
BLACK
6
CONTINUOUS
10
2.65728
20
-5.00655
11
2.66666
21
-5.02529
0
LINE
8
BLACK
6
CONTINUOUS
10
2.66666
20
-5.02529
11
2.66672
21
-5.02542
0
LINE
8
BLACK
6
CONTINUOUS
10
2.66672
20
-5.02542
11
2.66682
21
-5.02569
0
LINE
8
BLACK
6
CONTINUOUS
10
2.66682
20
-5.02569
11
2.66696
21
-5.02595
0
LINE
8
BLACK
6
CONTINUOUS
10
2.66696
20
-5.02595
11
2.66715
21
-5.02659
0
LINE
8
BLACK
6
CONTINUOUS
10
2.66715
20
-5.02659
11
2.66738
21
-5.02722
0
LINE
8
BLACK
6
CONTINUOUS
10
2.66738
20
-5.02722
11
2.66743
21
-5.02751
0
LINE
8
BLACK
6
CONTINUOUS
10
2.66743
20
-5.02751
11
2.66751
21
-5.02778
0
LINE
8
BLACK
6
CONTINUOUS
10
2.66751
20
-5.02778
11
2.66758
21
-5.02845
0
LINE
8
BLACK
6
CONTINUOUS
10
2.66758
20
-5.02845
11
2.66768
21
-5.02912
0
LINE
8
BLACK
6
CONTINUOUS
10
2.66768
20
-5.02912
11
2.66767
21
-5.02941
0
LINE
8
BLACK
6
CONTINUOUS
10
2.66767
20
-5.02941
11
2.6677
21
-5.0297
0
LINE
8
BLACK
6
CONTINUOUS
10
2.6677
20
-5.0297
11
2.6677
21
-5.05782
0
LINE
8
BLACK
6
CONTINUOUS
10
2.6677
20
-5.05782
11
2.6677
21
-5.05796
0
LINE
8
BLACK
6
CONTINUOUS
10
2.6677
20
-5.05796
11
2.66766
21
-5.05824
0
LINE
8
BLACK
6
CONTINUOUS
10
2.66766
20
-5.05824
11
2.66767
21
-5.05853
0
LINE
8
BLACK
6
CONTINUOUS
10
2.66767
20
-5.05853
11
2.66756
21
-5.0592
0
LINE
8
BLACK
6
CONTINUOUS
10
2.66756
20
-5.0592
11
2.66748
21
-5.05986
0
LINE
8
BLACK
6
CONTINUOUS
10
2.66748
20
-5.05986
11
2.6674
21
-5.06014
0
LINE
8
BLACK
6
CONTINUOUS
10
2.6674
20
-5.06014
11
2.66735
21
-5.06043
0
LINE
8
BLACK
6
CONTINUOUS
10
2.66735
20
-5.06043
11
2.66711
21
-5.06105
0
LINE
8
BLACK
6
CONTINUOUS
10
2.66711
20
-5.06105
11
2.6669
21
-5.0617
0
LINE
8
BLACK
6
CONTINUOUS
10
2.6669
20
-5.0617
11
2.66676
21
-5.06195
0
LINE
8
BLACK
6
CONTINUOUS
10
2.66676
20
-5.06195
11
2.66666
21
-5.06222
0
LINE
8
BLACK
6
CONTINUOUS
10
2.66666
20
-5.06222
11
2.65728
21
-5.08097
0
LINE
8
BLACK
6
CONTINUOUS
10
2.65728
20
-5.08097
11
2.65722
21
-5.08109
0
LINE
8
BLACK
6
CONTINUOUS
10
2.65722
20
-5.08109
11
2.65692
21
-5.08155
0
LINE
8
BLACK
6
CONTINUOUS
10
2.65692
20
-5.08155
11
2.65666
21
-5.08204
0
LINE
8
BLACK
6
CONTINUOUS
10
2.65666
20
-5.08204
11
2.6564
21
-5.08236
0
LINE
8
BLACK
6
CONTINUOUS
10
2.6564
20
-5.08236
11
2.65618
21
-5.0827
0
LINE
8
BLACK
6
CONTINUOUS
10
2.65618
20
-5.0827
11
2.65579
21
-5.0831
0
LINE
8
BLACK
6
CONTINUOUS
10
2.65579
20
-5.0831
11
2.65544
21
-5.08353
0
LINE
8
BLACK
6
CONTINUOUS
10
2.65544
20
-5.08353
11
2.64607
21
-5.0929
0
LINE
8
BLACK
6
CONTINUOUS
10
2.64607
20
-5.0929
11
2.64597
21
-5.093
0
LINE
8
BLACK
6
CONTINUOUS
10
2.64597
20
-5.093
11
2.64554
21
-5.09334
0
LINE
8
BLACK
6
CONTINUOUS
10
2.64554
20
-5.09334
11
2.64514
21
-5.09372
0
LINE
8
BLACK
6
CONTINUOUS
10
2.64514
20
-5.09372
11
2.64479
21
-5.09394
0
LINE
8
BLACK
6
CONTINUOUS
10
2.64479
20
-5.09394
11
2.64447
21
-5.09419
0
LINE
8
BLACK
6
CONTINUOUS
10
2.64447
20
-5.09419
11
2.64398
21
-5.09445
0
LINE
8
BLACK
6
CONTINUOUS
10
2.64398
20
-5.09445
11
2.64351
21
-5.09474
0
LINE
8
BLACK
6
CONTINUOUS
10
2.64351
20
-5.09474
11
2.62476
21
-5.10412
0
LINE
8
BLACK
6
CONTINUOUS
10
2.62476
20
-5.10412
11
2.62464
21
-5.10418
0
LINE
8
BLACK
6
CONTINUOUS
10
2.62464
20
-5.10418
11
2.62437
21
-5.10428
0
LINE
8
BLACK
6
CONTINUOUS
10
2.62437
20
-5.10428
11
2.62411
21
-5.10441
0
LINE
8
BLACK
6
CONTINUOUS
10
2.62411
20
-5.10441
11
2.62347
21
-5.10461
0
LINE
8
BLACK
6
CONTINUOUS
10
2.62347
20
-5.10461
11
2.62284
21
-5.10484
0
LINE
8
BLACK
6
CONTINUOUS
10
2.62284
20
-5.10484
11
2.62255
21
-5.10488
0
LINE
8
BLACK
6
CONTINUOUS
10
2.62255
20
-5.10488
11
2.62227
21
-5.10497
0
LINE
8
BLACK
6
CONTINUOUS
10
2.62227
20
-5.10497
11
2.6216
21
-5.10503
0
LINE
8
BLACK
6
CONTINUOUS
10
2.6216
20
-5.10503
11
2.62094
21
-5.10514
0
LINE
8
BLACK
6
CONTINUOUS
10
2.62094
20
-5.10514
11
2.62065
21
-5.10513
0
LINE
8
BLACK
6
CONTINUOUS
10
2.62065
20
-5.10513
11
2.62036
21
-5.10516
0
LINE
8
BLACK
6
CONTINUOUS
10
2.62036
20
-5.10516
11
2.55521
21
-5.10516
0
LINE
8
BLACK
6
CONTINUOUS
10
2.55521
20
-5.10516
11
2.55521
21
-5.18905
0
LINE
8
BLACK
6
CONTINUOUS
10
2.55521
20
-5.18905
11
2.55521
21
-5.18919
0
LINE
8
BLACK
6
CONTINUOUS
10
2.55521
20
-5.18919
11
2.555
21
-5.1911
0
LINE
8
BLACK
6
CONTINUOUS
10
2.555
20
-5.1911
11
2.55442
21
-5.19293
0
LINE
8
BLACK
6
CONTINUOUS
10
2.55442
20
-5.19293
11
2.55349
21
-5.19461
0
LINE
8
BLACK
6
CONTINUOUS
10
2.55349
20
-5.19461
11
2.55226
21
-5.19608
0
LINE
8
BLACK
6
CONTINUOUS
10
2.55226
20
-5.19608
11
2.55076
21
-5.19729
0
LINE
8
BLACK
6
CONTINUOUS
10
2.55076
20
-5.19729
11
2.54906
21
-5.19818
0
LINE
8
BLACK
6
CONTINUOUS
10
2.54906
20
-5.19818
11
2.54721
21
-5.19872
0
LINE
8
BLACK
6
CONTINUOUS
10
2.54721
20
-5.19872
11
2.5453
21
-5.19889
0
LINE
8
BLACK
6
CONTINUOUS
10
2.5453
20
-5.19889
11
2.54339
21
-5.19869
0
LINE
8
BLACK
6
CONTINUOUS
10
2.54339
20
-5.19869
11
2.54156
21
-5.19812
0
LINE
8
BLACK
6
CONTINUOUS
10
2.54156
20
-5.19812
11
2.53987
21
-5.19721
0
LINE
8
BLACK
6
CONTINUOUS
10
2.53987
20
-5.19721
11
2.53839
21
-5.19599
0
LINE
8
BLACK
6
CONTINUOUS
10
2.53839
20
-5.19599
11
2.53717
21
-5.1945
0
LINE
8
BLACK
6
CONTINUOUS
10
2.53717
20
-5.1945
11
2.53627
21
-5.1928
0
LINE
8
BLACK
6
CONTINUOUS
10
2.53627
20
-5.1928
11
2.53571
21
-5.19096
0
LINE
8
BLACK
6
CONTINUOUS
10
2.53571
20
-5.19096
11
2.53553
21
-5.18905
0
LINE
8
BLACK
6
CONTINUOUS
10
2.53553
20
-5.18905
11
2.53553
21
-4.9922
0
LINE
8
BLACK
6
CONTINUOUS
10
2.53553
20
-4.9922
11
2.53553
21
-4.99213
0
LINE
8
BLACK
6
CONTINUOUS
10
2.53553
20
-4.99213
11
2.53553
21
-4.99213
0
LINE
8
BLACK
6
CONTINUOUS
10
2.53553
20
-4.99213
11
2.53553
21
-4.99213
0
LINE
8
BLACK
6
CONTINUOUS
10
2.53553
20
-4.99213
11
2.53553
21
-4.99206
0
LINE
8
BLACK
6
CONTINUOUS
10
2.53553
20
-4.99206
11
2.53563
21
-4.99114
0
LINE
8
BLACK
6
CONTINUOUS
10
2.53563
20
-4.99114
11
2.53573
21
-4.99022
0
LINE
8
BLACK
6
CONTINUOUS
10
2.53573
20
-4.99022
11
2.53574
21
-4.99019
0
LINE
8
BLACK
6
CONTINUOUS
10
2.53574
20
-4.99019
11
2.53574
21
-4.99015
0
LINE
8
BLACK
6
CONTINUOUS
10
2.53574
20
-4.99015
11
2.53602
21
-4.98927
0
LINE
8
BLACK
6
CONTINUOUS
10
2.53602
20
-4.98927
11
2.5363
21
-4.98839
0
LINE
8
BLACK
6
CONTINUOUS
10
2.5363
20
-4.98839
11
2.53631
21
-4.98836
0
LINE
8
BLACK
6
CONTINUOUS
10
2.53631
20
-4.98836
11
2.53632
21
-4.98832
0
LINE
8
BLACK
6
CONTINUOUS
10
2.53632
20
-4.98832
11
2.53677
21
-4.98751
0
LINE
8
BLACK
6
CONTINUOUS
10
2.53677
20
-4.98751
11
2.53721
21
-4.9867
0
LINE
8
BLACK
6
CONTINUOUS
10
2.53721
20
-4.9867
11
2.53723
21
-4.98667
0
LINE
8
BLACK
6
CONTINUOUS
10
2.53723
20
-4.98667
11
2.53725
21
-4.98664
0
LINE
8
BLACK
6
CONTINUOUS
10
2.53725
20
-4.98664
11
2.53784
21
-4.98593
0
LINE
8
BLACK
6
CONTINUOUS
10
2.53784
20
-4.98593
11
2.53843
21
-4.98522
0
LINE
8
BLACK
6
CONTINUOUS
10
2.53843
20
-4.98522
11
2.53846
21
-4.9852
0
LINE
8
BLACK
6
CONTINUOUS
10
2.53846
20
-4.9852
11
2.53848
21
-4.98517
0
LINE
8
BLACK
6
CONTINUOUS
10
2.53848
20
-4.98517
11
2.5392
21
-4.98459
0
LINE
8
BLACK
6
CONTINUOUS
10
2.5392
20
-4.98459
11
2.53992
21
-4.984
0
LINE
8
BLACK
6
CONTINUOUS
10
2.53992
20
-4.984
11
2.53995
21
-4.98399
0
LINE
8
BLACK
6
CONTINUOUS
10
2.53995
20
-4.98399
11
2.53998
21
-4.98397
0
LINE
8
BLACK
6
CONTINUOUS
10
2.53998
20
-4.98397
11
2.5408
21
-4.98354
0
LINE
8
BLACK
6
CONTINUOUS
10
2.5408
20
-4.98354
11
2.54162
21
-4.9831
0
LINE
8
BLACK
6
CONTINUOUS
10
2.54162
20
-4.9831
11
2.54165
21
-4.98309
0
LINE
8
BLACK
6
CONTINUOUS
10
2.54165
20
-4.98309
11
2.54168
21
-4.98308
0
LINE
8
BLACK
6
CONTINUOUS
10
2.54168
20
-4.98308
11
2.54257
21
-4.98281
0
LINE
8
BLACK
6
CONTINUOUS
10
2.54257
20
-4.98281
11
2.54346
21
-4.98255
0
LINE
8
BLACK
6
CONTINUOUS
10
2.54346
20
-4.98255
11
2.54349
21
-4.98254
0
LINE
8
BLACK
6
CONTINUOUS
10
2.54349
20
-4.98254
11
2.54352
21
-4.98253
0
LINE
8
BLACK
6
CONTINUOUS
10
2.54352
20
-4.98253
11
2.54445
21
-4.98245
0
LINE
8
BLACK
6
CONTINUOUS
10
2.54445
20
-4.98245
11
2.54537
21
-4.98236
0
LINE
8
BLACK
6
CONTINUOUS
10
2.54537
20
-4.98236
11
2.62036
21
-4.98236
0
LINE
8
BLACK
6
CONTINUOUS
10
2.62036
20
-4.98236
11
2.6205
21
-4.98236
0
LINE
8
BLACK
6
CONTINUOUS
10
2.55521
20
-5.00204
11
2.55521
21
-5.08547
0
LINE
8
BLACK
6
CONTINUOUS
10
2.55521
20
-5.08547
11
2.61804
21
-5.08547
0
LINE
8
BLACK
6
CONTINUOUS
10
2.61804
20
-5.08547
11
2.63328
21
-5.07785
0
LINE
8
BLACK
6
CONTINUOUS
10
2.63328
20
-5.07785
11
2.64039
21
-5.07074
0
LINE
8
BLACK
6
CONTINUOUS
10
2.64039
20
-5.07074
11
2.64801
21
-5.05549
0
LINE
8
BLACK
6
CONTINUOUS
10
2.64801
20
-5.05549
11
2.64801
21
-5.03202
0
LINE
8
BLACK
6
CONTINUOUS
10
2.64801
20
-5.03202
11
2.64039
21
-5.01678
0
LINE
8
BLACK
6
CONTINUOUS
10
2.64039
20
-5.01678
11
2.63328
21
-5.00966
0
LINE
8
BLACK
6
CONTINUOUS
10
2.63328
20
-5.00966
11
2.61804
21
-5.00204
0
LINE
8
BLACK
6
CONTINUOUS
10
2.61804
20
-5.00204
11
2.55521
21
-5.00204
0
LINE
8
BLACK
6
CONTINUOUS
10
3.42665
20
-4.98236
11
3.42693
21
-4.98239
0
LINE
8
BLACK
6
CONTINUOUS
10
3.42693
20
-4.98239
11
3.42722
21
-4.98238
0
LINE
8
BLACK
6
CONTINUOUS
10
3.42722
20
-4.98238
11
3.42789
21
-4.9825
0
LINE
8
BLACK
6
CONTINUOUS
10
3.42789
20
-4.9825
11
3.42856
21
-4.98257
0
LINE
8
BLACK
6
CONTINUOUS
10
3.42856
20
-4.98257
11
3.42883
21
-4.98266
0
LINE
8
BLACK
6
CONTINUOUS
10
3.42883
20
-4.98266
11
3.42912
21
-4.98271
0
LINE
8
BLACK
6
CONTINUOUS
10
3.42912
20
-4.98271
11
3.42975
21
-4.98295
0
LINE
8
BLACK
6
CONTINUOUS
10
3.42975
20
-4.98295
11
3.43039
21
-4.98315
0
LINE
8
BLACK
6
CONTINUOUS
10
3.43039
20
-4.98315
11
3.43064
21
-4.98329
0
LINE
8
BLACK
6
CONTINUOUS
10
3.43064
20
-4.98329
11
3.43091
21
-4.9834
0
LINE
8
BLACK
6
CONTINUOUS
10
3.43091
20
-4.9834
11
3.44966
21
-4.99277
0
LINE
8
BLACK
6
CONTINUOUS
10
3.44966
20
-4.99277
11
3.44978
21
-4.99283
0
LINE
8
BLACK
6
CONTINUOUS
10
3.44978
20
-4.99283
11
3.45024
21
-4.99313
0
LINE
8
BLACK
6
CONTINUOUS
10
3.45024
20
-4.99313
11
3.45073
21
-4.9934
0
LINE
8
BLACK
6
CONTINUOUS
10
3.45073
20
-4.9934
11
3.45105
21
-4.99366
0
LINE
8
BLACK
6
CONTINUOUS
10
3.45105
20
-4.99366
11
3.45139
21
-4.99388
0
LINE
8
BLACK
6
CONTINUOUS
10
3.45139
20
-4.99388
11
3.45179
21
-4.99426
0
LINE
8
BLACK
6
CONTINUOUS
10
3.45179
20
-4.99426
11
3.45222
21
-4.99462
0
LINE
8
BLACK
6
CONTINUOUS
10
3.45222
20
-4.99462
11
3.46159
21
-5.00399
0
LINE
8
BLACK
6
CONTINUOUS
10
3.46159
20
-5.00399
11
3.46169
21
-5.00409
0
LINE
8
BLACK
6
CONTINUOUS
10
3.46169
20
-5.00409
11
3.46203
21
-5.00452
0
LINE
8
BLACK
6
CONTINUOUS
10
3.46203
20
-5.00452
11
3.46241
21
-5.00492
0
LINE
8
BLACK
6
CONTINUOUS
10
3.46241
20
-5.00492
11
3.46263
21
-5.00527
0
LINE
8
BLACK
6
CONTINUOUS
10
3.46263
20
-5.00527
11
3.46289
21
-5.00559
0
LINE
8
BLACK
6
CONTINUOUS
10
3.46289
20
-5.00559
11
3.46314
21
-5.00608
0
LINE
8
BLACK
6
CONTINUOUS
10
3.46314
20
-5.00608
11
3.46343
21
-5.00655
0
LINE
8
BLACK
6
CONTINUOUS
10
3.46343
20
-5.00655
11
3.47281
21
-5.02529
0
LINE
8
BLACK
6
CONTINUOUS
10
3.47281
20
-5.02529
11
3.47287
21
-5.02542
0
LINE
8
BLACK
6
CONTINUOUS
10
3.47287
20
-5.02542
11
3.47297
21
-5.02569
0
LINE
8
BLACK
6
CONTINUOUS
10
3.47297
20
-5.02569
11
3.4731
21
-5.02595
0
LINE
8
BLACK
6
CONTINUOUS
10
3.4731
20
-5.02595
11
3.4733
21
-5.02659
0
LINE
8
BLACK
6
CONTINUOUS
10
3.4733
20
-5.02659
11
3.47353
21
-5.02722
0
LINE
8
BLACK
6
CONTINUOUS
10
3.47353
20
-5.02722
11
3.47358
21
-5.02751
0
LINE
8
BLACK
6
CONTINUOUS
10
3.47358
20
-5.02751
11
3.47366
21
-5.02778
0
LINE
8
BLACK
6
CONTINUOUS
10
3.47366
20
-5.02778
11
3.47373
21
-5.02845
0
LINE
8
BLACK
6
CONTINUOUS
10
3.47373
20
-5.02845
11
3.47383
21
-5.02912
0
LINE
8
BLACK
6
CONTINUOUS
10
3.47383
20
-5.02912
11
3.47382
21
-5.02941
0
LINE
8
BLACK
6
CONTINUOUS
10
3.47382
20
-5.02941
11
3.47385
21
-5.0297
0
LINE
8
BLACK
6
CONTINUOUS
10
3.47385
20
-5.0297
11
3.47385
21
-5.05782
0
LINE
8
BLACK
6
CONTINUOUS
10
3.47385
20
-5.05782
11
3.47385
21
-5.05796
0
LINE
8
BLACK
6
CONTINUOUS
10
3.47385
20
-5.05796
11
3.47381
21
-5.05824
0
LINE
8
BLACK
6
CONTINUOUS
10
3.47381
20
-5.05824
11
3.47382
21
-5.05853
0
LINE
8
BLACK
6
CONTINUOUS
10
3.47382
20
-5.05853
11
3.47371
21
-5.0592
0
LINE
8
BLACK
6
CONTINUOUS
10
3.47371
20
-5.0592
11
3.47363
21
-5.05986
0
LINE
8
BLACK
6
CONTINUOUS
10
3.47363
20
-5.05986
11
3.47354
21
-5.06014
0
LINE
8
BLACK
6
CONTINUOUS
10
3.47354
20
-5.06014
11
3.4735
21
-5.06043
0
LINE
8
BLACK
6
CONTINUOUS
10
3.4735
20
-5.06043
11
3.47325
21
-5.06105
0
LINE
8
BLACK
6
CONTINUOUS
10
3.47325
20
-5.06105
11
3.47305
21
-5.0617
0
LINE
8
BLACK
6
CONTINUOUS
10
3.47305
20
-5.0617
11
3.47291
21
-5.06195
0
LINE
8
BLACK
6
CONTINUOUS
10
3.47291
20
-5.06195
11
3.47281
21
-5.06222
0
LINE
8
BLACK
6
CONTINUOUS
10
3.47281
20
-5.06222
11
3.46343
21
-5.08097
0
LINE
8
BLACK
6
CONTINUOUS
10
3.46343
20
-5.08097
11
3.46337
21
-5.08109
0
LINE
8
BLACK
6
CONTINUOUS
10
3.46337
20
-5.08109
11
3.46307
21
-5.08155
0
LINE
8
BLACK
6
CONTINUOUS
10
3.46307
20
-5.08155
11
3.46281
21
-5.08204
0
LINE
8
BLACK
6
CONTINUOUS
10
3.46281
20
-5.08204
11
3.46255
21
-5.08236
0
LINE
8
BLACK
6
CONTINUOUS
10
3.46255
20
-5.08236
11
3.46233
21
-5.0827
0
LINE
8
BLACK
6
CONTINUOUS
10
3.46233
20
-5.0827
11
3.46194
21
-5.0831
0
LINE
8
BLACK
6
CONTINUOUS
10
3.46194
20
-5.0831
11
3.46159
21
-5.08353
0
LINE
8
BLACK
6
CONTINUOUS
10
3.46159
20
-5.08353
11
3.45222
21
-5.0929
0
LINE
8
BLACK
6
CONTINUOUS
10
3.45222
20
-5.0929
11
3.45212
21
-5.093
0
LINE
8
BLACK
6
CONTINUOUS
10
3.45212
20
-5.093
11
3.45169
21
-5.09334
0
LINE
8
BLACK
6
CONTINUOUS
10
3.45169
20
-5.09334
11
3.45128
21
-5.09372
0
LINE
8
BLACK
6
CONTINUOUS
10
3.45128
20
-5.09372
11
3.45094
21
-5.09394
0
LINE
8
BLACK
6
CONTINUOUS
10
3.45094
20
-5.09394
11
3.45062
21
-5.09419
0
LINE
8
BLACK
6
CONTINUOUS
10
3.45062
20
-5.09419
11
3.45013
21
-5.09445
0
LINE
8
BLACK
6
CONTINUOUS
10
3.45013
20
-5.09445
11
3.44966
21
-5.09474
0
LINE
8
BLACK
6
CONTINUOUS
10
3.44966
20
-5.09474
11
3.43091
21
-5.10412
0
LINE
8
BLACK
6
CONTINUOUS
10
3.43091
20
-5.10412
11
3.43079
21
-5.10418
0
LINE
8
BLACK
6
CONTINUOUS
10
3.43079
20
-5.10418
11
3.43052
21
-5.10428
0
LINE
8
BLACK
6
CONTINUOUS
10
3.43052
20
-5.10428
11
3.43026
21
-5.10441
0
LINE
8
BLACK
6
CONTINUOUS
10
3.43026
20
-5.10441
11
3.42962
21
-5.10461
0
LINE
8
BLACK
6
CONTINUOUS
10
3.42962
20
-5.10461
11
3.42898
21
-5.10484
0
LINE
8
BLACK
6
CONTINUOUS
10
3.42898
20
-5.10484
11
3.4287
21
-5.10488
0
LINE
8
BLACK
6
CONTINUOUS
10
3.4287
20
-5.10488
11
3.42842
21
-5.10497
0
LINE
8
BLACK
6
CONTINUOUS
10
3.42842
20
-5.10497
11
3.42775
21
-5.10503
0
LINE
8
BLACK
6
CONTINUOUS
10
3.42775
20
-5.10503
11
3.42709
21
-5.10514
0
LINE
8
BLACK
6
CONTINUOUS
10
3.42709
20
-5.10514
11
3.4268
21
-5.10513
0
LINE
8
BLACK
6
CONTINUOUS
10
3.4268
20
-5.10513
11
3.42651
21
-5.10516
0
LINE
8
BLACK
6
CONTINUOUS
10
3.42651
20
-5.10516
11
3.41729
21
-5.10516
0
LINE
8
BLACK
6
CONTINUOUS
10
3.41729
20
-5.10516
11
3.47207
21
-5.18341
0
LINE
8
BLACK
6
CONTINUOUS
10
3.47207
20
-5.18341
11
3.47215
21
-5.18352
0
LINE
8
BLACK
6
CONTINUOUS
10
3.47215
20
-5.18352
11
3.47307
21
-5.18521
0
LINE
8
BLACK
6
CONTINUOUS
10
3.47307
20
-5.18521
11
3.47364
21
-5.18704
0
LINE
8
BLACK
6
CONTINUOUS
10
3.47364
20
-5.18704
11
3.47385
21
-5.18895
0
LINE
8
BLACK
6
CONTINUOUS
10
3.47385
20
-5.18895
11
3.47368
21
-5.19086
0
LINE
8
BLACK
6
CONTINUOUS
10
3.47368
20
-5.19086
11
3.47314
21
-5.19271
0
LINE
8
BLACK
6
CONTINUOUS
10
3.47314
20
-5.19271
11
3.47226
21
-5.19441
0
LINE
8
BLACK
6
CONTINUOUS
10
3.47226
20
-5.19441
11
3.47106
21
-5.19591
0
LINE
8
BLACK
6
CONTINUOUS
10
3.47106
20
-5.19591
11
3.46959
21
-5.19715
0
LINE
8
BLACK
6
CONTINUOUS
10
3.46959
20
-5.19715
11
3.46791
21
-5.19808
0
LINE
8
BLACK
6
CONTINUOUS
10
3.46791
20
-5.19808
11
3.46608
21
-5.19867
0
LINE
8
BLACK
6
CONTINUOUS
10
3.46608
20
-5.19867
11
3.46417
21
-5.19889
0
LINE
8
BLACK
6
CONTINUOUS
10
3.46417
20
-5.19889
11
3.46226
21
-5.19874
0
LINE
8
BLACK
6
CONTINUOUS
10
3.46226
20
-5.19874
11
3.46041
21
-5.19821
0
LINE
8
BLACK
6
CONTINUOUS
10
3.46041
20
-5.19821
11
3.4587
21
-5.19734
0
LINE
8
BLACK
6
CONTINUOUS
10
3.4587
20
-5.19734
11
3.45719
21
-5.19615
0
LINE
8
BLACK
6
CONTINUOUS
10
3.45719
20
-5.19615
11
3.45594
21
-5.1947
0
LINE
8
BLACK
6
CONTINUOUS
10
3.45594
20
-5.1947
11
3.39326
21
-5.10516
0
LINE
8
BLACK
6
CONTINUOUS
10
3.39326
20
-5.10516
11
3.36136
21
-5.10516
0
LINE
8
BLACK
6
CONTINUOUS
10
3.36136
20
-5.10516
11
3.36136
21
-5.18905
0
LINE
8
BLACK
6
CONTINUOUS
10
3.36136
20
-5.18905
11
3.36136
21
-5.18919
0
LINE
8
BLACK
6
CONTINUOUS
10
3.36136
20
-5.18919
11
3.36115
21
-5.1911
0
LINE
8
BLACK
6
CONTINUOUS
10
3.36115
20
-5.1911
11
3.36057
21
-5.19293
0
LINE
8
BLACK
6
CONTINUOUS
10
3.36057
20
-5.19293
11
3.35964
21
-5.19461
0
LINE
8
BLACK
6
CONTINUOUS
10
3.35964
20
-5.19461
11
3.3584
21
-5.19608
0
LINE
8
BLACK
6
CONTINUOUS
10
3.3584
20
-5.19608
11
3.35691
21
-5.19729
0
LINE
8
BLACK
6
CONTINUOUS
10
3.35691
20
-5.19729
11
3.35521
21
-5.19818
0
LINE
8
BLACK
6
CONTINUOUS
10
3.35521
20
-5.19818
11
3.35336
21
-5.19872
0
LINE
8
BLACK
6
CONTINUOUS
10
3.35336
20
-5.19872
11
3.35145
21
-5.19889
0
LINE
8
BLACK
6
CONTINUOUS
10
3.35145
20
-5.19889
11
3.34954
21
-5.19869
0
LINE
8
BLACK
6
CONTINUOUS
10
3.34954
20
-5.19869
11
3.3477
21
-5.19812
0
LINE
8
BLACK
6
CONTINUOUS
10
3.3477
20
-5.19812
11
3.34601
21
-5.19721
0
LINE
8
BLACK
6
CONTINUOUS
10
3.34601
20
-5.19721
11
3.34453
21
-5.19599
0
LINE
8
BLACK
6
CONTINUOUS
10
3.34453
20
-5.19599
11
3.34332
21
-5.1945
0
LINE
8
BLACK
6
CONTINUOUS
10
3.34332
20
-5.1945
11
3.34242
21
-5.1928
0
LINE
8
BLACK
6
CONTINUOUS
10
3.34242
20
-5.1928
11
3.34186
21
-5.19096
0
LINE
8
BLACK
6
CONTINUOUS
10
3.34186
20
-5.19096
11
3.34168
21
-5.18905
0
LINE
8
BLACK
6
CONTINUOUS
10
3.34168
20
-5.18905
11
3.34168
21
-4.9922
0
LINE
8
BLACK
6
CONTINUOUS
10
3.34168
20
-4.9922
11
3.34168
21
-4.99213
0
LINE
8
BLACK
6
CONTINUOUS
10
3.34168
20
-4.99213
11
3.34168
21
-4.99213
0
LINE
8
BLACK
6
CONTINUOUS
10
3.34168
20
-4.99213
11
3.34168
21
-4.99213
0
LINE
8
BLACK
6
CONTINUOUS
10
3.34168
20
-4.99213
11
3.34168
21
-4.99206
0
LINE
8
BLACK
6
CONTINUOUS
10
3.34168
20
-4.99206
11
3.34178
21
-4.99114
0
LINE
8
BLACK
6
CONTINUOUS
10
3.34178
20
-4.99114
11
3.34188
21
-4.99022
0
LINE
8
BLACK
6
CONTINUOUS
10
3.34188
20
-4.99022
11
3.34189
21
-4.99019
0
LINE
8
BLACK
6
CONTINUOUS
10
3.34189
20
-4.99019
11
3.34189
21
-4.99015
0
LINE
8
BLACK
6
CONTINUOUS
10
3.34189
20
-4.99015
11
3.34217
21
-4.98927
0
LINE
8
BLACK
6
CONTINUOUS
10
3.34217
20
-4.98927
11
3.34245
21
-4.98839
0
LINE
8
BLACK
6
CONTINUOUS
10
3.34245
20
-4.98839
11
3.34246
21
-4.98836
0
LINE
8
BLACK
6
CONTINUOUS
10
3.34246
20
-4.98836
11
3.34247
21
-4.98832
0
LINE
8
BLACK
6
CONTINUOUS
10
3.34247
20
-4.98832
11
3.34292
21
-4.98751
0
LINE
8
BLACK
6
CONTINUOUS
10
3.34292
20
-4.98751
11
3.34336
21
-4.9867
0
LINE
8
BLACK
6
CONTINUOUS
10
3.34336
20
-4.9867
11
3.34338
21
-4.98667
0
LINE
8
BLACK
6
CONTINUOUS
10
3.34338
20
-4.98667
11
3.3434
21
-4.98664
0
LINE
8
BLACK
6
CONTINUOUS
10
3.3434
20
-4.98664
11
3.34399
21
-4.98593
0
LINE
8
BLACK
6
CONTINUOUS
10
3.34399
20
-4.98593
11
3.34458
21
-4.98522
0
LINE
8
BLACK
6
CONTINUOUS
10
3.34458
20
-4.98522
11
3.34461
21
-4.9852
0
LINE
8
BLACK
6
CONTINUOUS
10
3.34461
20
-4.9852
11
3.34463
21
-4.98517
0
LINE
8
BLACK
6
CONTINUOUS
10
3.34463
20
-4.98517
11
3.34535
21
-4.98459
0
LINE
8
BLACK
6
CONTINUOUS
10
3.34535
20
-4.98459
11
3.34607
21
-4.984
0
LINE
8
BLACK
6
CONTINUOUS
10
3.34607
20
-4.984
11
3.3461
21
-4.98399
0
LINE
8
BLACK
6
CONTINUOUS
10
3.3461
20
-4.98399
11
3.34613
21
-4.98397
0
LINE
8
BLACK
6
CONTINUOUS
10
3.34613
20
-4.98397
11
3.34695
21
-4.98354
0
LINE
8
BLACK
6
CONTINUOUS
10
3.34695
20
-4.98354
11
3.34777
21
-4.9831
0
LINE
8
BLACK
6
CONTINUOUS
10
3.34777
20
-4.9831
11
3.3478
21
-4.98309
0
LINE
8
BLACK
6
CONTINUOUS
10
3.3478
20
-4.98309
11
3.34783
21
-4.98308
0
LINE
8
BLACK
6
CONTINUOUS
10
3.34783
20
-4.98308
11
3.34872
21
-4.98281
0
LINE
8
BLACK
6
CONTINUOUS
10
3.34872
20
-4.98281
11
3.34961
21
-4.98255
0
LINE
8
BLACK
6
CONTINUOUS
10
3.34961
20
-4.98255
11
3.34964
21
-4.98254
0
LINE
8
BLACK
6
CONTINUOUS
10
3.34964
20
-4.98254
11
3.34967
21
-4.98253
0
LINE
8
BLACK
6
CONTINUOUS
10
3.34967
20
-4.98253
11
3.3506
21
-4.98245
0
LINE
8
BLACK
6
CONTINUOUS
10
3.3506
20
-4.98245
11
3.35152
21
-4.98236
0
LINE
8
BLACK
6
CONTINUOUS
10
3.35152
20
-4.98236
11
3.42651
21
-4.98236
0
LINE
8
BLACK
6
CONTINUOUS
10
3.42651
20
-4.98236
11
3.42665
21
-4.98236
0
LINE
8
BLACK
6
CONTINUOUS
10
3.36136
20
-5.00204
11
3.36136
21
-5.08547
0
LINE
8
BLACK
6
CONTINUOUS
10
3.36136
20
-5.08547
11
3.42419
21
-5.08547
0
LINE
8
BLACK
6
CONTINUOUS
10
3.42419
20
-5.08547
11
3.43943
21
-5.07785
0
LINE
8
BLACK
6
CONTINUOUS
10
3.43943
20
-5.07785
11
3.44654
21
-5.07074
0
LINE
8
BLACK
6
CONTINUOUS
10
3.44654
20
-5.07074
11
3.45416
21
-5.05549
0
LINE
8
BLACK
6
CONTINUOUS
10
3.45416
20
-5.05549
11
3.45416
21
-5.03202
0
LINE
8
BLACK
6
CONTINUOUS
10
3.45416
20
-5.03202
11
3.44654
21
-5.01678
0
LINE
8
BLACK
6
CONTINUOUS
10
3.44654
20
-5.01678
11
3.43943
21
-5.00966
0
LINE
8
BLACK
6
CONTINUOUS
10
3.43943
20
-5.00966
11
3.42419
21
-5.00204
0
LINE
8
BLACK
6
CONTINUOUS
10
3.42419
20
-5.00204
11
3.36136
21
-5.00204
0
LINE
8
BLACK
6
CONTINUOUS
10
2.93131
20
-4.98249
11
2.93316
21
-4.98299
0
LINE
8
BLACK
6
CONTINUOUS
10
2.93316
20
-4.98299
11
2.93488
21
-4.98384
0
LINE
8
BLACK
6
CONTINUOUS
10
2.93488
20
-4.98384
11
2.93641
21
-4.985
0
LINE
8
BLACK
6
CONTINUOUS
10
2.93641
20
-4.985
11
2.93768
21
-4.98644
0
LINE
8
BLACK
6
CONTINUOUS
10
2.93768
20
-4.98644
11
2.93865
21
-4.9881
0
LINE
8
BLACK
6
CONTINUOUS
10
2.93865
20
-4.9881
11
2.93927
21
-4.98992
0
LINE
8
BLACK
6
CONTINUOUS
10
2.93927
20
-4.98992
11
2.97711
21
-5.14883
0
LINE
8
BLACK
6
CONTINUOUS
10
2.97711
20
-5.14883
11
3.00455
21
-5.04591
0
LINE
8
BLACK
6
CONTINUOUS
10
3.00455
20
-5.04591
11
3.00459
21
-5.04578
0
LINE
8
BLACK
6
CONTINUOUS
10
3.00459
20
-5.04578
11
3.0047
21
-5.04548
0
LINE
8
BLACK
6
CONTINUOUS
10
3.0047
20
-5.04548
11
3.00478
21
-5.04516
0
LINE
8
BLACK
6
CONTINUOUS
10
3.00478
20
-5.04516
11
3.00505
21
-5.04458
0
LINE
8
BLACK
6
CONTINUOUS
10
3.00505
20
-5.04458
11
3.00529
21
-5.04399
0
LINE
8
BLACK
6
CONTINUOUS
10
3.00529
20
-5.04399
11
3.00546
21
-5.04371
0
LINE
8
BLACK
6
CONTINUOUS
10
3.00546
20
-5.04371
11
3.00559
21
-5.04342
0
LINE
8
BLACK
6
CONTINUOUS
10
3.00559
20
-5.04342
11
3.00597
21
-5.04291
0
LINE
8
BLACK
6
CONTINUOUS
10
3.00597
20
-5.04291
11
3.00632
21
-5.04237
0
LINE
8
BLACK
6
CONTINUOUS
10
3.00632
20
-5.04237
11
3.00654
21
-5.04213
0
LINE
8
BLACK
6
CONTINUOUS
10
3.00654
20
-5.04213
11
3.00673
21
-5.04187
0
LINE
8
BLACK
6
CONTINUOUS
10
3.00673
20
-5.04187
11
3.0072
21
-5.04144
0
LINE
8
BLACK
6
CONTINUOUS
10
3.0072
20
-5.04144
11
3.00765
21
-5.04098
0
LINE
8
BLACK
6
CONTINUOUS
10
3.00765
20
-5.04098
11
3.00791
21
-5.04079
0
LINE
8
BLACK
6
CONTINUOUS
10
3.00791
20
-5.04079
11
3.00815
21
-5.04058
0
LINE
8
BLACK
6
CONTINUOUS
10
3.00815
20
-5.04058
11
3.00869
21
-5.04024
0
LINE
8
BLACK
6
CONTINUOUS
10
3.00869
20
-5.04024
11
3.00922
21
-5.03987
0
LINE
8
BLACK
6
CONTINUOUS
10
3.00922
20
-5.03987
11
3.00951
21
-5.03974
0
LINE
8
BLACK
6
CONTINUOUS
10
3.00951
20
-5.03974
11
3.00979
21
-5.03958
0
LINE
8
BLACK
6
CONTINUOUS
10
3.00979
20
-5.03958
11
3.01039
21
-5.03936
0
LINE
8
BLACK
6
CONTINUOUS
10
3.01039
20
-5.03936
11
3.01098
21
-5.0391
0
LINE
8
BLACK
6
CONTINUOUS
10
3.01098
20
-5.0391
11
3.01129
21
-5.03903
0
LINE
8
BLACK
6
CONTINUOUS
10
3.01129
20
-5.03903
11
3.01159
21
-5.03892
0
LINE
8
BLACK
6
CONTINUOUS
10
3.01159
20
-5.03892
11
3.01222
21
-5.03882
0
LINE
8
BLACK
6
CONTINUOUS
10
3.01222
20
-5.03882
11
3.01285
21
-5.03868
0
LINE
8
BLACK
6
CONTINUOUS
10
3.01285
20
-5.03868
11
3.01317
21
-5.03867
0
LINE
8
BLACK
6
CONTINUOUS
10
3.01317
20
-5.03867
11
3.01349
21
-5.03862
0
LINE
8
BLACK
6
CONTINUOUS
10
3.01349
20
-5.03862
11
3.01413
21
-5.03864
0
LINE
8
BLACK
6
CONTINUOUS
10
3.01413
20
-5.03864
11
3.01477
21
-5.03863
0
LINE
8
BLACK
6
CONTINUOUS
10
3.01477
20
-5.03863
11
3.01509
21
-5.03868
0
LINE
8
BLACK
6
CONTINUOUS
10
3.01509
20
-5.03868
11
3.01541
21
-5.03869
0
LINE
8
BLACK
6
CONTINUOUS
10
3.01541
20
-5.03869
11
3.01603
21
-5.03884
0
LINE
8
BLACK
6
CONTINUOUS
10
3.01603
20
-5.03884
11
3.01666
21
-5.03895
0
LINE
8
BLACK
6
CONTINUOUS
10
3.01666
20
-5.03895
11
3.01696
21
-5.03907
0
LINE
8
BLACK
6
CONTINUOUS
10
3.01696
20
-5.03907
11
3.01728
21
-5.03914
0
LINE
8
BLACK
6
CONTINUOUS
10
3.01728
20
-5.03914
11
3.01786
21
-5.03941
0
LINE
8
BLACK
6
CONTINUOUS
10
3.01786
20
-5.03941
11
3.01846
21
-5.03964
0
LINE
8
BLACK
6
CONTINUOUS
10
3.01846
20
-5.03964
11
3.01873
21
-5.03981
0
LINE
8
BLACK
6
CONTINUOUS
10
3.01873
20
-5.03981
11
3.01902
21
-5.03994
0
LINE
8
BLACK
6
CONTINUOUS
10
3.01902
20
-5.03994
11
3.01954
21
-5.04032
0
LINE
8
BLACK
6
CONTINUOUS
10
3.01954
20
-5.04032
11
3.02008
21
-5.04066
0
LINE
8
BLACK
6
CONTINUOUS
10
3.02008
20
-5.04066
11
3.02032
21
-5.04088
0
LINE
8
BLACK
6
CONTINUOUS
10
3.02032
20
-5.04088
11
3.02058
21
-5.04107
0
LINE
8
BLACK
6
CONTINUOUS
10
3.02058
20
-5.04107
11
3.02101
21
-5.04154
0
LINE
8
BLACK
6
CONTINUOUS
10
3.02101
20
-5.04154
11
3.02148
21
-5.04198
0
LINE
8
BLACK
6
CONTINUOUS
10
3.02148
20
-5.04198
11
3.02167
21
-5.04224
0
LINE
8
BLACK
6
CONTINUOUS
10
3.02167
20
-5.04224
11
3.02189
21
-5.04248
0
LINE
8
BLACK
6
CONTINUOUS
10
3.02189
20
-5.04248
11
3.02222
21
-5.04302
0
LINE
8
BLACK
6
CONTINUOUS
10
3.02222
20
-5.04302
11
3.0226
21
-5.04354
0
LINE
8
BLACK
6
CONTINUOUS
10
3.0226
20
-5.04354
11
3.02273
21
-5.04384
0
LINE
8
BLACK
6
CONTINUOUS
10
3.02273
20
-5.04384
11
3.0229
21
-5.04411
0
LINE
8
BLACK
6
CONTINUOUS
10
3.0229
20
-5.04411
11
3.02312
21
-5.04471
0
LINE
8
BLACK
6
CONTINUOUS
10
3.02312
20
-5.04471
11
3.02339
21
-5.04529
0
LINE
8
BLACK
6
CONTINUOUS
10
3.02339
20
-5.04529
11
3.02346
21
-5.04561
0
LINE
8
BLACK
6
CONTINUOUS
10
3.02346
20
-5.04561
11
3.02357
21
-5.04591
0
LINE
8
BLACK
6
CONTINUOUS
10
3.02357
20
-5.04591
11
3.05102
21
-5.14883
0
LINE
8
BLACK
6
CONTINUOUS
10
3.05102
20
-5.14883
11
3.08885
21
-4.98992
0
LINE
8
BLACK
6
CONTINUOUS
10
3.08885
20
-4.98992
11
3.08888
21
-4.98979
0
LINE
8
BLACK
6
CONTINUOUS
10
3.08888
20
-4.98979
11
3.08953
21
-4.98798
0
LINE
8
BLACK
6
CONTINUOUS
10
3.08953
20
-4.98798
11
3.09052
21
-4.98633
0
LINE
8
BLACK
6
CONTINUOUS
10
3.09052
20
-4.98633
11
3.09181
21
-4.98491
0
LINE
8
BLACK
6
CONTINUOUS
10
3.09181
20
-4.98491
11
3.09335
21
-4.98376
0
LINE
8
BLACK
6
CONTINUOUS
10
3.09335
20
-4.98376
11
3.09509
21
-4.98294
0
LINE
8
BLACK
6
CONTINUOUS
10
3.09509
20
-4.98294
11
3.09695
21
-4.98247
0
LINE
8
BLACK
6
CONTINUOUS
10
3.09695
20
-4.98247
11
3.09887
21
-4.98237
0
LINE
8
BLACK
6
CONTINUOUS
10
3.09887
20
-4.98237
11
3.10077
21
-4.98264
0
LINE
8
BLACK
6
CONTINUOUS
10
3.10077
20
-4.98264
11
3.10258
21
-4.98328
0
LINE
8
BLACK
6
CONTINUOUS
10
3.10258
20
-4.98328
11
3.10424
21
-4.98426
0
LINE
8
BLACK
6
CONTINUOUS
10
3.10424
20
-4.98426
11
3.10567
21
-4.98554
0
LINE
8
BLACK
6
CONTINUOUS
10
3.10567
20
-4.98554
11
3.10683
21
-4.98707
0
LINE
8
BLACK
6
CONTINUOUS
10
3.10683
20
-4.98707
11
3.10766
21
-4.9888
0
LINE
8
BLACK
6
CONTINUOUS
10
3.10766
20
-4.9888
11
3.10815
21
-4.99066
0
LINE
8
BLACK
6
CONTINUOUS
10
3.10815
20
-4.99066
11
3.10826
21
-4.99258
0
LINE
8
BLACK
6
CONTINUOUS
10
3.10826
20
-4.99258
11
3.108
21
-4.99448
0
LINE
8
BLACK
6
CONTINUOUS
10
3.108
20
-4.99448
11
3.06113
21
-5.19133
0
LINE
8
BLACK
6
CONTINUOUS
10
3.06113
20
-5.19133
11
3.0611
21
-5.19146
0
LINE
8
BLACK
6
CONTINUOUS
10
3.0611
20
-5.19146
11
3.06094
21
-5.19189
0
LINE
8
BLACK
6
CONTINUOUS
10
3.06094
20
-5.19189
11
3.06084
21
-5.19233
0
LINE
8
BLACK
6
CONTINUOUS
10
3.06084
20
-5.19233
11
3.06062
21
-5.19279
0
LINE
8
BLACK
6
CONTINUOUS
10
3.06062
20
-5.19279
11
3.06045
21
-5.19327
0
LINE
8
BLACK
6
CONTINUOUS
10
3.06045
20
-5.19327
11
3.06021
21
-5.19366
0
LINE
8
BLACK
6
CONTINUOUS
10
3.06021
20
-5.19366
11
3.06002
21
-5.19407
0
LINE
8
BLACK
6
CONTINUOUS
10
3.06002
20
-5.19407
11
3.05972
21
-5.19448
0
LINE
8
BLACK
6
CONTINUOUS
10
3.05972
20
-5.19448
11
3.05946
21
-5.19492
0
LINE
8
BLACK
6
CONTINUOUS
10
3.05946
20
-5.19492
11
3.05915
21
-5.19525
0
LINE
8
BLACK
6
CONTINUOUS
10
3.05915
20
-5.19525
11
3.05889
21
-5.19562
0
LINE
8
BLACK
6
CONTINUOUS
10
3.05889
20
-5.19562
11
3.05851
21
-5.19596
0
LINE
8
BLACK
6
CONTINUOUS
10
3.05851
20
-5.19596
11
3.05817
21
-5.19634
0
LINE
8
BLACK
6
CONTINUOUS
10
3.05817
20
-5.19634
11
3.0578
21
-5.19661
0
LINE
8
BLACK
6
CONTINUOUS
10
3.0578
20
-5.19661
11
3.05747
21
-5.19692
0
LINE
8
BLACK
6
CONTINUOUS
10
3.05747
20
-5.19692
11
3.05704
21
-5.19718
0
LINE
8
BLACK
6
CONTINUOUS
10
3.05704
20
-5.19718
11
3.05663
21
-5.19749
0
LINE
8
BLACK
6
CONTINUOUS
10
3.05663
20
-5.19749
11
3.05622
21
-5.19768
0
LINE
8
BLACK
6
CONTINUOUS
10
3.05622
20
-5.19768
11
3.05583
21
-5.19792
0
LINE
8
BLACK
6
CONTINUOUS
10
3.05583
20
-5.19792
11
3.05535
21
-5.19809
0
LINE
8
BLACK
6
CONTINUOUS
10
3.05535
20
-5.19809
11
3.05489
21
-5.19831
0
LINE
8
BLACK
6
CONTINUOUS
10
3.05489
20
-5.19831
11
3.05445
21
-5.19842
0
LINE
8
BLACK
6
CONTINUOUS
10
3.05445
20
-5.19842
11
3.05403
21
-5.19858
0
LINE
8
BLACK
6
CONTINUOUS
10
3.05403
20
-5.19858
11
3.05352
21
-5.19866
0
LINE
8
BLACK
6
CONTINUOUS
10
3.05352
20
-5.19866
11
3.05303
21
-5.19878
0
LINE
8
BLACK
6
CONTINUOUS
10
3.05303
20
-5.19878
11
3.05258
21
-5.19881
0
LINE
8
BLACK
6
CONTINUOUS
10
3.05258
20
-5.19881
11
3.05213
21
-5.19888
0
LINE
8
BLACK
6
CONTINUOUS
10
3.05213
20
-5.19888
11
3.05162
21
-5.19886
0
LINE
8
BLACK
6
CONTINUOUS
10
3.05162
20
-5.19886
11
3.05111
21
-5.19888
0
LINE
8
BLACK
6
CONTINUOUS
10
3.05111
20
-5.19888
11
3.05066
21
-5.19882
0
LINE
8
BLACK
6
CONTINUOUS
10
3.05066
20
-5.19882
11
3.05021
21
-5.1988
0
LINE
8
BLACK
6
CONTINUOUS
10
3.05021
20
-5.1988
11
3.04971
21
-5.19868
0
LINE
8
BLACK
6
CONTINUOUS
10
3.04971
20
-5.19868
11
3.04921
21
-5.19861
0
LINE
8
BLACK
6
CONTINUOUS
10
3.04921
20
-5.19861
11
3.04878
21
-5.19846
0
LINE
8
BLACK
6
CONTINUOUS
10
3.04878
20
-5.19846
11
3.04834
21
-5.19835
0
LINE
8
BLACK
6
CONTINUOUS
10
3.04834
20
-5.19835
11
3.04788
21
-5.19814
0
LINE
8
BLACK
6
CONTINUOUS
10
3.04788
20
-5.19814
11
3.0474
21
-5.19797
0
LINE
8
BLACK
6
CONTINUOUS
10
3.0474
20
-5.19797
11
3.04701
21
-5.19774
0
LINE
8
BLACK
6
CONTINUOUS
10
3.04701
20
-5.19774
11
3.04659
21
-5.19755
0
LINE
8
BLACK
6
CONTINUOUS
10
3.04659
20
-5.19755
11
3.04618
21
-5.19725
0
LINE
8
BLACK
6
CONTINUOUS
10
3.04618
20
-5.19725
11
3.04574
21
-5.19699
0
LINE
8
BLACK
6
CONTINUOUS
10
3.04574
20
-5.19699
11
3.04541
21
-5.19669
0
LINE
8
BLACK
6
CONTINUOUS
10
3.04541
20
-5.19669
11
3.04504
21
-5.19643
0
LINE
8
BLACK
6
CONTINUOUS
10
3.04504
20
-5.19643
11
3.04469
21
-5.19605
0
LINE
8
BLACK
6
CONTINUOUS
10
3.04469
20
-5.19605
11
3.04431
21
-5.19571
0
LINE
8
BLACK
6
CONTINUOUS
10
3.04431
20
-5.19571
11
3.04404
21
-5.19535
0
LINE
8
BLACK
6
CONTINUOUS
10
3.04404
20
-5.19535
11
3.04373
21
-5.19502
0
LINE
8
BLACK
6
CONTINUOUS
10
3.04373
20
-5.19502
11
3.04346
21
-5.19459
0
LINE
8
BLACK
6
CONTINUOUS
10
3.04346
20
-5.19459
11
3.04316
21
-5.19418
0
LINE
8
BLACK
6
CONTINUOUS
10
3.04316
20
-5.19418
11
3.04296
21
-5.19377
0
LINE
8
BLACK
6
CONTINUOUS
10
3.04296
20
-5.19377
11
3.04272
21
-5.19339
0
LINE
8
BLACK
6
CONTINUOUS
10
3.04272
20
-5.19339
11
3.04254
21
-5.19291
0
LINE
8
BLACK
6
CONTINUOUS
10
3.04254
20
-5.19291
11
3.04232
21
-5.19245
0
LINE
8
BLACK
6
CONTINUOUS
10
3.04232
20
-5.19245
11
3.0422
21
-5.19201
0
LINE
8
BLACK
6
CONTINUOUS
10
3.0422
20
-5.19201
11
3.04205
21
-5.19159
0
LINE
8
BLACK
6
CONTINUOUS
10
3.04205
20
-5.19159
11
3.01406
21
-5.08664
0
LINE
8
BLACK
6
CONTINUOUS
10
3.01406
20
-5.08664
11
2.98608
21
-5.19159
0
LINE
8
BLACK
6
CONTINUOUS
10
2.98608
20
-5.19159
11
2.98604
21
-5.19172
0
LINE
8
BLACK
6
CONTINUOUS
10
2.98604
20
-5.19172
11
2.98587
21
-5.19214
0
LINE
8
BLACK
6
CONTINUOUS
10
2.98587
20
-5.19214
11
2.98575
21
-5.19258
0
LINE
8
BLACK
6
CONTINUOUS
10
2.98575
20
-5.19258
11
2.98553
21
-5.19304
0
LINE
8
BLACK
6
CONTINUOUS
10
2.98553
20
-5.19304
11
2.98534
21
-5.19351
0
LINE
8
BLACK
6
CONTINUOUS
10
2.98534
20
-5.19351
11
2.9851
21
-5.19389
0
LINE
8
BLACK
6
CONTINUOUS
10
2.9851
20
-5.19389
11
2.98489
21
-5.1943
0
LINE
8
BLACK
6
CONTINUOUS
10
2.98489
20
-5.1943
11
2.98458
21
-5.1947
0
LINE
8
BLACK
6
CONTINUOUS
10
2.98458
20
-5.1947
11
2.98431
21
-5.19513
0
LINE
8
BLACK
6
CONTINUOUS
10
2.98431
20
-5.19513
11
2.98399
21
-5.19546
0
LINE
8
BLACK
6
CONTINUOUS
10
2.98399
20
-5.19546
11
2.98372
21
-5.19581
0
LINE
8
BLACK
6
CONTINUOUS
10
2.98372
20
-5.19581
11
2.98333
21
-5.19615
0
LINE
8
BLACK
6
CONTINUOUS
10
2.98333
20
-5.19615
11
2.98298
21
-5.19652
0
LINE
8
BLACK
6
CONTINUOUS
10
2.98298
20
-5.19652
11
2.98261
21
-5.19678
0
LINE
8
BLACK
6
CONTINUOUS
10
2.98261
20
-5.19678
11
2.98227
21
-5.19707
0
LINE
8
BLACK
6
CONTINUOUS
10
2.98227
20
-5.19707
11
2.98182
21
-5.19733
0
LINE
8
BLACK
6
CONTINUOUS
10
2.98182
20
-5.19733
11
2.98141
21
-5.19762
0
LINE
8
BLACK
6
CONTINUOUS
10
2.98141
20
-5.19762
11
2.98099
21
-5.1978
0
LINE
8
BLACK
6
CONTINUOUS
10
2.98099
20
-5.1978
11
2.9806
21
-5.19803
0
LINE
8
BLACK
6
CONTINUOUS
10
2.9806
20
-5.19803
11
2.98012
21
-5.19819
0
LINE
8
BLACK
6
CONTINUOUS
10
2.98012
20
-5.19819
11
2.97965
21
-5.1984
0
LINE
8
BLACK
6
CONTINUOUS
10
2.97965
20
-5.1984
11
2.97921
21
-5.1985
0
LINE
8
BLACK
6
CONTINUOUS
10
2.97921
20
-5.1985
11
2.97878
21
-5.19864
0
LINE
8
BLACK
6
CONTINUOUS
10
2.97878
20
-5.19864
11
2.97827
21
-5.19871
0
LINE
8
BLACK
6
CONTINUOUS
10
2.97827
20
-5.19871
11
2.97778
21
-5.19882
0
LINE
8
BLACK
6
CONTINUOUS
10
2.97778
20
-5.19882
11
2.97732
21
-5.19883
0
LINE
8
BLACK
6
CONTINUOUS
10
2.97732
20
-5.19883
11
2.97687
21
-5.19889
0
LINE
8
BLACK
6
CONTINUOUS
10
2.97687
20
-5.19889
11
2.97637
21
-5.19886
0
LINE
8
BLACK
6
CONTINUOUS
10
2.97637
20
-5.19886
11
2.97586
21
-5.19887
0
LINE
8
BLACK
6
CONTINUOUS
10
2.97586
20
-5.19887
11
2.97541
21
-5.19879
0
LINE
8
BLACK
6
CONTINUOUS
10
2.97541
20
-5.19879
11
2.97496
21
-5.19876
0
LINE
8
BLACK
6
CONTINUOUS
10
2.97496
20
-5.19876
11
2.97446
21
-5.19863
0
LINE
8
BLACK
6
CONTINUOUS
10
2.97446
20
-5.19863
11
2.97396
21
-5.19854
0
LINE
8
BLACK
6
CONTINUOUS
10
2.97396
20
-5.19854
11
2.97354
21
-5.19838
0
LINE
8
BLACK
6
CONTINUOUS
10
2.97354
20
-5.19838
11
2.9731
21
-5.19826
0
LINE
8
BLACK
6
CONTINUOUS
10
2.9731
20
-5.19826
11
2.97264
21
-5.19804
0
LINE
8
BLACK
6
CONTINUOUS
10
2.97264
20
-5.19804
11
2.97217
21
-5.19786
0
LINE
8
BLACK
6
CONTINUOUS
10
2.97217
20
-5.19786
11
2.97178
21
-5.19762
0
LINE
8
BLACK
6
CONTINUOUS
10
2.97178
20
-5.19762
11
2.97138
21
-5.19742
0
LINE
8
BLACK
6
CONTINUOUS
10
2.97138
20
-5.19742
11
2.97097
21
-5.19711
0
LINE
8
BLACK
6
CONTINUOUS
10
2.97097
20
-5.19711
11
2.97054
21
-5.19684
0
LINE
8
BLACK
6
CONTINUOUS
10
2.97054
20
-5.19684
11
2.97021
21
-5.19652
0
LINE
8
BLACK
6
CONTINUOUS
10
2.97021
20
-5.19652
11
2.96985
21
-5.19625
0
LINE
8
BLACK
6
CONTINUOUS
10
2.96985
20
-5.19625
11
2.96952
21
-5.19587
0
LINE
8
BLACK
6
CONTINUOUS
10
2.96952
20
-5.19587
11
2.96914
21
-5.19552
0
LINE
8
BLACK
6
CONTINUOUS
10
2.96914
20
-5.19552
11
2.96888
21
-5.19515
0
LINE
8
BLACK
6
CONTINUOUS
10
2.96888
20
-5.19515
11
2.96858
21
-5.19481
0
LINE
8
BLACK
6
CONTINUOUS
10
2.96858
20
-5.19481
11
2.96833
21
-5.19437
0
LINE
8
BLACK
6
CONTINUOUS
10
2.96833
20
-5.19437
11
2.96803
21
-5.19395
0
LINE
8
BLACK
6
CONTINUOUS
10
2.96803
20
-5.19395
11
2.96784
21
-5.19354
0
LINE
8
BLACK
6
CONTINUOUS
10
2.96784
20
-5.19354
11
2.96762
21
-5.19315
0
LINE
8
BLACK
6
CONTINUOUS
10
2.96762
20
-5.19315
11
2.96745
21
-5.19267
0
LINE
8
BLACK
6
CONTINUOUS
10
2.96745
20
-5.19267
11
2.96724
21
-5.1922
0
LINE
8
BLACK
6
CONTINUOUS
10
2.96724
20
-5.1922
11
2.96714
21
-5.19176
0
LINE
8
BLACK
6
CONTINUOUS
10
2.96714
20
-5.19176
11
2.96699
21
-5.19133
0
LINE
8
BLACK
6
CONTINUOUS
10
2.96699
20
-5.19133
11
2.92012
21
-4.99448
0
LINE
8
BLACK
6
CONTINUOUS
10
2.92012
20
-4.99448
11
2.92009
21
-4.99435
0
LINE
8
BLACK
6
CONTINUOUS
10
2.92009
20
-4.99435
11
2.91986
21
-4.99244
0
LINE
8
BLACK
6
CONTINUOUS
10
2.91986
20
-4.99244
11
2.92
21
-4.99052
0
LINE
8
BLACK
6
CONTINUOUS
10
2.92
20
-4.99052
11
2.92051
21
-4.98867
0
LINE
8
BLACK
6
CONTINUOUS
10
2.92051
20
-4.98867
11
2.92137
21
-4.98696
0
LINE
8
BLACK
6
CONTINUOUS
10
2.92137
20
-4.98696
11
2.92255
21
-4.98544
0
LINE
8
BLACK
6
CONTINUOUS
10
2.92255
20
-4.98544
11
2.924
21
-4.98418
0
LINE
8
BLACK
6
CONTINUOUS
10
2.924
20
-4.98418
11
2.92566
21
-4.98322
0
LINE
8
BLACK
6
CONTINUOUS
10
2.92566
20
-4.98322
11
2.92748
21
-4.98261
0
LINE
8
BLACK
6
CONTINUOUS
10
2.92748
20
-4.98261
11
2.92939
21
-4.98236
0
LINE
8
BLACK
6
CONTINUOUS
10
2.92939
20
-4.98236
11
2.93131
21
-4.98249
  0
ENDSEC
  0
EOF
