  0
SECTION
  2
HEADER
  9
$ANGBASE
  50
0.0
  9
$ANGDIR
  70
1
  9
$MEASUREMENT
  70
0
  0
ENDSEC
  0
SECTION
  2
TABLES
  0
TABLE
  2
LTYPE
  70
4
  0
LTYPE
  5
40F
  2
CONTINUOUS
  70
0
  3
Solid line
  72
65
  73
0
  40
0.0
  0
LTYPE
  5
410
  2
DASHDOT
 70
0
  3
Dash Dot ____ _ ____ _
 72
65
 73
4
 40
2.0
 49
1.25
 49
-0.25
 49
0.25
 49
-0.25
  0
LTYPE
  5
411
  2
DASHED
 70
0
  3
Dashed __ __ __ __ __
 72
65
 73
2
 40
0.75
 49
0.5
 49
-0.25
  0
LTYPE
  5
43B
  2
DOTTED
 70
0
  3
Dotted .  .  .  .
 72
65
 73
2
 40
0.2
 49
0.0
 49
-0.2
  0
ENDTAB
  0
TABLE
  2
STYLE
  70
4
  0
STYLE
  2
KICAD
  70
0
  40
0
  41
1
  42
1
  50
0
  71
0
  3
isocp.shx
  0
STYLE
  2
KICADB
  70
0
  40
0
  41
1
  42
1
  50
0
  71
0
  3
isocp.shx
  0
STYLE
  2
KICADI
  70
0
  40
0
  41
1
  42
1
  50
15
  71
0
  3
isocp.shx
  0
STYLE
  2
KICADBI
  70
0
  40
0
  41
1
  42
1
  50
15
  71
0
  3
isocp.shx
  0
ENDTAB
  0
TABLE
  2
LAYER
  70
1
  0
LAYER
  2
BLACK
  70
0
  62
7
  6
CONTINUOUS
  0
ENDTAB
  0
ENDSEC
  0
SECTION
  2
ENTITIES
0
LINE
8
BLACK
6
CONTINUOUS
10
8.46439
20
-6.38256
11
8.46623
21
-6.38313
0
LINE
8
BLACK
6
CONTINUOUS
10
8.46623
20
-6.38313
11
8.46791
21
-6.38404
0
LINE
8
BLACK
6
CONTINUOUS
10
8.46791
20
-6.38404
11
8.46939
21
-6.38527
0
LINE
8
BLACK
6
CONTINUOUS
10
8.46939
20
-6.38527
11
8.47061
21
-6.38675
0
LINE
8
BLACK
6
CONTINUOUS
10
8.47061
20
-6.38675
11
8.47151
21
-6.38845
0
LINE
8
BLACK
6
CONTINUOUS
10
8.47151
20
-6.38845
11
8.47207
21
-6.39029
0
LINE
8
BLACK
6
CONTINUOUS
10
8.47207
20
-6.39029
11
8.47225
21
-6.3922
0
LINE
8
BLACK
6
CONTINUOUS
10
8.47225
20
-6.3922
11
8.47225
21
-6.55156
0
LINE
8
BLACK
6
CONTINUOUS
10
8.47225
20
-6.55156
11
8.47225
21
-6.55169
0
LINE
8
BLACK
6
CONTINUOUS
10
8.47225
20
-6.55169
11
8.47222
21
-6.55198
0
LINE
8
BLACK
6
CONTINUOUS
10
8.47222
20
-6.55198
11
8.47223
21
-6.55227
0
LINE
8
BLACK
6
CONTINUOUS
10
8.47223
20
-6.55227
11
8.47211
21
-6.55293
0
LINE
8
BLACK
6
CONTINUOUS
10
8.47211
20
-6.55293
11
8.47204
21
-6.5536
0
LINE
8
BLACK
6
CONTINUOUS
10
8.47204
20
-6.5536
11
8.47195
21
-6.55388
0
LINE
8
BLACK
6
CONTINUOUS
10
8.47195
20
-6.55388
11
8.4719
21
-6.55416
0
LINE
8
BLACK
6
CONTINUOUS
10
8.4719
20
-6.55416
11
8.47166
21
-6.55479
0
LINE
8
BLACK
6
CONTINUOUS
10
8.47166
20
-6.55479
11
8.47146
21
-6.55543
0
LINE
8
BLACK
6
CONTINUOUS
10
8.47146
20
-6.55543
11
8.47132
21
-6.55569
0
LINE
8
BLACK
6
CONTINUOUS
10
8.47132
20
-6.55569
11
8.47121
21
-6.55596
0
LINE
8
BLACK
6
CONTINUOUS
10
8.47121
20
-6.55596
11
8.46184
21
-6.57471
0
LINE
8
BLACK
6
CONTINUOUS
10
8.46184
20
-6.57471
11
8.46178
21
-6.57483
0
LINE
8
BLACK
6
CONTINUOUS
10
8.46178
20
-6.57483
11
8.46148
21
-6.57529
0
LINE
8
BLACK
6
CONTINUOUS
10
8.46148
20
-6.57529
11
8.46122
21
-6.57578
0
LINE
8
BLACK
6
CONTINUOUS
10
8.46122
20
-6.57578
11
8.46096
21
-6.5761
0
LINE
8
BLACK
6
CONTINUOUS
10
8.46096
20
-6.5761
11
8.46073
21
-6.57644
0
LINE
8
BLACK
6
CONTINUOUS
10
8.46073
20
-6.57644
11
8.46035
21
-6.57684
0
LINE
8
BLACK
6
CONTINUOUS
10
8.46035
20
-6.57684
11
8.46
21
-6.57726
0
LINE
8
BLACK
6
CONTINUOUS
10
8.46
20
-6.57726
11
8.45062
21
-6.58664
0
LINE
8
BLACK
6
CONTINUOUS
10
8.45062
20
-6.58664
11
8.45053
21
-6.58673
0
LINE
8
BLACK
6
CONTINUOUS
10
8.45053
20
-6.58673
11
8.45009
21
-6.58708
0
LINE
8
BLACK
6
CONTINUOUS
10
8.45009
20
-6.58708
11
8.44969
21
-6.58746
0
LINE
8
BLACK
6
CONTINUOUS
10
8.44969
20
-6.58746
11
8.44934
21
-6.58768
0
LINE
8
BLACK
6
CONTINUOUS
10
8.44934
20
-6.58768
11
8.44902
21
-6.58793
0
LINE
8
BLACK
6
CONTINUOUS
10
8.44902
20
-6.58793
11
8.44853
21
-6.58819
0
LINE
8
BLACK
6
CONTINUOUS
10
8.44853
20
-6.58819
11
8.44806
21
-6.58848
0
LINE
8
BLACK
6
CONTINUOUS
10
8.44806
20
-6.58848
11
8.42932
21
-6.59785
0
LINE
8
BLACK
6
CONTINUOUS
10
8.42932
20
-6.59785
11
8.42919
21
-6.59792
0
LINE
8
BLACK
6
CONTINUOUS
10
8.42919
20
-6.59792
11
8.42892
21
-6.59802
0
LINE
8
BLACK
6
CONTINUOUS
10
8.42892
20
-6.59802
11
8.42867
21
-6.59815
0
LINE
8
BLACK
6
CONTINUOUS
10
8.42867
20
-6.59815
11
8.42802
21
-6.59835
0
LINE
8
BLACK
6
CONTINUOUS
10
8.42802
20
-6.59835
11
8.42739
21
-6.59858
0
LINE
8
BLACK
6
CONTINUOUS
10
8.42739
20
-6.59858
11
8.4271
21
-6.59862
0
LINE
8
BLACK
6
CONTINUOUS
10
8.4271
20
-6.59862
11
8.42683
21
-6.59871
0
LINE
8
BLACK
6
CONTINUOUS
10
8.42683
20
-6.59871
11
8.42616
21
-6.59877
0
LINE
8
BLACK
6
CONTINUOUS
10
8.42616
20
-6.59877
11
8.42549
21
-6.59888
0
LINE
8
BLACK
6
CONTINUOUS
10
8.42549
20
-6.59888
11
8.4252
21
-6.59887
0
LINE
8
BLACK
6
CONTINUOUS
10
8.4252
20
-6.59887
11
8.42492
21
-6.59889
0
LINE
8
BLACK
6
CONTINUOUS
10
8.42492
20
-6.59889
11
8.38742
21
-6.59889
0
LINE
8
BLACK
6
CONTINUOUS
10
8.38742
20
-6.59889
11
8.38728
21
-6.59889
0
LINE
8
BLACK
6
CONTINUOUS
10
8.38728
20
-6.59889
11
8.38699
21
-6.59886
0
LINE
8
BLACK
6
CONTINUOUS
10
8.38699
20
-6.59886
11
8.38671
21
-6.59887
0
LINE
8
BLACK
6
CONTINUOUS
10
8.38671
20
-6.59887
11
8.38604
21
-6.59875
0
LINE
8
BLACK
6
CONTINUOUS
10
8.38604
20
-6.59875
11
8.38537
21
-6.59868
0
LINE
8
BLACK
6
CONTINUOUS
10
8.38537
20
-6.59868
11
8.3851
21
-6.59859
0
LINE
8
BLACK
6
CONTINUOUS
10
8.3851
20
-6.59859
11
8.38481
21
-6.59854
0
LINE
8
BLACK
6
CONTINUOUS
10
8.38481
20
-6.59854
11
8.38418
21
-6.5983
0
LINE
8
BLACK
6
CONTINUOUS
10
8.38418
20
-6.5983
11
8.38354
21
-6.5981
0
LINE
8
BLACK
6
CONTINUOUS
10
8.38354
20
-6.5981
11
8.38329
21
-6.59796
0
LINE
8
BLACK
6
CONTINUOUS
10
8.38329
20
-6.59796
11
8.38302
21
-6.59785
0
LINE
8
BLACK
6
CONTINUOUS
10
8.38302
20
-6.59785
11
8.36427
21
-6.58848
0
LINE
8
BLACK
6
CONTINUOUS
10
8.36427
20
-6.58848
11
8.36415
21
-6.58842
0
LINE
8
BLACK
6
CONTINUOUS
10
8.36415
20
-6.58842
11
8.36368
21
-6.58812
0
LINE
8
BLACK
6
CONTINUOUS
10
8.36368
20
-6.58812
11
8.3632
21
-6.58786
0
LINE
8
BLACK
6
CONTINUOUS
10
8.3632
20
-6.58786
11
8.36288
21
-6.5876
0
LINE
8
BLACK
6
CONTINUOUS
10
8.36288
20
-6.5876
11
8.36254
21
-6.58737
0
LINE
8
BLACK
6
CONTINUOUS
10
8.36254
20
-6.58737
11
8.36214
21
-6.58699
0
LINE
8
BLACK
6
CONTINUOUS
10
8.36214
20
-6.58699
11
8.36171
21
-6.58664
0
LINE
8
BLACK
6
CONTINUOUS
10
8.36171
20
-6.58664
11
8.35234
21
-6.57726
0
LINE
8
BLACK
6
CONTINUOUS
10
8.35234
20
-6.57726
11
8.35224
21
-6.57717
0
LINE
8
BLACK
6
CONTINUOUS
10
8.35224
20
-6.57717
11
8.3519
21
-6.57673
0
LINE
8
BLACK
6
CONTINUOUS
10
8.3519
20
-6.57673
11
8.35152
21
-6.57633
0
LINE
8
BLACK
6
CONTINUOUS
10
8.35152
20
-6.57633
11
8.3513
21
-6.57598
0
LINE
8
BLACK
6
CONTINUOUS
10
8.3513
20
-6.57598
11
8.35104
21
-6.57566
0
LINE
8
BLACK
6
CONTINUOUS
10
8.35104
20
-6.57566
11
8.35079
21
-6.57517
0
LINE
8
BLACK
6
CONTINUOUS
10
8.35079
20
-6.57517
11
8.3505
21
-6.57471
0
LINE
8
BLACK
6
CONTINUOUS
10
8.3505
20
-6.57471
11
8.34112
21
-6.55596
0
LINE
8
BLACK
6
CONTINUOUS
10
8.34112
20
-6.55596
11
8.34106
21
-6.55583
0
LINE
8
BLACK
6
CONTINUOUS
10
8.34106
20
-6.55583
11
8.34096
21
-6.55556
0
LINE
8
BLACK
6
CONTINUOUS
10
8.34096
20
-6.55556
11
8.34083
21
-6.55531
0
LINE
8
BLACK
6
CONTINUOUS
10
8.34083
20
-6.55531
11
8.34063
21
-6.55466
0
LINE
8
BLACK
6
CONTINUOUS
10
8.34063
20
-6.55466
11
8.3404
21
-6.55403
0
LINE
8
BLACK
6
CONTINUOUS
10
8.3404
20
-6.55403
11
8.34035
21
-6.55375
0
LINE
8
BLACK
6
CONTINUOUS
10
8.34035
20
-6.55375
11
8.34027
21
-6.55347
0
LINE
8
BLACK
6
CONTINUOUS
10
8.34027
20
-6.55347
11
8.3402
21
-6.5528
0
LINE
8
BLACK
6
CONTINUOUS
10
8.3402
20
-6.5528
11
8.3401
21
-6.55213
0
LINE
8
BLACK
6
CONTINUOUS
10
8.3401
20
-6.55213
11
8.34011
21
-6.55184
0
LINE
8
BLACK
6
CONTINUOUS
10
8.34011
20
-6.55184
11
8.34008
21
-6.55156
0
LINE
8
BLACK
6
CONTINUOUS
10
8.34008
20
-6.55156
11
8.34008
21
-6.3922
0
LINE
8
BLACK
6
CONTINUOUS
10
8.34008
20
-6.3922
11
8.34008
21
-6.39206
0
LINE
8
BLACK
6
CONTINUOUS
10
8.34008
20
-6.39206
11
8.3403
21
-6.39015
0
LINE
8
BLACK
6
CONTINUOUS
10
8.3403
20
-6.39015
11
8.34088
21
-6.38832
0
LINE
8
BLACK
6
CONTINUOUS
10
8.34088
20
-6.38832
11
8.3418
21
-6.38664
0
LINE
8
BLACK
6
CONTINUOUS
10
8.3418
20
-6.38664
11
8.34304
21
-6.38517
0
LINE
8
BLACK
6
CONTINUOUS
10
8.34304
20
-6.38517
11
8.34454
21
-6.38397
0
LINE
8
BLACK
6
CONTINUOUS
10
8.34454
20
-6.38397
11
8.34624
21
-6.38308
0
LINE
8
BLACK
6
CONTINUOUS
10
8.34624
20
-6.38308
11
8.34808
21
-6.38253
0
LINE
8
BLACK
6
CONTINUOUS
10
8.34808
20
-6.38253
11
8.34999
21
-6.38236
0
LINE
8
BLACK
6
CONTINUOUS
10
8.34999
20
-6.38236
11
8.3519
21
-6.38256
0
LINE
8
BLACK
6
CONTINUOUS
10
8.3519
20
-6.38256
11
8.35374
21
-6.38313
0
LINE
8
BLACK
6
CONTINUOUS
10
8.35374
20
-6.38313
11
8.35543
21
-6.38404
0
LINE
8
BLACK
6
CONTINUOUS
10
8.35543
20
-6.38404
11
8.35691
21
-6.38527
0
LINE
8
BLACK
6
CONTINUOUS
10
8.35691
20
-6.38527
11
8.35812
21
-6.38675
0
LINE
8
BLACK
6
CONTINUOUS
10
8.35812
20
-6.38675
11
8.35902
21
-6.38845
0
LINE
8
BLACK
6
CONTINUOUS
10
8.35902
20
-6.38845
11
8.35958
21
-6.39029
0
LINE
8
BLACK
6
CONTINUOUS
10
8.35958
20
-6.39029
11
8.35977
21
-6.3922
0
LINE
8
BLACK
6
CONTINUOUS
10
8.35977
20
-6.3922
11
8.35977
21
-6.54923
0
LINE
8
BLACK
6
CONTINUOUS
10
8.35977
20
-6.54923
11
8.36739
21
-6.56447
0
LINE
8
BLACK
6
CONTINUOUS
10
8.36739
20
-6.56447
11
8.3745
21
-6.57159
0
LINE
8
BLACK
6
CONTINUOUS
10
8.3745
20
-6.57159
11
8.38974
21
-6.57921
0
LINE
8
BLACK
6
CONTINUOUS
10
8.38974
20
-6.57921
11
8.42259
21
-6.57921
0
LINE
8
BLACK
6
CONTINUOUS
10
8.42259
20
-6.57921
11
8.43783
21
-6.57159
0
LINE
8
BLACK
6
CONTINUOUS
10
8.43783
20
-6.57159
11
8.44495
21
-6.56447
0
LINE
8
BLACK
6
CONTINUOUS
10
8.44495
20
-6.56447
11
8.45257
21
-6.54923
0
LINE
8
BLACK
6
CONTINUOUS
10
8.45257
20
-6.54923
11
8.45257
21
-6.3922
0
LINE
8
BLACK
6
CONTINUOUS
10
8.45257
20
-6.3922
11
8.45257
21
-6.39206
0
LINE
8
BLACK
6
CONTINUOUS
10
8.45257
20
-6.39206
11
8.45278
21
-6.39015
0
LINE
8
BLACK
6
CONTINUOUS
10
8.45278
20
-6.39015
11
8.45336
21
-6.38832
0
LINE
8
BLACK
6
CONTINUOUS
10
8.45336
20
-6.38832
11
8.45429
21
-6.38664
0
LINE
8
BLACK
6
CONTINUOUS
10
8.45429
20
-6.38664
11
8.45552
21
-6.38517
0
LINE
8
BLACK
6
CONTINUOUS
10
8.45552
20
-6.38517
11
8.45702
21
-6.38397
0
LINE
8
BLACK
6
CONTINUOUS
10
8.45702
20
-6.38397
11
8.45872
21
-6.38308
0
LINE
8
BLACK
6
CONTINUOUS
10
8.45872
20
-6.38308
11
8.46057
21
-6.38253
0
LINE
8
BLACK
6
CONTINUOUS
10
8.46057
20
-6.38253
11
8.46248
21
-6.38236
0
LINE
8
BLACK
6
CONTINUOUS
10
8.46248
20
-6.38236
11
8.46439
21
-6.38256
0
LINE
8
BLACK
6
CONTINUOUS
10
9.43296
20
-6.38236
11
9.43351
21
-6.38242
0
LINE
8
BLACK
6
CONTINUOUS
10
9.43351
20
-6.38242
11
9.43407
21
-6.38244
0
LINE
8
BLACK
6
CONTINUOUS
10
9.43407
20
-6.38244
11
9.43447
21
-6.38253
0
LINE
8
BLACK
6
CONTINUOUS
10
9.43447
20
-6.38253
11
9.43487
21
-6.38257
0
LINE
8
BLACK
6
CONTINUOUS
10
9.43487
20
-6.38257
11
9.4354
21
-6.38274
0
LINE
8
BLACK
6
CONTINUOUS
10
9.4354
20
-6.38274
11
9.43594
21
-6.38286
0
LINE
8
BLACK
6
CONTINUOUS
10
9.43594
20
-6.38286
11
9.46406
21
-6.39224
0
LINE
8
BLACK
6
CONTINUOUS
10
9.46406
20
-6.39224
11
9.46419
21
-6.39228
0
LINE
8
BLACK
6
CONTINUOUS
10
9.46419
20
-6.39228
11
9.46445
21
-6.3924
0
LINE
8
BLACK
6
CONTINUOUS
10
9.46445
20
-6.3924
11
9.46473
21
-6.39249
0
LINE
8
BLACK
6
CONTINUOUS
10
9.46473
20
-6.39249
11
9.46532
21
-6.39281
0
LINE
8
BLACK
6
CONTINUOUS
10
9.46532
20
-6.39281
11
9.46593
21
-6.39309
0
LINE
8
BLACK
6
CONTINUOUS
10
9.46593
20
-6.39309
11
9.46617
21
-6.39326
0
LINE
8
BLACK
6
CONTINUOUS
10
9.46617
20
-6.39326
11
9.46642
21
-6.3934
0
LINE
8
BLACK
6
CONTINUOUS
10
9.46642
20
-6.3934
11
9.46694
21
-6.39382
0
LINE
8
BLACK
6
CONTINUOUS
10
9.46694
20
-6.39382
11
9.46749
21
-6.39422
0
LINE
8
BLACK
6
CONTINUOUS
10
9.46749
20
-6.39422
11
9.46768
21
-6.39443
0
LINE
8
BLACK
6
CONTINUOUS
10
9.46768
20
-6.39443
11
9.46791
21
-6.39462
0
LINE
8
BLACK
6
CONTINUOUS
10
9.46791
20
-6.39462
11
9.48666
21
-6.41336
0
LINE
8
BLACK
6
CONTINUOUS
10
9.48666
20
-6.41336
11
9.48675
21
-6.41346
0
LINE
8
BLACK
6
CONTINUOUS
10
9.48675
20
-6.41346
11
9.4871
21
-6.41389
0
LINE
8
BLACK
6
CONTINUOUS
10
9.4871
20
-6.41389
11
9.48748
21
-6.41429
0
LINE
8
BLACK
6
CONTINUOUS
10
9.48748
20
-6.41429
11
9.4877
21
-6.41464
0
LINE
8
BLACK
6
CONTINUOUS
10
9.4877
20
-6.41464
11
9.48795
21
-6.41496
0
LINE
8
BLACK
6
CONTINUOUS
10
9.48795
20
-6.41496
11
9.48821
21
-6.41545
0
LINE
8
BLACK
6
CONTINUOUS
10
9.48821
20
-6.41545
11
9.4885
21
-6.41592
0
LINE
8
BLACK
6
CONTINUOUS
10
9.4885
20
-6.41592
11
9.49787
21
-6.43467
0
LINE
8
BLACK
6
CONTINUOUS
10
9.49787
20
-6.43467
11
9.49793
21
-6.43479
0
LINE
8
BLACK
6
CONTINUOUS
10
9.49793
20
-6.43479
11
9.49795
21
-6.43483
0
LINE
8
BLACK
6
CONTINUOUS
10
9.49795
20
-6.43483
11
9.49797
21
-6.43487
0
LINE
8
BLACK
6
CONTINUOUS
10
9.49797
20
-6.43487
11
9.49828
21
-6.43573
0
LINE
8
BLACK
6
CONTINUOUS
10
9.49828
20
-6.43573
11
9.4986
21
-6.43659
0
LINE
8
BLACK
6
CONTINUOUS
10
9.4986
20
-6.43659
11
9.4986
21
-6.43664
0
LINE
8
BLACK
6
CONTINUOUS
10
9.4986
20
-6.43664
11
9.49862
21
-6.43668
0
LINE
8
BLACK
6
CONTINUOUS
10
9.49862
20
-6.43668
11
9.50799
21
-6.47418
0
LINE
8
BLACK
6
CONTINUOUS
10
9.50799
20
-6.47418
11
9.50802
21
-6.47431
0
LINE
8
BLACK
6
CONTINUOUS
10
9.50802
20
-6.47431
11
9.50805
21
-6.47449
0
LINE
8
BLACK
6
CONTINUOUS
10
9.50805
20
-6.47449
11
9.5081
21
-6.47465
0
LINE
8
BLACK
6
CONTINUOUS
10
9.5081
20
-6.47465
11
9.50818
21
-6.47544
0
LINE
8
BLACK
6
CONTINUOUS
10
9.50818
20
-6.47544
11
9.50828
21
-6.47622
0
LINE
8
BLACK
6
CONTINUOUS
10
9.50828
20
-6.47622
11
9.50827
21
-6.47639
0
LINE
8
BLACK
6
CONTINUOUS
10
9.50827
20
-6.47639
11
9.50829
21
-6.47657
0
LINE
8
BLACK
6
CONTINUOUS
10
9.50829
20
-6.47657
11
9.50829
21
-6.50469
0
LINE
8
BLACK
6
CONTINUOUS
10
9.50829
20
-6.50469
11
9.50829
21
-6.50482
0
LINE
8
BLACK
6
CONTINUOUS
10
9.50829
20
-6.50482
11
9.50827
21
-6.505
0
LINE
8
BLACK
6
CONTINUOUS
10
9.50827
20
-6.505
11
9.50827
21
-6.50517
0
LINE
8
BLACK
6
CONTINUOUS
10
9.50827
20
-6.50517
11
9.50816
21
-6.50595
0
LINE
8
BLACK
6
CONTINUOUS
10
9.50816
20
-6.50595
11
9.50807
21
-6.50673
0
LINE
8
BLACK
6
CONTINUOUS
10
9.50807
20
-6.50673
11
9.50802
21
-6.5069
0
LINE
8
BLACK
6
CONTINUOUS
10
9.50802
20
-6.5069
11
9.50799
21
-6.50707
0
LINE
8
BLACK
6
CONTINUOUS
10
9.50799
20
-6.50707
11
9.49862
21
-6.54457
0
LINE
8
BLACK
6
CONTINUOUS
10
9.49862
20
-6.54457
11
9.49858
21
-6.5447
0
LINE
8
BLACK
6
CONTINUOUS
10
9.49858
20
-6.5447
11
9.49857
21
-6.54475
0
LINE
8
BLACK
6
CONTINUOUS
10
9.49857
20
-6.54475
11
9.49856
21
-6.54479
0
LINE
8
BLACK
6
CONTINUOUS
10
9.49856
20
-6.54479
11
9.49823
21
-6.54565
0
LINE
8
BLACK
6
CONTINUOUS
10
9.49823
20
-6.54565
11
9.49791
21
-6.5465
0
LINE
8
BLACK
6
CONTINUOUS
10
9.49791
20
-6.5465
11
9.49789
21
-6.54654
0
LINE
8
BLACK
6
CONTINUOUS
10
9.49789
20
-6.54654
11
9.49787
21
-6.54658
0
LINE
8
BLACK
6
CONTINUOUS
10
9.49787
20
-6.54658
11
9.4885
21
-6.56533
0
LINE
8
BLACK
6
CONTINUOUS
10
9.4885
20
-6.56533
11
9.48844
21
-6.56545
0
LINE
8
BLACK
6
CONTINUOUS
10
9.48844
20
-6.56545
11
9.48814
21
-6.56592
0
LINE
8
BLACK
6
CONTINUOUS
10
9.48814
20
-6.56592
11
9.48788
21
-6.56641
0
LINE
8
BLACK
6
CONTINUOUS
10
9.48788
20
-6.56641
11
9.48762
21
-6.56672
0
LINE
8
BLACK
6
CONTINUOUS
10
9.48762
20
-6.56672
11
9.48739
21
-6.56707
0
LINE
8
BLACK
6
CONTINUOUS
10
9.48739
20
-6.56707
11
9.48701
21
-6.56746
0
LINE
8
BLACK
6
CONTINUOUS
10
9.48701
20
-6.56746
11
9.48666
21
-6.56789
0
LINE
8
BLACK
6
CONTINUOUS
10
9.48666
20
-6.56789
11
9.46791
21
-6.58664
0
LINE
8
BLACK
6
CONTINUOUS
10
9.46791
20
-6.58664
11
9.46781
21
-6.58673
0
LINE
8
BLACK
6
CONTINUOUS
10
9.46781
20
-6.58673
11
9.46758
21
-6.58691
0
LINE
8
BLACK
6
CONTINUOUS
10
9.46758
20
-6.58691
11
9.46738
21
-6.58712
0
LINE
8
BLACK
6
CONTINUOUS
10
9.46738
20
-6.58712
11
9.46683
21
-6.58751
0
LINE
8
BLACK
6
CONTINUOUS
10
9.46683
20
-6.58751
11
9.46631
21
-6.58793
0
LINE
8
BLACK
6
CONTINUOUS
10
9.46631
20
-6.58793
11
9.46605
21
-6.58807
0
LINE
8
BLACK
6
CONTINUOUS
10
9.46605
20
-6.58807
11
9.46582
21
-6.58823
0
LINE
8
BLACK
6
CONTINUOUS
10
9.46582
20
-6.58823
11
9.4652
21
-6.58851
0
LINE
8
BLACK
6
CONTINUOUS
10
9.4652
20
-6.58851
11
9.4646
21
-6.58882
0
LINE
8
BLACK
6
CONTINUOUS
10
9.4646
20
-6.58882
11
9.46433
21
-6.5889
0
LINE
8
BLACK
6
CONTINUOUS
10
9.46433
20
-6.5889
11
9.46406
21
-6.58901
0
LINE
8
BLACK
6
CONTINUOUS
10
9.46406
20
-6.58901
11
9.43594
21
-6.59839
0
LINE
8
BLACK
6
CONTINUOUS
10
9.43594
20
-6.59839
11
9.43581
21
-6.59843
0
LINE
8
BLACK
6
CONTINUOUS
10
9.43581
20
-6.59843
11
9.43527
21
-6.59855
0
LINE
8
BLACK
6
CONTINUOUS
10
9.43527
20
-6.59855
11
9.43474
21
-6.59871
0
LINE
8
BLACK
6
CONTINUOUS
10
9.43474
20
-6.59871
11
9.43433
21
-6.59875
0
LINE
8
BLACK
6
CONTINUOUS
10
9.43433
20
-6.59875
11
9.43393
21
-6.59883
0
LINE
8
BLACK
6
CONTINUOUS
10
9.43393
20
-6.59883
11
9.43338
21
-6.59884
0
LINE
8
BLACK
6
CONTINUOUS
10
9.43338
20
-6.59884
11
9.43283
21
-6.59889
0
LINE
8
BLACK
6
CONTINUOUS
10
9.43283
20
-6.59889
11
9.38596
21
-6.59889
0
LINE
8
BLACK
6
CONTINUOUS
10
9.38596
20
-6.59889
11
9.38589
21
-6.59889
0
LINE
8
BLACK
6
CONTINUOUS
10
9.38589
20
-6.59889
11
9.38589
21
-6.59889
0
LINE
8
BLACK
6
CONTINUOUS
10
9.38589
20
-6.59889
11
9.38589
21
-6.59889
0
LINE
8
BLACK
6
CONTINUOUS
10
9.38589
20
-6.59889
11
9.38582
21
-6.59889
0
LINE
8
BLACK
6
CONTINUOUS
10
9.38582
20
-6.59889
11
9.3849
21
-6.59879
0
LINE
8
BLACK
6
CONTINUOUS
10
9.3849
20
-6.59879
11
9.38398
21
-6.59869
0
LINE
8
BLACK
6
CONTINUOUS
10
9.38398
20
-6.59869
11
9.38395
21
-6.59868
0
LINE
8
BLACK
6
CONTINUOUS
10
9.38395
20
-6.59868
11
9.38391
21
-6.59868
0
LINE
8
BLACK
6
CONTINUOUS
10
9.38391
20
-6.59868
11
9.38303
21
-6.5984
0
LINE
8
BLACK
6
CONTINUOUS
10
9.38303
20
-6.5984
11
9.38214
21
-6.59812
0
LINE
8
BLACK
6
CONTINUOUS
10
9.38214
20
-6.59812
11
9.38211
21
-6.59811
0
LINE
8
BLACK
6
CONTINUOUS
10
9.38211
20
-6.59811
11
9.38208
21
-6.5981
0
LINE
8
BLACK
6
CONTINUOUS
10
9.38208
20
-6.5981
11
9.38127
21
-6.59765
0
LINE
8
BLACK
6
CONTINUOUS
10
9.38127
20
-6.59765
11
9.38045
21
-6.59721
0
LINE
8
BLACK
6
CONTINUOUS
10
9.38045
20
-6.59721
11
9.38043
21
-6.59719
0
LINE
8
BLACK
6
CONTINUOUS
10
9.38043
20
-6.59719
11
9.3804
21
-6.59717
0
LINE
8
BLACK
6
CONTINUOUS
10
9.3804
20
-6.59717
11
9.37969
21
-6.59658
0
LINE
8
BLACK
6
CONTINUOUS
10
9.37969
20
-6.59658
11
9.37897
21
-6.59599
0
LINE
8
BLACK
6
CONTINUOUS
10
9.37897
20
-6.59599
11
9.37895
21
-6.59596
0
LINE
8
BLACK
6
CONTINUOUS
10
9.37895
20
-6.59596
11
9.37893
21
-6.59594
0
LINE
8
BLACK
6
CONTINUOUS
10
9.37893
20
-6.59594
11
9.37835
21
-6.59522
0
LINE
8
BLACK
6
CONTINUOUS
10
9.37835
20
-6.59522
11
9.37776
21
-6.5945
0
LINE
8
BLACK
6
CONTINUOUS
10
9.37776
20
-6.5945
11
9.37774
21
-6.59447
0
LINE
8
BLACK
6
CONTINUOUS
10
9.37774
20
-6.59447
11
9.37772
21
-6.59444
0
LINE
8
BLACK
6
CONTINUOUS
10
9.37772
20
-6.59444
11
9.37729
21
-6.59362
0
LINE
8
BLACK
6
CONTINUOUS
10
9.37729
20
-6.59362
11
9.37686
21
-6.5928
0
LINE
8
BLACK
6
CONTINUOUS
10
9.37686
20
-6.5928
11
9.37685
21
-6.59277
0
LINE
8
BLACK
6
CONTINUOUS
10
9.37685
20
-6.59277
11
9.37683
21
-6.59274
0
LINE
8
BLACK
6
CONTINUOUS
10
9.37683
20
-6.59274
11
9.37657
21
-6.59185
0
LINE
8
BLACK
6
CONTINUOUS
10
9.37657
20
-6.59185
11
9.3763
21
-6.59096
0
LINE
8
BLACK
6
CONTINUOUS
10
9.3763
20
-6.59096
11
9.3763
21
-6.59093
0
LINE
8
BLACK
6
CONTINUOUS
10
9.3763
20
-6.59093
11
9.37629
21
-6.5909
0
LINE
8
BLACK
6
CONTINUOUS
10
9.37629
20
-6.5909
11
9.37621
21
-6.58997
0
LINE
8
BLACK
6
CONTINUOUS
10
9.37621
20
-6.58997
11
9.37612
21
-6.58905
0
LINE
8
BLACK
6
CONTINUOUS
10
9.37612
20
-6.58905
11
9.37612
21
-6.3922
0
LINE
8
BLACK
6
CONTINUOUS
10
9.37612
20
-6.3922
11
9.37612
21
-6.39213
0
LINE
8
BLACK
6
CONTINUOUS
10
9.37612
20
-6.39213
11
9.37612
21
-6.39213
0
LINE
8
BLACK
6
CONTINUOUS
10
9.37612
20
-6.39213
11
9.37612
21
-6.39213
0
LINE
8
BLACK
6
CONTINUOUS
10
9.37612
20
-6.39213
11
9.37612
21
-6.39206
0
LINE
8
BLACK
6
CONTINUOUS
10
9.37612
20
-6.39206
11
9.37622
21
-6.39114
0
LINE
8
BLACK
6
CONTINUOUS
10
9.37622
20
-6.39114
11
9.37632
21
-6.39022
0
LINE
8
BLACK
6
CONTINUOUS
10
9.37632
20
-6.39022
11
9.37633
21
-6.39019
0
LINE
8
BLACK
6
CONTINUOUS
10
9.37633
20
-6.39019
11
9.37633
21
-6.39015
0
LINE
8
BLACK
6
CONTINUOUS
10
9.37633
20
-6.39015
11
9.37661
21
-6.38927
0
LINE
8
BLACK
6
CONTINUOUS
10
9.37661
20
-6.38927
11
9.37688
21
-6.38839
0
LINE
8
BLACK
6
CONTINUOUS
10
9.37688
20
-6.38839
11
9.3769
21
-6.38836
0
LINE
8
BLACK
6
CONTINUOUS
10
9.3769
20
-6.38836
11
9.37691
21
-6.38832
0
LINE
8
BLACK
6
CONTINUOUS
10
9.37691
20
-6.38832
11
9.37736
21
-6.38751
0
LINE
8
BLACK
6
CONTINUOUS
10
9.37736
20
-6.38751
11
9.3778
21
-6.3867
0
LINE
8
BLACK
6
CONTINUOUS
10
9.3778
20
-6.3867
11
9.37782
21
-6.38667
0
LINE
8
BLACK
6
CONTINUOUS
10
9.37782
20
-6.38667
11
9.37784
21
-6.38664
0
LINE
8
BLACK
6
CONTINUOUS
10
9.37784
20
-6.38664
11
9.37843
21
-6.38593
0
LINE
8
BLACK
6
CONTINUOUS
10
9.37843
20
-6.38593
11
9.37902
21
-6.38522
0
LINE
8
BLACK
6
CONTINUOUS
10
9.37902
20
-6.38522
11
9.37905
21
-6.3852
0
LINE
8
BLACK
6
CONTINUOUS
10
9.37905
20
-6.3852
11
9.37907
21
-6.38517
0
LINE
8
BLACK
6
CONTINUOUS
10
9.37907
20
-6.38517
11
9.37979
21
-6.38459
0
LINE
8
BLACK
6
CONTINUOUS
10
9.37979
20
-6.38459
11
9.38051
21
-6.384
0
LINE
8
BLACK
6
CONTINUOUS
10
9.38051
20
-6.384
11
9.38054
21
-6.38399
0
LINE
8
BLACK
6
CONTINUOUS
10
9.38054
20
-6.38399
11
9.38057
21
-6.38397
0
LINE
8
BLACK
6
CONTINUOUS
10
9.38057
20
-6.38397
11
9.38139
21
-6.38354
0
LINE
8
BLACK
6
CONTINUOUS
10
9.38139
20
-6.38354
11
9.38221
21
-6.3831
0
LINE
8
BLACK
6
CONTINUOUS
10
9.38221
20
-6.3831
11
9.38224
21
-6.38309
0
LINE
8
BLACK
6
CONTINUOUS
10
9.38224
20
-6.38309
11
9.38227
21
-6.38308
0
LINE
8
BLACK
6
CONTINUOUS
10
9.38227
20
-6.38308
11
9.38316
21
-6.38281
0
LINE
8
BLACK
6
CONTINUOUS
10
9.38316
20
-6.38281
11
9.38405
21
-6.38255
0
LINE
8
BLACK
6
CONTINUOUS
10
9.38405
20
-6.38255
11
9.38408
21
-6.38254
0
LINE
8
BLACK
6
CONTINUOUS
10
9.38408
20
-6.38254
11
9.38411
21
-6.38253
0
LINE
8
BLACK
6
CONTINUOUS
10
9.38411
20
-6.38253
11
9.38504
21
-6.38245
0
LINE
8
BLACK
6
CONTINUOUS
10
9.38504
20
-6.38245
11
9.38596
21
-6.38236
0
LINE
8
BLACK
6
CONTINUOUS
10
9.38596
20
-6.38236
11
9.43283
21
-6.38236
0
LINE
8
BLACK
6
CONTINUOUS
10
9.43283
20
-6.38236
11
9.43296
21
-6.38236
0
LINE
8
BLACK
6
CONTINUOUS
10
9.3958
20
-6.40204
11
9.3958
21
-6.57921
0
LINE
8
BLACK
6
CONTINUOUS
10
9.3958
20
-6.57921
11
9.43123
21
-6.57921
0
LINE
8
BLACK
6
CONTINUOUS
10
9.43123
20
-6.57921
11
9.45563
21
-6.57107
0
LINE
8
BLACK
6
CONTINUOUS
10
9.45563
20
-6.57107
11
9.47161
21
-6.5551
0
LINE
8
BLACK
6
CONTINUOUS
10
9.47161
20
-6.5551
11
9.47978
21
-6.53875
0
LINE
8
BLACK
6
CONTINUOUS
10
9.47978
20
-6.53875
11
9.4886
21
-6.50348
0
LINE
8
BLACK
6
CONTINUOUS
10
9.4886
20
-6.50348
11
9.4886
21
-6.47778
0
LINE
8
BLACK
6
CONTINUOUS
10
9.4886
20
-6.47778
11
9.47978
21
-6.44251
0
LINE
8
BLACK
6
CONTINUOUS
10
9.47978
20
-6.44251
11
9.47161
21
-6.42615
0
LINE
8
BLACK
6
CONTINUOUS
10
9.47161
20
-6.42615
11
9.45563
21
-6.41018
0
LINE
8
BLACK
6
CONTINUOUS
10
9.45563
20
-6.41018
11
9.43123
21
-6.40204
0
LINE
8
BLACK
6
CONTINUOUS
10
9.43123
20
-6.40204
11
9.3958
21
-6.40204
0
LINE
8
BLACK
6
CONTINUOUS
10
7.40331
20
-6.38236
11
7.40386
21
-6.38242
0
LINE
8
BLACK
6
CONTINUOUS
10
7.40386
20
-6.38242
11
7.40441
21
-6.38244
0
LINE
8
BLACK
6
CONTINUOUS
10
7.40441
20
-6.38244
11
7.40481
21
-6.38253
0
LINE
8
BLACK
6
CONTINUOUS
10
7.40481
20
-6.38253
11
7.40521
21
-6.38257
0
LINE
8
BLACK
6
CONTINUOUS
10
7.40521
20
-6.38257
11
7.40574
21
-6.38274
0
LINE
8
BLACK
6
CONTINUOUS
10
7.40574
20
-6.38274
11
7.40628
21
-6.38286
0
LINE
8
BLACK
6
CONTINUOUS
10
7.40628
20
-6.38286
11
7.4344
21
-6.39224
0
LINE
8
BLACK
6
CONTINUOUS
10
7.4344
20
-6.39224
11
7.43453
21
-6.39228
0
LINE
8
BLACK
6
CONTINUOUS
10
7.43453
20
-6.39228
11
7.4348
21
-6.3924
0
LINE
8
BLACK
6
CONTINUOUS
10
7.4348
20
-6.3924
11
7.43507
21
-6.39249
0
LINE
8
BLACK
6
CONTINUOUS
10
7.43507
20
-6.39249
11
7.43567
21
-6.39281
0
LINE
8
BLACK
6
CONTINUOUS
10
7.43567
20
-6.39281
11
7.43628
21
-6.39309
0
LINE
8
BLACK
6
CONTINUOUS
10
7.43628
20
-6.39309
11
7.43651
21
-6.39326
0
LINE
8
BLACK
6
CONTINUOUS
10
7.43651
20
-6.39326
11
7.43677
21
-6.3934
0
LINE
8
BLACK
6
CONTINUOUS
10
7.43677
20
-6.3934
11
7.43729
21
-6.39382
0
LINE
8
BLACK
6
CONTINUOUS
10
7.43729
20
-6.39382
11
7.43783
21
-6.39422
0
LINE
8
BLACK
6
CONTINUOUS
10
7.43783
20
-6.39422
11
7.43803
21
-6.39443
0
LINE
8
BLACK
6
CONTINUOUS
10
7.43803
20
-6.39443
11
7.43825
21
-6.39462
0
LINE
8
BLACK
6
CONTINUOUS
10
7.43825
20
-6.39462
11
7.457
21
-6.41336
0
LINE
8
BLACK
6
CONTINUOUS
10
7.457
20
-6.41336
11
7.45709
21
-6.41346
0
LINE
8
BLACK
6
CONTINUOUS
10
7.45709
20
-6.41346
11
7.45744
21
-6.41389
0
LINE
8
BLACK
6
CONTINUOUS
10
7.45744
20
-6.41389
11
7.45782
21
-6.41429
0
LINE
8
BLACK
6
CONTINUOUS
10
7.45782
20
-6.41429
11
7.45804
21
-6.41464
0
LINE
8
BLACK
6
CONTINUOUS
10
7.45804
20
-6.41464
11
7.45829
21
-6.41496
0
LINE
8
BLACK
6
CONTINUOUS
10
7.45829
20
-6.41496
11
7.45855
21
-6.41545
0
LINE
8
BLACK
6
CONTINUOUS
10
7.45855
20
-6.41545
11
7.45884
21
-6.41592
0
LINE
8
BLACK
6
CONTINUOUS
10
7.45884
20
-6.41592
11
7.46821
21
-6.43467
0
LINE
8
BLACK
6
CONTINUOUS
10
7.46821
20
-6.43467
11
7.46828
21
-6.43479
0
LINE
8
BLACK
6
CONTINUOUS
10
7.46828
20
-6.43479
11
7.46829
21
-6.43483
0
LINE
8
BLACK
6
CONTINUOUS
10
7.46829
20
-6.43483
11
7.46831
21
-6.43487
0
LINE
8
BLACK
6
CONTINUOUS
10
7.46831
20
-6.43487
11
7.46862
21
-6.43574
0
LINE
8
BLACK
6
CONTINUOUS
10
7.46862
20
-6.43574
11
7.46894
21
-6.43659
0
LINE
8
BLACK
6
CONTINUOUS
10
7.46894
20
-6.43659
11
7.46894
21
-6.43664
0
LINE
8
BLACK
6
CONTINUOUS
10
7.46894
20
-6.43664
11
7.46896
21
-6.43668
0
LINE
8
BLACK
6
CONTINUOUS
10
7.46896
20
-6.43668
11
7.47833
21
-6.47418
0
LINE
8
BLACK
6
CONTINUOUS
10
7.47833
20
-6.47418
11
7.47837
21
-6.47431
0
LINE
8
BLACK
6
CONTINUOUS
10
7.47837
20
-6.47431
11
7.47839
21
-6.47449
0
LINE
8
BLACK
6
CONTINUOUS
10
7.47839
20
-6.47449
11
7.47844
21
-6.47465
0
LINE
8
BLACK
6
CONTINUOUS
10
7.47844
20
-6.47465
11
7.47852
21
-6.47544
0
LINE
8
BLACK
6
CONTINUOUS
10
7.47852
20
-6.47544
11
7.47862
21
-6.47622
0
LINE
8
BLACK
6
CONTINUOUS
10
7.47862
20
-6.47622
11
7.47861
21
-6.47639
0
LINE
8
BLACK
6
CONTINUOUS
10
7.47861
20
-6.47639
11
7.47863
21
-6.47657
0
LINE
8
BLACK
6
CONTINUOUS
10
7.47863
20
-6.47657
11
7.47863
21
-6.50469
0
LINE
8
BLACK
6
CONTINUOUS
10
7.47863
20
-6.50469
11
7.47863
21
-6.50482
0
LINE
8
BLACK
6
CONTINUOUS
10
7.47863
20
-6.50482
11
7.47861
21
-6.505
0
LINE
8
BLACK
6
CONTINUOUS
10
7.47861
20
-6.505
11
7.47862
21
-6.50517
0
LINE
8
BLACK
6
CONTINUOUS
10
7.47862
20
-6.50517
11
7.4785
21
-6.50595
0
LINE
8
BLACK
6
CONTINUOUS
10
7.4785
20
-6.50595
11
7.47841
21
-6.50673
0
LINE
8
BLACK
6
CONTINUOUS
10
7.47841
20
-6.50673
11
7.47836
21
-6.5069
0
LINE
8
BLACK
6
CONTINUOUS
10
7.47836
20
-6.5069
11
7.47833
21
-6.50707
0
LINE
8
BLACK
6
CONTINUOUS
10
7.47833
20
-6.50707
11
7.46896
21
-6.54457
0
LINE
8
BLACK
6
CONTINUOUS
10
7.46896
20
-6.54457
11
7.46893
21
-6.5447
0
LINE
8
BLACK
6
CONTINUOUS
10
7.46893
20
-6.5447
11
7.46891
21
-6.54475
0
LINE
8
BLACK
6
CONTINUOUS
10
7.46891
20
-6.54475
11
7.4689
21
-6.54479
0
LINE
8
BLACK
6
CONTINUOUS
10
7.4689
20
-6.54479
11
7.46857
21
-6.54565
0
LINE
8
BLACK
6
CONTINUOUS
10
7.46857
20
-6.54565
11
7.46825
21
-6.5465
0
LINE
8
BLACK
6
CONTINUOUS
10
7.46825
20
-6.5465
11
7.46823
21
-6.54654
0
LINE
8
BLACK
6
CONTINUOUS
10
7.46823
20
-6.54654
11
7.46821
21
-6.54658
0
LINE
8
BLACK
6
CONTINUOUS
10
7.46821
20
-6.54658
11
7.45884
21
-6.56533
0
LINE
8
BLACK
6
CONTINUOUS
10
7.45884
20
-6.56533
11
7.45878
21
-6.56545
0
LINE
8
BLACK
6
CONTINUOUS
10
7.45878
20
-6.56545
11
7.45848
21
-6.56592
0
LINE
8
BLACK
6
CONTINUOUS
10
7.45848
20
-6.56592
11
7.45822
21
-6.56641
0
LINE
8
BLACK
6
CONTINUOUS
10
7.45822
20
-6.56641
11
7.45796
21
-6.56672
0
LINE
8
BLACK
6
CONTINUOUS
10
7.45796
20
-6.56672
11
7.45773
21
-6.56707
0
LINE
8
BLACK
6
CONTINUOUS
10
7.45773
20
-6.56707
11
7.45735
21
-6.56746
0
LINE
8
BLACK
6
CONTINUOUS
10
7.45735
20
-6.56746
11
7.457
21
-6.56789
0
LINE
8
BLACK
6
CONTINUOUS
10
7.457
20
-6.56789
11
7.43825
21
-6.58664
0
LINE
8
BLACK
6
CONTINUOUS
10
7.43825
20
-6.58664
11
7.43815
21
-6.58673
0
LINE
8
BLACK
6
CONTINUOUS
10
7.43815
20
-6.58673
11
7.43793
21
-6.58691
0
LINE
8
BLACK
6
CONTINUOUS
10
7.43793
20
-6.58691
11
7.43773
21
-6.58712
0
LINE
8
BLACK
6
CONTINUOUS
10
7.43773
20
-6.58712
11
7.43718
21
-6.58751
0
LINE
8
BLACK
6
CONTINUOUS
10
7.43718
20
-6.58751
11
7.43665
21
-6.58793
0
LINE
8
BLACK
6
CONTINUOUS
10
7.43665
20
-6.58793
11
7.43639
21
-6.58807
0
LINE
8
BLACK
6
CONTINUOUS
10
7.43639
20
-6.58807
11
7.43616
21
-6.58823
0
LINE
8
BLACK
6
CONTINUOUS
10
7.43616
20
-6.58823
11
7.43554
21
-6.58851
0
LINE
8
BLACK
6
CONTINUOUS
10
7.43554
20
-6.58851
11
7.43494
21
-6.58882
0
LINE
8
BLACK
6
CONTINUOUS
10
7.43494
20
-6.58882
11
7.43467
21
-6.5889
0
LINE
8
BLACK
6
CONTINUOUS
10
7.43467
20
-6.5889
11
7.4344
21
-6.58901
0
LINE
8
BLACK
6
CONTINUOUS
10
7.4344
20
-6.58901
11
7.40628
21
-6.59839
0
LINE
8
BLACK
6
CONTINUOUS
10
7.40628
20
-6.59839
11
7.40615
21
-6.59843
0
LINE
8
BLACK
6
CONTINUOUS
10
7.40615
20
-6.59843
11
7.40561
21
-6.59855
0
LINE
8
BLACK
6
CONTINUOUS
10
7.40561
20
-6.59855
11
7.40508
21
-6.59871
0
LINE
8
BLACK
6
CONTINUOUS
10
7.40508
20
-6.59871
11
7.40467
21
-6.59875
0
LINE
8
BLACK
6
CONTINUOUS
10
7.40467
20
-6.59875
11
7.40427
21
-6.59883
0
LINE
8
BLACK
6
CONTINUOUS
10
7.40427
20
-6.59883
11
7.40372
21
-6.59884
0
LINE
8
BLACK
6
CONTINUOUS
10
7.40372
20
-6.59884
11
7.40317
21
-6.59889
0
LINE
8
BLACK
6
CONTINUOUS
10
7.40317
20
-6.59889
11
7.3563
21
-6.59889
0
LINE
8
BLACK
6
CONTINUOUS
10
7.3563
20
-6.59889
11
7.35623
21
-6.59889
0
LINE
8
BLACK
6
CONTINUOUS
10
7.35623
20
-6.59889
11
7.35623
21
-6.59889
0
LINE
8
BLACK
6
CONTINUOUS
10
7.35623
20
-6.59889
11
7.35623
21
-6.59889
0
LINE
8
BLACK
6
CONTINUOUS
10
7.35623
20
-6.59889
11
7.35616
21
-6.59889
0
LINE
8
BLACK
6
CONTINUOUS
10
7.35616
20
-6.59889
11
7.35524
21
-6.59879
0
LINE
8
BLACK
6
CONTINUOUS
10
7.35524
20
-6.59879
11
7.35432
21
-6.59869
0
LINE
8
BLACK
6
CONTINUOUS
10
7.35432
20
-6.59869
11
7.35429
21
-6.59868
0
LINE
8
BLACK
6
CONTINUOUS
10
7.35429
20
-6.59868
11
7.35425
21
-6.59868
0
LINE
8
BLACK
6
CONTINUOUS
10
7.35425
20
-6.59868
11
7.35337
21
-6.5984
0
LINE
8
BLACK
6
CONTINUOUS
10
7.35337
20
-6.5984
11
7.35249
21
-6.59812
0
LINE
8
BLACK
6
CONTINUOUS
10
7.35249
20
-6.59812
11
7.35245
21
-6.59811
0
LINE
8
BLACK
6
CONTINUOUS
10
7.35245
20
-6.59811
11
7.35242
21
-6.5981
0
LINE
8
BLACK
6
CONTINUOUS
10
7.35242
20
-6.5981
11
7.35161
21
-6.59765
0
LINE
8
BLACK
6
CONTINUOUS
10
7.35161
20
-6.59765
11
7.3508
21
-6.59721
0
LINE
8
BLACK
6
CONTINUOUS
10
7.3508
20
-6.59721
11
7.35077
21
-6.59719
0
LINE
8
BLACK
6
CONTINUOUS
10
7.35077
20
-6.59719
11
7.35074
21
-6.59717
0
LINE
8
BLACK
6
CONTINUOUS
10
7.35074
20
-6.59717
11
7.35003
21
-6.59658
0
LINE
8
BLACK
6
CONTINUOUS
10
7.35003
20
-6.59658
11
7.34932
21
-6.59599
0
LINE
8
BLACK
6
CONTINUOUS
10
7.34932
20
-6.59599
11
7.34929
21
-6.59596
0
LINE
8
BLACK
6
CONTINUOUS
10
7.34929
20
-6.59596
11
7.34927
21
-6.59594
0
LINE
8
BLACK
6
CONTINUOUS
10
7.34927
20
-6.59594
11
7.34869
21
-6.59522
0
LINE
8
BLACK
6
CONTINUOUS
10
7.34869
20
-6.59522
11
7.3481
21
-6.5945
0
LINE
8
BLACK
6
CONTINUOUS
10
7.3481
20
-6.5945
11
7.34809
21
-6.59447
0
LINE
8
BLACK
6
CONTINUOUS
10
7.34809
20
-6.59447
11
7.34806
21
-6.59444
0
LINE
8
BLACK
6
CONTINUOUS
10
7.34806
20
-6.59444
11
7.34763
21
-6.59362
0
LINE
8
BLACK
6
CONTINUOUS
10
7.34763
20
-6.59362
11
7.3472
21
-6.5928
0
LINE
8
BLACK
6
CONTINUOUS
10
7.3472
20
-6.5928
11
7.34719
21
-6.59277
0
LINE
8
BLACK
6
CONTINUOUS
10
7.34719
20
-6.59277
11
7.34717
21
-6.59274
0
LINE
8
BLACK
6
CONTINUOUS
10
7.34717
20
-6.59274
11
7.34691
21
-6.59185
0
LINE
8
BLACK
6
CONTINUOUS
10
7.34691
20
-6.59185
11
7.34664
21
-6.59096
0
LINE
8
BLACK
6
CONTINUOUS
10
7.34664
20
-6.59096
11
7.34664
21
-6.59093
0
LINE
8
BLACK
6
CONTINUOUS
10
7.34664
20
-6.59093
11
7.34663
21
-6.5909
0
LINE
8
BLACK
6
CONTINUOUS
10
7.34663
20
-6.5909
11
7.34655
21
-6.58997
0
LINE
8
BLACK
6
CONTINUOUS
10
7.34655
20
-6.58997
11
7.34646
21
-6.58905
0
LINE
8
BLACK
6
CONTINUOUS
10
7.34646
20
-6.58905
11
7.34646
21
-6.3922
0
LINE
8
BLACK
6
CONTINUOUS
10
7.34646
20
-6.3922
11
7.34646
21
-6.39213
0
LINE
8
BLACK
6
CONTINUOUS
10
7.34646
20
-6.39213
11
7.34646
21
-6.39213
0
LINE
8
BLACK
6
CONTINUOUS
10
7.34646
20
-6.39213
11
7.34646
21
-6.39213
0
LINE
8
BLACK
6
CONTINUOUS
10
7.34646
20
-6.39213
11
7.34646
21
-6.39206
0
LINE
8
BLACK
6
CONTINUOUS
10
7.34646
20
-6.39206
11
7.34656
21
-6.39114
0
LINE
8
BLACK
6
CONTINUOUS
10
7.34656
20
-6.39114
11
7.34666
21
-6.39022
0
LINE
8
BLACK
6
CONTINUOUS
10
7.34666
20
-6.39022
11
7.34667
21
-6.39019
0
LINE
8
BLACK
6
CONTINUOUS
10
7.34667
20
-6.39019
11
7.34667
21
-6.39015
0
LINE
8
BLACK
6
CONTINUOUS
10
7.34667
20
-6.39015
11
7.34695
21
-6.38927
0
LINE
8
BLACK
6
CONTINUOUS
10
7.34695
20
-6.38927
11
7.34723
21
-6.38839
0
LINE
8
BLACK
6
CONTINUOUS
10
7.34723
20
-6.38839
11
7.34724
21
-6.38836
0
LINE
8
BLACK
6
CONTINUOUS
10
7.34724
20
-6.38836
11
7.34725
21
-6.38832
0
LINE
8
BLACK
6
CONTINUOUS
10
7.34725
20
-6.38832
11
7.3477
21
-6.38751
0
LINE
8
BLACK
6
CONTINUOUS
10
7.3477
20
-6.38751
11
7.34814
21
-6.3867
0
LINE
8
BLACK
6
CONTINUOUS
10
7.34814
20
-6.3867
11
7.34816
21
-6.38667
0
LINE
8
BLACK
6
CONTINUOUS
10
7.34816
20
-6.38667
11
7.34818
21
-6.38664
0
LINE
8
BLACK
6
CONTINUOUS
10
7.34818
20
-6.38664
11
7.34877
21
-6.38593
0
LINE
8
BLACK
6
CONTINUOUS
10
7.34877
20
-6.38593
11
7.34936
21
-6.38522
0
LINE
8
BLACK
6
CONTINUOUS
10
7.34936
20
-6.38522
11
7.34939
21
-6.3852
0
LINE
8
BLACK
6
CONTINUOUS
10
7.34939
20
-6.3852
11
7.34941
21
-6.38517
0
LINE
8
BLACK
6
CONTINUOUS
10
7.34941
20
-6.38517
11
7.35013
21
-6.38459
0
LINE
8
BLACK
6
CONTINUOUS
10
7.35013
20
-6.38459
11
7.35085
21
-6.384
0
LINE
8
BLACK
6
CONTINUOUS
10
7.35085
20
-6.384
11
7.35088
21
-6.38399
0
LINE
8
BLACK
6
CONTINUOUS
10
7.35088
20
-6.38399
11
7.35091
21
-6.38397
0
LINE
8
BLACK
6
CONTINUOUS
10
7.35091
20
-6.38397
11
7.35173
21
-6.38354
0
LINE
8
BLACK
6
CONTINUOUS
10
7.35173
20
-6.38354
11
7.35255
21
-6.3831
0
LINE
8
BLACK
6
CONTINUOUS
10
7.35255
20
-6.3831
11
7.35258
21
-6.38309
0
LINE
8
BLACK
6
CONTINUOUS
10
7.35258
20
-6.38309
11
7.35261
21
-6.38308
0
LINE
8
BLACK
6
CONTINUOUS
10
7.35261
20
-6.38308
11
7.3535
21
-6.38281
0
LINE
8
BLACK
6
CONTINUOUS
10
7.3535
20
-6.38281
11
7.35439
21
-6.38255
0
LINE
8
BLACK
6
CONTINUOUS
10
7.35439
20
-6.38255
11
7.35442
21
-6.38254
0
LINE
8
BLACK
6
CONTINUOUS
10
7.35442
20
-6.38254
11
7.35445
21
-6.38253
0
LINE
8
BLACK
6
CONTINUOUS
10
7.35445
20
-6.38253
11
7.35538
21
-6.38245
0
LINE
8
BLACK
6
CONTINUOUS
10
7.35538
20
-6.38245
11
7.3563
21
-6.38236
0
LINE
8
BLACK
6
CONTINUOUS
10
7.3563
20
-6.38236
11
7.40317
21
-6.38236
0
LINE
8
BLACK
6
CONTINUOUS
10
7.40317
20
-6.38236
11
7.40331
21
-6.38236
0
LINE
8
BLACK
6
CONTINUOUS
10
7.36614
20
-6.40204
11
7.36614
21
-6.57921
0
LINE
8
BLACK
6
CONTINUOUS
10
7.36614
20
-6.57921
11
7.40157
21
-6.57921
0
LINE
8
BLACK
6
CONTINUOUS
10
7.40157
20
-6.57921
11
7.42597
21
-6.57107
0
LINE
8
BLACK
6
CONTINUOUS
10
7.42597
20
-6.57107
11
7.44195
21
-6.5551
0
LINE
8
BLACK
6
CONTINUOUS
10
7.44195
20
-6.5551
11
7.45012
21
-6.53875
0
LINE
8
BLACK
6
CONTINUOUS
10
7.45012
20
-6.53875
11
7.45894
21
-6.50348
0
LINE
8
BLACK
6
CONTINUOUS
10
7.45894
20
-6.50348
11
7.45894
21
-6.47778
0
LINE
8
BLACK
6
CONTINUOUS
10
7.45894
20
-6.47778
11
7.45012
21
-6.44251
0
LINE
8
BLACK
6
CONTINUOUS
10
7.45012
20
-6.44251
11
7.44195
21
-6.42615
0
LINE
8
BLACK
6
CONTINUOUS
10
7.44195
20
-6.42615
11
7.42597
21
-6.41018
0
LINE
8
BLACK
6
CONTINUOUS
10
7.42597
20
-6.41018
11
7.40157
21
-6.40204
0
LINE
8
BLACK
6
CONTINUOUS
10
7.40157
20
-6.40204
11
7.36614
21
-6.40204
0
LINE
8
BLACK
6
CONTINUOUS
10
7.16912
20
-6.38238
11
7.16934
21
-6.38237
0
LINE
8
BLACK
6
CONTINUOUS
10
7.16934
20
-6.38237
11
7.17007
21
-6.38248
0
LINE
8
BLACK
6
CONTINUOUS
10
7.17007
20
-6.38248
11
7.1708
21
-6.38256
0
LINE
8
BLACK
6
CONTINUOUS
10
7.1708
20
-6.38256
11
7.17102
21
-6.38263
0
LINE
8
BLACK
6
CONTINUOUS
10
7.17102
20
-6.38263
11
7.17124
21
-6.38266
0
LINE
8
BLACK
6
CONTINUOUS
10
7.17124
20
-6.38266
11
7.17193
21
-6.38291
0
LINE
8
BLACK
6
CONTINUOUS
10
7.17193
20
-6.38291
11
7.17264
21
-6.38313
0
LINE
8
BLACK
6
CONTINUOUS
10
7.17264
20
-6.38313
11
7.17284
21
-6.38323
0
LINE
8
BLACK
6
CONTINUOUS
10
7.17284
20
-6.38323
11
7.17305
21
-6.38331
0
LINE
8
BLACK
6
CONTINUOUS
10
7.17305
20
-6.38331
11
7.17368
21
-6.38369
0
LINE
8
BLACK
6
CONTINUOUS
10
7.17368
20
-6.38369
11
7.17433
21
-6.38404
0
LINE
8
BLACK
6
CONTINUOUS
10
7.17433
20
-6.38404
11
7.1745
21
-6.38418
0
LINE
8
BLACK
6
CONTINUOUS
10
7.1745
20
-6.38418
11
7.17469
21
-6.3843
0
LINE
8
BLACK
6
CONTINUOUS
10
7.17469
20
-6.3843
11
7.17524
21
-6.3848
0
LINE
8
BLACK
6
CONTINUOUS
10
7.17524
20
-6.3848
11
7.17581
21
-6.38527
0
LINE
8
BLACK
6
CONTINUOUS
10
7.17581
20
-6.38527
11
7.17595
21
-6.38544
0
LINE
8
BLACK
6
CONTINUOUS
10
7.17595
20
-6.38544
11
7.17612
21
-6.38559
0
LINE
8
BLACK
6
CONTINUOUS
10
7.17612
20
-6.38559
11
7.17655
21
-6.38618
0
LINE
8
BLACK
6
CONTINUOUS
10
7.17655
20
-6.38618
11
7.17702
21
-6.38675
0
LINE
8
BLACK
6
CONTINUOUS
10
7.17702
20
-6.38675
11
7.17713
21
-6.38695
0
LINE
8
BLACK
6
CONTINUOUS
10
7.17713
20
-6.38695
11
7.17726
21
-6.38713
0
LINE
8
BLACK
6
CONTINUOUS
10
7.17726
20
-6.38713
11
7.17758
21
-6.3878
0
LINE
8
BLACK
6
CONTINUOUS
10
7.17758
20
-6.3878
11
7.17792
21
-6.38845
0
LINE
8
BLACK
6
CONTINUOUS
10
7.17792
20
-6.38845
11
7.17799
21
-6.38867
0
LINE
8
BLACK
6
CONTINUOUS
10
7.17799
20
-6.38867
11
7.17808
21
-6.38887
0
LINE
8
BLACK
6
CONTINUOUS
10
7.17808
20
-6.38887
11
7.17826
21
-6.38958
0
LINE
8
BLACK
6
CONTINUOUS
10
7.17826
20
-6.38958
11
7.17848
21
-6.39029
0
LINE
8
BLACK
6
CONTINUOUS
10
7.17848
20
-6.39029
11
7.1785
21
-6.39051
0
LINE
8
BLACK
6
CONTINUOUS
10
7.1785
20
-6.39051
11
7.17855
21
-6.39073
0
LINE
8
BLACK
6
CONTINUOUS
10
7.17855
20
-6.39073
11
7.17859
21
-6.39147
0
LINE
8
BLACK
6
CONTINUOUS
10
7.17859
20
-6.39147
11
7.17867
21
-6.3922
0
LINE
8
BLACK
6
CONTINUOUS
10
7.17867
20
-6.3922
11
7.17867
21
-6.58905
0
LINE
8
BLACK
6
CONTINUOUS
10
7.17867
20
-6.58905
11
7.17866
21
-6.58919
0
LINE
8
BLACK
6
CONTINUOUS
10
7.17866
20
-6.58919
11
7.17845
21
-6.5911
0
LINE
8
BLACK
6
CONTINUOUS
10
7.17845
20
-6.5911
11
7.17787
21
-6.59293
0
LINE
8
BLACK
6
CONTINUOUS
10
7.17787
20
-6.59293
11
7.17694
21
-6.59461
0
LINE
8
BLACK
6
CONTINUOUS
10
7.17694
20
-6.59461
11
7.17571
21
-6.59608
0
LINE
8
BLACK
6
CONTINUOUS
10
7.17571
20
-6.59608
11
7.17421
21
-6.59729
0
LINE
8
BLACK
6
CONTINUOUS
10
7.17421
20
-6.59729
11
7.17251
21
-6.59818
0
LINE
8
BLACK
6
CONTINUOUS
10
7.17251
20
-6.59818
11
7.17067
21
-6.59872
0
LINE
8
BLACK
6
CONTINUOUS
10
7.17067
20
-6.59872
11
7.16875
21
-6.59889
0
LINE
8
BLACK
6
CONTINUOUS
10
7.16875
20
-6.59889
11
7.16684
21
-6.59869
0
LINE
8
BLACK
6
CONTINUOUS
10
7.16684
20
-6.59869
11
7.16501
21
-6.59812
0
LINE
8
BLACK
6
CONTINUOUS
10
7.16501
20
-6.59812
11
7.16332
21
-6.59721
0
LINE
8
BLACK
6
CONTINUOUS
10
7.16332
20
-6.59721
11
7.16184
21
-6.59599
0
LINE
8
BLACK
6
CONTINUOUS
10
7.16184
20
-6.59599
11
7.16062
21
-6.5945
0
LINE
8
BLACK
6
CONTINUOUS
10
7.16062
20
-6.5945
11
7.15972
21
-6.5928
0
LINE
8
BLACK
6
CONTINUOUS
10
7.15972
20
-6.5928
11
7.15917
21
-6.59096
0
LINE
8
BLACK
6
CONTINUOUS
10
7.15917
20
-6.59096
11
7.15898
21
-6.58905
0
LINE
8
BLACK
6
CONTINUOUS
10
7.15898
20
-6.58905
11
7.15898
21
-6.43657
0
LINE
8
BLACK
6
CONTINUOUS
10
7.15898
20
-6.43657
11
7.11212
21
-6.53697
0
LINE
8
BLACK
6
CONTINUOUS
10
7.11212
20
-6.53697
11
7.11207
21
-6.53709
0
LINE
8
BLACK
6
CONTINUOUS
10
7.11207
20
-6.53709
11
7.1118
21
-6.53753
0
LINE
8
BLACK
6
CONTINUOUS
10
7.1118
20
-6.53753
11
7.11157
21
-6.53799
0
LINE
8
BLACK
6
CONTINUOUS
10
7.11157
20
-6.53799
11
7.1113
21
-6.53835
0
LINE
8
BLACK
6
CONTINUOUS
10
7.1113
20
-6.53835
11
7.11106
21
-6.53873
0
LINE
8
BLACK
6
CONTINUOUS
10
7.11106
20
-6.53873
11
7.11072
21
-6.53911
0
LINE
8
BLACK
6
CONTINUOUS
10
7.11072
20
-6.53911
11
7.11041
21
-6.53952
0
LINE
8
BLACK
6
CONTINUOUS
10
7.11041
20
-6.53952
11
7.11007
21
-6.53982
0
LINE
8
BLACK
6
CONTINUOUS
10
7.11007
20
-6.53982
11
7.10976
21
-6.54015
0
LINE
8
BLACK
6
CONTINUOUS
10
7.10976
20
-6.54015
11
7.10935
21
-6.54045
0
LINE
8
BLACK
6
CONTINUOUS
10
7.10935
20
-6.54045
11
7.10897
21
-6.54079
0
LINE
8
BLACK
6
CONTINUOUS
10
7.10897
20
-6.54079
11
7.10858
21
-6.54102
0
LINE
8
BLACK
6
CONTINUOUS
10
7.10858
20
-6.54102
11
7.10821
21
-6.54128
0
LINE
8
BLACK
6
CONTINUOUS
10
7.10821
20
-6.54128
11
7.10775
21
-6.5415
0
LINE
8
BLACK
6
CONTINUOUS
10
7.10775
20
-6.5415
11
7.10731
21
-6.54176
0
LINE
8
BLACK
6
CONTINUOUS
10
7.10731
20
-6.54176
11
7.10688
21
-6.5419
0
LINE
8
BLACK
6
CONTINUOUS
10
7.10688
20
-6.5419
11
7.10647
21
-6.54209
0
LINE
8
BLACK
6
CONTINUOUS
10
7.10647
20
-6.54209
11
7.10597
21
-6.54222
0
LINE
8
BLACK
6
CONTINUOUS
10
7.10597
20
-6.54222
11
7.10549
21
-6.54238
0
LINE
8
BLACK
6
CONTINUOUS
10
7.10549
20
-6.54238
11
7.10504
21
-6.54244
0
LINE
8
BLACK
6
CONTINUOUS
10
7.10504
20
-6.54244
11
7.10461
21
-6.54255
0
LINE
8
BLACK
6
CONTINUOUS
10
7.10461
20
-6.54255
11
7.10409
21
-6.54257
0
LINE
8
BLACK
6
CONTINUOUS
10
7.10409
20
-6.54257
11
7.10359
21
-6.54264
0
LINE
8
BLACK
6
CONTINUOUS
10
7.10359
20
-6.54264
11
7.10314
21
-6.54262
0
LINE
8
BLACK
6
CONTINUOUS
10
7.10314
20
-6.54262
11
7.10269
21
-6.54264
0
LINE
8
BLACK
6
CONTINUOUS
10
7.10269
20
-6.54264
11
7.10218
21
-6.54256
0
LINE
8
BLACK
6
CONTINUOUS
10
7.10218
20
-6.54256
11
7.10167
21
-6.54253
0
LINE
8
BLACK
6
CONTINUOUS
10
7.10167
20
-6.54253
11
7.10123
21
-6.54242
0
LINE
8
BLACK
6
CONTINUOUS
10
7.10123
20
-6.54242
11
7.10079
21
-6.54235
0
LINE
8
BLACK
6
CONTINUOUS
10
7.10079
20
-6.54235
11
7.10031
21
-6.54218
0
LINE
8
BLACK
6
CONTINUOUS
10
7.10031
20
-6.54218
11
7.09981
21
-6.54205
0
LINE
8
BLACK
6
CONTINUOUS
10
7.09981
20
-6.54205
11
7.0994
21
-6.54185
0
LINE
8
BLACK
6
CONTINUOUS
10
7.0994
20
-6.54185
11
7.09898
21
-6.5417
0
LINE
8
BLACK
6
CONTINUOUS
10
7.09898
20
-6.5417
11
7.09854
21
-6.54143
0
LINE
8
BLACK
6
CONTINUOUS
10
7.09854
20
-6.54143
11
7.09808
21
-6.54121
0
LINE
8
BLACK
6
CONTINUOUS
10
7.09808
20
-6.54121
11
7.09772
21
-6.54094
0
LINE
8
BLACK
6
CONTINUOUS
10
7.09772
20
-6.54094
11
7.09734
21
-6.54071
0
LINE
8
BLACK
6
CONTINUOUS
10
7.09734
20
-6.54071
11
7.09696
21
-6.54036
0
LINE
8
BLACK
6
CONTINUOUS
10
7.09696
20
-6.54036
11
7.09655
21
-6.54006
0
LINE
8
BLACK
6
CONTINUOUS
10
7.09655
20
-6.54006
11
7.09625
21
-6.53972
0
LINE
8
BLACK
6
CONTINUOUS
10
7.09625
20
-6.53972
11
7.09591
21
-6.53942
0
LINE
8
BLACK
6
CONTINUOUS
10
7.09591
20
-6.53942
11
7.09561
21
-6.53901
0
LINE
8
BLACK
6
CONTINUOUS
10
7.09561
20
-6.53901
11
7.09526
21
-6.53862
0
LINE
8
BLACK
6
CONTINUOUS
10
7.09526
20
-6.53862
11
7.09504
21
-6.53824
0
LINE
8
BLACK
6
CONTINUOUS
10
7.09504
20
-6.53824
11
7.09477
21
-6.53788
0
LINE
8
BLACK
6
CONTINUOUS
10
7.09477
20
-6.53788
11
7.09455
21
-6.53741
0
LINE
8
BLACK
6
CONTINUOUS
10
7.09455
20
-6.53741
11
7.09429
21
-6.53697
0
LINE
8
BLACK
6
CONTINUOUS
10
7.09429
20
-6.53697
11
7.04743
21
-6.43657
0
LINE
8
BLACK
6
CONTINUOUS
10
7.04743
20
-6.43657
11
7.04743
21
-6.58905
0
LINE
8
BLACK
6
CONTINUOUS
10
7.04743
20
-6.58905
11
7.04743
21
-6.58919
0
LINE
8
BLACK
6
CONTINUOUS
10
7.04743
20
-6.58919
11
7.04722
21
-6.5911
0
LINE
8
BLACK
6
CONTINUOUS
10
7.04722
20
-6.5911
11
7.04664
21
-6.59293
0
LINE
8
BLACK
6
CONTINUOUS
10
7.04664
20
-6.59293
11
7.04571
21
-6.59461
0
LINE
8
BLACK
6
CONTINUOUS
10
7.04571
20
-6.59461
11
7.04448
21
-6.59608
0
LINE
8
BLACK
6
CONTINUOUS
10
7.04448
20
-6.59608
11
7.04298
21
-6.59729
0
LINE
8
BLACK
6
CONTINUOUS
10
7.04298
20
-6.59729
11
7.04128
21
-6.59818
0
LINE
8
BLACK
6
CONTINUOUS
10
7.04128
20
-6.59818
11
7.03943
21
-6.59872
0
LINE
8
BLACK
6
CONTINUOUS
10
7.03943
20
-6.59872
11
7.03752
21
-6.59889
0
LINE
8
BLACK
6
CONTINUOUS
10
7.03752
20
-6.59889
11
7.03561
21
-6.59869
0
LINE
8
BLACK
6
CONTINUOUS
10
7.03561
20
-6.59869
11
7.03377
21
-6.59812
0
LINE
8
BLACK
6
CONTINUOUS
10
7.03377
20
-6.59812
11
7.03209
21
-6.59721
0
LINE
8
BLACK
6
CONTINUOUS
10
7.03209
20
-6.59721
11
7.03061
21
-6.59599
0
LINE
8
BLACK
6
CONTINUOUS
10
7.03061
20
-6.59599
11
7.02939
21
-6.5945
0
LINE
8
BLACK
6
CONTINUOUS
10
7.02939
20
-6.5945
11
7.02849
21
-6.5928
0
LINE
8
BLACK
6
CONTINUOUS
10
7.02849
20
-6.5928
11
7.02793
21
-6.59096
0
LINE
8
BLACK
6
CONTINUOUS
10
7.02793
20
-6.59096
11
7.02775
21
-6.58905
0
LINE
8
BLACK
6
CONTINUOUS
10
7.02775
20
-6.58905
11
7.02775
21
-6.3922
0
LINE
8
BLACK
6
CONTINUOUS
10
7.02775
20
-6.3922
11
7.02775
21
-6.39206
0
LINE
8
BLACK
6
CONTINUOUS
10
7.02775
20
-6.39206
11
7.02783
21
-6.39133
0
LINE
8
BLACK
6
CONTINUOUS
10
7.02783
20
-6.39133
11
7.02788
21
-6.3906
0
LINE
8
BLACK
6
CONTINUOUS
10
7.02788
20
-6.3906
11
7.02794
21
-6.39038
0
LINE
8
BLACK
6
CONTINUOUS
10
7.02794
20
-6.39038
11
7.02796
21
-6.39015
0
LINE
8
BLACK
6
CONTINUOUS
10
7.02796
20
-6.39015
11
7.02818
21
-6.38945
0
LINE
8
BLACK
6
CONTINUOUS
10
7.02818
20
-6.38945
11
7.02837
21
-6.38874
0
LINE
8
BLACK
6
CONTINUOUS
10
7.02837
20
-6.38874
11
7.02847
21
-6.38854
0
LINE
8
BLACK
6
CONTINUOUS
10
7.02847
20
-6.38854
11
7.02854
21
-6.38832
0
LINE
8
BLACK
6
CONTINUOUS
10
7.02854
20
-6.38832
11
7.0289
21
-6.38768
0
LINE
8
BLACK
6
CONTINUOUS
10
7.0289
20
-6.38768
11
7.02922
21
-6.38702
0
LINE
8
BLACK
6
CONTINUOUS
10
7.02922
20
-6.38702
11
7.02936
21
-6.38684
0
LINE
8
BLACK
6
CONTINUOUS
10
7.02936
20
-6.38684
11
7.02947
21
-6.38664
0
LINE
8
BLACK
6
CONTINUOUS
10
7.02947
20
-6.38664
11
7.02994
21
-6.38608
0
LINE
8
BLACK
6
CONTINUOUS
10
7.02994
20
-6.38608
11
7.03039
21
-6.38549
0
LINE
8
BLACK
6
CONTINUOUS
10
7.03039
20
-6.38549
11
7.03056
21
-6.38534
0
LINE
8
BLACK
6
CONTINUOUS
10
7.03056
20
-6.38534
11
7.0307
21
-6.38517
0
LINE
8
BLACK
6
CONTINUOUS
10
7.0307
20
-6.38517
11
7.03128
21
-6.38471
0
LINE
8
BLACK
6
CONTINUOUS
10
7.03128
20
-6.38471
11
7.03183
21
-6.38422
0
LINE
8
BLACK
6
CONTINUOUS
10
7.03183
20
-6.38422
11
7.03202
21
-6.38411
0
LINE
8
BLACK
6
CONTINUOUS
10
7.03202
20
-6.38411
11
7.0322
21
-6.38397
0
LINE
8
BLACK
6
CONTINUOUS
10
7.0322
20
-6.38397
11
7.03285
21
-6.38362
0
LINE
8
BLACK
6
CONTINUOUS
10
7.03285
20
-6.38362
11
7.03349
21
-6.38325
0
LINE
8
BLACK
6
CONTINUOUS
10
7.03349
20
-6.38325
11
7.0337
21
-6.38318
0
LINE
8
BLACK
6
CONTINUOUS
10
7.0337
20
-6.38318
11
7.0339
21
-6.38308
0
LINE
8
BLACK
6
CONTINUOUS
10
7.0339
20
-6.38308
11
7.03461
21
-6.38287
0
LINE
8
BLACK
6
CONTINUOUS
10
7.03461
20
-6.38287
11
7.03531
21
-6.38263
0
LINE
8
BLACK
6
CONTINUOUS
10
7.03531
20
-6.38263
11
7.03553
21
-6.3826
0
LINE
8
BLACK
6
CONTINUOUS
10
7.03553
20
-6.3826
11
7.03574
21
-6.38253
0
LINE
8
BLACK
6
CONTINUOUS
10
7.03574
20
-6.38253
11
7.03648
21
-6.38247
0
LINE
8
BLACK
6
CONTINUOUS
10
7.03648
20
-6.38247
11
7.03721
21
-6.38237
0
LINE
8
BLACK
6
CONTINUOUS
10
7.03721
20
-6.38237
11
7.03743
21
-6.38238
0
LINE
8
BLACK
6
CONTINUOUS
10
7.03743
20
-6.38238
11
7.03766
21
-6.38236
0
LINE
8
BLACK
6
CONTINUOUS
10
7.03766
20
-6.38236
11
7.03839
21
-6.38244
0
LINE
8
BLACK
6
CONTINUOUS
10
7.03839
20
-6.38244
11
7.03913
21
-6.38248
0
LINE
8
BLACK
6
CONTINUOUS
10
7.03913
20
-6.38248
11
7.03934
21
-6.38254
0
LINE
8
BLACK
6
CONTINUOUS
10
7.03934
20
-6.38254
11
7.03957
21
-6.38256
0
LINE
8
BLACK
6
CONTINUOUS
10
7.03957
20
-6.38256
11
7.04027
21
-6.38278
0
LINE
8
BLACK
6
CONTINUOUS
10
7.04027
20
-6.38278
11
7.04098
21
-6.38296
0
LINE
8
BLACK
6
CONTINUOUS
10
7.04098
20
-6.38296
11
7.04119
21
-6.38306
0
LINE
8
BLACK
6
CONTINUOUS
10
7.04119
20
-6.38306
11
7.0414
21
-6.38313
0
LINE
8
BLACK
6
CONTINUOUS
10
7.0414
20
-6.38313
11
7.04205
21
-6.38348
0
LINE
8
BLACK
6
CONTINUOUS
10
7.04205
20
-6.38348
11
7.04271
21
-6.3838
0
LINE
8
BLACK
6
CONTINUOUS
10
7.04271
20
-6.3838
11
7.04289
21
-6.38393
0
LINE
8
BLACK
6
CONTINUOUS
10
7.04289
20
-6.38393
11
7.04309
21
-6.38404
0
LINE
8
BLACK
6
CONTINUOUS
10
7.04309
20
-6.38404
11
7.04366
21
-6.38451
0
LINE
8
BLACK
6
CONTINUOUS
10
7.04366
20
-6.38451
11
7.04425
21
-6.38495
0
LINE
8
BLACK
6
CONTINUOUS
10
7.04425
20
-6.38495
11
7.0444
21
-6.38512
0
LINE
8
BLACK
6
CONTINUOUS
10
7.0444
20
-6.38512
11
7.04457
21
-6.38527
0
LINE
8
BLACK
6
CONTINUOUS
10
7.04457
20
-6.38527
11
7.04504
21
-6.38584
0
LINE
8
BLACK
6
CONTINUOUS
10
7.04504
20
-6.38584
11
7.04553
21
-6.38639
0
LINE
8
BLACK
6
CONTINUOUS
10
7.04553
20
-6.38639
11
7.04564
21
-6.38658
0
LINE
8
BLACK
6
CONTINUOUS
10
7.04564
20
-6.38658
11
7.04579
21
-6.38675
0
LINE
8
BLACK
6
CONTINUOUS
10
7.04579
20
-6.38675
11
7.04613
21
-6.3874
0
LINE
8
BLACK
6
CONTINUOUS
10
7.04613
20
-6.3874
11
7.04651
21
-6.38804
0
LINE
8
BLACK
6
CONTINUOUS
10
7.04651
20
-6.38804
11
7.10321
21
-6.50953
0
LINE
8
BLACK
6
CONTINUOUS
10
7.10321
20
-6.50953
11
7.1599
21
-6.38804
0
LINE
8
BLACK
6
CONTINUOUS
10
7.1599
20
-6.38804
11
7.15996
21
-6.38791
0
LINE
8
BLACK
6
CONTINUOUS
10
7.15996
20
-6.38791
11
7.16035
21
-6.38729
0
LINE
8
BLACK
6
CONTINUOUS
10
7.16035
20
-6.38729
11
7.1607
21
-6.38664
0
LINE
8
BLACK
6
CONTINUOUS
10
7.1607
20
-6.38664
11
7.16085
21
-6.38647
0
LINE
8
BLACK
6
CONTINUOUS
10
7.16085
20
-6.38647
11
7.16096
21
-6.38628
0
LINE
8
BLACK
6
CONTINUOUS
10
7.16096
20
-6.38628
11
7.16146
21
-6.38573
0
LINE
8
BLACK
6
CONTINUOUS
10
7.16146
20
-6.38573
11
7.16194
21
-6.38517
0
LINE
8
BLACK
6
CONTINUOUS
10
7.16194
20
-6.38517
11
7.16211
21
-6.38503
0
LINE
8
BLACK
6
CONTINUOUS
10
7.16211
20
-6.38503
11
7.16226
21
-6.38486
0
LINE
8
BLACK
6
CONTINUOUS
10
7.16226
20
-6.38486
11
7.16286
21
-6.38443
0
LINE
8
BLACK
6
CONTINUOUS
10
7.16286
20
-6.38443
11
7.16343
21
-6.38397
0
LINE
8
BLACK
6
CONTINUOUS
10
7.16343
20
-6.38397
11
7.16363
21
-6.38386
0
LINE
8
BLACK
6
CONTINUOUS
10
7.16363
20
-6.38386
11
7.16381
21
-6.38373
0
LINE
8
BLACK
6
CONTINUOUS
10
7.16381
20
-6.38373
11
7.16448
21
-6.38342
0
LINE
8
BLACK
6
CONTINUOUS
10
7.16448
20
-6.38342
11
7.16514
21
-6.38308
0
LINE
8
BLACK
6
CONTINUOUS
10
7.16514
20
-6.38308
11
7.16535
21
-6.38301
0
LINE
8
BLACK
6
CONTINUOUS
10
7.16535
20
-6.38301
11
7.16556
21
-6.38292
0
LINE
8
BLACK
6
CONTINUOUS
10
7.16556
20
-6.38292
11
7.16627
21
-6.38274
0
LINE
8
BLACK
6
CONTINUOUS
10
7.16627
20
-6.38274
11
7.16698
21
-6.38253
0
LINE
8
BLACK
6
CONTINUOUS
10
7.16698
20
-6.38253
11
7.1672
21
-6.38251
0
LINE
8
BLACK
6
CONTINUOUS
10
7.1672
20
-6.38251
11
7.16742
21
-6.38246
0
LINE
8
BLACK
6
CONTINUOUS
10
7.16742
20
-6.38246
11
7.16816
21
-6.38243
0
LINE
8
BLACK
6
CONTINUOUS
10
7.16816
20
-6.38243
11
7.16889
21
-6.38236
0
LINE
8
BLACK
6
CONTINUOUS
10
7.16889
20
-6.38236
11
7.16912
21
-6.38238
0
LINE
8
BLACK
6
CONTINUOUS
10
9.19877
20
-6.38238
11
9.199
21
-6.38237
0
LINE
8
BLACK
6
CONTINUOUS
10
9.199
20
-6.38237
11
9.19973
21
-6.38248
0
LINE
8
BLACK
6
CONTINUOUS
10
9.19973
20
-6.38248
11
9.20046
21
-6.38256
0
LINE
8
BLACK
6
CONTINUOUS
10
9.20046
20
-6.38256
11
9.20068
21
-6.38263
0
LINE
8
BLACK
6
CONTINUOUS
10
9.20068
20
-6.38263
11
9.2009
21
-6.38266
0
LINE
8
BLACK
6
CONTINUOUS
10
9.2009
20
-6.38266
11
9.20159
21
-6.38291
0
LINE
8
BLACK
6
CONTINUOUS
10
9.20159
20
-6.38291
11
9.2023
21
-6.38313
0
LINE
8
BLACK
6
CONTINUOUS
10
9.2023
20
-6.38313
11
9.20249
21
-6.38323
0
LINE
8
BLACK
6
CONTINUOUS
10
9.20249
20
-6.38323
11
9.20271
21
-6.38331
0
LINE
8
BLACK
6
CONTINUOUS
10
9.20271
20
-6.38331
11
9.20334
21
-6.38369
0
LINE
8
BLACK
6
CONTINUOUS
10
9.20334
20
-6.38369
11
9.20399
21
-6.38404
0
LINE
8
BLACK
6
CONTINUOUS
10
9.20399
20
-6.38404
11
9.20416
21
-6.38418
0
LINE
8
BLACK
6
CONTINUOUS
10
9.20416
20
-6.38418
11
9.20435
21
-6.3843
0
LINE
8
BLACK
6
CONTINUOUS
10
9.20435
20
-6.3843
11
9.2049
21
-6.3848
0
LINE
8
BLACK
6
CONTINUOUS
10
9.2049
20
-6.3848
11
9.20547
21
-6.38527
0
LINE
8
BLACK
6
CONTINUOUS
10
9.20547
20
-6.38527
11
9.20561
21
-6.38544
0
LINE
8
BLACK
6
CONTINUOUS
10
9.20561
20
-6.38544
11
9.20577
21
-6.38559
0
LINE
8
BLACK
6
CONTINUOUS
10
9.20577
20
-6.38559
11
9.20621
21
-6.38618
0
LINE
8
BLACK
6
CONTINUOUS
10
9.20621
20
-6.38618
11
9.20668
21
-6.38675
0
LINE
8
BLACK
6
CONTINUOUS
10
9.20668
20
-6.38675
11
9.20679
21
-6.38695
0
LINE
8
BLACK
6
CONTINUOUS
10
9.20679
20
-6.38695
11
9.20692
21
-6.38713
0
LINE
8
BLACK
6
CONTINUOUS
10
9.20692
20
-6.38713
11
9.20724
21
-6.3878
0
LINE
8
BLACK
6
CONTINUOUS
10
9.20724
20
-6.3878
11
9.20758
21
-6.38845
0
LINE
8
BLACK
6
CONTINUOUS
10
9.20758
20
-6.38845
11
9.20765
21
-6.38867
0
LINE
8
BLACK
6
CONTINUOUS
10
9.20765
20
-6.38867
11
9.20774
21
-6.38887
0
LINE
8
BLACK
6
CONTINUOUS
10
9.20774
20
-6.38887
11
9.20792
21
-6.38958
0
LINE
8
BLACK
6
CONTINUOUS
10
9.20792
20
-6.38958
11
9.20814
21
-6.39029
0
LINE
8
BLACK
6
CONTINUOUS
10
9.20814
20
-6.39029
11
9.20816
21
-6.39051
0
LINE
8
BLACK
6
CONTINUOUS
10
9.20816
20
-6.39051
11
9.20821
21
-6.39073
0
LINE
8
BLACK
6
CONTINUOUS
10
9.20821
20
-6.39073
11
9.20825
21
-6.39147
0
LINE
8
BLACK
6
CONTINUOUS
10
9.20825
20
-6.39147
11
9.20832
21
-6.3922
0
LINE
8
BLACK
6
CONTINUOUS
10
9.20832
20
-6.3922
11
9.20832
21
-6.58905
0
LINE
8
BLACK
6
CONTINUOUS
10
9.20832
20
-6.58905
11
9.20832
21
-6.58919
0
LINE
8
BLACK
6
CONTINUOUS
10
9.20832
20
-6.58919
11
9.20811
21
-6.5911
0
LINE
8
BLACK
6
CONTINUOUS
10
9.20811
20
-6.5911
11
9.20753
21
-6.59293
0
LINE
8
BLACK
6
CONTINUOUS
10
9.20753
20
-6.59293
11
9.2066
21
-6.59461
0
LINE
8
BLACK
6
CONTINUOUS
10
9.2066
20
-6.59461
11
9.20537
21
-6.59608
0
LINE
8
BLACK
6
CONTINUOUS
10
9.20537
20
-6.59608
11
9.20387
21
-6.59729
0
LINE
8
BLACK
6
CONTINUOUS
10
9.20387
20
-6.59729
11
9.20217
21
-6.59818
0
LINE
8
BLACK
6
CONTINUOUS
10
9.20217
20
-6.59818
11
9.20033
21
-6.59872
0
LINE
8
BLACK
6
CONTINUOUS
10
9.20033
20
-6.59872
11
9.19841
21
-6.59889
0
LINE
8
BLACK
6
CONTINUOUS
10
9.19841
20
-6.59889
11
9.1965
21
-6.59869
0
LINE
8
BLACK
6
CONTINUOUS
10
9.1965
20
-6.59869
11
9.19467
21
-6.59812
0
LINE
8
BLACK
6
CONTINUOUS
10
9.19467
20
-6.59812
11
9.19298
21
-6.59721
0
LINE
8
BLACK
6
CONTINUOUS
10
9.19298
20
-6.59721
11
9.1915
21
-6.59599
0
LINE
8
BLACK
6
CONTINUOUS
10
9.1915
20
-6.59599
11
9.19028
21
-6.5945
0
LINE
8
BLACK
6
CONTINUOUS
10
9.19028
20
-6.5945
11
9.18938
21
-6.5928
0
LINE
8
BLACK
6
CONTINUOUS
10
9.18938
20
-6.5928
11
9.18883
21
-6.59096
0
LINE
8
BLACK
6
CONTINUOUS
10
9.18883
20
-6.59096
11
9.18864
21
-6.58905
0
LINE
8
BLACK
6
CONTINUOUS
10
9.18864
20
-6.58905
11
9.18864
21
-6.43657
0
LINE
8
BLACK
6
CONTINUOUS
10
9.18864
20
-6.43657
11
9.14178
21
-6.53697
0
LINE
8
BLACK
6
CONTINUOUS
10
9.14178
20
-6.53697
11
9.14172
21
-6.53709
0
LINE
8
BLACK
6
CONTINUOUS
10
9.14172
20
-6.53709
11
9.14146
21
-6.53753
0
LINE
8
BLACK
6
CONTINUOUS
10
9.14146
20
-6.53753
11
9.14123
21
-6.53799
0
LINE
8
BLACK
6
CONTINUOUS
10
9.14123
20
-6.53799
11
9.14096
21
-6.53835
0
LINE
8
BLACK
6
CONTINUOUS
10
9.14096
20
-6.53835
11
9.14072
21
-6.53873
0
LINE
8
BLACK
6
CONTINUOUS
10
9.14072
20
-6.53873
11
9.14038
21
-6.53911
0
LINE
8
BLACK
6
CONTINUOUS
10
9.14038
20
-6.53911
11
9.14006
21
-6.53952
0
LINE
8
BLACK
6
CONTINUOUS
10
9.14006
20
-6.53952
11
9.13973
21
-6.53982
0
LINE
8
BLACK
6
CONTINUOUS
10
9.13973
20
-6.53982
11
9.13942
21
-6.54015
0
LINE
8
BLACK
6
CONTINUOUS
10
9.13942
20
-6.54015
11
9.13901
21
-6.54045
0
LINE
8
BLACK
6
CONTINUOUS
10
9.13901
20
-6.54045
11
9.13862
21
-6.54079
0
LINE
8
BLACK
6
CONTINUOUS
10
9.13862
20
-6.54079
11
9.13824
21
-6.54102
0
LINE
8
BLACK
6
CONTINUOUS
10
9.13824
20
-6.54102
11
9.13787
21
-6.54128
0
LINE
8
BLACK
6
CONTINUOUS
10
9.13787
20
-6.54128
11
9.13741
21
-6.5415
0
LINE
8
BLACK
6
CONTINUOUS
10
9.13741
20
-6.5415
11
9.13696
21
-6.54176
0
LINE
8
BLACK
6
CONTINUOUS
10
9.13696
20
-6.54176
11
9.13654
21
-6.5419
0
LINE
8
BLACK
6
CONTINUOUS
10
9.13654
20
-6.5419
11
9.13613
21
-6.54209
0
LINE
8
BLACK
6
CONTINUOUS
10
9.13613
20
-6.54209
11
9.13563
21
-6.54222
0
LINE
8
BLACK
6
CONTINUOUS
10
9.13563
20
-6.54222
11
9.13515
21
-6.54238
0
LINE
8
BLACK
6
CONTINUOUS
10
9.13515
20
-6.54238
11
9.1347
21
-6.54244
0
LINE
8
BLACK
6
CONTINUOUS
10
9.1347
20
-6.54244
11
9.13427
21
-6.54255
0
LINE
8
BLACK
6
CONTINUOUS
10
9.13427
20
-6.54255
11
9.13375
21
-6.54257
0
LINE
8
BLACK
6
CONTINUOUS
10
9.13375
20
-6.54257
11
9.13325
21
-6.54264
0
LINE
8
BLACK
6
CONTINUOUS
10
9.13325
20
-6.54264
11
9.1328
21
-6.54262
0
LINE
8
BLACK
6
CONTINUOUS
10
9.1328
20
-6.54262
11
9.13235
21
-6.54264
0
LINE
8
BLACK
6
CONTINUOUS
10
9.13235
20
-6.54264
11
9.13184
21
-6.54256
0
LINE
8
BLACK
6
CONTINUOUS
10
9.13184
20
-6.54256
11
9.13133
21
-6.54253
0
LINE
8
BLACK
6
CONTINUOUS
10
9.13133
20
-6.54253
11
9.13089
21
-6.54242
0
LINE
8
BLACK
6
CONTINUOUS
10
9.13089
20
-6.54242
11
9.13045
21
-6.54235
0
LINE
8
BLACK
6
CONTINUOUS
10
9.13045
20
-6.54235
11
9.12997
21
-6.54218
0
LINE
8
BLACK
6
CONTINUOUS
10
9.12997
20
-6.54218
11
9.12947
21
-6.54205
0
LINE
8
BLACK
6
CONTINUOUS
10
9.12947
20
-6.54205
11
9.12906
21
-6.54185
0
LINE
8
BLACK
6
CONTINUOUS
10
9.12906
20
-6.54185
11
9.12864
21
-6.5417
0
LINE
8
BLACK
6
CONTINUOUS
10
9.12864
20
-6.5417
11
9.1282
21
-6.54143
0
LINE
8
BLACK
6
CONTINUOUS
10
9.1282
20
-6.54143
11
9.12774
21
-6.54121
0
LINE
8
BLACK
6
CONTINUOUS
10
9.12774
20
-6.54121
11
9.12738
21
-6.54094
0
LINE
8
BLACK
6
CONTINUOUS
10
9.12738
20
-6.54094
11
9.12699
21
-6.54071
0
LINE
8
BLACK
6
CONTINUOUS
10
9.12699
20
-6.54071
11
9.12661
21
-6.54036
0
LINE
8
BLACK
6
CONTINUOUS
10
9.12661
20
-6.54036
11
9.1262
21
-6.54006
0
LINE
8
BLACK
6
CONTINUOUS
10
9.1262
20
-6.54006
11
9.1259
21
-6.53972
0
LINE
8
BLACK
6
CONTINUOUS
10
9.1259
20
-6.53972
11
9.12557
21
-6.53942
0
LINE
8
BLACK
6
CONTINUOUS
10
9.12557
20
-6.53942
11
9.12527
21
-6.53901
0
LINE
8
BLACK
6
CONTINUOUS
10
9.12527
20
-6.53901
11
9.12492
21
-6.53862
0
LINE
8
BLACK
6
CONTINUOUS
10
9.12492
20
-6.53862
11
9.12469
21
-6.53824
0
LINE
8
BLACK
6
CONTINUOUS
10
9.12469
20
-6.53824
11
9.12443
21
-6.53788
0
LINE
8
BLACK
6
CONTINUOUS
10
9.12443
20
-6.53788
11
9.12421
21
-6.53741
0
LINE
8
BLACK
6
CONTINUOUS
10
9.12421
20
-6.53741
11
9.12395
21
-6.53697
0
LINE
8
BLACK
6
CONTINUOUS
10
9.12395
20
-6.53697
11
9.07709
21
-6.43657
0
LINE
8
BLACK
6
CONTINUOUS
10
9.07709
20
-6.43657
11
9.07709
21
-6.58905
0
LINE
8
BLACK
6
CONTINUOUS
10
9.07709
20
-6.58905
11
9.07709
21
-6.58919
0
LINE
8
BLACK
6
CONTINUOUS
10
9.07709
20
-6.58919
11
9.07688
21
-6.5911
0
LINE
8
BLACK
6
CONTINUOUS
10
9.07688
20
-6.5911
11
9.07629
21
-6.59293
0
LINE
8
BLACK
6
CONTINUOUS
10
9.07629
20
-6.59293
11
9.07537
21
-6.59461
0
LINE
8
BLACK
6
CONTINUOUS
10
9.07537
20
-6.59461
11
9.07413
21
-6.59608
0
LINE
8
BLACK
6
CONTINUOUS
10
9.07413
20
-6.59608
11
9.07264
21
-6.59729
0
LINE
8
BLACK
6
CONTINUOUS
10
9.07264
20
-6.59729
11
9.07093
21
-6.59818
0
LINE
8
BLACK
6
CONTINUOUS
10
9.07093
20
-6.59818
11
9.06909
21
-6.59872
0
LINE
8
BLACK
6
CONTINUOUS
10
9.06909
20
-6.59872
11
9.06718
21
-6.59889
0
LINE
8
BLACK
6
CONTINUOUS
10
9.06718
20
-6.59889
11
9.06527
21
-6.59869
0
LINE
8
BLACK
6
CONTINUOUS
10
9.06527
20
-6.59869
11
9.06343
21
-6.59812
0
LINE
8
BLACK
6
CONTINUOUS
10
9.06343
20
-6.59812
11
9.06174
21
-6.59721
0
LINE
8
BLACK
6
CONTINUOUS
10
9.06174
20
-6.59721
11
9.06026
21
-6.59599
0
LINE
8
BLACK
6
CONTINUOUS
10
9.06026
20
-6.59599
11
9.05905
21
-6.5945
0
LINE
8
BLACK
6
CONTINUOUS
10
9.05905
20
-6.5945
11
9.05815
21
-6.5928
0
LINE
8
BLACK
6
CONTINUOUS
10
9.05815
20
-6.5928
11
9.05759
21
-6.59096
0
LINE
8
BLACK
6
CONTINUOUS
10
9.05759
20
-6.59096
11
9.05741
21
-6.58905
0
LINE
8
BLACK
6
CONTINUOUS
10
9.05741
20
-6.58905
11
9.05741
21
-6.3922
0
LINE
8
BLACK
6
CONTINUOUS
10
9.05741
20
-6.3922
11
9.05741
21
-6.39206
0
LINE
8
BLACK
6
CONTINUOUS
10
9.05741
20
-6.39206
11
9.05749
21
-6.39133
0
LINE
8
BLACK
6
CONTINUOUS
10
9.05749
20
-6.39133
11
9.05754
21
-6.3906
0
LINE
8
BLACK
6
CONTINUOUS
10
9.05754
20
-6.3906
11
9.0576
21
-6.39038
0
LINE
8
BLACK
6
CONTINUOUS
10
9.0576
20
-6.39038
11
9.05762
21
-6.39015
0
LINE
8
BLACK
6
CONTINUOUS
10
9.05762
20
-6.39015
11
9.05784
21
-6.38945
0
LINE
8
BLACK
6
CONTINUOUS
10
9.05784
20
-6.38945
11
9.05803
21
-6.38874
0
LINE
8
BLACK
6
CONTINUOUS
10
9.05803
20
-6.38874
11
9.05813
21
-6.38854
0
LINE
8
BLACK
6
CONTINUOUS
10
9.05813
20
-6.38854
11
9.0582
21
-6.38832
0
LINE
8
BLACK
6
CONTINUOUS
10
9.0582
20
-6.38832
11
9.05856
21
-6.38768
0
LINE
8
BLACK
6
CONTINUOUS
10
9.05856
20
-6.38768
11
9.05888
21
-6.38702
0
LINE
8
BLACK
6
CONTINUOUS
10
9.05888
20
-6.38702
11
9.05902
21
-6.38684
0
LINE
8
BLACK
6
CONTINUOUS
10
9.05902
20
-6.38684
11
9.05913
21
-6.38664
0
LINE
8
BLACK
6
CONTINUOUS
10
9.05913
20
-6.38664
11
9.0596
21
-6.38608
0
LINE
8
BLACK
6
CONTINUOUS
10
9.0596
20
-6.38608
11
9.06005
21
-6.38549
0
LINE
8
BLACK
6
CONTINUOUS
10
9.06005
20
-6.38549
11
9.06022
21
-6.38534
0
LINE
8
BLACK
6
CONTINUOUS
10
9.06022
20
-6.38534
11
9.06036
21
-6.38517
0
LINE
8
BLACK
6
CONTINUOUS
10
9.06036
20
-6.38517
11
9.06094
21
-6.38471
0
LINE
8
BLACK
6
CONTINUOUS
10
9.06094
20
-6.38471
11
9.06149
21
-6.38422
0
LINE
8
BLACK
6
CONTINUOUS
10
9.06149
20
-6.38422
11
9.06168
21
-6.38411
0
LINE
8
BLACK
6
CONTINUOUS
10
9.06168
20
-6.38411
11
9.06186
21
-6.38397
0
LINE
8
BLACK
6
CONTINUOUS
10
9.06186
20
-6.38397
11
9.06251
21
-6.38362
0
LINE
8
BLACK
6
CONTINUOUS
10
9.06251
20
-6.38362
11
9.06315
21
-6.38325
0
LINE
8
BLACK
6
CONTINUOUS
10
9.06315
20
-6.38325
11
9.06336
21
-6.38318
0
LINE
8
BLACK
6
CONTINUOUS
10
9.06336
20
-6.38318
11
9.06356
21
-6.38308
0
LINE
8
BLACK
6
CONTINUOUS
10
9.06356
20
-6.38308
11
9.06427
21
-6.38287
0
LINE
8
BLACK
6
CONTINUOUS
10
9.06427
20
-6.38287
11
9.06496
21
-6.38263
0
LINE
8
BLACK
6
CONTINUOUS
10
9.06496
20
-6.38263
11
9.06519
21
-6.3826
0
LINE
8
BLACK
6
CONTINUOUS
10
9.06519
20
-6.3826
11
9.0654
21
-6.38253
0
LINE
8
BLACK
6
CONTINUOUS
10
9.0654
20
-6.38253
11
9.06614
21
-6.38247
0
LINE
8
BLACK
6
CONTINUOUS
10
9.06614
20
-6.38247
11
9.06687
21
-6.38237
0
LINE
8
BLACK
6
CONTINUOUS
10
9.06687
20
-6.38237
11
9.06709
21
-6.38238
0
LINE
8
BLACK
6
CONTINUOUS
10
9.06709
20
-6.38238
11
9.06732
21
-6.38236
0
LINE
8
BLACK
6
CONTINUOUS
10
9.06732
20
-6.38236
11
9.06805
21
-6.38244
0
LINE
8
BLACK
6
CONTINUOUS
10
9.06805
20
-6.38244
11
9.06878
21
-6.38248
0
LINE
8
BLACK
6
CONTINUOUS
10
9.06878
20
-6.38248
11
9.069
21
-6.38254
0
LINE
8
BLACK
6
CONTINUOUS
10
9.069
20
-6.38254
11
9.06923
21
-6.38256
0
LINE
8
BLACK
6
CONTINUOUS
10
9.06923
20
-6.38256
11
9.06993
21
-6.38278
0
LINE
8
BLACK
6
CONTINUOUS
10
9.06993
20
-6.38278
11
9.07064
21
-6.38296
0
LINE
8
BLACK
6
CONTINUOUS
10
9.07064
20
-6.38296
11
9.07085
21
-6.38306
0
LINE
8
BLACK
6
CONTINUOUS
10
9.07085
20
-6.38306
11
9.07106
21
-6.38313
0
LINE
8
BLACK
6
CONTINUOUS
10
9.07106
20
-6.38313
11
9.07171
21
-6.38348
0
LINE
8
BLACK
6
CONTINUOUS
10
9.07171
20
-6.38348
11
9.07237
21
-6.3838
0
LINE
8
BLACK
6
CONTINUOUS
10
9.07237
20
-6.3838
11
9.07255
21
-6.38393
0
LINE
8
BLACK
6
CONTINUOUS
10
9.07255
20
-6.38393
11
9.07275
21
-6.38404
0
LINE
8
BLACK
6
CONTINUOUS
10
9.07275
20
-6.38404
11
9.07332
21
-6.38451
0
LINE
8
BLACK
6
CONTINUOUS
10
9.07332
20
-6.38451
11
9.07391
21
-6.38495
0
LINE
8
BLACK
6
CONTINUOUS
10
9.07391
20
-6.38495
11
9.07406
21
-6.38512
0
LINE
8
BLACK
6
CONTINUOUS
10
9.07406
20
-6.38512
11
9.07423
21
-6.38527
0
LINE
8
BLACK
6
CONTINUOUS
10
9.07423
20
-6.38527
11
9.0747
21
-6.38584
0
LINE
8
BLACK
6
CONTINUOUS
10
9.0747
20
-6.38584
11
9.07519
21
-6.38639
0
LINE
8
BLACK
6
CONTINUOUS
10
9.07519
20
-6.38639
11
9.0753
21
-6.38658
0
LINE
8
BLACK
6
CONTINUOUS
10
9.0753
20
-6.38658
11
9.07545
21
-6.38675
0
LINE
8
BLACK
6
CONTINUOUS
10
9.07545
20
-6.38675
11
9.07579
21
-6.3874
0
LINE
8
BLACK
6
CONTINUOUS
10
9.07579
20
-6.3874
11
9.07617
21
-6.38804
0
LINE
8
BLACK
6
CONTINUOUS
10
9.07617
20
-6.38804
11
9.13286
21
-6.50953
0
LINE
8
BLACK
6
CONTINUOUS
10
9.13286
20
-6.50953
11
9.18956
21
-6.38804
0
LINE
8
BLACK
6
CONTINUOUS
10
9.18956
20
-6.38804
11
9.18962
21
-6.38791
0
LINE
8
BLACK
6
CONTINUOUS
10
9.18962
20
-6.38791
11
9.19001
21
-6.38729
0
LINE
8
BLACK
6
CONTINUOUS
10
9.19001
20
-6.38729
11
9.19036
21
-6.38664
0
LINE
8
BLACK
6
CONTINUOUS
10
9.19036
20
-6.38664
11
9.1905
21
-6.38647
0
LINE
8
BLACK
6
CONTINUOUS
10
9.1905
20
-6.38647
11
9.19062
21
-6.38628
0
LINE
8
BLACK
6
CONTINUOUS
10
9.19062
20
-6.38628
11
9.19112
21
-6.38573
0
LINE
8
BLACK
6
CONTINUOUS
10
9.19112
20
-6.38573
11
9.19159
21
-6.38517
0
LINE
8
BLACK
6
CONTINUOUS
10
9.19159
20
-6.38517
11
9.19177
21
-6.38503
0
LINE
8
BLACK
6
CONTINUOUS
10
9.19177
20
-6.38503
11
9.19192
21
-6.38486
0
LINE
8
BLACK
6
CONTINUOUS
10
9.19192
20
-6.38486
11
9.19252
21
-6.38443
0
LINE
8
BLACK
6
CONTINUOUS
10
9.19252
20
-6.38443
11
9.19309
21
-6.38397
0
LINE
8
BLACK
6
CONTINUOUS
10
9.19309
20
-6.38397
11
9.19329
21
-6.38386
0
LINE
8
BLACK
6
CONTINUOUS
10
9.19329
20
-6.38386
11
9.19347
21
-6.38373
0
LINE
8
BLACK
6
CONTINUOUS
10
9.19347
20
-6.38373
11
9.19414
21
-6.38342
0
LINE
8
BLACK
6
CONTINUOUS
10
9.19414
20
-6.38342
11
9.19479
21
-6.38308
0
LINE
8
BLACK
6
CONTINUOUS
10
9.19479
20
-6.38308
11
9.19501
21
-6.38301
0
LINE
8
BLACK
6
CONTINUOUS
10
9.19501
20
-6.38301
11
9.19521
21
-6.38292
0
LINE
8
BLACK
6
CONTINUOUS
10
9.19521
20
-6.38292
11
9.19593
21
-6.38274
0
LINE
8
BLACK
6
CONTINUOUS
10
9.19593
20
-6.38274
11
9.19664
21
-6.38253
0
LINE
8
BLACK
6
CONTINUOUS
10
9.19664
20
-6.38253
11
9.19686
21
-6.38251
0
LINE
8
BLACK
6
CONTINUOUS
10
9.19686
20
-6.38251
11
9.19708
21
-6.38246
0
LINE
8
BLACK
6
CONTINUOUS
10
9.19708
20
-6.38246
11
9.19782
21
-6.38243
0
LINE
8
BLACK
6
CONTINUOUS
10
9.19782
20
-6.38243
11
9.19855
21
-6.38236
0
LINE
8
BLACK
6
CONTINUOUS
10
9.19855
20
-6.38236
11
9.19877
21
-6.38238
0
LINE
8
BLACK
6
CONTINUOUS
10
9.2942
20
-6.38256
11
9.29603
21
-6.38313
0
LINE
8
BLACK
6
CONTINUOUS
10
9.29603
20
-6.38313
11
9.29772
21
-6.38404
0
LINE
8
BLACK
6
CONTINUOUS
10
9.29772
20
-6.38404
11
9.2992
21
-6.38527
0
LINE
8
BLACK
6
CONTINUOUS
10
9.2992
20
-6.38527
11
9.30042
21
-6.38675
0
LINE
8
BLACK
6
CONTINUOUS
10
9.30042
20
-6.38675
11
9.30132
21
-6.38845
0
LINE
8
BLACK
6
CONTINUOUS
10
9.30132
20
-6.38845
11
9.30187
21
-6.39029
0
LINE
8
BLACK
6
CONTINUOUS
10
9.30187
20
-6.39029
11
9.30206
21
-6.3922
0
LINE
8
BLACK
6
CONTINUOUS
10
9.30206
20
-6.3922
11
9.30206
21
-6.58905
0
LINE
8
BLACK
6
CONTINUOUS
10
9.30206
20
-6.58905
11
9.30206
21
-6.58919
0
LINE
8
BLACK
6
CONTINUOUS
10
9.30206
20
-6.58919
11
9.30185
21
-6.5911
0
LINE
8
BLACK
6
CONTINUOUS
10
9.30185
20
-6.5911
11
9.30127
21
-6.59293
0
LINE
8
BLACK
6
CONTINUOUS
10
9.30127
20
-6.59293
11
9.30034
21
-6.59461
0
LINE
8
BLACK
6
CONTINUOUS
10
9.30034
20
-6.59461
11
9.29911
21
-6.59608
0
LINE
8
BLACK
6
CONTINUOUS
10
9.29911
20
-6.59608
11
9.29761
21
-6.59729
0
LINE
8
BLACK
6
CONTINUOUS
10
9.29761
20
-6.59729
11
9.29591
21
-6.59818
0
LINE
8
BLACK
6
CONTINUOUS
10
9.29591
20
-6.59818
11
9.29406
21
-6.59872
0
LINE
8
BLACK
6
CONTINUOUS
10
9.29406
20
-6.59872
11
9.29215
21
-6.59889
0
LINE
8
BLACK
6
CONTINUOUS
10
9.29215
20
-6.59889
11
9.29024
21
-6.59869
0
LINE
8
BLACK
6
CONTINUOUS
10
9.29024
20
-6.59869
11
9.28841
21
-6.59812
0
LINE
8
BLACK
6
CONTINUOUS
10
9.28841
20
-6.59812
11
9.28672
21
-6.59721
0
LINE
8
BLACK
6
CONTINUOUS
10
9.28672
20
-6.59721
11
9.28524
21
-6.59599
0
LINE
8
BLACK
6
CONTINUOUS
10
9.28524
20
-6.59599
11
9.28402
21
-6.5945
0
LINE
8
BLACK
6
CONTINUOUS
10
9.28402
20
-6.5945
11
9.28312
21
-6.5928
0
LINE
8
BLACK
6
CONTINUOUS
10
9.28312
20
-6.5928
11
9.28256
21
-6.59096
0
LINE
8
BLACK
6
CONTINUOUS
10
9.28256
20
-6.59096
11
9.28238
21
-6.58905
0
LINE
8
BLACK
6
CONTINUOUS
10
9.28238
20
-6.58905
11
9.28238
21
-6.3922
0
LINE
8
BLACK
6
CONTINUOUS
10
9.28238
20
-6.3922
11
9.28238
21
-6.39206
0
LINE
8
BLACK
6
CONTINUOUS
10
9.28238
20
-6.39206
11
9.28259
21
-6.39015
0
LINE
8
BLACK
6
CONTINUOUS
10
9.28259
20
-6.39015
11
9.28317
21
-6.38832
0
LINE
8
BLACK
6
CONTINUOUS
10
9.28317
20
-6.38832
11
9.2841
21
-6.38664
0
LINE
8
BLACK
6
CONTINUOUS
10
9.2841
20
-6.38664
11
9.28533
21
-6.38517
0
LINE
8
BLACK
6
CONTINUOUS
10
9.28533
20
-6.38517
11
9.28683
21
-6.38397
0
LINE
8
BLACK
6
CONTINUOUS
10
9.28683
20
-6.38397
11
9.28853
21
-6.38308
0
LINE
8
BLACK
6
CONTINUOUS
10
9.28853
20
-6.38308
11
9.29038
21
-6.38253
0
LINE
8
BLACK
6
CONTINUOUS
10
9.29038
20
-6.38253
11
9.29229
21
-6.38236
0
LINE
8
BLACK
6
CONTINUOUS
10
9.29229
20
-6.38236
11
9.2942
21
-6.38256
0
LINE
8
BLACK
6
CONTINUOUS
10
8.2282
20
-6.38236
11
8.22849
21
-6.38239
0
LINE
8
BLACK
6
CONTINUOUS
10
8.22849
20
-6.38239
11
8.22878
21
-6.38238
0
LINE
8
BLACK
6
CONTINUOUS
10
8.22878
20
-6.38238
11
8.22944
21
-6.3825
0
LINE
8
BLACK
6
CONTINUOUS
10
8.22944
20
-6.3825
11
8.23011
21
-6.38257
0
LINE
8
BLACK
6
CONTINUOUS
10
8.23011
20
-6.38257
11
8.23039
21
-6.38266
0
LINE
8
BLACK
6
CONTINUOUS
10
8.23039
20
-6.38266
11
8.23067
21
-6.38271
0
LINE
8
BLACK
6
CONTINUOUS
10
8.23067
20
-6.38271
11
8.2313
21
-6.38295
0
LINE
8
BLACK
6
CONTINUOUS
10
8.2313
20
-6.38295
11
8.23194
21
-6.38315
0
LINE
8
BLACK
6
CONTINUOUS
10
8.23194
20
-6.38315
11
8.2322
21
-6.38329
0
LINE
8
BLACK
6
CONTINUOUS
10
8.2322
20
-6.38329
11
8.23247
21
-6.3834
0
LINE
8
BLACK
6
CONTINUOUS
10
8.23247
20
-6.3834
11
8.25121
21
-6.39277
0
LINE
8
BLACK
6
CONTINUOUS
10
8.25121
20
-6.39277
11
8.25134
21
-6.39283
0
LINE
8
BLACK
6
CONTINUOUS
10
8.25134
20
-6.39283
11
8.2518
21
-6.39313
0
LINE
8
BLACK
6
CONTINUOUS
10
8.2518
20
-6.39313
11
8.25229
21
-6.3934
0
LINE
8
BLACK
6
CONTINUOUS
10
8.25229
20
-6.3934
11
8.25261
21
-6.39366
0
LINE
8
BLACK
6
CONTINUOUS
10
8.25261
20
-6.39366
11
8.25295
21
-6.39388
0
LINE
8
BLACK
6
CONTINUOUS
10
8.25295
20
-6.39388
11
8.25335
21
-6.39426
0
LINE
8
BLACK
6
CONTINUOUS
10
8.25335
20
-6.39426
11
8.25377
21
-6.39462
0
LINE
8
BLACK
6
CONTINUOUS
10
8.25377
20
-6.39462
11
8.26315
21
-6.40399
0
LINE
8
BLACK
6
CONTINUOUS
10
8.26315
20
-6.40399
11
8.26324
21
-6.40409
0
LINE
8
BLACK
6
CONTINUOUS
10
8.26324
20
-6.40409
11
8.26359
21
-6.40452
0
LINE
8
BLACK
6
CONTINUOUS
10
8.26359
20
-6.40452
11
8.26397
21
-6.40492
0
LINE
8
BLACK
6
CONTINUOUS
10
8.26397
20
-6.40492
11
8.26419
21
-6.40527
0
LINE
8
BLACK
6
CONTINUOUS
10
8.26419
20
-6.40527
11
8.26444
21
-6.40559
0
LINE
8
BLACK
6
CONTINUOUS
10
8.26444
20
-6.40559
11
8.2647
21
-6.40608
0
LINE
8
BLACK
6
CONTINUOUS
10
8.2647
20
-6.40608
11
8.26499
21
-6.40655
0
LINE
8
BLACK
6
CONTINUOUS
10
8.26499
20
-6.40655
11
8.27436
21
-6.42529
0
LINE
8
BLACK
6
CONTINUOUS
10
8.27436
20
-6.42529
11
8.27442
21
-6.42542
0
LINE
8
BLACK
6
CONTINUOUS
10
8.27442
20
-6.42542
11
8.27452
21
-6.42569
0
LINE
8
BLACK
6
CONTINUOUS
10
8.27452
20
-6.42569
11
8.27466
21
-6.42595
0
LINE
8
BLACK
6
CONTINUOUS
10
8.27466
20
-6.42595
11
8.27485
21
-6.42659
0
LINE
8
BLACK
6
CONTINUOUS
10
8.27485
20
-6.42659
11
8.27509
21
-6.42722
0
LINE
8
BLACK
6
CONTINUOUS
10
8.27509
20
-6.42722
11
8.27513
21
-6.42751
0
LINE
8
BLACK
6
CONTINUOUS
10
8.27513
20
-6.42751
11
8.27522
21
-6.42778
0
LINE
8
BLACK
6
CONTINUOUS
10
8.27522
20
-6.42778
11
8.27528
21
-6.42845
0
LINE
8
BLACK
6
CONTINUOUS
10
8.27528
20
-6.42845
11
8.27539
21
-6.42912
0
LINE
8
BLACK
6
CONTINUOUS
10
8.27539
20
-6.42912
11
8.27537
21
-6.42941
0
LINE
8
BLACK
6
CONTINUOUS
10
8.27537
20
-6.42941
11
8.2754
21
-6.4297
0
LINE
8
BLACK
6
CONTINUOUS
10
8.2754
20
-6.4297
11
8.2754
21
-6.45782
0
LINE
8
BLACK
6
CONTINUOUS
10
8.2754
20
-6.45782
11
8.2754
21
-6.45796
0
LINE
8
BLACK
6
CONTINUOUS
10
8.2754
20
-6.45796
11
8.27537
21
-6.45824
0
LINE
8
BLACK
6
CONTINUOUS
10
8.27537
20
-6.45824
11
8.27538
21
-6.45853
0
LINE
8
BLACK
6
CONTINUOUS
10
8.27538
20
-6.45853
11
8.27526
21
-6.4592
0
LINE
8
BLACK
6
CONTINUOUS
10
8.27526
20
-6.4592
11
8.27519
21
-6.45986
0
LINE
8
BLACK
6
CONTINUOUS
10
8.27519
20
-6.45986
11
8.2751
21
-6.46014
0
LINE
8
BLACK
6
CONTINUOUS
10
8.2751
20
-6.46014
11
8.27505
21
-6.46043
0
LINE
8
BLACK
6
CONTINUOUS
10
8.27505
20
-6.46043
11
8.27481
21
-6.46105
0
LINE
8
BLACK
6
CONTINUOUS
10
8.27481
20
-6.46105
11
8.27461
21
-6.4617
0
LINE
8
BLACK
6
CONTINUOUS
10
8.27461
20
-6.4617
11
8.27447
21
-6.46195
0
LINE
8
BLACK
6
CONTINUOUS
10
8.27447
20
-6.46195
11
8.27436
21
-6.46222
0
LINE
8
BLACK
6
CONTINUOUS
10
8.27436
20
-6.46222
11
8.26499
21
-6.48097
0
LINE
8
BLACK
6
CONTINUOUS
10
8.26499
20
-6.48097
11
8.26493
21
-6.48109
0
LINE
8
BLACK
6
CONTINUOUS
10
8.26493
20
-6.48109
11
8.26463
21
-6.48155
0
LINE
8
BLACK
6
CONTINUOUS
10
8.26463
20
-6.48155
11
8.26437
21
-6.48204
0
LINE
8
BLACK
6
CONTINUOUS
10
8.26437
20
-6.48204
11
8.26411
21
-6.48236
0
LINE
8
BLACK
6
CONTINUOUS
10
8.26411
20
-6.48236
11
8.26388
21
-6.4827
0
LINE
8
BLACK
6
CONTINUOUS
10
8.26388
20
-6.4827
11
8.2635
21
-6.4831
0
LINE
8
BLACK
6
CONTINUOUS
10
8.2635
20
-6.4831
11
8.26315
21
-6.48353
0
LINE
8
BLACK
6
CONTINUOUS
10
8.26315
20
-6.48353
11
8.25377
21
-6.4929
0
LINE
8
BLACK
6
CONTINUOUS
10
8.25377
20
-6.4929
11
8.25367
21
-6.493
0
LINE
8
BLACK
6
CONTINUOUS
10
8.25367
20
-6.493
11
8.25324
21
-6.49334
0
LINE
8
BLACK
6
CONTINUOUS
10
8.25324
20
-6.49334
11
8.25284
21
-6.49372
0
LINE
8
BLACK
6
CONTINUOUS
10
8.25284
20
-6.49372
11
8.25249
21
-6.49394
0
LINE
8
BLACK
6
CONTINUOUS
10
8.25249
20
-6.49394
11
8.25217
21
-6.49419
0
LINE
8
BLACK
6
CONTINUOUS
10
8.25217
20
-6.49419
11
8.25168
21
-6.49445
0
LINE
8
BLACK
6
CONTINUOUS
10
8.25168
20
-6.49445
11
8.25121
21
-6.49474
0
LINE
8
BLACK
6
CONTINUOUS
10
8.25121
20
-6.49474
11
8.23247
21
-6.50412
0
LINE
8
BLACK
6
CONTINUOUS
10
8.23247
20
-6.50412
11
8.23234
21
-6.50418
0
LINE
8
BLACK
6
CONTINUOUS
10
8.23234
20
-6.50418
11
8.23207
21
-6.50428
0
LINE
8
BLACK
6
CONTINUOUS
10
8.23207
20
-6.50428
11
8.23182
21
-6.50441
0
LINE
8
BLACK
6
CONTINUOUS
10
8.23182
20
-6.50441
11
8.23117
21
-6.50461
0
LINE
8
BLACK
6
CONTINUOUS
10
8.23117
20
-6.50461
11
8.23054
21
-6.50484
0
LINE
8
BLACK
6
CONTINUOUS
10
8.23054
20
-6.50484
11
8.23025
21
-6.50488
0
LINE
8
BLACK
6
CONTINUOUS
10
8.23025
20
-6.50488
11
8.22998
21
-6.50497
0
LINE
8
BLACK
6
CONTINUOUS
10
8.22998
20
-6.50497
11
8.22931
21
-6.50503
0
LINE
8
BLACK
6
CONTINUOUS
10
8.22931
20
-6.50503
11
8.22864
21
-6.50514
0
LINE
8
BLACK
6
CONTINUOUS
10
8.22864
20
-6.50514
11
8.22835
21
-6.50513
0
LINE
8
BLACK
6
CONTINUOUS
10
8.22835
20
-6.50513
11
8.22807
21
-6.50516
0
LINE
8
BLACK
6
CONTINUOUS
10
8.22807
20
-6.50516
11
8.21885
21
-6.50516
0
LINE
8
BLACK
6
CONTINUOUS
10
8.21885
20
-6.50516
11
8.27362
21
-6.58341
0
LINE
8
BLACK
6
CONTINUOUS
10
8.27362
20
-6.58341
11
8.2737
21
-6.58352
0
LINE
8
BLACK
6
CONTINUOUS
10
8.2737
20
-6.58352
11
8.27462
21
-6.58521
0
LINE
8
BLACK
6
CONTINUOUS
10
8.27462
20
-6.58521
11
8.2752
21
-6.58704
0
LINE
8
BLACK
6
CONTINUOUS
10
8.2752
20
-6.58704
11
8.2754
21
-6.58895
0
LINE
8
BLACK
6
CONTINUOUS
10
8.2754
20
-6.58895
11
8.27523
21
-6.59086
0
LINE
8
BLACK
6
CONTINUOUS
10
8.27523
20
-6.59086
11
8.2747
21
-6.59271
0
LINE
8
BLACK
6
CONTINUOUS
10
8.2747
20
-6.59271
11
8.27381
21
-6.59441
0
LINE
8
BLACK
6
CONTINUOUS
10
8.27381
20
-6.59441
11
8.27262
21
-6.59591
0
LINE
8
BLACK
6
CONTINUOUS
10
8.27262
20
-6.59591
11
8.27115
21
-6.59715
0
LINE
8
BLACK
6
CONTINUOUS
10
8.27115
20
-6.59715
11
8.26947
21
-6.59808
0
LINE
8
BLACK
6
CONTINUOUS
10
8.26947
20
-6.59808
11
8.26764
21
-6.59867
0
LINE
8
BLACK
6
CONTINUOUS
10
8.26764
20
-6.59867
11
8.26573
21
-6.59889
0
LINE
8
BLACK
6
CONTINUOUS
10
8.26573
20
-6.59889
11
8.26382
21
-6.59874
0
LINE
8
BLACK
6
CONTINUOUS
10
8.26382
20
-6.59874
11
8.26197
21
-6.59821
0
LINE
8
BLACK
6
CONTINUOUS
10
8.26197
20
-6.59821
11
8.26026
21
-6.59734
0
LINE
8
BLACK
6
CONTINUOUS
10
8.26026
20
-6.59734
11
8.25875
21
-6.59615
0
LINE
8
BLACK
6
CONTINUOUS
10
8.25875
20
-6.59615
11
8.2575
21
-6.5947
0
LINE
8
BLACK
6
CONTINUOUS
10
8.2575
20
-6.5947
11
8.19482
21
-6.50516
0
LINE
8
BLACK
6
CONTINUOUS
10
8.19482
20
-6.50516
11
8.16292
21
-6.50516
0
LINE
8
BLACK
6
CONTINUOUS
10
8.16292
20
-6.50516
11
8.16292
21
-6.58905
0
LINE
8
BLACK
6
CONTINUOUS
10
8.16292
20
-6.58905
11
8.16292
21
-6.58919
0
LINE
8
BLACK
6
CONTINUOUS
10
8.16292
20
-6.58919
11
8.1627
21
-6.5911
0
LINE
8
BLACK
6
CONTINUOUS
10
8.1627
20
-6.5911
11
8.16212
21
-6.59293
0
LINE
8
BLACK
6
CONTINUOUS
10
8.16212
20
-6.59293
11
8.1612
21
-6.59461
0
LINE
8
BLACK
6
CONTINUOUS
10
8.1612
20
-6.59461
11
8.15996
21
-6.59608
0
LINE
8
BLACK
6
CONTINUOUS
10
8.15996
20
-6.59608
11
8.15846
21
-6.59729
0
LINE
8
BLACK
6
CONTINUOUS
10
8.15846
20
-6.59729
11
8.15676
21
-6.59818
0
LINE
8
BLACK
6
CONTINUOUS
10
8.15676
20
-6.59818
11
8.15492
21
-6.59872
0
LINE
8
BLACK
6
CONTINUOUS
10
8.15492
20
-6.59872
11
8.15301
21
-6.59889
0
LINE
8
BLACK
6
CONTINUOUS
10
8.15301
20
-6.59889
11
8.1511
21
-6.59869
0
LINE
8
BLACK
6
CONTINUOUS
10
8.1511
20
-6.59869
11
8.14926
21
-6.59812
0
LINE
8
BLACK
6
CONTINUOUS
10
8.14926
20
-6.59812
11
8.14757
21
-6.59721
0
LINE
8
BLACK
6
CONTINUOUS
10
8.14757
20
-6.59721
11
8.14609
21
-6.59599
0
LINE
8
BLACK
6
CONTINUOUS
10
8.14609
20
-6.59599
11
8.14488
21
-6.5945
0
LINE
8
BLACK
6
CONTINUOUS
10
8.14488
20
-6.5945
11
8.14397
21
-6.5928
0
LINE
8
BLACK
6
CONTINUOUS
10
8.14397
20
-6.5928
11
8.14342
21
-6.59096
0
LINE
8
BLACK
6
CONTINUOUS
10
8.14342
20
-6.59096
11
8.14323
21
-6.58905
0
LINE
8
BLACK
6
CONTINUOUS
10
8.14323
20
-6.58905
11
8.14323
21
-6.3922
0
LINE
8
BLACK
6
CONTINUOUS
10
8.14323
20
-6.3922
11
8.14323
21
-6.39213
0
LINE
8
BLACK
6
CONTINUOUS
10
8.14323
20
-6.39213
11
8.14323
21
-6.39213
0
LINE
8
BLACK
6
CONTINUOUS
10
8.14323
20
-6.39213
11
8.14323
21
-6.39213
0
LINE
8
BLACK
6
CONTINUOUS
10
8.14323
20
-6.39213
11
8.14323
21
-6.39206
0
LINE
8
BLACK
6
CONTINUOUS
10
8.14323
20
-6.39206
11
8.14334
21
-6.39114
0
LINE
8
BLACK
6
CONTINUOUS
10
8.14334
20
-6.39114
11
8.14343
21
-6.39022
0
LINE
8
BLACK
6
CONTINUOUS
10
8.14343
20
-6.39022
11
8.14344
21
-6.39019
0
LINE
8
BLACK
6
CONTINUOUS
10
8.14344
20
-6.39019
11
8.14345
21
-6.39015
0
LINE
8
BLACK
6
CONTINUOUS
10
8.14345
20
-6.39015
11
8.14373
21
-6.38927
0
LINE
8
BLACK
6
CONTINUOUS
10
8.14373
20
-6.38927
11
8.144
21
-6.38839
0
LINE
8
BLACK
6
CONTINUOUS
10
8.144
20
-6.38839
11
8.14402
21
-6.38836
0
LINE
8
BLACK
6
CONTINUOUS
10
8.14402
20
-6.38836
11
8.14403
21
-6.38832
0
LINE
8
BLACK
6
CONTINUOUS
10
8.14403
20
-6.38832
11
8.14447
21
-6.38751
0
LINE
8
BLACK
6
CONTINUOUS
10
8.14447
20
-6.38751
11
8.14491
21
-6.3867
0
LINE
8
BLACK
6
CONTINUOUS
10
8.14491
20
-6.3867
11
8.14494
21
-6.38667
0
LINE
8
BLACK
6
CONTINUOUS
10
8.14494
20
-6.38667
11
8.14495
21
-6.38664
0
LINE
8
BLACK
6
CONTINUOUS
10
8.14495
20
-6.38664
11
8.14555
21
-6.38593
0
LINE
8
BLACK
6
CONTINUOUS
10
8.14555
20
-6.38593
11
8.14614
21
-6.38522
0
LINE
8
BLACK
6
CONTINUOUS
10
8.14614
20
-6.38522
11
8.14617
21
-6.3852
0
LINE
8
BLACK
6
CONTINUOUS
10
8.14617
20
-6.3852
11
8.14619
21
-6.38517
0
LINE
8
BLACK
6
CONTINUOUS
10
8.14619
20
-6.38517
11
8.14691
21
-6.38459
0
LINE
8
BLACK
6
CONTINUOUS
10
8.14691
20
-6.38459
11
8.14763
21
-6.384
0
LINE
8
BLACK
6
CONTINUOUS
10
8.14763
20
-6.384
11
8.14766
21
-6.38399
0
LINE
8
BLACK
6
CONTINUOUS
10
8.14766
20
-6.38399
11
8.14769
21
-6.38397
0
LINE
8
BLACK
6
CONTINUOUS
10
8.14769
20
-6.38397
11
8.14851
21
-6.38354
0
LINE
8
BLACK
6
CONTINUOUS
10
8.14851
20
-6.38354
11
8.14932
21
-6.3831
0
LINE
8
BLACK
6
CONTINUOUS
10
8.14932
20
-6.3831
11
8.14936
21
-6.38309
0
LINE
8
BLACK
6
CONTINUOUS
10
8.14936
20
-6.38309
11
8.14939
21
-6.38308
0
LINE
8
BLACK
6
CONTINUOUS
10
8.14939
20
-6.38308
11
8.15027
21
-6.38281
0
LINE
8
BLACK
6
CONTINUOUS
10
8.15027
20
-6.38281
11
8.15116
21
-6.38255
0
LINE
8
BLACK
6
CONTINUOUS
10
8.15116
20
-6.38255
11
8.1512
21
-6.38254
0
LINE
8
BLACK
6
CONTINUOUS
10
8.1512
20
-6.38254
11
8.15123
21
-6.38253
0
LINE
8
BLACK
6
CONTINUOUS
10
8.15123
20
-6.38253
11
8.15215
21
-6.38245
0
LINE
8
BLACK
6
CONTINUOUS
10
8.15215
20
-6.38245
11
8.15307
21
-6.38236
0
LINE
8
BLACK
6
CONTINUOUS
10
8.15307
20
-6.38236
11
8.22807
21
-6.38236
0
LINE
8
BLACK
6
CONTINUOUS
10
8.22807
20
-6.38236
11
8.2282
21
-6.38236
0
LINE
8
BLACK
6
CONTINUOUS
10
8.16292
20
-6.40204
11
8.16292
21
-6.48547
0
LINE
8
BLACK
6
CONTINUOUS
10
8.16292
20
-6.48547
11
8.22574
21
-6.48547
0
LINE
8
BLACK
6
CONTINUOUS
10
8.22574
20
-6.48547
11
8.24098
21
-6.47785
0
LINE
8
BLACK
6
CONTINUOUS
10
8.24098
20
-6.47785
11
8.2481
21
-6.47074
0
LINE
8
BLACK
6
CONTINUOUS
10
8.2481
20
-6.47074
11
8.25572
21
-6.45549
0
LINE
8
BLACK
6
CONTINUOUS
10
8.25572
20
-6.45549
11
8.25572
21
-6.43202
0
LINE
8
BLACK
6
CONTINUOUS
10
8.25572
20
-6.43202
11
8.2481
21
-6.41678
0
LINE
8
BLACK
6
CONTINUOUS
10
8.2481
20
-6.41678
11
8.24098
21
-6.40966
0
LINE
8
BLACK
6
CONTINUOUS
10
8.24098
20
-6.40966
11
8.22574
21
-6.40204
0
LINE
8
BLACK
6
CONTINUOUS
10
8.22574
20
-6.40204
11
8.16292
21
-6.40204
0
LINE
8
BLACK
6
CONTINUOUS
10
8.06132
20
-6.38256
11
8.06315
21
-6.38313
0
LINE
8
BLACK
6
CONTINUOUS
10
8.06315
20
-6.38313
11
8.06484
21
-6.38404
0
LINE
8
BLACK
6
CONTINUOUS
10
8.06484
20
-6.38404
11
8.06632
21
-6.38527
0
LINE
8
BLACK
6
CONTINUOUS
10
8.06632
20
-6.38527
11
8.06753
21
-6.38675
0
LINE
8
BLACK
6
CONTINUOUS
10
8.06753
20
-6.38675
11
8.06844
21
-6.38845
0
LINE
8
BLACK
6
CONTINUOUS
10
8.06844
20
-6.38845
11
8.06899
21
-6.39029
0
LINE
8
BLACK
6
CONTINUOUS
10
8.06899
20
-6.39029
11
8.06918
21
-6.3922
0
LINE
8
BLACK
6
CONTINUOUS
10
8.06918
20
-6.3922
11
8.06918
21
-6.58905
0
LINE
8
BLACK
6
CONTINUOUS
10
8.06918
20
-6.58905
11
8.06918
21
-6.58919
0
LINE
8
BLACK
6
CONTINUOUS
10
8.06918
20
-6.58919
11
8.06896
21
-6.5911
0
LINE
8
BLACK
6
CONTINUOUS
10
8.06896
20
-6.5911
11
8.06838
21
-6.59293
0
LINE
8
BLACK
6
CONTINUOUS
10
8.06838
20
-6.59293
11
8.06746
21
-6.59461
0
LINE
8
BLACK
6
CONTINUOUS
10
8.06746
20
-6.59461
11
8.06622
21
-6.59608
0
LINE
8
BLACK
6
CONTINUOUS
10
8.06622
20
-6.59608
11
8.06473
21
-6.59729
0
LINE
8
BLACK
6
CONTINUOUS
10
8.06473
20
-6.59729
11
8.06302
21
-6.59818
0
LINE
8
BLACK
6
CONTINUOUS
10
8.06302
20
-6.59818
11
8.06118
21
-6.59872
0
LINE
8
BLACK
6
CONTINUOUS
10
8.06118
20
-6.59872
11
8.05927
21
-6.59889
0
LINE
8
BLACK
6
CONTINUOUS
10
8.05927
20
-6.59889
11
8.05736
21
-6.59869
0
LINE
8
BLACK
6
CONTINUOUS
10
8.05736
20
-6.59869
11
8.05552
21
-6.59812
0
LINE
8
BLACK
6
CONTINUOUS
10
8.05552
20
-6.59812
11
8.05383
21
-6.59721
0
LINE
8
BLACK
6
CONTINUOUS
10
8.05383
20
-6.59721
11
8.05235
21
-6.59599
0
LINE
8
BLACK
6
CONTINUOUS
10
8.05235
20
-6.59599
11
8.05114
21
-6.5945
0
LINE
8
BLACK
6
CONTINUOUS
10
8.05114
20
-6.5945
11
8.05024
21
-6.5928
0
LINE
8
BLACK
6
CONTINUOUS
10
8.05024
20
-6.5928
11
8.04968
21
-6.59096
0
LINE
8
BLACK
6
CONTINUOUS
10
8.04968
20
-6.59096
11
8.04949
21
-6.58905
0
LINE
8
BLACK
6
CONTINUOUS
10
8.04949
20
-6.58905
11
8.04949
21
-6.49578
0
LINE
8
BLACK
6
CONTINUOUS
10
8.04949
20
-6.49578
11
7.95669
21
-6.49578
0
LINE
8
BLACK
6
CONTINUOUS
10
7.95669
20
-6.49578
11
7.95669
21
-6.58905
0
LINE
8
BLACK
6
CONTINUOUS
10
7.95669
20
-6.58905
11
7.95669
21
-6.58919
0
LINE
8
BLACK
6
CONTINUOUS
10
7.95669
20
-6.58919
11
7.95648
21
-6.5911
0
LINE
8
BLACK
6
CONTINUOUS
10
7.95648
20
-6.5911
11
7.9559
21
-6.59293
0
LINE
8
BLACK
6
CONTINUOUS
10
7.9559
20
-6.59293
11
7.95497
21
-6.59461
0
LINE
8
BLACK
6
CONTINUOUS
10
7.95497
20
-6.59461
11
7.95374
21
-6.59608
0
LINE
8
BLACK
6
CONTINUOUS
10
7.95374
20
-6.59608
11
7.95224
21
-6.59729
0
LINE
8
BLACK
6
CONTINUOUS
10
7.95224
20
-6.59729
11
7.95054
21
-6.59818
0
LINE
8
BLACK
6
CONTINUOUS
10
7.95054
20
-6.59818
11
7.94869
21
-6.59872
0
LINE
8
BLACK
6
CONTINUOUS
10
7.94869
20
-6.59872
11
7.94678
21
-6.59889
0
LINE
8
BLACK
6
CONTINUOUS
10
7.94678
20
-6.59889
11
7.94487
21
-6.59869
0
LINE
8
BLACK
6
CONTINUOUS
10
7.94487
20
-6.59869
11
7.94304
21
-6.59812
0
LINE
8
BLACK
6
CONTINUOUS
10
7.94304
20
-6.59812
11
7.94135
21
-6.59721
0
LINE
8
BLACK
6
CONTINUOUS
10
7.94135
20
-6.59721
11
7.93987
21
-6.59599
0
LINE
8
BLACK
6
CONTINUOUS
10
7.93987
20
-6.59599
11
7.93865
21
-6.5945
0
LINE
8
BLACK
6
CONTINUOUS
10
7.93865
20
-6.5945
11
7.93775
21
-6.5928
0
LINE
8
BLACK
6
CONTINUOUS
10
7.93775
20
-6.5928
11
7.9372
21
-6.59096
0
LINE
8
BLACK
6
CONTINUOUS
10
7.9372
20
-6.59096
11
7.93701
21
-6.58905
0
LINE
8
BLACK
6
CONTINUOUS
10
7.93701
20
-6.58905
11
7.93701
21
-6.3922
0
LINE
8
BLACK
6
CONTINUOUS
10
7.93701
20
-6.3922
11
7.93701
21
-6.39206
0
LINE
8
BLACK
6
CONTINUOUS
10
7.93701
20
-6.39206
11
7.93722
21
-6.39015
0
LINE
8
BLACK
6
CONTINUOUS
10
7.93722
20
-6.39015
11
7.9378
21
-6.38832
0
LINE
8
BLACK
6
CONTINUOUS
10
7.9378
20
-6.38832
11
7.93873
21
-6.38664
0
LINE
8
BLACK
6
CONTINUOUS
10
7.93873
20
-6.38664
11
7.93996
21
-6.38517
0
LINE
8
BLACK
6
CONTINUOUS
10
7.93996
20
-6.38517
11
7.94146
21
-6.38397
0
LINE
8
BLACK
6
CONTINUOUS
10
7.94146
20
-6.38397
11
7.94316
21
-6.38308
0
LINE
8
BLACK
6
CONTINUOUS
10
7.94316
20
-6.38308
11
7.94501
21
-6.38253
0
LINE
8
BLACK
6
CONTINUOUS
10
7.94501
20
-6.38253
11
7.94692
21
-6.38236
0
LINE
8
BLACK
6
CONTINUOUS
10
7.94692
20
-6.38236
11
7.94883
21
-6.38256
0
LINE
8
BLACK
6
CONTINUOUS
10
7.94883
20
-6.38256
11
7.95066
21
-6.38313
0
LINE
8
BLACK
6
CONTINUOUS
10
7.95066
20
-6.38313
11
7.95235
21
-6.38404
0
LINE
8
BLACK
6
CONTINUOUS
10
7.95235
20
-6.38404
11
7.95383
21
-6.38527
0
LINE
8
BLACK
6
CONTINUOUS
10
7.95383
20
-6.38527
11
7.95505
21
-6.38675
0
LINE
8
BLACK
6
CONTINUOUS
10
7.95505
20
-6.38675
11
7.95595
21
-6.38845
0
LINE
8
BLACK
6
CONTINUOUS
10
7.95595
20
-6.38845
11
7.95651
21
-6.39029
0
LINE
8
BLACK
6
CONTINUOUS
10
7.95651
20
-6.39029
11
7.95669
21
-6.3922
0
LINE
8
BLACK
6
CONTINUOUS
10
7.95669
20
-6.3922
11
7.95669
21
-6.4761
0
LINE
8
BLACK
6
CONTINUOUS
10
7.95669
20
-6.4761
11
8.04949
21
-6.4761
0
LINE
8
BLACK
6
CONTINUOUS
10
8.04949
20
-6.4761
11
8.04949
21
-6.3922
0
LINE
8
BLACK
6
CONTINUOUS
10
8.04949
20
-6.3922
11
8.04949
21
-6.39206
0
LINE
8
BLACK
6
CONTINUOUS
10
8.04949
20
-6.39206
11
8.04971
21
-6.39015
0
LINE
8
BLACK
6
CONTINUOUS
10
8.04971
20
-6.39015
11
8.05029
21
-6.38832
0
LINE
8
BLACK
6
CONTINUOUS
10
8.05029
20
-6.38832
11
8.05122
21
-6.38664
0
LINE
8
BLACK
6
CONTINUOUS
10
8.05122
20
-6.38664
11
8.05245
21
-6.38517
0
LINE
8
BLACK
6
CONTINUOUS
10
8.05245
20
-6.38517
11
8.05395
21
-6.38397
0
LINE
8
BLACK
6
CONTINUOUS
10
8.05395
20
-6.38397
11
8.05565
21
-6.38308
0
LINE
8
BLACK
6
CONTINUOUS
10
8.05565
20
-6.38308
11
8.05749
21
-6.38253
0
LINE
8
BLACK
6
CONTINUOUS
10
8.05749
20
-6.38253
11
8.0594
21
-6.38236
0
LINE
8
BLACK
6
CONTINUOUS
10
8.0594
20
-6.38236
11
8.06132
21
-6.38256
0
LINE
8
BLACK
6
CONTINUOUS
10
7.88137
20
-6.38236
11
7.88328
21
-6.38257
0
LINE
8
BLACK
6
CONTINUOUS
10
7.88328
20
-6.38257
11
7.88511
21
-6.38315
0
LINE
8
BLACK
6
CONTINUOUS
10
7.88511
20
-6.38315
11
7.88679
21
-6.38408
0
LINE
8
BLACK
6
CONTINUOUS
10
7.88679
20
-6.38408
11
7.88827
21
-6.38531
0
LINE
8
BLACK
6
CONTINUOUS
10
7.88827
20
-6.38531
11
7.88947
21
-6.38681
0
LINE
8
BLACK
6
CONTINUOUS
10
7.88947
20
-6.38681
11
7.89036
21
-6.38851
0
LINE
8
BLACK
6
CONTINUOUS
10
7.89036
20
-6.38851
11
7.8909
21
-6.39036
0
LINE
8
BLACK
6
CONTINUOUS
10
7.8909
20
-6.39036
11
7.89108
21
-6.39227
0
LINE
8
BLACK
6
CONTINUOUS
10
7.89108
20
-6.39227
11
7.89088
21
-6.39418
0
LINE
8
BLACK
6
CONTINUOUS
10
7.89088
20
-6.39418
11
7.89031
21
-6.39602
0
LINE
8
BLACK
6
CONTINUOUS
10
7.89031
20
-6.39602
11
7.88939
21
-6.3977
0
LINE
8
BLACK
6
CONTINUOUS
10
7.88939
20
-6.3977
11
7.88817
21
-6.39918
0
LINE
8
BLACK
6
CONTINUOUS
10
7.88817
20
-6.39918
11
7.88668
21
-6.4004
0
LINE
8
BLACK
6
CONTINUOUS
10
7.88668
20
-6.4004
11
7.88498
21
-6.4013
0
LINE
8
BLACK
6
CONTINUOUS
10
7.88498
20
-6.4013
11
7.88315
21
-6.40186
0
LINE
8
BLACK
6
CONTINUOUS
10
7.88315
20
-6.40186
11
7.88123
21
-6.40204
0
LINE
8
BLACK
6
CONTINUOUS
10
7.88123
20
-6.40204
11
7.83483
21
-6.40204
0
LINE
8
BLACK
6
CONTINUOUS
10
7.83483
20
-6.40204
11
7.83483
21
-6.58905
0
LINE
8
BLACK
6
CONTINUOUS
10
7.83483
20
-6.58905
11
7.83483
21
-6.58919
0
LINE
8
BLACK
6
CONTINUOUS
10
7.83483
20
-6.58919
11
7.83462
21
-6.5911
0
LINE
8
BLACK
6
CONTINUOUS
10
7.83462
20
-6.5911
11
7.83404
21
-6.59293
0
LINE
8
BLACK
6
CONTINUOUS
10
7.83404
20
-6.59293
11
7.83311
21
-6.59461
0
LINE
8
BLACK
6
CONTINUOUS
10
7.83311
20
-6.59461
11
7.83188
21
-6.59608
0
LINE
8
BLACK
6
CONTINUOUS
10
7.83188
20
-6.59608
11
7.83038
21
-6.59729
0
LINE
8
BLACK
6
CONTINUOUS
10
7.83038
20
-6.59729
11
7.82868
21
-6.59818
0
LINE
8
BLACK
6
CONTINUOUS
10
7.82868
20
-6.59818
11
7.82683
21
-6.59872
0
LINE
8
BLACK
6
CONTINUOUS
10
7.82683
20
-6.59872
11
7.82492
21
-6.59889
0
LINE
8
BLACK
6
CONTINUOUS
10
7.82492
20
-6.59889
11
7.82301
21
-6.59869
0
LINE
8
BLACK
6
CONTINUOUS
10
7.82301
20
-6.59869
11
7.82118
21
-6.59812
0
LINE
8
BLACK
6
CONTINUOUS
10
7.82118
20
-6.59812
11
7.81949
21
-6.59721
0
LINE
8
BLACK
6
CONTINUOUS
10
7.81949
20
-6.59721
11
7.81801
21
-6.59599
0
LINE
8
BLACK
6
CONTINUOUS
10
7.81801
20
-6.59599
11
7.81679
21
-6.5945
0
LINE
8
BLACK
6
CONTINUOUS
10
7.81679
20
-6.5945
11
7.81589
21
-6.5928
0
LINE
8
BLACK
6
CONTINUOUS
10
7.81589
20
-6.5928
11
7.81534
21
-6.59096
0
LINE
8
BLACK
6
CONTINUOUS
10
7.81534
20
-6.59096
11
7.81515
21
-6.58905
0
LINE
8
BLACK
6
CONTINUOUS
10
7.81515
20
-6.58905
11
7.81515
21
-6.40204
0
LINE
8
BLACK
6
CONTINUOUS
10
7.81515
20
-6.40204
11
7.76875
21
-6.40204
0
LINE
8
BLACK
6
CONTINUOUS
10
7.76875
20
-6.40204
11
7.76861
21
-6.40204
0
LINE
8
BLACK
6
CONTINUOUS
10
7.76861
20
-6.40204
11
7.7667
21
-6.40183
0
LINE
8
BLACK
6
CONTINUOUS
10
7.7667
20
-6.40183
11
7.76487
21
-6.40125
0
LINE
8
BLACK
6
CONTINUOUS
10
7.76487
20
-6.40125
11
7.76319
21
-6.40032
0
LINE
8
BLACK
6
CONTINUOUS
10
7.76319
20
-6.40032
11
7.76172
21
-6.39909
0
LINE
8
BLACK
6
CONTINUOUS
10
7.76172
20
-6.39909
11
7.76051
21
-6.39759
0
LINE
8
BLACK
6
CONTINUOUS
10
7.76051
20
-6.39759
11
7.75962
21
-6.39589
0
LINE
8
BLACK
6
CONTINUOUS
10
7.75962
20
-6.39589
11
7.75908
21
-6.39405
0
LINE
8
BLACK
6
CONTINUOUS
10
7.75908
20
-6.39405
11
7.75891
21
-6.39213
0
LINE
8
BLACK
6
CONTINUOUS
10
7.75891
20
-6.39213
11
7.75911
21
-6.39022
0
LINE
8
BLACK
6
CONTINUOUS
10
7.75911
20
-6.39022
11
7.75967
21
-6.38839
0
LINE
8
BLACK
6
CONTINUOUS
10
7.75967
20
-6.38839
11
7.76059
21
-6.3867
0
LINE
8
BLACK
6
CONTINUOUS
10
7.76059
20
-6.3867
11
7.76181
21
-6.38522
0
LINE
8
BLACK
6
CONTINUOUS
10
7.76181
20
-6.38522
11
7.7633
21
-6.384
0
LINE
8
BLACK
6
CONTINUOUS
10
7.7633
20
-6.384
11
7.765
21
-6.3831
0
LINE
8
BLACK
6
CONTINUOUS
10
7.765
20
-6.3831
11
7.76684
21
-6.38255
0
LINE
8
BLACK
6
CONTINUOUS
10
7.76684
20
-6.38255
11
7.76875
21
-6.38236
0
LINE
8
BLACK
6
CONTINUOUS
10
7.76875
20
-6.38236
11
7.88123
21
-6.38236
0
LINE
8
BLACK
6
CONTINUOUS
10
7.88123
20
-6.38236
11
7.88137
21
-6.38236
0
LINE
8
BLACK
6
CONTINUOUS
10
7.55513
20
-6.38256
11
7.55696
21
-6.38313
0
LINE
8
BLACK
6
CONTINUOUS
10
7.55696
20
-6.38313
11
7.55865
21
-6.38404
0
LINE
8
BLACK
6
CONTINUOUS
10
7.55865
20
-6.38404
11
7.56013
21
-6.38527
0
LINE
8
BLACK
6
CONTINUOUS
10
7.56013
20
-6.38527
11
7.56135
21
-6.38675
0
LINE
8
BLACK
6
CONTINUOUS
10
7.56135
20
-6.38675
11
7.56225
21
-6.38845
0
LINE
8
BLACK
6
CONTINUOUS
10
7.56225
20
-6.38845
11
7.5628
21
-6.39029
0
LINE
8
BLACK
6
CONTINUOUS
10
7.5628
20
-6.39029
11
7.56299
21
-6.3922
0
LINE
8
BLACK
6
CONTINUOUS
10
7.56299
20
-6.3922
11
7.56299
21
-6.58905
0
LINE
8
BLACK
6
CONTINUOUS
10
7.56299
20
-6.58905
11
7.56299
21
-6.58919
0
LINE
8
BLACK
6
CONTINUOUS
10
7.56299
20
-6.58919
11
7.56278
21
-6.5911
0
LINE
8
BLACK
6
CONTINUOUS
10
7.56278
20
-6.5911
11
7.5622
21
-6.59293
0
LINE
8
BLACK
6
CONTINUOUS
10
7.5622
20
-6.59293
11
7.56127
21
-6.59461
0
LINE
8
BLACK
6
CONTINUOUS
10
7.56127
20
-6.59461
11
7.56004
21
-6.59608
0
LINE
8
BLACK
6
CONTINUOUS
10
7.56004
20
-6.59608
11
7.55854
21
-6.59729
0
LINE
8
BLACK
6
CONTINUOUS
10
7.55854
20
-6.59729
11
7.55684
21
-6.59818
0
LINE
8
BLACK
6
CONTINUOUS
10
7.55684
20
-6.59818
11
7.55499
21
-6.59872
0
LINE
8
BLACK
6
CONTINUOUS
10
7.55499
20
-6.59872
11
7.55308
21
-6.59889
0
LINE
8
BLACK
6
CONTINUOUS
10
7.55308
20
-6.59889
11
7.55117
21
-6.59869
0
LINE
8
BLACK
6
CONTINUOUS
10
7.55117
20
-6.59869
11
7.54934
21
-6.59812
0
LINE
8
BLACK
6
CONTINUOUS
10
7.54934
20
-6.59812
11
7.54765
21
-6.59721
0
LINE
8
BLACK
6
CONTINUOUS
10
7.54765
20
-6.59721
11
7.54617
21
-6.59599
0
LINE
8
BLACK
6
CONTINUOUS
10
7.54617
20
-6.59599
11
7.54495
21
-6.5945
0
LINE
8
BLACK
6
CONTINUOUS
10
7.54495
20
-6.5945
11
7.54405
21
-6.5928
0
LINE
8
BLACK
6
CONTINUOUS
10
7.54405
20
-6.5928
11
7.54349
21
-6.59096
0
LINE
8
BLACK
6
CONTINUOUS
10
7.54349
20
-6.59096
11
7.54331
21
-6.58905
0
LINE
8
BLACK
6
CONTINUOUS
10
7.54331
20
-6.58905
11
7.54331
21
-6.3922
0
LINE
8
BLACK
6
CONTINUOUS
10
7.54331
20
-6.3922
11
7.54331
21
-6.39206
0
LINE
8
BLACK
6
CONTINUOUS
10
7.54331
20
-6.39206
11
7.54352
21
-6.39015
0
LINE
8
BLACK
6
CONTINUOUS
10
7.54352
20
-6.39015
11
7.5441
21
-6.38832
0
LINE
8
BLACK
6
CONTINUOUS
10
7.5441
20
-6.38832
11
7.54503
21
-6.38664
0
LINE
8
BLACK
6
CONTINUOUS
10
7.54503
20
-6.38664
11
7.54626
21
-6.38517
0
LINE
8
BLACK
6
CONTINUOUS
10
7.54626
20
-6.38517
11
7.54776
21
-6.38397
0
LINE
8
BLACK
6
CONTINUOUS
10
7.54776
20
-6.38397
11
7.54946
21
-6.38308
0
LINE
8
BLACK
6
CONTINUOUS
10
7.54946
20
-6.38308
11
7.55131
21
-6.38253
0
LINE
8
BLACK
6
CONTINUOUS
10
7.55131
20
-6.38253
11
7.55322
21
-6.38236
0
LINE
8
BLACK
6
CONTINUOUS
10
7.55322
20
-6.38236
11
7.55513
21
-6.38256
0
LINE
8
BLACK
6
CONTINUOUS
10
10.0347
20
-6.38256
11
10.0366
21
-6.38313
0
LINE
8
BLACK
6
CONTINUOUS
10
10.0366
20
-6.38313
11
10.0383
21
-6.38404
0
LINE
8
BLACK
6
CONTINUOUS
10
10.0383
20
-6.38404
11
10.0397
21
-6.38527
0
LINE
8
BLACK
6
CONTINUOUS
10
10.0397
20
-6.38527
11
10.041
21
-6.38675
0
LINE
8
BLACK
6
CONTINUOUS
10
10.041
20
-6.38675
11
10.0419
21
-6.38845
0
LINE
8
BLACK
6
CONTINUOUS
10
10.0419
20
-6.38845
11
10.0424
21
-6.39029
0
LINE
8
BLACK
6
CONTINUOUS
10
10.0424
20
-6.39029
11
10.0426
21
-6.3922
0
LINE
8
BLACK
6
CONTINUOUS
10
10.0426
20
-6.3922
11
10.0426
21
-6.58905
0
LINE
8
BLACK
6
CONTINUOUS
10
10.0426
20
-6.58905
11
10.0426
21
-6.58919
0
LINE
8
BLACK
6
CONTINUOUS
10
10.0426
20
-6.58919
11
10.0426
21
-6.58952
0
LINE
8
BLACK
6
CONTINUOUS
10
10.0426
20
-6.58952
11
10.0426
21
-6.58985
0
LINE
8
BLACK
6
CONTINUOUS
10
10.0426
20
-6.58985
11
10.0424
21
-6.59047
0
LINE
8
BLACK
6
CONTINUOUS
10
10.0424
20
-6.59047
11
10.0424
21
-6.5911
0
LINE
8
BLACK
6
CONTINUOUS
10
10.0424
20
-6.5911
11
10.0423
21
-6.59141
0
LINE
8
BLACK
6
CONTINUOUS
10
10.0423
20
-6.59141
11
10.0422
21
-6.59174
0
LINE
8
BLACK
6
CONTINUOUS
10
10.0422
20
-6.59174
11
10.042
21
-6.59233
0
LINE
8
BLACK
6
CONTINUOUS
10
10.042
20
-6.59233
11
10.0418
21
-6.59293
0
LINE
8
BLACK
6
CONTINUOUS
10
10.0418
20
-6.59293
11
10.0416
21
-6.59322
0
LINE
8
BLACK
6
CONTINUOUS
10
10.0416
20
-6.59322
11
10.0415
21
-6.59353
0
LINE
8
BLACK
6
CONTINUOUS
10
10.0415
20
-6.59353
11
10.0412
21
-6.59406
0
LINE
8
BLACK
6
CONTINUOUS
10
10.0412
20
-6.59406
11
10.0409
21
-6.59461
0
LINE
8
BLACK
6
CONTINUOUS
10
10.0409
20
-6.59461
11
10.0407
21
-6.59487
0
LINE
8
BLACK
6
CONTINUOUS
10
10.0407
20
-6.59487
11
10.0405
21
-6.59515
0
LINE
8
BLACK
6
CONTINUOUS
10
10.0405
20
-6.59515
11
10.04
21
-6.5956
0
LINE
8
BLACK
6
CONTINUOUS
10
10.04
20
-6.5956
11
10.0396
21
-6.59608
0
LINE
8
BLACK
6
CONTINUOUS
10
10.0396
20
-6.59608
11
10.0394
21
-6.59629
0
LINE
8
BLACK
6
CONTINUOUS
10
10.0394
20
-6.59629
11
10.0392
21
-6.59653
0
LINE
8
BLACK
6
CONTINUOUS
10
10.0392
20
-6.59653
11
10.0386
21
-6.59689
0
LINE
8
BLACK
6
CONTINUOUS
10
10.0386
20
-6.59689
11
10.0381
21
-6.59729
0
LINE
8
BLACK
6
CONTINUOUS
10
10.0381
20
-6.59729
11
10.0378
21
-6.59744
0
LINE
8
BLACK
6
CONTINUOUS
10
10.0378
20
-6.59744
11
10.0376
21
-6.59763
0
LINE
8
BLACK
6
CONTINUOUS
10
10.0376
20
-6.59763
11
10.037
21
-6.59789
0
LINE
8
BLACK
6
CONTINUOUS
10
10.037
20
-6.59789
11
10.0364
21
-6.59818
0
LINE
8
BLACK
6
CONTINUOUS
10
10.0364
20
-6.59818
11
10.0361
21
-6.59827
0
LINE
8
BLACK
6
CONTINUOUS
10
10.0361
20
-6.59827
11
10.0358
21
-6.5984
0
LINE
8
BLACK
6
CONTINUOUS
10
10.0358
20
-6.5984
11
10.0352
21
-6.59854
0
LINE
8
BLACK
6
CONTINUOUS
10
10.0352
20
-6.59854
11
10.0346
21
-6.59872
0
LINE
8
BLACK
6
CONTINUOUS
10
10.0346
20
-6.59872
11
10.0343
21
-6.59875
0
LINE
8
BLACK
6
CONTINUOUS
10
10.0343
20
-6.59875
11
10.0339
21
-6.59882
0
LINE
8
BLACK
6
CONTINUOUS
10
10.0339
20
-6.59882
11
10.0333
21
-6.59884
0
LINE
8
BLACK
6
CONTINUOUS
10
10.0333
20
-6.59884
11
10.0327
21
-6.59889
0
LINE
8
BLACK
6
CONTINUOUS
10
10.0327
20
-6.59889
11
10.0324
21
-6.59886
0
LINE
8
BLACK
6
CONTINUOUS
10
10.0324
20
-6.59886
11
10.032
21
-6.59887
0
LINE
8
BLACK
6
CONTINUOUS
10
10.032
20
-6.59887
11
10.0314
21
-6.59876
0
LINE
8
BLACK
6
CONTINUOUS
10
10.0314
20
-6.59876
11
10.0308
21
-6.59869
0
LINE
8
BLACK
6
CONTINUOUS
10
10.0308
20
-6.59869
11
10.0305
21
-6.59859
0
LINE
8
BLACK
6
CONTINUOUS
10
10.0305
20
-6.59859
11
10.0301
21
-6.59854
0
LINE
8
BLACK
6
CONTINUOUS
10
10.0301
20
-6.59854
11
10.0295
21
-6.59831
0
LINE
8
BLACK
6
CONTINUOUS
10
10.0295
20
-6.59831
11
10.0289
21
-6.59812
0
LINE
8
BLACK
6
CONTINUOUS
10
10.0289
20
-6.59812
11
10.0286
21
-6.59797
0
LINE
8
BLACK
6
CONTINUOUS
10
10.0286
20
-6.59797
11
10.0283
21
-6.59785
0
LINE
8
BLACK
6
CONTINUOUS
10
10.0283
20
-6.59785
11
10.0278
21
-6.59751
0
LINE
8
BLACK
6
CONTINUOUS
10
10.0278
20
-6.59751
11
10.0272
21
-6.59721
0
LINE
8
BLACK
6
CONTINUOUS
10
10.0272
20
-6.59721
11
10.027
21
-6.597
0
LINE
8
BLACK
6
CONTINUOUS
10
10.027
20
-6.597
11
10.0267
21
-6.59682
0
LINE
8
BLACK
6
CONTINUOUS
10
10.0267
20
-6.59682
11
10.0263
21
-6.59639
0
LINE
8
BLACK
6
CONTINUOUS
10
10.0263
20
-6.59639
11
10.0258
21
-6.59599
0
LINE
8
BLACK
6
CONTINUOUS
10
10.0258
20
-6.59599
11
10.0256
21
-6.59573
0
LINE
8
BLACK
6
CONTINUOUS
10
10.0256
20
-6.59573
11
10.0253
21
-6.5955
0
LINE
8
BLACK
6
CONTINUOUS
10
10.0253
20
-6.5955
11
10.025
21
-6.59499
0
LINE
8
BLACK
6
CONTINUOUS
10
10.025
20
-6.59499
11
10.0246
21
-6.5945
0
LINE
8
BLACK
6
CONTINUOUS
10
10.0246
20
-6.5945
11
10.0244
21
-6.59421
0
LINE
8
BLACK
6
CONTINUOUS
10
10.0244
20
-6.59421
11
10.0242
21
-6.59393
0
LINE
8
BLACK
6
CONTINUOUS
10
10.0242
20
-6.59393
11
9.93011
21
-6.42926
0
LINE
8
BLACK
6
CONTINUOUS
10
9.93011
20
-6.42926
11
9.93011
21
-6.58905
0
LINE
8
BLACK
6
CONTINUOUS
10
9.93011
20
-6.58905
11
9.93011
21
-6.58919
0
LINE
8
BLACK
6
CONTINUOUS
10
9.93011
20
-6.58919
11
9.92989
21
-6.5911
0
LINE
8
BLACK
6
CONTINUOUS
10
9.92989
20
-6.5911
11
9.92931
21
-6.59293
0
LINE
8
BLACK
6
CONTINUOUS
10
9.92931
20
-6.59293
11
9.92839
21
-6.59461
0
LINE
8
BLACK
6
CONTINUOUS
10
9.92839
20
-6.59461
11
9.92715
21
-6.59608
0
LINE
8
BLACK
6
CONTINUOUS
10
9.92715
20
-6.59608
11
9.92566
21
-6.59729
0
LINE
8
BLACK
6
CONTINUOUS
10
9.92566
20
-6.59729
11
9.92395
21
-6.59818
0
LINE
8
BLACK
6
CONTINUOUS
10
9.92395
20
-6.59818
11
9.92211
21
-6.59872
0
LINE
8
BLACK
6
CONTINUOUS
10
9.92211
20
-6.59872
11
9.9202
21
-6.59889
0
LINE
8
BLACK
6
CONTINUOUS
10
9.9202
20
-6.59889
11
9.91829
21
-6.59869
0
LINE
8
BLACK
6
CONTINUOUS
10
9.91829
20
-6.59869
11
9.91645
21
-6.59812
0
LINE
8
BLACK
6
CONTINUOUS
10
9.91645
20
-6.59812
11
9.91476
21
-6.59721
0
LINE
8
BLACK
6
CONTINUOUS
10
9.91476
20
-6.59721
11
9.91328
21
-6.59599
0
LINE
8
BLACK
6
CONTINUOUS
10
9.91328
20
-6.59599
11
9.91207
21
-6.5945
0
LINE
8
BLACK
6
CONTINUOUS
10
9.91207
20
-6.5945
11
9.91117
21
-6.5928
0
LINE
8
BLACK
6
CONTINUOUS
10
9.91117
20
-6.5928
11
9.91061
21
-6.59096
0
LINE
8
BLACK
6
CONTINUOUS
10
9.91061
20
-6.59096
11
9.91042
21
-6.58905
0
LINE
8
BLACK
6
CONTINUOUS
10
9.91042
20
-6.58905
11
9.91042
21
-6.3922
0
LINE
8
BLACK
6
CONTINUOUS
10
9.91042
20
-6.3922
11
9.91042
21
-6.39206
0
LINE
8
BLACK
6
CONTINUOUS
10
9.91042
20
-6.39206
11
9.91046
21
-6.39173
0
LINE
8
BLACK
6
CONTINUOUS
10
9.91046
20
-6.39173
11
9.91046
21
-6.3914
0
LINE
8
BLACK
6
CONTINUOUS
10
9.91046
20
-6.3914
11
9.91057
21
-6.39078
0
LINE
8
BLACK
6
CONTINUOUS
10
9.91057
20
-6.39078
11
9.91064
21
-6.39015
0
LINE
8
BLACK
6
CONTINUOUS
10
9.91064
20
-6.39015
11
9.91074
21
-6.38984
0
LINE
8
BLACK
6
CONTINUOUS
10
9.91074
20
-6.38984
11
9.9108
21
-6.38951
0
LINE
8
BLACK
6
CONTINUOUS
10
9.9108
20
-6.38951
11
9.91103
21
-6.38892
0
LINE
8
BLACK
6
CONTINUOUS
10
9.91103
20
-6.38892
11
9.91122
21
-6.38832
0
LINE
8
BLACK
6
CONTINUOUS
10
9.91122
20
-6.38832
11
9.91138
21
-6.38803
0
LINE
8
BLACK
6
CONTINUOUS
10
9.91138
20
-6.38803
11
9.9115
21
-6.38772
0
LINE
8
BLACK
6
CONTINUOUS
10
9.9115
20
-6.38772
11
9.91184
21
-6.38719
0
LINE
8
BLACK
6
CONTINUOUS
10
9.91184
20
-6.38719
11
9.91215
21
-6.38664
0
LINE
8
BLACK
6
CONTINUOUS
10
9.91215
20
-6.38664
11
9.91236
21
-6.38639
0
LINE
8
BLACK
6
CONTINUOUS
10
9.91236
20
-6.38639
11
9.91254
21
-6.38611
0
LINE
8
BLACK
6
CONTINUOUS
10
9.91254
20
-6.38611
11
9.91297
21
-6.38565
0
LINE
8
BLACK
6
CONTINUOUS
10
9.91297
20
-6.38565
11
9.91338
21
-6.38517
0
LINE
8
BLACK
6
CONTINUOUS
10
9.91338
20
-6.38517
11
9.91364
21
-6.38496
0
LINE
8
BLACK
6
CONTINUOUS
10
9.91364
20
-6.38496
11
9.91387
21
-6.38472
0
LINE
8
BLACK
6
CONTINUOUS
10
9.91387
20
-6.38472
11
9.91439
21
-6.38436
0
LINE
8
BLACK
6
CONTINUOUS
10
9.91439
20
-6.38436
11
9.91488
21
-6.38397
0
LINE
8
BLACK
6
CONTINUOUS
10
9.91488
20
-6.38397
11
9.91517
21
-6.38381
0
LINE
8
BLACK
6
CONTINUOUS
10
9.91517
20
-6.38381
11
9.91544
21
-6.38362
0
LINE
8
BLACK
6
CONTINUOUS
10
9.91544
20
-6.38362
11
9.91602
21
-6.38337
0
LINE
8
BLACK
6
CONTINUOUS
10
9.91602
20
-6.38337
11
9.91658
21
-6.38308
0
LINE
8
BLACK
6
CONTINUOUS
10
9.91658
20
-6.38308
11
9.9169
21
-6.38298
0
LINE
8
BLACK
6
CONTINUOUS
10
9.9169
20
-6.38298
11
9.9172
21
-6.38285
0
LINE
8
BLACK
6
CONTINUOUS
10
9.9172
20
-6.38285
11
9.91782
21
-6.38271
0
LINE
8
BLACK
6
CONTINUOUS
10
9.91782
20
-6.38271
11
9.91842
21
-6.38253
0
LINE
8
BLACK
6
CONTINUOUS
10
9.91842
20
-6.38253
11
9.91875
21
-6.3825
0
LINE
8
BLACK
6
CONTINUOUS
10
9.91875
20
-6.3825
11
9.91908
21
-6.38243
0
LINE
8
BLACK
6
CONTINUOUS
10
9.91908
20
-6.38243
11
9.91971
21
-6.38242
0
LINE
8
BLACK
6
CONTINUOUS
10
9.91971
20
-6.38242
11
9.92033
21
-6.38236
0
LINE
8
BLACK
6
CONTINUOUS
10
9.92033
20
-6.38236
11
9.92067
21
-6.38239
0
LINE
8
BLACK
6
CONTINUOUS
10
9.92067
20
-6.38239
11
9.921
21
-6.38239
0
LINE
8
BLACK
6
CONTINUOUS
10
9.921
20
-6.38239
11
9.92162
21
-6.38249
0
LINE
8
BLACK
6
CONTINUOUS
10
9.92162
20
-6.38249
11
9.92225
21
-6.38256
0
LINE
8
BLACK
6
CONTINUOUS
10
9.92225
20
-6.38256
11
9.92256
21
-6.38266
0
LINE
8
BLACK
6
CONTINUOUS
10
9.92256
20
-6.38266
11
9.92289
21
-6.38271
0
LINE
8
BLACK
6
CONTINUOUS
10
9.92289
20
-6.38271
11
9.92348
21
-6.38294
0
LINE
8
BLACK
6
CONTINUOUS
10
9.92348
20
-6.38294
11
9.92408
21
-6.38313
0
LINE
8
BLACK
6
CONTINUOUS
10
9.92408
20
-6.38313
11
9.92437
21
-6.38329
0
LINE
8
BLACK
6
CONTINUOUS
10
9.92437
20
-6.38329
11
9.92468
21
-6.3834
0
LINE
8
BLACK
6
CONTINUOUS
10
9.92468
20
-6.3834
11
9.92522
21
-6.38374
0
LINE
8
BLACK
6
CONTINUOUS
10
9.92522
20
-6.38374
11
9.92577
21
-6.38404
0
LINE
8
BLACK
6
CONTINUOUS
10
9.92577
20
-6.38404
11
9.92603
21
-6.38425
0
LINE
8
BLACK
6
CONTINUOUS
10
9.92603
20
-6.38425
11
9.92631
21
-6.38443
0
LINE
8
BLACK
6
CONTINUOUS
10
9.92631
20
-6.38443
11
9.92676
21
-6.38486
0
LINE
8
BLACK
6
CONTINUOUS
10
9.92676
20
-6.38486
11
9.92725
21
-6.38527
0
LINE
8
BLACK
6
CONTINUOUS
10
9.92725
20
-6.38527
11
9.92746
21
-6.38552
0
LINE
8
BLACK
6
CONTINUOUS
10
9.92746
20
-6.38552
11
9.9277
21
-6.38575
0
LINE
8
BLACK
6
CONTINUOUS
10
9.9277
20
-6.38575
11
9.92807
21
-6.38627
0
LINE
8
BLACK
6
CONTINUOUS
10
9.92807
20
-6.38627
11
9.92846
21
-6.38675
0
LINE
8
BLACK
6
CONTINUOUS
10
9.92846
20
-6.38675
11
9.92862
21
-6.38705
0
LINE
8
BLACK
6
CONTINUOUS
10
9.92862
20
-6.38705
11
9.92881
21
-6.38732
0
LINE
8
BLACK
6
CONTINUOUS
10
9.92881
20
-6.38732
11
10.0229
21
-6.55199
0
LINE
8
BLACK
6
CONTINUOUS
10
10.0229
20
-6.55199
11
10.0229
21
-6.3922
0
LINE
8
BLACK
6
CONTINUOUS
10
10.0229
20
-6.3922
11
10.0229
21
-6.39206
0
LINE
8
BLACK
6
CONTINUOUS
10
10.0229
20
-6.39206
11
10.0231
21
-6.39015
0
LINE
8
BLACK
6
CONTINUOUS
10
10.0231
20
-6.39015
11
10.0237
21
-6.38832
0
LINE
8
BLACK
6
CONTINUOUS
10
10.0237
20
-6.38832
11
10.0246
21
-6.38664
0
LINE
8
BLACK
6
CONTINUOUS
10
10.0246
20
-6.38664
11
10.0259
21
-6.38517
0
LINE
8
BLACK
6
CONTINUOUS
10
10.0259
20
-6.38517
11
10.0274
21
-6.38397
0
LINE
8
BLACK
6
CONTINUOUS
10
10.0274
20
-6.38397
11
10.0291
21
-6.38308
0
LINE
8
BLACK
6
CONTINUOUS
10
10.0291
20
-6.38308
11
10.0309
21
-6.38253
0
LINE
8
BLACK
6
CONTINUOUS
10
10.0309
20
-6.38253
11
10.0328
21
-6.38236
0
LINE
8
BLACK
6
CONTINUOUS
10
10.0328
20
-6.38236
11
10.0347
21
-6.38256
0
LINE
8
BLACK
6
CONTINUOUS
10
7.26454
20
-6.38256
11
7.26638
21
-6.38313
0
LINE
8
BLACK
6
CONTINUOUS
10
7.26638
20
-6.38313
11
7.26806
21
-6.38404
0
LINE
8
BLACK
6
CONTINUOUS
10
7.26806
20
-6.38404
11
7.26954
21
-6.38527
0
LINE
8
BLACK
6
CONTINUOUS
10
7.26954
20
-6.38527
11
7.27076
21
-6.38675
0
LINE
8
BLACK
6
CONTINUOUS
10
7.27076
20
-6.38675
11
7.27166
21
-6.38845
0
LINE
8
BLACK
6
CONTINUOUS
10
7.27166
20
-6.38845
11
7.27222
21
-6.39029
0
LINE
8
BLACK
6
CONTINUOUS
10
7.27222
20
-6.39029
11
7.2724
21
-6.3922
0
LINE
8
BLACK
6
CONTINUOUS
10
7.2724
20
-6.3922
11
7.2724
21
-6.58905
0
LINE
8
BLACK
6
CONTINUOUS
10
7.2724
20
-6.58905
11
7.2724
21
-6.58919
0
LINE
8
BLACK
6
CONTINUOUS
10
7.2724
20
-6.58919
11
7.27219
21
-6.5911
0
LINE
8
BLACK
6
CONTINUOUS
10
7.27219
20
-6.5911
11
7.27161
21
-6.59293
0
LINE
8
BLACK
6
CONTINUOUS
10
7.27161
20
-6.59293
11
7.27068
21
-6.59461
0
LINE
8
BLACK
6
CONTINUOUS
10
7.27068
20
-6.59461
11
7.26945
21
-6.59608
0
LINE
8
BLACK
6
CONTINUOUS
10
7.26945
20
-6.59608
11
7.26795
21
-6.59729
0
LINE
8
BLACK
6
CONTINUOUS
10
7.26795
20
-6.59729
11
7.26625
21
-6.59818
0
LINE
8
BLACK
6
CONTINUOUS
10
7.26625
20
-6.59818
11
7.26441
21
-6.59872
0
LINE
8
BLACK
6
CONTINUOUS
10
7.26441
20
-6.59872
11
7.26249
21
-6.59889
0
LINE
8
BLACK
6
CONTINUOUS
10
7.26249
20
-6.59889
11
7.26058
21
-6.59869
0
LINE
8
BLACK
6
CONTINUOUS
10
7.26058
20
-6.59869
11
7.25875
21
-6.59812
0
LINE
8
BLACK
6
CONTINUOUS
10
7.25875
20
-6.59812
11
7.25706
21
-6.59721
0
LINE
8
BLACK
6
CONTINUOUS
10
7.25706
20
-6.59721
11
7.25558
21
-6.59599
0
LINE
8
BLACK
6
CONTINUOUS
10
7.25558
20
-6.59599
11
7.25436
21
-6.5945
0
LINE
8
BLACK
6
CONTINUOUS
10
7.25436
20
-6.5945
11
7.25346
21
-6.5928
0
LINE
8
BLACK
6
CONTINUOUS
10
7.25346
20
-6.5928
11
7.25291
21
-6.59096
0
LINE
8
BLACK
6
CONTINUOUS
10
7.25291
20
-6.59096
11
7.25272
21
-6.58905
0
LINE
8
BLACK
6
CONTINUOUS
10
7.25272
20
-6.58905
11
7.25272
21
-6.3922
0
LINE
8
BLACK
6
CONTINUOUS
10
7.25272
20
-6.3922
11
7.25272
21
-6.39206
0
LINE
8
BLACK
6
CONTINUOUS
10
7.25272
20
-6.39206
11
7.25293
21
-6.39015
0
LINE
8
BLACK
6
CONTINUOUS
10
7.25293
20
-6.39015
11
7.25351
21
-6.38832
0
LINE
8
BLACK
6
CONTINUOUS
10
7.25351
20
-6.38832
11
7.25444
21
-6.38664
0
LINE
8
BLACK
6
CONTINUOUS
10
7.25444
20
-6.38664
11
7.25567
21
-6.38517
0
LINE
8
BLACK
6
CONTINUOUS
10
7.25567
20
-6.38517
11
7.25717
21
-6.38397
0
LINE
8
BLACK
6
CONTINUOUS
10
7.25717
20
-6.38397
11
7.25887
21
-6.38308
0
LINE
8
BLACK
6
CONTINUOUS
10
7.25887
20
-6.38308
11
7.26072
21
-6.38253
0
LINE
8
BLACK
6
CONTINUOUS
10
7.26072
20
-6.38253
11
7.26263
21
-6.38236
0
LINE
8
BLACK
6
CONTINUOUS
10
7.26263
20
-6.38236
11
7.26454
21
-6.38256
0
LINE
8
BLACK
6
CONTINUOUS
10
9.58479
20
-6.38256
11
9.58662
21
-6.38313
0
LINE
8
BLACK
6
CONTINUOUS
10
9.58662
20
-6.38313
11
9.58831
21
-6.38404
0
LINE
8
BLACK
6
CONTINUOUS
10
9.58831
20
-6.38404
11
9.58979
21
-6.38527
0
LINE
8
BLACK
6
CONTINUOUS
10
9.58979
20
-6.38527
11
9.59101
21
-6.38675
0
LINE
8
BLACK
6
CONTINUOUS
10
9.59101
20
-6.38675
11
9.59191
21
-6.38845
0
LINE
8
BLACK
6
CONTINUOUS
10
9.59191
20
-6.38845
11
9.59246
21
-6.39029
0
LINE
8
BLACK
6
CONTINUOUS
10
9.59246
20
-6.39029
11
9.59265
21
-6.3922
0
LINE
8
BLACK
6
CONTINUOUS
10
9.59265
20
-6.3922
11
9.59265
21
-6.58905
0
LINE
8
BLACK
6
CONTINUOUS
10
9.59265
20
-6.58905
11
9.59265
21
-6.58919
0
LINE
8
BLACK
6
CONTINUOUS
10
9.59265
20
-6.58919
11
9.59244
21
-6.5911
0
LINE
8
BLACK
6
CONTINUOUS
10
9.59244
20
-6.5911
11
9.59185
21
-6.59293
0
LINE
8
BLACK
6
CONTINUOUS
10
9.59185
20
-6.59293
11
9.59093
21
-6.59461
0
LINE
8
BLACK
6
CONTINUOUS
10
9.59093
20
-6.59461
11
9.58969
21
-6.59608
0
LINE
8
BLACK
6
CONTINUOUS
10
9.58969
20
-6.59608
11
9.5882
21
-6.59729
0
LINE
8
BLACK
6
CONTINUOUS
10
9.5882
20
-6.59729
11
9.5865
21
-6.59818
0
LINE
8
BLACK
6
CONTINUOUS
10
9.5865
20
-6.59818
11
9.58465
21
-6.59872
0
LINE
8
BLACK
6
CONTINUOUS
10
9.58465
20
-6.59872
11
9.58274
21
-6.59889
0
LINE
8
BLACK
6
CONTINUOUS
10
9.58274
20
-6.59889
11
9.58083
21
-6.59869
0
LINE
8
BLACK
6
CONTINUOUS
10
9.58083
20
-6.59869
11
9.57899
21
-6.59812
0
LINE
8
BLACK
6
CONTINUOUS
10
9.57899
20
-6.59812
11
9.5773
21
-6.59721
0
LINE
8
BLACK
6
CONTINUOUS
10
9.5773
20
-6.59721
11
9.57582
21
-6.59599
0
LINE
8
BLACK
6
CONTINUOUS
10
9.57582
20
-6.59599
11
9.57461
21
-6.5945
0
LINE
8
BLACK
6
CONTINUOUS
10
9.57461
20
-6.5945
11
9.57371
21
-6.5928
0
LINE
8
BLACK
6
CONTINUOUS
10
9.57371
20
-6.5928
11
9.57315
21
-6.59096
0
LINE
8
BLACK
6
CONTINUOUS
10
9.57315
20
-6.59096
11
9.57297
21
-6.58905
0
LINE
8
BLACK
6
CONTINUOUS
10
9.57297
20
-6.58905
11
9.57297
21
-6.3922
0
LINE
8
BLACK
6
CONTINUOUS
10
9.57297
20
-6.3922
11
9.57297
21
-6.39206
0
LINE
8
BLACK
6
CONTINUOUS
10
9.57297
20
-6.39206
11
9.57318
21
-6.39015
0
LINE
8
BLACK
6
CONTINUOUS
10
9.57318
20
-6.39015
11
9.57376
21
-6.38832
0
LINE
8
BLACK
6
CONTINUOUS
10
9.57376
20
-6.38832
11
9.57469
21
-6.38664
0
LINE
8
BLACK
6
CONTINUOUS
10
9.57469
20
-6.38664
11
9.57592
21
-6.38517
0
LINE
8
BLACK
6
CONTINUOUS
10
9.57592
20
-6.38517
11
9.57742
21
-6.38397
0
LINE
8
BLACK
6
CONTINUOUS
10
9.57742
20
-6.38397
11
9.57912
21
-6.38308
0
LINE
8
BLACK
6
CONTINUOUS
10
9.57912
20
-6.38308
11
9.58096
21
-6.38253
0
LINE
8
BLACK
6
CONTINUOUS
10
9.58096
20
-6.38253
11
9.58288
21
-6.38236
0
LINE
8
BLACK
6
CONTINUOUS
10
9.58288
20
-6.38236
11
9.58479
21
-6.38256
0
LINE
8
BLACK
6
CONTINUOUS
10
9.82851
20
-6.38256
11
9.83034
21
-6.38313
0
LINE
8
BLACK
6
CONTINUOUS
10
9.83034
20
-6.38313
11
9.83203
21
-6.38404
0
LINE
8
BLACK
6
CONTINUOUS
10
9.83203
20
-6.38404
11
9.83351
21
-6.38527
0
LINE
8
BLACK
6
CONTINUOUS
10
9.83351
20
-6.38527
11
9.83473
21
-6.38675
0
LINE
8
BLACK
6
CONTINUOUS
10
9.83473
20
-6.38675
11
9.83563
21
-6.38845
0
LINE
8
BLACK
6
CONTINUOUS
10
9.83563
20
-6.38845
11
9.83618
21
-6.39029
0
LINE
8
BLACK
6
CONTINUOUS
10
9.83618
20
-6.39029
11
9.83637
21
-6.3922
0
LINE
8
BLACK
6
CONTINUOUS
10
9.83637
20
-6.3922
11
9.83637
21
-6.58905
0
LINE
8
BLACK
6
CONTINUOUS
10
9.83637
20
-6.58905
11
9.83637
21
-6.58919
0
LINE
8
BLACK
6
CONTINUOUS
10
9.83637
20
-6.58919
11
9.83616
21
-6.5911
0
LINE
8
BLACK
6
CONTINUOUS
10
9.83616
20
-6.5911
11
9.83557
21
-6.59293
0
LINE
8
BLACK
6
CONTINUOUS
10
9.83557
20
-6.59293
11
9.83465
21
-6.59461
0
LINE
8
BLACK
6
CONTINUOUS
10
9.83465
20
-6.59461
11
9.83341
21
-6.59608
0
LINE
8
BLACK
6
CONTINUOUS
10
9.83341
20
-6.59608
11
9.83192
21
-6.59729
0
LINE
8
BLACK
6
CONTINUOUS
10
9.83192
20
-6.59729
11
9.83021
21
-6.59818
0
LINE
8
BLACK
6
CONTINUOUS
10
9.83021
20
-6.59818
11
9.82837
21
-6.59872
0
LINE
8
BLACK
6
CONTINUOUS
10
9.82837
20
-6.59872
11
9.82646
21
-6.59889
0
LINE
8
BLACK
6
CONTINUOUS
10
9.82646
20
-6.59889
11
9.82455
21
-6.59869
0
LINE
8
BLACK
6
CONTINUOUS
10
9.82455
20
-6.59869
11
9.82271
21
-6.59812
0
LINE
8
BLACK
6
CONTINUOUS
10
9.82271
20
-6.59812
11
9.82102
21
-6.59721
0
LINE
8
BLACK
6
CONTINUOUS
10
9.82102
20
-6.59721
11
9.81954
21
-6.59599
0
LINE
8
BLACK
6
CONTINUOUS
10
9.81954
20
-6.59599
11
9.81833
21
-6.5945
0
LINE
8
BLACK
6
CONTINUOUS
10
9.81833
20
-6.5945
11
9.81743
21
-6.5928
0
LINE
8
BLACK
6
CONTINUOUS
10
9.81743
20
-6.5928
11
9.81687
21
-6.59096
0
LINE
8
BLACK
6
CONTINUOUS
10
9.81687
20
-6.59096
11
9.81669
21
-6.58905
0
LINE
8
BLACK
6
CONTINUOUS
10
9.81669
20
-6.58905
11
9.81669
21
-6.3922
0
LINE
8
BLACK
6
CONTINUOUS
10
9.81669
20
-6.3922
11
9.81669
21
-6.39206
0
LINE
8
BLACK
6
CONTINUOUS
10
9.81669
20
-6.39206
11
9.8169
21
-6.39015
0
LINE
8
BLACK
6
CONTINUOUS
10
9.8169
20
-6.39015
11
9.81748
21
-6.38832
0
LINE
8
BLACK
6
CONTINUOUS
10
9.81748
20
-6.38832
11
9.81841
21
-6.38664
0
LINE
8
BLACK
6
CONTINUOUS
10
9.81841
20
-6.38664
11
9.81964
21
-6.38517
0
LINE
8
BLACK
6
CONTINUOUS
10
9.81964
20
-6.38517
11
9.82114
21
-6.38397
0
LINE
8
BLACK
6
CONTINUOUS
10
9.82114
20
-6.38397
11
9.82284
21
-6.38308
0
LINE
8
BLACK
6
CONTINUOUS
10
9.82284
20
-6.38308
11
9.82468
21
-6.38253
0
LINE
8
BLACK
6
CONTINUOUS
10
9.82468
20
-6.38253
11
9.8266
21
-6.38236
0
LINE
8
BLACK
6
CONTINUOUS
10
9.8266
20
-6.38236
11
9.82851
21
-6.38256
0
LINE
8
BLACK
6
CONTINUOUS
10
2.81735
20
-5.98236
11
2.81764
21
-5.98239
0
LINE
8
BLACK
6
CONTINUOUS
10
2.81764
20
-5.98239
11
2.81793
21
-5.98238
0
LINE
8
BLACK
6
CONTINUOUS
10
2.81793
20
-5.98238
11
2.81859
21
-5.9825
0
LINE
8
BLACK
6
CONTINUOUS
10
2.81859
20
-5.9825
11
2.81926
21
-5.98257
0
LINE
8
BLACK
6
CONTINUOUS
10
2.81926
20
-5.98257
11
2.81953
21
-5.98266
0
LINE
8
BLACK
6
CONTINUOUS
10
2.81953
20
-5.98266
11
2.81982
21
-5.98271
0
LINE
8
BLACK
6
CONTINUOUS
10
2.81982
20
-5.98271
11
2.82045
21
-5.98295
0
LINE
8
BLACK
6
CONTINUOUS
10
2.82045
20
-5.98295
11
2.82109
21
-5.98315
0
LINE
8
BLACK
6
CONTINUOUS
10
2.82109
20
-5.98315
11
2.82134
21
-5.98329
0
LINE
8
BLACK
6
CONTINUOUS
10
2.82134
20
-5.98329
11
2.82161
21
-5.9834
0
LINE
8
BLACK
6
CONTINUOUS
10
2.82161
20
-5.9834
11
2.84036
21
-5.99277
0
LINE
8
BLACK
6
CONTINUOUS
10
2.84036
20
-5.99277
11
2.84048
21
-5.99283
0
LINE
8
BLACK
6
CONTINUOUS
10
2.84048
20
-5.99283
11
2.84095
21
-5.99313
0
LINE
8
BLACK
6
CONTINUOUS
10
2.84095
20
-5.99313
11
2.84143
21
-5.9934
0
LINE
8
BLACK
6
CONTINUOUS
10
2.84143
20
-5.9934
11
2.84175
21
-5.99366
0
LINE
8
BLACK
6
CONTINUOUS
10
2.84175
20
-5.99366
11
2.84209
21
-5.99388
0
LINE
8
BLACK
6
CONTINUOUS
10
2.84209
20
-5.99388
11
2.84249
21
-5.99426
0
LINE
8
BLACK
6
CONTINUOUS
10
2.84249
20
-5.99426
11
2.84292
21
-5.99462
0
LINE
8
BLACK
6
CONTINUOUS
10
2.84292
20
-5.99462
11
2.86167
21
-6.01336
0
LINE
8
BLACK
6
CONTINUOUS
10
2.86167
20
-6.01336
11
2.86176
21
-6.01346
0
LINE
8
BLACK
6
CONTINUOUS
10
2.86176
20
-6.01346
11
2.86218
21
-6.01398
0
LINE
8
BLACK
6
CONTINUOUS
10
2.86218
20
-6.01398
11
2.86262
21
-6.01448
0
LINE
8
BLACK
6
CONTINUOUS
10
2.86262
20
-6.01448
11
2.86278
21
-6.01473
0
LINE
8
BLACK
6
CONTINUOUS
10
2.86278
20
-6.01473
11
2.86296
21
-6.01496
0
LINE
8
BLACK
6
CONTINUOUS
10
2.86296
20
-6.01496
11
2.86327
21
-6.01555
0
LINE
8
BLACK
6
CONTINUOUS
10
2.86327
20
-6.01555
11
2.86361
21
-6.01613
0
LINE
8
BLACK
6
CONTINUOUS
10
2.86361
20
-6.01613
11
2.86371
21
-6.0164
0
LINE
8
BLACK
6
CONTINUOUS
10
2.86371
20
-6.0164
11
2.86384
21
-6.01667
0
LINE
8
BLACK
6
CONTINUOUS
10
2.86384
20
-6.01667
11
2.86403
21
-6.01731
0
LINE
8
BLACK
6
CONTINUOUS
10
2.86403
20
-6.01731
11
2.86425
21
-6.01794
0
LINE
8
BLACK
6
CONTINUOUS
10
2.86425
20
-6.01794
11
2.87363
21
-6.05543
0
LINE
8
BLACK
6
CONTINUOUS
10
2.87363
20
-6.05543
11
2.87366
21
-6.05556
0
LINE
8
BLACK
6
CONTINUOUS
10
2.87366
20
-6.05556
11
2.87368
21
-6.05574
0
LINE
8
BLACK
6
CONTINUOUS
10
2.87368
20
-6.05574
11
2.87373
21
-6.05591
0
LINE
8
BLACK
6
CONTINUOUS
10
2.87373
20
-6.05591
11
2.87381
21
-6.05669
0
LINE
8
BLACK
6
CONTINUOUS
10
2.87381
20
-6.05669
11
2.87392
21
-6.05747
0
LINE
8
BLACK
6
CONTINUOUS
10
2.87392
20
-6.05747
11
2.8739
21
-6.05764
0
LINE
8
BLACK
6
CONTINUOUS
10
2.8739
20
-6.05764
11
2.87392
21
-6.05782
0
LINE
8
BLACK
6
CONTINUOUS
10
2.87392
20
-6.05782
11
2.87392
21
-6.12343
0
LINE
8
BLACK
6
CONTINUOUS
10
2.87392
20
-6.12343
11
2.87392
21
-6.12357
0
LINE
8
BLACK
6
CONTINUOUS
10
2.87392
20
-6.12357
11
2.8739
21
-6.12375
0
LINE
8
BLACK
6
CONTINUOUS
10
2.8739
20
-6.12375
11
2.87391
21
-6.12392
0
LINE
8
BLACK
6
CONTINUOUS
10
2.87391
20
-6.12392
11
2.87379
21
-6.1247
0
LINE
8
BLACK
6
CONTINUOUS
10
2.87379
20
-6.1247
11
2.87371
21
-6.12548
0
LINE
8
BLACK
6
CONTINUOUS
10
2.87371
20
-6.12548
11
2.87365
21
-6.12565
0
LINE
8
BLACK
6
CONTINUOUS
10
2.87365
20
-6.12565
11
2.87363
21
-6.12582
0
LINE
8
BLACK
6
CONTINUOUS
10
2.87363
20
-6.12582
11
2.86425
21
-6.16332
0
LINE
8
BLACK
6
CONTINUOUS
10
2.86425
20
-6.16332
11
2.86422
21
-6.16345
0
LINE
8
BLACK
6
CONTINUOUS
10
2.86422
20
-6.16345
11
2.86399
21
-6.16408
0
LINE
8
BLACK
6
CONTINUOUS
10
2.86399
20
-6.16408
11
2.86379
21
-6.16471
0
LINE
8
BLACK
6
CONTINUOUS
10
2.86379
20
-6.16471
11
2.86365
21
-6.16497
0
LINE
8
BLACK
6
CONTINUOUS
10
2.86365
20
-6.16497
11
2.86355
21
-6.16525
0
LINE
8
BLACK
6
CONTINUOUS
10
2.86355
20
-6.16525
11
2.8632
21
-6.16582
0
LINE
8
BLACK
6
CONTINUOUS
10
2.8632
20
-6.16582
11
2.86288
21
-6.16641
0
LINE
8
BLACK
6
CONTINUOUS
10
2.86288
20
-6.16641
11
2.8627
21
-6.16663
0
LINE
8
BLACK
6
CONTINUOUS
10
2.8627
20
-6.16663
11
2.86254
21
-6.16689
0
LINE
8
BLACK
6
CONTINUOUS
10
2.86254
20
-6.16689
11
2.86209
21
-6.16737
0
LINE
8
BLACK
6
CONTINUOUS
10
2.86209
20
-6.16737
11
2.86167
21
-6.16789
0
LINE
8
BLACK
6
CONTINUOUS
10
2.86167
20
-6.16789
11
2.84292
21
-6.18664
0
LINE
8
BLACK
6
CONTINUOUS
10
2.84292
20
-6.18664
11
2.84282
21
-6.18673
0
LINE
8
BLACK
6
CONTINUOUS
10
2.84282
20
-6.18673
11
2.84239
21
-6.18708
0
LINE
8
BLACK
6
CONTINUOUS
10
2.84239
20
-6.18708
11
2.84199
21
-6.18746
0
LINE
8
BLACK
6
CONTINUOUS
10
2.84199
20
-6.18746
11
2.84164
21
-6.18768
0
LINE
8
BLACK
6
CONTINUOUS
10
2.84164
20
-6.18768
11
2.84132
21
-6.18793
0
LINE
8
BLACK
6
CONTINUOUS
10
2.84132
20
-6.18793
11
2.84083
21
-6.18819
0
LINE
8
BLACK
6
CONTINUOUS
10
2.84083
20
-6.18819
11
2.84036
21
-6.18848
0
LINE
8
BLACK
6
CONTINUOUS
10
2.84036
20
-6.18848
11
2.82161
21
-6.19785
0
LINE
8
BLACK
6
CONTINUOUS
10
2.82161
20
-6.19785
11
2.82149
21
-6.19792
0
LINE
8
BLACK
6
CONTINUOUS
10
2.82149
20
-6.19792
11
2.82122
21
-6.19802
0
LINE
8
BLACK
6
CONTINUOUS
10
2.82122
20
-6.19802
11
2.82096
21
-6.19815
0
LINE
8
BLACK
6
CONTINUOUS
10
2.82096
20
-6.19815
11
2.82032
21
-6.19835
0
LINE
8
BLACK
6
CONTINUOUS
10
2.82032
20
-6.19835
11
2.81969
21
-6.19858
0
LINE
8
BLACK
6
CONTINUOUS
10
2.81969
20
-6.19858
11
2.8194
21
-6.19862
0
LINE
8
BLACK
6
CONTINUOUS
10
2.8194
20
-6.19862
11
2.81912
21
-6.19871
0
LINE
8
BLACK
6
CONTINUOUS
10
2.81912
20
-6.19871
11
2.81845
21
-6.19877
0
LINE
8
BLACK
6
CONTINUOUS
10
2.81845
20
-6.19877
11
2.81779
21
-6.19888
0
LINE
8
BLACK
6
CONTINUOUS
10
2.81779
20
-6.19888
11
2.8175
21
-6.19887
0
LINE
8
BLACK
6
CONTINUOUS
10
2.8175
20
-6.19887
11
2.81721
21
-6.19889
0
LINE
8
BLACK
6
CONTINUOUS
10
2.81721
20
-6.19889
11
2.77971
21
-6.19889
0
LINE
8
BLACK
6
CONTINUOUS
10
2.77971
20
-6.19889
11
2.77958
21
-6.19889
0
LINE
8
BLACK
6
CONTINUOUS
10
2.77958
20
-6.19889
11
2.77929
21
-6.19886
0
LINE
8
BLACK
6
CONTINUOUS
10
2.77929
20
-6.19886
11
2.779
21
-6.19887
0
LINE
8
BLACK
6
CONTINUOUS
10
2.779
20
-6.19887
11
2.77834
21
-6.19875
0
LINE
8
BLACK
6
CONTINUOUS
10
2.77834
20
-6.19875
11
2.77767
21
-6.19868
0
LINE
8
BLACK
6
CONTINUOUS
10
2.77767
20
-6.19868
11
2.77739
21
-6.19859
0
LINE
8
BLACK
6
CONTINUOUS
10
2.77739
20
-6.19859
11
2.77711
21
-6.19854
0
LINE
8
BLACK
6
CONTINUOUS
10
2.77711
20
-6.19854
11
2.77648
21
-6.1983
0
LINE
8
BLACK
6
CONTINUOUS
10
2.77648
20
-6.1983
11
2.77584
21
-6.1981
0
LINE
8
BLACK
6
CONTINUOUS
10
2.77584
20
-6.1981
11
2.77558
21
-6.19796
0
LINE
8
BLACK
6
CONTINUOUS
10
2.77558
20
-6.19796
11
2.77531
21
-6.19785
0
LINE
8
BLACK
6
CONTINUOUS
10
2.77531
20
-6.19785
11
2.75657
21
-6.18848
0
LINE
8
BLACK
6
CONTINUOUS
10
2.75657
20
-6.18848
11
2.75644
21
-6.18842
0
LINE
8
BLACK
6
CONTINUOUS
10
2.75644
20
-6.18842
11
2.75598
21
-6.18812
0
LINE
8
BLACK
6
CONTINUOUS
10
2.75598
20
-6.18812
11
2.75549
21
-6.18786
0
LINE
8
BLACK
6
CONTINUOUS
10
2.75549
20
-6.18786
11
2.75518
21
-6.1876
0
LINE
8
BLACK
6
CONTINUOUS
10
2.75518
20
-6.1876
11
2.75483
21
-6.18737
0
LINE
8
BLACK
6
CONTINUOUS
10
2.75483
20
-6.18737
11
2.75444
21
-6.18699
0
LINE
8
BLACK
6
CONTINUOUS
10
2.75444
20
-6.18699
11
2.75401
21
-6.18664
0
LINE
8
BLACK
6
CONTINUOUS
10
2.75401
20
-6.18664
11
2.73526
21
-6.16789
0
LINE
8
BLACK
6
CONTINUOUS
10
2.73526
20
-6.16789
11
2.73516
21
-6.16779
0
LINE
8
BLACK
6
CONTINUOUS
10
2.73516
20
-6.16779
11
2.73475
21
-6.16727
0
LINE
8
BLACK
6
CONTINUOUS
10
2.73475
20
-6.16727
11
2.7343
21
-6.16678
0
LINE
8
BLACK
6
CONTINUOUS
10
2.7343
20
-6.16678
11
2.73415
21
-6.16652
0
LINE
8
BLACK
6
CONTINUOUS
10
2.73415
20
-6.16652
11
2.73397
21
-6.16629
0
LINE
8
BLACK
6
CONTINUOUS
10
2.73397
20
-6.16629
11
2.73366
21
-6.1657
0
LINE
8
BLACK
6
CONTINUOUS
10
2.73366
20
-6.1657
11
2.73332
21
-6.16513
0
LINE
8
BLACK
6
CONTINUOUS
10
2.73332
20
-6.16513
11
2.73322
21
-6.16485
0
LINE
8
BLACK
6
CONTINUOUS
10
2.73322
20
-6.16485
11
2.73308
21
-6.16459
0
LINE
8
BLACK
6
CONTINUOUS
10
2.73308
20
-6.16459
11
2.7329
21
-6.16395
0
LINE
8
BLACK
6
CONTINUOUS
10
2.7329
20
-6.16395
11
2.73267
21
-6.16332
0
LINE
8
BLACK
6
CONTINUOUS
10
2.73267
20
-6.16332
11
2.7233
21
-6.12582
0
LINE
8
BLACK
6
CONTINUOUS
10
2.7233
20
-6.12582
11
2.72326
21
-6.12569
0
LINE
8
BLACK
6
CONTINUOUS
10
2.72326
20
-6.12569
11
2.72324
21
-6.12551
0
LINE
8
BLACK
6
CONTINUOUS
10
2.72324
20
-6.12551
11
2.72319
21
-6.12535
0
LINE
8
BLACK
6
CONTINUOUS
10
2.72319
20
-6.12535
11
2.72311
21
-6.12456
0
LINE
8
BLACK
6
CONTINUOUS
10
2.72311
20
-6.12456
11
2.72301
21
-6.12378
0
LINE
8
BLACK
6
CONTINUOUS
10
2.72301
20
-6.12378
11
2.72302
21
-6.12361
0
LINE
8
BLACK
6
CONTINUOUS
10
2.72302
20
-6.12361
11
2.723
21
-6.12343
0
LINE
8
BLACK
6
CONTINUOUS
10
2.723
20
-6.12343
11
2.723
21
-6.05782
0
LINE
8
BLACK
6
CONTINUOUS
10
2.723
20
-6.05782
11
2.723
21
-6.05768
0
LINE
8
BLACK
6
CONTINUOUS
10
2.723
20
-6.05768
11
2.72302
21
-6.05751
0
LINE
8
BLACK
6
CONTINUOUS
10
2.72302
20
-6.05751
11
2.72302
21
-6.05733
0
LINE
8
BLACK
6
CONTINUOUS
10
2.72302
20
-6.05733
11
2.72313
21
-6.05655
0
LINE
8
BLACK
6
CONTINUOUS
10
2.72313
20
-6.05655
11
2.72322
21
-6.05577
0
LINE
8
BLACK
6
CONTINUOUS
10
2.72322
20
-6.05577
11
2.72327
21
-6.0556
0
LINE
8
BLACK
6
CONTINUOUS
10
2.72327
20
-6.0556
11
2.7233
21
-6.05543
0
LINE
8
BLACK
6
CONTINUOUS
10
2.7233
20
-6.05543
11
2.73267
21
-6.01794
0
LINE
8
BLACK
6
CONTINUOUS
10
2.73267
20
-6.01794
11
2.73271
21
-6.0178
0
LINE
8
BLACK
6
CONTINUOUS
10
2.73271
20
-6.0178
11
2.73294
21
-6.01718
0
LINE
8
BLACK
6
CONTINUOUS
10
2.73294
20
-6.01718
11
2.73313
21
-6.01654
0
LINE
8
BLACK
6
CONTINUOUS
10
2.73313
20
-6.01654
11
2.73327
21
-6.01628
0
LINE
8
BLACK
6
CONTINUOUS
10
2.73327
20
-6.01628
11
2.73338
21
-6.016
0
LINE
8
BLACK
6
CONTINUOUS
10
2.73338
20
-6.016
11
2.73373
21
-6.01543
0
LINE
8
BLACK
6
CONTINUOUS
10
2.73373
20
-6.01543
11
2.73404
21
-6.01485
0
LINE
8
BLACK
6
CONTINUOUS
10
2.73404
20
-6.01485
11
2.73423
21
-6.01462
0
LINE
8
BLACK
6
CONTINUOUS
10
2.73423
20
-6.01462
11
2.73438
21
-6.01437
0
LINE
8
BLACK
6
CONTINUOUS
10
2.73438
20
-6.01437
11
2.73484
21
-6.01388
0
LINE
8
BLACK
6
CONTINUOUS
10
2.73484
20
-6.01388
11
2.73526
21
-6.01336
0
LINE
8
BLACK
6
CONTINUOUS
10
2.73526
20
-6.01336
11
2.75401
21
-5.99462
0
LINE
8
BLACK
6
CONTINUOUS
10
2.75401
20
-5.99462
11
2.75411
21
-5.99452
0
LINE
8
BLACK
6
CONTINUOUS
10
2.75411
20
-5.99452
11
2.75454
21
-5.99417
0
LINE
8
BLACK
6
CONTINUOUS
10
2.75454
20
-5.99417
11
2.75494
21
-5.99379
0
LINE
8
BLACK
6
CONTINUOUS
10
2.75494
20
-5.99379
11
2.75529
21
-5.99358
0
LINE
8
BLACK
6
CONTINUOUS
10
2.75529
20
-5.99358
11
2.75561
21
-5.99332
0
LINE
8
BLACK
6
CONTINUOUS
10
2.75561
20
-5.99332
11
2.7561
21
-5.99307
0
LINE
8
BLACK
6
CONTINUOUS
10
2.7561
20
-5.99307
11
2.75657
21
-5.99277
0
LINE
8
BLACK
6
CONTINUOUS
10
2.75657
20
-5.99277
11
2.77531
21
-5.9834
0
LINE
8
BLACK
6
CONTINUOUS
10
2.77531
20
-5.9834
11
2.77544
21
-5.98334
0
LINE
8
BLACK
6
CONTINUOUS
10
2.77544
20
-5.98334
11
2.77571
21
-5.98324
0
LINE
8
BLACK
6
CONTINUOUS
10
2.77571
20
-5.98324
11
2.77596
21
-5.9831
0
LINE
8
BLACK
6
CONTINUOUS
10
2.77596
20
-5.9831
11
2.77661
21
-5.98291
0
LINE
8
BLACK
6
CONTINUOUS
10
2.77661
20
-5.98291
11
2.77724
21
-5.98267
0
LINE
8
BLACK
6
CONTINUOUS
10
2.77724
20
-5.98267
11
2.77753
21
-5.98263
0
LINE
8
BLACK
6
CONTINUOUS
10
2.77753
20
-5.98263
11
2.7778
21
-5.98255
0
LINE
8
BLACK
6
CONTINUOUS
10
2.7778
20
-5.98255
11
2.77847
21
-5.98248
0
LINE
8
BLACK
6
CONTINUOUS
10
2.77847
20
-5.98248
11
2.77914
21
-5.98238
0
LINE
8
BLACK
6
CONTINUOUS
10
2.77914
20
-5.98238
11
2.77943
21
-5.98239
0
LINE
8
BLACK
6
CONTINUOUS
10
2.77943
20
-5.98239
11
2.77971
21
-5.98236
0
LINE
8
BLACK
6
CONTINUOUS
10
2.77971
20
-5.98236
11
2.81721
21
-5.98236
0
LINE
8
BLACK
6
CONTINUOUS
10
2.81721
20
-5.98236
11
2.81735
21
-5.98236
0
LINE
8
BLACK
6
CONTINUOUS
10
2.78204
20
-6.00204
11
2.7668
21
-6.00966
0
LINE
8
BLACK
6
CONTINUOUS
10
2.7668
20
-6.00966
11
2.75111
21
-6.02535
0
LINE
8
BLACK
6
CONTINUOUS
10
2.75111
20
-6.02535
11
2.74269
21
-6.05903
0
LINE
8
BLACK
6
CONTINUOUS
10
2.74269
20
-6.05903
11
2.74269
21
-6.12222
0
LINE
8
BLACK
6
CONTINUOUS
10
2.74269
20
-6.12222
11
2.75111
21
-6.1559
0
LINE
8
BLACK
6
CONTINUOUS
10
2.75111
20
-6.1559
11
2.7668
21
-6.17159
0
LINE
8
BLACK
6
CONTINUOUS
10
2.7668
20
-6.17159
11
2.78204
21
-6.17921
0
LINE
8
BLACK
6
CONTINUOUS
10
2.78204
20
-6.17921
11
2.81489
21
-6.17921
0
LINE
8
BLACK
6
CONTINUOUS
10
2.81489
20
-6.17921
11
2.83013
21
-6.17159
0
LINE
8
BLACK
6
CONTINUOUS
10
2.83013
20
-6.17159
11
2.84582
21
-6.1559
0
LINE
8
BLACK
6
CONTINUOUS
10
2.84582
20
-6.1559
11
2.85424
21
-6.12222
0
LINE
8
BLACK
6
CONTINUOUS
10
2.85424
20
-6.12222
11
2.85424
21
-6.05903
0
LINE
8
BLACK
6
CONTINUOUS
10
2.85424
20
-6.05903
11
2.84582
21
-6.02535
0
LINE
8
BLACK
6
CONTINUOUS
10
2.84582
20
-6.02535
11
2.83013
21
-6.00966
0
LINE
8
BLACK
6
CONTINUOUS
10
2.83013
20
-6.00966
11
2.81489
21
-6.00204
0
LINE
8
BLACK
6
CONTINUOUS
10
2.81489
20
-6.00204
11
2.78204
21
-6.00204
0
LINE
8
BLACK
6
CONTINUOUS
10
3.26729
20
-5.98236
11
3.2692
21
-5.98257
0
LINE
8
BLACK
6
CONTINUOUS
10
3.2692
20
-5.98257
11
3.27103
21
-5.98315
0
LINE
8
BLACK
6
CONTINUOUS
10
3.27103
20
-5.98315
11
3.27271
21
-5.98408
0
LINE
8
BLACK
6
CONTINUOUS
10
3.27271
20
-5.98408
11
3.27419
21
-5.98531
0
LINE
8
BLACK
6
CONTINUOUS
10
3.27419
20
-5.98531
11
3.27539
21
-5.98681
0
LINE
8
BLACK
6
CONTINUOUS
10
3.27539
20
-5.98681
11
3.27628
21
-5.98851
0
LINE
8
BLACK
6
CONTINUOUS
10
3.27628
20
-5.98851
11
3.27682
21
-5.99036
0
LINE
8
BLACK
6
CONTINUOUS
10
3.27682
20
-5.99036
11
3.277
21
-5.99227
0
LINE
8
BLACK
6
CONTINUOUS
10
3.277
20
-5.99227
11
3.2768
21
-5.99418
0
LINE
8
BLACK
6
CONTINUOUS
10
3.2768
20
-5.99418
11
3.27623
21
-5.99602
0
LINE
8
BLACK
6
CONTINUOUS
10
3.27623
20
-5.99602
11
3.27531
21
-5.9977
0
LINE
8
BLACK
6
CONTINUOUS
10
3.27531
20
-5.9977
11
3.27409
21
-5.99918
0
LINE
8
BLACK
6
CONTINUOUS
10
3.27409
20
-5.99918
11
3.2726
21
-6.0004
0
LINE
8
BLACK
6
CONTINUOUS
10
3.2726
20
-6.0004
11
3.2709
21
-6.0013
0
LINE
8
BLACK
6
CONTINUOUS
10
3.2709
20
-6.0013
11
3.26907
21
-6.00186
0
LINE
8
BLACK
6
CONTINUOUS
10
3.26907
20
-6.00186
11
3.26715
21
-6.00204
0
LINE
8
BLACK
6
CONTINUOUS
10
3.26715
20
-6.00204
11
3.18326
21
-6.00204
0
LINE
8
BLACK
6
CONTINUOUS
10
3.18326
20
-6.00204
11
3.18326
21
-6.0761
0
LINE
8
BLACK
6
CONTINUOUS
10
3.18326
20
-6.0761
11
3.23903
21
-6.0761
0
LINE
8
BLACK
6
CONTINUOUS
10
3.23903
20
-6.0761
11
3.23917
21
-6.0761
0
LINE
8
BLACK
6
CONTINUOUS
10
3.23917
20
-6.0761
11
3.24108
21
-6.07631
0
LINE
8
BLACK
6
CONTINUOUS
10
3.24108
20
-6.07631
11
3.24291
21
-6.07689
0
LINE
8
BLACK
6
CONTINUOUS
10
3.24291
20
-6.07689
11
3.24459
21
-6.07782
0
LINE
8
BLACK
6
CONTINUOUS
10
3.24459
20
-6.07782
11
3.24606
21
-6.07905
0
LINE
8
BLACK
6
CONTINUOUS
10
3.24606
20
-6.07905
11
3.24727
21
-6.08055
0
LINE
8
BLACK
6
CONTINUOUS
10
3.24727
20
-6.08055
11
3.24816
21
-6.08225
0
LINE
8
BLACK
6
CONTINUOUS
10
3.24816
20
-6.08225
11
3.2487
21
-6.08409
0
LINE
8
BLACK
6
CONTINUOUS
10
3.2487
20
-6.08409
11
3.24887
21
-6.08601
0
LINE
8
BLACK
6
CONTINUOUS
10
3.24887
20
-6.08601
11
3.24867
21
-6.08792
0
LINE
8
BLACK
6
CONTINUOUS
10
3.24867
20
-6.08792
11
3.24811
21
-6.08975
0
LINE
8
BLACK
6
CONTINUOUS
10
3.24811
20
-6.08975
11
3.24719
21
-6.09144
0
LINE
8
BLACK
6
CONTINUOUS
10
3.24719
20
-6.09144
11
3.24597
21
-6.09292
0
LINE
8
BLACK
6
CONTINUOUS
10
3.24597
20
-6.09292
11
3.24448
21
-6.09414
0
LINE
8
BLACK
6
CONTINUOUS
10
3.24448
20
-6.09414
11
3.24278
21
-6.09504
0
LINE
8
BLACK
6
CONTINUOUS
10
3.24278
20
-6.09504
11
3.24094
21
-6.09559
0
LINE
8
BLACK
6
CONTINUOUS
10
3.24094
20
-6.09559
11
3.23903
21
-6.09578
0
LINE
8
BLACK
6
CONTINUOUS
10
3.23903
20
-6.09578
11
3.18326
21
-6.09578
0
LINE
8
BLACK
6
CONTINUOUS
10
3.18326
20
-6.09578
11
3.18326
21
-6.17921
0
LINE
8
BLACK
6
CONTINUOUS
10
3.18326
20
-6.17921
11
3.26715
21
-6.17921
0
LINE
8
BLACK
6
CONTINUOUS
10
3.26715
20
-6.17921
11
3.26729
21
-6.17921
0
LINE
8
BLACK
6
CONTINUOUS
10
3.26729
20
-6.17921
11
3.2692
21
-6.17942
0
LINE
8
BLACK
6
CONTINUOUS
10
3.2692
20
-6.17942
11
3.27103
21
-6.18
0
LINE
8
BLACK
6
CONTINUOUS
10
3.27103
20
-6.18
11
3.27271
21
-6.18093
0
LINE
8
BLACK
6
CONTINUOUS
10
3.27271
20
-6.18093
11
3.27419
21
-6.18216
0
LINE
8
BLACK
6
CONTINUOUS
10
3.27419
20
-6.18216
11
3.27539
21
-6.18366
0
LINE
8
BLACK
6
CONTINUOUS
10
3.27539
20
-6.18366
11
3.27628
21
-6.18536
0
LINE
8
BLACK
6
CONTINUOUS
10
3.27628
20
-6.18536
11
3.27682
21
-6.18721
0
LINE
8
BLACK
6
CONTINUOUS
10
3.27682
20
-6.18721
11
3.277
21
-6.18912
0
LINE
8
BLACK
6
CONTINUOUS
10
3.277
20
-6.18912
11
3.2768
21
-6.19103
0
LINE
8
BLACK
6
CONTINUOUS
10
3.2768
20
-6.19103
11
3.27623
21
-6.19287
0
LINE
8
BLACK
6
CONTINUOUS
10
3.27623
20
-6.19287
11
3.27531
21
-6.19456
0
LINE
8
BLACK
6
CONTINUOUS
10
3.27531
20
-6.19456
11
3.27409
21
-6.19604
0
LINE
8
BLACK
6
CONTINUOUS
10
3.27409
20
-6.19604
11
3.2726
21
-6.19725
0
LINE
8
BLACK
6
CONTINUOUS
10
3.2726
20
-6.19725
11
3.2709
21
-6.19815
0
LINE
8
BLACK
6
CONTINUOUS
10
3.2709
20
-6.19815
11
3.26907
21
-6.19871
0
LINE
8
BLACK
6
CONTINUOUS
10
3.26907
20
-6.19871
11
3.26715
21
-6.19889
0
LINE
8
BLACK
6
CONTINUOUS
10
3.26715
20
-6.19889
11
3.17342
21
-6.19889
0
LINE
8
BLACK
6
CONTINUOUS
10
3.17342
20
-6.19889
11
3.17335
21
-6.19889
0
LINE
8
BLACK
6
CONTINUOUS
10
3.17335
20
-6.19889
11
3.17335
21
-6.19889
0
LINE
8
BLACK
6
CONTINUOUS
10
3.17335
20
-6.19889
11
3.17334
21
-6.19889
0
LINE
8
BLACK
6
CONTINUOUS
10
3.17334
20
-6.19889
11
3.17328
21
-6.19889
0
LINE
8
BLACK
6
CONTINUOUS
10
3.17328
20
-6.19889
11
3.17236
21
-6.19879
0
LINE
8
BLACK
6
CONTINUOUS
10
3.17236
20
-6.19879
11
3.17144
21
-6.19869
0
LINE
8
BLACK
6
CONTINUOUS
10
3.17144
20
-6.19869
11
3.1714
21
-6.19868
0
LINE
8
BLACK
6
CONTINUOUS
10
3.1714
20
-6.19868
11
3.17137
21
-6.19868
0
LINE
8
BLACK
6
CONTINUOUS
10
3.17137
20
-6.19868
11
3.17049
21
-6.1984
0
LINE
8
BLACK
6
CONTINUOUS
10
3.17049
20
-6.1984
11
3.1696
21
-6.19812
0
LINE
8
BLACK
6
CONTINUOUS
10
3.1696
20
-6.19812
11
3.16957
21
-6.19811
0
LINE
8
BLACK
6
CONTINUOUS
10
3.16957
20
-6.19811
11
3.16954
21
-6.1981
0
LINE
8
BLACK
6
CONTINUOUS
10
3.16954
20
-6.1981
11
3.16873
21
-6.19765
0
LINE
8
BLACK
6
CONTINUOUS
10
3.16873
20
-6.19765
11
3.16791
21
-6.19721
0
LINE
8
BLACK
6
CONTINUOUS
10
3.16791
20
-6.19721
11
3.16789
21
-6.19719
0
LINE
8
BLACK
6
CONTINUOUS
10
3.16789
20
-6.19719
11
3.16786
21
-6.19717
0
LINE
8
BLACK
6
CONTINUOUS
10
3.16786
20
-6.19717
11
3.16715
21
-6.19658
0
LINE
8
BLACK
6
CONTINUOUS
10
3.16715
20
-6.19658
11
3.16643
21
-6.19599
0
LINE
8
BLACK
6
CONTINUOUS
10
3.16643
20
-6.19599
11
3.16641
21
-6.19596
0
LINE
8
BLACK
6
CONTINUOUS
10
3.16641
20
-6.19596
11
3.16638
21
-6.19594
0
LINE
8
BLACK
6
CONTINUOUS
10
3.16638
20
-6.19594
11
3.1658
21
-6.19522
0
LINE
8
BLACK
6
CONTINUOUS
10
3.1658
20
-6.19522
11
3.16522
21
-6.1945
0
LINE
8
BLACK
6
CONTINUOUS
10
3.16522
20
-6.1945
11
3.1652
21
-6.19447
0
LINE
8
BLACK
6
CONTINUOUS
10
3.1652
20
-6.19447
11
3.16518
21
-6.19444
0
LINE
8
BLACK
6
CONTINUOUS
10
3.16518
20
-6.19444
11
3.16475
21
-6.19362
0
LINE
8
BLACK
6
CONTINUOUS
10
3.16475
20
-6.19362
11
3.16432
21
-6.1928
0
LINE
8
BLACK
6
CONTINUOUS
10
3.16432
20
-6.1928
11
3.16431
21
-6.19277
0
LINE
8
BLACK
6
CONTINUOUS
10
3.16431
20
-6.19277
11
3.16429
21
-6.19274
0
LINE
8
BLACK
6
CONTINUOUS
10
3.16429
20
-6.19274
11
3.16403
21
-6.19185
0
LINE
8
BLACK
6
CONTINUOUS
10
3.16403
20
-6.19185
11
3.16376
21
-6.19096
0
LINE
8
BLACK
6
CONTINUOUS
10
3.16376
20
-6.19096
11
3.16376
21
-6.19093
0
LINE
8
BLACK
6
CONTINUOUS
10
3.16376
20
-6.19093
11
3.16375
21
-6.1909
0
LINE
8
BLACK
6
CONTINUOUS
10
3.16375
20
-6.1909
11
3.16366
21
-6.18997
0
LINE
8
BLACK
6
CONTINUOUS
10
3.16366
20
-6.18997
11
3.16357
21
-6.18905
0
LINE
8
BLACK
6
CONTINUOUS
10
3.16357
20
-6.18905
11
3.16357
21
-5.9922
0
LINE
8
BLACK
6
CONTINUOUS
10
3.16357
20
-5.9922
11
3.16357
21
-5.99213
0
LINE
8
BLACK
6
CONTINUOUS
10
3.16357
20
-5.99213
11
3.16357
21
-5.99213
0
LINE
8
BLACK
6
CONTINUOUS
10
3.16357
20
-5.99213
11
3.16357
21
-5.99213
0
LINE
8
BLACK
6
CONTINUOUS
10
3.16357
20
-5.99213
11
3.16357
21
-5.99206
0
LINE
8
BLACK
6
CONTINUOUS
10
3.16357
20
-5.99206
11
3.16368
21
-5.99114
0
LINE
8
BLACK
6
CONTINUOUS
10
3.16368
20
-5.99114
11
3.16377
21
-5.99022
0
LINE
8
BLACK
6
CONTINUOUS
10
3.16377
20
-5.99022
11
3.16378
21
-5.99019
0
LINE
8
BLACK
6
CONTINUOUS
10
3.16378
20
-5.99019
11
3.16379
21
-5.99015
0
LINE
8
BLACK
6
CONTINUOUS
10
3.16379
20
-5.99015
11
3.16407
21
-5.98927
0
LINE
8
BLACK
6
CONTINUOUS
10
3.16407
20
-5.98927
11
3.16434
21
-5.98839
0
LINE
8
BLACK
6
CONTINUOUS
10
3.16434
20
-5.98839
11
3.16436
21
-5.98836
0
LINE
8
BLACK
6
CONTINUOUS
10
3.16436
20
-5.98836
11
3.16437
21
-5.98832
0
LINE
8
BLACK
6
CONTINUOUS
10
3.16437
20
-5.98832
11
3.16482
21
-5.98751
0
LINE
8
BLACK
6
CONTINUOUS
10
3.16482
20
-5.98751
11
3.16526
21
-5.9867
0
LINE
8
BLACK
6
CONTINUOUS
10
3.16526
20
-5.9867
11
3.16528
21
-5.98667
0
LINE
8
BLACK
6
CONTINUOUS
10
3.16528
20
-5.98667
11
3.16529
21
-5.98664
0
LINE
8
BLACK
6
CONTINUOUS
10
3.16529
20
-5.98664
11
3.16589
21
-5.98593
0
LINE
8
BLACK
6
CONTINUOUS
10
3.16589
20
-5.98593
11
3.16648
21
-5.98522
0
LINE
8
BLACK
6
CONTINUOUS
10
3.16648
20
-5.98522
11
3.16651
21
-5.9852
0
LINE
8
BLACK
6
CONTINUOUS
10
3.16651
20
-5.9852
11
3.16653
21
-5.98517
0
LINE
8
BLACK
6
CONTINUOUS
10
3.16653
20
-5.98517
11
3.16725
21
-5.98459
0
LINE
8
BLACK
6
CONTINUOUS
10
3.16725
20
-5.98459
11
3.16797
21
-5.984
0
LINE
8
BLACK
6
CONTINUOUS
10
3.16797
20
-5.984
11
3.168
21
-5.98399
0
LINE
8
BLACK
6
CONTINUOUS
10
3.168
20
-5.98399
11
3.16803
21
-5.98397
0
LINE
8
BLACK
6
CONTINUOUS
10
3.16803
20
-5.98397
11
3.16885
21
-5.98354
0
LINE
8
BLACK
6
CONTINUOUS
10
3.16885
20
-5.98354
11
3.16967
21
-5.9831
0
LINE
8
BLACK
6
CONTINUOUS
10
3.16967
20
-5.9831
11
3.1697
21
-5.98309
0
LINE
8
BLACK
6
CONTINUOUS
10
3.1697
20
-5.98309
11
3.16973
21
-5.98308
0
LINE
8
BLACK
6
CONTINUOUS
10
3.16973
20
-5.98308
11
3.17062
21
-5.98281
0
LINE
8
BLACK
6
CONTINUOUS
10
3.17062
20
-5.98281
11
3.1715
21
-5.98255
0
LINE
8
BLACK
6
CONTINUOUS
10
3.1715
20
-5.98255
11
3.17154
21
-5.98254
0
LINE
8
BLACK
6
CONTINUOUS
10
3.17154
20
-5.98254
11
3.17157
21
-5.98253
0
LINE
8
BLACK
6
CONTINUOUS
10
3.17157
20
-5.98253
11
3.17249
21
-5.98245
0
LINE
8
BLACK
6
CONTINUOUS
10
3.17249
20
-5.98245
11
3.17342
21
-5.98236
0
LINE
8
BLACK
6
CONTINUOUS
10
3.17342
20
-5.98236
11
3.26715
21
-5.98236
0
LINE
8
BLACK
6
CONTINUOUS
10
3.26715
20
-5.98236
11
3.26729
21
-5.98236
0
LINE
8
BLACK
6
CONTINUOUS
10
2.6205
20
-5.98236
11
2.62079
21
-5.98239
0
LINE
8
BLACK
6
CONTINUOUS
10
2.62079
20
-5.98239
11
2.62107
21
-5.98238
0
LINE
8
BLACK
6
CONTINUOUS
10
2.62107
20
-5.98238
11
2.62174
21
-5.9825
0
LINE
8
BLACK
6
CONTINUOUS
10
2.62174
20
-5.9825
11
2.62241
21
-5.98257
0
LINE
8
BLACK
6
CONTINUOUS
10
2.62241
20
-5.98257
11
2.62268
21
-5.98266
0
LINE
8
BLACK
6
CONTINUOUS
10
2.62268
20
-5.98266
11
2.62297
21
-5.98271
0
LINE
8
BLACK
6
CONTINUOUS
10
2.62297
20
-5.98271
11
2.6236
21
-5.98295
0
LINE
8
BLACK
6
CONTINUOUS
10
2.6236
20
-5.98295
11
2.62424
21
-5.98315
0
LINE
8
BLACK
6
CONTINUOUS
10
2.62424
20
-5.98315
11
2.62449
21
-5.98329
0
LINE
8
BLACK
6
CONTINUOUS
10
2.62449
20
-5.98329
11
2.62476
21
-5.9834
0
LINE
8
BLACK
6
CONTINUOUS
10
2.62476
20
-5.9834
11
2.64351
21
-5.99277
0
LINE
8
BLACK
6
CONTINUOUS
10
2.64351
20
-5.99277
11
2.64363
21
-5.99283
0
LINE
8
BLACK
6
CONTINUOUS
10
2.64363
20
-5.99283
11
2.6441
21
-5.99313
0
LINE
8
BLACK
6
CONTINUOUS
10
2.6441
20
-5.99313
11
2.64458
21
-5.9934
0
LINE
8
BLACK
6
CONTINUOUS
10
2.64458
20
-5.9934
11
2.6449
21
-5.99366
0
LINE
8
BLACK
6
CONTINUOUS
10
2.6449
20
-5.99366
11
2.64524
21
-5.99388
0
LINE
8
BLACK
6
CONTINUOUS
10
2.64524
20
-5.99388
11
2.64564
21
-5.99426
0
LINE
8
BLACK
6
CONTINUOUS
10
2.64564
20
-5.99426
11
2.64607
21
-5.99462
0
LINE
8
BLACK
6
CONTINUOUS
10
2.64607
20
-5.99462
11
2.65544
21
-6.00399
0
LINE
8
BLACK
6
CONTINUOUS
10
2.65544
20
-6.00399
11
2.65554
21
-6.00409
0
LINE
8
BLACK
6
CONTINUOUS
10
2.65554
20
-6.00409
11
2.65588
21
-6.00452
0
LINE
8
BLACK
6
CONTINUOUS
10
2.65588
20
-6.00452
11
2.65626
21
-6.00492
0
LINE
8
BLACK
6
CONTINUOUS
10
2.65626
20
-6.00492
11
2.65648
21
-6.00527
0
LINE
8
BLACK
6
CONTINUOUS
10
2.65648
20
-6.00527
11
2.65674
21
-6.00559
0
LINE
8
BLACK
6
CONTINUOUS
10
2.65674
20
-6.00559
11
2.65699
21
-6.00608
0
LINE
8
BLACK
6
CONTINUOUS
10
2.65699
20
-6.00608
11
2.65728
21
-6.00655
0
LINE
8
BLACK
6
CONTINUOUS
10
2.65728
20
-6.00655
11
2.66666
21
-6.02529
0
LINE
8
BLACK
6
CONTINUOUS
10
2.66666
20
-6.02529
11
2.66672
21
-6.02542
0
LINE
8
BLACK
6
CONTINUOUS
10
2.66672
20
-6.02542
11
2.66682
21
-6.02569
0
LINE
8
BLACK
6
CONTINUOUS
10
2.66682
20
-6.02569
11
2.66696
21
-6.02595
0
LINE
8
BLACK
6
CONTINUOUS
10
2.66696
20
-6.02595
11
2.66715
21
-6.02659
0
LINE
8
BLACK
6
CONTINUOUS
10
2.66715
20
-6.02659
11
2.66738
21
-6.02722
0
LINE
8
BLACK
6
CONTINUOUS
10
2.66738
20
-6.02722
11
2.66743
21
-6.02751
0
LINE
8
BLACK
6
CONTINUOUS
10
2.66743
20
-6.02751
11
2.66751
21
-6.02778
0
LINE
8
BLACK
6
CONTINUOUS
10
2.66751
20
-6.02778
11
2.66758
21
-6.02845
0
LINE
8
BLACK
6
CONTINUOUS
10
2.66758
20
-6.02845
11
2.66768
21
-6.02912
0
LINE
8
BLACK
6
CONTINUOUS
10
2.66768
20
-6.02912
11
2.66767
21
-6.02941
0
LINE
8
BLACK
6
CONTINUOUS
10
2.66767
20
-6.02941
11
2.6677
21
-6.0297
0
LINE
8
BLACK
6
CONTINUOUS
10
2.6677
20
-6.0297
11
2.6677
21
-6.05782
0
LINE
8
BLACK
6
CONTINUOUS
10
2.6677
20
-6.05782
11
2.6677
21
-6.05796
0
LINE
8
BLACK
6
CONTINUOUS
10
2.6677
20
-6.05796
11
2.66766
21
-6.05824
0
LINE
8
BLACK
6
CONTINUOUS
10
2.66766
20
-6.05824
11
2.66767
21
-6.05853
0
LINE
8
BLACK
6
CONTINUOUS
10
2.66767
20
-6.05853
11
2.66756
21
-6.0592
0
LINE
8
BLACK
6
CONTINUOUS
10
2.66756
20
-6.0592
11
2.66748
21
-6.05986
0
LINE
8
BLACK
6
CONTINUOUS
10
2.66748
20
-6.05986
11
2.6674
21
-6.06014
0
LINE
8
BLACK
6
CONTINUOUS
10
2.6674
20
-6.06014
11
2.66735
21
-6.06043
0
LINE
8
BLACK
6
CONTINUOUS
10
2.66735
20
-6.06043
11
2.66711
21
-6.06105
0
LINE
8
BLACK
6
CONTINUOUS
10
2.66711
20
-6.06105
11
2.6669
21
-6.0617
0
LINE
8
BLACK
6
CONTINUOUS
10
2.6669
20
-6.0617
11
2.66676
21
-6.06195
0
LINE
8
BLACK
6
CONTINUOUS
10
2.66676
20
-6.06195
11
2.66666
21
-6.06222
0
LINE
8
BLACK
6
CONTINUOUS
10
2.66666
20
-6.06222
11
2.65728
21
-6.08097
0
LINE
8
BLACK
6
CONTINUOUS
10
2.65728
20
-6.08097
11
2.65722
21
-6.08109
0
LINE
8
BLACK
6
CONTINUOUS
10
2.65722
20
-6.08109
11
2.65692
21
-6.08155
0
LINE
8
BLACK
6
CONTINUOUS
10
2.65692
20
-6.08155
11
2.65666
21
-6.08204
0
LINE
8
BLACK
6
CONTINUOUS
10
2.65666
20
-6.08204
11
2.6564
21
-6.08236
0
LINE
8
BLACK
6
CONTINUOUS
10
2.6564
20
-6.08236
11
2.65618
21
-6.0827
0
LINE
8
BLACK
6
CONTINUOUS
10
2.65618
20
-6.0827
11
2.65579
21
-6.0831
0
LINE
8
BLACK
6
CONTINUOUS
10
2.65579
20
-6.0831
11
2.65544
21
-6.08353
0
LINE
8
BLACK
6
CONTINUOUS
10
2.65544
20
-6.08353
11
2.64607
21
-6.0929
0
LINE
8
BLACK
6
CONTINUOUS
10
2.64607
20
-6.0929
11
2.64597
21
-6.093
0
LINE
8
BLACK
6
CONTINUOUS
10
2.64597
20
-6.093
11
2.64554
21
-6.09334
0
LINE
8
BLACK
6
CONTINUOUS
10
2.64554
20
-6.09334
11
2.64514
21
-6.09372
0
LINE
8
BLACK
6
CONTINUOUS
10
2.64514
20
-6.09372
11
2.64479
21
-6.09394
0
LINE
8
BLACK
6
CONTINUOUS
10
2.64479
20
-6.09394
11
2.64447
21
-6.09419
0
LINE
8
BLACK
6
CONTINUOUS
10
2.64447
20
-6.09419
11
2.64398
21
-6.09445
0
LINE
8
BLACK
6
CONTINUOUS
10
2.64398
20
-6.09445
11
2.64351
21
-6.09474
0
LINE
8
BLACK
6
CONTINUOUS
10
2.64351
20
-6.09474
11
2.62476
21
-6.10412
0
LINE
8
BLACK
6
CONTINUOUS
10
2.62476
20
-6.10412
11
2.62464
21
-6.10418
0
LINE
8
BLACK
6
CONTINUOUS
10
2.62464
20
-6.10418
11
2.62437
21
-6.10428
0
LINE
8
BLACK
6
CONTINUOUS
10
2.62437
20
-6.10428
11
2.62411
21
-6.10441
0
LINE
8
BLACK
6
CONTINUOUS
10
2.62411
20
-6.10441
11
2.62347
21
-6.10461
0
LINE
8
BLACK
6
CONTINUOUS
10
2.62347
20
-6.10461
11
2.62284
21
-6.10484
0
LINE
8
BLACK
6
CONTINUOUS
10
2.62284
20
-6.10484
11
2.62255
21
-6.10488
0
LINE
8
BLACK
6
CONTINUOUS
10
2.62255
20
-6.10488
11
2.62227
21
-6.10497
0
LINE
8
BLACK
6
CONTINUOUS
10
2.62227
20
-6.10497
11
2.6216
21
-6.10503
0
LINE
8
BLACK
6
CONTINUOUS
10
2.6216
20
-6.10503
11
2.62094
21
-6.10514
0
LINE
8
BLACK
6
CONTINUOUS
10
2.62094
20
-6.10514
11
2.62065
21
-6.10513
0
LINE
8
BLACK
6
CONTINUOUS
10
2.62065
20
-6.10513
11
2.62036
21
-6.10516
0
LINE
8
BLACK
6
CONTINUOUS
10
2.62036
20
-6.10516
11
2.55521
21
-6.10516
0
LINE
8
BLACK
6
CONTINUOUS
10
2.55521
20
-6.10516
11
2.55521
21
-6.18905
0
LINE
8
BLACK
6
CONTINUOUS
10
2.55521
20
-6.18905
11
2.55521
21
-6.18919
0
LINE
8
BLACK
6
CONTINUOUS
10
2.55521
20
-6.18919
11
2.555
21
-6.1911
0
LINE
8
BLACK
6
CONTINUOUS
10
2.555
20
-6.1911
11
2.55442
21
-6.19293
0
LINE
8
BLACK
6
CONTINUOUS
10
2.55442
20
-6.19293
11
2.55349
21
-6.19461
0
LINE
8
BLACK
6
CONTINUOUS
10
2.55349
20
-6.19461
11
2.55226
21
-6.19608
0
LINE
8
BLACK
6
CONTINUOUS
10
2.55226
20
-6.19608
11
2.55076
21
-6.19729
0
LINE
8
BLACK
6
CONTINUOUS
10
2.55076
20
-6.19729
11
2.54906
21
-6.19818
0
LINE
8
BLACK
6
CONTINUOUS
10
2.54906
20
-6.19818
11
2.54721
21
-6.19872
0
LINE
8
BLACK
6
CONTINUOUS
10
2.54721
20
-6.19872
11
2.5453
21
-6.19889
0
LINE
8
BLACK
6
CONTINUOUS
10
2.5453
20
-6.19889
11
2.54339
21
-6.19869
0
LINE
8
BLACK
6
CONTINUOUS
10
2.54339
20
-6.19869
11
2.54156
21
-6.19812
0
LINE
8
BLACK
6
CONTINUOUS
10
2.54156
20
-6.19812
11
2.53987
21
-6.19721
0
LINE
8
BLACK
6
CONTINUOUS
10
2.53987
20
-6.19721
11
2.53839
21
-6.19599
0
LINE
8
BLACK
6
CONTINUOUS
10
2.53839
20
-6.19599
11
2.53717
21
-6.1945
0
LINE
8
BLACK
6
CONTINUOUS
10
2.53717
20
-6.1945
11
2.53627
21
-6.1928
0
LINE
8
BLACK
6
CONTINUOUS
10
2.53627
20
-6.1928
11
2.53571
21
-6.19096
0
LINE
8
BLACK
6
CONTINUOUS
10
2.53571
20
-6.19096
11
2.53553
21
-6.18905
0
LINE
8
BLACK
6
CONTINUOUS
10
2.53553
20
-6.18905
11
2.53553
21
-5.9922
0
LINE
8
BLACK
6
CONTINUOUS
10
2.53553
20
-5.9922
11
2.53553
21
-5.99213
0
LINE
8
BLACK
6
CONTINUOUS
10
2.53553
20
-5.99213
11
2.53553
21
-5.99213
0
LINE
8
BLACK
6
CONTINUOUS
10
2.53553
20
-5.99213
11
2.53553
21
-5.99213
0
LINE
8
BLACK
6
CONTINUOUS
10
2.53553
20
-5.99213
11
2.53553
21
-5.99206
0
LINE
8
BLACK
6
CONTINUOUS
10
2.53553
20
-5.99206
11
2.53563
21
-5.99114
0
LINE
8
BLACK
6
CONTINUOUS
10
2.53563
20
-5.99114
11
2.53573
21
-5.99022
0
LINE
8
BLACK
6
CONTINUOUS
10
2.53573
20
-5.99022
11
2.53574
21
-5.99019
0
LINE
8
BLACK
6
CONTINUOUS
10
2.53574
20
-5.99019
11
2.53574
21
-5.99015
0
LINE
8
BLACK
6
CONTINUOUS
10
2.53574
20
-5.99015
11
2.53602
21
-5.98927
0
LINE
8
BLACK
6
CONTINUOUS
10
2.53602
20
-5.98927
11
2.5363
21
-5.98839
0
LINE
8
BLACK
6
CONTINUOUS
10
2.5363
20
-5.98839
11
2.53631
21
-5.98836
0
LINE
8
BLACK
6
CONTINUOUS
10
2.53631
20
-5.98836
11
2.53632
21
-5.98832
0
LINE
8
BLACK
6
CONTINUOUS
10
2.53632
20
-5.98832
11
2.53677
21
-5.98751
0
LINE
8
BLACK
6
CONTINUOUS
10
2.53677
20
-5.98751
11
2.53721
21
-5.9867
0
LINE
8
BLACK
6
CONTINUOUS
10
2.53721
20
-5.9867
11
2.53723
21
-5.98667
0
LINE
8
BLACK
6
CONTINUOUS
10
2.53723
20
-5.98667
11
2.53725
21
-5.98664
0
LINE
8
BLACK
6
CONTINUOUS
10
2.53725
20
-5.98664
11
2.53784
21
-5.98593
0
LINE
8
BLACK
6
CONTINUOUS
10
2.53784
20
-5.98593
11
2.53843
21
-5.98522
0
LINE
8
BLACK
6
CONTINUOUS
10
2.53843
20
-5.98522
11
2.53846
21
-5.9852
0
LINE
8
BLACK
6
CONTINUOUS
10
2.53846
20
-5.9852
11
2.53848
21
-5.98517
0
LINE
8
BLACK
6
CONTINUOUS
10
2.53848
20
-5.98517
11
2.5392
21
-5.98459
0
LINE
8
BLACK
6
CONTINUOUS
10
2.5392
20
-5.98459
11
2.53992
21
-5.984
0
LINE
8
BLACK
6
CONTINUOUS
10
2.53992
20
-5.984
11
2.53995
21
-5.98399
0
LINE
8
BLACK
6
CONTINUOUS
10
2.53995
20
-5.98399
11
2.53998
21
-5.98397
0
LINE
8
BLACK
6
CONTINUOUS
10
2.53998
20
-5.98397
11
2.5408
21
-5.98354
0
LINE
8
BLACK
6
CONTINUOUS
10
2.5408
20
-5.98354
11
2.54162
21
-5.9831
0
LINE
8
BLACK
6
CONTINUOUS
10
2.54162
20
-5.9831
11
2.54165
21
-5.98309
0
LINE
8
BLACK
6
CONTINUOUS
10
2.54165
20
-5.98309
11
2.54168
21
-5.98308
0
LINE
8
BLACK
6
CONTINUOUS
10
2.54168
20
-5.98308
11
2.54257
21
-5.98281
0
LINE
8
BLACK
6
CONTINUOUS
10
2.54257
20
-5.98281
11
2.54346
21
-5.98255
0
LINE
8
BLACK
6
CONTINUOUS
10
2.54346
20
-5.98255
11
2.54349
21
-5.98254
0
LINE
8
BLACK
6
CONTINUOUS
10
2.54349
20
-5.98254
11
2.54352
21
-5.98253
0
LINE
8
BLACK
6
CONTINUOUS
10
2.54352
20
-5.98253
11
2.54445
21
-5.98245
0
LINE
8
BLACK
6
CONTINUOUS
10
2.54445
20
-5.98245
11
2.54537
21
-5.98236
0
LINE
8
BLACK
6
CONTINUOUS
10
2.54537
20
-5.98236
11
2.62036
21
-5.98236
0
LINE
8
BLACK
6
CONTINUOUS
10
2.62036
20
-5.98236
11
2.6205
21
-5.98236
0
LINE
8
BLACK
6
CONTINUOUS
10
2.55521
20
-6.00204
11
2.55521
21
-6.08547
0
LINE
8
BLACK
6
CONTINUOUS
10
2.55521
20
-6.08547
11
2.61804
21
-6.08547
0
LINE
8
BLACK
6
CONTINUOUS
10
2.61804
20
-6.08547
11
2.63328
21
-6.07785
0
LINE
8
BLACK
6
CONTINUOUS
10
2.63328
20
-6.07785
11
2.64039
21
-6.07074
0
LINE
8
BLACK
6
CONTINUOUS
10
2.64039
20
-6.07074
11
2.64801
21
-6.05549
0
LINE
8
BLACK
6
CONTINUOUS
10
2.64801
20
-6.05549
11
2.64801
21
-6.03202
0
LINE
8
BLACK
6
CONTINUOUS
10
2.64801
20
-6.03202
11
2.64039
21
-6.01678
0
LINE
8
BLACK
6
CONTINUOUS
10
2.64039
20
-6.01678
11
2.63328
21
-6.00966
0
LINE
8
BLACK
6
CONTINUOUS
10
2.63328
20
-6.00966
11
2.61804
21
-6.00204
0
LINE
8
BLACK
6
CONTINUOUS
10
2.61804
20
-6.00204
11
2.55521
21
-6.00204
0
LINE
8
BLACK
6
CONTINUOUS
10
3.42665
20
-5.98236
11
3.42693
21
-5.98239
0
LINE
8
BLACK
6
CONTINUOUS
10
3.42693
20
-5.98239
11
3.42722
21
-5.98238
0
LINE
8
BLACK
6
CONTINUOUS
10
3.42722
20
-5.98238
11
3.42789
21
-5.9825
0
LINE
8
BLACK
6
CONTINUOUS
10
3.42789
20
-5.9825
11
3.42856
21
-5.98257
0
LINE
8
BLACK
6
CONTINUOUS
10
3.42856
20
-5.98257
11
3.42883
21
-5.98266
0
LINE
8
BLACK
6
CONTINUOUS
10
3.42883
20
-5.98266
11
3.42912
21
-5.98271
0
LINE
8
BLACK
6
CONTINUOUS
10
3.42912
20
-5.98271
11
3.42975
21
-5.98295
0
LINE
8
BLACK
6
CONTINUOUS
10
3.42975
20
-5.98295
11
3.43039
21
-5.98315
0
LINE
8
BLACK
6
CONTINUOUS
10
3.43039
20
-5.98315
11
3.43064
21
-5.98329
0
LINE
8
BLACK
6
CONTINUOUS
10
3.43064
20
-5.98329
11
3.43091
21
-5.9834
0
LINE
8
BLACK
6
CONTINUOUS
10
3.43091
20
-5.9834
11
3.44966
21
-5.99277
0
LINE
8
BLACK
6
CONTINUOUS
10
3.44966
20
-5.99277
11
3.44978
21
-5.99283
0
LINE
8
BLACK
6
CONTINUOUS
10
3.44978
20
-5.99283
11
3.45024
21
-5.99313
0
LINE
8
BLACK
6
CONTINUOUS
10
3.45024
20
-5.99313
11
3.45073
21
-5.9934
0
LINE
8
BLACK
6
CONTINUOUS
10
3.45073
20
-5.9934
11
3.45105
21
-5.99366
0
LINE
8
BLACK
6
CONTINUOUS
10
3.45105
20
-5.99366
11
3.45139
21
-5.99388
0
LINE
8
BLACK
6
CONTINUOUS
10
3.45139
20
-5.99388
11
3.45179
21
-5.99426
0
LINE
8
BLACK
6
CONTINUOUS
10
3.45179
20
-5.99426
11
3.45222
21
-5.99462
0
LINE
8
BLACK
6
CONTINUOUS
10
3.45222
20
-5.99462
11
3.46159
21
-6.00399
0
LINE
8
BLACK
6
CONTINUOUS
10
3.46159
20
-6.00399
11
3.46169
21
-6.00409
0
LINE
8
BLACK
6
CONTINUOUS
10
3.46169
20
-6.00409
11
3.46203
21
-6.00452
0
LINE
8
BLACK
6
CONTINUOUS
10
3.46203
20
-6.00452
11
3.46241
21
-6.00492
0
LINE
8
BLACK
6
CONTINUOUS
10
3.46241
20
-6.00492
11
3.46263
21
-6.00527
0
LINE
8
BLACK
6
CONTINUOUS
10
3.46263
20
-6.00527
11
3.46289
21
-6.00559
0
LINE
8
BLACK
6
CONTINUOUS
10
3.46289
20
-6.00559
11
3.46314
21
-6.00608
0
LINE
8
BLACK
6
CONTINUOUS
10
3.46314
20
-6.00608
11
3.46343
21
-6.00655
0
LINE
8
BLACK
6
CONTINUOUS
10
3.46343
20
-6.00655
11
3.47281
21
-6.02529
0
LINE
8
BLACK
6
CONTINUOUS
10
3.47281
20
-6.02529
11
3.47287
21
-6.02542
0
LINE
8
BLACK
6
CONTINUOUS
10
3.47287
20
-6.02542
11
3.47297
21
-6.02569
0
LINE
8
BLACK
6
CONTINUOUS
10
3.47297
20
-6.02569
11
3.4731
21
-6.02595
0
LINE
8
BLACK
6
CONTINUOUS
10
3.4731
20
-6.02595
11
3.4733
21
-6.02659
0
LINE
8
BLACK
6
CONTINUOUS
10
3.4733
20
-6.02659
11
3.47353
21
-6.02722
0
LINE
8
BLACK
6
CONTINUOUS
10
3.47353
20
-6.02722
11
3.47358
21
-6.02751
0
LINE
8
BLACK
6
CONTINUOUS
10
3.47358
20
-6.02751
11
3.47366
21
-6.02778
0
LINE
8
BLACK
6
CONTINUOUS
10
3.47366
20
-6.02778
11
3.47373
21
-6.02845
0
LINE
8
BLACK
6
CONTINUOUS
10
3.47373
20
-6.02845
11
3.47383
21
-6.02912
0
LINE
8
BLACK
6
CONTINUOUS
10
3.47383
20
-6.02912
11
3.47382
21
-6.02941
0
LINE
8
BLACK
6
CONTINUOUS
10
3.47382
20
-6.02941
11
3.47385
21
-6.0297
0
LINE
8
BLACK
6
CONTINUOUS
10
3.47385
20
-6.0297
11
3.47385
21
-6.05782
0
LINE
8
BLACK
6
CONTINUOUS
10
3.47385
20
-6.05782
11
3.47385
21
-6.05796
0
LINE
8
BLACK
6
CONTINUOUS
10
3.47385
20
-6.05796
11
3.47381
21
-6.05824
0
LINE
8
BLACK
6
CONTINUOUS
10
3.47381
20
-6.05824
11
3.47382
21
-6.05853
0
LINE
8
BLACK
6
CONTINUOUS
10
3.47382
20
-6.05853
11
3.47371
21
-6.0592
0
LINE
8
BLACK
6
CONTINUOUS
10
3.47371
20
-6.0592
11
3.47363
21
-6.05986
0
LINE
8
BLACK
6
CONTINUOUS
10
3.47363
20
-6.05986
11
3.47354
21
-6.06014
0
LINE
8
BLACK
6
CONTINUOUS
10
3.47354
20
-6.06014
11
3.4735
21
-6.06043
0
LINE
8
BLACK
6
CONTINUOUS
10
3.4735
20
-6.06043
11
3.47325
21
-6.06105
0
LINE
8
BLACK
6
CONTINUOUS
10
3.47325
20
-6.06105
11
3.47305
21
-6.0617
0
LINE
8
BLACK
6
CONTINUOUS
10
3.47305
20
-6.0617
11
3.47291
21
-6.06195
0
LINE
8
BLACK
6
CONTINUOUS
10
3.47291
20
-6.06195
11
3.47281
21
-6.06222
0
LINE
8
BLACK
6
CONTINUOUS
10
3.47281
20
-6.06222
11
3.46343
21
-6.08097
0
LINE
8
BLACK
6
CONTINUOUS
10
3.46343
20
-6.08097
11
3.46337
21
-6.08109
0
LINE
8
BLACK
6
CONTINUOUS
10
3.46337
20
-6.08109
11
3.46307
21
-6.08155
0
LINE
8
BLACK
6
CONTINUOUS
10
3.46307
20
-6.08155
11
3.46281
21
-6.08204
0
LINE
8
BLACK
6
CONTINUOUS
10
3.46281
20
-6.08204
11
3.46255
21
-6.08236
0
LINE
8
BLACK
6
CONTINUOUS
10
3.46255
20
-6.08236
11
3.46233
21
-6.0827
0
LINE
8
BLACK
6
CONTINUOUS
10
3.46233
20
-6.0827
11
3.46194
21
-6.0831
0
LINE
8
BLACK
6
CONTINUOUS
10
3.46194
20
-6.0831
11
3.46159
21
-6.08353
0
LINE
8
BLACK
6
CONTINUOUS
10
3.46159
20
-6.08353
11
3.45222
21
-6.0929
0
LINE
8
BLACK
6
CONTINUOUS
10
3.45222
20
-6.0929
11
3.45212
21
-6.093
0
LINE
8
BLACK
6
CONTINUOUS
10
3.45212
20
-6.093
11
3.45169
21
-6.09334
0
LINE
8
BLACK
6
CONTINUOUS
10
3.45169
20
-6.09334
11
3.45128
21
-6.09372
0
LINE
8
BLACK
6
CONTINUOUS
10
3.45128
20
-6.09372
11
3.45094
21
-6.09394
0
LINE
8
BLACK
6
CONTINUOUS
10
3.45094
20
-6.09394
11
3.45062
21
-6.09419
0
LINE
8
BLACK
6
CONTINUOUS
10
3.45062
20
-6.09419
11
3.45013
21
-6.09445
0
LINE
8
BLACK
6
CONTINUOUS
10
3.45013
20
-6.09445
11
3.44966
21
-6.09474
0
LINE
8
BLACK
6
CONTINUOUS
10
3.44966
20
-6.09474
11
3.43091
21
-6.10412
0
LINE
8
BLACK
6
CONTINUOUS
10
3.43091
20
-6.10412
11
3.43079
21
-6.10418
0
LINE
8
BLACK
6
CONTINUOUS
10
3.43079
20
-6.10418
11
3.43052
21
-6.10428
0
LINE
8
BLACK
6
CONTINUOUS
10
3.43052
20
-6.10428
11
3.43026
21
-6.10441
0
LINE
8
BLACK
6
CONTINUOUS
10
3.43026
20
-6.10441
11
3.42962
21
-6.10461
0
LINE
8
BLACK
6
CONTINUOUS
10
3.42962
20
-6.10461
11
3.42898
21
-6.10484
0
LINE
8
BLACK
6
CONTINUOUS
10
3.42898
20
-6.10484
11
3.4287
21
-6.10488
0
LINE
8
BLACK
6
CONTINUOUS
10
3.4287
20
-6.10488
11
3.42842
21
-6.10497
0
LINE
8
BLACK
6
CONTINUOUS
10
3.42842
20
-6.10497
11
3.42775
21
-6.10503
0
LINE
8
BLACK
6
CONTINUOUS
10
3.42775
20
-6.10503
11
3.42709
21
-6.10514
0
LINE
8
BLACK
6
CONTINUOUS
10
3.42709
20
-6.10514
11
3.4268
21
-6.10513
0
LINE
8
BLACK
6
CONTINUOUS
10
3.4268
20
-6.10513
11
3.42651
21
-6.10516
0
LINE
8
BLACK
6
CONTINUOUS
10
3.42651
20
-6.10516
11
3.41729
21
-6.10516
0
LINE
8
BLACK
6
CONTINUOUS
10
3.41729
20
-6.10516
11
3.47207
21
-6.18341
0
LINE
8
BLACK
6
CONTINUOUS
10
3.47207
20
-6.18341
11
3.47215
21
-6.18352
0
LINE
8
BLACK
6
CONTINUOUS
10
3.47215
20
-6.18352
11
3.47307
21
-6.18521
0
LINE
8
BLACK
6
CONTINUOUS
10
3.47307
20
-6.18521
11
3.47364
21
-6.18704
0
LINE
8
BLACK
6
CONTINUOUS
10
3.47364
20
-6.18704
11
3.47385
21
-6.18895
0
LINE
8
BLACK
6
CONTINUOUS
10
3.47385
20
-6.18895
11
3.47368
21
-6.19086
0
LINE
8
BLACK
6
CONTINUOUS
10
3.47368
20
-6.19086
11
3.47314
21
-6.19271
0
LINE
8
BLACK
6
CONTINUOUS
10
3.47314
20
-6.19271
11
3.47226
21
-6.19441
0
LINE
8
BLACK
6
CONTINUOUS
10
3.47226
20
-6.19441
11
3.47106
21
-6.19591
0
LINE
8
BLACK
6
CONTINUOUS
10
3.47106
20
-6.19591
11
3.46959
21
-6.19715
0
LINE
8
BLACK
6
CONTINUOUS
10
3.46959
20
-6.19715
11
3.46791
21
-6.19808
0
LINE
8
BLACK
6
CONTINUOUS
10
3.46791
20
-6.19808
11
3.46608
21
-6.19867
0
LINE
8
BLACK
6
CONTINUOUS
10
3.46608
20
-6.19867
11
3.46417
21
-6.19889
0
LINE
8
BLACK
6
CONTINUOUS
10
3.46417
20
-6.19889
11
3.46226
21
-6.19874
0
LINE
8
BLACK
6
CONTINUOUS
10
3.46226
20
-6.19874
11
3.46041
21
-6.19821
0
LINE
8
BLACK
6
CONTINUOUS
10
3.46041
20
-6.19821
11
3.4587
21
-6.19734
0
LINE
8
BLACK
6
CONTINUOUS
10
3.4587
20
-6.19734
11
3.45719
21
-6.19615
0
LINE
8
BLACK
6
CONTINUOUS
10
3.45719
20
-6.19615
11
3.45594
21
-6.1947
0
LINE
8
BLACK
6
CONTINUOUS
10
3.45594
20
-6.1947
11
3.39326
21
-6.10516
0
LINE
8
BLACK
6
CONTINUOUS
10
3.39326
20
-6.10516
11
3.36136
21
-6.10516
0
LINE
8
BLACK
6
CONTINUOUS
10
3.36136
20
-6.10516
11
3.36136
21
-6.18905
0
LINE
8
BLACK
6
CONTINUOUS
10
3.36136
20
-6.18905
11
3.36136
21
-6.18919
0
LINE
8
BLACK
6
CONTINUOUS
10
3.36136
20
-6.18919
11
3.36115
21
-6.1911
0
LINE
8
BLACK
6
CONTINUOUS
10
3.36115
20
-6.1911
11
3.36057
21
-6.19293
0
LINE
8
BLACK
6
CONTINUOUS
10
3.36057
20
-6.19293
11
3.35964
21
-6.19461
0
LINE
8
BLACK
6
CONTINUOUS
10
3.35964
20
-6.19461
11
3.3584
21
-6.19608
0
LINE
8
BLACK
6
CONTINUOUS
10
3.3584
20
-6.19608
11
3.35691
21
-6.19729
0
LINE
8
BLACK
6
CONTINUOUS
10
3.35691
20
-6.19729
11
3.35521
21
-6.19818
0
LINE
8
BLACK
6
CONTINUOUS
10
3.35521
20
-6.19818
11
3.35336
21
-6.19872
0
LINE
8
BLACK
6
CONTINUOUS
10
3.35336
20
-6.19872
11
3.35145
21
-6.19889
0
LINE
8
BLACK
6
CONTINUOUS
10
3.35145
20
-6.19889
11
3.34954
21
-6.19869
0
LINE
8
BLACK
6
CONTINUOUS
10
3.34954
20
-6.19869
11
3.3477
21
-6.19812
0
LINE
8
BLACK
6
CONTINUOUS
10
3.3477
20
-6.19812
11
3.34601
21
-6.19721
0
LINE
8
BLACK
6
CONTINUOUS
10
3.34601
20
-6.19721
11
3.34453
21
-6.19599
0
LINE
8
BLACK
6
CONTINUOUS
10
3.34453
20
-6.19599
11
3.34332
21
-6.1945
0
LINE
8
BLACK
6
CONTINUOUS
10
3.34332
20
-6.1945
11
3.34242
21
-6.1928
0
LINE
8
BLACK
6
CONTINUOUS
10
3.34242
20
-6.1928
11
3.34186
21
-6.19096
0
LINE
8
BLACK
6
CONTINUOUS
10
3.34186
20
-6.19096
11
3.34168
21
-6.18905
0
LINE
8
BLACK
6
CONTINUOUS
10
3.34168
20
-6.18905
11
3.34168
21
-5.9922
0
LINE
8
BLACK
6
CONTINUOUS
10
3.34168
20
-5.9922
11
3.34168
21
-5.99213
0
LINE
8
BLACK
6
CONTINUOUS
10
3.34168
20
-5.99213
11
3.34168
21
-5.99213
0
LINE
8
BLACK
6
CONTINUOUS
10
3.34168
20
-5.99213
11
3.34168
21
-5.99213
0
LINE
8
BLACK
6
CONTINUOUS
10
3.34168
20
-5.99213
11
3.34168
21
-5.99206
0
LINE
8
BLACK
6
CONTINUOUS
10
3.34168
20
-5.99206
11
3.34178
21
-5.99114
0
LINE
8
BLACK
6
CONTINUOUS
10
3.34178
20
-5.99114
11
3.34188
21
-5.99022
0
LINE
8
BLACK
6
CONTINUOUS
10
3.34188
20
-5.99022
11
3.34189
21
-5.99019
0
LINE
8
BLACK
6
CONTINUOUS
10
3.34189
20
-5.99019
11
3.34189
21
-5.99015
0
LINE
8
BLACK
6
CONTINUOUS
10
3.34189
20
-5.99015
11
3.34217
21
-5.98927
0
LINE
8
BLACK
6
CONTINUOUS
10
3.34217
20
-5.98927
11
3.34245
21
-5.98839
0
LINE
8
BLACK
6
CONTINUOUS
10
3.34245
20
-5.98839
11
3.34246
21
-5.98836
0
LINE
8
BLACK
6
CONTINUOUS
10
3.34246
20
-5.98836
11
3.34247
21
-5.98832
0
LINE
8
BLACK
6
CONTINUOUS
10
3.34247
20
-5.98832
11
3.34292
21
-5.98751
0
LINE
8
BLACK
6
CONTINUOUS
10
3.34292
20
-5.98751
11
3.34336
21
-5.9867
0
LINE
8
BLACK
6
CONTINUOUS
10
3.34336
20
-5.9867
11
3.34338
21
-5.98667
0
LINE
8
BLACK
6
CONTINUOUS
10
3.34338
20
-5.98667
11
3.3434
21
-5.98664
0
LINE
8
BLACK
6
CONTINUOUS
10
3.3434
20
-5.98664
11
3.34399
21
-5.98593
0
LINE
8
BLACK
6
CONTINUOUS
10
3.34399
20
-5.98593
11
3.34458
21
-5.98522
0
LINE
8
BLACK
6
CONTINUOUS
10
3.34458
20
-5.98522
11
3.34461
21
-5.9852
0
LINE
8
BLACK
6
CONTINUOUS
10
3.34461
20
-5.9852
11
3.34463
21
-5.98517
0
LINE
8
BLACK
6
CONTINUOUS
10
3.34463
20
-5.98517
11
3.34535
21
-5.98459
0
LINE
8
BLACK
6
CONTINUOUS
10
3.34535
20
-5.98459
11
3.34607
21
-5.984
0
LINE
8
BLACK
6
CONTINUOUS
10
3.34607
20
-5.984
11
3.3461
21
-5.98399
0
LINE
8
BLACK
6
CONTINUOUS
10
3.3461
20
-5.98399
11
3.34613
21
-5.98397
0
LINE
8
BLACK
6
CONTINUOUS
10
3.34613
20
-5.98397
11
3.34695
21
-5.98354
0
LINE
8
BLACK
6
CONTINUOUS
10
3.34695
20
-5.98354
11
3.34777
21
-5.9831
0
LINE
8
BLACK
6
CONTINUOUS
10
3.34777
20
-5.9831
11
3.3478
21
-5.98309
0
LINE
8
BLACK
6
CONTINUOUS
10
3.3478
20
-5.98309
11
3.34783
21
-5.98308
0
LINE
8
BLACK
6
CONTINUOUS
10
3.34783
20
-5.98308
11
3.34872
21
-5.98281
0
LINE
8
BLACK
6
CONTINUOUS
10
3.34872
20
-5.98281
11
3.34961
21
-5.98255
0
LINE
8
BLACK
6
CONTINUOUS
10
3.34961
20
-5.98255
11
3.34964
21
-5.98254
0
LINE
8
BLACK
6
CONTINUOUS
10
3.34964
20
-5.98254
11
3.34967
21
-5.98253
0
LINE
8
BLACK
6
CONTINUOUS
10
3.34967
20
-5.98253
11
3.3506
21
-5.98245
0
LINE
8
BLACK
6
CONTINUOUS
10
3.3506
20
-5.98245
11
3.35152
21
-5.98236
0
LINE
8
BLACK
6
CONTINUOUS
10
3.35152
20
-5.98236
11
3.42651
21
-5.98236
0
LINE
8
BLACK
6
CONTINUOUS
10
3.42651
20
-5.98236
11
3.42665
21
-5.98236
0
LINE
8
BLACK
6
CONTINUOUS
10
3.36136
20
-6.00204
11
3.36136
21
-6.08547
0
LINE
8
BLACK
6
CONTINUOUS
10
3.36136
20
-6.08547
11
3.42419
21
-6.08547
0
LINE
8
BLACK
6
CONTINUOUS
10
3.42419
20
-6.08547
11
3.43943
21
-6.07785
0
LINE
8
BLACK
6
CONTINUOUS
10
3.43943
20
-6.07785
11
3.44654
21
-6.07074
0
LINE
8
BLACK
6
CONTINUOUS
10
3.44654
20
-6.07074
11
3.45416
21
-6.05549
0
LINE
8
BLACK
6
CONTINUOUS
10
3.45416
20
-6.05549
11
3.45416
21
-6.03202
0
LINE
8
BLACK
6
CONTINUOUS
10
3.45416
20
-6.03202
11
3.44654
21
-6.01678
0
LINE
8
BLACK
6
CONTINUOUS
10
3.44654
20
-6.01678
11
3.43943
21
-6.00966
0
LINE
8
BLACK
6
CONTINUOUS
10
3.43943
20
-6.00966
11
3.42419
21
-6.00204
0
LINE
8
BLACK
6
CONTINUOUS
10
3.42419
20
-6.00204
11
3.36136
21
-6.00204
0
LINE
8
BLACK
6
CONTINUOUS
10
2.93131
20
-5.98249
11
2.93316
21
-5.98299
0
LINE
8
BLACK
6
CONTINUOUS
10
2.93316
20
-5.98299
11
2.93488
21
-5.98384
0
LINE
8
BLACK
6
CONTINUOUS
10
2.93488
20
-5.98384
11
2.93641
21
-5.985
0
LINE
8
BLACK
6
CONTINUOUS
10
2.93641
20
-5.985
11
2.93768
21
-5.98644
0
LINE
8
BLACK
6
CONTINUOUS
10
2.93768
20
-5.98644
11
2.93865
21
-5.9881
0
LINE
8
BLACK
6
CONTINUOUS
10
2.93865
20
-5.9881
11
2.93927
21
-5.98992
0
LINE
8
BLACK
6
CONTINUOUS
10
2.93927
20
-5.98992
11
2.97711
21
-6.14883
0
LINE
8
BLACK
6
CONTINUOUS
10
2.97711
20
-6.14883
11
3.00455
21
-6.04591
0
LINE
8
BLACK
6
CONTINUOUS
10
3.00455
20
-6.04591
11
3.00459
21
-6.04578
0
LINE
8
BLACK
6
CONTINUOUS
10
3.00459
20
-6.04578
11
3.0047
21
-6.04548
0
LINE
8
BLACK
6
CONTINUOUS
10
3.0047
20
-6.04548
11
3.00478
21
-6.04516
0
LINE
8
BLACK
6
CONTINUOUS
10
3.00478
20
-6.04516
11
3.00505
21
-6.04458
0
LINE
8
BLACK
6
CONTINUOUS
10
3.00505
20
-6.04458
11
3.00529
21
-6.04399
0
LINE
8
BLACK
6
CONTINUOUS
10
3.00529
20
-6.04399
11
3.00546
21
-6.04371
0
LINE
8
BLACK
6
CONTINUOUS
10
3.00546
20
-6.04371
11
3.00559
21
-6.04342
0
LINE
8
BLACK
6
CONTINUOUS
10
3.00559
20
-6.04342
11
3.00597
21
-6.04291
0
LINE
8
BLACK
6
CONTINUOUS
10
3.00597
20
-6.04291
11
3.00632
21
-6.04237
0
LINE
8
BLACK
6
CONTINUOUS
10
3.00632
20
-6.04237
11
3.00654
21
-6.04213
0
LINE
8
BLACK
6
CONTINUOUS
10
3.00654
20
-6.04213
11
3.00673
21
-6.04187
0
LINE
8
BLACK
6
CONTINUOUS
10
3.00673
20
-6.04187
11
3.0072
21
-6.04144
0
LINE
8
BLACK
6
CONTINUOUS
10
3.0072
20
-6.04144
11
3.00765
21
-6.04098
0
LINE
8
BLACK
6
CONTINUOUS
10
3.00765
20
-6.04098
11
3.00791
21
-6.04079
0
LINE
8
BLACK
6
CONTINUOUS
10
3.00791
20
-6.04079
11
3.00815
21
-6.04058
0
LINE
8
BLACK
6
CONTINUOUS
10
3.00815
20
-6.04058
11
3.00869
21
-6.04024
0
LINE
8
BLACK
6
CONTINUOUS
10
3.00869
20
-6.04024
11
3.00922
21
-6.03987
0
LINE
8
BLACK
6
CONTINUOUS
10
3.00922
20
-6.03987
11
3.00951
21
-6.03974
0
LINE
8
BLACK
6
CONTINUOUS
10
3.00951
20
-6.03974
11
3.00979
21
-6.03958
0
LINE
8
BLACK
6
CONTINUOUS
10
3.00979
20
-6.03958
11
3.01039
21
-6.03936
0
LINE
8
BLACK
6
CONTINUOUS
10
3.01039
20
-6.03936
11
3.01098
21
-6.0391
0
LINE
8
BLACK
6
CONTINUOUS
10
3.01098
20
-6.0391
11
3.01129
21
-6.03903
0
LINE
8
BLACK
6
CONTINUOUS
10
3.01129
20
-6.03903
11
3.01159
21
-6.03892
0
LINE
8
BLACK
6
CONTINUOUS
10
3.01159
20
-6.03892
11
3.01222
21
-6.03882
0
LINE
8
BLACK
6
CONTINUOUS
10
3.01222
20
-6.03882
11
3.01285
21
-6.03868
0
LINE
8
BLACK
6
CONTINUOUS
10
3.01285
20
-6.03868
11
3.01317
21
-6.03867
0
LINE
8
BLACK
6
CONTINUOUS
10
3.01317
20
-6.03867
11
3.01349
21
-6.03862
0
LINE
8
BLACK
6
CONTINUOUS
10
3.01349
20
-6.03862
11
3.01413
21
-6.03864
0
LINE
8
BLACK
6
CONTINUOUS
10
3.01413
20
-6.03864
11
3.01477
21
-6.03863
0
LINE
8
BLACK
6
CONTINUOUS
10
3.01477
20
-6.03863
11
3.01509
21
-6.03868
0
LINE
8
BLACK
6
CONTINUOUS
10
3.01509
20
-6.03868
11
3.01541
21
-6.03869
0
LINE
8
BLACK
6
CONTINUOUS
10
3.01541
20
-6.03869
11
3.01603
21
-6.03884
0
LINE
8
BLACK
6
CONTINUOUS
10
3.01603
20
-6.03884
11
3.01666
21
-6.03895
0
LINE
8
BLACK
6
CONTINUOUS
10
3.01666
20
-6.03895
11
3.01696
21
-6.03907
0
LINE
8
BLACK
6
CONTINUOUS
10
3.01696
20
-6.03907
11
3.01728
21
-6.03914
0
LINE
8
BLACK
6
CONTINUOUS
10
3.01728
20
-6.03914
11
3.01786
21
-6.03941
0
LINE
8
BLACK
6
CONTINUOUS
10
3.01786
20
-6.03941
11
3.01846
21
-6.03964
0
LINE
8
BLACK
6
CONTINUOUS
10
3.01846
20
-6.03964
11
3.01873
21
-6.03981
0
LINE
8
BLACK
6
CONTINUOUS
10
3.01873
20
-6.03981
11
3.01902
21
-6.03994
0
LINE
8
BLACK
6
CONTINUOUS
10
3.01902
20
-6.03994
11
3.01954
21
-6.04032
0
LINE
8
BLACK
6
CONTINUOUS
10
3.01954
20
-6.04032
11
3.02008
21
-6.04066
0
LINE
8
BLACK
6
CONTINUOUS
10
3.02008
20
-6.04066
11
3.02032
21
-6.04088
0
LINE
8
BLACK
6
CONTINUOUS
10
3.02032
20
-6.04088
11
3.02058
21
-6.04107
0
LINE
8
BLACK
6
CONTINUOUS
10
3.02058
20
-6.04107
11
3.02101
21
-6.04154
0
LINE
8
BLACK
6
CONTINUOUS
10
3.02101
20
-6.04154
11
3.02148
21
-6.04198
0
LINE
8
BLACK
6
CONTINUOUS
10
3.02148
20
-6.04198
11
3.02167
21
-6.04224
0
LINE
8
BLACK
6
CONTINUOUS
10
3.02167
20
-6.04224
11
3.02189
21
-6.04248
0
LINE
8
BLACK
6
CONTINUOUS
10
3.02189
20
-6.04248
11
3.02222
21
-6.04302
0
LINE
8
BLACK
6
CONTINUOUS
10
3.02222
20
-6.04302
11
3.0226
21
-6.04354
0
LINE
8
BLACK
6
CONTINUOUS
10
3.0226
20
-6.04354
11
3.02273
21
-6.04384
0
LINE
8
BLACK
6
CONTINUOUS
10
3.02273
20
-6.04384
11
3.0229
21
-6.04411
0
LINE
8
BLACK
6
CONTINUOUS
10
3.0229
20
-6.04411
11
3.02312
21
-6.04471
0
LINE
8
BLACK
6
CONTINUOUS
10
3.02312
20
-6.04471
11
3.02339
21
-6.04529
0
LINE
8
BLACK
6
CONTINUOUS
10
3.02339
20
-6.04529
11
3.02346
21
-6.04561
0
LINE
8
BLACK
6
CONTINUOUS
10
3.02346
20
-6.04561
11
3.02357
21
-6.04591
0
LINE
8
BLACK
6
CONTINUOUS
10
3.02357
20
-6.04591
11
3.05102
21
-6.14883
0
LINE
8
BLACK
6
CONTINUOUS
10
3.05102
20
-6.14883
11
3.08885
21
-5.98992
0
LINE
8
BLACK
6
CONTINUOUS
10
3.08885
20
-5.98992
11
3.08888
21
-5.98979
0
LINE
8
BLACK
6
CONTINUOUS
10
3.08888
20
-5.98979
11
3.08953
21
-5.98798
0
LINE
8
BLACK
6
CONTINUOUS
10
3.08953
20
-5.98798
11
3.09052
21
-5.98633
0
LINE
8
BLACK
6
CONTINUOUS
10
3.09052
20
-5.98633
11
3.09181
21
-5.98491
0
LINE
8
BLACK
6
CONTINUOUS
10
3.09181
20
-5.98491
11
3.09335
21
-5.98376
0
LINE
8
BLACK
6
CONTINUOUS
10
3.09335
20
-5.98376
11
3.09509
21
-5.98294
0
LINE
8
BLACK
6
CONTINUOUS
10
3.09509
20
-5.98294
11
3.09695
21
-5.98247
0
LINE
8
BLACK
6
CONTINUOUS
10
3.09695
20
-5.98247
11
3.09887
21
-5.98237
0
LINE
8
BLACK
6
CONTINUOUS
10
3.09887
20
-5.98237
11
3.10077
21
-5.98264
0
LINE
8
BLACK
6
CONTINUOUS
10
3.10077
20
-5.98264
11
3.10258
21
-5.98328
0
LINE
8
BLACK
6
CONTINUOUS
10
3.10258
20
-5.98328
11
3.10424
21
-5.98426
0
LINE
8
BLACK
6
CONTINUOUS
10
3.10424
20
-5.98426
11
3.10567
21
-5.98554
0
LINE
8
BLACK
6
CONTINUOUS
10
3.10567
20
-5.98554
11
3.10683
21
-5.98707
0
LINE
8
BLACK
6
CONTINUOUS
10
3.10683
20
-5.98707
11
3.10766
21
-5.9888
0
LINE
8
BLACK
6
CONTINUOUS
10
3.10766
20
-5.9888
11
3.10815
21
-5.99066
0
LINE
8
BLACK
6
CONTINUOUS
10
3.10815
20
-5.99066
11
3.10826
21
-5.99258
0
LINE
8
BLACK
6
CONTINUOUS
10
3.10826
20
-5.99258
11
3.108
21
-5.99448
0
LINE
8
BLACK
6
CONTINUOUS
10
3.108
20
-5.99448
11
3.06113
21
-6.19133
0
LINE
8
BLACK
6
CONTINUOUS
10
3.06113
20
-6.19133
11
3.0611
21
-6.19146
0
LINE
8
BLACK
6
CONTINUOUS
10
3.0611
20
-6.19146
11
3.06094
21
-6.19189
0
LINE
8
BLACK
6
CONTINUOUS
10
3.06094
20
-6.19189
11
3.06084
21
-6.19233
0
LINE
8
BLACK
6
CONTINUOUS
10
3.06084
20
-6.19233
11
3.06062
21
-6.19279
0
LINE
8
BLACK
6
CONTINUOUS
10
3.06062
20
-6.19279
11
3.06045
21
-6.19327
0
LINE
8
BLACK
6
CONTINUOUS
10
3.06045
20
-6.19327
11
3.06021
21
-6.19366
0
LINE
8
BLACK
6
CONTINUOUS
10
3.06021
20
-6.19366
11
3.06002
21
-6.19407
0
LINE
8
BLACK
6
CONTINUOUS
10
3.06002
20
-6.19407
11
3.05972
21
-6.19448
0
LINE
8
BLACK
6
CONTINUOUS
10
3.05972
20
-6.19448
11
3.05946
21
-6.19492
0
LINE
8
BLACK
6
CONTINUOUS
10
3.05946
20
-6.19492
11
3.05915
21
-6.19525
0
LINE
8
BLACK
6
CONTINUOUS
10
3.05915
20
-6.19525
11
3.05889
21
-6.19562
0
LINE
8
BLACK
6
CONTINUOUS
10
3.05889
20
-6.19562
11
3.05851
21
-6.19596
0
LINE
8
BLACK
6
CONTINUOUS
10
3.05851
20
-6.19596
11
3.05817
21
-6.19634
0
LINE
8
BLACK
6
CONTINUOUS
10
3.05817
20
-6.19634
11
3.0578
21
-6.19661
0
LINE
8
BLACK
6
CONTINUOUS
10
3.0578
20
-6.19661
11
3.05747
21
-6.19692
0
LINE
8
BLACK
6
CONTINUOUS
10
3.05747
20
-6.19692
11
3.05704
21
-6.19718
0
LINE
8
BLACK
6
CONTINUOUS
10
3.05704
20
-6.19718
11
3.05663
21
-6.19749
0
LINE
8
BLACK
6
CONTINUOUS
10
3.05663
20
-6.19749
11
3.05622
21
-6.19768
0
LINE
8
BLACK
6
CONTINUOUS
10
3.05622
20
-6.19768
11
3.05583
21
-6.19792
0
LINE
8
BLACK
6
CONTINUOUS
10
3.05583
20
-6.19792
11
3.05535
21
-6.19809
0
LINE
8
BLACK
6
CONTINUOUS
10
3.05535
20
-6.19809
11
3.05489
21
-6.19831
0
LINE
8
BLACK
6
CONTINUOUS
10
3.05489
20
-6.19831
11
3.05445
21
-6.19842
0
LINE
8
BLACK
6
CONTINUOUS
10
3.05445
20
-6.19842
11
3.05403
21
-6.19858
0
LINE
8
BLACK
6
CONTINUOUS
10
3.05403
20
-6.19858
11
3.05352
21
-6.19866
0
LINE
8
BLACK
6
CONTINUOUS
10
3.05352
20
-6.19866
11
3.05303
21
-6.19878
0
LINE
8
BLACK
6
CONTINUOUS
10
3.05303
20
-6.19878
11
3.05258
21
-6.19881
0
LINE
8
BLACK
6
CONTINUOUS
10
3.05258
20
-6.19881
11
3.05213
21
-6.19888
0
LINE
8
BLACK
6
CONTINUOUS
10
3.05213
20
-6.19888
11
3.05162
21
-6.19886
0
LINE
8
BLACK
6
CONTINUOUS
10
3.05162
20
-6.19886
11
3.05111
21
-6.19888
0
LINE
8
BLACK
6
CONTINUOUS
10
3.05111
20
-6.19888
11
3.05066
21
-6.19882
0
LINE
8
BLACK
6
CONTINUOUS
10
3.05066
20
-6.19882
11
3.05021
21
-6.1988
0
LINE
8
BLACK
6
CONTINUOUS
10
3.05021
20
-6.1988
11
3.04971
21
-6.19868
0
LINE
8
BLACK
6
CONTINUOUS
10
3.04971
20
-6.19868
11
3.04921
21
-6.19861
0
LINE
8
BLACK
6
CONTINUOUS
10
3.04921
20
-6.19861
11
3.04878
21
-6.19846
0
LINE
8
BLACK
6
CONTINUOUS
10
3.04878
20
-6.19846
11
3.04834
21
-6.19835
0
LINE
8
BLACK
6
CONTINUOUS
10
3.04834
20
-6.19835
11
3.04788
21
-6.19814
0
LINE
8
BLACK
6
CONTINUOUS
10
3.04788
20
-6.19814
11
3.0474
21
-6.19797
0
LINE
8
BLACK
6
CONTINUOUS
10
3.0474
20
-6.19797
11
3.04701
21
-6.19774
0
LINE
8
BLACK
6
CONTINUOUS
10
3.04701
20
-6.19774
11
3.04659
21
-6.19755
0
LINE
8
BLACK
6
CONTINUOUS
10
3.04659
20
-6.19755
11
3.04618
21
-6.19725
0
LINE
8
BLACK
6
CONTINUOUS
10
3.04618
20
-6.19725
11
3.04574
21
-6.19699
0
LINE
8
BLACK
6
CONTINUOUS
10
3.04574
20
-6.19699
11
3.04541
21
-6.19669
0
LINE
8
BLACK
6
CONTINUOUS
10
3.04541
20
-6.19669
11
3.04504
21
-6.19643
0
LINE
8
BLACK
6
CONTINUOUS
10
3.04504
20
-6.19643
11
3.04469
21
-6.19605
0
LINE
8
BLACK
6
CONTINUOUS
10
3.04469
20
-6.19605
11
3.04431
21
-6.19571
0
LINE
8
BLACK
6
CONTINUOUS
10
3.04431
20
-6.19571
11
3.04404
21
-6.19535
0
LINE
8
BLACK
6
CONTINUOUS
10
3.04404
20
-6.19535
11
3.04373
21
-6.19502
0
LINE
8
BLACK
6
CONTINUOUS
10
3.04373
20
-6.19502
11
3.04346
21
-6.19459
0
LINE
8
BLACK
6
CONTINUOUS
10
3.04346
20
-6.19459
11
3.04316
21
-6.19418
0
LINE
8
BLACK
6
CONTINUOUS
10
3.04316
20
-6.19418
11
3.04296
21
-6.19377
0
LINE
8
BLACK
6
CONTINUOUS
10
3.04296
20
-6.19377
11
3.04272
21
-6.19339
0
LINE
8
BLACK
6
CONTINUOUS
10
3.04272
20
-6.19339
11
3.04254
21
-6.19291
0
LINE
8
BLACK
6
CONTINUOUS
10
3.04254
20
-6.19291
11
3.04232
21
-6.19245
0
LINE
8
BLACK
6
CONTINUOUS
10
3.04232
20
-6.19245
11
3.0422
21
-6.19201
0
LINE
8
BLACK
6
CONTINUOUS
10
3.0422
20
-6.19201
11
3.04205
21
-6.19159
0
LINE
8
BLACK
6
CONTINUOUS
10
3.04205
20
-6.19159
11
3.01406
21
-6.08664
0
LINE
8
BLACK
6
CONTINUOUS
10
3.01406
20
-6.08664
11
2.98608
21
-6.19159
0
LINE
8
BLACK
6
CONTINUOUS
10
2.98608
20
-6.19159
11
2.98604
21
-6.19172
0
LINE
8
BLACK
6
CONTINUOUS
10
2.98604
20
-6.19172
11
2.98587
21
-6.19214
0
LINE
8
BLACK
6
CONTINUOUS
10
2.98587
20
-6.19214
11
2.98575
21
-6.19258
0
LINE
8
BLACK
6
CONTINUOUS
10
2.98575
20
-6.19258
11
2.98553
21
-6.19304
0
LINE
8
BLACK
6
CONTINUOUS
10
2.98553
20
-6.19304
11
2.98534
21
-6.19351
0
LINE
8
BLACK
6
CONTINUOUS
10
2.98534
20
-6.19351
11
2.9851
21
-6.19389
0
LINE
8
BLACK
6
CONTINUOUS
10
2.9851
20
-6.19389
11
2.98489
21
-6.1943
0
LINE
8
BLACK
6
CONTINUOUS
10
2.98489
20
-6.1943
11
2.98458
21
-6.1947
0
LINE
8
BLACK
6
CONTINUOUS
10
2.98458
20
-6.1947
11
2.98431
21
-6.19513
0
LINE
8
BLACK
6
CONTINUOUS
10
2.98431
20
-6.19513
11
2.98399
21
-6.19546
0
LINE
8
BLACK
6
CONTINUOUS
10
2.98399
20
-6.19546
11
2.98372
21
-6.19581
0
LINE
8
BLACK
6
CONTINUOUS
10
2.98372
20
-6.19581
11
2.98333
21
-6.19615
0
LINE
8
BLACK
6
CONTINUOUS
10
2.98333
20
-6.19615
11
2.98298
21
-6.19652
0
LINE
8
BLACK
6
CONTINUOUS
10
2.98298
20
-6.19652
11
2.98261
21
-6.19678
0
LINE
8
BLACK
6
CONTINUOUS
10
2.98261
20
-6.19678
11
2.98227
21
-6.19707
0
LINE
8
BLACK
6
CONTINUOUS
10
2.98227
20
-6.19707
11
2.98182
21
-6.19733
0
LINE
8
BLACK
6
CONTINUOUS
10
2.98182
20
-6.19733
11
2.98141
21
-6.19762
0
LINE
8
BLACK
6
CONTINUOUS
10
2.98141
20
-6.19762
11
2.98099
21
-6.1978
0
LINE
8
BLACK
6
CONTINUOUS
10
2.98099
20
-6.1978
11
2.9806
21
-6.19803
0
LINE
8
BLACK
6
CONTINUOUS
10
2.9806
20
-6.19803
11
2.98012
21
-6.19819
0
LINE
8
BLACK
6
CONTINUOUS
10
2.98012
20
-6.19819
11
2.97965
21
-6.1984
0
LINE
8
BLACK
6
CONTINUOUS
10
2.97965
20
-6.1984
11
2.97921
21
-6.1985
0
LINE
8
BLACK
6
CONTINUOUS
10
2.97921
20
-6.1985
11
2.97878
21
-6.19864
0
LINE
8
BLACK
6
CONTINUOUS
10
2.97878
20
-6.19864
11
2.97827
21
-6.19871
0
LINE
8
BLACK
6
CONTINUOUS
10
2.97827
20
-6.19871
11
2.97778
21
-6.19882
0
LINE
8
BLACK
6
CONTINUOUS
10
2.97778
20
-6.19882
11
2.97732
21
-6.19883
0
LINE
8
BLACK
6
CONTINUOUS
10
2.97732
20
-6.19883
11
2.97687
21
-6.19889
0
LINE
8
BLACK
6
CONTINUOUS
10
2.97687
20
-6.19889
11
2.97637
21
-6.19886
0
LINE
8
BLACK
6
CONTINUOUS
10
2.97637
20
-6.19886
11
2.97586
21
-6.19887
0
LINE
8
BLACK
6
CONTINUOUS
10
2.97586
20
-6.19887
11
2.97541
21
-6.19879
0
LINE
8
BLACK
6
CONTINUOUS
10
2.97541
20
-6.19879
11
2.97496
21
-6.19876
0
LINE
8
BLACK
6
CONTINUOUS
10
2.97496
20
-6.19876
11
2.97446
21
-6.19863
0
LINE
8
BLACK
6
CONTINUOUS
10
2.97446
20
-6.19863
11
2.97396
21
-6.19854
0
LINE
8
BLACK
6
CONTINUOUS
10
2.97396
20
-6.19854
11
2.97354
21
-6.19838
0
LINE
8
BLACK
6
CONTINUOUS
10
2.97354
20
-6.19838
11
2.9731
21
-6.19826
0
LINE
8
BLACK
6
CONTINUOUS
10
2.9731
20
-6.19826
11
2.97264
21
-6.19804
0
LINE
8
BLACK
6
CONTINUOUS
10
2.97264
20
-6.19804
11
2.97217
21
-6.19786
0
LINE
8
BLACK
6
CONTINUOUS
10
2.97217
20
-6.19786
11
2.97178
21
-6.19762
0
LINE
8
BLACK
6
CONTINUOUS
10
2.97178
20
-6.19762
11
2.97138
21
-6.19742
0
LINE
8
BLACK
6
CONTINUOUS
10
2.97138
20
-6.19742
11
2.97097
21
-6.19711
0
LINE
8
BLACK
6
CONTINUOUS
10
2.97097
20
-6.19711
11
2.97054
21
-6.19684
0
LINE
8
BLACK
6
CONTINUOUS
10
2.97054
20
-6.19684
11
2.97021
21
-6.19652
0
LINE
8
BLACK
6
CONTINUOUS
10
2.97021
20
-6.19652
11
2.96985
21
-6.19625
0
LINE
8
BLACK
6
CONTINUOUS
10
2.96985
20
-6.19625
11
2.96952
21
-6.19587
0
LINE
8
BLACK
6
CONTINUOUS
10
2.96952
20
-6.19587
11
2.96914
21
-6.19552
0
LINE
8
BLACK
6
CONTINUOUS
10
2.96914
20
-6.19552
11
2.96888
21
-6.19515
0
LINE
8
BLACK
6
CONTINUOUS
10
2.96888
20
-6.19515
11
2.96858
21
-6.19481
0
LINE
8
BLACK
6
CONTINUOUS
10
2.96858
20
-6.19481
11
2.96833
21
-6.19437
0
LINE
8
BLACK
6
CONTINUOUS
10
2.96833
20
-6.19437
11
2.96803
21
-6.19395
0
LINE
8
BLACK
6
CONTINUOUS
10
2.96803
20
-6.19395
11
2.96784
21
-6.19354
0
LINE
8
BLACK
6
CONTINUOUS
10
2.96784
20
-6.19354
11
2.96762
21
-6.19315
0
LINE
8
BLACK
6
CONTINUOUS
10
2.96762
20
-6.19315
11
2.96745
21
-6.19267
0
LINE
8
BLACK
6
CONTINUOUS
10
2.96745
20
-6.19267
11
2.96724
21
-6.1922
0
LINE
8
BLACK
6
CONTINUOUS
10
2.96724
20
-6.1922
11
2.96714
21
-6.19176
0
LINE
8
BLACK
6
CONTINUOUS
10
2.96714
20
-6.19176
11
2.96699
21
-6.19133
0
LINE
8
BLACK
6
CONTINUOUS
10
2.96699
20
-6.19133
11
2.92012
21
-5.99448
0
LINE
8
BLACK
6
CONTINUOUS
10
2.92012
20
-5.99448
11
2.92009
21
-5.99435
0
LINE
8
BLACK
6
CONTINUOUS
10
2.92009
20
-5.99435
11
2.91986
21
-5.99244
0
LINE
8
BLACK
6
CONTINUOUS
10
2.91986
20
-5.99244
11
2.92
21
-5.99052
0
LINE
8
BLACK
6
CONTINUOUS
10
2.92
20
-5.99052
11
2.92051
21
-5.98867
0
LINE
8
BLACK
6
CONTINUOUS
10
2.92051
20
-5.98867
11
2.92137
21
-5.98696
0
LINE
8
BLACK
6
CONTINUOUS
10
2.92137
20
-5.98696
11
2.92255
21
-5.98544
0
LINE
8
BLACK
6
CONTINUOUS
10
2.92255
20
-5.98544
11
2.924
21
-5.98418
0
LINE
8
BLACK
6
CONTINUOUS
10
2.924
20
-5.98418
11
2.92566
21
-5.98322
0
LINE
8
BLACK
6
CONTINUOUS
10
2.92566
20
-5.98322
11
2.92748
21
-5.98261
0
LINE
8
BLACK
6
CONTINUOUS
10
2.92748
20
-5.98261
11
2.92939
21
-5.98236
0
LINE
8
BLACK
6
CONTINUOUS
10
2.92939
20
-5.98236
11
2.93131
21
-5.98249
  0
ENDSEC
  0
EOF
