  0
SECTION
  2
HEADER
  9
$ANGBASE
  50
0.0
  9
$ANGDIR
  70
1
  9
$MEASUREMENT
  70
0
  0
ENDSEC
  0
SECTION
  2
TABLES
  0
TABLE
  2
LTYPE
  70
4
  0
LTYPE
  5
40F
  2
CONTINUOUS
  70
0
  3
Solid line
  72
65
  73
0
  40
0.0
  0
LTYPE
  5
410
  2
DASHDOT
 70
0
  3
Dash Dot ____ _ ____ _
 72
65
 73
4
 40
2.0
 49
1.25
 49
-0.25
 49
0.25
 49
-0.25
  0
LTYPE
  5
411
  2
DASHED
 70
0
  3
Dashed __ __ __ __ __
 72
65
 73
2
 40
0.75
 49
0.5
 49
-0.25
  0
LTYPE
  5
43B
  2
DOTTED
 70
0
  3
Dotted .  .  .  .
 72
65
 73
2
 40
0.2
 49
0.0
 49
-0.2
  0
ENDTAB
  0
TABLE
  2
STYLE
  70
4
  0
STYLE
  2
KICAD
  70
0
  40
0
  41
1
  42
1
  50
0
  71
0
  3
isocp.shx
  0
STYLE
  2
KICADB
  70
0
  40
0
  41
1
  42
1
  50
0
  71
0
  3
isocp.shx
  0
STYLE
  2
KICADI
  70
0
  40
0
  41
1
  42
1
  50
15
  71
0
  3
isocp.shx
  0
STYLE
  2
KICADBI
  70
0
  40
0
  41
1
  42
1
  50
15
  71
0
  3
isocp.shx
  0
ENDTAB
  0
TABLE
  2
LAYER
  70
1
  0
LAYER
  2
BLACK
  70
0
  62
7
  6
CONTINUOUS
  0
ENDTAB
  0
ENDSEC
  0
SECTION
  2
ENTITIES
0
LINE
8
BLACK
6
CONTINUOUS
10
21.2501
20
-1.99705
11
21.2506
21
-1.99709
0
LINE
8
BLACK
6
CONTINUOUS
10
21.2506
20
-1.99709
11
21.2511
21
-1.99726
0
LINE
8
BLACK
6
CONTINUOUS
10
21.2511
20
-1.99726
11
21.2516
21
-1.99753
0
LINE
8
BLACK
6
CONTINUOUS
10
21.2516
20
-1.99753
11
21.2521
21
-1.9979
0
LINE
8
BLACK
6
CONTINUOUS
10
21.2521
20
-1.9979
11
21.2525
21
-1.99835
0
LINE
8
BLACK
6
CONTINUOUS
10
21.2525
20
-1.99835
11
21.2527
21
-1.99886
0
LINE
8
BLACK
6
CONTINUOUS
10
21.2527
20
-1.99886
11
21.2529
21
-1.99942
0
LINE
8
BLACK
6
CONTINUOUS
10
21.2529
20
-1.99942
11
21.253
21
-2
0
LINE
8
BLACK
6
CONTINUOUS
10
21.253
20
-2
11
21.253
21
-2.00014
0
LINE
8
BLACK
6
CONTINUOUS
10
21.253
20
-2.00014
11
21.253
21
-8.49986
0
LINE
8
BLACK
6
CONTINUOUS
10
21.253
20
-8.49986
11
21.253
21
-8.5
0
LINE
8
BLACK
6
CONTINUOUS
10
21.253
20
-8.5
11
21.2529
21
-8.50058
0
LINE
8
BLACK
6
CONTINUOUS
10
21.2529
20
-8.50058
11
21.2527
21
-8.50114
0
LINE
8
BLACK
6
CONTINUOUS
10
21.2527
20
-8.50114
11
21.2525
21
-8.50165
0
LINE
8
BLACK
6
CONTINUOUS
10
21.2525
20
-8.50165
11
21.2521
21
-8.5021
0
LINE
8
BLACK
6
CONTINUOUS
10
21.2521
20
-8.5021
11
21.2516
21
-8.50247
0
LINE
8
BLACK
6
CONTINUOUS
10
21.2516
20
-8.50247
11
21.2511
21
-8.50274
0
LINE
8
BLACK
6
CONTINUOUS
10
21.2511
20
-8.50274
11
21.2506
21
-8.50291
0
LINE
8
BLACK
6
CONTINUOUS
10
21.2506
20
-8.50291
11
21.2501
21
-8.50295
0
LINE
8
BLACK
6
CONTINUOUS
10
21.2501
20
-8.50295
11
21.25
21
-8.50297
0
LINE
8
BLACK
6
CONTINUOUS
10
21.25
20
-8.50297
11
21.2499
21
-8.50295
0
LINE
8
BLACK
6
CONTINUOUS
10
21.2499
20
-8.50295
11
0.750145
21
-8.50295
0
LINE
8
BLACK
6
CONTINUOUS
10
0.750145
20
-8.50295
11
0.75
21
-8.50297
0
LINE
8
BLACK
6
CONTINUOUS
10
0.75
20
-8.50297
11
0.749421
21
-8.50291
0
LINE
8
BLACK
6
CONTINUOUS
10
0.749421
20
-8.50291
11
0.748865
21
-8.50274
0
LINE
8
BLACK
6
CONTINUOUS
10
0.748865
20
-8.50274
11
0.748352
21
-8.50247
0
LINE
8
BLACK
6
CONTINUOUS
10
0.748352
20
-8.50247
11
0.747902
21
-8.5021
0
LINE
8
BLACK
6
CONTINUOUS
10
0.747902
20
-8.5021
11
0.747533
21
-8.50165
0
LINE
8
BLACK
6
CONTINUOUS
10
0.747533
20
-8.50165
11
0.747259
21
-8.50114
0
LINE
8
BLACK
6
CONTINUOUS
10
0.747259
20
-8.50114
11
0.74709
21
-8.50058
0
LINE
8
BLACK
6
CONTINUOUS
10
0.74709
20
-8.50058
11
0.747033
21
-8.5
0
LINE
8
BLACK
6
CONTINUOUS
10
0.747033
20
-8.5
11
0.747047
21
-8.49986
0
LINE
8
BLACK
6
CONTINUOUS
10
0.747047
20
-8.49986
11
0.747047
21
-2.00015
0
LINE
8
BLACK
6
CONTINUOUS
10
0.747047
20
-2.00015
11
0.747033
21
-2
0
LINE
8
BLACK
6
CONTINUOUS
10
0.747033
20
-2
11
0.74709
21
-1.99942
0
LINE
8
BLACK
6
CONTINUOUS
10
0.74709
20
-1.99942
11
0.747259
21
-1.99886
0
LINE
8
BLACK
6
CONTINUOUS
10
0.747259
20
-1.99886
11
0.747533
21
-1.99835
0
LINE
8
BLACK
6
CONTINUOUS
10
0.747533
20
-1.99835
11
0.747902
21
-1.9979
0
LINE
8
BLACK
6
CONTINUOUS
10
0.747902
20
-1.9979
11
0.748352
21
-1.99753
0
LINE
8
BLACK
6
CONTINUOUS
10
0.748352
20
-1.99753
11
0.748865
21
-1.99726
0
LINE
8
BLACK
6
CONTINUOUS
10
0.748865
20
-1.99726
11
0.749421
21
-1.99709
0
LINE
8
BLACK
6
CONTINUOUS
10
0.749421
20
-1.99709
11
0.749855
21
-1.99705
0
LINE
8
BLACK
6
CONTINUOUS
10
0.749855
20
-1.99705
11
0.75
21
-1.99703
0
LINE
8
BLACK
6
CONTINUOUS
10
0.75
20
-1.99703
11
0.750145
21
-1.99705
0
LINE
8
BLACK
6
CONTINUOUS
10
0.750145
20
-1.99705
11
21.2499
21
-1.99705
0
LINE
8
BLACK
6
CONTINUOUS
10
21.2499
20
-1.99705
11
21.25
21
-1.99703
0
LINE
8
BLACK
6
CONTINUOUS
10
21.25
20
-1.99703
11
21.2501
21
-1.99705
0
LINE
8
BLACK
6
CONTINUOUS
10
0.752953
20
-2.00295
11
0.752953
21
-8.49705
0
LINE
8
BLACK
6
CONTINUOUS
10
0.752953
20
-8.49705
11
21.247
21
-8.49705
0
LINE
8
BLACK
6
CONTINUOUS
10
21.247
20
-8.49705
11
21.247
21
-2.00295
0
LINE
8
BLACK
6
CONTINUOUS
10
21.247
20
-2.00295
11
0.752953
21
-2.00295
0
LINE
8
BLACK
6
CONTINUOUS
10
3.52928
20
-5.44114
11
3.52971
21
-5.44118
0
LINE
8
BLACK
6
CONTINUOUS
10
3.52971
20
-5.44118
11
3.53027
21
-5.44135
0
LINE
8
BLACK
6
CONTINUOUS
10
3.53027
20
-5.44135
11
3.53078
21
-5.44163
0
LINE
8
BLACK
6
CONTINUOUS
10
3.53078
20
-5.44163
11
3.53123
21
-5.442
0
LINE
8
BLACK
6
CONTINUOUS
10
3.53123
20
-5.442
11
3.5316
21
-5.44245
0
LINE
8
BLACK
6
CONTINUOUS
10
3.5316
20
-5.44245
11
3.53187
21
-5.44296
0
LINE
8
BLACK
6
CONTINUOUS
10
3.53187
20
-5.44296
11
3.53204
21
-5.44352
0
LINE
8
BLACK
6
CONTINUOUS
10
3.53204
20
-5.44352
11
3.5321
21
-5.44409
0
LINE
8
BLACK
6
CONTINUOUS
10
3.5321
20
-5.44409
11
3.53209
21
-5.44424
0
LINE
8
BLACK
6
CONTINUOUS
10
3.53209
20
-5.44424
11
3.53209
21
-6.68017
0
LINE
8
BLACK
6
CONTINUOUS
10
3.53209
20
-6.68017
11
3.5321
21
-6.68031
0
LINE
8
BLACK
6
CONTINUOUS
10
3.5321
20
-6.68031
11
3.53204
21
-6.68089
0
LINE
8
BLACK
6
CONTINUOUS
10
3.53204
20
-6.68089
11
3.53187
21
-6.68145
0
LINE
8
BLACK
6
CONTINUOUS
10
3.53187
20
-6.68145
11
3.5316
21
-6.68196
0
LINE
8
BLACK
6
CONTINUOUS
10
3.5316
20
-6.68196
11
3.53123
21
-6.68241
0
LINE
8
BLACK
6
CONTINUOUS
10
3.53123
20
-6.68241
11
3.53078
21
-6.68278
0
LINE
8
BLACK
6
CONTINUOUS
10
3.53078
20
-6.68278
11
3.53027
21
-6.68306
0
LINE
8
BLACK
6
CONTINUOUS
10
3.53027
20
-6.68306
11
3.52971
21
-6.68322
0
LINE
8
BLACK
6
CONTINUOUS
10
3.52971
20
-6.68322
11
3.52928
21
-6.68327
0
LINE
8
BLACK
6
CONTINUOUS
10
3.52928
20
-6.68327
11
3.52913
21
-6.68328
0
LINE
8
BLACK
6
CONTINUOUS
10
3.52913
20
-6.68328
11
3.52899
21
-6.68327
0
LINE
8
BLACK
6
CONTINUOUS
10
3.52899
20
-6.68327
11
2.45448
21
-6.68327
0
LINE
8
BLACK
6
CONTINUOUS
10
2.45448
20
-6.68327
11
2.45433
21
-6.68328
0
LINE
8
BLACK
6
CONTINUOUS
10
2.45433
20
-6.68328
11
2.45419
21
-6.68327
0
LINE
8
BLACK
6
CONTINUOUS
10
2.45419
20
-6.68327
11
2.45375
21
-6.68322
0
LINE
8
BLACK
6
CONTINUOUS
10
2.45375
20
-6.68322
11
2.4532
21
-6.68306
0
LINE
8
BLACK
6
CONTINUOUS
10
2.4532
20
-6.68306
11
2.45268
21
-6.68278
0
LINE
8
BLACK
6
CONTINUOUS
10
2.45268
20
-6.68278
11
2.45223
21
-6.68241
0
LINE
8
BLACK
6
CONTINUOUS
10
2.45223
20
-6.68241
11
2.45186
21
-6.68196
0
LINE
8
BLACK
6
CONTINUOUS
10
2.45186
20
-6.68196
11
2.45159
21
-6.68145
0
LINE
8
BLACK
6
CONTINUOUS
10
2.45159
20
-6.68145
11
2.45142
21
-6.68089
0
LINE
8
BLACK
6
CONTINUOUS
10
2.45142
20
-6.68089
11
2.45136
21
-6.68031
0
LINE
8
BLACK
6
CONTINUOUS
10
2.45136
20
-6.68031
11
2.45138
21
-6.68017
0
LINE
8
BLACK
6
CONTINUOUS
10
2.45138
20
-6.68017
11
2.45138
21
-5.44424
0
LINE
8
BLACK
6
CONTINUOUS
10
2.45138
20
-5.44424
11
2.45136
21
-5.44409
0
LINE
8
BLACK
6
CONTINUOUS
10
2.45136
20
-5.44409
11
2.45142
21
-5.44352
0
LINE
8
BLACK
6
CONTINUOUS
10
2.45142
20
-5.44352
11
2.45159
21
-5.44296
0
LINE
8
BLACK
6
CONTINUOUS
10
2.45159
20
-5.44296
11
2.45186
21
-5.44245
0
LINE
8
BLACK
6
CONTINUOUS
10
2.45186
20
-5.44245
11
2.45223
21
-5.442
0
LINE
8
BLACK
6
CONTINUOUS
10
2.45223
20
-5.442
11
2.45268
21
-5.44163
0
LINE
8
BLACK
6
CONTINUOUS
10
2.45268
20
-5.44163
11
2.4532
21
-5.44135
0
LINE
8
BLACK
6
CONTINUOUS
10
2.4532
20
-5.44135
11
2.45375
21
-5.44118
0
LINE
8
BLACK
6
CONTINUOUS
10
2.45375
20
-5.44118
11
2.45419
21
-5.44114
0
LINE
8
BLACK
6
CONTINUOUS
10
2.45419
20
-5.44114
11
2.45433
21
-5.44113
0
LINE
8
BLACK
6
CONTINUOUS
10
2.45433
20
-5.44113
11
2.45448
21
-5.44114
0
LINE
8
BLACK
6
CONTINUOUS
10
2.45448
20
-5.44114
11
3.52899
21
-5.44114
0
LINE
8
BLACK
6
CONTINUOUS
10
3.52899
20
-5.44114
11
3.52913
21
-5.44113
0
LINE
8
BLACK
6
CONTINUOUS
10
3.52913
20
-5.44113
11
3.52928
21
-5.44114
0
LINE
8
BLACK
6
CONTINUOUS
10
2.45728
20
-5.44705
11
2.45728
21
-6.67736
0
LINE
8
BLACK
6
CONTINUOUS
10
2.45728
20
-6.67736
11
3.52618
21
-6.67736
0
LINE
8
BLACK
6
CONTINUOUS
10
3.52618
20
-6.67736
11
3.52618
21
-5.44705
0
LINE
8
BLACK
6
CONTINUOUS
10
3.52618
20
-5.44705
11
2.45728
21
-5.44705
0
LINE
8
BLACK
6
CONTINUOUS
10
20.6711
20
-7.97606
11
20.6773
21
-7.96112
0
LINE
8
BLACK
6
CONTINUOUS
10
20.6773
20
-7.96112
11
20.6862
21
-7.94768
0
LINE
8
BLACK
6
CONTINUOUS
10
20.6862
20
-7.94768
11
20.6977
21
-7.93624
0
LINE
8
BLACK
6
CONTINUOUS
10
20.6977
20
-7.93624
11
20.7111
21
-7.92726
0
LINE
8
BLACK
6
CONTINUOUS
10
20.7111
20
-7.92726
11
20.7261
21
-7.92107
0
LINE
8
BLACK
6
CONTINUOUS
10
20.7261
20
-7.92107
11
20.7419
21
-7.91792
0
LINE
8
BLACK
6
CONTINUOUS
10
20.7419
20
-7.91792
11
20.7581
21
-7.91792
0
LINE
8
BLACK
6
CONTINUOUS
10
20.7581
20
-7.91792
11
20.7739
21
-7.92107
0
LINE
8
BLACK
6
CONTINUOUS
10
20.7739
20
-7.92107
11
20.7889
21
-7.92726
0
LINE
8
BLACK
6
CONTINUOUS
10
20.7889
20
-7.92726
11
20.8023
21
-7.93624
0
LINE
8
BLACK
6
CONTINUOUS
10
20.8023
20
-7.93624
11
20.8138
21
-7.94768
0
LINE
8
BLACK
6
CONTINUOUS
10
20.8138
20
-7.94768
11
20.8227
21
-7.96112
0
LINE
8
BLACK
6
CONTINUOUS
10
20.8227
20
-7.96112
11
20.8289
21
-7.97606
0
LINE
8
BLACK
6
CONTINUOUS
10
20.8289
20
-7.97606
11
20.8321
21
-7.99192
0
LINE
8
BLACK
6
CONTINUOUS
10
20.8321
20
-7.99192
11
20.8321
21
-8.00808
0
LINE
8
BLACK
6
CONTINUOUS
10
20.8321
20
-8.00808
11
20.8289
21
-8.02394
0
LINE
8
BLACK
6
CONTINUOUS
10
20.8289
20
-8.02394
11
20.8227
21
-8.03888
0
LINE
8
BLACK
6
CONTINUOUS
10
20.8227
20
-8.03888
11
20.8138
21
-8.05232
0
LINE
8
BLACK
6
CONTINUOUS
10
20.8138
20
-8.05232
11
20.8023
21
-8.06376
0
LINE
8
BLACK
6
CONTINUOUS
10
20.8023
20
-8.06376
11
20.7889
21
-8.07274
0
LINE
8
BLACK
6
CONTINUOUS
10
20.7889
20
-8.07274
11
20.7739
21
-8.07893
0
LINE
8
BLACK
6
CONTINUOUS
10
20.7739
20
-8.07893
11
20.7581
21
-8.08208
0
LINE
8
BLACK
6
CONTINUOUS
10
20.7581
20
-8.08208
11
20.7419
21
-8.08208
0
LINE
8
BLACK
6
CONTINUOUS
10
20.7419
20
-8.08208
11
20.7261
21
-8.07893
0
LINE
8
BLACK
6
CONTINUOUS
10
20.7261
20
-8.07893
11
20.7111
21
-8.07274
0
LINE
8
BLACK
6
CONTINUOUS
10
20.7111
20
-8.07274
11
20.6977
21
-8.06376
0
LINE
8
BLACK
6
CONTINUOUS
10
20.6977
20
-8.06376
11
20.6862
21
-8.05232
0
LINE
8
BLACK
6
CONTINUOUS
10
20.6862
20
-8.05232
11
20.6773
21
-8.03888
0
LINE
8
BLACK
6
CONTINUOUS
10
20.6773
20
-8.03888
11
20.6711
21
-8.02394
0
LINE
8
BLACK
6
CONTINUOUS
10
20.6711
20
-8.02394
11
20.6679
21
-8.00808
0
LINE
8
BLACK
6
CONTINUOUS
10
20.6679
20
-8.00808
11
20.6679
21
-7.99192
0
LINE
8
BLACK
6
CONTINUOUS
10
20.6679
20
-7.99192
11
20.6711
21
-7.97606
0
LINE
8
BLACK
6
CONTINUOUS
10
20.6775
20
-8.022
11
20.6832
21
-8.03573
0
LINE
8
BLACK
6
CONTINUOUS
10
20.6832
20
-8.03573
11
20.6914
21
-8.04808
0
LINE
8
BLACK
6
CONTINUOUS
10
20.6914
20
-8.04808
11
20.7019
21
-8.05858
0
LINE
8
BLACK
6
CONTINUOUS
10
20.7019
20
-8.05858
11
20.7143
21
-8.06684
0
LINE
8
BLACK
6
CONTINUOUS
10
20.7143
20
-8.06684
11
20.728
21
-8.07252
0
LINE
8
BLACK
6
CONTINUOUS
10
20.728
20
-8.07252
11
20.7426
21
-8.07542
0
LINE
8
BLACK
6
CONTINUOUS
10
20.7426
20
-8.07542
11
20.7574
21
-8.07542
0
LINE
8
BLACK
6
CONTINUOUS
10
20.7574
20
-8.07542
11
20.772
21
-8.07252
0
LINE
8
BLACK
6
CONTINUOUS
10
20.772
20
-8.07252
11
20.7857
21
-8.06684
0
LINE
8
BLACK
6
CONTINUOUS
10
20.7857
20
-8.06684
11
20.7981
21
-8.05858
0
LINE
8
BLACK
6
CONTINUOUS
10
20.7981
20
-8.05858
11
20.8086
21
-8.04808
0
LINE
8
BLACK
6
CONTINUOUS
10
20.8086
20
-8.04808
11
20.8168
21
-8.03573
0
LINE
8
BLACK
6
CONTINUOUS
10
20.8168
20
-8.03573
11
20.8225
21
-8.022
0
LINE
8
BLACK
6
CONTINUOUS
10
20.8225
20
-8.022
11
20.8254
21
-8.00743
0
LINE
8
BLACK
6
CONTINUOUS
10
20.8254
20
-8.00743
11
20.8254
21
-7.99257
0
LINE
8
BLACK
6
CONTINUOUS
10
20.8254
20
-7.99257
11
20.8225
21
-7.978
0
LINE
8
BLACK
6
CONTINUOUS
10
20.8225
20
-7.978
11
20.8168
21
-7.96427
0
LINE
8
BLACK
6
CONTINUOUS
10
20.8168
20
-7.96427
11
20.8086
21
-7.95192
0
LINE
8
BLACK
6
CONTINUOUS
10
20.8086
20
-7.95192
11
20.7981
21
-7.94142
0
LINE
8
BLACK
6
CONTINUOUS
10
20.7981
20
-7.94142
11
20.7857
21
-7.93316
0
LINE
8
BLACK
6
CONTINUOUS
10
20.7857
20
-7.93316
11
20.772
21
-7.92748
0
LINE
8
BLACK
6
CONTINUOUS
10
20.772
20
-7.92748
11
20.7574
21
-7.92458
0
LINE
8
BLACK
6
CONTINUOUS
10
20.7574
20
-7.92458
11
20.7426
21
-7.92458
0
LINE
8
BLACK
6
CONTINUOUS
10
20.7426
20
-7.92458
11
20.728
21
-7.92748
0
LINE
8
BLACK
6
CONTINUOUS
10
20.728
20
-7.92748
11
20.7143
21
-7.93316
0
LINE
8
BLACK
6
CONTINUOUS
10
20.7143
20
-7.93316
11
20.7019
21
-7.94142
0
LINE
8
BLACK
6
CONTINUOUS
10
20.7019
20
-7.94142
11
20.6914
21
-7.95192
0
LINE
8
BLACK
6
CONTINUOUS
10
20.6914
20
-7.95192
11
20.6832
21
-7.96427
0
LINE
8
BLACK
6
CONTINUOUS
10
20.6832
20
-7.96427
11
20.6775
21
-7.978
0
LINE
8
BLACK
6
CONTINUOUS
10
20.6775
20
-7.978
11
20.6746
21
-7.99257
0
LINE
8
BLACK
6
CONTINUOUS
10
20.6746
20
-7.99257
11
20.6746
21
-8.00743
0
LINE
8
BLACK
6
CONTINUOUS
10
20.6746
20
-8.00743
11
20.6775
21
-8.022
0
LINE
8
BLACK
6
CONTINUOUS
10
5.42107
20
-7.97606
11
5.42726
21
-7.96112
0
LINE
8
BLACK
6
CONTINUOUS
10
5.42726
20
-7.96112
11
5.43624
21
-7.94768
0
LINE
8
BLACK
6
CONTINUOUS
10
5.43624
20
-7.94768
11
5.44768
21
-7.93624
0
LINE
8
BLACK
6
CONTINUOUS
10
5.44768
20
-7.93624
11
5.46112
21
-7.92726
0
LINE
8
BLACK
6
CONTINUOUS
10
5.46112
20
-7.92726
11
5.47606
21
-7.92107
0
LINE
8
BLACK
6
CONTINUOUS
10
5.47606
20
-7.92107
11
5.49192
21
-7.91792
0
LINE
8
BLACK
6
CONTINUOUS
10
5.49192
20
-7.91792
11
5.50808
21
-7.91792
0
LINE
8
BLACK
6
CONTINUOUS
10
5.50808
20
-7.91792
11
5.52394
21
-7.92107
0
LINE
8
BLACK
6
CONTINUOUS
10
5.52394
20
-7.92107
11
5.53888
21
-7.92726
0
LINE
8
BLACK
6
CONTINUOUS
10
5.53888
20
-7.92726
11
5.55232
21
-7.93624
0
LINE
8
BLACK
6
CONTINUOUS
10
5.55232
20
-7.93624
11
5.56376
21
-7.94768
0
LINE
8
BLACK
6
CONTINUOUS
10
5.56376
20
-7.94768
11
5.57274
21
-7.96112
0
LINE
8
BLACK
6
CONTINUOUS
10
5.57274
20
-7.96112
11
5.57893
21
-7.97606
0
LINE
8
BLACK
6
CONTINUOUS
10
5.57893
20
-7.97606
11
5.58208
21
-7.99192
0
LINE
8
BLACK
6
CONTINUOUS
10
5.58208
20
-7.99192
11
5.58208
21
-8.00808
0
LINE
8
BLACK
6
CONTINUOUS
10
5.58208
20
-8.00808
11
5.57893
21
-8.02394
0
LINE
8
BLACK
6
CONTINUOUS
10
5.57893
20
-8.02394
11
5.57274
21
-8.03888
0
LINE
8
BLACK
6
CONTINUOUS
10
5.57274
20
-8.03888
11
5.56376
21
-8.05232
0
LINE
8
BLACK
6
CONTINUOUS
10
5.56376
20
-8.05232
11
5.55232
21
-8.06376
0
LINE
8
BLACK
6
CONTINUOUS
10
5.55232
20
-8.06376
11
5.53888
21
-8.07274
0
LINE
8
BLACK
6
CONTINUOUS
10
5.53888
20
-8.07274
11
5.52394
21
-8.07893
0
LINE
8
BLACK
6
CONTINUOUS
10
5.52394
20
-8.07893
11
5.50808
21
-8.08208
0
LINE
8
BLACK
6
CONTINUOUS
10
5.50808
20
-8.08208
11
5.49192
21
-8.08208
0
LINE
8
BLACK
6
CONTINUOUS
10
5.49192
20
-8.08208
11
5.47606
21
-8.07893
0
LINE
8
BLACK
6
CONTINUOUS
10
5.47606
20
-8.07893
11
5.46112
21
-8.07274
0
LINE
8
BLACK
6
CONTINUOUS
10
5.46112
20
-8.07274
11
5.44768
21
-8.06376
0
LINE
8
BLACK
6
CONTINUOUS
10
5.44768
20
-8.06376
11
5.43624
21
-8.05232
0
LINE
8
BLACK
6
CONTINUOUS
10
5.43624
20
-8.05232
11
5.42726
21
-8.03888
0
LINE
8
BLACK
6
CONTINUOUS
10
5.42726
20
-8.03888
11
5.42107
21
-8.02394
0
LINE
8
BLACK
6
CONTINUOUS
10
5.42107
20
-8.02394
11
5.41792
21
-8.00808
0
LINE
8
BLACK
6
CONTINUOUS
10
5.41792
20
-8.00808
11
5.41792
21
-7.99192
0
LINE
8
BLACK
6
CONTINUOUS
10
5.41792
20
-7.99192
11
5.42107
21
-7.97606
0
LINE
8
BLACK
6
CONTINUOUS
10
5.42748
20
-8.022
11
5.43316
21
-8.03573
0
LINE
8
BLACK
6
CONTINUOUS
10
5.43316
20
-8.03573
11
5.44142
21
-8.04808
0
LINE
8
BLACK
6
CONTINUOUS
10
5.44142
20
-8.04808
11
5.45192
21
-8.05858
0
LINE
8
BLACK
6
CONTINUOUS
10
5.45192
20
-8.05858
11
5.46427
21
-8.06684
0
LINE
8
BLACK
6
CONTINUOUS
10
5.46427
20
-8.06684
11
5.478
21
-8.07252
0
LINE
8
BLACK
6
CONTINUOUS
10
5.478
20
-8.07252
11
5.49257
21
-8.07542
0
LINE
8
BLACK
6
CONTINUOUS
10
5.49257
20
-8.07542
11
5.50743
21
-8.07542
0
LINE
8
BLACK
6
CONTINUOUS
10
5.50743
20
-8.07542
11
5.522
21
-8.07252
0
LINE
8
BLACK
6
CONTINUOUS
10
5.522
20
-8.07252
11
5.53573
21
-8.06684
0
LINE
8
BLACK
6
CONTINUOUS
10
5.53573
20
-8.06684
11
5.54808
21
-8.05858
0
LINE
8
BLACK
6
CONTINUOUS
10
5.54808
20
-8.05858
11
5.55858
21
-8.04808
0
LINE
8
BLACK
6
CONTINUOUS
10
5.55858
20
-8.04808
11
5.56684
21
-8.03573
0
LINE
8
BLACK
6
CONTINUOUS
10
5.56684
20
-8.03573
11
5.57252
21
-8.022
0
LINE
8
BLACK
6
CONTINUOUS
10
5.57252
20
-8.022
11
5.57542
21
-8.00743
0
LINE
8
BLACK
6
CONTINUOUS
10
5.57542
20
-8.00743
11
5.57542
21
-7.99257
0
LINE
8
BLACK
6
CONTINUOUS
10
5.57542
20
-7.99257
11
5.57252
21
-7.978
0
LINE
8
BLACK
6
CONTINUOUS
10
5.57252
20
-7.978
11
5.56684
21
-7.96427
0
LINE
8
BLACK
6
CONTINUOUS
10
5.56684
20
-7.96427
11
5.55858
21
-7.95192
0
LINE
8
BLACK
6
CONTINUOUS
10
5.55858
20
-7.95192
11
5.54808
21
-7.94142
0
LINE
8
BLACK
6
CONTINUOUS
10
5.54808
20
-7.94142
11
5.53573
21
-7.93316
0
LINE
8
BLACK
6
CONTINUOUS
10
5.53573
20
-7.93316
11
5.522
21
-7.92748
0
LINE
8
BLACK
6
CONTINUOUS
10
5.522
20
-7.92748
11
5.50743
21
-7.92458
0
LINE
8
BLACK
6
CONTINUOUS
10
5.50743
20
-7.92458
11
5.49257
21
-7.92458
0
LINE
8
BLACK
6
CONTINUOUS
10
5.49257
20
-7.92458
11
5.478
21
-7.92748
0
LINE
8
BLACK
6
CONTINUOUS
10
5.478
20
-7.92748
11
5.46427
21
-7.93316
0
LINE
8
BLACK
6
CONTINUOUS
10
5.46427
20
-7.93316
11
5.45192
21
-7.94142
0
LINE
8
BLACK
6
CONTINUOUS
10
5.45192
20
-7.94142
11
5.44142
21
-7.95192
0
LINE
8
BLACK
6
CONTINUOUS
10
5.44142
20
-7.95192
11
5.43316
21
-7.96427
0
LINE
8
BLACK
6
CONTINUOUS
10
5.43316
20
-7.96427
11
5.42748
21
-7.978
0
LINE
8
BLACK
6
CONTINUOUS
10
5.42748
20
-7.978
11
5.42458
21
-7.99257
0
LINE
8
BLACK
6
CONTINUOUS
10
5.42458
20
-7.99257
11
5.42458
21
-8.00743
0
LINE
8
BLACK
6
CONTINUOUS
10
5.42458
20
-8.00743
11
5.42748
21
-8.022
0
LINE
8
BLACK
6
CONTINUOUS
10
11.4191
20
-7.97606
11
11.4253
21
-7.96112
0
LINE
8
BLACK
6
CONTINUOUS
10
11.4253
20
-7.96112
11
11.4343
21
-7.94768
0
LINE
8
BLACK
6
CONTINUOUS
10
11.4343
20
-7.94768
11
11.4457
21
-7.93624
0
LINE
8
BLACK
6
CONTINUOUS
10
11.4457
20
-7.93624
11
11.4592
21
-7.92726
0
LINE
8
BLACK
6
CONTINUOUS
10
11.4592
20
-7.92726
11
11.4741
21
-7.92107
0
LINE
8
BLACK
6
CONTINUOUS
10
11.4741
20
-7.92107
11
11.4899
21
-7.91792
0
LINE
8
BLACK
6
CONTINUOUS
10
11.4899
20
-7.91792
11
11.5061
21
-7.91792
0
LINE
8
BLACK
6
CONTINUOUS
10
11.5061
20
-7.91792
11
11.522
21
-7.92107
0
LINE
8
BLACK
6
CONTINUOUS
10
11.522
20
-7.92107
11
11.5369
21
-7.92726
0
LINE
8
BLACK
6
CONTINUOUS
10
11.5369
20
-7.92726
11
11.5504
21
-7.93624
0
LINE
8
BLACK
6
CONTINUOUS
10
11.5504
20
-7.93624
11
11.5618
21
-7.94768
0
LINE
8
BLACK
6
CONTINUOUS
10
11.5618
20
-7.94768
11
11.5708
21
-7.96112
0
LINE
8
BLACK
6
CONTINUOUS
10
11.5708
20
-7.96112
11
11.577
21
-7.97606
0
LINE
8
BLACK
6
CONTINUOUS
10
11.577
20
-7.97606
11
11.5801
21
-7.99192
0
LINE
8
BLACK
6
CONTINUOUS
10
11.5801
20
-7.99192
11
11.5801
21
-8.00808
0
LINE
8
BLACK
6
CONTINUOUS
10
11.5801
20
-8.00808
11
11.577
21
-8.02394
0
LINE
8
BLACK
6
CONTINUOUS
10
11.577
20
-8.02394
11
11.5708
21
-8.03888
0
LINE
8
BLACK
6
CONTINUOUS
10
11.5708
20
-8.03888
11
11.5618
21
-8.05232
0
LINE
8
BLACK
6
CONTINUOUS
10
11.5618
20
-8.05232
11
11.5504
21
-8.06376
0
LINE
8
BLACK
6
CONTINUOUS
10
11.5504
20
-8.06376
11
11.5369
21
-8.07274
0
LINE
8
BLACK
6
CONTINUOUS
10
11.5369
20
-8.07274
11
11.522
21
-8.07893
0
LINE
8
BLACK
6
CONTINUOUS
10
11.522
20
-8.07893
11
11.5061
21
-8.08208
0
LINE
8
BLACK
6
CONTINUOUS
10
11.5061
20
-8.08208
11
11.4899
21
-8.08208
0
LINE
8
BLACK
6
CONTINUOUS
10
11.4899
20
-8.08208
11
11.4741
21
-8.07893
0
LINE
8
BLACK
6
CONTINUOUS
10
11.4741
20
-8.07893
11
11.4592
21
-8.07274
0
LINE
8
BLACK
6
CONTINUOUS
10
11.4592
20
-8.07274
11
11.4457
21
-8.06376
0
LINE
8
BLACK
6
CONTINUOUS
10
11.4457
20
-8.06376
11
11.4343
21
-8.05232
0
LINE
8
BLACK
6
CONTINUOUS
10
11.4343
20
-8.05232
11
11.4253
21
-8.03888
0
LINE
8
BLACK
6
CONTINUOUS
10
11.4253
20
-8.03888
11
11.4191
21
-8.02394
0
LINE
8
BLACK
6
CONTINUOUS
10
11.4191
20
-8.02394
11
11.4159
21
-8.00808
0
LINE
8
BLACK
6
CONTINUOUS
10
11.4159
20
-8.00808
11
11.4159
21
-7.99192
0
LINE
8
BLACK
6
CONTINUOUS
10
11.4159
20
-7.99192
11
11.4191
21
-7.97606
0
LINE
8
BLACK
6
CONTINUOUS
10
11.4255
20
-8.022
11
11.4312
21
-8.03573
0
LINE
8
BLACK
6
CONTINUOUS
10
11.4312
20
-8.03573
11
11.4394
21
-8.04808
0
LINE
8
BLACK
6
CONTINUOUS
10
11.4394
20
-8.04808
11
11.45
21
-8.05858
0
LINE
8
BLACK
6
CONTINUOUS
10
11.45
20
-8.05858
11
11.4623
21
-8.06684
0
LINE
8
BLACK
6
CONTINUOUS
10
11.4623
20
-8.06684
11
11.476
21
-8.07252
0
LINE
8
BLACK
6
CONTINUOUS
10
11.476
20
-8.07252
11
11.4906
21
-8.07542
0
LINE
8
BLACK
6
CONTINUOUS
10
11.4906
20
-8.07542
11
11.5055
21
-8.07542
0
LINE
8
BLACK
6
CONTINUOUS
10
11.5055
20
-8.07542
11
11.52
21
-8.07252
0
LINE
8
BLACK
6
CONTINUOUS
10
11.52
20
-8.07252
11
11.5338
21
-8.06684
0
LINE
8
BLACK
6
CONTINUOUS
10
11.5338
20
-8.06684
11
11.5461
21
-8.05858
0
LINE
8
BLACK
6
CONTINUOUS
10
11.5461
20
-8.05858
11
11.5566
21
-8.04808
0
LINE
8
BLACK
6
CONTINUOUS
10
11.5566
20
-8.04808
11
11.5649
21
-8.03573
0
LINE
8
BLACK
6
CONTINUOUS
10
11.5649
20
-8.03573
11
11.5706
21
-8.022
0
LINE
8
BLACK
6
CONTINUOUS
10
11.5706
20
-8.022
11
11.5735
21
-8.00743
0
LINE
8
BLACK
6
CONTINUOUS
10
11.5735
20
-8.00743
11
11.5735
21
-7.99257
0
LINE
8
BLACK
6
CONTINUOUS
10
11.5735
20
-7.99257
11
11.5706
21
-7.978
0
LINE
8
BLACK
6
CONTINUOUS
10
11.5706
20
-7.978
11
11.5649
21
-7.96427
0
LINE
8
BLACK
6
CONTINUOUS
10
11.5649
20
-7.96427
11
11.5566
21
-7.95192
0
LINE
8
BLACK
6
CONTINUOUS
10
11.5566
20
-7.95192
11
11.5461
21
-7.94142
0
LINE
8
BLACK
6
CONTINUOUS
10
11.5461
20
-7.94142
11
11.5338
21
-7.93316
0
LINE
8
BLACK
6
CONTINUOUS
10
11.5338
20
-7.93316
11
11.52
21
-7.92748
0
LINE
8
BLACK
6
CONTINUOUS
10
11.52
20
-7.92748
11
11.5055
21
-7.92458
0
LINE
8
BLACK
6
CONTINUOUS
10
11.5055
20
-7.92458
11
11.4906
21
-7.92458
0
LINE
8
BLACK
6
CONTINUOUS
10
11.4906
20
-7.92458
11
11.476
21
-7.92748
0
LINE
8
BLACK
6
CONTINUOUS
10
11.476
20
-7.92748
11
11.4623
21
-7.93316
0
LINE
8
BLACK
6
CONTINUOUS
10
11.4623
20
-7.93316
11
11.45
21
-7.94142
0
LINE
8
BLACK
6
CONTINUOUS
10
11.45
20
-7.94142
11
11.4394
21
-7.95192
0
LINE
8
BLACK
6
CONTINUOUS
10
11.4394
20
-7.95192
11
11.4312
21
-7.96427
0
LINE
8
BLACK
6
CONTINUOUS
10
11.4312
20
-7.96427
11
11.4255
21
-7.978
0
LINE
8
BLACK
6
CONTINUOUS
10
11.4255
20
-7.978
11
11.4226
21
-7.99257
0
LINE
8
BLACK
6
CONTINUOUS
10
11.4226
20
-7.99257
11
11.4226
21
-8.00743
0
LINE
8
BLACK
6
CONTINUOUS
10
11.4226
20
-8.00743
11
11.4255
21
-8.022
0
LINE
8
BLACK
6
CONTINUOUS
10
10.4191
20
-7.97606
11
10.4253
21
-7.96112
0
LINE
8
BLACK
6
CONTINUOUS
10
10.4253
20
-7.96112
11
10.4343
21
-7.94768
0
LINE
8
BLACK
6
CONTINUOUS
10
10.4343
20
-7.94768
11
10.4457
21
-7.93624
0
LINE
8
BLACK
6
CONTINUOUS
10
10.4457
20
-7.93624
11
10.4592
21
-7.92726
0
LINE
8
BLACK
6
CONTINUOUS
10
10.4592
20
-7.92726
11
10.4741
21
-7.92107
0
LINE
8
BLACK
6
CONTINUOUS
10
10.4741
20
-7.92107
11
10.4899
21
-7.91792
0
LINE
8
BLACK
6
CONTINUOUS
10
10.4899
20
-7.91792
11
10.5061
21
-7.91792
0
LINE
8
BLACK
6
CONTINUOUS
10
10.5061
20
-7.91792
11
10.522
21
-7.92107
0
LINE
8
BLACK
6
CONTINUOUS
10
10.522
20
-7.92107
11
10.5369
21
-7.92726
0
LINE
8
BLACK
6
CONTINUOUS
10
10.5369
20
-7.92726
11
10.5504
21
-7.93624
0
LINE
8
BLACK
6
CONTINUOUS
10
10.5504
20
-7.93624
11
10.5618
21
-7.94768
0
LINE
8
BLACK
6
CONTINUOUS
10
10.5618
20
-7.94768
11
10.5708
21
-7.96112
0
LINE
8
BLACK
6
CONTINUOUS
10
10.5708
20
-7.96112
11
10.577
21
-7.97606
0
LINE
8
BLACK
6
CONTINUOUS
10
10.577
20
-7.97606
11
10.5801
21
-7.99192
0
LINE
8
BLACK
6
CONTINUOUS
10
10.5801
20
-7.99192
11
10.5801
21
-8.00808
0
LINE
8
BLACK
6
CONTINUOUS
10
10.5801
20
-8.00808
11
10.577
21
-8.02394
0
LINE
8
BLACK
6
CONTINUOUS
10
10.577
20
-8.02394
11
10.5708
21
-8.03888
0
LINE
8
BLACK
6
CONTINUOUS
10
10.5708
20
-8.03888
11
10.5618
21
-8.05232
0
LINE
8
BLACK
6
CONTINUOUS
10
10.5618
20
-8.05232
11
10.5504
21
-8.06376
0
LINE
8
BLACK
6
CONTINUOUS
10
10.5504
20
-8.06376
11
10.5369
21
-8.07274
0
LINE
8
BLACK
6
CONTINUOUS
10
10.5369
20
-8.07274
11
10.522
21
-8.07893
0
LINE
8
BLACK
6
CONTINUOUS
10
10.522
20
-8.07893
11
10.5061
21
-8.08208
0
LINE
8
BLACK
6
CONTINUOUS
10
10.5061
20
-8.08208
11
10.4899
21
-8.08208
0
LINE
8
BLACK
6
CONTINUOUS
10
10.4899
20
-8.08208
11
10.4741
21
-8.07893
0
LINE
8
BLACK
6
CONTINUOUS
10
10.4741
20
-8.07893
11
10.4592
21
-8.07274
0
LINE
8
BLACK
6
CONTINUOUS
10
10.4592
20
-8.07274
11
10.4457
21
-8.06376
0
LINE
8
BLACK
6
CONTINUOUS
10
10.4457
20
-8.06376
11
10.4343
21
-8.05232
0
LINE
8
BLACK
6
CONTINUOUS
10
10.4343
20
-8.05232
11
10.4253
21
-8.03888
0
LINE
8
BLACK
6
CONTINUOUS
10
10.4253
20
-8.03888
11
10.4191
21
-8.02394
0
LINE
8
BLACK
6
CONTINUOUS
10
10.4191
20
-8.02394
11
10.4159
21
-8.00808
0
LINE
8
BLACK
6
CONTINUOUS
10
10.4159
20
-8.00808
11
10.4159
21
-7.99192
0
LINE
8
BLACK
6
CONTINUOUS
10
10.4159
20
-7.99192
11
10.4191
21
-7.97606
0
LINE
8
BLACK
6
CONTINUOUS
10
10.4255
20
-8.022
11
10.4312
21
-8.03573
0
LINE
8
BLACK
6
CONTINUOUS
10
10.4312
20
-8.03573
11
10.4394
21
-8.04808
0
LINE
8
BLACK
6
CONTINUOUS
10
10.4394
20
-8.04808
11
10.45
21
-8.05858
0
LINE
8
BLACK
6
CONTINUOUS
10
10.45
20
-8.05858
11
10.4623
21
-8.06684
0
LINE
8
BLACK
6
CONTINUOUS
10
10.4623
20
-8.06684
11
10.476
21
-8.07252
0
LINE
8
BLACK
6
CONTINUOUS
10
10.476
20
-8.07252
11
10.4906
21
-8.07542
0
LINE
8
BLACK
6
CONTINUOUS
10
10.4906
20
-8.07542
11
10.5055
21
-8.07542
0
LINE
8
BLACK
6
CONTINUOUS
10
10.5055
20
-8.07542
11
10.52
21
-8.07252
0
LINE
8
BLACK
6
CONTINUOUS
10
10.52
20
-8.07252
11
10.5338
21
-8.06684
0
LINE
8
BLACK
6
CONTINUOUS
10
10.5338
20
-8.06684
11
10.5461
21
-8.05858
0
LINE
8
BLACK
6
CONTINUOUS
10
10.5461
20
-8.05858
11
10.5566
21
-8.04808
0
LINE
8
BLACK
6
CONTINUOUS
10
10.5566
20
-8.04808
11
10.5649
21
-8.03573
0
LINE
8
BLACK
6
CONTINUOUS
10
10.5649
20
-8.03573
11
10.5706
21
-8.022
0
LINE
8
BLACK
6
CONTINUOUS
10
10.5706
20
-8.022
11
10.5735
21
-8.00743
0
LINE
8
BLACK
6
CONTINUOUS
10
10.5735
20
-8.00743
11
10.5735
21
-7.99257
0
LINE
8
BLACK
6
CONTINUOUS
10
10.5735
20
-7.99257
11
10.5706
21
-7.978
0
LINE
8
BLACK
6
CONTINUOUS
10
10.5706
20
-7.978
11
10.5649
21
-7.96427
0
LINE
8
BLACK
6
CONTINUOUS
10
10.5649
20
-7.96427
11
10.5566
21
-7.95192
0
LINE
8
BLACK
6
CONTINUOUS
10
10.5566
20
-7.95192
11
10.5461
21
-7.94142
0
LINE
8
BLACK
6
CONTINUOUS
10
10.5461
20
-7.94142
11
10.5338
21
-7.93316
0
LINE
8
BLACK
6
CONTINUOUS
10
10.5338
20
-7.93316
11
10.52
21
-7.92748
0
LINE
8
BLACK
6
CONTINUOUS
10
10.52
20
-7.92748
11
10.5055
21
-7.92458
0
LINE
8
BLACK
6
CONTINUOUS
10
10.5055
20
-7.92458
11
10.4906
21
-7.92458
0
LINE
8
BLACK
6
CONTINUOUS
10
10.4906
20
-7.92458
11
10.476
21
-7.92748
0
LINE
8
BLACK
6
CONTINUOUS
10
10.476
20
-7.92748
11
10.4623
21
-7.93316
0
LINE
8
BLACK
6
CONTINUOUS
10
10.4623
20
-7.93316
11
10.45
21
-7.94142
0
LINE
8
BLACK
6
CONTINUOUS
10
10.45
20
-7.94142
11
10.4394
21
-7.95192
0
LINE
8
BLACK
6
CONTINUOUS
10
10.4394
20
-7.95192
11
10.4312
21
-7.96427
0
LINE
8
BLACK
6
CONTINUOUS
10
10.4312
20
-7.96427
11
10.4255
21
-7.978
0
LINE
8
BLACK
6
CONTINUOUS
10
10.4255
20
-7.978
11
10.4226
21
-7.99257
0
LINE
8
BLACK
6
CONTINUOUS
10
10.4226
20
-7.99257
11
10.4226
21
-8.00743
0
LINE
8
BLACK
6
CONTINUOUS
10
10.4226
20
-8.00743
11
10.4255
21
-8.022
0
LINE
8
BLACK
6
CONTINUOUS
10
1.17107
20
-7.917
11
1.17726
21
-7.90206
0
LINE
8
BLACK
6
CONTINUOUS
10
1.17726
20
-7.90206
11
1.18624
21
-7.88862
0
LINE
8
BLACK
6
CONTINUOUS
10
1.18624
20
-7.88862
11
1.19768
21
-7.87719
0
LINE
8
BLACK
6
CONTINUOUS
10
1.19768
20
-7.87719
11
1.21112
21
-7.8682
0
LINE
8
BLACK
6
CONTINUOUS
10
1.21112
20
-7.8682
11
1.22606
21
-7.86202
0
LINE
8
BLACK
6
CONTINUOUS
10
1.22606
20
-7.86202
11
1.24192
21
-7.85886
0
LINE
8
BLACK
6
CONTINUOUS
10
1.24192
20
-7.85886
11
1.25808
21
-7.85886
0
LINE
8
BLACK
6
CONTINUOUS
10
1.25808
20
-7.85886
11
1.27394
21
-7.86202
0
LINE
8
BLACK
6
CONTINUOUS
10
1.27394
20
-7.86202
11
1.28888
21
-7.8682
0
LINE
8
BLACK
6
CONTINUOUS
10
1.28888
20
-7.8682
11
1.30232
21
-7.87719
0
LINE
8
BLACK
6
CONTINUOUS
10
1.30232
20
-7.87719
11
1.31376
21
-7.88862
0
LINE
8
BLACK
6
CONTINUOUS
10
1.31376
20
-7.88862
11
1.32274
21
-7.90206
0
LINE
8
BLACK
6
CONTINUOUS
10
1.32274
20
-7.90206
11
1.32893
21
-7.917
0
LINE
8
BLACK
6
CONTINUOUS
10
1.32893
20
-7.917
11
1.33208
21
-7.93286
0
LINE
8
BLACK
6
CONTINUOUS
10
1.33208
20
-7.93286
11
1.33208
21
-7.94903
0
LINE
8
BLACK
6
CONTINUOUS
10
1.33208
20
-7.94903
11
1.32893
21
-7.96489
0
LINE
8
BLACK
6
CONTINUOUS
10
1.32893
20
-7.96489
11
1.32274
21
-7.97983
0
LINE
8
BLACK
6
CONTINUOUS
10
1.32274
20
-7.97983
11
1.31376
21
-7.99327
0
LINE
8
BLACK
6
CONTINUOUS
10
1.31376
20
-7.99327
11
1.30232
21
-8.0047
0
LINE
8
BLACK
6
CONTINUOUS
10
1.30232
20
-8.0047
11
1.28888
21
-8.01369
0
LINE
8
BLACK
6
CONTINUOUS
10
1.28888
20
-8.01369
11
1.27394
21
-8.01987
0
LINE
8
BLACK
6
CONTINUOUS
10
1.27394
20
-8.01987
11
1.25808
21
-8.02303
0
LINE
8
BLACK
6
CONTINUOUS
10
1.25808
20
-8.02303
11
1.24192
21
-8.02303
0
LINE
8
BLACK
6
CONTINUOUS
10
1.24192
20
-8.02303
11
1.22606
21
-8.01987
0
LINE
8
BLACK
6
CONTINUOUS
10
1.22606
20
-8.01987
11
1.21112
21
-8.01369
0
LINE
8
BLACK
6
CONTINUOUS
10
1.21112
20
-8.01369
11
1.19768
21
-8.0047
0
LINE
8
BLACK
6
CONTINUOUS
10
1.19768
20
-8.0047
11
1.18624
21
-7.99327
0
LINE
8
BLACK
6
CONTINUOUS
10
1.18624
20
-7.99327
11
1.17726
21
-7.97983
0
LINE
8
BLACK
6
CONTINUOUS
10
1.17726
20
-7.97983
11
1.17107
21
-7.96489
0
LINE
8
BLACK
6
CONTINUOUS
10
1.17107
20
-7.96489
11
1.16792
21
-7.94903
0
LINE
8
BLACK
6
CONTINUOUS
10
1.16792
20
-7.94903
11
1.16792
21
-7.93286
0
LINE
8
BLACK
6
CONTINUOUS
10
1.16792
20
-7.93286
11
1.17107
21
-7.917
0
LINE
8
BLACK
6
CONTINUOUS
10
1.17748
20
-7.96294
11
1.18316
21
-7.97667
0
LINE
8
BLACK
6
CONTINUOUS
10
1.18316
20
-7.97667
11
1.19142
21
-7.98902
0
LINE
8
BLACK
6
CONTINUOUS
10
1.19142
20
-7.98902
11
1.20192
21
-7.99953
0
LINE
8
BLACK
6
CONTINUOUS
10
1.20192
20
-7.99953
11
1.21427
21
-8.00778
0
LINE
8
BLACK
6
CONTINUOUS
10
1.21427
20
-8.00778
11
1.228
21
-8.01347
0
LINE
8
BLACK
6
CONTINUOUS
10
1.228
20
-8.01347
11
1.24257
21
-8.01637
0
LINE
8
BLACK
6
CONTINUOUS
10
1.24257
20
-8.01637
11
1.25743
21
-8.01637
0
LINE
8
BLACK
6
CONTINUOUS
10
1.25743
20
-8.01637
11
1.272
21
-8.01347
0
LINE
8
BLACK
6
CONTINUOUS
10
1.272
20
-8.01347
11
1.28573
21
-8.00778
0
LINE
8
BLACK
6
CONTINUOUS
10
1.28573
20
-8.00778
11
1.29808
21
-7.99953
0
LINE
8
BLACK
6
CONTINUOUS
10
1.29808
20
-7.99953
11
1.30858
21
-7.98902
0
LINE
8
BLACK
6
CONTINUOUS
10
1.30858
20
-7.98902
11
1.31684
21
-7.97667
0
LINE
8
BLACK
6
CONTINUOUS
10
1.31684
20
-7.97667
11
1.32252
21
-7.96294
0
LINE
8
BLACK
6
CONTINUOUS
10
1.32252
20
-7.96294
11
1.32542
21
-7.94837
0
LINE
8
BLACK
6
CONTINUOUS
10
1.32542
20
-7.94837
11
1.32542
21
-7.93352
0
LINE
8
BLACK
6
CONTINUOUS
10
1.32542
20
-7.93352
11
1.32252
21
-7.91894
0
LINE
8
BLACK
6
CONTINUOUS
10
1.32252
20
-7.91894
11
1.31684
21
-7.90522
0
LINE
8
BLACK
6
CONTINUOUS
10
1.31684
20
-7.90522
11
1.30858
21
-7.89287
0
LINE
8
BLACK
6
CONTINUOUS
10
1.30858
20
-7.89287
11
1.29808
21
-7.88236
0
LINE
8
BLACK
6
CONTINUOUS
10
1.29808
20
-7.88236
11
1.28573
21
-7.87411
0
LINE
8
BLACK
6
CONTINUOUS
10
1.28573
20
-7.87411
11
1.272
21
-7.86842
0
LINE
8
BLACK
6
CONTINUOUS
10
1.272
20
-7.86842
11
1.25743
21
-7.86552
0
LINE
8
BLACK
6
CONTINUOUS
10
1.25743
20
-7.86552
11
1.24257
21
-7.86552
0
LINE
8
BLACK
6
CONTINUOUS
10
1.24257
20
-7.86552
11
1.228
21
-7.86842
0
LINE
8
BLACK
6
CONTINUOUS
10
1.228
20
-7.86842
11
1.21427
21
-7.87411
0
LINE
8
BLACK
6
CONTINUOUS
10
1.21427
20
-7.87411
11
1.20192
21
-7.88236
0
LINE
8
BLACK
6
CONTINUOUS
10
1.20192
20
-7.88236
11
1.19142
21
-7.89287
0
LINE
8
BLACK
6
CONTINUOUS
10
1.19142
20
-7.89287
11
1.18316
21
-7.90522
0
LINE
8
BLACK
6
CONTINUOUS
10
1.18316
20
-7.90522
11
1.17748
21
-7.91894
0
LINE
8
BLACK
6
CONTINUOUS
10
1.17748
20
-7.91894
11
1.17458
21
-7.93352
0
LINE
8
BLACK
6
CONTINUOUS
10
1.17458
20
-7.93352
11
1.17458
21
-7.94837
0
LINE
8
BLACK
6
CONTINUOUS
10
1.17458
20
-7.94837
11
1.17748
21
-7.96294
0
LINE
8
BLACK
6
CONTINUOUS
10
9.01366
20
-6.01385
11
9.02926
21
-5.97308
0
LINE
8
BLACK
6
CONTINUOUS
10
9.02926
20
-5.97308
11
9.05062
21
-5.93501
0
LINE
8
BLACK
6
CONTINUOUS
10
9.05062
20
-5.93501
11
9.0773
21
-5.90046
0
LINE
8
BLACK
6
CONTINUOUS
10
9.0773
20
-5.90046
11
9.10873
21
-5.87016
0
LINE
8
BLACK
6
CONTINUOUS
10
9.10873
20
-5.87016
11
9.14423
21
-5.84476
0
LINE
8
BLACK
6
CONTINUOUS
10
9.14423
20
-5.84476
11
9.18305
21
-5.8248
0
LINE
8
BLACK
6
CONTINUOUS
10
9.18305
20
-5.8248
11
9.22437
21
-5.81071
0
LINE
8
BLACK
6
CONTINUOUS
10
9.22437
20
-5.81071
11
9.2673
21
-5.80278
0
LINE
8
BLACK
6
CONTINUOUS
10
9.2673
20
-5.80278
11
9.31092
21
-5.80118
0
LINE
8
BLACK
6
CONTINUOUS
10
9.31092
20
-5.80118
11
9.35431
21
-5.80596
0
LINE
8
BLACK
6
CONTINUOUS
10
9.35431
20
-5.80596
11
9.39655
21
-5.817
0
LINE
8
BLACK
6
CONTINUOUS
10
9.39655
20
-5.817
11
9.43672
21
-5.83407
0
LINE
8
BLACK
6
CONTINUOUS
10
9.43672
20
-5.83407
11
9.47398
21
-5.85681
0
LINE
8
BLACK
6
CONTINUOUS
10
9.47398
20
-5.85681
11
9.50754
21
-5.88474
0
LINE
8
BLACK
6
CONTINUOUS
10
9.50754
20
-5.88474
11
9.53667
21
-5.91725
0
LINE
8
BLACK
6
CONTINUOUS
10
9.53667
20
-5.91725
11
9.56076
21
-5.95366
0
LINE
8
BLACK
6
CONTINUOUS
10
9.56076
20
-5.95366
11
9.57929
21
-5.99318
0
LINE
8
BLACK
6
CONTINUOUS
10
9.57929
20
-5.99318
11
9.59186
21
-6.03498
0
LINE
8
BLACK
6
CONTINUOUS
10
9.59186
20
-6.03498
11
9.59822
21
-6.07817
0
LINE
8
BLACK
6
CONTINUOUS
10
9.59822
20
-6.07817
11
9.59822
21
-6.12183
0
LINE
8
BLACK
6
CONTINUOUS
10
9.59822
20
-6.12183
11
9.59186
21
-6.16502
0
LINE
8
BLACK
6
CONTINUOUS
10
9.59186
20
-6.16502
11
9.57929
21
-6.20682
0
LINE
8
BLACK
6
CONTINUOUS
10
9.57929
20
-6.20682
11
9.56076
21
-6.24634
0
LINE
8
BLACK
6
CONTINUOUS
10
9.56076
20
-6.24634
11
9.53667
21
-6.28275
0
LINE
8
BLACK
6
CONTINUOUS
10
9.53667
20
-6.28275
11
9.50754
21
-6.31526
0
LINE
8
BLACK
6
CONTINUOUS
10
9.50754
20
-6.31526
11
9.47398
21
-6.34319
0
LINE
8
BLACK
6
CONTINUOUS
10
9.47398
20
-6.34319
11
9.43672
21
-6.36593
0
LINE
8
BLACK
6
CONTINUOUS
10
9.43672
20
-6.36593
11
9.39655
21
-6.383
0
LINE
8
BLACK
6
CONTINUOUS
10
9.39655
20
-6.383
11
9.35431
21
-6.39404
0
LINE
8
BLACK
6
CONTINUOUS
10
9.35431
20
-6.39404
11
9.31092
21
-6.39882
0
LINE
8
BLACK
6
CONTINUOUS
10
9.31092
20
-6.39882
11
9.2673
21
-6.39722
0
LINE
8
BLACK
6
CONTINUOUS
10
9.2673
20
-6.39722
11
9.22437
21
-6.38929
0
LINE
8
BLACK
6
CONTINUOUS
10
9.22437
20
-6.38929
11
9.18305
21
-6.3752
0
LINE
8
BLACK
6
CONTINUOUS
10
9.18305
20
-6.3752
11
9.14423
21
-6.35524
0
LINE
8
BLACK
6
CONTINUOUS
10
9.14423
20
-6.35524
11
9.10873
21
-6.32984
0
LINE
8
BLACK
6
CONTINUOUS
10
9.10873
20
-6.32984
11
9.0773
21
-6.29954
0
LINE
8
BLACK
6
CONTINUOUS
10
9.0773
20
-6.29954
11
9.05062
21
-6.26499
0
LINE
8
BLACK
6
CONTINUOUS
10
9.05062
20
-6.26499
11
9.02926
21
-6.22692
0
LINE
8
BLACK
6
CONTINUOUS
10
9.02926
20
-6.22692
11
9.01366
21
-6.18615
0
LINE
8
BLACK
6
CONTINUOUS
10
9.01366
20
-6.18615
11
9.00417
21
-6.14354
0
LINE
8
BLACK
6
CONTINUOUS
10
9.00417
20
-6.14354
11
9.00098
21
-6.1
0
LINE
8
BLACK
6
CONTINUOUS
10
9.00098
20
-6.1
11
9.00417
21
-6.05646
0
LINE
8
BLACK
6
CONTINUOUS
10
9.00417
20
-6.05646
11
9.01366
21
-6.01385
0
LINE
8
BLACK
6
CONTINUOUS
10
9.02007
20
-6.18422
11
9.03532
21
-6.22408
0
LINE
8
BLACK
6
CONTINUOUS
10
9.03532
20
-6.22408
11
9.0562
21
-6.26129
0
LINE
8
BLACK
6
CONTINUOUS
10
9.0562
20
-6.26129
11
9.08229
21
-6.29507
0
LINE
8
BLACK
6
CONTINUOUS
10
9.08229
20
-6.29507
11
9.11301
21
-6.32469
0
LINE
8
BLACK
6
CONTINUOUS
10
9.11301
20
-6.32469
11
9.14772
21
-6.34952
0
LINE
8
BLACK
6
CONTINUOUS
10
9.14772
20
-6.34952
11
9.18567
21
-6.36904
0
LINE
8
BLACK
6
CONTINUOUS
10
9.18567
20
-6.36904
11
9.22606
21
-6.38282
0
LINE
8
BLACK
6
CONTINUOUS
10
9.22606
20
-6.38282
11
9.26803
21
-6.39057
0
LINE
8
BLACK
6
CONTINUOUS
10
9.26803
20
-6.39057
11
9.31068
21
-6.39213
0
LINE
8
BLACK
6
CONTINUOUS
10
9.31068
20
-6.39213
11
9.3531
21
-6.38746
0
LINE
8
BLACK
6
CONTINUOUS
10
9.3531
20
-6.38746
11
9.39439
21
-6.37667
0
LINE
8
BLACK
6
CONTINUOUS
10
9.39439
20
-6.37667
11
9.43366
21
-6.35997
0
LINE
8
BLACK
6
CONTINUOUS
10
9.43366
20
-6.35997
11
9.47009
21
-6.33774
0
LINE
8
BLACK
6
CONTINUOUS
10
9.47009
20
-6.33774
11
9.50289
21
-6.31044
0
LINE
8
BLACK
6
CONTINUOUS
10
9.50289
20
-6.31044
11
9.53137
21
-6.27866
0
LINE
8
BLACK
6
CONTINUOUS
10
9.53137
20
-6.27866
11
9.55492
21
-6.24307
0
LINE
8
BLACK
6
CONTINUOUS
10
9.55492
20
-6.24307
11
9.57303
21
-6.20443
0
LINE
8
BLACK
6
CONTINUOUS
10
9.57303
20
-6.20443
11
9.58533
21
-6.16356
0
LINE
8
BLACK
6
CONTINUOUS
10
9.58533
20
-6.16356
11
9.59154
21
-6.12134
0
LINE
8
BLACK
6
CONTINUOUS
10
9.59154
20
-6.12134
11
9.59154
21
-6.07866
0
LINE
8
BLACK
6
CONTINUOUS
10
9.59154
20
-6.07866
11
9.58533
21
-6.03644
0
LINE
8
BLACK
6
CONTINUOUS
10
9.58533
20
-6.03644
11
9.57303
21
-5.99557
0
LINE
8
BLACK
6
CONTINUOUS
10
9.57303
20
-5.99557
11
9.55492
21
-5.95693
0
LINE
8
BLACK
6
CONTINUOUS
10
9.55492
20
-5.95693
11
9.53137
21
-5.92134
0
LINE
8
BLACK
6
CONTINUOUS
10
9.53137
20
-5.92134
11
9.50289
21
-5.88956
0
LINE
8
BLACK
6
CONTINUOUS
10
9.50289
20
-5.88956
11
9.47009
21
-5.86226
0
LINE
8
BLACK
6
CONTINUOUS
10
9.47009
20
-5.86226
11
9.43366
21
-5.84002
0
LINE
8
BLACK
6
CONTINUOUS
10
9.43366
20
-5.84002
11
9.39439
21
-5.82333
0
LINE
8
BLACK
6
CONTINUOUS
10
9.39439
20
-5.82333
11
9.3531
21
-5.81254
0
LINE
8
BLACK
6
CONTINUOUS
10
9.3531
20
-5.81254
11
9.31068
21
-5.80787
0
LINE
8
BLACK
6
CONTINUOUS
10
9.31068
20
-5.80787
11
9.26803
21
-5.80943
0
LINE
8
BLACK
6
CONTINUOUS
10
9.26803
20
-5.80943
11
9.22606
21
-5.81718
0
LINE
8
BLACK
6
CONTINUOUS
10
9.22606
20
-5.81718
11
9.18567
21
-5.83096
0
LINE
8
BLACK
6
CONTINUOUS
10
9.18567
20
-5.83096
11
9.14772
21
-5.85048
0
LINE
8
BLACK
6
CONTINUOUS
10
9.14772
20
-5.85048
11
9.11301
21
-5.87531
0
LINE
8
BLACK
6
CONTINUOUS
10
9.11301
20
-5.87531
11
9.08229
21
-5.90493
0
LINE
8
BLACK
6
CONTINUOUS
10
9.08229
20
-5.90493
11
9.0562
21
-5.93871
0
LINE
8
BLACK
6
CONTINUOUS
10
9.0562
20
-5.93871
11
9.03532
21
-5.97592
0
LINE
8
BLACK
6
CONTINUOUS
10
9.03532
20
-5.97592
11
9.02007
21
-6.01578
0
LINE
8
BLACK
6
CONTINUOUS
10
9.02007
20
-6.01578
11
9.01079
21
-6.05744
0
LINE
8
BLACK
6
CONTINUOUS
10
9.01079
20
-6.05744
11
9.00768
21
-6.1
0
LINE
8
BLACK
6
CONTINUOUS
10
9.00768
20
-6.1
11
9.01079
21
-6.14256
0
LINE
8
BLACK
6
CONTINUOUS
10
9.01079
20
-6.14256
11
9.02007
21
-6.18422
0
LINE
8
BLACK
6
CONTINUOUS
10
7.21366
20
-6.01385
11
7.22926
21
-5.97308
0
LINE
8
BLACK
6
CONTINUOUS
10
7.22926
20
-5.97308
11
7.25062
21
-5.93501
0
LINE
8
BLACK
6
CONTINUOUS
10
7.25062
20
-5.93501
11
7.2773
21
-5.90046
0
LINE
8
BLACK
6
CONTINUOUS
10
7.2773
20
-5.90046
11
7.30873
21
-5.87016
0
LINE
8
BLACK
6
CONTINUOUS
10
7.30873
20
-5.87016
11
7.34423
21
-5.84476
0
LINE
8
BLACK
6
CONTINUOUS
10
7.34423
20
-5.84476
11
7.38305
21
-5.8248
0
LINE
8
BLACK
6
CONTINUOUS
10
7.38305
20
-5.8248
11
7.42437
21
-5.81071
0
LINE
8
BLACK
6
CONTINUOUS
10
7.42437
20
-5.81071
11
7.4673
21
-5.80278
0
LINE
8
BLACK
6
CONTINUOUS
10
7.4673
20
-5.80278
11
7.51092
21
-5.80118
0
LINE
8
BLACK
6
CONTINUOUS
10
7.51092
20
-5.80118
11
7.55431
21
-5.80596
0
LINE
8
BLACK
6
CONTINUOUS
10
7.55431
20
-5.80596
11
7.59655
21
-5.817
0
LINE
8
BLACK
6
CONTINUOUS
10
7.59655
20
-5.817
11
7.63672
21
-5.83407
0
LINE
8
BLACK
6
CONTINUOUS
10
7.63672
20
-5.83407
11
7.67398
21
-5.85681
0
LINE
8
BLACK
6
CONTINUOUS
10
7.67398
20
-5.85681
11
7.70754
21
-5.88474
0
LINE
8
BLACK
6
CONTINUOUS
10
7.70754
20
-5.88474
11
7.73667
21
-5.91725
0
LINE
8
BLACK
6
CONTINUOUS
10
7.73667
20
-5.91725
11
7.76076
21
-5.95366
0
LINE
8
BLACK
6
CONTINUOUS
10
7.76076
20
-5.95366
11
7.77929
21
-5.99318
0
LINE
8
BLACK
6
CONTINUOUS
10
7.77929
20
-5.99318
11
7.79186
21
-6.03498
0
LINE
8
BLACK
6
CONTINUOUS
10
7.79186
20
-6.03498
11
7.79822
21
-6.07817
0
LINE
8
BLACK
6
CONTINUOUS
10
7.79822
20
-6.07817
11
7.79822
21
-6.12183
0
LINE
8
BLACK
6
CONTINUOUS
10
7.79822
20
-6.12183
11
7.79186
21
-6.16502
0
LINE
8
BLACK
6
CONTINUOUS
10
7.79186
20
-6.16502
11
7.77929
21
-6.20682
0
LINE
8
BLACK
6
CONTINUOUS
10
7.77929
20
-6.20682
11
7.76076
21
-6.24634
0
LINE
8
BLACK
6
CONTINUOUS
10
7.76076
20
-6.24634
11
7.73667
21
-6.28275
0
LINE
8
BLACK
6
CONTINUOUS
10
7.73667
20
-6.28275
11
7.70754
21
-6.31526
0
LINE
8
BLACK
6
CONTINUOUS
10
7.70754
20
-6.31526
11
7.67398
21
-6.34319
0
LINE
8
BLACK
6
CONTINUOUS
10
7.67398
20
-6.34319
11
7.63672
21
-6.36593
0
LINE
8
BLACK
6
CONTINUOUS
10
7.63672
20
-6.36593
11
7.59655
21
-6.383
0
LINE
8
BLACK
6
CONTINUOUS
10
7.59655
20
-6.383
11
7.55431
21
-6.39404
0
LINE
8
BLACK
6
CONTINUOUS
10
7.55431
20
-6.39404
11
7.51092
21
-6.39882
0
LINE
8
BLACK
6
CONTINUOUS
10
7.51092
20
-6.39882
11
7.4673
21
-6.39722
0
LINE
8
BLACK
6
CONTINUOUS
10
7.4673
20
-6.39722
11
7.42437
21
-6.38929
0
LINE
8
BLACK
6
CONTINUOUS
10
7.42437
20
-6.38929
11
7.38305
21
-6.3752
0
LINE
8
BLACK
6
CONTINUOUS
10
7.38305
20
-6.3752
11
7.34423
21
-6.35524
0
LINE
8
BLACK
6
CONTINUOUS
10
7.34423
20
-6.35524
11
7.30873
21
-6.32984
0
LINE
8
BLACK
6
CONTINUOUS
10
7.30873
20
-6.32984
11
7.2773
21
-6.29954
0
LINE
8
BLACK
6
CONTINUOUS
10
7.2773
20
-6.29954
11
7.25062
21
-6.26499
0
LINE
8
BLACK
6
CONTINUOUS
10
7.25062
20
-6.26499
11
7.22926
21
-6.22692
0
LINE
8
BLACK
6
CONTINUOUS
10
7.22926
20
-6.22692
11
7.21366
21
-6.18615
0
LINE
8
BLACK
6
CONTINUOUS
10
7.21366
20
-6.18615
11
7.20417
21
-6.14354
0
LINE
8
BLACK
6
CONTINUOUS
10
7.20417
20
-6.14354
11
7.20098
21
-6.1
0
LINE
8
BLACK
6
CONTINUOUS
10
7.20098
20
-6.1
11
7.20417
21
-6.05646
0
LINE
8
BLACK
6
CONTINUOUS
10
7.20417
20
-6.05646
11
7.21366
21
-6.01385
0
LINE
8
BLACK
6
CONTINUOUS
10
7.22007
20
-6.18422
11
7.23532
21
-6.22408
0
LINE
8
BLACK
6
CONTINUOUS
10
7.23532
20
-6.22408
11
7.2562
21
-6.26129
0
LINE
8
BLACK
6
CONTINUOUS
10
7.2562
20
-6.26129
11
7.28229
21
-6.29507
0
LINE
8
BLACK
6
CONTINUOUS
10
7.28229
20
-6.29507
11
7.31301
21
-6.32469
0
LINE
8
BLACK
6
CONTINUOUS
10
7.31301
20
-6.32469
11
7.34772
21
-6.34952
0
LINE
8
BLACK
6
CONTINUOUS
10
7.34772
20
-6.34952
11
7.38567
21
-6.36904
0
LINE
8
BLACK
6
CONTINUOUS
10
7.38567
20
-6.36904
11
7.42606
21
-6.38282
0
LINE
8
BLACK
6
CONTINUOUS
10
7.42606
20
-6.38282
11
7.46803
21
-6.39057
0
LINE
8
BLACK
6
CONTINUOUS
10
7.46803
20
-6.39057
11
7.51068
21
-6.39213
0
LINE
8
BLACK
6
CONTINUOUS
10
7.51068
20
-6.39213
11
7.5531
21
-6.38746
0
LINE
8
BLACK
6
CONTINUOUS
10
7.5531
20
-6.38746
11
7.59439
21
-6.37667
0
LINE
8
BLACK
6
CONTINUOUS
10
7.59439
20
-6.37667
11
7.63366
21
-6.35997
0
LINE
8
BLACK
6
CONTINUOUS
10
7.63366
20
-6.35997
11
7.67009
21
-6.33774
0
LINE
8
BLACK
6
CONTINUOUS
10
7.67009
20
-6.33774
11
7.70289
21
-6.31044
0
LINE
8
BLACK
6
CONTINUOUS
10
7.70289
20
-6.31044
11
7.73137
21
-6.27866
0
LINE
8
BLACK
6
CONTINUOUS
10
7.73137
20
-6.27866
11
7.75492
21
-6.24307
0
LINE
8
BLACK
6
CONTINUOUS
10
7.75492
20
-6.24307
11
7.77303
21
-6.20443
0
LINE
8
BLACK
6
CONTINUOUS
10
7.77303
20
-6.20443
11
7.78533
21
-6.16356
0
LINE
8
BLACK
6
CONTINUOUS
10
7.78533
20
-6.16356
11
7.79154
21
-6.12134
0
LINE
8
BLACK
6
CONTINUOUS
10
7.79154
20
-6.12134
11
7.79154
21
-6.07866
0
LINE
8
BLACK
6
CONTINUOUS
10
7.79154
20
-6.07866
11
7.78533
21
-6.03644
0
LINE
8
BLACK
6
CONTINUOUS
10
7.78533
20
-6.03644
11
7.77303
21
-5.99557
0
LINE
8
BLACK
6
CONTINUOUS
10
7.77303
20
-5.99557
11
7.75492
21
-5.95693
0
LINE
8
BLACK
6
CONTINUOUS
10
7.75492
20
-5.95693
11
7.73137
21
-5.92134
0
LINE
8
BLACK
6
CONTINUOUS
10
7.73137
20
-5.92134
11
7.70289
21
-5.88956
0
LINE
8
BLACK
6
CONTINUOUS
10
7.70289
20
-5.88956
11
7.67009
21
-5.86226
0
LINE
8
BLACK
6
CONTINUOUS
10
7.67009
20
-5.86226
11
7.63366
21
-5.84002
0
LINE
8
BLACK
6
CONTINUOUS
10
7.63366
20
-5.84002
11
7.59439
21
-5.82333
0
LINE
8
BLACK
6
CONTINUOUS
10
7.59439
20
-5.82333
11
7.5531
21
-5.81254
0
LINE
8
BLACK
6
CONTINUOUS
10
7.5531
20
-5.81254
11
7.51068
21
-5.80787
0
LINE
8
BLACK
6
CONTINUOUS
10
7.51068
20
-5.80787
11
7.46803
21
-5.80943
0
LINE
8
BLACK
6
CONTINUOUS
10
7.46803
20
-5.80943
11
7.42606
21
-5.81718
0
LINE
8
BLACK
6
CONTINUOUS
10
7.42606
20
-5.81718
11
7.38567
21
-5.83096
0
LINE
8
BLACK
6
CONTINUOUS
10
7.38567
20
-5.83096
11
7.34772
21
-5.85048
0
LINE
8
BLACK
6
CONTINUOUS
10
7.34772
20
-5.85048
11
7.31301
21
-5.87531
0
LINE
8
BLACK
6
CONTINUOUS
10
7.31301
20
-5.87531
11
7.28229
21
-5.90493
0
LINE
8
BLACK
6
CONTINUOUS
10
7.28229
20
-5.90493
11
7.2562
21
-5.93871
0
LINE
8
BLACK
6
CONTINUOUS
10
7.2562
20
-5.93871
11
7.23532
21
-5.97592
0
LINE
8
BLACK
6
CONTINUOUS
10
7.23532
20
-5.97592
11
7.22007
21
-6.01578
0
LINE
8
BLACK
6
CONTINUOUS
10
7.22007
20
-6.01578
11
7.21079
21
-6.05744
0
LINE
8
BLACK
6
CONTINUOUS
10
7.21079
20
-6.05744
11
7.20768
21
-6.1
0
LINE
8
BLACK
6
CONTINUOUS
10
7.20768
20
-6.1
11
7.21079
21
-6.14256
0
LINE
8
BLACK
6
CONTINUOUS
10
7.21079
20
-6.14256
11
7.22007
21
-6.18422
0
LINE
8
BLACK
6
CONTINUOUS
10
7.87905
20
-6.08063
11
7.88406
21
-6.06854
0
LINE
8
BLACK
6
CONTINUOUS
10
7.88406
20
-6.06854
11
7.89133
21
-6.05767
0
LINE
8
BLACK
6
CONTINUOUS
10
7.89133
20
-6.05767
11
7.90058
21
-6.04842
0
LINE
8
BLACK
6
CONTINUOUS
10
7.90058
20
-6.04842
11
7.91146
21
-6.04115
0
LINE
8
BLACK
6
CONTINUOUS
10
7.91146
20
-6.04115
11
7.92354
21
-6.03614
0
LINE
8
BLACK
6
CONTINUOUS
10
7.92354
20
-6.03614
11
7.93637
21
-6.03359
0
LINE
8
BLACK
6
CONTINUOUS
10
7.93637
20
-6.03359
11
7.94945
21
-6.03359
0
LINE
8
BLACK
6
CONTINUOUS
10
7.94945
20
-6.03359
11
7.96228
21
-6.03614
0
LINE
8
BLACK
6
CONTINUOUS
10
7.96228
20
-6.03614
11
7.97437
21
-6.04115
0
LINE
8
BLACK
6
CONTINUOUS
10
7.97437
20
-6.04115
11
7.98525
21
-6.04842
0
LINE
8
BLACK
6
CONTINUOUS
10
7.98525
20
-6.04842
11
7.9945
21
-6.05767
0
LINE
8
BLACK
6
CONTINUOUS
10
7.9945
20
-6.05767
11
8.00177
21
-6.06854
0
LINE
8
BLACK
6
CONTINUOUS
10
8.00177
20
-6.06854
11
8.00677
21
-6.08063
0
LINE
8
BLACK
6
CONTINUOUS
10
8.00677
20
-6.08063
11
8.00932
21
-6.09346
0
LINE
8
BLACK
6
CONTINUOUS
10
8.00932
20
-6.09346
11
8.00932
21
-6.10654
0
LINE
8
BLACK
6
CONTINUOUS
10
8.00932
20
-6.10654
11
8.00677
21
-6.11937
0
LINE
8
BLACK
6
CONTINUOUS
10
8.00677
20
-6.11937
11
8.00177
21
-6.13146
0
LINE
8
BLACK
6
CONTINUOUS
10
8.00177
20
-6.13146
11
7.9945
21
-6.14233
0
LINE
8
BLACK
6
CONTINUOUS
10
7.9945
20
-6.14233
11
7.98525
21
-6.15158
0
LINE
8
BLACK
6
CONTINUOUS
10
7.98525
20
-6.15158
11
7.97437
21
-6.15885
0
LINE
8
BLACK
6
CONTINUOUS
10
7.97437
20
-6.15885
11
7.96228
21
-6.16386
0
LINE
8
BLACK
6
CONTINUOUS
10
7.96228
20
-6.16386
11
7.94945
21
-6.16641
0
LINE
8
BLACK
6
CONTINUOUS
10
7.94945
20
-6.16641
11
7.93637
21
-6.16641
0
LINE
8
BLACK
6
CONTINUOUS
10
7.93637
20
-6.16641
11
7.92354
21
-6.16386
0
LINE
8
BLACK
6
CONTINUOUS
10
7.92354
20
-6.16386
11
7.91146
21
-6.15885
0
LINE
8
BLACK
6
CONTINUOUS
10
7.91146
20
-6.15885
11
7.90058
21
-6.15158
0
LINE
8
BLACK
6
CONTINUOUS
10
7.90058
20
-6.15158
11
7.89133
21
-6.14233
0
LINE
8
BLACK
6
CONTINUOUS
10
7.89133
20
-6.14233
11
7.88406
21
-6.13146
0
LINE
8
BLACK
6
CONTINUOUS
10
7.88406
20
-6.13146
11
7.87905
21
-6.11937
0
LINE
8
BLACK
6
CONTINUOUS
10
7.87905
20
-6.11937
11
7.8765
21
-6.10654
0
LINE
8
BLACK
6
CONTINUOUS
10
7.8765
20
-6.10654
11
7.8765
21
-6.09346
0
LINE
8
BLACK
6
CONTINUOUS
10
7.8765
20
-6.09346
11
7.87905
21
-6.08063
0
LINE
8
BLACK
6
CONTINUOUS
10
7.88546
20
-6.11743
11
7.88996
21
-6.1283
0
LINE
8
BLACK
6
CONTINUOUS
10
7.88996
20
-6.1283
11
7.8965
21
-6.13809
0
LINE
8
BLACK
6
CONTINUOUS
10
7.8965
20
-6.13809
11
7.90482
21
-6.14641
0
LINE
8
BLACK
6
CONTINUOUS
10
7.90482
20
-6.14641
11
7.91461
21
-6.15295
0
LINE
8
BLACK
6
CONTINUOUS
10
7.91461
20
-6.15295
11
7.92548
21
-6.15745
0
LINE
8
BLACK
6
CONTINUOUS
10
7.92548
20
-6.15745
11
7.93703
21
-6.15975
0
LINE
8
BLACK
6
CONTINUOUS
10
7.93703
20
-6.15975
11
7.9488
21
-6.15975
0
LINE
8
BLACK
6
CONTINUOUS
10
7.9488
20
-6.15975
11
7.96034
21
-6.15745
0
LINE
8
BLACK
6
CONTINUOUS
10
7.96034
20
-6.15745
11
7.97122
21
-6.15295
0
LINE
8
BLACK
6
CONTINUOUS
10
7.97122
20
-6.15295
11
7.981
21
-6.14641
0
LINE
8
BLACK
6
CONTINUOUS
10
7.981
20
-6.14641
11
7.98932
21
-6.13809
0
LINE
8
BLACK
6
CONTINUOUS
10
7.98932
20
-6.13809
11
7.99586
21
-6.1283
0
LINE
8
BLACK
6
CONTINUOUS
10
7.99586
20
-6.1283
11
8.00037
21
-6.11743
0
LINE
8
BLACK
6
CONTINUOUS
10
8.00037
20
-6.11743
11
8.00266
21
-6.10588
0
LINE
8
BLACK
6
CONTINUOUS
10
8.00266
20
-6.10588
11
8.00266
21
-6.09412
0
LINE
8
BLACK
6
CONTINUOUS
10
8.00266
20
-6.09412
11
8.00037
21
-6.08257
0
LINE
8
BLACK
6
CONTINUOUS
10
8.00037
20
-6.08257
11
7.99586
21
-6.0717
0
LINE
8
BLACK
6
CONTINUOUS
10
7.99586
20
-6.0717
11
7.98932
21
-6.06191
0
LINE
8
BLACK
6
CONTINUOUS
10
7.98932
20
-6.06191
11
7.981
21
-6.05359
0
LINE
8
BLACK
6
CONTINUOUS
10
7.981
20
-6.05359
11
7.97122
21
-6.04705
0
LINE
8
BLACK
6
CONTINUOUS
10
7.97122
20
-6.04705
11
7.96034
21
-6.04255
0
LINE
8
BLACK
6
CONTINUOUS
10
7.96034
20
-6.04255
11
7.9488
21
-6.04025
0
LINE
8
BLACK
6
CONTINUOUS
10
7.9488
20
-6.04025
11
7.93703
21
-6.04025
0
LINE
8
BLACK
6
CONTINUOUS
10
7.93703
20
-6.04025
11
7.92548
21
-6.04255
0
LINE
8
BLACK
6
CONTINUOUS
10
7.92548
20
-6.04255
11
7.91461
21
-6.04705
0
LINE
8
BLACK
6
CONTINUOUS
10
7.91461
20
-6.04705
11
7.90482
21
-6.05359
0
LINE
8
BLACK
6
CONTINUOUS
10
7.90482
20
-6.05359
11
7.8965
21
-6.06191
0
LINE
8
BLACK
6
CONTINUOUS
10
7.8965
20
-6.06191
11
7.88996
21
-6.0717
0
LINE
8
BLACK
6
CONTINUOUS
10
7.88996
20
-6.0717
11
7.88546
21
-6.08257
0
LINE
8
BLACK
6
CONTINUOUS
10
7.88546
20
-6.08257
11
7.88316
21
-6.09412
0
LINE
8
BLACK
6
CONTINUOUS
10
7.88316
20
-6.09412
11
7.88316
21
-6.10588
0
LINE
8
BLACK
6
CONTINUOUS
10
7.88316
20
-6.10588
11
7.88546
21
-6.11743
0
LINE
8
BLACK
6
CONTINUOUS
10
8.79323
20
-6.08063
11
8.79823
21
-6.06854
0
LINE
8
BLACK
6
CONTINUOUS
10
8.79823
20
-6.06854
11
8.8055
21
-6.05767
0
LINE
8
BLACK
6
CONTINUOUS
10
8.8055
20
-6.05767
11
8.81475
21
-6.04842
0
LINE
8
BLACK
6
CONTINUOUS
10
8.81475
20
-6.04842
11
8.82563
21
-6.04115
0
LINE
8
BLACK
6
CONTINUOUS
10
8.82563
20
-6.04115
11
8.83772
21
-6.03614
0
LINE
8
BLACK
6
CONTINUOUS
10
8.83772
20
-6.03614
11
8.85055
21
-6.03359
0
LINE
8
BLACK
6
CONTINUOUS
10
8.85055
20
-6.03359
11
8.86363
21
-6.03359
0
LINE
8
BLACK
6
CONTINUOUS
10
8.86363
20
-6.03359
11
8.87646
21
-6.03614
0
LINE
8
BLACK
6
CONTINUOUS
10
8.87646
20
-6.03614
11
8.88854
21
-6.04115
0
LINE
8
BLACK
6
CONTINUOUS
10
8.88854
20
-6.04115
11
8.89942
21
-6.04842
0
LINE
8
BLACK
6
CONTINUOUS
10
8.89942
20
-6.04842
11
8.90867
21
-6.05767
0
LINE
8
BLACK
6
CONTINUOUS
10
8.90867
20
-6.05767
11
8.91594
21
-6.06854
0
LINE
8
BLACK
6
CONTINUOUS
10
8.91594
20
-6.06854
11
8.92095
21
-6.08063
0
LINE
8
BLACK
6
CONTINUOUS
10
8.92095
20
-6.08063
11
8.9235
21
-6.09346
0
LINE
8
BLACK
6
CONTINUOUS
10
8.9235
20
-6.09346
11
8.9235
21
-6.10654
0
LINE
8
BLACK
6
CONTINUOUS
10
8.9235
20
-6.10654
11
8.92095
21
-6.11937
0
LINE
8
BLACK
6
CONTINUOUS
10
8.92095
20
-6.11937
11
8.91594
21
-6.13146
0
LINE
8
BLACK
6
CONTINUOUS
10
8.91594
20
-6.13146
11
8.90867
21
-6.14233
0
LINE
8
BLACK
6
CONTINUOUS
10
8.90867
20
-6.14233
11
8.89942
21
-6.15158
0
LINE
8
BLACK
6
CONTINUOUS
10
8.89942
20
-6.15158
11
8.88854
21
-6.15885
0
LINE
8
BLACK
6
CONTINUOUS
10
8.88854
20
-6.15885
11
8.87646
21
-6.16386
0
LINE
8
BLACK
6
CONTINUOUS
10
8.87646
20
-6.16386
11
8.86363
21
-6.16641
0
LINE
8
BLACK
6
CONTINUOUS
10
8.86363
20
-6.16641
11
8.85055
21
-6.16641
0
LINE
8
BLACK
6
CONTINUOUS
10
8.85055
20
-6.16641
11
8.83772
21
-6.16386
0
LINE
8
BLACK
6
CONTINUOUS
10
8.83772
20
-6.16386
11
8.82563
21
-6.15885
0
LINE
8
BLACK
6
CONTINUOUS
10
8.82563
20
-6.15885
11
8.81475
21
-6.15158
0
LINE
8
BLACK
6
CONTINUOUS
10
8.81475
20
-6.15158
11
8.8055
21
-6.14233
0
LINE
8
BLACK
6
CONTINUOUS
10
8.8055
20
-6.14233
11
8.79823
21
-6.13146
0
LINE
8
BLACK
6
CONTINUOUS
10
8.79823
20
-6.13146
11
8.79323
21
-6.11937
0
LINE
8
BLACK
6
CONTINUOUS
10
8.79323
20
-6.11937
11
8.79068
21
-6.10654
0
LINE
8
BLACK
6
CONTINUOUS
10
8.79068
20
-6.10654
11
8.79068
21
-6.09346
0
LINE
8
BLACK
6
CONTINUOUS
10
8.79068
20
-6.09346
11
8.79323
21
-6.08063
0
LINE
8
BLACK
6
CONTINUOUS
10
8.79963
20
-6.11743
11
8.80414
21
-6.1283
0
LINE
8
BLACK
6
CONTINUOUS
10
8.80414
20
-6.1283
11
8.81068
21
-6.13809
0
LINE
8
BLACK
6
CONTINUOUS
10
8.81068
20
-6.13809
11
8.819
21
-6.14641
0
LINE
8
BLACK
6
CONTINUOUS
10
8.819
20
-6.14641
11
8.82878
21
-6.15295
0
LINE
8
BLACK
6
CONTINUOUS
10
8.82878
20
-6.15295
11
8.83966
21
-6.15745
0
LINE
8
BLACK
6
CONTINUOUS
10
8.83966
20
-6.15745
11
8.8512
21
-6.15975
0
LINE
8
BLACK
6
CONTINUOUS
10
8.8512
20
-6.15975
11
8.86297
21
-6.15975
0
LINE
8
BLACK
6
CONTINUOUS
10
8.86297
20
-6.15975
11
8.87452
21
-6.15745
0
LINE
8
BLACK
6
CONTINUOUS
10
8.87452
20
-6.15745
11
8.88539
21
-6.15295
0
LINE
8
BLACK
6
CONTINUOUS
10
8.88539
20
-6.15295
11
8.89518
21
-6.14641
0
LINE
8
BLACK
6
CONTINUOUS
10
8.89518
20
-6.14641
11
8.9035
21
-6.13809
0
LINE
8
BLACK
6
CONTINUOUS
10
8.9035
20
-6.13809
11
8.91004
21
-6.1283
0
LINE
8
BLACK
6
CONTINUOUS
10
8.91004
20
-6.1283
11
8.91454
21
-6.11743
0
LINE
8
BLACK
6
CONTINUOUS
10
8.91454
20
-6.11743
11
8.91684
21
-6.10588
0
LINE
8
BLACK
6
CONTINUOUS
10
8.91684
20
-6.10588
11
8.91684
21
-6.09412
0
LINE
8
BLACK
6
CONTINUOUS
10
8.91684
20
-6.09412
11
8.91454
21
-6.08257
0
LINE
8
BLACK
6
CONTINUOUS
10
8.91454
20
-6.08257
11
8.91004
21
-6.0717
0
LINE
8
BLACK
6
CONTINUOUS
10
8.91004
20
-6.0717
11
8.9035
21
-6.06191
0
LINE
8
BLACK
6
CONTINUOUS
10
8.9035
20
-6.06191
11
8.89518
21
-6.05359
0
LINE
8
BLACK
6
CONTINUOUS
10
8.89518
20
-6.05359
11
8.88539
21
-6.04705
0
LINE
8
BLACK
6
CONTINUOUS
10
8.88539
20
-6.04705
11
8.87452
21
-6.04255
0
LINE
8
BLACK
6
CONTINUOUS
10
8.87452
20
-6.04255
11
8.86297
21
-6.04025
0
LINE
8
BLACK
6
CONTINUOUS
10
8.86297
20
-6.04025
11
8.8512
21
-6.04025
0
LINE
8
BLACK
6
CONTINUOUS
10
8.8512
20
-6.04025
11
8.83966
21
-6.04255
0
LINE
8
BLACK
6
CONTINUOUS
10
8.83966
20
-6.04255
11
8.82878
21
-6.04705
0
LINE
8
BLACK
6
CONTINUOUS
10
8.82878
20
-6.04705
11
8.819
21
-6.05359
0
LINE
8
BLACK
6
CONTINUOUS
10
8.819
20
-6.05359
11
8.81068
21
-6.06191
0
LINE
8
BLACK
6
CONTINUOUS
10
8.81068
20
-6.06191
11
8.80414
21
-6.0717
0
LINE
8
BLACK
6
CONTINUOUS
10
8.80414
20
-6.0717
11
8.79963
21
-6.08257
0
LINE
8
BLACK
6
CONTINUOUS
10
8.79963
20
-6.08257
11
8.79734
21
-6.09412
0
LINE
8
BLACK
6
CONTINUOUS
10
8.79734
20
-6.09412
11
8.79734
21
-6.10588
0
LINE
8
BLACK
6
CONTINUOUS
10
8.79734
20
-6.10588
11
8.79963
21
-6.11743
0
LINE
8
BLACK
6
CONTINUOUS
10
6.99323
20
-6.08063
11
6.99823
21
-6.06854
0
LINE
8
BLACK
6
CONTINUOUS
10
6.99823
20
-6.06854
11
7.0055
21
-6.05767
0
LINE
8
BLACK
6
CONTINUOUS
10
7.0055
20
-6.05767
11
7.01475
21
-6.04842
0
LINE
8
BLACK
6
CONTINUOUS
10
7.01475
20
-6.04842
11
7.02563
21
-6.04115
0
LINE
8
BLACK
6
CONTINUOUS
10
7.02563
20
-6.04115
11
7.03772
21
-6.03614
0
LINE
8
BLACK
6
CONTINUOUS
10
7.03772
20
-6.03614
11
7.05055
21
-6.03359
0
LINE
8
BLACK
6
CONTINUOUS
10
7.05055
20
-6.03359
11
7.06363
21
-6.03359
0
LINE
8
BLACK
6
CONTINUOUS
10
7.06363
20
-6.03359
11
7.07646
21
-6.03614
0
LINE
8
BLACK
6
CONTINUOUS
10
7.07646
20
-6.03614
11
7.08854
21
-6.04115
0
LINE
8
BLACK
6
CONTINUOUS
10
7.08854
20
-6.04115
11
7.09942
21
-6.04842
0
LINE
8
BLACK
6
CONTINUOUS
10
7.09942
20
-6.04842
11
7.10867
21
-6.05767
0
LINE
8
BLACK
6
CONTINUOUS
10
7.10867
20
-6.05767
11
7.11594
21
-6.06854
0
LINE
8
BLACK
6
CONTINUOUS
10
7.11594
20
-6.06854
11
7.12095
21
-6.08063
0
LINE
8
BLACK
6
CONTINUOUS
10
7.12095
20
-6.08063
11
7.1235
21
-6.09346
0
LINE
8
BLACK
6
CONTINUOUS
10
7.1235
20
-6.09346
11
7.1235
21
-6.10654
0
LINE
8
BLACK
6
CONTINUOUS
10
7.1235
20
-6.10654
11
7.12095
21
-6.11937
0
LINE
8
BLACK
6
CONTINUOUS
10
7.12095
20
-6.11937
11
7.11594
21
-6.13146
0
LINE
8
BLACK
6
CONTINUOUS
10
7.11594
20
-6.13146
11
7.10867
21
-6.14233
0
LINE
8
BLACK
6
CONTINUOUS
10
7.10867
20
-6.14233
11
7.09942
21
-6.15158
0
LINE
8
BLACK
6
CONTINUOUS
10
7.09942
20
-6.15158
11
7.08854
21
-6.15885
0
LINE
8
BLACK
6
CONTINUOUS
10
7.08854
20
-6.15885
11
7.07646
21
-6.16386
0
LINE
8
BLACK
6
CONTINUOUS
10
7.07646
20
-6.16386
11
7.06363
21
-6.16641
0
LINE
8
BLACK
6
CONTINUOUS
10
7.06363
20
-6.16641
11
7.05055
21
-6.16641
0
LINE
8
BLACK
6
CONTINUOUS
10
7.05055
20
-6.16641
11
7.03772
21
-6.16386
0
LINE
8
BLACK
6
CONTINUOUS
10
7.03772
20
-6.16386
11
7.02563
21
-6.15885
0
LINE
8
BLACK
6
CONTINUOUS
10
7.02563
20
-6.15885
11
7.01475
21
-6.15158
0
LINE
8
BLACK
6
CONTINUOUS
10
7.01475
20
-6.15158
11
7.0055
21
-6.14233
0
LINE
8
BLACK
6
CONTINUOUS
10
7.0055
20
-6.14233
11
6.99823
21
-6.13146
0
LINE
8
BLACK
6
CONTINUOUS
10
6.99823
20
-6.13146
11
6.99323
21
-6.11937
0
LINE
8
BLACK
6
CONTINUOUS
10
6.99323
20
-6.11937
11
6.99068
21
-6.10654
0
LINE
8
BLACK
6
CONTINUOUS
10
6.99068
20
-6.10654
11
6.99068
21
-6.09346
0
LINE
8
BLACK
6
CONTINUOUS
10
6.99068
20
-6.09346
11
6.99323
21
-6.08063
0
LINE
8
BLACK
6
CONTINUOUS
10
6.99963
20
-6.11743
11
7.00414
21
-6.1283
0
LINE
8
BLACK
6
CONTINUOUS
10
7.00414
20
-6.1283
11
7.01068
21
-6.13809
0
LINE
8
BLACK
6
CONTINUOUS
10
7.01068
20
-6.13809
11
7.019
21
-6.14641
0
LINE
8
BLACK
6
CONTINUOUS
10
7.019
20
-6.14641
11
7.02878
21
-6.15295
0
LINE
8
BLACK
6
CONTINUOUS
10
7.02878
20
-6.15295
11
7.03966
21
-6.15745
0
LINE
8
BLACK
6
CONTINUOUS
10
7.03966
20
-6.15745
11
7.0512
21
-6.15975
0
LINE
8
BLACK
6
CONTINUOUS
10
7.0512
20
-6.15975
11
7.06297
21
-6.15975
0
LINE
8
BLACK
6
CONTINUOUS
10
7.06297
20
-6.15975
11
7.07452
21
-6.15745
0
LINE
8
BLACK
6
CONTINUOUS
10
7.07452
20
-6.15745
11
7.08539
21
-6.15295
0
LINE
8
BLACK
6
CONTINUOUS
10
7.08539
20
-6.15295
11
7.09518
21
-6.14641
0
LINE
8
BLACK
6
CONTINUOUS
10
7.09518
20
-6.14641
11
7.1035
21
-6.13809
0
LINE
8
BLACK
6
CONTINUOUS
10
7.1035
20
-6.13809
11
7.11004
21
-6.1283
0
LINE
8
BLACK
6
CONTINUOUS
10
7.11004
20
-6.1283
11
7.11454
21
-6.11743
0
LINE
8
BLACK
6
CONTINUOUS
10
7.11454
20
-6.11743
11
7.11684
21
-6.10588
0
LINE
8
BLACK
6
CONTINUOUS
10
7.11684
20
-6.10588
11
7.11684
21
-6.09412
0
LINE
8
BLACK
6
CONTINUOUS
10
7.11684
20
-6.09412
11
7.11454
21
-6.08257
0
LINE
8
BLACK
6
CONTINUOUS
10
7.11454
20
-6.08257
11
7.11004
21
-6.0717
0
LINE
8
BLACK
6
CONTINUOUS
10
7.11004
20
-6.0717
11
7.1035
21
-6.06191
0
LINE
8
BLACK
6
CONTINUOUS
10
7.1035
20
-6.06191
11
7.09518
21
-6.05359
0
LINE
8
BLACK
6
CONTINUOUS
10
7.09518
20
-6.05359
11
7.08539
21
-6.04705
0
LINE
8
BLACK
6
CONTINUOUS
10
7.08539
20
-6.04705
11
7.07452
21
-6.04255
0
LINE
8
BLACK
6
CONTINUOUS
10
7.07452
20
-6.04255
11
7.06297
21
-6.04025
0
LINE
8
BLACK
6
CONTINUOUS
10
7.06297
20
-6.04025
11
7.0512
21
-6.04025
0
LINE
8
BLACK
6
CONTINUOUS
10
7.0512
20
-6.04025
11
7.03966
21
-6.04255
0
LINE
8
BLACK
6
CONTINUOUS
10
7.03966
20
-6.04255
11
7.02878
21
-6.04705
0
LINE
8
BLACK
6
CONTINUOUS
10
7.02878
20
-6.04705
11
7.019
21
-6.05359
0
LINE
8
BLACK
6
CONTINUOUS
10
7.019
20
-6.05359
11
7.01068
21
-6.06191
0
LINE
8
BLACK
6
CONTINUOUS
10
7.01068
20
-6.06191
11
7.00414
21
-6.0717
0
LINE
8
BLACK
6
CONTINUOUS
10
7.00414
20
-6.0717
11
6.99963
21
-6.08257
0
LINE
8
BLACK
6
CONTINUOUS
10
6.99963
20
-6.08257
11
6.99734
21
-6.09412
0
LINE
8
BLACK
6
CONTINUOUS
10
6.99734
20
-6.09412
11
6.99734
21
-6.10588
0
LINE
8
BLACK
6
CONTINUOUS
10
6.99734
20
-6.10588
11
6.99963
21
-6.11743
0
LINE
8
BLACK
6
CONTINUOUS
10
9.67905
20
-6.08063
11
9.68406
21
-6.06854
0
LINE
8
BLACK
6
CONTINUOUS
10
9.68406
20
-6.06854
11
9.69133
21
-6.05767
0
LINE
8
BLACK
6
CONTINUOUS
10
9.69133
20
-6.05767
11
9.70058
21
-6.04842
0
LINE
8
BLACK
6
CONTINUOUS
10
9.70058
20
-6.04842
11
9.71146
21
-6.04115
0
LINE
8
BLACK
6
CONTINUOUS
10
9.71146
20
-6.04115
11
9.72354
21
-6.03614
0
LINE
8
BLACK
6
CONTINUOUS
10
9.72354
20
-6.03614
11
9.73637
21
-6.03359
0
LINE
8
BLACK
6
CONTINUOUS
10
9.73637
20
-6.03359
11
9.74945
21
-6.03359
0
LINE
8
BLACK
6
CONTINUOUS
10
9.74945
20
-6.03359
11
9.76228
21
-6.03614
0
LINE
8
BLACK
6
CONTINUOUS
10
9.76228
20
-6.03614
11
9.77437
21
-6.04115
0
LINE
8
BLACK
6
CONTINUOUS
10
9.77437
20
-6.04115
11
9.78525
21
-6.04842
0
LINE
8
BLACK
6
CONTINUOUS
10
9.78525
20
-6.04842
11
9.7945
21
-6.05767
0
LINE
8
BLACK
6
CONTINUOUS
10
9.7945
20
-6.05767
11
9.80177
21
-6.06854
0
LINE
8
BLACK
6
CONTINUOUS
10
9.80177
20
-6.06854
11
9.80677
21
-6.08063
0
LINE
8
BLACK
6
CONTINUOUS
10
9.80677
20
-6.08063
11
9.80932
21
-6.09346
0
LINE
8
BLACK
6
CONTINUOUS
10
9.80932
20
-6.09346
11
9.80932
21
-6.10654
0
LINE
8
BLACK
6
CONTINUOUS
10
9.80932
20
-6.10654
11
9.80677
21
-6.11937
0
LINE
8
BLACK
6
CONTINUOUS
10
9.80677
20
-6.11937
11
9.80177
21
-6.13146
0
LINE
8
BLACK
6
CONTINUOUS
10
9.80177
20
-6.13146
11
9.7945
21
-6.14233
0
LINE
8
BLACK
6
CONTINUOUS
10
9.7945
20
-6.14233
11
9.78525
21
-6.15158
0
LINE
8
BLACK
6
CONTINUOUS
10
9.78525
20
-6.15158
11
9.77437
21
-6.15885
0
LINE
8
BLACK
6
CONTINUOUS
10
9.77437
20
-6.15885
11
9.76228
21
-6.16386
0
LINE
8
BLACK
6
CONTINUOUS
10
9.76228
20
-6.16386
11
9.74945
21
-6.16641
0
LINE
8
BLACK
6
CONTINUOUS
10
9.74945
20
-6.16641
11
9.73637
21
-6.16641
0
LINE
8
BLACK
6
CONTINUOUS
10
9.73637
20
-6.16641
11
9.72354
21
-6.16386
0
LINE
8
BLACK
6
CONTINUOUS
10
9.72354
20
-6.16386
11
9.71146
21
-6.15885
0
LINE
8
BLACK
6
CONTINUOUS
10
9.71146
20
-6.15885
11
9.70058
21
-6.15158
0
LINE
8
BLACK
6
CONTINUOUS
10
9.70058
20
-6.15158
11
9.69133
21
-6.14233
0
LINE
8
BLACK
6
CONTINUOUS
10
9.69133
20
-6.14233
11
9.68406
21
-6.13146
0
LINE
8
BLACK
6
CONTINUOUS
10
9.68406
20
-6.13146
11
9.67905
21
-6.11937
0
LINE
8
BLACK
6
CONTINUOUS
10
9.67905
20
-6.11937
11
9.6765
21
-6.10654
0
LINE
8
BLACK
6
CONTINUOUS
10
9.6765
20
-6.10654
11
9.6765
21
-6.09346
0
LINE
8
BLACK
6
CONTINUOUS
10
9.6765
20
-6.09346
11
9.67905
21
-6.08063
0
LINE
8
BLACK
6
CONTINUOUS
10
9.68546
20
-6.11743
11
9.68996
21
-6.1283
0
LINE
8
BLACK
6
CONTINUOUS
10
9.68996
20
-6.1283
11
9.6965
21
-6.13809
0
LINE
8
BLACK
6
CONTINUOUS
10
9.6965
20
-6.13809
11
9.70482
21
-6.14641
0
LINE
8
BLACK
6
CONTINUOUS
10
9.70482
20
-6.14641
11
9.71461
21
-6.15295
0
LINE
8
BLACK
6
CONTINUOUS
10
9.71461
20
-6.15295
11
9.72548
21
-6.15745
0
LINE
8
BLACK
6
CONTINUOUS
10
9.72548
20
-6.15745
11
9.73703
21
-6.15975
0
LINE
8
BLACK
6
CONTINUOUS
10
9.73703
20
-6.15975
11
9.7488
21
-6.15975
0
LINE
8
BLACK
6
CONTINUOUS
10
9.7488
20
-6.15975
11
9.76034
21
-6.15745
0
LINE
8
BLACK
6
CONTINUOUS
10
9.76034
20
-6.15745
11
9.77122
21
-6.15295
0
LINE
8
BLACK
6
CONTINUOUS
10
9.77122
20
-6.15295
11
9.781
21
-6.14641
0
LINE
8
BLACK
6
CONTINUOUS
10
9.781
20
-6.14641
11
9.78932
21
-6.13809
0
LINE
8
BLACK
6
CONTINUOUS
10
9.78932
20
-6.13809
11
9.79586
21
-6.1283
0
LINE
8
BLACK
6
CONTINUOUS
10
9.79586
20
-6.1283
11
9.80037
21
-6.11743
0
LINE
8
BLACK
6
CONTINUOUS
10
9.80037
20
-6.11743
11
9.80266
21
-6.10588
0
LINE
8
BLACK
6
CONTINUOUS
10
9.80266
20
-6.10588
11
9.80266
21
-6.09412
0
LINE
8
BLACK
6
CONTINUOUS
10
9.80266
20
-6.09412
11
9.80037
21
-6.08257
0
LINE
8
BLACK
6
CONTINUOUS
10
9.80037
20
-6.08257
11
9.79586
21
-6.0717
0
LINE
8
BLACK
6
CONTINUOUS
10
9.79586
20
-6.0717
11
9.78932
21
-6.06191
0
LINE
8
BLACK
6
CONTINUOUS
10
9.78932
20
-6.06191
11
9.781
21
-6.05359
0
LINE
8
BLACK
6
CONTINUOUS
10
9.781
20
-6.05359
11
9.77122
21
-6.04705
0
LINE
8
BLACK
6
CONTINUOUS
10
9.77122
20
-6.04705
11
9.76034
21
-6.04255
0
LINE
8
BLACK
6
CONTINUOUS
10
9.76034
20
-6.04255
11
9.7488
21
-6.04025
0
LINE
8
BLACK
6
CONTINUOUS
10
9.7488
20
-6.04025
11
9.73703
21
-6.04025
0
LINE
8
BLACK
6
CONTINUOUS
10
9.73703
20
-6.04025
11
9.72548
21
-6.04255
0
LINE
8
BLACK
6
CONTINUOUS
10
9.72548
20
-6.04255
11
9.71461
21
-6.04705
0
LINE
8
BLACK
6
CONTINUOUS
10
9.71461
20
-6.04705
11
9.70482
21
-6.05359
0
LINE
8
BLACK
6
CONTINUOUS
10
9.70482
20
-6.05359
11
9.6965
21
-6.06191
0
LINE
8
BLACK
6
CONTINUOUS
10
9.6965
20
-6.06191
11
9.68996
21
-6.0717
0
LINE
8
BLACK
6
CONTINUOUS
10
9.68996
20
-6.0717
11
9.68546
21
-6.08257
0
LINE
8
BLACK
6
CONTINUOUS
10
9.68546
20
-6.08257
11
9.68316
21
-6.09412
0
LINE
8
BLACK
6
CONTINUOUS
10
9.68316
20
-6.09412
11
9.68316
21
-6.10588
0
LINE
8
BLACK
6
CONTINUOUS
10
9.68316
20
-6.10588
11
9.68546
21
-6.11743
0
LINE
8
BLACK
6
CONTINUOUS
10
3.80214
20
-6.04112
11
3.80759
21
-6.02796
0
LINE
8
BLACK
6
CONTINUOUS
10
3.80759
20
-6.02796
11
3.8155
21
-6.01612
0
LINE
8
BLACK
6
CONTINUOUS
10
3.8155
20
-6.01612
11
3.82557
21
-6.00605
0
LINE
8
BLACK
6
CONTINUOUS
10
3.82557
20
-6.00605
11
3.83741
21
-5.99814
0
LINE
8
BLACK
6
CONTINUOUS
10
3.83741
20
-5.99814
11
3.85057
21
-5.99269
0
LINE
8
BLACK
6
CONTINUOUS
10
3.85057
20
-5.99269
11
3.86453
21
-5.98992
0
LINE
8
BLACK
6
CONTINUOUS
10
3.86453
20
-5.98992
11
3.87877
21
-5.98992
0
LINE
8
BLACK
6
CONTINUOUS
10
3.87877
20
-5.98992
11
3.89274
21
-5.99269
0
LINE
8
BLACK
6
CONTINUOUS
10
3.89274
20
-5.99269
11
3.90589
21
-5.99814
0
LINE
8
BLACK
6
CONTINUOUS
10
3.90589
20
-5.99814
11
3.91773
21
-6.00605
0
LINE
8
BLACK
6
CONTINUOUS
10
3.91773
20
-6.00605
11
3.9278
21
-6.01612
0
LINE
8
BLACK
6
CONTINUOUS
10
3.9278
20
-6.01612
11
3.93571
21
-6.02796
0
LINE
8
BLACK
6
CONTINUOUS
10
3.93571
20
-6.02796
11
3.94116
21
-6.04112
0
LINE
8
BLACK
6
CONTINUOUS
10
3.94116
20
-6.04112
11
3.94394
21
-6.05508
0
LINE
8
BLACK
6
CONTINUOUS
10
3.94394
20
-6.05508
11
3.94394
21
-6.06932
0
LINE
8
BLACK
6
CONTINUOUS
10
3.94394
20
-6.06932
11
3.94116
21
-6.08329
0
LINE
8
BLACK
6
CONTINUOUS
10
3.94116
20
-6.08329
11
3.93571
21
-6.09645
0
LINE
8
BLACK
6
CONTINUOUS
10
3.93571
20
-6.09645
11
3.9278
21
-6.10829
0
LINE
8
BLACK
6
CONTINUOUS
10
3.9278
20
-6.10829
11
3.91773
21
-6.11835
0
LINE
8
BLACK
6
CONTINUOUS
10
3.91773
20
-6.11835
11
3.90589
21
-6.12627
0
LINE
8
BLACK
6
CONTINUOUS
10
3.90589
20
-6.12627
11
3.89274
21
-6.13171
0
LINE
8
BLACK
6
CONTINUOUS
10
3.89274
20
-6.13171
11
3.87877
21
-6.13449
0
LINE
8
BLACK
6
CONTINUOUS
10
3.87877
20
-6.13449
11
3.86453
21
-6.13449
0
LINE
8
BLACK
6
CONTINUOUS
10
3.86453
20
-6.13449
11
3.85057
21
-6.13171
0
LINE
8
BLACK
6
CONTINUOUS
10
3.85057
20
-6.13171
11
3.83741
21
-6.12627
0
LINE
8
BLACK
6
CONTINUOUS
10
3.83741
20
-6.12627
11
3.82557
21
-6.11835
0
LINE
8
BLACK
6
CONTINUOUS
10
3.82557
20
-6.11835
11
3.8155
21
-6.10829
0
LINE
8
BLACK
6
CONTINUOUS
10
3.8155
20
-6.10829
11
3.80759
21
-6.09645
0
LINE
8
BLACK
6
CONTINUOUS
10
3.80759
20
-6.09645
11
3.80214
21
-6.08329
0
LINE
8
BLACK
6
CONTINUOUS
10
3.80214
20
-6.08329
11
3.79937
21
-6.06932
0
LINE
8
BLACK
6
CONTINUOUS
10
3.79937
20
-6.06932
11
3.79937
21
-6.05508
0
LINE
8
BLACK
6
CONTINUOUS
10
3.79937
20
-6.05508
11
3.80214
21
-6.04112
0
LINE
8
BLACK
6
CONTINUOUS
10
3.80855
20
-6.08135
11
3.8135
21
-6.09329
0
LINE
8
BLACK
6
CONTINUOUS
10
3.8135
20
-6.09329
11
3.82068
21
-6.10404
0
LINE
8
BLACK
6
CONTINUOUS
10
3.82068
20
-6.10404
11
3.82982
21
-6.11318
0
LINE
8
BLACK
6
CONTINUOUS
10
3.82982
20
-6.11318
11
3.84057
21
-6.12036
0
LINE
8
BLACK
6
CONTINUOUS
10
3.84057
20
-6.12036
11
3.85251
21
-6.12531
0
LINE
8
BLACK
6
CONTINUOUS
10
3.85251
20
-6.12531
11
3.86519
21
-6.12783
0
LINE
8
BLACK
6
CONTINUOUS
10
3.86519
20
-6.12783
11
3.87812
21
-6.12783
0
LINE
8
BLACK
6
CONTINUOUS
10
3.87812
20
-6.12783
11
3.8908
21
-6.12531
0
LINE
8
BLACK
6
CONTINUOUS
10
3.8908
20
-6.12531
11
3.90274
21
-6.12036
0
LINE
8
BLACK
6
CONTINUOUS
10
3.90274
20
-6.12036
11
3.91349
21
-6.11318
0
LINE
8
BLACK
6
CONTINUOUS
10
3.91349
20
-6.11318
11
3.92263
21
-6.10404
0
LINE
8
BLACK
6
CONTINUOUS
10
3.92263
20
-6.10404
11
3.92981
21
-6.09329
0
LINE
8
BLACK
6
CONTINUOUS
10
3.92981
20
-6.09329
11
3.93476
21
-6.08135
0
LINE
8
BLACK
6
CONTINUOUS
10
3.93476
20
-6.08135
11
3.93728
21
-6.06867
0
LINE
8
BLACK
6
CONTINUOUS
10
3.93728
20
-6.06867
11
3.93728
21
-6.05574
0
LINE
8
BLACK
6
CONTINUOUS
10
3.93728
20
-6.05574
11
3.93476
21
-6.04306
0
LINE
8
BLACK
6
CONTINUOUS
10
3.93476
20
-6.04306
11
3.92981
21
-6.03112
0
LINE
8
BLACK
6
CONTINUOUS
10
3.92981
20
-6.03112
11
3.92263
21
-6.02037
0
LINE
8
BLACK
6
CONTINUOUS
10
3.92263
20
-6.02037
11
3.91349
21
-6.01123
0
LINE
8
BLACK
6
CONTINUOUS
10
3.91349
20
-6.01123
11
3.90274
21
-6.00405
0
LINE
8
BLACK
6
CONTINUOUS
10
3.90274
20
-6.00405
11
3.8908
21
-5.9991
0
LINE
8
BLACK
6
CONTINUOUS
10
3.8908
20
-5.9991
11
3.87812
21
-5.99658
0
LINE
8
BLACK
6
CONTINUOUS
10
3.87812
20
-5.99658
11
3.86519
21
-5.99658
0
LINE
8
BLACK
6
CONTINUOUS
10
3.86519
20
-5.99658
11
3.85251
21
-5.9991
0
LINE
8
BLACK
6
CONTINUOUS
10
3.85251
20
-5.9991
11
3.84057
21
-6.00405
0
LINE
8
BLACK
6
CONTINUOUS
10
3.84057
20
-6.00405
11
3.82982
21
-6.01123
0
LINE
8
BLACK
6
CONTINUOUS
10
3.82982
20
-6.01123
11
3.82068
21
-6.02037
0
LINE
8
BLACK
6
CONTINUOUS
10
3.82068
20
-6.02037
11
3.8135
21
-6.03112
0
LINE
8
BLACK
6
CONTINUOUS
10
3.8135
20
-6.03112
11
3.80855
21
-6.04306
0
LINE
8
BLACK
6
CONTINUOUS
10
3.80855
20
-6.04306
11
3.80603
21
-6.05574
0
LINE
8
BLACK
6
CONTINUOUS
10
3.80603
20
-6.05574
11
3.80603
21
-6.06867
0
LINE
8
BLACK
6
CONTINUOUS
10
3.80603
20
-6.06867
11
3.80855
21
-6.08135
0
LINE
8
BLACK
6
CONTINUOUS
10
2.0423
20
-6.04112
11
2.04775
21
-6.02796
0
LINE
8
BLACK
6
CONTINUOUS
10
2.04775
20
-6.02796
11
2.05566
21
-6.01612
0
LINE
8
BLACK
6
CONTINUOUS
10
2.05566
20
-6.01612
11
2.06573
21
-6.00605
0
LINE
8
BLACK
6
CONTINUOUS
10
2.06573
20
-6.00605
11
2.07757
21
-5.99814
0
LINE
8
BLACK
6
CONTINUOUS
10
2.07757
20
-5.99814
11
2.09073
21
-5.99269
0
LINE
8
BLACK
6
CONTINUOUS
10
2.09073
20
-5.99269
11
2.10469
21
-5.98992
0
LINE
8
BLACK
6
CONTINUOUS
10
2.10469
20
-5.98992
11
2.11893
21
-5.98992
0
LINE
8
BLACK
6
CONTINUOUS
10
2.11893
20
-5.98992
11
2.1329
21
-5.99269
0
LINE
8
BLACK
6
CONTINUOUS
10
2.1329
20
-5.99269
11
2.14605
21
-5.99814
0
LINE
8
BLACK
6
CONTINUOUS
10
2.14605
20
-5.99814
11
2.15789
21
-6.00605
0
LINE
8
BLACK
6
CONTINUOUS
10
2.15789
20
-6.00605
11
2.16796
21
-6.01612
0
LINE
8
BLACK
6
CONTINUOUS
10
2.16796
20
-6.01612
11
2.17587
21
-6.02796
0
LINE
8
BLACK
6
CONTINUOUS
10
2.17587
20
-6.02796
11
2.18132
21
-6.04112
0
LINE
8
BLACK
6
CONTINUOUS
10
2.18132
20
-6.04112
11
2.1841
21
-6.05508
0
LINE
8
BLACK
6
CONTINUOUS
10
2.1841
20
-6.05508
11
2.1841
21
-6.06932
0
LINE
8
BLACK
6
CONTINUOUS
10
2.1841
20
-6.06932
11
2.18132
21
-6.08329
0
LINE
8
BLACK
6
CONTINUOUS
10
2.18132
20
-6.08329
11
2.17587
21
-6.09645
0
LINE
8
BLACK
6
CONTINUOUS
10
2.17587
20
-6.09645
11
2.16796
21
-6.10829
0
LINE
8
BLACK
6
CONTINUOUS
10
2.16796
20
-6.10829
11
2.15789
21
-6.11835
0
LINE
8
BLACK
6
CONTINUOUS
10
2.15789
20
-6.11835
11
2.14605
21
-6.12627
0
LINE
8
BLACK
6
CONTINUOUS
10
2.14605
20
-6.12627
11
2.1329
21
-6.13171
0
LINE
8
BLACK
6
CONTINUOUS
10
2.1329
20
-6.13171
11
2.11893
21
-6.13449
0
LINE
8
BLACK
6
CONTINUOUS
10
2.11893
20
-6.13449
11
2.10469
21
-6.13449
0
LINE
8
BLACK
6
CONTINUOUS
10
2.10469
20
-6.13449
11
2.09073
21
-6.13171
0
LINE
8
BLACK
6
CONTINUOUS
10
2.09073
20
-6.13171
11
2.07757
21
-6.12627
0
LINE
8
BLACK
6
CONTINUOUS
10
2.07757
20
-6.12627
11
2.06573
21
-6.11835
0
LINE
8
BLACK
6
CONTINUOUS
10
2.06573
20
-6.11835
11
2.05566
21
-6.10829
0
LINE
8
BLACK
6
CONTINUOUS
10
2.05566
20
-6.10829
11
2.04775
21
-6.09645
0
LINE
8
BLACK
6
CONTINUOUS
10
2.04775
20
-6.09645
11
2.0423
21
-6.08329
0
LINE
8
BLACK
6
CONTINUOUS
10
2.0423
20
-6.08329
11
2.03952
21
-6.06932
0
LINE
8
BLACK
6
CONTINUOUS
10
2.03952
20
-6.06932
11
2.03952
21
-6.05508
0
LINE
8
BLACK
6
CONTINUOUS
10
2.03952
20
-6.05508
11
2.0423
21
-6.04112
0
LINE
8
BLACK
6
CONTINUOUS
10
2.04871
20
-6.08135
11
2.05365
21
-6.09329
0
LINE
8
BLACK
6
CONTINUOUS
10
2.05365
20
-6.09329
11
2.06083
21
-6.10404
0
LINE
8
BLACK
6
CONTINUOUS
10
2.06083
20
-6.10404
11
2.06998
21
-6.11318
0
LINE
8
BLACK
6
CONTINUOUS
10
2.06998
20
-6.11318
11
2.08072
21
-6.12036
0
LINE
8
BLACK
6
CONTINUOUS
10
2.08072
20
-6.12036
11
2.09267
21
-6.12531
0
LINE
8
BLACK
6
CONTINUOUS
10
2.09267
20
-6.12531
11
2.10535
21
-6.12783
0
LINE
8
BLACK
6
CONTINUOUS
10
2.10535
20
-6.12783
11
2.11827
21
-6.12783
0
LINE
8
BLACK
6
CONTINUOUS
10
2.11827
20
-6.12783
11
2.13095
21
-6.12531
0
LINE
8
BLACK
6
CONTINUOUS
10
2.13095
20
-6.12531
11
2.1429
21
-6.12036
0
LINE
8
BLACK
6
CONTINUOUS
10
2.1429
20
-6.12036
11
2.15365
21
-6.11318
0
LINE
8
BLACK
6
CONTINUOUS
10
2.15365
20
-6.11318
11
2.16279
21
-6.10404
0
LINE
8
BLACK
6
CONTINUOUS
10
2.16279
20
-6.10404
11
2.16997
21
-6.09329
0
LINE
8
BLACK
6
CONTINUOUS
10
2.16997
20
-6.09329
11
2.17492
21
-6.08135
0
LINE
8
BLACK
6
CONTINUOUS
10
2.17492
20
-6.08135
11
2.17744
21
-6.06867
0
LINE
8
BLACK
6
CONTINUOUS
10
2.17744
20
-6.06867
11
2.17744
21
-6.05574
0
LINE
8
BLACK
6
CONTINUOUS
10
2.17744
20
-6.05574
11
2.17492
21
-6.04306
0
LINE
8
BLACK
6
CONTINUOUS
10
2.17492
20
-6.04306
11
2.16997
21
-6.03112
0
LINE
8
BLACK
6
CONTINUOUS
10
2.16997
20
-6.03112
11
2.16279
21
-6.02037
0
LINE
8
BLACK
6
CONTINUOUS
10
2.16279
20
-6.02037
11
2.15365
21
-6.01123
0
LINE
8
BLACK
6
CONTINUOUS
10
2.15365
20
-6.01123
11
2.1429
21
-6.00405
0
LINE
8
BLACK
6
CONTINUOUS
10
2.1429
20
-6.00405
11
2.13095
21
-5.9991
0
LINE
8
BLACK
6
CONTINUOUS
10
2.13095
20
-5.9991
11
2.11827
21
-5.99658
0
LINE
8
BLACK
6
CONTINUOUS
10
2.11827
20
-5.99658
11
2.10535
21
-5.99658
0
LINE
8
BLACK
6
CONTINUOUS
10
2.10535
20
-5.99658
11
2.09267
21
-5.9991
0
LINE
8
BLACK
6
CONTINUOUS
10
2.09267
20
-5.9991
11
2.08072
21
-6.00405
0
LINE
8
BLACK
6
CONTINUOUS
10
2.08072
20
-6.00405
11
2.06998
21
-6.01123
0
LINE
8
BLACK
6
CONTINUOUS
10
2.06998
20
-6.01123
11
2.06083
21
-6.02037
0
LINE
8
BLACK
6
CONTINUOUS
10
2.06083
20
-6.02037
11
2.05365
21
-6.03112
0
LINE
8
BLACK
6
CONTINUOUS
10
2.05365
20
-6.03112
11
2.04871
21
-6.04306
0
LINE
8
BLACK
6
CONTINUOUS
10
2.04871
20
-6.04306
11
2.04618
21
-6.05574
0
LINE
8
BLACK
6
CONTINUOUS
10
2.04618
20
-6.05574
11
2.04618
21
-6.06867
0
LINE
8
BLACK
6
CONTINUOUS
10
2.04618
20
-6.06867
11
2.04871
21
-6.08135
0
LINE
8
BLACK
6
CONTINUOUS
10
20.6711
20
-2.47606
11
20.6773
21
-2.46112
0
LINE
8
BLACK
6
CONTINUOUS
10
20.6773
20
-2.46112
11
20.6862
21
-2.44768
0
LINE
8
BLACK
6
CONTINUOUS
10
20.6862
20
-2.44768
11
20.6977
21
-2.43624
0
LINE
8
BLACK
6
CONTINUOUS
10
20.6977
20
-2.43624
11
20.7111
21
-2.42726
0
LINE
8
BLACK
6
CONTINUOUS
10
20.7111
20
-2.42726
11
20.7261
21
-2.42107
0
LINE
8
BLACK
6
CONTINUOUS
10
20.7261
20
-2.42107
11
20.7419
21
-2.41792
0
LINE
8
BLACK
6
CONTINUOUS
10
20.7419
20
-2.41792
11
20.7581
21
-2.41792
0
LINE
8
BLACK
6
CONTINUOUS
10
20.7581
20
-2.41792
11
20.7739
21
-2.42107
0
LINE
8
BLACK
6
CONTINUOUS
10
20.7739
20
-2.42107
11
20.7889
21
-2.42726
0
LINE
8
BLACK
6
CONTINUOUS
10
20.7889
20
-2.42726
11
20.8023
21
-2.43624
0
LINE
8
BLACK
6
CONTINUOUS
10
20.8023
20
-2.43624
11
20.8138
21
-2.44768
0
LINE
8
BLACK
6
CONTINUOUS
10
20.8138
20
-2.44768
11
20.8227
21
-2.46112
0
LINE
8
BLACK
6
CONTINUOUS
10
20.8227
20
-2.46112
11
20.8289
21
-2.47606
0
LINE
8
BLACK
6
CONTINUOUS
10
20.8289
20
-2.47606
11
20.8321
21
-2.49192
0
LINE
8
BLACK
6
CONTINUOUS
10
20.8321
20
-2.49192
11
20.8321
21
-2.50808
0
LINE
8
BLACK
6
CONTINUOUS
10
20.8321
20
-2.50808
11
20.8289
21
-2.52394
0
LINE
8
BLACK
6
CONTINUOUS
10
20.8289
20
-2.52394
11
20.8227
21
-2.53888
0
LINE
8
BLACK
6
CONTINUOUS
10
20.8227
20
-2.53888
11
20.8138
21
-2.55232
0
LINE
8
BLACK
6
CONTINUOUS
10
20.8138
20
-2.55232
11
20.8023
21
-2.56376
0
LINE
8
BLACK
6
CONTINUOUS
10
20.8023
20
-2.56376
11
20.7889
21
-2.57274
0
LINE
8
BLACK
6
CONTINUOUS
10
20.7889
20
-2.57274
11
20.7739
21
-2.57893
0
LINE
8
BLACK
6
CONTINUOUS
10
20.7739
20
-2.57893
11
20.7581
21
-2.58208
0
LINE
8
BLACK
6
CONTINUOUS
10
20.7581
20
-2.58208
11
20.7419
21
-2.58208
0
LINE
8
BLACK
6
CONTINUOUS
10
20.7419
20
-2.58208
11
20.7261
21
-2.57893
0
LINE
8
BLACK
6
CONTINUOUS
10
20.7261
20
-2.57893
11
20.7111
21
-2.57274
0
LINE
8
BLACK
6
CONTINUOUS
10
20.7111
20
-2.57274
11
20.6977
21
-2.56376
0
LINE
8
BLACK
6
CONTINUOUS
10
20.6977
20
-2.56376
11
20.6862
21
-2.55232
0
LINE
8
BLACK
6
CONTINUOUS
10
20.6862
20
-2.55232
11
20.6773
21
-2.53888
0
LINE
8
BLACK
6
CONTINUOUS
10
20.6773
20
-2.53888
11
20.6711
21
-2.52394
0
LINE
8
BLACK
6
CONTINUOUS
10
20.6711
20
-2.52394
11
20.6679
21
-2.50808
0
LINE
8
BLACK
6
CONTINUOUS
10
20.6679
20
-2.50808
11
20.6679
21
-2.49192
0
LINE
8
BLACK
6
CONTINUOUS
10
20.6679
20
-2.49192
11
20.6711
21
-2.47606
0
LINE
8
BLACK
6
CONTINUOUS
10
20.6775
20
-2.522
11
20.6832
21
-2.53573
0
LINE
8
BLACK
6
CONTINUOUS
10
20.6832
20
-2.53573
11
20.6914
21
-2.54808
0
LINE
8
BLACK
6
CONTINUOUS
10
20.6914
20
-2.54808
11
20.7019
21
-2.55858
0
LINE
8
BLACK
6
CONTINUOUS
10
20.7019
20
-2.55858
11
20.7143
21
-2.56684
0
LINE
8
BLACK
6
CONTINUOUS
10
20.7143
20
-2.56684
11
20.728
21
-2.57252
0
LINE
8
BLACK
6
CONTINUOUS
10
20.728
20
-2.57252
11
20.7426
21
-2.57542
0
LINE
8
BLACK
6
CONTINUOUS
10
20.7426
20
-2.57542
11
20.7574
21
-2.57542
0
LINE
8
BLACK
6
CONTINUOUS
10
20.7574
20
-2.57542
11
20.772
21
-2.57252
0
LINE
8
BLACK
6
CONTINUOUS
10
20.772
20
-2.57252
11
20.7857
21
-2.56684
0
LINE
8
BLACK
6
CONTINUOUS
10
20.7857
20
-2.56684
11
20.7981
21
-2.55858
0
LINE
8
BLACK
6
CONTINUOUS
10
20.7981
20
-2.55858
11
20.8086
21
-2.54808
0
LINE
8
BLACK
6
CONTINUOUS
10
20.8086
20
-2.54808
11
20.8168
21
-2.53573
0
LINE
8
BLACK
6
CONTINUOUS
10
20.8168
20
-2.53573
11
20.8225
21
-2.522
0
LINE
8
BLACK
6
CONTINUOUS
10
20.8225
20
-2.522
11
20.8254
21
-2.50743
0
LINE
8
BLACK
6
CONTINUOUS
10
20.8254
20
-2.50743
11
20.8254
21
-2.49257
0
LINE
8
BLACK
6
CONTINUOUS
10
20.8254
20
-2.49257
11
20.8225
21
-2.478
0
LINE
8
BLACK
6
CONTINUOUS
10
20.8225
20
-2.478
11
20.8168
21
-2.46427
0
LINE
8
BLACK
6
CONTINUOUS
10
20.8168
20
-2.46427
11
20.8086
21
-2.45192
0
LINE
8
BLACK
6
CONTINUOUS
10
20.8086
20
-2.45192
11
20.7981
21
-2.44142
0
LINE
8
BLACK
6
CONTINUOUS
10
20.7981
20
-2.44142
11
20.7857
21
-2.43316
0
LINE
8
BLACK
6
CONTINUOUS
10
20.7857
20
-2.43316
11
20.772
21
-2.42748
0
LINE
8
BLACK
6
CONTINUOUS
10
20.772
20
-2.42748
11
20.7574
21
-2.42458
0
LINE
8
BLACK
6
CONTINUOUS
10
20.7574
20
-2.42458
11
20.7426
21
-2.42458
0
LINE
8
BLACK
6
CONTINUOUS
10
20.7426
20
-2.42458
11
20.728
21
-2.42748
0
LINE
8
BLACK
6
CONTINUOUS
10
20.728
20
-2.42748
11
20.7143
21
-2.43316
0
LINE
8
BLACK
6
CONTINUOUS
10
20.7143
20
-2.43316
11
20.7019
21
-2.44142
0
LINE
8
BLACK
6
CONTINUOUS
10
20.7019
20
-2.44142
11
20.6914
21
-2.45192
0
LINE
8
BLACK
6
CONTINUOUS
10
20.6914
20
-2.45192
11
20.6832
21
-2.46427
0
LINE
8
BLACK
6
CONTINUOUS
10
20.6832
20
-2.46427
11
20.6775
21
-2.478
0
LINE
8
BLACK
6
CONTINUOUS
10
20.6775
20
-2.478
11
20.6746
21
-2.49257
0
LINE
8
BLACK
6
CONTINUOUS
10
20.6746
20
-2.49257
11
20.6746
21
-2.50743
0
LINE
8
BLACK
6
CONTINUOUS
10
20.6746
20
-2.50743
11
20.6775
21
-2.522
0
LINE
8
BLACK
6
CONTINUOUS
10
1.17107
20
-2.47606
11
1.17726
21
-2.46112
0
LINE
8
BLACK
6
CONTINUOUS
10
1.17726
20
-2.46112
11
1.18624
21
-2.44768
0
LINE
8
BLACK
6
CONTINUOUS
10
1.18624
20
-2.44768
11
1.19768
21
-2.43624
0
LINE
8
BLACK
6
CONTINUOUS
10
1.19768
20
-2.43624
11
1.21112
21
-2.42726
0
LINE
8
BLACK
6
CONTINUOUS
10
1.21112
20
-2.42726
11
1.22606
21
-2.42107
0
LINE
8
BLACK
6
CONTINUOUS
10
1.22606
20
-2.42107
11
1.24192
21
-2.41792
0
LINE
8
BLACK
6
CONTINUOUS
10
1.24192
20
-2.41792
11
1.25808
21
-2.41792
0
LINE
8
BLACK
6
CONTINUOUS
10
1.25808
20
-2.41792
11
1.27394
21
-2.42107
0
LINE
8
BLACK
6
CONTINUOUS
10
1.27394
20
-2.42107
11
1.28888
21
-2.42726
0
LINE
8
BLACK
6
CONTINUOUS
10
1.28888
20
-2.42726
11
1.30232
21
-2.43624
0
LINE
8
BLACK
6
CONTINUOUS
10
1.30232
20
-2.43624
11
1.31376
21
-2.44768
0
LINE
8
BLACK
6
CONTINUOUS
10
1.31376
20
-2.44768
11
1.32274
21
-2.46112
0
LINE
8
BLACK
6
CONTINUOUS
10
1.32274
20
-2.46112
11
1.32893
21
-2.47606
0
LINE
8
BLACK
6
CONTINUOUS
10
1.32893
20
-2.47606
11
1.33208
21
-2.49192
0
LINE
8
BLACK
6
CONTINUOUS
10
1.33208
20
-2.49192
11
1.33208
21
-2.50808
0
LINE
8
BLACK
6
CONTINUOUS
10
1.33208
20
-2.50808
11
1.32893
21
-2.52394
0
LINE
8
BLACK
6
CONTINUOUS
10
1.32893
20
-2.52394
11
1.32274
21
-2.53888
0
LINE
8
BLACK
6
CONTINUOUS
10
1.32274
20
-2.53888
11
1.31376
21
-2.55232
0
LINE
8
BLACK
6
CONTINUOUS
10
1.31376
20
-2.55232
11
1.30232
21
-2.56376
0
LINE
8
BLACK
6
CONTINUOUS
10
1.30232
20
-2.56376
11
1.28888
21
-2.57274
0
LINE
8
BLACK
6
CONTINUOUS
10
1.28888
20
-2.57274
11
1.27394
21
-2.57893
0
LINE
8
BLACK
6
CONTINUOUS
10
1.27394
20
-2.57893
11
1.25808
21
-2.58208
0
LINE
8
BLACK
6
CONTINUOUS
10
1.25808
20
-2.58208
11
1.24192
21
-2.58208
0
LINE
8
BLACK
6
CONTINUOUS
10
1.24192
20
-2.58208
11
1.22606
21
-2.57893
0
LINE
8
BLACK
6
CONTINUOUS
10
1.22606
20
-2.57893
11
1.21112
21
-2.57274
0
LINE
8
BLACK
6
CONTINUOUS
10
1.21112
20
-2.57274
11
1.19768
21
-2.56376
0
LINE
8
BLACK
6
CONTINUOUS
10
1.19768
20
-2.56376
11
1.18624
21
-2.55232
0
LINE
8
BLACK
6
CONTINUOUS
10
1.18624
20
-2.55232
11
1.17726
21
-2.53888
0
LINE
8
BLACK
6
CONTINUOUS
10
1.17726
20
-2.53888
11
1.17107
21
-2.52394
0
LINE
8
BLACK
6
CONTINUOUS
10
1.17107
20
-2.52394
11
1.16792
21
-2.50808
0
LINE
8
BLACK
6
CONTINUOUS
10
1.16792
20
-2.50808
11
1.16792
21
-2.49192
0
LINE
8
BLACK
6
CONTINUOUS
10
1.16792
20
-2.49192
11
1.17107
21
-2.47606
0
LINE
8
BLACK
6
CONTINUOUS
10
1.17748
20
-2.522
11
1.18316
21
-2.53573
0
LINE
8
BLACK
6
CONTINUOUS
10
1.18316
20
-2.53573
11
1.19142
21
-2.54808
0
LINE
8
BLACK
6
CONTINUOUS
10
1.19142
20
-2.54808
11
1.20192
21
-2.55858
0
LINE
8
BLACK
6
CONTINUOUS
10
1.20192
20
-2.55858
11
1.21427
21
-2.56684
0
LINE
8
BLACK
6
CONTINUOUS
10
1.21427
20
-2.56684
11
1.228
21
-2.57252
0
LINE
8
BLACK
6
CONTINUOUS
10
1.228
20
-2.57252
11
1.24257
21
-2.57542
0
LINE
8
BLACK
6
CONTINUOUS
10
1.24257
20
-2.57542
11
1.25743
21
-2.57542
0
LINE
8
BLACK
6
CONTINUOUS
10
1.25743
20
-2.57542
11
1.272
21
-2.57252
0
LINE
8
BLACK
6
CONTINUOUS
10
1.272
20
-2.57252
11
1.28573
21
-2.56684
0
LINE
8
BLACK
6
CONTINUOUS
10
1.28573
20
-2.56684
11
1.29808
21
-2.55858
0
LINE
8
BLACK
6
CONTINUOUS
10
1.29808
20
-2.55858
11
1.30858
21
-2.54808
0
LINE
8
BLACK
6
CONTINUOUS
10
1.30858
20
-2.54808
11
1.31684
21
-2.53573
0
LINE
8
BLACK
6
CONTINUOUS
10
1.31684
20
-2.53573
11
1.32252
21
-2.522
0
LINE
8
BLACK
6
CONTINUOUS
10
1.32252
20
-2.522
11
1.32542
21
-2.50743
0
LINE
8
BLACK
6
CONTINUOUS
10
1.32542
20
-2.50743
11
1.32542
21
-2.49257
0
LINE
8
BLACK
6
CONTINUOUS
10
1.32542
20
-2.49257
11
1.32252
21
-2.478
0
LINE
8
BLACK
6
CONTINUOUS
10
1.32252
20
-2.478
11
1.31684
21
-2.46427
0
LINE
8
BLACK
6
CONTINUOUS
10
1.31684
20
-2.46427
11
1.30858
21
-2.45192
0
LINE
8
BLACK
6
CONTINUOUS
10
1.30858
20
-2.45192
11
1.29808
21
-2.44142
0
LINE
8
BLACK
6
CONTINUOUS
10
1.29808
20
-2.44142
11
1.28573
21
-2.43316
0
LINE
8
BLACK
6
CONTINUOUS
10
1.28573
20
-2.43316
11
1.272
21
-2.42748
0
LINE
8
BLACK
6
CONTINUOUS
10
1.272
20
-2.42748
11
1.25743
21
-2.42458
0
LINE
8
BLACK
6
CONTINUOUS
10
1.25743
20
-2.42458
11
1.24257
21
-2.42458
0
LINE
8
BLACK
6
CONTINUOUS
10
1.24257
20
-2.42458
11
1.228
21
-2.42748
0
LINE
8
BLACK
6
CONTINUOUS
10
1.228
20
-2.42748
11
1.21427
21
-2.43316
0
LINE
8
BLACK
6
CONTINUOUS
10
1.21427
20
-2.43316
11
1.20192
21
-2.44142
0
LINE
8
BLACK
6
CONTINUOUS
10
1.20192
20
-2.44142
11
1.19142
21
-2.45192
0
LINE
8
BLACK
6
CONTINUOUS
10
1.19142
20
-2.45192
11
1.18316
21
-2.46427
0
LINE
8
BLACK
6
CONTINUOUS
10
1.18316
20
-2.46427
11
1.17748
21
-2.478
0
LINE
8
BLACK
6
CONTINUOUS
10
1.17748
20
-2.478
11
1.17458
21
-2.49257
0
LINE
8
BLACK
6
CONTINUOUS
10
1.17458
20
-2.49257
11
1.17458
21
-2.50743
0
LINE
8
BLACK
6
CONTINUOUS
10
1.17458
20
-2.50743
11
1.17748
21
-2.522
0
LINE
8
BLACK
6
CONTINUOUS
10
10.4191
20
-2.47606
11
10.4253
21
-2.46112
0
LINE
8
BLACK
6
CONTINUOUS
10
10.4253
20
-2.46112
11
10.4343
21
-2.44768
0
LINE
8
BLACK
6
CONTINUOUS
10
10.4343
20
-2.44768
11
10.4457
21
-2.43624
0
LINE
8
BLACK
6
CONTINUOUS
10
10.4457
20
-2.43624
11
10.4592
21
-2.42726
0
LINE
8
BLACK
6
CONTINUOUS
10
10.4592
20
-2.42726
11
10.4741
21
-2.42107
0
LINE
8
BLACK
6
CONTINUOUS
10
10.4741
20
-2.42107
11
10.4899
21
-2.41792
0
LINE
8
BLACK
6
CONTINUOUS
10
10.4899
20
-2.41792
11
10.5061
21
-2.41792
0
LINE
8
BLACK
6
CONTINUOUS
10
10.5061
20
-2.41792
11
10.522
21
-2.42107
0
LINE
8
BLACK
6
CONTINUOUS
10
10.522
20
-2.42107
11
10.5369
21
-2.42726
0
LINE
8
BLACK
6
CONTINUOUS
10
10.5369
20
-2.42726
11
10.5504
21
-2.43624
0
LINE
8
BLACK
6
CONTINUOUS
10
10.5504
20
-2.43624
11
10.5618
21
-2.44768
0
LINE
8
BLACK
6
CONTINUOUS
10
10.5618
20
-2.44768
11
10.5708
21
-2.46112
0
LINE
8
BLACK
6
CONTINUOUS
10
10.5708
20
-2.46112
11
10.577
21
-2.47606
0
LINE
8
BLACK
6
CONTINUOUS
10
10.577
20
-2.47606
11
10.5801
21
-2.49192
0
LINE
8
BLACK
6
CONTINUOUS
10
10.5801
20
-2.49192
11
10.5801
21
-2.50808
0
LINE
8
BLACK
6
CONTINUOUS
10
10.5801
20
-2.50808
11
10.577
21
-2.52394
0
LINE
8
BLACK
6
CONTINUOUS
10
10.577
20
-2.52394
11
10.5708
21
-2.53888
0
LINE
8
BLACK
6
CONTINUOUS
10
10.5708
20
-2.53888
11
10.5618
21
-2.55232
0
LINE
8
BLACK
6
CONTINUOUS
10
10.5618
20
-2.55232
11
10.5504
21
-2.56376
0
LINE
8
BLACK
6
CONTINUOUS
10
10.5504
20
-2.56376
11
10.5369
21
-2.57274
0
LINE
8
BLACK
6
CONTINUOUS
10
10.5369
20
-2.57274
11
10.522
21
-2.57893
0
LINE
8
BLACK
6
CONTINUOUS
10
10.522
20
-2.57893
11
10.5061
21
-2.58208
0
LINE
8
BLACK
6
CONTINUOUS
10
10.5061
20
-2.58208
11
10.4899
21
-2.58208
0
LINE
8
BLACK
6
CONTINUOUS
10
10.4899
20
-2.58208
11
10.4741
21
-2.57893
0
LINE
8
BLACK
6
CONTINUOUS
10
10.4741
20
-2.57893
11
10.4592
21
-2.57274
0
LINE
8
BLACK
6
CONTINUOUS
10
10.4592
20
-2.57274
11
10.4457
21
-2.56376
0
LINE
8
BLACK
6
CONTINUOUS
10
10.4457
20
-2.56376
11
10.4343
21
-2.55232
0
LINE
8
BLACK
6
CONTINUOUS
10
10.4343
20
-2.55232
11
10.4253
21
-2.53888
0
LINE
8
BLACK
6
CONTINUOUS
10
10.4253
20
-2.53888
11
10.4191
21
-2.52394
0
LINE
8
BLACK
6
CONTINUOUS
10
10.4191
20
-2.52394
11
10.4159
21
-2.50808
0
LINE
8
BLACK
6
CONTINUOUS
10
10.4159
20
-2.50808
11
10.4159
21
-2.49192
0
LINE
8
BLACK
6
CONTINUOUS
10
10.4159
20
-2.49192
11
10.4191
21
-2.47606
0
LINE
8
BLACK
6
CONTINUOUS
10
10.4255
20
-2.522
11
10.4312
21
-2.53573
0
LINE
8
BLACK
6
CONTINUOUS
10
10.4312
20
-2.53573
11
10.4394
21
-2.54808
0
LINE
8
BLACK
6
CONTINUOUS
10
10.4394
20
-2.54808
11
10.45
21
-2.55858
0
LINE
8
BLACK
6
CONTINUOUS
10
10.45
20
-2.55858
11
10.4623
21
-2.56684
0
LINE
8
BLACK
6
CONTINUOUS
10
10.4623
20
-2.56684
11
10.476
21
-2.57252
0
LINE
8
BLACK
6
CONTINUOUS
10
10.476
20
-2.57252
11
10.4906
21
-2.57542
0
LINE
8
BLACK
6
CONTINUOUS
10
10.4906
20
-2.57542
11
10.5055
21
-2.57542
0
LINE
8
BLACK
6
CONTINUOUS
10
10.5055
20
-2.57542
11
10.52
21
-2.57252
0
LINE
8
BLACK
6
CONTINUOUS
10
10.52
20
-2.57252
11
10.5338
21
-2.56684
0
LINE
8
BLACK
6
CONTINUOUS
10
10.5338
20
-2.56684
11
10.5461
21
-2.55858
0
LINE
8
BLACK
6
CONTINUOUS
10
10.5461
20
-2.55858
11
10.5566
21
-2.54808
0
LINE
8
BLACK
6
CONTINUOUS
10
10.5566
20
-2.54808
11
10.5649
21
-2.53573
0
LINE
8
BLACK
6
CONTINUOUS
10
10.5649
20
-2.53573
11
10.5706
21
-2.522
0
LINE
8
BLACK
6
CONTINUOUS
10
10.5706
20
-2.522
11
10.5735
21
-2.50743
0
LINE
8
BLACK
6
CONTINUOUS
10
10.5735
20
-2.50743
11
10.5735
21
-2.49257
0
LINE
8
BLACK
6
CONTINUOUS
10
10.5735
20
-2.49257
11
10.5706
21
-2.478
0
LINE
8
BLACK
6
CONTINUOUS
10
10.5706
20
-2.478
11
10.5649
21
-2.46427
0
LINE
8
BLACK
6
CONTINUOUS
10
10.5649
20
-2.46427
11
10.5566
21
-2.45192
0
LINE
8
BLACK
6
CONTINUOUS
10
10.5566
20
-2.45192
11
10.5461
21
-2.44142
0
LINE
8
BLACK
6
CONTINUOUS
10
10.5461
20
-2.44142
11
10.5338
21
-2.43316
0
LINE
8
BLACK
6
CONTINUOUS
10
10.5338
20
-2.43316
11
10.52
21
-2.42748
0
LINE
8
BLACK
6
CONTINUOUS
10
10.52
20
-2.42748
11
10.5055
21
-2.42458
0
LINE
8
BLACK
6
CONTINUOUS
10
10.5055
20
-2.42458
11
10.4906
21
-2.42458
0
LINE
8
BLACK
6
CONTINUOUS
10
10.4906
20
-2.42458
11
10.476
21
-2.42748
0
LINE
8
BLACK
6
CONTINUOUS
10
10.476
20
-2.42748
11
10.4623
21
-2.43316
0
LINE
8
BLACK
6
CONTINUOUS
10
10.4623
20
-2.43316
11
10.45
21
-2.44142
0
LINE
8
BLACK
6
CONTINUOUS
10
10.45
20
-2.44142
11
10.4394
21
-2.45192
0
LINE
8
BLACK
6
CONTINUOUS
10
10.4394
20
-2.45192
11
10.4312
21
-2.46427
0
LINE
8
BLACK
6
CONTINUOUS
10
10.4312
20
-2.46427
11
10.4255
21
-2.478
0
LINE
8
BLACK
6
CONTINUOUS
10
10.4255
20
-2.478
11
10.4226
21
-2.49257
0
LINE
8
BLACK
6
CONTINUOUS
10
10.4226
20
-2.49257
11
10.4226
21
-2.50743
0
LINE
8
BLACK
6
CONTINUOUS
10
10.4226
20
-2.50743
11
10.4255
21
-2.522
0
LINE
8
BLACK
6
CONTINUOUS
10
11.4191
20
-2.47606
11
11.4253
21
-2.46112
0
LINE
8
BLACK
6
CONTINUOUS
10
11.4253
20
-2.46112
11
11.4343
21
-2.44768
0
LINE
8
BLACK
6
CONTINUOUS
10
11.4343
20
-2.44768
11
11.4457
21
-2.43624
0
LINE
8
BLACK
6
CONTINUOUS
10
11.4457
20
-2.43624
11
11.4592
21
-2.42726
0
LINE
8
BLACK
6
CONTINUOUS
10
11.4592
20
-2.42726
11
11.4741
21
-2.42107
0
LINE
8
BLACK
6
CONTINUOUS
10
11.4741
20
-2.42107
11
11.4899
21
-2.41792
0
LINE
8
BLACK
6
CONTINUOUS
10
11.4899
20
-2.41792
11
11.5061
21
-2.41792
0
LINE
8
BLACK
6
CONTINUOUS
10
11.5061
20
-2.41792
11
11.522
21
-2.42107
0
LINE
8
BLACK
6
CONTINUOUS
10
11.522
20
-2.42107
11
11.5369
21
-2.42726
0
LINE
8
BLACK
6
CONTINUOUS
10
11.5369
20
-2.42726
11
11.5504
21
-2.43624
0
LINE
8
BLACK
6
CONTINUOUS
10
11.5504
20
-2.43624
11
11.5618
21
-2.44768
0
LINE
8
BLACK
6
CONTINUOUS
10
11.5618
20
-2.44768
11
11.5708
21
-2.46112
0
LINE
8
BLACK
6
CONTINUOUS
10
11.5708
20
-2.46112
11
11.577
21
-2.47606
0
LINE
8
BLACK
6
CONTINUOUS
10
11.577
20
-2.47606
11
11.5801
21
-2.49192
0
LINE
8
BLACK
6
CONTINUOUS
10
11.5801
20
-2.49192
11
11.5801
21
-2.50808
0
LINE
8
BLACK
6
CONTINUOUS
10
11.5801
20
-2.50808
11
11.577
21
-2.52394
0
LINE
8
BLACK
6
CONTINUOUS
10
11.577
20
-2.52394
11
11.5708
21
-2.53888
0
LINE
8
BLACK
6
CONTINUOUS
10
11.5708
20
-2.53888
11
11.5618
21
-2.55232
0
LINE
8
BLACK
6
CONTINUOUS
10
11.5618
20
-2.55232
11
11.5504
21
-2.56376
0
LINE
8
BLACK
6
CONTINUOUS
10
11.5504
20
-2.56376
11
11.5369
21
-2.57274
0
LINE
8
BLACK
6
CONTINUOUS
10
11.5369
20
-2.57274
11
11.522
21
-2.57893
0
LINE
8
BLACK
6
CONTINUOUS
10
11.522
20
-2.57893
11
11.5061
21
-2.58208
0
LINE
8
BLACK
6
CONTINUOUS
10
11.5061
20
-2.58208
11
11.4899
21
-2.58208
0
LINE
8
BLACK
6
CONTINUOUS
10
11.4899
20
-2.58208
11
11.4741
21
-2.57893
0
LINE
8
BLACK
6
CONTINUOUS
10
11.4741
20
-2.57893
11
11.4592
21
-2.57274
0
LINE
8
BLACK
6
CONTINUOUS
10
11.4592
20
-2.57274
11
11.4457
21
-2.56376
0
LINE
8
BLACK
6
CONTINUOUS
10
11.4457
20
-2.56376
11
11.4343
21
-2.55232
0
LINE
8
BLACK
6
CONTINUOUS
10
11.4343
20
-2.55232
11
11.4253
21
-2.53888
0
LINE
8
BLACK
6
CONTINUOUS
10
11.4253
20
-2.53888
11
11.4191
21
-2.52394
0
LINE
8
BLACK
6
CONTINUOUS
10
11.4191
20
-2.52394
11
11.4159
21
-2.50808
0
LINE
8
BLACK
6
CONTINUOUS
10
11.4159
20
-2.50808
11
11.4159
21
-2.49192
0
LINE
8
BLACK
6
CONTINUOUS
10
11.4159
20
-2.49192
11
11.4191
21
-2.47606
0
LINE
8
BLACK
6
CONTINUOUS
10
11.4255
20
-2.522
11
11.4312
21
-2.53573
0
LINE
8
BLACK
6
CONTINUOUS
10
11.4312
20
-2.53573
11
11.4394
21
-2.54808
0
LINE
8
BLACK
6
CONTINUOUS
10
11.4394
20
-2.54808
11
11.45
21
-2.55858
0
LINE
8
BLACK
6
CONTINUOUS
10
11.45
20
-2.55858
11
11.4623
21
-2.56684
0
LINE
8
BLACK
6
CONTINUOUS
10
11.4623
20
-2.56684
11
11.476
21
-2.57252
0
LINE
8
BLACK
6
CONTINUOUS
10
11.476
20
-2.57252
11
11.4906
21
-2.57542
0
LINE
8
BLACK
6
CONTINUOUS
10
11.4906
20
-2.57542
11
11.5055
21
-2.57542
0
LINE
8
BLACK
6
CONTINUOUS
10
11.5055
20
-2.57542
11
11.52
21
-2.57252
0
LINE
8
BLACK
6
CONTINUOUS
10
11.52
20
-2.57252
11
11.5338
21
-2.56684
0
LINE
8
BLACK
6
CONTINUOUS
10
11.5338
20
-2.56684
11
11.5461
21
-2.55858
0
LINE
8
BLACK
6
CONTINUOUS
10
11.5461
20
-2.55858
11
11.5566
21
-2.54808
0
LINE
8
BLACK
6
CONTINUOUS
10
11.5566
20
-2.54808
11
11.5649
21
-2.53573
0
LINE
8
BLACK
6
CONTINUOUS
10
11.5649
20
-2.53573
11
11.5706
21
-2.522
0
LINE
8
BLACK
6
CONTINUOUS
10
11.5706
20
-2.522
11
11.5735
21
-2.50743
0
LINE
8
BLACK
6
CONTINUOUS
10
11.5735
20
-2.50743
11
11.5735
21
-2.49257
0
LINE
8
BLACK
6
CONTINUOUS
10
11.5735
20
-2.49257
11
11.5706
21
-2.478
0
LINE
8
BLACK
6
CONTINUOUS
10
11.5706
20
-2.478
11
11.5649
21
-2.46427
0
LINE
8
BLACK
6
CONTINUOUS
10
11.5649
20
-2.46427
11
11.5566
21
-2.45192
0
LINE
8
BLACK
6
CONTINUOUS
10
11.5566
20
-2.45192
11
11.5461
21
-2.44142
0
LINE
8
BLACK
6
CONTINUOUS
10
11.5461
20
-2.44142
11
11.5338
21
-2.43316
0
LINE
8
BLACK
6
CONTINUOUS
10
11.5338
20
-2.43316
11
11.52
21
-2.42748
0
LINE
8
BLACK
6
CONTINUOUS
10
11.52
20
-2.42748
11
11.5055
21
-2.42458
0
LINE
8
BLACK
6
CONTINUOUS
10
11.5055
20
-2.42458
11
11.4906
21
-2.42458
0
LINE
8
BLACK
6
CONTINUOUS
10
11.4906
20
-2.42458
11
11.476
21
-2.42748
0
LINE
8
BLACK
6
CONTINUOUS
10
11.476
20
-2.42748
11
11.4623
21
-2.43316
0
LINE
8
BLACK
6
CONTINUOUS
10
11.4623
20
-2.43316
11
11.45
21
-2.44142
0
LINE
8
BLACK
6
CONTINUOUS
10
11.45
20
-2.44142
11
11.4394
21
-2.45192
0
LINE
8
BLACK
6
CONTINUOUS
10
11.4394
20
-2.45192
11
11.4312
21
-2.46427
0
LINE
8
BLACK
6
CONTINUOUS
10
11.4312
20
-2.46427
11
11.4255
21
-2.478
0
LINE
8
BLACK
6
CONTINUOUS
10
11.4255
20
-2.478
11
11.4226
21
-2.49257
0
LINE
8
BLACK
6
CONTINUOUS
10
11.4226
20
-2.49257
11
11.4226
21
-2.50743
0
LINE
8
BLACK
6
CONTINUOUS
10
11.4226
20
-2.50743
11
11.4255
21
-2.522
  0
ENDSEC
  0
EOF
