%TF.GenerationSoftware,KiCad,Pcbnew,(5.1.6)-1*%
%TF.CreationDate,2020-11-28T21:41:09-05:00*%
%TF.ProjectId,555SynthModule,35353553-796e-4746-984d-6f64756c652e,rev?*%
%TF.SameCoordinates,Original*%
%TF.FileFunction,Copper,L2,Bot*%
%TF.FilePolarity,Positive*%
%FSLAX46Y46*%
G04 Gerber Fmt 4.6, Leading zero omitted, Abs format (unit mm)*
G04 Created by KiCad (PCBNEW (5.1.6)-1) date 2020-11-28 21:41:09*
%MOMM*%
%LPD*%
G01*
G04 APERTURE LIST*
%TA.AperFunction,ComponentPad*%
%ADD10C,1.600000*%
%TD*%
%TA.AperFunction,ComponentPad*%
%ADD11O,1.600000X1.600000*%
%TD*%
%TA.AperFunction,ComponentPad*%
%ADD12R,1.600000X1.600000*%
%TD*%
%TA.AperFunction,ComponentPad*%
%ADD13C,2.340000*%
%TD*%
%TA.AperFunction,ComponentPad*%
%ADD14O,1.400000X1.400000*%
%TD*%
%TA.AperFunction,ComponentPad*%
%ADD15C,1.400000*%
%TD*%
%TA.AperFunction,ComponentPad*%
%ADD16R,1.050000X1.500000*%
%TD*%
%TA.AperFunction,ComponentPad*%
%ADD17O,1.050000X1.500000*%
%TD*%
%TA.AperFunction,ComponentPad*%
%ADD18O,1.700000X1.700000*%
%TD*%
%TA.AperFunction,ComponentPad*%
%ADD19R,1.700000X1.700000*%
%TD*%
%TA.AperFunction,ViaPad*%
%ADD20C,0.800000*%
%TD*%
%TA.AperFunction,Conductor*%
%ADD21C,0.508000*%
%TD*%
%TA.AperFunction,Conductor*%
%ADD22C,0.254000*%
%TD*%
%TA.AperFunction,Conductor*%
%ADD23C,0.025400*%
%TD*%
G04 APERTURE END LIST*
D10*
%TO.P,C9,2*%
%TO.N,-15V*%
X123190000Y-86360000D03*
%TO.P,C9,1*%
%TO.N,+15V*%
X123190000Y-81360000D03*
%TD*%
D11*
%TO.P,U2,8*%
%TO.N,Net-(U2-Pad8)*%
X111760000Y-80010000D03*
%TO.P,U2,4*%
%TO.N,-15V*%
X119380000Y-87630000D03*
%TO.P,U2,7*%
%TO.N,+15V*%
X114300000Y-80010000D03*
%TO.P,U2,3*%
%TO.N,Net-(R11-Pad1)*%
X116840000Y-87630000D03*
%TO.P,U2,6*%
%TO.N,/OUT*%
X116840000Y-80010000D03*
%TO.P,U2,2*%
%TO.N,Net-(R13-Pad2)*%
X114300000Y-87630000D03*
%TO.P,U2,5*%
%TO.N,Net-(U2-Pad5)*%
X119380000Y-80010000D03*
D12*
%TO.P,U2,1*%
%TO.N,Net-(U2-Pad1)*%
X111760000Y-87630000D03*
%TD*%
D11*
%TO.P,U1,8*%
%TO.N,+15V*%
X119380000Y-102870000D03*
%TO.P,U1,4*%
X111760000Y-95250000D03*
%TO.P,U1,7*%
%TO.N,Net-(U1-Pad7)*%
X116840000Y-102870000D03*
%TO.P,U1,3*%
%TO.N,Net-(R11-Pad1)*%
X114300000Y-95250000D03*
%TO.P,U1,6*%
%TO.N,Net-(C1-Pad1)*%
X114300000Y-102870000D03*
%TO.P,U1,2*%
X116840000Y-95250000D03*
%TO.P,U1,5*%
%TO.N,Net-(C3-Pad1)*%
X111760000Y-102870000D03*
D12*
%TO.P,U1,1*%
%TO.N,GND*%
X119380000Y-95250000D03*
%TD*%
D13*
%TO.P,RV1,1*%
%TO.N,Net-(RV1-Pad1)*%
X105410000Y-89615000D03*
%TO.P,RV1,2*%
%TO.N,Net-(R11-Pad2)*%
X105410000Y-94615000D03*
%TO.P,RV1,3*%
%TO.N,Net-(C1-Pad1)*%
X105410000Y-99615000D03*
%TD*%
D14*
%TO.P,R14,2*%
%TO.N,GND*%
X130810000Y-81280000D03*
D15*
%TO.P,R14,1*%
%TO.N,Net-(R13-Pad2)*%
X125730000Y-81280000D03*
%TD*%
D14*
%TO.P,R13,2*%
%TO.N,Net-(R13-Pad2)*%
X125730000Y-85000000D03*
D15*
%TO.P,R13,1*%
%TO.N,+15V*%
X130810000Y-85000000D03*
%TD*%
D14*
%TO.P,R12,2*%
%TO.N,Net-(Q5-Pad2)*%
X154940000Y-95250000D03*
D15*
%TO.P,R12,1*%
%TO.N,/DISABLE*%
X160020000Y-95250000D03*
%TD*%
D14*
%TO.P,R11,2*%
%TO.N,Net-(R11-Pad2)*%
X111760000Y-91440000D03*
D15*
%TO.P,R11,1*%
%TO.N,Net-(R11-Pad1)*%
X116840000Y-91440000D03*
%TD*%
D14*
%TO.P,R10,2*%
%TO.N,GND*%
X146050000Y-92710000D03*
D15*
%TO.P,R10,1*%
%TO.N,Net-(Q5-Pad2)*%
X151130000Y-92710000D03*
%TD*%
D14*
%TO.P,R9,2*%
%TO.N,Net-(Q5-Pad3)*%
X130810000Y-88265000D03*
D15*
%TO.P,R9,1*%
%TO.N,Net-(C1-Pad1)*%
X125730000Y-88265000D03*
%TD*%
D14*
%TO.P,R8,2*%
%TO.N,Net-(Q1-Pad2)*%
X154940000Y-105410000D03*
D15*
%TO.P,R8,1*%
%TO.N,/RANGE3*%
X160020000Y-105410000D03*
%TD*%
D14*
%TO.P,R7,2*%
%TO.N,Net-(Q2-Pad2)*%
X154940000Y-102870000D03*
D15*
%TO.P,R7,1*%
%TO.N,/RANGE2*%
X160020000Y-102870000D03*
%TD*%
D14*
%TO.P,R6,2*%
%TO.N,Net-(Q3-Pad2)*%
X154940000Y-100330000D03*
D15*
%TO.P,R6,1*%
%TO.N,/RANGE1*%
X160020000Y-100330000D03*
%TD*%
D14*
%TO.P,R5,2*%
%TO.N,Net-(Q4-Pad2)*%
X154920000Y-97790000D03*
D15*
%TO.P,R5,1*%
%TO.N,/RANGE0*%
X160000000Y-97790000D03*
%TD*%
D14*
%TO.P,R4,2*%
%TO.N,GND*%
X146050000Y-96520000D03*
D15*
%TO.P,R4,1*%
%TO.N,Net-(Q4-Pad2)*%
X151130000Y-96520000D03*
%TD*%
D14*
%TO.P,R3,2*%
%TO.N,GND*%
X146050000Y-100330000D03*
D15*
%TO.P,R3,1*%
%TO.N,Net-(Q3-Pad2)*%
X151130000Y-100330000D03*
%TD*%
D14*
%TO.P,R2,2*%
%TO.N,GND*%
X146050000Y-104140000D03*
D15*
%TO.P,R2,1*%
%TO.N,Net-(Q2-Pad2)*%
X151130000Y-104140000D03*
%TD*%
D14*
%TO.P,R1,2*%
%TO.N,GND*%
X146050000Y-107950000D03*
D15*
%TO.P,R1,1*%
%TO.N,Net-(Q1-Pad2)*%
X151130000Y-107950000D03*
%TD*%
D16*
%TO.P,Q5,1*%
%TO.N,GND*%
X142240000Y-91440000D03*
D17*
%TO.P,Q5,3*%
%TO.N,Net-(Q5-Pad3)*%
X139700000Y-91440000D03*
%TO.P,Q5,2*%
%TO.N,Net-(Q5-Pad2)*%
X140970000Y-91440000D03*
%TD*%
D16*
%TO.P,Q4,1*%
%TO.N,GND*%
X135890000Y-95250000D03*
D17*
%TO.P,Q4,3*%
%TO.N,Net-(C5-Pad2)*%
X133350000Y-95250000D03*
%TO.P,Q4,2*%
%TO.N,Net-(Q4-Pad2)*%
X134620000Y-95250000D03*
%TD*%
D16*
%TO.P,Q3,1*%
%TO.N,GND*%
X142240000Y-99060000D03*
D17*
%TO.P,Q3,3*%
%TO.N,Net-(C4-Pad2)*%
X139700000Y-99060000D03*
%TO.P,Q3,2*%
%TO.N,Net-(Q3-Pad2)*%
X140970000Y-99060000D03*
%TD*%
D16*
%TO.P,Q2,1*%
%TO.N,GND*%
X135890000Y-102870000D03*
D17*
%TO.P,Q2,3*%
%TO.N,Net-(C2-Pad2)*%
X133350000Y-102870000D03*
%TO.P,Q2,2*%
%TO.N,Net-(Q2-Pad2)*%
X134620000Y-102870000D03*
%TD*%
D16*
%TO.P,Q1,1*%
%TO.N,GND*%
X142240000Y-106680000D03*
D17*
%TO.P,Q1,3*%
%TO.N,Net-(C1-Pad2)*%
X139700000Y-106680000D03*
%TO.P,Q1,2*%
%TO.N,Net-(Q1-Pad2)*%
X140970000Y-106680000D03*
%TD*%
D18*
%TO.P,J1,9*%
%TO.N,/RANGE3*%
X165000000Y-105410000D03*
%TO.P,J1,8*%
%TO.N,/RANGE2*%
X165000000Y-102870000D03*
%TO.P,J1,7*%
%TO.N,/RANGE1*%
X165000000Y-100330000D03*
%TO.P,J1,6*%
%TO.N,/RANGE0*%
X165000000Y-97790000D03*
%TO.P,J1,5*%
%TO.N,/DISABLE*%
X165000000Y-95250000D03*
%TO.P,J1,4*%
%TO.N,/OUT*%
X165000000Y-92710000D03*
%TO.P,J1,3*%
%TO.N,-15V*%
X165000000Y-90170000D03*
%TO.P,J1,2*%
%TO.N,GND*%
X165000000Y-87630000D03*
D19*
%TO.P,J1,1*%
%TO.N,+15V*%
X165000000Y-85090000D03*
%TD*%
D10*
%TO.P,C8,2*%
%TO.N,-15V*%
X143820000Y-83820000D03*
D12*
%TO.P,C8,1*%
%TO.N,GND*%
X147320000Y-83820000D03*
%TD*%
D10*
%TO.P,C7,2*%
%TO.N,GND*%
X153345000Y-83820000D03*
D12*
%TO.P,C7,1*%
%TO.N,+15V*%
X156845000Y-83820000D03*
%TD*%
D10*
%TO.P,C6,2*%
%TO.N,GND*%
X129540000Y-91440000D03*
%TO.P,C6,1*%
%TO.N,Net-(C1-Pad1)*%
X124540000Y-91440000D03*
%TD*%
%TO.P,C5,2*%
%TO.N,Net-(C5-Pad2)*%
X129540000Y-95250000D03*
%TO.P,C5,1*%
%TO.N,Net-(C1-Pad1)*%
X124540000Y-95250000D03*
%TD*%
%TO.P,C4,2*%
%TO.N,Net-(C4-Pad2)*%
X129540000Y-99060000D03*
%TO.P,C4,1*%
%TO.N,Net-(C1-Pad1)*%
X124540000Y-99060000D03*
%TD*%
%TO.P,C3,2*%
%TO.N,GND*%
X116760000Y-106680000D03*
%TO.P,C3,1*%
%TO.N,Net-(C3-Pad1)*%
X111760000Y-106680000D03*
%TD*%
%TO.P,C2,2*%
%TO.N,Net-(C2-Pad2)*%
X129540000Y-102870000D03*
%TO.P,C2,1*%
%TO.N,Net-(C1-Pad1)*%
X124540000Y-102870000D03*
%TD*%
%TO.P,C1,2*%
%TO.N,Net-(C1-Pad2)*%
X129540000Y-106680000D03*
%TO.P,C1,1*%
%TO.N,Net-(C1-Pad1)*%
X124540000Y-106680000D03*
%TD*%
D20*
%TO.N,-15V*%
X135890000Y-83820000D03*
%TD*%
D21*
%TO.N,-15V*%
X135890000Y-83820000D02*
X143820000Y-83820000D01*
%TD*%
D22*
%TO.N,GND*%
G36*
X166980001Y-111100000D02*
G01*
X103530000Y-111100000D01*
X103530000Y-108283329D01*
X144757284Y-108283329D01*
X144789953Y-108391044D01*
X144900208Y-108628392D01*
X145054649Y-108839670D01*
X145247340Y-109016759D01*
X145470877Y-109152853D01*
X145716670Y-109242722D01*
X145923000Y-109120201D01*
X145923000Y-108077000D01*
X146177000Y-108077000D01*
X146177000Y-109120201D01*
X146383330Y-109242722D01*
X146629123Y-109152853D01*
X146852660Y-109016759D01*
X147045351Y-108839670D01*
X147199792Y-108628392D01*
X147310047Y-108391044D01*
X147342716Y-108283329D01*
X147219374Y-108077000D01*
X146177000Y-108077000D01*
X145923000Y-108077000D01*
X144880626Y-108077000D01*
X144757284Y-108283329D01*
X103530000Y-108283329D01*
X103530000Y-106538665D01*
X110325000Y-106538665D01*
X110325000Y-106821335D01*
X110380147Y-107098574D01*
X110488320Y-107359727D01*
X110645363Y-107594759D01*
X110845241Y-107794637D01*
X111080273Y-107951680D01*
X111341426Y-108059853D01*
X111618665Y-108115000D01*
X111901335Y-108115000D01*
X112178574Y-108059853D01*
X112439727Y-107951680D01*
X112674759Y-107794637D01*
X112796694Y-107672702D01*
X115946903Y-107672702D01*
X116018486Y-107916671D01*
X116273996Y-108037571D01*
X116548184Y-108106300D01*
X116830512Y-108120217D01*
X117110130Y-108078787D01*
X117376292Y-107983603D01*
X117501514Y-107916671D01*
X117573097Y-107672702D01*
X116760000Y-106859605D01*
X115946903Y-107672702D01*
X112796694Y-107672702D01*
X112874637Y-107594759D01*
X113031680Y-107359727D01*
X113139853Y-107098574D01*
X113195000Y-106821335D01*
X113195000Y-106750512D01*
X115319783Y-106750512D01*
X115361213Y-107030130D01*
X115456397Y-107296292D01*
X115523329Y-107421514D01*
X115767298Y-107493097D01*
X116580395Y-106680000D01*
X116939605Y-106680000D01*
X117752702Y-107493097D01*
X117996671Y-107421514D01*
X118117571Y-107166004D01*
X118186300Y-106891816D01*
X118200217Y-106609488D01*
X118189724Y-106538665D01*
X123105000Y-106538665D01*
X123105000Y-106821335D01*
X123160147Y-107098574D01*
X123268320Y-107359727D01*
X123425363Y-107594759D01*
X123625241Y-107794637D01*
X123860273Y-107951680D01*
X124121426Y-108059853D01*
X124398665Y-108115000D01*
X124681335Y-108115000D01*
X124958574Y-108059853D01*
X125219727Y-107951680D01*
X125454759Y-107794637D01*
X125654637Y-107594759D01*
X125811680Y-107359727D01*
X125919853Y-107098574D01*
X125975000Y-106821335D01*
X125975000Y-106538665D01*
X128105000Y-106538665D01*
X128105000Y-106821335D01*
X128160147Y-107098574D01*
X128268320Y-107359727D01*
X128425363Y-107594759D01*
X128625241Y-107794637D01*
X128860273Y-107951680D01*
X129121426Y-108059853D01*
X129398665Y-108115000D01*
X129681335Y-108115000D01*
X129958574Y-108059853D01*
X130219727Y-107951680D01*
X130454759Y-107794637D01*
X130654637Y-107594759D01*
X130811680Y-107359727D01*
X130919853Y-107098574D01*
X130975000Y-106821335D01*
X130975000Y-106538665D01*
X130947024Y-106398021D01*
X138540000Y-106398021D01*
X138540000Y-106961978D01*
X138556785Y-107132399D01*
X138623115Y-107351059D01*
X138730829Y-107552578D01*
X138875788Y-107729212D01*
X139052421Y-107874171D01*
X139253940Y-107981885D01*
X139472600Y-108048215D01*
X139700000Y-108070612D01*
X139927399Y-108048215D01*
X140146059Y-107981885D01*
X140335000Y-107880894D01*
X140523940Y-107981885D01*
X140742600Y-108048215D01*
X140970000Y-108070612D01*
X141197399Y-108048215D01*
X141406098Y-107984907D01*
X141470820Y-108019502D01*
X141590518Y-108055812D01*
X141715000Y-108068072D01*
X141954250Y-108065000D01*
X142113000Y-107906250D01*
X142113000Y-107133109D01*
X142113215Y-107132400D01*
X142130000Y-106961979D01*
X142130000Y-106807000D01*
X142367000Y-106807000D01*
X142367000Y-107906250D01*
X142525750Y-108065000D01*
X142765000Y-108068072D01*
X142889482Y-108055812D01*
X143009180Y-108019502D01*
X143119494Y-107960537D01*
X143216185Y-107881185D01*
X143295537Y-107784494D01*
X143354502Y-107674180D01*
X143371947Y-107616671D01*
X144757284Y-107616671D01*
X144880626Y-107823000D01*
X145923000Y-107823000D01*
X145923000Y-106779799D01*
X146177000Y-106779799D01*
X146177000Y-107823000D01*
X147219374Y-107823000D01*
X147222055Y-107818514D01*
X149795000Y-107818514D01*
X149795000Y-108081486D01*
X149846304Y-108339405D01*
X149946939Y-108582359D01*
X150093038Y-108801013D01*
X150278987Y-108986962D01*
X150497641Y-109133061D01*
X150740595Y-109233696D01*
X150998514Y-109285000D01*
X151261486Y-109285000D01*
X151519405Y-109233696D01*
X151762359Y-109133061D01*
X151981013Y-108986962D01*
X152166962Y-108801013D01*
X152313061Y-108582359D01*
X152413696Y-108339405D01*
X152465000Y-108081486D01*
X152465000Y-107818514D01*
X152413696Y-107560595D01*
X152313061Y-107317641D01*
X152166962Y-107098987D01*
X151981013Y-106913038D01*
X151762359Y-106766939D01*
X151519405Y-106666304D01*
X151261486Y-106615000D01*
X150998514Y-106615000D01*
X150740595Y-106666304D01*
X150497641Y-106766939D01*
X150278987Y-106913038D01*
X150093038Y-107098987D01*
X149946939Y-107317641D01*
X149846304Y-107560595D01*
X149795000Y-107818514D01*
X147222055Y-107818514D01*
X147342716Y-107616671D01*
X147310047Y-107508956D01*
X147199792Y-107271608D01*
X147045351Y-107060330D01*
X146852660Y-106883241D01*
X146629123Y-106747147D01*
X146383330Y-106657278D01*
X146177000Y-106779799D01*
X145923000Y-106779799D01*
X145716670Y-106657278D01*
X145470877Y-106747147D01*
X145247340Y-106883241D01*
X145054649Y-107060330D01*
X144900208Y-107271608D01*
X144789953Y-107508956D01*
X144757284Y-107616671D01*
X143371947Y-107616671D01*
X143390812Y-107554482D01*
X143403072Y-107430000D01*
X143400000Y-106965750D01*
X143241250Y-106807000D01*
X142367000Y-106807000D01*
X142130000Y-106807000D01*
X142130000Y-106398022D01*
X142113215Y-106227601D01*
X142113000Y-106226892D01*
X142113000Y-105453750D01*
X142367000Y-105453750D01*
X142367000Y-106553000D01*
X143241250Y-106553000D01*
X143400000Y-106394250D01*
X143403072Y-105930000D01*
X143390812Y-105805518D01*
X143354502Y-105685820D01*
X143295537Y-105575506D01*
X143216185Y-105478815D01*
X143119494Y-105399463D01*
X143009180Y-105340498D01*
X142889482Y-105304188D01*
X142765000Y-105291928D01*
X142525750Y-105295000D01*
X142367000Y-105453750D01*
X142113000Y-105453750D01*
X141954250Y-105295000D01*
X141715000Y-105291928D01*
X141590518Y-105304188D01*
X141470820Y-105340498D01*
X141406098Y-105375093D01*
X141197400Y-105311785D01*
X140970000Y-105289388D01*
X140742601Y-105311785D01*
X140523941Y-105378115D01*
X140335000Y-105479106D01*
X140146060Y-105378115D01*
X139927400Y-105311785D01*
X139700000Y-105289388D01*
X139472601Y-105311785D01*
X139253941Y-105378115D01*
X139052422Y-105485829D01*
X138875789Y-105630788D01*
X138730830Y-105807421D01*
X138623115Y-106008940D01*
X138556785Y-106227600D01*
X138540000Y-106398021D01*
X130947024Y-106398021D01*
X130919853Y-106261426D01*
X130811680Y-106000273D01*
X130654637Y-105765241D01*
X130454759Y-105565363D01*
X130219727Y-105408320D01*
X129958574Y-105300147D01*
X129681335Y-105245000D01*
X129398665Y-105245000D01*
X129121426Y-105300147D01*
X128860273Y-105408320D01*
X128625241Y-105565363D01*
X128425363Y-105765241D01*
X128268320Y-106000273D01*
X128160147Y-106261426D01*
X128105000Y-106538665D01*
X125975000Y-106538665D01*
X125919853Y-106261426D01*
X125811680Y-106000273D01*
X125654637Y-105765241D01*
X125454759Y-105565363D01*
X125219727Y-105408320D01*
X124958574Y-105300147D01*
X124681335Y-105245000D01*
X124398665Y-105245000D01*
X124121426Y-105300147D01*
X123860273Y-105408320D01*
X123625241Y-105565363D01*
X123425363Y-105765241D01*
X123268320Y-106000273D01*
X123160147Y-106261426D01*
X123105000Y-106538665D01*
X118189724Y-106538665D01*
X118158787Y-106329870D01*
X118063603Y-106063708D01*
X117996671Y-105938486D01*
X117752702Y-105866903D01*
X116939605Y-106680000D01*
X116580395Y-106680000D01*
X115767298Y-105866903D01*
X115523329Y-105938486D01*
X115402429Y-106193996D01*
X115333700Y-106468184D01*
X115319783Y-106750512D01*
X113195000Y-106750512D01*
X113195000Y-106538665D01*
X113139853Y-106261426D01*
X113031680Y-106000273D01*
X112874637Y-105765241D01*
X112796694Y-105687298D01*
X115946903Y-105687298D01*
X116760000Y-106500395D01*
X117573097Y-105687298D01*
X117501514Y-105443329D01*
X117246004Y-105322429D01*
X116971816Y-105253700D01*
X116689488Y-105239783D01*
X116409870Y-105281213D01*
X116143708Y-105376397D01*
X116018486Y-105443329D01*
X115946903Y-105687298D01*
X112796694Y-105687298D01*
X112674759Y-105565363D01*
X112439727Y-105408320D01*
X112178574Y-105300147D01*
X111901335Y-105245000D01*
X111618665Y-105245000D01*
X111341426Y-105300147D01*
X111080273Y-105408320D01*
X110845241Y-105565363D01*
X110645363Y-105765241D01*
X110488320Y-106000273D01*
X110380147Y-106261426D01*
X110325000Y-106538665D01*
X103530000Y-106538665D01*
X103530000Y-104473329D01*
X144757284Y-104473329D01*
X144789953Y-104581044D01*
X144900208Y-104818392D01*
X145054649Y-105029670D01*
X145247340Y-105206759D01*
X145470877Y-105342853D01*
X145716670Y-105432722D01*
X145923000Y-105310201D01*
X145923000Y-104267000D01*
X146177000Y-104267000D01*
X146177000Y-105310201D01*
X146383330Y-105432722D01*
X146629123Y-105342853D01*
X146852660Y-105206759D01*
X147045351Y-105029670D01*
X147199792Y-104818392D01*
X147310047Y-104581044D01*
X147342716Y-104473329D01*
X147219374Y-104267000D01*
X146177000Y-104267000D01*
X145923000Y-104267000D01*
X144880626Y-104267000D01*
X144757284Y-104473329D01*
X103530000Y-104473329D01*
X103530000Y-102728665D01*
X110325000Y-102728665D01*
X110325000Y-103011335D01*
X110380147Y-103288574D01*
X110488320Y-103549727D01*
X110645363Y-103784759D01*
X110845241Y-103984637D01*
X111080273Y-104141680D01*
X111341426Y-104249853D01*
X111618665Y-104305000D01*
X111901335Y-104305000D01*
X112178574Y-104249853D01*
X112439727Y-104141680D01*
X112674759Y-103984637D01*
X112874637Y-103784759D01*
X113030000Y-103552241D01*
X113185363Y-103784759D01*
X113385241Y-103984637D01*
X113620273Y-104141680D01*
X113881426Y-104249853D01*
X114158665Y-104305000D01*
X114441335Y-104305000D01*
X114718574Y-104249853D01*
X114979727Y-104141680D01*
X115214759Y-103984637D01*
X115414637Y-103784759D01*
X115570000Y-103552241D01*
X115725363Y-103784759D01*
X115925241Y-103984637D01*
X116160273Y-104141680D01*
X116421426Y-104249853D01*
X116698665Y-104305000D01*
X116981335Y-104305000D01*
X117258574Y-104249853D01*
X117519727Y-104141680D01*
X117754759Y-103984637D01*
X117954637Y-103784759D01*
X118110000Y-103552241D01*
X118265363Y-103784759D01*
X118465241Y-103984637D01*
X118700273Y-104141680D01*
X118961426Y-104249853D01*
X119238665Y-104305000D01*
X119521335Y-104305000D01*
X119798574Y-104249853D01*
X120059727Y-104141680D01*
X120294759Y-103984637D01*
X120494637Y-103784759D01*
X120651680Y-103549727D01*
X120759853Y-103288574D01*
X120815000Y-103011335D01*
X120815000Y-102728665D01*
X123105000Y-102728665D01*
X123105000Y-103011335D01*
X123160147Y-103288574D01*
X123268320Y-103549727D01*
X123425363Y-103784759D01*
X123625241Y-103984637D01*
X123860273Y-104141680D01*
X124121426Y-104249853D01*
X124398665Y-104305000D01*
X124681335Y-104305000D01*
X124958574Y-104249853D01*
X125219727Y-104141680D01*
X125454759Y-103984637D01*
X125654637Y-103784759D01*
X125811680Y-103549727D01*
X125919853Y-103288574D01*
X125975000Y-103011335D01*
X125975000Y-102728665D01*
X128105000Y-102728665D01*
X128105000Y-103011335D01*
X128160147Y-103288574D01*
X128268320Y-103549727D01*
X128425363Y-103784759D01*
X128625241Y-103984637D01*
X128860273Y-104141680D01*
X129121426Y-104249853D01*
X129398665Y-104305000D01*
X129681335Y-104305000D01*
X129958574Y-104249853D01*
X130219727Y-104141680D01*
X130454759Y-103984637D01*
X130654637Y-103784759D01*
X130811680Y-103549727D01*
X130919853Y-103288574D01*
X130975000Y-103011335D01*
X130975000Y-102728665D01*
X130947024Y-102588021D01*
X132190000Y-102588021D01*
X132190000Y-103151978D01*
X132206785Y-103322399D01*
X132273115Y-103541059D01*
X132380829Y-103742578D01*
X132525788Y-103919212D01*
X132702421Y-104064171D01*
X132903940Y-104171885D01*
X133122600Y-104238215D01*
X133350000Y-104260612D01*
X133577399Y-104238215D01*
X133796059Y-104171885D01*
X133985000Y-104070894D01*
X134173940Y-104171885D01*
X134392600Y-104238215D01*
X134620000Y-104260612D01*
X134847399Y-104238215D01*
X135056098Y-104174907D01*
X135120820Y-104209502D01*
X135240518Y-104245812D01*
X135365000Y-104258072D01*
X135604250Y-104255000D01*
X135763000Y-104096250D01*
X135763000Y-103323109D01*
X135763215Y-103322400D01*
X135780000Y-103151979D01*
X135780000Y-102997000D01*
X136017000Y-102997000D01*
X136017000Y-104096250D01*
X136175750Y-104255000D01*
X136415000Y-104258072D01*
X136539482Y-104245812D01*
X136659180Y-104209502D01*
X136769494Y-104150537D01*
X136866185Y-104071185D01*
X136945537Y-103974494D01*
X137004502Y-103864180D01*
X137021947Y-103806671D01*
X144757284Y-103806671D01*
X144880626Y-104013000D01*
X145923000Y-104013000D01*
X145923000Y-102969799D01*
X146177000Y-102969799D01*
X146177000Y-104013000D01*
X147219374Y-104013000D01*
X147222055Y-104008514D01*
X149795000Y-104008514D01*
X149795000Y-104271486D01*
X149846304Y-104529405D01*
X149946939Y-104772359D01*
X150093038Y-104991013D01*
X150278987Y-105176962D01*
X150497641Y-105323061D01*
X150740595Y-105423696D01*
X150998514Y-105475000D01*
X151261486Y-105475000D01*
X151519405Y-105423696D01*
X151762359Y-105323061D01*
X151981013Y-105176962D01*
X152166962Y-104991013D01*
X152313061Y-104772359D01*
X152413696Y-104529405D01*
X152465000Y-104271486D01*
X152465000Y-104008514D01*
X152413696Y-103750595D01*
X152313061Y-103507641D01*
X152166962Y-103288987D01*
X151981013Y-103103038D01*
X151762359Y-102956939D01*
X151519405Y-102856304D01*
X151261486Y-102805000D01*
X150998514Y-102805000D01*
X150740595Y-102856304D01*
X150497641Y-102956939D01*
X150278987Y-103103038D01*
X150093038Y-103288987D01*
X149946939Y-103507641D01*
X149846304Y-103750595D01*
X149795000Y-104008514D01*
X147222055Y-104008514D01*
X147342716Y-103806671D01*
X147310047Y-103698956D01*
X147199792Y-103461608D01*
X147045351Y-103250330D01*
X146852660Y-103073241D01*
X146629123Y-102937147D01*
X146383330Y-102847278D01*
X146177000Y-102969799D01*
X145923000Y-102969799D01*
X145716670Y-102847278D01*
X145470877Y-102937147D01*
X145247340Y-103073241D01*
X145054649Y-103250330D01*
X144900208Y-103461608D01*
X144789953Y-103698956D01*
X144757284Y-103806671D01*
X137021947Y-103806671D01*
X137040812Y-103744482D01*
X137053072Y-103620000D01*
X137050000Y-103155750D01*
X136891250Y-102997000D01*
X136017000Y-102997000D01*
X135780000Y-102997000D01*
X135780000Y-102588022D01*
X135763215Y-102417601D01*
X135763000Y-102416892D01*
X135763000Y-101643750D01*
X136017000Y-101643750D01*
X136017000Y-102743000D01*
X136891250Y-102743000D01*
X137050000Y-102584250D01*
X137053072Y-102120000D01*
X137040812Y-101995518D01*
X137004502Y-101875820D01*
X136945537Y-101765506D01*
X136866185Y-101668815D01*
X136769494Y-101589463D01*
X136659180Y-101530498D01*
X136539482Y-101494188D01*
X136415000Y-101481928D01*
X136175750Y-101485000D01*
X136017000Y-101643750D01*
X135763000Y-101643750D01*
X135604250Y-101485000D01*
X135365000Y-101481928D01*
X135240518Y-101494188D01*
X135120820Y-101530498D01*
X135056098Y-101565093D01*
X134847400Y-101501785D01*
X134620000Y-101479388D01*
X134392601Y-101501785D01*
X134173941Y-101568115D01*
X133985001Y-101669106D01*
X133796060Y-101568115D01*
X133577400Y-101501785D01*
X133350000Y-101479388D01*
X133122601Y-101501785D01*
X132903941Y-101568115D01*
X132702422Y-101675829D01*
X132525789Y-101820788D01*
X132380830Y-101997421D01*
X132273115Y-102198940D01*
X132206785Y-102417600D01*
X132190000Y-102588021D01*
X130947024Y-102588021D01*
X130919853Y-102451426D01*
X130811680Y-102190273D01*
X130654637Y-101955241D01*
X130454759Y-101755363D01*
X130219727Y-101598320D01*
X129958574Y-101490147D01*
X129681335Y-101435000D01*
X129398665Y-101435000D01*
X129121426Y-101490147D01*
X128860273Y-101598320D01*
X128625241Y-101755363D01*
X128425363Y-101955241D01*
X128268320Y-102190273D01*
X128160147Y-102451426D01*
X128105000Y-102728665D01*
X125975000Y-102728665D01*
X125919853Y-102451426D01*
X125811680Y-102190273D01*
X125654637Y-101955241D01*
X125454759Y-101755363D01*
X125219727Y-101598320D01*
X124958574Y-101490147D01*
X124681335Y-101435000D01*
X124398665Y-101435000D01*
X124121426Y-101490147D01*
X123860273Y-101598320D01*
X123625241Y-101755363D01*
X123425363Y-101955241D01*
X123268320Y-102190273D01*
X123160147Y-102451426D01*
X123105000Y-102728665D01*
X120815000Y-102728665D01*
X120759853Y-102451426D01*
X120651680Y-102190273D01*
X120494637Y-101955241D01*
X120294759Y-101755363D01*
X120059727Y-101598320D01*
X119798574Y-101490147D01*
X119521335Y-101435000D01*
X119238665Y-101435000D01*
X118961426Y-101490147D01*
X118700273Y-101598320D01*
X118465241Y-101755363D01*
X118265363Y-101955241D01*
X118110000Y-102187759D01*
X117954637Y-101955241D01*
X117754759Y-101755363D01*
X117519727Y-101598320D01*
X117258574Y-101490147D01*
X116981335Y-101435000D01*
X116698665Y-101435000D01*
X116421426Y-101490147D01*
X116160273Y-101598320D01*
X115925241Y-101755363D01*
X115725363Y-101955241D01*
X115570000Y-102187759D01*
X115414637Y-101955241D01*
X115214759Y-101755363D01*
X114979727Y-101598320D01*
X114718574Y-101490147D01*
X114441335Y-101435000D01*
X114158665Y-101435000D01*
X113881426Y-101490147D01*
X113620273Y-101598320D01*
X113385241Y-101755363D01*
X113185363Y-101955241D01*
X113030000Y-102187759D01*
X112874637Y-101955241D01*
X112674759Y-101755363D01*
X112439727Y-101598320D01*
X112178574Y-101490147D01*
X111901335Y-101435000D01*
X111618665Y-101435000D01*
X111341426Y-101490147D01*
X111080273Y-101598320D01*
X110845241Y-101755363D01*
X110645363Y-101955241D01*
X110488320Y-102190273D01*
X110380147Y-102451426D01*
X110325000Y-102728665D01*
X103530000Y-102728665D01*
X103530000Y-99437223D01*
X103605000Y-99437223D01*
X103605000Y-99792777D01*
X103674365Y-100141499D01*
X103810429Y-100469988D01*
X104007965Y-100765621D01*
X104259379Y-101017035D01*
X104555012Y-101214571D01*
X104883501Y-101350635D01*
X105232223Y-101420000D01*
X105587777Y-101420000D01*
X105936499Y-101350635D01*
X106264988Y-101214571D01*
X106560621Y-101017035D01*
X106812035Y-100765621D01*
X106880384Y-100663329D01*
X144757284Y-100663329D01*
X144789953Y-100771044D01*
X144900208Y-101008392D01*
X145054649Y-101219670D01*
X145247340Y-101396759D01*
X145470877Y-101532853D01*
X145716670Y-101622722D01*
X145923000Y-101500201D01*
X145923000Y-100457000D01*
X146177000Y-100457000D01*
X146177000Y-101500201D01*
X146383330Y-101622722D01*
X146629123Y-101532853D01*
X146852660Y-101396759D01*
X147045351Y-101219670D01*
X147199792Y-101008392D01*
X147310047Y-100771044D01*
X147342716Y-100663329D01*
X147219374Y-100457000D01*
X146177000Y-100457000D01*
X145923000Y-100457000D01*
X144880626Y-100457000D01*
X144757284Y-100663329D01*
X106880384Y-100663329D01*
X107009571Y-100469988D01*
X107145635Y-100141499D01*
X107215000Y-99792777D01*
X107215000Y-99437223D01*
X107145635Y-99088501D01*
X107075287Y-98918665D01*
X123105000Y-98918665D01*
X123105000Y-99201335D01*
X123160147Y-99478574D01*
X123268320Y-99739727D01*
X123425363Y-99974759D01*
X123625241Y-100174637D01*
X123860273Y-100331680D01*
X124121426Y-100439853D01*
X124398665Y-100495000D01*
X124681335Y-100495000D01*
X124958574Y-100439853D01*
X125219727Y-100331680D01*
X125454759Y-100174637D01*
X125654637Y-99974759D01*
X125811680Y-99739727D01*
X125919853Y-99478574D01*
X125975000Y-99201335D01*
X125975000Y-98918665D01*
X128105000Y-98918665D01*
X128105000Y-99201335D01*
X128160147Y-99478574D01*
X128268320Y-99739727D01*
X128425363Y-99974759D01*
X128625241Y-100174637D01*
X128860273Y-100331680D01*
X129121426Y-100439853D01*
X129398665Y-100495000D01*
X129681335Y-100495000D01*
X129958574Y-100439853D01*
X130219727Y-100331680D01*
X130454759Y-100174637D01*
X130654637Y-99974759D01*
X130811680Y-99739727D01*
X130919853Y-99478574D01*
X130975000Y-99201335D01*
X130975000Y-98918665D01*
X130947024Y-98778021D01*
X138540000Y-98778021D01*
X138540000Y-99341978D01*
X138556785Y-99512399D01*
X138623115Y-99731059D01*
X138730829Y-99932578D01*
X138875788Y-100109212D01*
X139052421Y-100254171D01*
X139253940Y-100361885D01*
X139472600Y-100428215D01*
X139700000Y-100450612D01*
X139927399Y-100428215D01*
X140146059Y-100361885D01*
X140334999Y-100260894D01*
X140523940Y-100361885D01*
X140742600Y-100428215D01*
X140970000Y-100450612D01*
X141197399Y-100428215D01*
X141406098Y-100364907D01*
X141470820Y-100399502D01*
X141590518Y-100435812D01*
X141715000Y-100448072D01*
X141954250Y-100445000D01*
X142113000Y-100286250D01*
X142113000Y-99513109D01*
X142113215Y-99512400D01*
X142130000Y-99341979D01*
X142130000Y-99187000D01*
X142367000Y-99187000D01*
X142367000Y-100286250D01*
X142525750Y-100445000D01*
X142765000Y-100448072D01*
X142889482Y-100435812D01*
X143009180Y-100399502D01*
X143119494Y-100340537D01*
X143216185Y-100261185D01*
X143295537Y-100164494D01*
X143354502Y-100054180D01*
X143371947Y-99996671D01*
X144757284Y-99996671D01*
X144880626Y-100203000D01*
X145923000Y-100203000D01*
X145923000Y-99159799D01*
X146177000Y-99159799D01*
X146177000Y-100203000D01*
X147219374Y-100203000D01*
X147222055Y-100198514D01*
X149795000Y-100198514D01*
X149795000Y-100461486D01*
X149846304Y-100719405D01*
X149946939Y-100962359D01*
X150093038Y-101181013D01*
X150278987Y-101366962D01*
X150497641Y-101513061D01*
X150740595Y-101613696D01*
X150998514Y-101665000D01*
X151261486Y-101665000D01*
X151519405Y-101613696D01*
X151762359Y-101513061D01*
X151981013Y-101366962D01*
X152166962Y-101181013D01*
X152313061Y-100962359D01*
X152413696Y-100719405D01*
X152465000Y-100461486D01*
X152465000Y-100198514D01*
X152413696Y-99940595D01*
X152313061Y-99697641D01*
X152166962Y-99478987D01*
X151981013Y-99293038D01*
X151762359Y-99146939D01*
X151519405Y-99046304D01*
X151261486Y-98995000D01*
X150998514Y-98995000D01*
X150740595Y-99046304D01*
X150497641Y-99146939D01*
X150278987Y-99293038D01*
X150093038Y-99478987D01*
X149946939Y-99697641D01*
X149846304Y-99940595D01*
X149795000Y-100198514D01*
X147222055Y-100198514D01*
X147342716Y-99996671D01*
X147310047Y-99888956D01*
X147199792Y-99651608D01*
X147045351Y-99440330D01*
X146852660Y-99263241D01*
X146629123Y-99127147D01*
X146383330Y-99037278D01*
X146177000Y-99159799D01*
X145923000Y-99159799D01*
X145716670Y-99037278D01*
X145470877Y-99127147D01*
X145247340Y-99263241D01*
X145054649Y-99440330D01*
X144900208Y-99651608D01*
X144789953Y-99888956D01*
X144757284Y-99996671D01*
X143371947Y-99996671D01*
X143390812Y-99934482D01*
X143403072Y-99810000D01*
X143400000Y-99345750D01*
X143241250Y-99187000D01*
X142367000Y-99187000D01*
X142130000Y-99187000D01*
X142130000Y-98778022D01*
X142113215Y-98607601D01*
X142113000Y-98606892D01*
X142113000Y-97833750D01*
X142367000Y-97833750D01*
X142367000Y-98933000D01*
X143241250Y-98933000D01*
X143400000Y-98774250D01*
X143403072Y-98310000D01*
X143390812Y-98185518D01*
X143354502Y-98065820D01*
X143295537Y-97955506D01*
X143216185Y-97858815D01*
X143119494Y-97779463D01*
X143009180Y-97720498D01*
X142889482Y-97684188D01*
X142765000Y-97671928D01*
X142525750Y-97675000D01*
X142367000Y-97833750D01*
X142113000Y-97833750D01*
X141954250Y-97675000D01*
X141715000Y-97671928D01*
X141590518Y-97684188D01*
X141470820Y-97720498D01*
X141406098Y-97755093D01*
X141197400Y-97691785D01*
X140970000Y-97669388D01*
X140742601Y-97691785D01*
X140523941Y-97758115D01*
X140335001Y-97859106D01*
X140146060Y-97758115D01*
X139927400Y-97691785D01*
X139700000Y-97669388D01*
X139472601Y-97691785D01*
X139253941Y-97758115D01*
X139052422Y-97865829D01*
X138875789Y-98010788D01*
X138730830Y-98187421D01*
X138623115Y-98388940D01*
X138556785Y-98607600D01*
X138540000Y-98778021D01*
X130947024Y-98778021D01*
X130919853Y-98641426D01*
X130811680Y-98380273D01*
X130654637Y-98145241D01*
X130454759Y-97945363D01*
X130219727Y-97788320D01*
X129958574Y-97680147D01*
X129681335Y-97625000D01*
X129398665Y-97625000D01*
X129121426Y-97680147D01*
X128860273Y-97788320D01*
X128625241Y-97945363D01*
X128425363Y-98145241D01*
X128268320Y-98380273D01*
X128160147Y-98641426D01*
X128105000Y-98918665D01*
X125975000Y-98918665D01*
X125919853Y-98641426D01*
X125811680Y-98380273D01*
X125654637Y-98145241D01*
X125454759Y-97945363D01*
X125219727Y-97788320D01*
X124958574Y-97680147D01*
X124681335Y-97625000D01*
X124398665Y-97625000D01*
X124121426Y-97680147D01*
X123860273Y-97788320D01*
X123625241Y-97945363D01*
X123425363Y-98145241D01*
X123268320Y-98380273D01*
X123160147Y-98641426D01*
X123105000Y-98918665D01*
X107075287Y-98918665D01*
X107009571Y-98760012D01*
X106812035Y-98464379D01*
X106560621Y-98212965D01*
X106264988Y-98015429D01*
X105936499Y-97879365D01*
X105587777Y-97810000D01*
X105232223Y-97810000D01*
X104883501Y-97879365D01*
X104555012Y-98015429D01*
X104259379Y-98212965D01*
X104007965Y-98464379D01*
X103810429Y-98760012D01*
X103674365Y-99088501D01*
X103605000Y-99437223D01*
X103530000Y-99437223D01*
X103530000Y-96853329D01*
X144757284Y-96853329D01*
X144789953Y-96961044D01*
X144900208Y-97198392D01*
X145054649Y-97409670D01*
X145247340Y-97586759D01*
X145470877Y-97722853D01*
X145716670Y-97812722D01*
X145923000Y-97690201D01*
X145923000Y-96647000D01*
X146177000Y-96647000D01*
X146177000Y-97690201D01*
X146383330Y-97812722D01*
X146629123Y-97722853D01*
X146852660Y-97586759D01*
X147045351Y-97409670D01*
X147199792Y-97198392D01*
X147310047Y-96961044D01*
X147342716Y-96853329D01*
X147219374Y-96647000D01*
X146177000Y-96647000D01*
X145923000Y-96647000D01*
X144880626Y-96647000D01*
X144757284Y-96853329D01*
X103530000Y-96853329D01*
X103530000Y-94437223D01*
X103605000Y-94437223D01*
X103605000Y-94792777D01*
X103674365Y-95141499D01*
X103810429Y-95469988D01*
X104007965Y-95765621D01*
X104259379Y-96017035D01*
X104555012Y-96214571D01*
X104883501Y-96350635D01*
X105232223Y-96420000D01*
X105587777Y-96420000D01*
X105936499Y-96350635D01*
X106264988Y-96214571D01*
X106560621Y-96017035D01*
X106812035Y-95765621D01*
X107009571Y-95469988D01*
X107145635Y-95141499D01*
X107152166Y-95108665D01*
X110325000Y-95108665D01*
X110325000Y-95391335D01*
X110380147Y-95668574D01*
X110488320Y-95929727D01*
X110645363Y-96164759D01*
X110845241Y-96364637D01*
X111080273Y-96521680D01*
X111341426Y-96629853D01*
X111618665Y-96685000D01*
X111901335Y-96685000D01*
X112178574Y-96629853D01*
X112439727Y-96521680D01*
X112674759Y-96364637D01*
X112874637Y-96164759D01*
X113030000Y-95932241D01*
X113185363Y-96164759D01*
X113385241Y-96364637D01*
X113620273Y-96521680D01*
X113881426Y-96629853D01*
X114158665Y-96685000D01*
X114441335Y-96685000D01*
X114718574Y-96629853D01*
X114979727Y-96521680D01*
X115214759Y-96364637D01*
X115414637Y-96164759D01*
X115570000Y-95932241D01*
X115725363Y-96164759D01*
X115925241Y-96364637D01*
X116160273Y-96521680D01*
X116421426Y-96629853D01*
X116698665Y-96685000D01*
X116981335Y-96685000D01*
X117258574Y-96629853D01*
X117519727Y-96521680D01*
X117754759Y-96364637D01*
X117953357Y-96166039D01*
X117954188Y-96174482D01*
X117990498Y-96294180D01*
X118049463Y-96404494D01*
X118128815Y-96501185D01*
X118225506Y-96580537D01*
X118335820Y-96639502D01*
X118455518Y-96675812D01*
X118580000Y-96688072D01*
X119094250Y-96685000D01*
X119253000Y-96526250D01*
X119253000Y-95377000D01*
X119507000Y-95377000D01*
X119507000Y-96526250D01*
X119665750Y-96685000D01*
X120180000Y-96688072D01*
X120304482Y-96675812D01*
X120424180Y-96639502D01*
X120534494Y-96580537D01*
X120631185Y-96501185D01*
X120710537Y-96404494D01*
X120769502Y-96294180D01*
X120805812Y-96174482D01*
X120818072Y-96050000D01*
X120815000Y-95535750D01*
X120656250Y-95377000D01*
X119507000Y-95377000D01*
X119253000Y-95377000D01*
X119233000Y-95377000D01*
X119233000Y-95123000D01*
X119253000Y-95123000D01*
X119253000Y-93973750D01*
X119507000Y-93973750D01*
X119507000Y-95123000D01*
X120656250Y-95123000D01*
X120670585Y-95108665D01*
X123105000Y-95108665D01*
X123105000Y-95391335D01*
X123160147Y-95668574D01*
X123268320Y-95929727D01*
X123425363Y-96164759D01*
X123625241Y-96364637D01*
X123860273Y-96521680D01*
X124121426Y-96629853D01*
X124398665Y-96685000D01*
X124681335Y-96685000D01*
X124958574Y-96629853D01*
X125219727Y-96521680D01*
X125454759Y-96364637D01*
X125654637Y-96164759D01*
X125811680Y-95929727D01*
X125919853Y-95668574D01*
X125975000Y-95391335D01*
X125975000Y-95108665D01*
X128105000Y-95108665D01*
X128105000Y-95391335D01*
X128160147Y-95668574D01*
X128268320Y-95929727D01*
X128425363Y-96164759D01*
X128625241Y-96364637D01*
X128860273Y-96521680D01*
X129121426Y-96629853D01*
X129398665Y-96685000D01*
X129681335Y-96685000D01*
X129958574Y-96629853D01*
X130219727Y-96521680D01*
X130454759Y-96364637D01*
X130654637Y-96164759D01*
X130811680Y-95929727D01*
X130919853Y-95668574D01*
X130975000Y-95391335D01*
X130975000Y-95108665D01*
X130947024Y-94968021D01*
X132190000Y-94968021D01*
X132190000Y-95531978D01*
X132206785Y-95702399D01*
X132273115Y-95921059D01*
X132380829Y-96122578D01*
X132525788Y-96299212D01*
X132702421Y-96444171D01*
X132903940Y-96551885D01*
X133122600Y-96618215D01*
X133350000Y-96640612D01*
X133577399Y-96618215D01*
X133796059Y-96551885D01*
X133985000Y-96450894D01*
X134173940Y-96551885D01*
X134392600Y-96618215D01*
X134620000Y-96640612D01*
X134847399Y-96618215D01*
X135056098Y-96554907D01*
X135120820Y-96589502D01*
X135240518Y-96625812D01*
X135365000Y-96638072D01*
X135604250Y-96635000D01*
X135763000Y-96476250D01*
X135763000Y-95703109D01*
X135763215Y-95702400D01*
X135780000Y-95531979D01*
X135780000Y-95377000D01*
X136017000Y-95377000D01*
X136017000Y-96476250D01*
X136175750Y-96635000D01*
X136415000Y-96638072D01*
X136539482Y-96625812D01*
X136659180Y-96589502D01*
X136769494Y-96530537D01*
X136866185Y-96451185D01*
X136945537Y-96354494D01*
X137004502Y-96244180D01*
X137021947Y-96186671D01*
X144757284Y-96186671D01*
X144880626Y-96393000D01*
X145923000Y-96393000D01*
X145923000Y-95349799D01*
X146177000Y-95349799D01*
X146177000Y-96393000D01*
X147219374Y-96393000D01*
X147222055Y-96388514D01*
X149795000Y-96388514D01*
X149795000Y-96651486D01*
X149846304Y-96909405D01*
X149946939Y-97152359D01*
X150093038Y-97371013D01*
X150278987Y-97556962D01*
X150497641Y-97703061D01*
X150740595Y-97803696D01*
X150998514Y-97855000D01*
X151261486Y-97855000D01*
X151519405Y-97803696D01*
X151762359Y-97703061D01*
X151829028Y-97658514D01*
X153585000Y-97658514D01*
X153585000Y-97921486D01*
X153636304Y-98179405D01*
X153736939Y-98422359D01*
X153883038Y-98641013D01*
X154068987Y-98826962D01*
X154287641Y-98973061D01*
X154507530Y-99064142D01*
X154307641Y-99146939D01*
X154088987Y-99293038D01*
X153903038Y-99478987D01*
X153756939Y-99697641D01*
X153656304Y-99940595D01*
X153605000Y-100198514D01*
X153605000Y-100461486D01*
X153656304Y-100719405D01*
X153756939Y-100962359D01*
X153903038Y-101181013D01*
X154088987Y-101366962D01*
X154307641Y-101513061D01*
X154517530Y-101600000D01*
X154307641Y-101686939D01*
X154088987Y-101833038D01*
X153903038Y-102018987D01*
X153756939Y-102237641D01*
X153656304Y-102480595D01*
X153605000Y-102738514D01*
X153605000Y-103001486D01*
X153656304Y-103259405D01*
X153756939Y-103502359D01*
X153903038Y-103721013D01*
X154088987Y-103906962D01*
X154307641Y-104053061D01*
X154517530Y-104140000D01*
X154307641Y-104226939D01*
X154088987Y-104373038D01*
X153903038Y-104558987D01*
X153756939Y-104777641D01*
X153656304Y-105020595D01*
X153605000Y-105278514D01*
X153605000Y-105541486D01*
X153656304Y-105799405D01*
X153756939Y-106042359D01*
X153903038Y-106261013D01*
X154088987Y-106446962D01*
X154307641Y-106593061D01*
X154550595Y-106693696D01*
X154808514Y-106745000D01*
X155071486Y-106745000D01*
X155329405Y-106693696D01*
X155572359Y-106593061D01*
X155791013Y-106446962D01*
X155976962Y-106261013D01*
X156123061Y-106042359D01*
X156223696Y-105799405D01*
X156275000Y-105541486D01*
X156275000Y-105278514D01*
X156223696Y-105020595D01*
X156123061Y-104777641D01*
X155976962Y-104558987D01*
X155791013Y-104373038D01*
X155572359Y-104226939D01*
X155362470Y-104140000D01*
X155572359Y-104053061D01*
X155791013Y-103906962D01*
X155976962Y-103721013D01*
X156123061Y-103502359D01*
X156223696Y-103259405D01*
X156275000Y-103001486D01*
X156275000Y-102738514D01*
X156223696Y-102480595D01*
X156123061Y-102237641D01*
X155976962Y-102018987D01*
X155791013Y-101833038D01*
X155572359Y-101686939D01*
X155362470Y-101600000D01*
X155572359Y-101513061D01*
X155791013Y-101366962D01*
X155976962Y-101181013D01*
X156123061Y-100962359D01*
X156223696Y-100719405D01*
X156275000Y-100461486D01*
X156275000Y-100198514D01*
X156223696Y-99940595D01*
X156123061Y-99697641D01*
X155976962Y-99478987D01*
X155791013Y-99293038D01*
X155572359Y-99146939D01*
X155352470Y-99055858D01*
X155552359Y-98973061D01*
X155771013Y-98826962D01*
X155956962Y-98641013D01*
X156103061Y-98422359D01*
X156203696Y-98179405D01*
X156255000Y-97921486D01*
X156255000Y-97658514D01*
X158665000Y-97658514D01*
X158665000Y-97921486D01*
X158716304Y-98179405D01*
X158816939Y-98422359D01*
X158963038Y-98641013D01*
X159148987Y-98826962D01*
X159367641Y-98973061D01*
X159587530Y-99064142D01*
X159387641Y-99146939D01*
X159168987Y-99293038D01*
X158983038Y-99478987D01*
X158836939Y-99697641D01*
X158736304Y-99940595D01*
X158685000Y-100198514D01*
X158685000Y-100461486D01*
X158736304Y-100719405D01*
X158836939Y-100962359D01*
X158983038Y-101181013D01*
X159168987Y-101366962D01*
X159387641Y-101513061D01*
X159597530Y-101600000D01*
X159387641Y-101686939D01*
X159168987Y-101833038D01*
X158983038Y-102018987D01*
X158836939Y-102237641D01*
X158736304Y-102480595D01*
X158685000Y-102738514D01*
X158685000Y-103001486D01*
X158736304Y-103259405D01*
X158836939Y-103502359D01*
X158983038Y-103721013D01*
X159168987Y-103906962D01*
X159387641Y-104053061D01*
X159597530Y-104140000D01*
X159387641Y-104226939D01*
X159168987Y-104373038D01*
X158983038Y-104558987D01*
X158836939Y-104777641D01*
X158736304Y-105020595D01*
X158685000Y-105278514D01*
X158685000Y-105541486D01*
X158736304Y-105799405D01*
X158836939Y-106042359D01*
X158983038Y-106261013D01*
X159168987Y-106446962D01*
X159387641Y-106593061D01*
X159630595Y-106693696D01*
X159888514Y-106745000D01*
X160151486Y-106745000D01*
X160409405Y-106693696D01*
X160652359Y-106593061D01*
X160871013Y-106446962D01*
X161056962Y-106261013D01*
X161203061Y-106042359D01*
X161303696Y-105799405D01*
X161355000Y-105541486D01*
X161355000Y-105278514D01*
X161303696Y-105020595D01*
X161203061Y-104777641D01*
X161056962Y-104558987D01*
X160871013Y-104373038D01*
X160652359Y-104226939D01*
X160442470Y-104140000D01*
X160652359Y-104053061D01*
X160871013Y-103906962D01*
X161056962Y-103721013D01*
X161203061Y-103502359D01*
X161303696Y-103259405D01*
X161355000Y-103001486D01*
X161355000Y-102738514D01*
X161303696Y-102480595D01*
X161203061Y-102237641D01*
X161056962Y-102018987D01*
X160871013Y-101833038D01*
X160652359Y-101686939D01*
X160442470Y-101600000D01*
X160652359Y-101513061D01*
X160871013Y-101366962D01*
X161056962Y-101181013D01*
X161203061Y-100962359D01*
X161303696Y-100719405D01*
X161355000Y-100461486D01*
X161355000Y-100198514D01*
X161303696Y-99940595D01*
X161203061Y-99697641D01*
X161056962Y-99478987D01*
X160871013Y-99293038D01*
X160652359Y-99146939D01*
X160432470Y-99055858D01*
X160632359Y-98973061D01*
X160851013Y-98826962D01*
X161036962Y-98641013D01*
X161183061Y-98422359D01*
X161283696Y-98179405D01*
X161335000Y-97921486D01*
X161335000Y-97658514D01*
X161283696Y-97400595D01*
X161183061Y-97157641D01*
X161036962Y-96938987D01*
X160851013Y-96753038D01*
X160632359Y-96606939D01*
X160432470Y-96524142D01*
X160652359Y-96433061D01*
X160871013Y-96286962D01*
X161056962Y-96101013D01*
X161203061Y-95882359D01*
X161303696Y-95639405D01*
X161355000Y-95381486D01*
X161355000Y-95118514D01*
X161303696Y-94860595D01*
X161203061Y-94617641D01*
X161056962Y-94398987D01*
X160871013Y-94213038D01*
X160652359Y-94066939D01*
X160409405Y-93966304D01*
X160151486Y-93915000D01*
X159888514Y-93915000D01*
X159630595Y-93966304D01*
X159387641Y-94066939D01*
X159168987Y-94213038D01*
X158983038Y-94398987D01*
X158836939Y-94617641D01*
X158736304Y-94860595D01*
X158685000Y-95118514D01*
X158685000Y-95381486D01*
X158736304Y-95639405D01*
X158836939Y-95882359D01*
X158983038Y-96101013D01*
X159168987Y-96286962D01*
X159387641Y-96433061D01*
X159587530Y-96515858D01*
X159367641Y-96606939D01*
X159148987Y-96753038D01*
X158963038Y-96938987D01*
X158816939Y-97157641D01*
X158716304Y-97400595D01*
X158665000Y-97658514D01*
X156255000Y-97658514D01*
X156203696Y-97400595D01*
X156103061Y-97157641D01*
X155956962Y-96938987D01*
X155771013Y-96753038D01*
X155552359Y-96606939D01*
X155352470Y-96524142D01*
X155572359Y-96433061D01*
X155791013Y-96286962D01*
X155976962Y-96101013D01*
X156123061Y-95882359D01*
X156223696Y-95639405D01*
X156275000Y-95381486D01*
X156275000Y-95118514D01*
X156223696Y-94860595D01*
X156123061Y-94617641D01*
X155976962Y-94398987D01*
X155791013Y-94213038D01*
X155572359Y-94066939D01*
X155329405Y-93966304D01*
X155071486Y-93915000D01*
X154808514Y-93915000D01*
X154550595Y-93966304D01*
X154307641Y-94066939D01*
X154088987Y-94213038D01*
X153903038Y-94398987D01*
X153756939Y-94617641D01*
X153656304Y-94860595D01*
X153605000Y-95118514D01*
X153605000Y-95381486D01*
X153656304Y-95639405D01*
X153756939Y-95882359D01*
X153903038Y-96101013D01*
X154088987Y-96286962D01*
X154307641Y-96433061D01*
X154507530Y-96515858D01*
X154287641Y-96606939D01*
X154068987Y-96753038D01*
X153883038Y-96938987D01*
X153736939Y-97157641D01*
X153636304Y-97400595D01*
X153585000Y-97658514D01*
X151829028Y-97658514D01*
X151981013Y-97556962D01*
X152166962Y-97371013D01*
X152313061Y-97152359D01*
X152413696Y-96909405D01*
X152465000Y-96651486D01*
X152465000Y-96388514D01*
X152413696Y-96130595D01*
X152313061Y-95887641D01*
X152166962Y-95668987D01*
X151981013Y-95483038D01*
X151762359Y-95336939D01*
X151519405Y-95236304D01*
X151261486Y-95185000D01*
X150998514Y-95185000D01*
X150740595Y-95236304D01*
X150497641Y-95336939D01*
X150278987Y-95483038D01*
X150093038Y-95668987D01*
X149946939Y-95887641D01*
X149846304Y-96130595D01*
X149795000Y-96388514D01*
X147222055Y-96388514D01*
X147342716Y-96186671D01*
X147310047Y-96078956D01*
X147199792Y-95841608D01*
X147045351Y-95630330D01*
X146852660Y-95453241D01*
X146629123Y-95317147D01*
X146383330Y-95227278D01*
X146177000Y-95349799D01*
X145923000Y-95349799D01*
X145716670Y-95227278D01*
X145470877Y-95317147D01*
X145247340Y-95453241D01*
X145054649Y-95630330D01*
X144900208Y-95841608D01*
X144789953Y-96078956D01*
X144757284Y-96186671D01*
X137021947Y-96186671D01*
X137040812Y-96124482D01*
X137053072Y-96000000D01*
X137050000Y-95535750D01*
X136891250Y-95377000D01*
X136017000Y-95377000D01*
X135780000Y-95377000D01*
X135780000Y-94968022D01*
X135763215Y-94797601D01*
X135763000Y-94796892D01*
X135763000Y-94023750D01*
X136017000Y-94023750D01*
X136017000Y-95123000D01*
X136891250Y-95123000D01*
X137050000Y-94964250D01*
X137053072Y-94500000D01*
X137040812Y-94375518D01*
X137004502Y-94255820D01*
X136945537Y-94145506D01*
X136866185Y-94048815D01*
X136769494Y-93969463D01*
X136659180Y-93910498D01*
X136539482Y-93874188D01*
X136415000Y-93861928D01*
X136175750Y-93865000D01*
X136017000Y-94023750D01*
X135763000Y-94023750D01*
X135604250Y-93865000D01*
X135365000Y-93861928D01*
X135240518Y-93874188D01*
X135120820Y-93910498D01*
X135056098Y-93945093D01*
X134847400Y-93881785D01*
X134620000Y-93859388D01*
X134392601Y-93881785D01*
X134173941Y-93948115D01*
X133985000Y-94049106D01*
X133796060Y-93948115D01*
X133577400Y-93881785D01*
X133350000Y-93859388D01*
X133122601Y-93881785D01*
X132903941Y-93948115D01*
X132702422Y-94055829D01*
X132525789Y-94200788D01*
X132380830Y-94377421D01*
X132273115Y-94578940D01*
X132206785Y-94797600D01*
X132190000Y-94968021D01*
X130947024Y-94968021D01*
X130919853Y-94831426D01*
X130811680Y-94570273D01*
X130654637Y-94335241D01*
X130454759Y-94135363D01*
X130219727Y-93978320D01*
X129958574Y-93870147D01*
X129681335Y-93815000D01*
X129398665Y-93815000D01*
X129121426Y-93870147D01*
X128860273Y-93978320D01*
X128625241Y-94135363D01*
X128425363Y-94335241D01*
X128268320Y-94570273D01*
X128160147Y-94831426D01*
X128105000Y-95108665D01*
X125975000Y-95108665D01*
X125919853Y-94831426D01*
X125811680Y-94570273D01*
X125654637Y-94335241D01*
X125454759Y-94135363D01*
X125219727Y-93978320D01*
X124958574Y-93870147D01*
X124681335Y-93815000D01*
X124398665Y-93815000D01*
X124121426Y-93870147D01*
X123860273Y-93978320D01*
X123625241Y-94135363D01*
X123425363Y-94335241D01*
X123268320Y-94570273D01*
X123160147Y-94831426D01*
X123105000Y-95108665D01*
X120670585Y-95108665D01*
X120815000Y-94964250D01*
X120818072Y-94450000D01*
X120805812Y-94325518D01*
X120769502Y-94205820D01*
X120710537Y-94095506D01*
X120631185Y-93998815D01*
X120534494Y-93919463D01*
X120424180Y-93860498D01*
X120304482Y-93824188D01*
X120180000Y-93811928D01*
X119665750Y-93815000D01*
X119507000Y-93973750D01*
X119253000Y-93973750D01*
X119094250Y-93815000D01*
X118580000Y-93811928D01*
X118455518Y-93824188D01*
X118335820Y-93860498D01*
X118225506Y-93919463D01*
X118128815Y-93998815D01*
X118049463Y-94095506D01*
X117990498Y-94205820D01*
X117954188Y-94325518D01*
X117953357Y-94333961D01*
X117754759Y-94135363D01*
X117519727Y-93978320D01*
X117258574Y-93870147D01*
X116981335Y-93815000D01*
X116698665Y-93815000D01*
X116421426Y-93870147D01*
X116160273Y-93978320D01*
X115925241Y-94135363D01*
X115725363Y-94335241D01*
X115570000Y-94567759D01*
X115414637Y-94335241D01*
X115214759Y-94135363D01*
X114979727Y-93978320D01*
X114718574Y-93870147D01*
X114441335Y-93815000D01*
X114158665Y-93815000D01*
X113881426Y-93870147D01*
X113620273Y-93978320D01*
X113385241Y-94135363D01*
X113185363Y-94335241D01*
X113030000Y-94567759D01*
X112874637Y-94335241D01*
X112674759Y-94135363D01*
X112439727Y-93978320D01*
X112178574Y-93870147D01*
X111901335Y-93815000D01*
X111618665Y-93815000D01*
X111341426Y-93870147D01*
X111080273Y-93978320D01*
X110845241Y-94135363D01*
X110645363Y-94335241D01*
X110488320Y-94570273D01*
X110380147Y-94831426D01*
X110325000Y-95108665D01*
X107152166Y-95108665D01*
X107215000Y-94792777D01*
X107215000Y-94437223D01*
X107145635Y-94088501D01*
X107009571Y-93760012D01*
X106812035Y-93464379D01*
X106560621Y-93212965D01*
X106306744Y-93043329D01*
X144757284Y-93043329D01*
X144789953Y-93151044D01*
X144900208Y-93388392D01*
X145054649Y-93599670D01*
X145247340Y-93776759D01*
X145470877Y-93912853D01*
X145716670Y-94002722D01*
X145923000Y-93880201D01*
X145923000Y-92837000D01*
X146177000Y-92837000D01*
X146177000Y-93880201D01*
X146383330Y-94002722D01*
X146629123Y-93912853D01*
X146852660Y-93776759D01*
X147045351Y-93599670D01*
X147199792Y-93388392D01*
X147310047Y-93151044D01*
X147342716Y-93043329D01*
X147219374Y-92837000D01*
X146177000Y-92837000D01*
X145923000Y-92837000D01*
X144880626Y-92837000D01*
X144757284Y-93043329D01*
X106306744Y-93043329D01*
X106264988Y-93015429D01*
X105936499Y-92879365D01*
X105587777Y-92810000D01*
X105232223Y-92810000D01*
X104883501Y-92879365D01*
X104555012Y-93015429D01*
X104259379Y-93212965D01*
X104007965Y-93464379D01*
X103810429Y-93760012D01*
X103674365Y-94088501D01*
X103605000Y-94437223D01*
X103530000Y-94437223D01*
X103530000Y-89437223D01*
X103605000Y-89437223D01*
X103605000Y-89792777D01*
X103674365Y-90141499D01*
X103810429Y-90469988D01*
X104007965Y-90765621D01*
X104259379Y-91017035D01*
X104555012Y-91214571D01*
X104883501Y-91350635D01*
X105232223Y-91420000D01*
X105587777Y-91420000D01*
X105936499Y-91350635D01*
X106038188Y-91308514D01*
X110425000Y-91308514D01*
X110425000Y-91571486D01*
X110476304Y-91829405D01*
X110576939Y-92072359D01*
X110723038Y-92291013D01*
X110908987Y-92476962D01*
X111127641Y-92623061D01*
X111370595Y-92723696D01*
X111628514Y-92775000D01*
X111891486Y-92775000D01*
X112149405Y-92723696D01*
X112392359Y-92623061D01*
X112611013Y-92476962D01*
X112796962Y-92291013D01*
X112943061Y-92072359D01*
X113043696Y-91829405D01*
X113095000Y-91571486D01*
X113095000Y-91308514D01*
X115505000Y-91308514D01*
X115505000Y-91571486D01*
X115556304Y-91829405D01*
X115656939Y-92072359D01*
X115803038Y-92291013D01*
X115988987Y-92476962D01*
X116207641Y-92623061D01*
X116450595Y-92723696D01*
X116708514Y-92775000D01*
X116971486Y-92775000D01*
X117229405Y-92723696D01*
X117472359Y-92623061D01*
X117691013Y-92476962D01*
X117876962Y-92291013D01*
X118023061Y-92072359D01*
X118123696Y-91829405D01*
X118175000Y-91571486D01*
X118175000Y-91308514D01*
X118173041Y-91298665D01*
X123105000Y-91298665D01*
X123105000Y-91581335D01*
X123160147Y-91858574D01*
X123268320Y-92119727D01*
X123425363Y-92354759D01*
X123625241Y-92554637D01*
X123860273Y-92711680D01*
X124121426Y-92819853D01*
X124398665Y-92875000D01*
X124681335Y-92875000D01*
X124958574Y-92819853D01*
X125219727Y-92711680D01*
X125454759Y-92554637D01*
X125576694Y-92432702D01*
X128726903Y-92432702D01*
X128798486Y-92676671D01*
X129053996Y-92797571D01*
X129328184Y-92866300D01*
X129610512Y-92880217D01*
X129890130Y-92838787D01*
X130156292Y-92743603D01*
X130281514Y-92676671D01*
X130353097Y-92432702D01*
X129540000Y-91619605D01*
X128726903Y-92432702D01*
X125576694Y-92432702D01*
X125654637Y-92354759D01*
X125811680Y-92119727D01*
X125919853Y-91858574D01*
X125975000Y-91581335D01*
X125975000Y-91510512D01*
X128099783Y-91510512D01*
X128141213Y-91790130D01*
X128236397Y-92056292D01*
X128303329Y-92181514D01*
X128547298Y-92253097D01*
X129360395Y-91440000D01*
X129719605Y-91440000D01*
X130532702Y-92253097D01*
X130776671Y-92181514D01*
X130897571Y-91926004D01*
X130966300Y-91651816D01*
X130980217Y-91369488D01*
X130948885Y-91158021D01*
X138540000Y-91158021D01*
X138540000Y-91721978D01*
X138556785Y-91892399D01*
X138623115Y-92111059D01*
X138730829Y-92312578D01*
X138875788Y-92489212D01*
X139052421Y-92634171D01*
X139253940Y-92741885D01*
X139472600Y-92808215D01*
X139700000Y-92830612D01*
X139927399Y-92808215D01*
X140146059Y-92741885D01*
X140335000Y-92640894D01*
X140523940Y-92741885D01*
X140742600Y-92808215D01*
X140970000Y-92830612D01*
X141197399Y-92808215D01*
X141406098Y-92744907D01*
X141470820Y-92779502D01*
X141590518Y-92815812D01*
X141715000Y-92828072D01*
X141954250Y-92825000D01*
X142113000Y-92666250D01*
X142113000Y-91893109D01*
X142113215Y-91892400D01*
X142130000Y-91721979D01*
X142130000Y-91567000D01*
X142367000Y-91567000D01*
X142367000Y-92666250D01*
X142525750Y-92825000D01*
X142765000Y-92828072D01*
X142889482Y-92815812D01*
X143009180Y-92779502D01*
X143119494Y-92720537D01*
X143216185Y-92641185D01*
X143295537Y-92544494D01*
X143354502Y-92434180D01*
X143371947Y-92376671D01*
X144757284Y-92376671D01*
X144880626Y-92583000D01*
X145923000Y-92583000D01*
X145923000Y-91539799D01*
X146177000Y-91539799D01*
X146177000Y-92583000D01*
X147219374Y-92583000D01*
X147222055Y-92578514D01*
X149795000Y-92578514D01*
X149795000Y-92841486D01*
X149846304Y-93099405D01*
X149946939Y-93342359D01*
X150093038Y-93561013D01*
X150278987Y-93746962D01*
X150497641Y-93893061D01*
X150740595Y-93993696D01*
X150998514Y-94045000D01*
X151261486Y-94045000D01*
X151519405Y-93993696D01*
X151762359Y-93893061D01*
X151981013Y-93746962D01*
X152166962Y-93561013D01*
X152313061Y-93342359D01*
X152413696Y-93099405D01*
X152465000Y-92841486D01*
X152465000Y-92578514D01*
X152413696Y-92320595D01*
X152313061Y-92077641D01*
X152166962Y-91858987D01*
X151981013Y-91673038D01*
X151762359Y-91526939D01*
X151519405Y-91426304D01*
X151261486Y-91375000D01*
X150998514Y-91375000D01*
X150740595Y-91426304D01*
X150497641Y-91526939D01*
X150278987Y-91673038D01*
X150093038Y-91858987D01*
X149946939Y-92077641D01*
X149846304Y-92320595D01*
X149795000Y-92578514D01*
X147222055Y-92578514D01*
X147342716Y-92376671D01*
X147310047Y-92268956D01*
X147199792Y-92031608D01*
X147045351Y-91820330D01*
X146852660Y-91643241D01*
X146629123Y-91507147D01*
X146383330Y-91417278D01*
X146177000Y-91539799D01*
X145923000Y-91539799D01*
X145716670Y-91417278D01*
X145470877Y-91507147D01*
X145247340Y-91643241D01*
X145054649Y-91820330D01*
X144900208Y-92031608D01*
X144789953Y-92268956D01*
X144757284Y-92376671D01*
X143371947Y-92376671D01*
X143390812Y-92314482D01*
X143403072Y-92190000D01*
X143400000Y-91725750D01*
X143241250Y-91567000D01*
X142367000Y-91567000D01*
X142130000Y-91567000D01*
X142130000Y-91158022D01*
X142113215Y-90987601D01*
X142113000Y-90986892D01*
X142113000Y-90213750D01*
X142367000Y-90213750D01*
X142367000Y-91313000D01*
X143241250Y-91313000D01*
X143400000Y-91154250D01*
X143403072Y-90690000D01*
X143390812Y-90565518D01*
X143354502Y-90445820D01*
X143295537Y-90335506D01*
X143216185Y-90238815D01*
X143119494Y-90159463D01*
X143009180Y-90100498D01*
X142889482Y-90064188D01*
X142765000Y-90051928D01*
X142525750Y-90055000D01*
X142367000Y-90213750D01*
X142113000Y-90213750D01*
X141954250Y-90055000D01*
X141715000Y-90051928D01*
X141590518Y-90064188D01*
X141470820Y-90100498D01*
X141406098Y-90135093D01*
X141197400Y-90071785D01*
X140970000Y-90049388D01*
X140742601Y-90071785D01*
X140523941Y-90138115D01*
X140335001Y-90239106D01*
X140146060Y-90138115D01*
X139927400Y-90071785D01*
X139700000Y-90049388D01*
X139472601Y-90071785D01*
X139253941Y-90138115D01*
X139052422Y-90245829D01*
X138875789Y-90390788D01*
X138730830Y-90567421D01*
X138623115Y-90768940D01*
X138556785Y-90987600D01*
X138540000Y-91158021D01*
X130948885Y-91158021D01*
X130938787Y-91089870D01*
X130843603Y-90823708D01*
X130776671Y-90698486D01*
X130532702Y-90626903D01*
X129719605Y-91440000D01*
X129360395Y-91440000D01*
X128547298Y-90626903D01*
X128303329Y-90698486D01*
X128182429Y-90953996D01*
X128113700Y-91228184D01*
X128099783Y-91510512D01*
X125975000Y-91510512D01*
X125975000Y-91298665D01*
X125919853Y-91021426D01*
X125811680Y-90760273D01*
X125654637Y-90525241D01*
X125576694Y-90447298D01*
X128726903Y-90447298D01*
X129540000Y-91260395D01*
X130353097Y-90447298D01*
X130281514Y-90203329D01*
X130026004Y-90082429D01*
X129791870Y-90023740D01*
X163515000Y-90023740D01*
X163515000Y-90316260D01*
X163572068Y-90603158D01*
X163684010Y-90873411D01*
X163846525Y-91116632D01*
X164053368Y-91323475D01*
X164227760Y-91440000D01*
X164053368Y-91556525D01*
X163846525Y-91763368D01*
X163684010Y-92006589D01*
X163572068Y-92276842D01*
X163515000Y-92563740D01*
X163515000Y-92856260D01*
X163572068Y-93143158D01*
X163684010Y-93413411D01*
X163846525Y-93656632D01*
X164053368Y-93863475D01*
X164227760Y-93980000D01*
X164053368Y-94096525D01*
X163846525Y-94303368D01*
X163684010Y-94546589D01*
X163572068Y-94816842D01*
X163515000Y-95103740D01*
X163515000Y-95396260D01*
X163572068Y-95683158D01*
X163684010Y-95953411D01*
X163846525Y-96196632D01*
X164053368Y-96403475D01*
X164227760Y-96520000D01*
X164053368Y-96636525D01*
X163846525Y-96843368D01*
X163684010Y-97086589D01*
X163572068Y-97356842D01*
X163515000Y-97643740D01*
X163515000Y-97936260D01*
X163572068Y-98223158D01*
X163684010Y-98493411D01*
X163846525Y-98736632D01*
X164053368Y-98943475D01*
X164227760Y-99060000D01*
X164053368Y-99176525D01*
X163846525Y-99383368D01*
X163684010Y-99626589D01*
X163572068Y-99896842D01*
X163515000Y-100183740D01*
X163515000Y-100476260D01*
X163572068Y-100763158D01*
X163684010Y-101033411D01*
X163846525Y-101276632D01*
X164053368Y-101483475D01*
X164227760Y-101600000D01*
X164053368Y-101716525D01*
X163846525Y-101923368D01*
X163684010Y-102166589D01*
X163572068Y-102436842D01*
X163515000Y-102723740D01*
X163515000Y-103016260D01*
X163572068Y-103303158D01*
X163684010Y-103573411D01*
X163846525Y-103816632D01*
X164053368Y-104023475D01*
X164227760Y-104140000D01*
X164053368Y-104256525D01*
X163846525Y-104463368D01*
X163684010Y-104706589D01*
X163572068Y-104976842D01*
X163515000Y-105263740D01*
X163515000Y-105556260D01*
X163572068Y-105843158D01*
X163684010Y-106113411D01*
X163846525Y-106356632D01*
X164053368Y-106563475D01*
X164296589Y-106725990D01*
X164566842Y-106837932D01*
X164853740Y-106895000D01*
X165146260Y-106895000D01*
X165433158Y-106837932D01*
X165703411Y-106725990D01*
X165946632Y-106563475D01*
X166153475Y-106356632D01*
X166315990Y-106113411D01*
X166427932Y-105843158D01*
X166485000Y-105556260D01*
X166485000Y-105263740D01*
X166427932Y-104976842D01*
X166315990Y-104706589D01*
X166153475Y-104463368D01*
X165946632Y-104256525D01*
X165772240Y-104140000D01*
X165946632Y-104023475D01*
X166153475Y-103816632D01*
X166315990Y-103573411D01*
X166427932Y-103303158D01*
X166485000Y-103016260D01*
X166485000Y-102723740D01*
X166427932Y-102436842D01*
X166315990Y-102166589D01*
X166153475Y-101923368D01*
X165946632Y-101716525D01*
X165772240Y-101600000D01*
X165946632Y-101483475D01*
X166153475Y-101276632D01*
X166315990Y-101033411D01*
X166427932Y-100763158D01*
X166485000Y-100476260D01*
X166485000Y-100183740D01*
X166427932Y-99896842D01*
X166315990Y-99626589D01*
X166153475Y-99383368D01*
X165946632Y-99176525D01*
X165772240Y-99060000D01*
X165946632Y-98943475D01*
X166153475Y-98736632D01*
X166315990Y-98493411D01*
X166427932Y-98223158D01*
X166485000Y-97936260D01*
X166485000Y-97643740D01*
X166427932Y-97356842D01*
X166315990Y-97086589D01*
X166153475Y-96843368D01*
X165946632Y-96636525D01*
X165772240Y-96520000D01*
X165946632Y-96403475D01*
X166153475Y-96196632D01*
X166315990Y-95953411D01*
X166427932Y-95683158D01*
X166485000Y-95396260D01*
X166485000Y-95103740D01*
X166427932Y-94816842D01*
X166315990Y-94546589D01*
X166153475Y-94303368D01*
X165946632Y-94096525D01*
X165772240Y-93980000D01*
X165946632Y-93863475D01*
X166153475Y-93656632D01*
X166315990Y-93413411D01*
X166427932Y-93143158D01*
X166485000Y-92856260D01*
X166485000Y-92563740D01*
X166427932Y-92276842D01*
X166315990Y-92006589D01*
X166153475Y-91763368D01*
X165946632Y-91556525D01*
X165772240Y-91440000D01*
X165946632Y-91323475D01*
X166153475Y-91116632D01*
X166315990Y-90873411D01*
X166427932Y-90603158D01*
X166485000Y-90316260D01*
X166485000Y-90023740D01*
X166427932Y-89736842D01*
X166315990Y-89466589D01*
X166153475Y-89223368D01*
X165946632Y-89016525D01*
X165764466Y-88894805D01*
X165881355Y-88825178D01*
X166097588Y-88630269D01*
X166271641Y-88396920D01*
X166396825Y-88134099D01*
X166441476Y-87986890D01*
X166320155Y-87757000D01*
X165127000Y-87757000D01*
X165127000Y-87777000D01*
X164873000Y-87777000D01*
X164873000Y-87757000D01*
X163679845Y-87757000D01*
X163558524Y-87986890D01*
X163603175Y-88134099D01*
X163728359Y-88396920D01*
X163902412Y-88630269D01*
X164118645Y-88825178D01*
X164235534Y-88894805D01*
X164053368Y-89016525D01*
X163846525Y-89223368D01*
X163684010Y-89466589D01*
X163572068Y-89736842D01*
X163515000Y-90023740D01*
X129791870Y-90023740D01*
X129751816Y-90013700D01*
X129469488Y-89999783D01*
X129189870Y-90041213D01*
X128923708Y-90136397D01*
X128798486Y-90203329D01*
X128726903Y-90447298D01*
X125576694Y-90447298D01*
X125454759Y-90325363D01*
X125219727Y-90168320D01*
X124958574Y-90060147D01*
X124681335Y-90005000D01*
X124398665Y-90005000D01*
X124121426Y-90060147D01*
X123860273Y-90168320D01*
X123625241Y-90325363D01*
X123425363Y-90525241D01*
X123268320Y-90760273D01*
X123160147Y-91021426D01*
X123105000Y-91298665D01*
X118173041Y-91298665D01*
X118123696Y-91050595D01*
X118023061Y-90807641D01*
X117876962Y-90588987D01*
X117691013Y-90403038D01*
X117472359Y-90256939D01*
X117229405Y-90156304D01*
X116971486Y-90105000D01*
X116708514Y-90105000D01*
X116450595Y-90156304D01*
X116207641Y-90256939D01*
X115988987Y-90403038D01*
X115803038Y-90588987D01*
X115656939Y-90807641D01*
X115556304Y-91050595D01*
X115505000Y-91308514D01*
X113095000Y-91308514D01*
X113043696Y-91050595D01*
X112943061Y-90807641D01*
X112796962Y-90588987D01*
X112611013Y-90403038D01*
X112392359Y-90256939D01*
X112149405Y-90156304D01*
X111891486Y-90105000D01*
X111628514Y-90105000D01*
X111370595Y-90156304D01*
X111127641Y-90256939D01*
X110908987Y-90403038D01*
X110723038Y-90588987D01*
X110576939Y-90807641D01*
X110476304Y-91050595D01*
X110425000Y-91308514D01*
X106038188Y-91308514D01*
X106264988Y-91214571D01*
X106560621Y-91017035D01*
X106812035Y-90765621D01*
X107009571Y-90469988D01*
X107145635Y-90141499D01*
X107215000Y-89792777D01*
X107215000Y-89437223D01*
X107145635Y-89088501D01*
X107009571Y-88760012D01*
X106812035Y-88464379D01*
X106560621Y-88212965D01*
X106264988Y-88015429D01*
X105936499Y-87879365D01*
X105587777Y-87810000D01*
X105232223Y-87810000D01*
X104883501Y-87879365D01*
X104555012Y-88015429D01*
X104259379Y-88212965D01*
X104007965Y-88464379D01*
X103810429Y-88760012D01*
X103674365Y-89088501D01*
X103605000Y-89437223D01*
X103530000Y-89437223D01*
X103530000Y-86830000D01*
X110321928Y-86830000D01*
X110321928Y-88430000D01*
X110334188Y-88554482D01*
X110370498Y-88674180D01*
X110429463Y-88784494D01*
X110508815Y-88881185D01*
X110605506Y-88960537D01*
X110715820Y-89019502D01*
X110835518Y-89055812D01*
X110960000Y-89068072D01*
X112560000Y-89068072D01*
X112684482Y-89055812D01*
X112804180Y-89019502D01*
X112914494Y-88960537D01*
X113011185Y-88881185D01*
X113090537Y-88784494D01*
X113149502Y-88674180D01*
X113185812Y-88554482D01*
X113186643Y-88546039D01*
X113385241Y-88744637D01*
X113620273Y-88901680D01*
X113881426Y-89009853D01*
X114158665Y-89065000D01*
X114441335Y-89065000D01*
X114718574Y-89009853D01*
X114979727Y-88901680D01*
X115214759Y-88744637D01*
X115414637Y-88544759D01*
X115570000Y-88312241D01*
X115725363Y-88544759D01*
X115925241Y-88744637D01*
X116160273Y-88901680D01*
X116421426Y-89009853D01*
X116698665Y-89065000D01*
X116981335Y-89065000D01*
X117258574Y-89009853D01*
X117519727Y-88901680D01*
X117754759Y-88744637D01*
X117954637Y-88544759D01*
X118110000Y-88312241D01*
X118265363Y-88544759D01*
X118465241Y-88744637D01*
X118700273Y-88901680D01*
X118961426Y-89009853D01*
X119238665Y-89065000D01*
X119521335Y-89065000D01*
X119798574Y-89009853D01*
X120059727Y-88901680D01*
X120294759Y-88744637D01*
X120494637Y-88544759D01*
X120651680Y-88309727D01*
X120724669Y-88133514D01*
X124395000Y-88133514D01*
X124395000Y-88396486D01*
X124446304Y-88654405D01*
X124546939Y-88897359D01*
X124693038Y-89116013D01*
X124878987Y-89301962D01*
X125097641Y-89448061D01*
X125340595Y-89548696D01*
X125598514Y-89600000D01*
X125861486Y-89600000D01*
X126119405Y-89548696D01*
X126362359Y-89448061D01*
X126581013Y-89301962D01*
X126766962Y-89116013D01*
X126913061Y-88897359D01*
X127013696Y-88654405D01*
X127065000Y-88396486D01*
X127065000Y-88133514D01*
X129475000Y-88133514D01*
X129475000Y-88396486D01*
X129526304Y-88654405D01*
X129626939Y-88897359D01*
X129773038Y-89116013D01*
X129958987Y-89301962D01*
X130177641Y-89448061D01*
X130420595Y-89548696D01*
X130678514Y-89600000D01*
X130941486Y-89600000D01*
X131199405Y-89548696D01*
X131442359Y-89448061D01*
X131661013Y-89301962D01*
X131846962Y-89116013D01*
X131993061Y-88897359D01*
X132093696Y-88654405D01*
X132145000Y-88396486D01*
X132145000Y-88133514D01*
X132093696Y-87875595D01*
X131993061Y-87632641D01*
X131846962Y-87413987D01*
X131661013Y-87228038D01*
X131442359Y-87081939D01*
X131199405Y-86981304D01*
X130941486Y-86930000D01*
X130678514Y-86930000D01*
X130420595Y-86981304D01*
X130177641Y-87081939D01*
X129958987Y-87228038D01*
X129773038Y-87413987D01*
X129626939Y-87632641D01*
X129526304Y-87875595D01*
X129475000Y-88133514D01*
X127065000Y-88133514D01*
X127013696Y-87875595D01*
X126913061Y-87632641D01*
X126766962Y-87413987D01*
X126581013Y-87228038D01*
X126362359Y-87081939D01*
X126119405Y-86981304D01*
X125861486Y-86930000D01*
X125598514Y-86930000D01*
X125340595Y-86981304D01*
X125097641Y-87081939D01*
X124878987Y-87228038D01*
X124693038Y-87413987D01*
X124546939Y-87632641D01*
X124446304Y-87875595D01*
X124395000Y-88133514D01*
X120724669Y-88133514D01*
X120759853Y-88048574D01*
X120815000Y-87771335D01*
X120815000Y-87488665D01*
X120759853Y-87211426D01*
X120651680Y-86950273D01*
X120494637Y-86715241D01*
X120294759Y-86515363D01*
X120059727Y-86358320D01*
X119798574Y-86250147D01*
X119640306Y-86218665D01*
X121755000Y-86218665D01*
X121755000Y-86501335D01*
X121810147Y-86778574D01*
X121918320Y-87039727D01*
X122075363Y-87274759D01*
X122275241Y-87474637D01*
X122510273Y-87631680D01*
X122771426Y-87739853D01*
X123048665Y-87795000D01*
X123331335Y-87795000D01*
X123608574Y-87739853D01*
X123869727Y-87631680D01*
X124104759Y-87474637D01*
X124304637Y-87274759D01*
X124461680Y-87039727D01*
X124569853Y-86778574D01*
X124625000Y-86501335D01*
X124625000Y-86218665D01*
X124569853Y-85941426D01*
X124461680Y-85680273D01*
X124304637Y-85445241D01*
X124104759Y-85245363D01*
X123869727Y-85088320D01*
X123608574Y-84980147D01*
X123331335Y-84925000D01*
X123048665Y-84925000D01*
X122771426Y-84980147D01*
X122510273Y-85088320D01*
X122275241Y-85245363D01*
X122075363Y-85445241D01*
X121918320Y-85680273D01*
X121810147Y-85941426D01*
X121755000Y-86218665D01*
X119640306Y-86218665D01*
X119521335Y-86195000D01*
X119238665Y-86195000D01*
X118961426Y-86250147D01*
X118700273Y-86358320D01*
X118465241Y-86515363D01*
X118265363Y-86715241D01*
X118110000Y-86947759D01*
X117954637Y-86715241D01*
X117754759Y-86515363D01*
X117519727Y-86358320D01*
X117258574Y-86250147D01*
X116981335Y-86195000D01*
X116698665Y-86195000D01*
X116421426Y-86250147D01*
X116160273Y-86358320D01*
X115925241Y-86515363D01*
X115725363Y-86715241D01*
X115570000Y-86947759D01*
X115414637Y-86715241D01*
X115214759Y-86515363D01*
X114979727Y-86358320D01*
X114718574Y-86250147D01*
X114441335Y-86195000D01*
X114158665Y-86195000D01*
X113881426Y-86250147D01*
X113620273Y-86358320D01*
X113385241Y-86515363D01*
X113186643Y-86713961D01*
X113185812Y-86705518D01*
X113149502Y-86585820D01*
X113090537Y-86475506D01*
X113011185Y-86378815D01*
X112914494Y-86299463D01*
X112804180Y-86240498D01*
X112684482Y-86204188D01*
X112560000Y-86191928D01*
X110960000Y-86191928D01*
X110835518Y-86204188D01*
X110715820Y-86240498D01*
X110605506Y-86299463D01*
X110508815Y-86378815D01*
X110429463Y-86475506D01*
X110370498Y-86585820D01*
X110334188Y-86705518D01*
X110321928Y-86830000D01*
X103530000Y-86830000D01*
X103530000Y-84868514D01*
X124395000Y-84868514D01*
X124395000Y-85131486D01*
X124446304Y-85389405D01*
X124546939Y-85632359D01*
X124693038Y-85851013D01*
X124878987Y-86036962D01*
X125097641Y-86183061D01*
X125340595Y-86283696D01*
X125598514Y-86335000D01*
X125861486Y-86335000D01*
X126119405Y-86283696D01*
X126362359Y-86183061D01*
X126581013Y-86036962D01*
X126766962Y-85851013D01*
X126913061Y-85632359D01*
X127013696Y-85389405D01*
X127065000Y-85131486D01*
X127065000Y-84868514D01*
X129475000Y-84868514D01*
X129475000Y-85131486D01*
X129526304Y-85389405D01*
X129626939Y-85632359D01*
X129773038Y-85851013D01*
X129958987Y-86036962D01*
X130177641Y-86183061D01*
X130420595Y-86283696D01*
X130678514Y-86335000D01*
X130941486Y-86335000D01*
X131199405Y-86283696D01*
X131442359Y-86183061D01*
X131661013Y-86036962D01*
X131846962Y-85851013D01*
X131993061Y-85632359D01*
X132093696Y-85389405D01*
X132145000Y-85131486D01*
X132145000Y-84868514D01*
X132093696Y-84610595D01*
X131993061Y-84367641D01*
X131846962Y-84148987D01*
X131661013Y-83963038D01*
X131442359Y-83816939D01*
X131203647Y-83718061D01*
X134855000Y-83718061D01*
X134855000Y-83921939D01*
X134894774Y-84121898D01*
X134972795Y-84310256D01*
X135086063Y-84479774D01*
X135230226Y-84623937D01*
X135399744Y-84737205D01*
X135588102Y-84815226D01*
X135788061Y-84855000D01*
X135991939Y-84855000D01*
X136191898Y-84815226D01*
X136380256Y-84737205D01*
X136422468Y-84709000D01*
X142490797Y-84709000D01*
X142544557Y-84710871D01*
X142582274Y-84714945D01*
X142615325Y-84721110D01*
X142644547Y-84729024D01*
X142670980Y-84738583D01*
X142695684Y-84749941D01*
X142719674Y-84763520D01*
X142743865Y-84780010D01*
X142768875Y-84800214D01*
X142804866Y-84834262D01*
X142905241Y-84934637D01*
X143140273Y-85091680D01*
X143401426Y-85199853D01*
X143678665Y-85255000D01*
X143961335Y-85255000D01*
X144238574Y-85199853D01*
X144499727Y-85091680D01*
X144734759Y-84934637D01*
X144934637Y-84734759D01*
X145011316Y-84620000D01*
X145881928Y-84620000D01*
X145894188Y-84744482D01*
X145930498Y-84864180D01*
X145989463Y-84974494D01*
X146068815Y-85071185D01*
X146165506Y-85150537D01*
X146275820Y-85209502D01*
X146395518Y-85245812D01*
X146520000Y-85258072D01*
X147034250Y-85255000D01*
X147193000Y-85096250D01*
X147193000Y-83947000D01*
X147447000Y-83947000D01*
X147447000Y-85096250D01*
X147605750Y-85255000D01*
X148120000Y-85258072D01*
X148244482Y-85245812D01*
X148364180Y-85209502D01*
X148474494Y-85150537D01*
X148571185Y-85071185D01*
X148650537Y-84974494D01*
X148709502Y-84864180D01*
X148725117Y-84812702D01*
X152531903Y-84812702D01*
X152603486Y-85056671D01*
X152858996Y-85177571D01*
X153133184Y-85246300D01*
X153415512Y-85260217D01*
X153695130Y-85218787D01*
X153961292Y-85123603D01*
X154086514Y-85056671D01*
X154158097Y-84812702D01*
X153345000Y-83999605D01*
X152531903Y-84812702D01*
X148725117Y-84812702D01*
X148745812Y-84744482D01*
X148758072Y-84620000D01*
X148755000Y-84105750D01*
X148596250Y-83947000D01*
X147447000Y-83947000D01*
X147193000Y-83947000D01*
X146043750Y-83947000D01*
X145885000Y-84105750D01*
X145881928Y-84620000D01*
X145011316Y-84620000D01*
X145091680Y-84499727D01*
X145199853Y-84238574D01*
X145255000Y-83961335D01*
X145255000Y-83890512D01*
X151904783Y-83890512D01*
X151946213Y-84170130D01*
X152041397Y-84436292D01*
X152108329Y-84561514D01*
X152352298Y-84633097D01*
X153165395Y-83820000D01*
X153524605Y-83820000D01*
X154337702Y-84633097D01*
X154581671Y-84561514D01*
X154702571Y-84306004D01*
X154771300Y-84031816D01*
X154785217Y-83749488D01*
X154743787Y-83469870D01*
X154648603Y-83203708D01*
X154581671Y-83078486D01*
X154382340Y-83020000D01*
X155406928Y-83020000D01*
X155406928Y-84620000D01*
X155419188Y-84744482D01*
X155455498Y-84864180D01*
X155514463Y-84974494D01*
X155593815Y-85071185D01*
X155690506Y-85150537D01*
X155800820Y-85209502D01*
X155920518Y-85245812D01*
X156045000Y-85258072D01*
X157645000Y-85258072D01*
X157769482Y-85245812D01*
X157889180Y-85209502D01*
X157999494Y-85150537D01*
X158096185Y-85071185D01*
X158175537Y-84974494D01*
X158234502Y-84864180D01*
X158270812Y-84744482D01*
X158283072Y-84620000D01*
X158283072Y-84240000D01*
X163511928Y-84240000D01*
X163511928Y-85940000D01*
X163524188Y-86064482D01*
X163560498Y-86184180D01*
X163619463Y-86294494D01*
X163698815Y-86391185D01*
X163795506Y-86470537D01*
X163905820Y-86529502D01*
X163986466Y-86553966D01*
X163902412Y-86629731D01*
X163728359Y-86863080D01*
X163603175Y-87125901D01*
X163558524Y-87273110D01*
X163679845Y-87503000D01*
X164873000Y-87503000D01*
X164873000Y-87483000D01*
X165127000Y-87483000D01*
X165127000Y-87503000D01*
X166320155Y-87503000D01*
X166441476Y-87273110D01*
X166396825Y-87125901D01*
X166271641Y-86863080D01*
X166097588Y-86629731D01*
X166013534Y-86553966D01*
X166094180Y-86529502D01*
X166204494Y-86470537D01*
X166301185Y-86391185D01*
X166380537Y-86294494D01*
X166439502Y-86184180D01*
X166475812Y-86064482D01*
X166488072Y-85940000D01*
X166488072Y-84240000D01*
X166475812Y-84115518D01*
X166439502Y-83995820D01*
X166380537Y-83885506D01*
X166301185Y-83788815D01*
X166204494Y-83709463D01*
X166094180Y-83650498D01*
X165974482Y-83614188D01*
X165850000Y-83601928D01*
X164150000Y-83601928D01*
X164025518Y-83614188D01*
X163905820Y-83650498D01*
X163795506Y-83709463D01*
X163698815Y-83788815D01*
X163619463Y-83885506D01*
X163560498Y-83995820D01*
X163524188Y-84115518D01*
X163511928Y-84240000D01*
X158283072Y-84240000D01*
X158283072Y-83020000D01*
X158270812Y-82895518D01*
X158234502Y-82775820D01*
X158175537Y-82665506D01*
X158096185Y-82568815D01*
X157999494Y-82489463D01*
X157889180Y-82430498D01*
X157769482Y-82394188D01*
X157645000Y-82381928D01*
X156045000Y-82381928D01*
X155920518Y-82394188D01*
X155800820Y-82430498D01*
X155690506Y-82489463D01*
X155593815Y-82568815D01*
X155514463Y-82665506D01*
X155455498Y-82775820D01*
X155419188Y-82895518D01*
X155406928Y-83020000D01*
X154382340Y-83020000D01*
X154337702Y-83006903D01*
X153524605Y-83820000D01*
X153165395Y-83820000D01*
X152352298Y-83006903D01*
X152108329Y-83078486D01*
X151987429Y-83333996D01*
X151918700Y-83608184D01*
X151904783Y-83890512D01*
X145255000Y-83890512D01*
X145255000Y-83678665D01*
X145199853Y-83401426D01*
X145091680Y-83140273D01*
X145011317Y-83020000D01*
X145881928Y-83020000D01*
X145885000Y-83534250D01*
X146043750Y-83693000D01*
X147193000Y-83693000D01*
X147193000Y-82543750D01*
X147447000Y-82543750D01*
X147447000Y-83693000D01*
X148596250Y-83693000D01*
X148755000Y-83534250D01*
X148758072Y-83020000D01*
X148745812Y-82895518D01*
X148725118Y-82827298D01*
X152531903Y-82827298D01*
X153345000Y-83640395D01*
X154158097Y-82827298D01*
X154086514Y-82583329D01*
X153831004Y-82462429D01*
X153556816Y-82393700D01*
X153274488Y-82379783D01*
X152994870Y-82421213D01*
X152728708Y-82516397D01*
X152603486Y-82583329D01*
X152531903Y-82827298D01*
X148725118Y-82827298D01*
X148709502Y-82775820D01*
X148650537Y-82665506D01*
X148571185Y-82568815D01*
X148474494Y-82489463D01*
X148364180Y-82430498D01*
X148244482Y-82394188D01*
X148120000Y-82381928D01*
X147605750Y-82385000D01*
X147447000Y-82543750D01*
X147193000Y-82543750D01*
X147034250Y-82385000D01*
X146520000Y-82381928D01*
X146395518Y-82394188D01*
X146275820Y-82430498D01*
X146165506Y-82489463D01*
X146068815Y-82568815D01*
X145989463Y-82665506D01*
X145930498Y-82775820D01*
X145894188Y-82895518D01*
X145881928Y-83020000D01*
X145011317Y-83020000D01*
X144934637Y-82905241D01*
X144734759Y-82705363D01*
X144499727Y-82548320D01*
X144238574Y-82440147D01*
X143961335Y-82385000D01*
X143678665Y-82385000D01*
X143401426Y-82440147D01*
X143140273Y-82548320D01*
X142905241Y-82705363D01*
X142804852Y-82805752D01*
X142768883Y-82839779D01*
X142743865Y-82859989D01*
X142719674Y-82876479D01*
X142695684Y-82890058D01*
X142670980Y-82901416D01*
X142644547Y-82910975D01*
X142615325Y-82918889D01*
X142582274Y-82925054D01*
X142544557Y-82929128D01*
X142490787Y-82931000D01*
X136422468Y-82931000D01*
X136380256Y-82902795D01*
X136191898Y-82824774D01*
X135991939Y-82785000D01*
X135788061Y-82785000D01*
X135588102Y-82824774D01*
X135399744Y-82902795D01*
X135230226Y-83016063D01*
X135086063Y-83160226D01*
X134972795Y-83329744D01*
X134894774Y-83518102D01*
X134855000Y-83718061D01*
X131203647Y-83718061D01*
X131199405Y-83716304D01*
X130941486Y-83665000D01*
X130678514Y-83665000D01*
X130420595Y-83716304D01*
X130177641Y-83816939D01*
X129958987Y-83963038D01*
X129773038Y-84148987D01*
X129626939Y-84367641D01*
X129526304Y-84610595D01*
X129475000Y-84868514D01*
X127065000Y-84868514D01*
X127013696Y-84610595D01*
X126913061Y-84367641D01*
X126766962Y-84148987D01*
X126581013Y-83963038D01*
X126362359Y-83816939D01*
X126119405Y-83716304D01*
X125861486Y-83665000D01*
X125598514Y-83665000D01*
X125340595Y-83716304D01*
X125097641Y-83816939D01*
X124878987Y-83963038D01*
X124693038Y-84148987D01*
X124546939Y-84367641D01*
X124446304Y-84610595D01*
X124395000Y-84868514D01*
X103530000Y-84868514D01*
X103530000Y-79868665D01*
X110325000Y-79868665D01*
X110325000Y-80151335D01*
X110380147Y-80428574D01*
X110488320Y-80689727D01*
X110645363Y-80924759D01*
X110845241Y-81124637D01*
X111080273Y-81281680D01*
X111341426Y-81389853D01*
X111618665Y-81445000D01*
X111901335Y-81445000D01*
X112178574Y-81389853D01*
X112439727Y-81281680D01*
X112674759Y-81124637D01*
X112874637Y-80924759D01*
X113030000Y-80692241D01*
X113185363Y-80924759D01*
X113385241Y-81124637D01*
X113620273Y-81281680D01*
X113881426Y-81389853D01*
X114158665Y-81445000D01*
X114441335Y-81445000D01*
X114718574Y-81389853D01*
X114979727Y-81281680D01*
X115214759Y-81124637D01*
X115414637Y-80924759D01*
X115570000Y-80692241D01*
X115725363Y-80924759D01*
X115925241Y-81124637D01*
X116160273Y-81281680D01*
X116421426Y-81389853D01*
X116698665Y-81445000D01*
X116981335Y-81445000D01*
X117258574Y-81389853D01*
X117519727Y-81281680D01*
X117754759Y-81124637D01*
X117954637Y-80924759D01*
X118110000Y-80692241D01*
X118265363Y-80924759D01*
X118465241Y-81124637D01*
X118700273Y-81281680D01*
X118961426Y-81389853D01*
X119238665Y-81445000D01*
X119521335Y-81445000D01*
X119798574Y-81389853D01*
X120059727Y-81281680D01*
X120154035Y-81218665D01*
X121755000Y-81218665D01*
X121755000Y-81501335D01*
X121810147Y-81778574D01*
X121918320Y-82039727D01*
X122075363Y-82274759D01*
X122275241Y-82474637D01*
X122510273Y-82631680D01*
X122771426Y-82739853D01*
X123048665Y-82795000D01*
X123331335Y-82795000D01*
X123608574Y-82739853D01*
X123869727Y-82631680D01*
X124104759Y-82474637D01*
X124304637Y-82274759D01*
X124461680Y-82039727D01*
X124530688Y-81873126D01*
X124546939Y-81912359D01*
X124693038Y-82131013D01*
X124878987Y-82316962D01*
X125097641Y-82463061D01*
X125340595Y-82563696D01*
X125598514Y-82615000D01*
X125861486Y-82615000D01*
X126119405Y-82563696D01*
X126362359Y-82463061D01*
X126581013Y-82316962D01*
X126766962Y-82131013D01*
X126913061Y-81912359D01*
X127013696Y-81669405D01*
X127024850Y-81613329D01*
X129517284Y-81613329D01*
X129549953Y-81721044D01*
X129660208Y-81958392D01*
X129814649Y-82169670D01*
X130007340Y-82346759D01*
X130230877Y-82482853D01*
X130476670Y-82572722D01*
X130683000Y-82450201D01*
X130683000Y-81407000D01*
X130937000Y-81407000D01*
X130937000Y-82450201D01*
X131143330Y-82572722D01*
X131389123Y-82482853D01*
X131612660Y-82346759D01*
X131805351Y-82169670D01*
X131959792Y-81958392D01*
X132070047Y-81721044D01*
X132102716Y-81613329D01*
X131979374Y-81407000D01*
X130937000Y-81407000D01*
X130683000Y-81407000D01*
X129640626Y-81407000D01*
X129517284Y-81613329D01*
X127024850Y-81613329D01*
X127065000Y-81411486D01*
X127065000Y-81148514D01*
X127024851Y-80946671D01*
X129517284Y-80946671D01*
X129640626Y-81153000D01*
X130683000Y-81153000D01*
X130683000Y-80109799D01*
X130937000Y-80109799D01*
X130937000Y-81153000D01*
X131979374Y-81153000D01*
X132102716Y-80946671D01*
X132070047Y-80838956D01*
X131959792Y-80601608D01*
X131805351Y-80390330D01*
X131612660Y-80213241D01*
X131389123Y-80077147D01*
X131143330Y-79987278D01*
X130937000Y-80109799D01*
X130683000Y-80109799D01*
X130476670Y-79987278D01*
X130230877Y-80077147D01*
X130007340Y-80213241D01*
X129814649Y-80390330D01*
X129660208Y-80601608D01*
X129549953Y-80838956D01*
X129517284Y-80946671D01*
X127024851Y-80946671D01*
X127013696Y-80890595D01*
X126913061Y-80647641D01*
X126766962Y-80428987D01*
X126581013Y-80243038D01*
X126362359Y-80096939D01*
X126119405Y-79996304D01*
X125861486Y-79945000D01*
X125598514Y-79945000D01*
X125340595Y-79996304D01*
X125097641Y-80096939D01*
X124878987Y-80243038D01*
X124693038Y-80428987D01*
X124546939Y-80647641D01*
X124497551Y-80766874D01*
X124461680Y-80680273D01*
X124304637Y-80445241D01*
X124104759Y-80245363D01*
X123869727Y-80088320D01*
X123608574Y-79980147D01*
X123331335Y-79925000D01*
X123048665Y-79925000D01*
X122771426Y-79980147D01*
X122510273Y-80088320D01*
X122275241Y-80245363D01*
X122075363Y-80445241D01*
X121918320Y-80680273D01*
X121810147Y-80941426D01*
X121755000Y-81218665D01*
X120154035Y-81218665D01*
X120294759Y-81124637D01*
X120494637Y-80924759D01*
X120651680Y-80689727D01*
X120759853Y-80428574D01*
X120815000Y-80151335D01*
X120815000Y-79868665D01*
X120759853Y-79591426D01*
X120651680Y-79330273D01*
X120494637Y-79095241D01*
X120294759Y-78895363D01*
X120059727Y-78738320D01*
X119798574Y-78630147D01*
X119521335Y-78575000D01*
X119238665Y-78575000D01*
X118961426Y-78630147D01*
X118700273Y-78738320D01*
X118465241Y-78895363D01*
X118265363Y-79095241D01*
X118110000Y-79327759D01*
X117954637Y-79095241D01*
X117754759Y-78895363D01*
X117519727Y-78738320D01*
X117258574Y-78630147D01*
X116981335Y-78575000D01*
X116698665Y-78575000D01*
X116421426Y-78630147D01*
X116160273Y-78738320D01*
X115925241Y-78895363D01*
X115725363Y-79095241D01*
X115570000Y-79327759D01*
X115414637Y-79095241D01*
X115214759Y-78895363D01*
X114979727Y-78738320D01*
X114718574Y-78630147D01*
X114441335Y-78575000D01*
X114158665Y-78575000D01*
X113881426Y-78630147D01*
X113620273Y-78738320D01*
X113385241Y-78895363D01*
X113185363Y-79095241D01*
X113030000Y-79327759D01*
X112874637Y-79095241D01*
X112674759Y-78895363D01*
X112439727Y-78738320D01*
X112178574Y-78630147D01*
X111901335Y-78575000D01*
X111618665Y-78575000D01*
X111341426Y-78630147D01*
X111080273Y-78738320D01*
X110845241Y-78895363D01*
X110645363Y-79095241D01*
X110488320Y-79330273D01*
X110380147Y-79591426D01*
X110325000Y-79868665D01*
X103530000Y-79868665D01*
X103530000Y-78130000D01*
X166980000Y-78130000D01*
X166980001Y-111100000D01*
G37*
X166980001Y-111100000D02*
X103530000Y-111100000D01*
X103530000Y-108283329D01*
X144757284Y-108283329D01*
X144789953Y-108391044D01*
X144900208Y-108628392D01*
X145054649Y-108839670D01*
X145247340Y-109016759D01*
X145470877Y-109152853D01*
X145716670Y-109242722D01*
X145923000Y-109120201D01*
X145923000Y-108077000D01*
X146177000Y-108077000D01*
X146177000Y-109120201D01*
X146383330Y-109242722D01*
X146629123Y-109152853D01*
X146852660Y-109016759D01*
X147045351Y-108839670D01*
X147199792Y-108628392D01*
X147310047Y-108391044D01*
X147342716Y-108283329D01*
X147219374Y-108077000D01*
X146177000Y-108077000D01*
X145923000Y-108077000D01*
X144880626Y-108077000D01*
X144757284Y-108283329D01*
X103530000Y-108283329D01*
X103530000Y-106538665D01*
X110325000Y-106538665D01*
X110325000Y-106821335D01*
X110380147Y-107098574D01*
X110488320Y-107359727D01*
X110645363Y-107594759D01*
X110845241Y-107794637D01*
X111080273Y-107951680D01*
X111341426Y-108059853D01*
X111618665Y-108115000D01*
X111901335Y-108115000D01*
X112178574Y-108059853D01*
X112439727Y-107951680D01*
X112674759Y-107794637D01*
X112796694Y-107672702D01*
X115946903Y-107672702D01*
X116018486Y-107916671D01*
X116273996Y-108037571D01*
X116548184Y-108106300D01*
X116830512Y-108120217D01*
X117110130Y-108078787D01*
X117376292Y-107983603D01*
X117501514Y-107916671D01*
X117573097Y-107672702D01*
X116760000Y-106859605D01*
X115946903Y-107672702D01*
X112796694Y-107672702D01*
X112874637Y-107594759D01*
X113031680Y-107359727D01*
X113139853Y-107098574D01*
X113195000Y-106821335D01*
X113195000Y-106750512D01*
X115319783Y-106750512D01*
X115361213Y-107030130D01*
X115456397Y-107296292D01*
X115523329Y-107421514D01*
X115767298Y-107493097D01*
X116580395Y-106680000D01*
X116939605Y-106680000D01*
X117752702Y-107493097D01*
X117996671Y-107421514D01*
X118117571Y-107166004D01*
X118186300Y-106891816D01*
X118200217Y-106609488D01*
X118189724Y-106538665D01*
X123105000Y-106538665D01*
X123105000Y-106821335D01*
X123160147Y-107098574D01*
X123268320Y-107359727D01*
X123425363Y-107594759D01*
X123625241Y-107794637D01*
X123860273Y-107951680D01*
X124121426Y-108059853D01*
X124398665Y-108115000D01*
X124681335Y-108115000D01*
X124958574Y-108059853D01*
X125219727Y-107951680D01*
X125454759Y-107794637D01*
X125654637Y-107594759D01*
X125811680Y-107359727D01*
X125919853Y-107098574D01*
X125975000Y-106821335D01*
X125975000Y-106538665D01*
X128105000Y-106538665D01*
X128105000Y-106821335D01*
X128160147Y-107098574D01*
X128268320Y-107359727D01*
X128425363Y-107594759D01*
X128625241Y-107794637D01*
X128860273Y-107951680D01*
X129121426Y-108059853D01*
X129398665Y-108115000D01*
X129681335Y-108115000D01*
X129958574Y-108059853D01*
X130219727Y-107951680D01*
X130454759Y-107794637D01*
X130654637Y-107594759D01*
X130811680Y-107359727D01*
X130919853Y-107098574D01*
X130975000Y-106821335D01*
X130975000Y-106538665D01*
X130947024Y-106398021D01*
X138540000Y-106398021D01*
X138540000Y-106961978D01*
X138556785Y-107132399D01*
X138623115Y-107351059D01*
X138730829Y-107552578D01*
X138875788Y-107729212D01*
X139052421Y-107874171D01*
X139253940Y-107981885D01*
X139472600Y-108048215D01*
X139700000Y-108070612D01*
X139927399Y-108048215D01*
X140146059Y-107981885D01*
X140335000Y-107880894D01*
X140523940Y-107981885D01*
X140742600Y-108048215D01*
X140970000Y-108070612D01*
X141197399Y-108048215D01*
X141406098Y-107984907D01*
X141470820Y-108019502D01*
X141590518Y-108055812D01*
X141715000Y-108068072D01*
X141954250Y-108065000D01*
X142113000Y-107906250D01*
X142113000Y-107133109D01*
X142113215Y-107132400D01*
X142130000Y-106961979D01*
X142130000Y-106807000D01*
X142367000Y-106807000D01*
X142367000Y-107906250D01*
X142525750Y-108065000D01*
X142765000Y-108068072D01*
X142889482Y-108055812D01*
X143009180Y-108019502D01*
X143119494Y-107960537D01*
X143216185Y-107881185D01*
X143295537Y-107784494D01*
X143354502Y-107674180D01*
X143371947Y-107616671D01*
X144757284Y-107616671D01*
X144880626Y-107823000D01*
X145923000Y-107823000D01*
X145923000Y-106779799D01*
X146177000Y-106779799D01*
X146177000Y-107823000D01*
X147219374Y-107823000D01*
X147222055Y-107818514D01*
X149795000Y-107818514D01*
X149795000Y-108081486D01*
X149846304Y-108339405D01*
X149946939Y-108582359D01*
X150093038Y-108801013D01*
X150278987Y-108986962D01*
X150497641Y-109133061D01*
X150740595Y-109233696D01*
X150998514Y-109285000D01*
X151261486Y-109285000D01*
X151519405Y-109233696D01*
X151762359Y-109133061D01*
X151981013Y-108986962D01*
X152166962Y-108801013D01*
X152313061Y-108582359D01*
X152413696Y-108339405D01*
X152465000Y-108081486D01*
X152465000Y-107818514D01*
X152413696Y-107560595D01*
X152313061Y-107317641D01*
X152166962Y-107098987D01*
X151981013Y-106913038D01*
X151762359Y-106766939D01*
X151519405Y-106666304D01*
X151261486Y-106615000D01*
X150998514Y-106615000D01*
X150740595Y-106666304D01*
X150497641Y-106766939D01*
X150278987Y-106913038D01*
X150093038Y-107098987D01*
X149946939Y-107317641D01*
X149846304Y-107560595D01*
X149795000Y-107818514D01*
X147222055Y-107818514D01*
X147342716Y-107616671D01*
X147310047Y-107508956D01*
X147199792Y-107271608D01*
X147045351Y-107060330D01*
X146852660Y-106883241D01*
X146629123Y-106747147D01*
X146383330Y-106657278D01*
X146177000Y-106779799D01*
X145923000Y-106779799D01*
X145716670Y-106657278D01*
X145470877Y-106747147D01*
X145247340Y-106883241D01*
X145054649Y-107060330D01*
X144900208Y-107271608D01*
X144789953Y-107508956D01*
X144757284Y-107616671D01*
X143371947Y-107616671D01*
X143390812Y-107554482D01*
X143403072Y-107430000D01*
X143400000Y-106965750D01*
X143241250Y-106807000D01*
X142367000Y-106807000D01*
X142130000Y-106807000D01*
X142130000Y-106398022D01*
X142113215Y-106227601D01*
X142113000Y-106226892D01*
X142113000Y-105453750D01*
X142367000Y-105453750D01*
X142367000Y-106553000D01*
X143241250Y-106553000D01*
X143400000Y-106394250D01*
X143403072Y-105930000D01*
X143390812Y-105805518D01*
X143354502Y-105685820D01*
X143295537Y-105575506D01*
X143216185Y-105478815D01*
X143119494Y-105399463D01*
X143009180Y-105340498D01*
X142889482Y-105304188D01*
X142765000Y-105291928D01*
X142525750Y-105295000D01*
X142367000Y-105453750D01*
X142113000Y-105453750D01*
X141954250Y-105295000D01*
X141715000Y-105291928D01*
X141590518Y-105304188D01*
X141470820Y-105340498D01*
X141406098Y-105375093D01*
X141197400Y-105311785D01*
X140970000Y-105289388D01*
X140742601Y-105311785D01*
X140523941Y-105378115D01*
X140335000Y-105479106D01*
X140146060Y-105378115D01*
X139927400Y-105311785D01*
X139700000Y-105289388D01*
X139472601Y-105311785D01*
X139253941Y-105378115D01*
X139052422Y-105485829D01*
X138875789Y-105630788D01*
X138730830Y-105807421D01*
X138623115Y-106008940D01*
X138556785Y-106227600D01*
X138540000Y-106398021D01*
X130947024Y-106398021D01*
X130919853Y-106261426D01*
X130811680Y-106000273D01*
X130654637Y-105765241D01*
X130454759Y-105565363D01*
X130219727Y-105408320D01*
X129958574Y-105300147D01*
X129681335Y-105245000D01*
X129398665Y-105245000D01*
X129121426Y-105300147D01*
X128860273Y-105408320D01*
X128625241Y-105565363D01*
X128425363Y-105765241D01*
X128268320Y-106000273D01*
X128160147Y-106261426D01*
X128105000Y-106538665D01*
X125975000Y-106538665D01*
X125919853Y-106261426D01*
X125811680Y-106000273D01*
X125654637Y-105765241D01*
X125454759Y-105565363D01*
X125219727Y-105408320D01*
X124958574Y-105300147D01*
X124681335Y-105245000D01*
X124398665Y-105245000D01*
X124121426Y-105300147D01*
X123860273Y-105408320D01*
X123625241Y-105565363D01*
X123425363Y-105765241D01*
X123268320Y-106000273D01*
X123160147Y-106261426D01*
X123105000Y-106538665D01*
X118189724Y-106538665D01*
X118158787Y-106329870D01*
X118063603Y-106063708D01*
X117996671Y-105938486D01*
X117752702Y-105866903D01*
X116939605Y-106680000D01*
X116580395Y-106680000D01*
X115767298Y-105866903D01*
X115523329Y-105938486D01*
X115402429Y-106193996D01*
X115333700Y-106468184D01*
X115319783Y-106750512D01*
X113195000Y-106750512D01*
X113195000Y-106538665D01*
X113139853Y-106261426D01*
X113031680Y-106000273D01*
X112874637Y-105765241D01*
X112796694Y-105687298D01*
X115946903Y-105687298D01*
X116760000Y-106500395D01*
X117573097Y-105687298D01*
X117501514Y-105443329D01*
X117246004Y-105322429D01*
X116971816Y-105253700D01*
X116689488Y-105239783D01*
X116409870Y-105281213D01*
X116143708Y-105376397D01*
X116018486Y-105443329D01*
X115946903Y-105687298D01*
X112796694Y-105687298D01*
X112674759Y-105565363D01*
X112439727Y-105408320D01*
X112178574Y-105300147D01*
X111901335Y-105245000D01*
X111618665Y-105245000D01*
X111341426Y-105300147D01*
X111080273Y-105408320D01*
X110845241Y-105565363D01*
X110645363Y-105765241D01*
X110488320Y-106000273D01*
X110380147Y-106261426D01*
X110325000Y-106538665D01*
X103530000Y-106538665D01*
X103530000Y-104473329D01*
X144757284Y-104473329D01*
X144789953Y-104581044D01*
X144900208Y-104818392D01*
X145054649Y-105029670D01*
X145247340Y-105206759D01*
X145470877Y-105342853D01*
X145716670Y-105432722D01*
X145923000Y-105310201D01*
X145923000Y-104267000D01*
X146177000Y-104267000D01*
X146177000Y-105310201D01*
X146383330Y-105432722D01*
X146629123Y-105342853D01*
X146852660Y-105206759D01*
X147045351Y-105029670D01*
X147199792Y-104818392D01*
X147310047Y-104581044D01*
X147342716Y-104473329D01*
X147219374Y-104267000D01*
X146177000Y-104267000D01*
X145923000Y-104267000D01*
X144880626Y-104267000D01*
X144757284Y-104473329D01*
X103530000Y-104473329D01*
X103530000Y-102728665D01*
X110325000Y-102728665D01*
X110325000Y-103011335D01*
X110380147Y-103288574D01*
X110488320Y-103549727D01*
X110645363Y-103784759D01*
X110845241Y-103984637D01*
X111080273Y-104141680D01*
X111341426Y-104249853D01*
X111618665Y-104305000D01*
X111901335Y-104305000D01*
X112178574Y-104249853D01*
X112439727Y-104141680D01*
X112674759Y-103984637D01*
X112874637Y-103784759D01*
X113030000Y-103552241D01*
X113185363Y-103784759D01*
X113385241Y-103984637D01*
X113620273Y-104141680D01*
X113881426Y-104249853D01*
X114158665Y-104305000D01*
X114441335Y-104305000D01*
X114718574Y-104249853D01*
X114979727Y-104141680D01*
X115214759Y-103984637D01*
X115414637Y-103784759D01*
X115570000Y-103552241D01*
X115725363Y-103784759D01*
X115925241Y-103984637D01*
X116160273Y-104141680D01*
X116421426Y-104249853D01*
X116698665Y-104305000D01*
X116981335Y-104305000D01*
X117258574Y-104249853D01*
X117519727Y-104141680D01*
X117754759Y-103984637D01*
X117954637Y-103784759D01*
X118110000Y-103552241D01*
X118265363Y-103784759D01*
X118465241Y-103984637D01*
X118700273Y-104141680D01*
X118961426Y-104249853D01*
X119238665Y-104305000D01*
X119521335Y-104305000D01*
X119798574Y-104249853D01*
X120059727Y-104141680D01*
X120294759Y-103984637D01*
X120494637Y-103784759D01*
X120651680Y-103549727D01*
X120759853Y-103288574D01*
X120815000Y-103011335D01*
X120815000Y-102728665D01*
X123105000Y-102728665D01*
X123105000Y-103011335D01*
X123160147Y-103288574D01*
X123268320Y-103549727D01*
X123425363Y-103784759D01*
X123625241Y-103984637D01*
X123860273Y-104141680D01*
X124121426Y-104249853D01*
X124398665Y-104305000D01*
X124681335Y-104305000D01*
X124958574Y-104249853D01*
X125219727Y-104141680D01*
X125454759Y-103984637D01*
X125654637Y-103784759D01*
X125811680Y-103549727D01*
X125919853Y-103288574D01*
X125975000Y-103011335D01*
X125975000Y-102728665D01*
X128105000Y-102728665D01*
X128105000Y-103011335D01*
X128160147Y-103288574D01*
X128268320Y-103549727D01*
X128425363Y-103784759D01*
X128625241Y-103984637D01*
X128860273Y-104141680D01*
X129121426Y-104249853D01*
X129398665Y-104305000D01*
X129681335Y-104305000D01*
X129958574Y-104249853D01*
X130219727Y-104141680D01*
X130454759Y-103984637D01*
X130654637Y-103784759D01*
X130811680Y-103549727D01*
X130919853Y-103288574D01*
X130975000Y-103011335D01*
X130975000Y-102728665D01*
X130947024Y-102588021D01*
X132190000Y-102588021D01*
X132190000Y-103151978D01*
X132206785Y-103322399D01*
X132273115Y-103541059D01*
X132380829Y-103742578D01*
X132525788Y-103919212D01*
X132702421Y-104064171D01*
X132903940Y-104171885D01*
X133122600Y-104238215D01*
X133350000Y-104260612D01*
X133577399Y-104238215D01*
X133796059Y-104171885D01*
X133985000Y-104070894D01*
X134173940Y-104171885D01*
X134392600Y-104238215D01*
X134620000Y-104260612D01*
X134847399Y-104238215D01*
X135056098Y-104174907D01*
X135120820Y-104209502D01*
X135240518Y-104245812D01*
X135365000Y-104258072D01*
X135604250Y-104255000D01*
X135763000Y-104096250D01*
X135763000Y-103323109D01*
X135763215Y-103322400D01*
X135780000Y-103151979D01*
X135780000Y-102997000D01*
X136017000Y-102997000D01*
X136017000Y-104096250D01*
X136175750Y-104255000D01*
X136415000Y-104258072D01*
X136539482Y-104245812D01*
X136659180Y-104209502D01*
X136769494Y-104150537D01*
X136866185Y-104071185D01*
X136945537Y-103974494D01*
X137004502Y-103864180D01*
X137021947Y-103806671D01*
X144757284Y-103806671D01*
X144880626Y-104013000D01*
X145923000Y-104013000D01*
X145923000Y-102969799D01*
X146177000Y-102969799D01*
X146177000Y-104013000D01*
X147219374Y-104013000D01*
X147222055Y-104008514D01*
X149795000Y-104008514D01*
X149795000Y-104271486D01*
X149846304Y-104529405D01*
X149946939Y-104772359D01*
X150093038Y-104991013D01*
X150278987Y-105176962D01*
X150497641Y-105323061D01*
X150740595Y-105423696D01*
X150998514Y-105475000D01*
X151261486Y-105475000D01*
X151519405Y-105423696D01*
X151762359Y-105323061D01*
X151981013Y-105176962D01*
X152166962Y-104991013D01*
X152313061Y-104772359D01*
X152413696Y-104529405D01*
X152465000Y-104271486D01*
X152465000Y-104008514D01*
X152413696Y-103750595D01*
X152313061Y-103507641D01*
X152166962Y-103288987D01*
X151981013Y-103103038D01*
X151762359Y-102956939D01*
X151519405Y-102856304D01*
X151261486Y-102805000D01*
X150998514Y-102805000D01*
X150740595Y-102856304D01*
X150497641Y-102956939D01*
X150278987Y-103103038D01*
X150093038Y-103288987D01*
X149946939Y-103507641D01*
X149846304Y-103750595D01*
X149795000Y-104008514D01*
X147222055Y-104008514D01*
X147342716Y-103806671D01*
X147310047Y-103698956D01*
X147199792Y-103461608D01*
X147045351Y-103250330D01*
X146852660Y-103073241D01*
X146629123Y-102937147D01*
X146383330Y-102847278D01*
X146177000Y-102969799D01*
X145923000Y-102969799D01*
X145716670Y-102847278D01*
X145470877Y-102937147D01*
X145247340Y-103073241D01*
X145054649Y-103250330D01*
X144900208Y-103461608D01*
X144789953Y-103698956D01*
X144757284Y-103806671D01*
X137021947Y-103806671D01*
X137040812Y-103744482D01*
X137053072Y-103620000D01*
X137050000Y-103155750D01*
X136891250Y-102997000D01*
X136017000Y-102997000D01*
X135780000Y-102997000D01*
X135780000Y-102588022D01*
X135763215Y-102417601D01*
X135763000Y-102416892D01*
X135763000Y-101643750D01*
X136017000Y-101643750D01*
X136017000Y-102743000D01*
X136891250Y-102743000D01*
X137050000Y-102584250D01*
X137053072Y-102120000D01*
X137040812Y-101995518D01*
X137004502Y-101875820D01*
X136945537Y-101765506D01*
X136866185Y-101668815D01*
X136769494Y-101589463D01*
X136659180Y-101530498D01*
X136539482Y-101494188D01*
X136415000Y-101481928D01*
X136175750Y-101485000D01*
X136017000Y-101643750D01*
X135763000Y-101643750D01*
X135604250Y-101485000D01*
X135365000Y-101481928D01*
X135240518Y-101494188D01*
X135120820Y-101530498D01*
X135056098Y-101565093D01*
X134847400Y-101501785D01*
X134620000Y-101479388D01*
X134392601Y-101501785D01*
X134173941Y-101568115D01*
X133985001Y-101669106D01*
X133796060Y-101568115D01*
X133577400Y-101501785D01*
X133350000Y-101479388D01*
X133122601Y-101501785D01*
X132903941Y-101568115D01*
X132702422Y-101675829D01*
X132525789Y-101820788D01*
X132380830Y-101997421D01*
X132273115Y-102198940D01*
X132206785Y-102417600D01*
X132190000Y-102588021D01*
X130947024Y-102588021D01*
X130919853Y-102451426D01*
X130811680Y-102190273D01*
X130654637Y-101955241D01*
X130454759Y-101755363D01*
X130219727Y-101598320D01*
X129958574Y-101490147D01*
X129681335Y-101435000D01*
X129398665Y-101435000D01*
X129121426Y-101490147D01*
X128860273Y-101598320D01*
X128625241Y-101755363D01*
X128425363Y-101955241D01*
X128268320Y-102190273D01*
X128160147Y-102451426D01*
X128105000Y-102728665D01*
X125975000Y-102728665D01*
X125919853Y-102451426D01*
X125811680Y-102190273D01*
X125654637Y-101955241D01*
X125454759Y-101755363D01*
X125219727Y-101598320D01*
X124958574Y-101490147D01*
X124681335Y-101435000D01*
X124398665Y-101435000D01*
X124121426Y-101490147D01*
X123860273Y-101598320D01*
X123625241Y-101755363D01*
X123425363Y-101955241D01*
X123268320Y-102190273D01*
X123160147Y-102451426D01*
X123105000Y-102728665D01*
X120815000Y-102728665D01*
X120759853Y-102451426D01*
X120651680Y-102190273D01*
X120494637Y-101955241D01*
X120294759Y-101755363D01*
X120059727Y-101598320D01*
X119798574Y-101490147D01*
X119521335Y-101435000D01*
X119238665Y-101435000D01*
X118961426Y-101490147D01*
X118700273Y-101598320D01*
X118465241Y-101755363D01*
X118265363Y-101955241D01*
X118110000Y-102187759D01*
X117954637Y-101955241D01*
X117754759Y-101755363D01*
X117519727Y-101598320D01*
X117258574Y-101490147D01*
X116981335Y-101435000D01*
X116698665Y-101435000D01*
X116421426Y-101490147D01*
X116160273Y-101598320D01*
X115925241Y-101755363D01*
X115725363Y-101955241D01*
X115570000Y-102187759D01*
X115414637Y-101955241D01*
X115214759Y-101755363D01*
X114979727Y-101598320D01*
X114718574Y-101490147D01*
X114441335Y-101435000D01*
X114158665Y-101435000D01*
X113881426Y-101490147D01*
X113620273Y-101598320D01*
X113385241Y-101755363D01*
X113185363Y-101955241D01*
X113030000Y-102187759D01*
X112874637Y-101955241D01*
X112674759Y-101755363D01*
X112439727Y-101598320D01*
X112178574Y-101490147D01*
X111901335Y-101435000D01*
X111618665Y-101435000D01*
X111341426Y-101490147D01*
X111080273Y-101598320D01*
X110845241Y-101755363D01*
X110645363Y-101955241D01*
X110488320Y-102190273D01*
X110380147Y-102451426D01*
X110325000Y-102728665D01*
X103530000Y-102728665D01*
X103530000Y-99437223D01*
X103605000Y-99437223D01*
X103605000Y-99792777D01*
X103674365Y-100141499D01*
X103810429Y-100469988D01*
X104007965Y-100765621D01*
X104259379Y-101017035D01*
X104555012Y-101214571D01*
X104883501Y-101350635D01*
X105232223Y-101420000D01*
X105587777Y-101420000D01*
X105936499Y-101350635D01*
X106264988Y-101214571D01*
X106560621Y-101017035D01*
X106812035Y-100765621D01*
X106880384Y-100663329D01*
X144757284Y-100663329D01*
X144789953Y-100771044D01*
X144900208Y-101008392D01*
X145054649Y-101219670D01*
X145247340Y-101396759D01*
X145470877Y-101532853D01*
X145716670Y-101622722D01*
X145923000Y-101500201D01*
X145923000Y-100457000D01*
X146177000Y-100457000D01*
X146177000Y-101500201D01*
X146383330Y-101622722D01*
X146629123Y-101532853D01*
X146852660Y-101396759D01*
X147045351Y-101219670D01*
X147199792Y-101008392D01*
X147310047Y-100771044D01*
X147342716Y-100663329D01*
X147219374Y-100457000D01*
X146177000Y-100457000D01*
X145923000Y-100457000D01*
X144880626Y-100457000D01*
X144757284Y-100663329D01*
X106880384Y-100663329D01*
X107009571Y-100469988D01*
X107145635Y-100141499D01*
X107215000Y-99792777D01*
X107215000Y-99437223D01*
X107145635Y-99088501D01*
X107075287Y-98918665D01*
X123105000Y-98918665D01*
X123105000Y-99201335D01*
X123160147Y-99478574D01*
X123268320Y-99739727D01*
X123425363Y-99974759D01*
X123625241Y-100174637D01*
X123860273Y-100331680D01*
X124121426Y-100439853D01*
X124398665Y-100495000D01*
X124681335Y-100495000D01*
X124958574Y-100439853D01*
X125219727Y-100331680D01*
X125454759Y-100174637D01*
X125654637Y-99974759D01*
X125811680Y-99739727D01*
X125919853Y-99478574D01*
X125975000Y-99201335D01*
X125975000Y-98918665D01*
X128105000Y-98918665D01*
X128105000Y-99201335D01*
X128160147Y-99478574D01*
X128268320Y-99739727D01*
X128425363Y-99974759D01*
X128625241Y-100174637D01*
X128860273Y-100331680D01*
X129121426Y-100439853D01*
X129398665Y-100495000D01*
X129681335Y-100495000D01*
X129958574Y-100439853D01*
X130219727Y-100331680D01*
X130454759Y-100174637D01*
X130654637Y-99974759D01*
X130811680Y-99739727D01*
X130919853Y-99478574D01*
X130975000Y-99201335D01*
X130975000Y-98918665D01*
X130947024Y-98778021D01*
X138540000Y-98778021D01*
X138540000Y-99341978D01*
X138556785Y-99512399D01*
X138623115Y-99731059D01*
X138730829Y-99932578D01*
X138875788Y-100109212D01*
X139052421Y-100254171D01*
X139253940Y-100361885D01*
X139472600Y-100428215D01*
X139700000Y-100450612D01*
X139927399Y-100428215D01*
X140146059Y-100361885D01*
X140334999Y-100260894D01*
X140523940Y-100361885D01*
X140742600Y-100428215D01*
X140970000Y-100450612D01*
X141197399Y-100428215D01*
X141406098Y-100364907D01*
X141470820Y-100399502D01*
X141590518Y-100435812D01*
X141715000Y-100448072D01*
X141954250Y-100445000D01*
X142113000Y-100286250D01*
X142113000Y-99513109D01*
X142113215Y-99512400D01*
X142130000Y-99341979D01*
X142130000Y-99187000D01*
X142367000Y-99187000D01*
X142367000Y-100286250D01*
X142525750Y-100445000D01*
X142765000Y-100448072D01*
X142889482Y-100435812D01*
X143009180Y-100399502D01*
X143119494Y-100340537D01*
X143216185Y-100261185D01*
X143295537Y-100164494D01*
X143354502Y-100054180D01*
X143371947Y-99996671D01*
X144757284Y-99996671D01*
X144880626Y-100203000D01*
X145923000Y-100203000D01*
X145923000Y-99159799D01*
X146177000Y-99159799D01*
X146177000Y-100203000D01*
X147219374Y-100203000D01*
X147222055Y-100198514D01*
X149795000Y-100198514D01*
X149795000Y-100461486D01*
X149846304Y-100719405D01*
X149946939Y-100962359D01*
X150093038Y-101181013D01*
X150278987Y-101366962D01*
X150497641Y-101513061D01*
X150740595Y-101613696D01*
X150998514Y-101665000D01*
X151261486Y-101665000D01*
X151519405Y-101613696D01*
X151762359Y-101513061D01*
X151981013Y-101366962D01*
X152166962Y-101181013D01*
X152313061Y-100962359D01*
X152413696Y-100719405D01*
X152465000Y-100461486D01*
X152465000Y-100198514D01*
X152413696Y-99940595D01*
X152313061Y-99697641D01*
X152166962Y-99478987D01*
X151981013Y-99293038D01*
X151762359Y-99146939D01*
X151519405Y-99046304D01*
X151261486Y-98995000D01*
X150998514Y-98995000D01*
X150740595Y-99046304D01*
X150497641Y-99146939D01*
X150278987Y-99293038D01*
X150093038Y-99478987D01*
X149946939Y-99697641D01*
X149846304Y-99940595D01*
X149795000Y-100198514D01*
X147222055Y-100198514D01*
X147342716Y-99996671D01*
X147310047Y-99888956D01*
X147199792Y-99651608D01*
X147045351Y-99440330D01*
X146852660Y-99263241D01*
X146629123Y-99127147D01*
X146383330Y-99037278D01*
X146177000Y-99159799D01*
X145923000Y-99159799D01*
X145716670Y-99037278D01*
X145470877Y-99127147D01*
X145247340Y-99263241D01*
X145054649Y-99440330D01*
X144900208Y-99651608D01*
X144789953Y-99888956D01*
X144757284Y-99996671D01*
X143371947Y-99996671D01*
X143390812Y-99934482D01*
X143403072Y-99810000D01*
X143400000Y-99345750D01*
X143241250Y-99187000D01*
X142367000Y-99187000D01*
X142130000Y-99187000D01*
X142130000Y-98778022D01*
X142113215Y-98607601D01*
X142113000Y-98606892D01*
X142113000Y-97833750D01*
X142367000Y-97833750D01*
X142367000Y-98933000D01*
X143241250Y-98933000D01*
X143400000Y-98774250D01*
X143403072Y-98310000D01*
X143390812Y-98185518D01*
X143354502Y-98065820D01*
X143295537Y-97955506D01*
X143216185Y-97858815D01*
X143119494Y-97779463D01*
X143009180Y-97720498D01*
X142889482Y-97684188D01*
X142765000Y-97671928D01*
X142525750Y-97675000D01*
X142367000Y-97833750D01*
X142113000Y-97833750D01*
X141954250Y-97675000D01*
X141715000Y-97671928D01*
X141590518Y-97684188D01*
X141470820Y-97720498D01*
X141406098Y-97755093D01*
X141197400Y-97691785D01*
X140970000Y-97669388D01*
X140742601Y-97691785D01*
X140523941Y-97758115D01*
X140335001Y-97859106D01*
X140146060Y-97758115D01*
X139927400Y-97691785D01*
X139700000Y-97669388D01*
X139472601Y-97691785D01*
X139253941Y-97758115D01*
X139052422Y-97865829D01*
X138875789Y-98010788D01*
X138730830Y-98187421D01*
X138623115Y-98388940D01*
X138556785Y-98607600D01*
X138540000Y-98778021D01*
X130947024Y-98778021D01*
X130919853Y-98641426D01*
X130811680Y-98380273D01*
X130654637Y-98145241D01*
X130454759Y-97945363D01*
X130219727Y-97788320D01*
X129958574Y-97680147D01*
X129681335Y-97625000D01*
X129398665Y-97625000D01*
X129121426Y-97680147D01*
X128860273Y-97788320D01*
X128625241Y-97945363D01*
X128425363Y-98145241D01*
X128268320Y-98380273D01*
X128160147Y-98641426D01*
X128105000Y-98918665D01*
X125975000Y-98918665D01*
X125919853Y-98641426D01*
X125811680Y-98380273D01*
X125654637Y-98145241D01*
X125454759Y-97945363D01*
X125219727Y-97788320D01*
X124958574Y-97680147D01*
X124681335Y-97625000D01*
X124398665Y-97625000D01*
X124121426Y-97680147D01*
X123860273Y-97788320D01*
X123625241Y-97945363D01*
X123425363Y-98145241D01*
X123268320Y-98380273D01*
X123160147Y-98641426D01*
X123105000Y-98918665D01*
X107075287Y-98918665D01*
X107009571Y-98760012D01*
X106812035Y-98464379D01*
X106560621Y-98212965D01*
X106264988Y-98015429D01*
X105936499Y-97879365D01*
X105587777Y-97810000D01*
X105232223Y-97810000D01*
X104883501Y-97879365D01*
X104555012Y-98015429D01*
X104259379Y-98212965D01*
X104007965Y-98464379D01*
X103810429Y-98760012D01*
X103674365Y-99088501D01*
X103605000Y-99437223D01*
X103530000Y-99437223D01*
X103530000Y-96853329D01*
X144757284Y-96853329D01*
X144789953Y-96961044D01*
X144900208Y-97198392D01*
X145054649Y-97409670D01*
X145247340Y-97586759D01*
X145470877Y-97722853D01*
X145716670Y-97812722D01*
X145923000Y-97690201D01*
X145923000Y-96647000D01*
X146177000Y-96647000D01*
X146177000Y-97690201D01*
X146383330Y-97812722D01*
X146629123Y-97722853D01*
X146852660Y-97586759D01*
X147045351Y-97409670D01*
X147199792Y-97198392D01*
X147310047Y-96961044D01*
X147342716Y-96853329D01*
X147219374Y-96647000D01*
X146177000Y-96647000D01*
X145923000Y-96647000D01*
X144880626Y-96647000D01*
X144757284Y-96853329D01*
X103530000Y-96853329D01*
X103530000Y-94437223D01*
X103605000Y-94437223D01*
X103605000Y-94792777D01*
X103674365Y-95141499D01*
X103810429Y-95469988D01*
X104007965Y-95765621D01*
X104259379Y-96017035D01*
X104555012Y-96214571D01*
X104883501Y-96350635D01*
X105232223Y-96420000D01*
X105587777Y-96420000D01*
X105936499Y-96350635D01*
X106264988Y-96214571D01*
X106560621Y-96017035D01*
X106812035Y-95765621D01*
X107009571Y-95469988D01*
X107145635Y-95141499D01*
X107152166Y-95108665D01*
X110325000Y-95108665D01*
X110325000Y-95391335D01*
X110380147Y-95668574D01*
X110488320Y-95929727D01*
X110645363Y-96164759D01*
X110845241Y-96364637D01*
X111080273Y-96521680D01*
X111341426Y-96629853D01*
X111618665Y-96685000D01*
X111901335Y-96685000D01*
X112178574Y-96629853D01*
X112439727Y-96521680D01*
X112674759Y-96364637D01*
X112874637Y-96164759D01*
X113030000Y-95932241D01*
X113185363Y-96164759D01*
X113385241Y-96364637D01*
X113620273Y-96521680D01*
X113881426Y-96629853D01*
X114158665Y-96685000D01*
X114441335Y-96685000D01*
X114718574Y-96629853D01*
X114979727Y-96521680D01*
X115214759Y-96364637D01*
X115414637Y-96164759D01*
X115570000Y-95932241D01*
X115725363Y-96164759D01*
X115925241Y-96364637D01*
X116160273Y-96521680D01*
X116421426Y-96629853D01*
X116698665Y-96685000D01*
X116981335Y-96685000D01*
X117258574Y-96629853D01*
X117519727Y-96521680D01*
X117754759Y-96364637D01*
X117953357Y-96166039D01*
X117954188Y-96174482D01*
X117990498Y-96294180D01*
X118049463Y-96404494D01*
X118128815Y-96501185D01*
X118225506Y-96580537D01*
X118335820Y-96639502D01*
X118455518Y-96675812D01*
X118580000Y-96688072D01*
X119094250Y-96685000D01*
X119253000Y-96526250D01*
X119253000Y-95377000D01*
X119507000Y-95377000D01*
X119507000Y-96526250D01*
X119665750Y-96685000D01*
X120180000Y-96688072D01*
X120304482Y-96675812D01*
X120424180Y-96639502D01*
X120534494Y-96580537D01*
X120631185Y-96501185D01*
X120710537Y-96404494D01*
X120769502Y-96294180D01*
X120805812Y-96174482D01*
X120818072Y-96050000D01*
X120815000Y-95535750D01*
X120656250Y-95377000D01*
X119507000Y-95377000D01*
X119253000Y-95377000D01*
X119233000Y-95377000D01*
X119233000Y-95123000D01*
X119253000Y-95123000D01*
X119253000Y-93973750D01*
X119507000Y-93973750D01*
X119507000Y-95123000D01*
X120656250Y-95123000D01*
X120670585Y-95108665D01*
X123105000Y-95108665D01*
X123105000Y-95391335D01*
X123160147Y-95668574D01*
X123268320Y-95929727D01*
X123425363Y-96164759D01*
X123625241Y-96364637D01*
X123860273Y-96521680D01*
X124121426Y-96629853D01*
X124398665Y-96685000D01*
X124681335Y-96685000D01*
X124958574Y-96629853D01*
X125219727Y-96521680D01*
X125454759Y-96364637D01*
X125654637Y-96164759D01*
X125811680Y-95929727D01*
X125919853Y-95668574D01*
X125975000Y-95391335D01*
X125975000Y-95108665D01*
X128105000Y-95108665D01*
X128105000Y-95391335D01*
X128160147Y-95668574D01*
X128268320Y-95929727D01*
X128425363Y-96164759D01*
X128625241Y-96364637D01*
X128860273Y-96521680D01*
X129121426Y-96629853D01*
X129398665Y-96685000D01*
X129681335Y-96685000D01*
X129958574Y-96629853D01*
X130219727Y-96521680D01*
X130454759Y-96364637D01*
X130654637Y-96164759D01*
X130811680Y-95929727D01*
X130919853Y-95668574D01*
X130975000Y-95391335D01*
X130975000Y-95108665D01*
X130947024Y-94968021D01*
X132190000Y-94968021D01*
X132190000Y-95531978D01*
X132206785Y-95702399D01*
X132273115Y-95921059D01*
X132380829Y-96122578D01*
X132525788Y-96299212D01*
X132702421Y-96444171D01*
X132903940Y-96551885D01*
X133122600Y-96618215D01*
X133350000Y-96640612D01*
X133577399Y-96618215D01*
X133796059Y-96551885D01*
X133985000Y-96450894D01*
X134173940Y-96551885D01*
X134392600Y-96618215D01*
X134620000Y-96640612D01*
X134847399Y-96618215D01*
X135056098Y-96554907D01*
X135120820Y-96589502D01*
X135240518Y-96625812D01*
X135365000Y-96638072D01*
X135604250Y-96635000D01*
X135763000Y-96476250D01*
X135763000Y-95703109D01*
X135763215Y-95702400D01*
X135780000Y-95531979D01*
X135780000Y-95377000D01*
X136017000Y-95377000D01*
X136017000Y-96476250D01*
X136175750Y-96635000D01*
X136415000Y-96638072D01*
X136539482Y-96625812D01*
X136659180Y-96589502D01*
X136769494Y-96530537D01*
X136866185Y-96451185D01*
X136945537Y-96354494D01*
X137004502Y-96244180D01*
X137021947Y-96186671D01*
X144757284Y-96186671D01*
X144880626Y-96393000D01*
X145923000Y-96393000D01*
X145923000Y-95349799D01*
X146177000Y-95349799D01*
X146177000Y-96393000D01*
X147219374Y-96393000D01*
X147222055Y-96388514D01*
X149795000Y-96388514D01*
X149795000Y-96651486D01*
X149846304Y-96909405D01*
X149946939Y-97152359D01*
X150093038Y-97371013D01*
X150278987Y-97556962D01*
X150497641Y-97703061D01*
X150740595Y-97803696D01*
X150998514Y-97855000D01*
X151261486Y-97855000D01*
X151519405Y-97803696D01*
X151762359Y-97703061D01*
X151829028Y-97658514D01*
X153585000Y-97658514D01*
X153585000Y-97921486D01*
X153636304Y-98179405D01*
X153736939Y-98422359D01*
X153883038Y-98641013D01*
X154068987Y-98826962D01*
X154287641Y-98973061D01*
X154507530Y-99064142D01*
X154307641Y-99146939D01*
X154088987Y-99293038D01*
X153903038Y-99478987D01*
X153756939Y-99697641D01*
X153656304Y-99940595D01*
X153605000Y-100198514D01*
X153605000Y-100461486D01*
X153656304Y-100719405D01*
X153756939Y-100962359D01*
X153903038Y-101181013D01*
X154088987Y-101366962D01*
X154307641Y-101513061D01*
X154517530Y-101600000D01*
X154307641Y-101686939D01*
X154088987Y-101833038D01*
X153903038Y-102018987D01*
X153756939Y-102237641D01*
X153656304Y-102480595D01*
X153605000Y-102738514D01*
X153605000Y-103001486D01*
X153656304Y-103259405D01*
X153756939Y-103502359D01*
X153903038Y-103721013D01*
X154088987Y-103906962D01*
X154307641Y-104053061D01*
X154517530Y-104140000D01*
X154307641Y-104226939D01*
X154088987Y-104373038D01*
X153903038Y-104558987D01*
X153756939Y-104777641D01*
X153656304Y-105020595D01*
X153605000Y-105278514D01*
X153605000Y-105541486D01*
X153656304Y-105799405D01*
X153756939Y-106042359D01*
X153903038Y-106261013D01*
X154088987Y-106446962D01*
X154307641Y-106593061D01*
X154550595Y-106693696D01*
X154808514Y-106745000D01*
X155071486Y-106745000D01*
X155329405Y-106693696D01*
X155572359Y-106593061D01*
X155791013Y-106446962D01*
X155976962Y-106261013D01*
X156123061Y-106042359D01*
X156223696Y-105799405D01*
X156275000Y-105541486D01*
X156275000Y-105278514D01*
X156223696Y-105020595D01*
X156123061Y-104777641D01*
X155976962Y-104558987D01*
X155791013Y-104373038D01*
X155572359Y-104226939D01*
X155362470Y-104140000D01*
X155572359Y-104053061D01*
X155791013Y-103906962D01*
X155976962Y-103721013D01*
X156123061Y-103502359D01*
X156223696Y-103259405D01*
X156275000Y-103001486D01*
X156275000Y-102738514D01*
X156223696Y-102480595D01*
X156123061Y-102237641D01*
X155976962Y-102018987D01*
X155791013Y-101833038D01*
X155572359Y-101686939D01*
X155362470Y-101600000D01*
X155572359Y-101513061D01*
X155791013Y-101366962D01*
X155976962Y-101181013D01*
X156123061Y-100962359D01*
X156223696Y-100719405D01*
X156275000Y-100461486D01*
X156275000Y-100198514D01*
X156223696Y-99940595D01*
X156123061Y-99697641D01*
X155976962Y-99478987D01*
X155791013Y-99293038D01*
X155572359Y-99146939D01*
X155352470Y-99055858D01*
X155552359Y-98973061D01*
X155771013Y-98826962D01*
X155956962Y-98641013D01*
X156103061Y-98422359D01*
X156203696Y-98179405D01*
X156255000Y-97921486D01*
X156255000Y-97658514D01*
X158665000Y-97658514D01*
X158665000Y-97921486D01*
X158716304Y-98179405D01*
X158816939Y-98422359D01*
X158963038Y-98641013D01*
X159148987Y-98826962D01*
X159367641Y-98973061D01*
X159587530Y-99064142D01*
X159387641Y-99146939D01*
X159168987Y-99293038D01*
X158983038Y-99478987D01*
X158836939Y-99697641D01*
X158736304Y-99940595D01*
X158685000Y-100198514D01*
X158685000Y-100461486D01*
X158736304Y-100719405D01*
X158836939Y-100962359D01*
X158983038Y-101181013D01*
X159168987Y-101366962D01*
X159387641Y-101513061D01*
X159597530Y-101600000D01*
X159387641Y-101686939D01*
X159168987Y-101833038D01*
X158983038Y-102018987D01*
X158836939Y-102237641D01*
X158736304Y-102480595D01*
X158685000Y-102738514D01*
X158685000Y-103001486D01*
X158736304Y-103259405D01*
X158836939Y-103502359D01*
X158983038Y-103721013D01*
X159168987Y-103906962D01*
X159387641Y-104053061D01*
X159597530Y-104140000D01*
X159387641Y-104226939D01*
X159168987Y-104373038D01*
X158983038Y-104558987D01*
X158836939Y-104777641D01*
X158736304Y-105020595D01*
X158685000Y-105278514D01*
X158685000Y-105541486D01*
X158736304Y-105799405D01*
X158836939Y-106042359D01*
X158983038Y-106261013D01*
X159168987Y-106446962D01*
X159387641Y-106593061D01*
X159630595Y-106693696D01*
X159888514Y-106745000D01*
X160151486Y-106745000D01*
X160409405Y-106693696D01*
X160652359Y-106593061D01*
X160871013Y-106446962D01*
X161056962Y-106261013D01*
X161203061Y-106042359D01*
X161303696Y-105799405D01*
X161355000Y-105541486D01*
X161355000Y-105278514D01*
X161303696Y-105020595D01*
X161203061Y-104777641D01*
X161056962Y-104558987D01*
X160871013Y-104373038D01*
X160652359Y-104226939D01*
X160442470Y-104140000D01*
X160652359Y-104053061D01*
X160871013Y-103906962D01*
X161056962Y-103721013D01*
X161203061Y-103502359D01*
X161303696Y-103259405D01*
X161355000Y-103001486D01*
X161355000Y-102738514D01*
X161303696Y-102480595D01*
X161203061Y-102237641D01*
X161056962Y-102018987D01*
X160871013Y-101833038D01*
X160652359Y-101686939D01*
X160442470Y-101600000D01*
X160652359Y-101513061D01*
X160871013Y-101366962D01*
X161056962Y-101181013D01*
X161203061Y-100962359D01*
X161303696Y-100719405D01*
X161355000Y-100461486D01*
X161355000Y-100198514D01*
X161303696Y-99940595D01*
X161203061Y-99697641D01*
X161056962Y-99478987D01*
X160871013Y-99293038D01*
X160652359Y-99146939D01*
X160432470Y-99055858D01*
X160632359Y-98973061D01*
X160851013Y-98826962D01*
X161036962Y-98641013D01*
X161183061Y-98422359D01*
X161283696Y-98179405D01*
X161335000Y-97921486D01*
X161335000Y-97658514D01*
X161283696Y-97400595D01*
X161183061Y-97157641D01*
X161036962Y-96938987D01*
X160851013Y-96753038D01*
X160632359Y-96606939D01*
X160432470Y-96524142D01*
X160652359Y-96433061D01*
X160871013Y-96286962D01*
X161056962Y-96101013D01*
X161203061Y-95882359D01*
X161303696Y-95639405D01*
X161355000Y-95381486D01*
X161355000Y-95118514D01*
X161303696Y-94860595D01*
X161203061Y-94617641D01*
X161056962Y-94398987D01*
X160871013Y-94213038D01*
X160652359Y-94066939D01*
X160409405Y-93966304D01*
X160151486Y-93915000D01*
X159888514Y-93915000D01*
X159630595Y-93966304D01*
X159387641Y-94066939D01*
X159168987Y-94213038D01*
X158983038Y-94398987D01*
X158836939Y-94617641D01*
X158736304Y-94860595D01*
X158685000Y-95118514D01*
X158685000Y-95381486D01*
X158736304Y-95639405D01*
X158836939Y-95882359D01*
X158983038Y-96101013D01*
X159168987Y-96286962D01*
X159387641Y-96433061D01*
X159587530Y-96515858D01*
X159367641Y-96606939D01*
X159148987Y-96753038D01*
X158963038Y-96938987D01*
X158816939Y-97157641D01*
X158716304Y-97400595D01*
X158665000Y-97658514D01*
X156255000Y-97658514D01*
X156203696Y-97400595D01*
X156103061Y-97157641D01*
X155956962Y-96938987D01*
X155771013Y-96753038D01*
X155552359Y-96606939D01*
X155352470Y-96524142D01*
X155572359Y-96433061D01*
X155791013Y-96286962D01*
X155976962Y-96101013D01*
X156123061Y-95882359D01*
X156223696Y-95639405D01*
X156275000Y-95381486D01*
X156275000Y-95118514D01*
X156223696Y-94860595D01*
X156123061Y-94617641D01*
X155976962Y-94398987D01*
X155791013Y-94213038D01*
X155572359Y-94066939D01*
X155329405Y-93966304D01*
X155071486Y-93915000D01*
X154808514Y-93915000D01*
X154550595Y-93966304D01*
X154307641Y-94066939D01*
X154088987Y-94213038D01*
X153903038Y-94398987D01*
X153756939Y-94617641D01*
X153656304Y-94860595D01*
X153605000Y-95118514D01*
X153605000Y-95381486D01*
X153656304Y-95639405D01*
X153756939Y-95882359D01*
X153903038Y-96101013D01*
X154088987Y-96286962D01*
X154307641Y-96433061D01*
X154507530Y-96515858D01*
X154287641Y-96606939D01*
X154068987Y-96753038D01*
X153883038Y-96938987D01*
X153736939Y-97157641D01*
X153636304Y-97400595D01*
X153585000Y-97658514D01*
X151829028Y-97658514D01*
X151981013Y-97556962D01*
X152166962Y-97371013D01*
X152313061Y-97152359D01*
X152413696Y-96909405D01*
X152465000Y-96651486D01*
X152465000Y-96388514D01*
X152413696Y-96130595D01*
X152313061Y-95887641D01*
X152166962Y-95668987D01*
X151981013Y-95483038D01*
X151762359Y-95336939D01*
X151519405Y-95236304D01*
X151261486Y-95185000D01*
X150998514Y-95185000D01*
X150740595Y-95236304D01*
X150497641Y-95336939D01*
X150278987Y-95483038D01*
X150093038Y-95668987D01*
X149946939Y-95887641D01*
X149846304Y-96130595D01*
X149795000Y-96388514D01*
X147222055Y-96388514D01*
X147342716Y-96186671D01*
X147310047Y-96078956D01*
X147199792Y-95841608D01*
X147045351Y-95630330D01*
X146852660Y-95453241D01*
X146629123Y-95317147D01*
X146383330Y-95227278D01*
X146177000Y-95349799D01*
X145923000Y-95349799D01*
X145716670Y-95227278D01*
X145470877Y-95317147D01*
X145247340Y-95453241D01*
X145054649Y-95630330D01*
X144900208Y-95841608D01*
X144789953Y-96078956D01*
X144757284Y-96186671D01*
X137021947Y-96186671D01*
X137040812Y-96124482D01*
X137053072Y-96000000D01*
X137050000Y-95535750D01*
X136891250Y-95377000D01*
X136017000Y-95377000D01*
X135780000Y-95377000D01*
X135780000Y-94968022D01*
X135763215Y-94797601D01*
X135763000Y-94796892D01*
X135763000Y-94023750D01*
X136017000Y-94023750D01*
X136017000Y-95123000D01*
X136891250Y-95123000D01*
X137050000Y-94964250D01*
X137053072Y-94500000D01*
X137040812Y-94375518D01*
X137004502Y-94255820D01*
X136945537Y-94145506D01*
X136866185Y-94048815D01*
X136769494Y-93969463D01*
X136659180Y-93910498D01*
X136539482Y-93874188D01*
X136415000Y-93861928D01*
X136175750Y-93865000D01*
X136017000Y-94023750D01*
X135763000Y-94023750D01*
X135604250Y-93865000D01*
X135365000Y-93861928D01*
X135240518Y-93874188D01*
X135120820Y-93910498D01*
X135056098Y-93945093D01*
X134847400Y-93881785D01*
X134620000Y-93859388D01*
X134392601Y-93881785D01*
X134173941Y-93948115D01*
X133985000Y-94049106D01*
X133796060Y-93948115D01*
X133577400Y-93881785D01*
X133350000Y-93859388D01*
X133122601Y-93881785D01*
X132903941Y-93948115D01*
X132702422Y-94055829D01*
X132525789Y-94200788D01*
X132380830Y-94377421D01*
X132273115Y-94578940D01*
X132206785Y-94797600D01*
X132190000Y-94968021D01*
X130947024Y-94968021D01*
X130919853Y-94831426D01*
X130811680Y-94570273D01*
X130654637Y-94335241D01*
X130454759Y-94135363D01*
X130219727Y-93978320D01*
X129958574Y-93870147D01*
X129681335Y-93815000D01*
X129398665Y-93815000D01*
X129121426Y-93870147D01*
X128860273Y-93978320D01*
X128625241Y-94135363D01*
X128425363Y-94335241D01*
X128268320Y-94570273D01*
X128160147Y-94831426D01*
X128105000Y-95108665D01*
X125975000Y-95108665D01*
X125919853Y-94831426D01*
X125811680Y-94570273D01*
X125654637Y-94335241D01*
X125454759Y-94135363D01*
X125219727Y-93978320D01*
X124958574Y-93870147D01*
X124681335Y-93815000D01*
X124398665Y-93815000D01*
X124121426Y-93870147D01*
X123860273Y-93978320D01*
X123625241Y-94135363D01*
X123425363Y-94335241D01*
X123268320Y-94570273D01*
X123160147Y-94831426D01*
X123105000Y-95108665D01*
X120670585Y-95108665D01*
X120815000Y-94964250D01*
X120818072Y-94450000D01*
X120805812Y-94325518D01*
X120769502Y-94205820D01*
X120710537Y-94095506D01*
X120631185Y-93998815D01*
X120534494Y-93919463D01*
X120424180Y-93860498D01*
X120304482Y-93824188D01*
X120180000Y-93811928D01*
X119665750Y-93815000D01*
X119507000Y-93973750D01*
X119253000Y-93973750D01*
X119094250Y-93815000D01*
X118580000Y-93811928D01*
X118455518Y-93824188D01*
X118335820Y-93860498D01*
X118225506Y-93919463D01*
X118128815Y-93998815D01*
X118049463Y-94095506D01*
X117990498Y-94205820D01*
X117954188Y-94325518D01*
X117953357Y-94333961D01*
X117754759Y-94135363D01*
X117519727Y-93978320D01*
X117258574Y-93870147D01*
X116981335Y-93815000D01*
X116698665Y-93815000D01*
X116421426Y-93870147D01*
X116160273Y-93978320D01*
X115925241Y-94135363D01*
X115725363Y-94335241D01*
X115570000Y-94567759D01*
X115414637Y-94335241D01*
X115214759Y-94135363D01*
X114979727Y-93978320D01*
X114718574Y-93870147D01*
X114441335Y-93815000D01*
X114158665Y-93815000D01*
X113881426Y-93870147D01*
X113620273Y-93978320D01*
X113385241Y-94135363D01*
X113185363Y-94335241D01*
X113030000Y-94567759D01*
X112874637Y-94335241D01*
X112674759Y-94135363D01*
X112439727Y-93978320D01*
X112178574Y-93870147D01*
X111901335Y-93815000D01*
X111618665Y-93815000D01*
X111341426Y-93870147D01*
X111080273Y-93978320D01*
X110845241Y-94135363D01*
X110645363Y-94335241D01*
X110488320Y-94570273D01*
X110380147Y-94831426D01*
X110325000Y-95108665D01*
X107152166Y-95108665D01*
X107215000Y-94792777D01*
X107215000Y-94437223D01*
X107145635Y-94088501D01*
X107009571Y-93760012D01*
X106812035Y-93464379D01*
X106560621Y-93212965D01*
X106306744Y-93043329D01*
X144757284Y-93043329D01*
X144789953Y-93151044D01*
X144900208Y-93388392D01*
X145054649Y-93599670D01*
X145247340Y-93776759D01*
X145470877Y-93912853D01*
X145716670Y-94002722D01*
X145923000Y-93880201D01*
X145923000Y-92837000D01*
X146177000Y-92837000D01*
X146177000Y-93880201D01*
X146383330Y-94002722D01*
X146629123Y-93912853D01*
X146852660Y-93776759D01*
X147045351Y-93599670D01*
X147199792Y-93388392D01*
X147310047Y-93151044D01*
X147342716Y-93043329D01*
X147219374Y-92837000D01*
X146177000Y-92837000D01*
X145923000Y-92837000D01*
X144880626Y-92837000D01*
X144757284Y-93043329D01*
X106306744Y-93043329D01*
X106264988Y-93015429D01*
X105936499Y-92879365D01*
X105587777Y-92810000D01*
X105232223Y-92810000D01*
X104883501Y-92879365D01*
X104555012Y-93015429D01*
X104259379Y-93212965D01*
X104007965Y-93464379D01*
X103810429Y-93760012D01*
X103674365Y-94088501D01*
X103605000Y-94437223D01*
X103530000Y-94437223D01*
X103530000Y-89437223D01*
X103605000Y-89437223D01*
X103605000Y-89792777D01*
X103674365Y-90141499D01*
X103810429Y-90469988D01*
X104007965Y-90765621D01*
X104259379Y-91017035D01*
X104555012Y-91214571D01*
X104883501Y-91350635D01*
X105232223Y-91420000D01*
X105587777Y-91420000D01*
X105936499Y-91350635D01*
X106038188Y-91308514D01*
X110425000Y-91308514D01*
X110425000Y-91571486D01*
X110476304Y-91829405D01*
X110576939Y-92072359D01*
X110723038Y-92291013D01*
X110908987Y-92476962D01*
X111127641Y-92623061D01*
X111370595Y-92723696D01*
X111628514Y-92775000D01*
X111891486Y-92775000D01*
X112149405Y-92723696D01*
X112392359Y-92623061D01*
X112611013Y-92476962D01*
X112796962Y-92291013D01*
X112943061Y-92072359D01*
X113043696Y-91829405D01*
X113095000Y-91571486D01*
X113095000Y-91308514D01*
X115505000Y-91308514D01*
X115505000Y-91571486D01*
X115556304Y-91829405D01*
X115656939Y-92072359D01*
X115803038Y-92291013D01*
X115988987Y-92476962D01*
X116207641Y-92623061D01*
X116450595Y-92723696D01*
X116708514Y-92775000D01*
X116971486Y-92775000D01*
X117229405Y-92723696D01*
X117472359Y-92623061D01*
X117691013Y-92476962D01*
X117876962Y-92291013D01*
X118023061Y-92072359D01*
X118123696Y-91829405D01*
X118175000Y-91571486D01*
X118175000Y-91308514D01*
X118173041Y-91298665D01*
X123105000Y-91298665D01*
X123105000Y-91581335D01*
X123160147Y-91858574D01*
X123268320Y-92119727D01*
X123425363Y-92354759D01*
X123625241Y-92554637D01*
X123860273Y-92711680D01*
X124121426Y-92819853D01*
X124398665Y-92875000D01*
X124681335Y-92875000D01*
X124958574Y-92819853D01*
X125219727Y-92711680D01*
X125454759Y-92554637D01*
X125576694Y-92432702D01*
X128726903Y-92432702D01*
X128798486Y-92676671D01*
X129053996Y-92797571D01*
X129328184Y-92866300D01*
X129610512Y-92880217D01*
X129890130Y-92838787D01*
X130156292Y-92743603D01*
X130281514Y-92676671D01*
X130353097Y-92432702D01*
X129540000Y-91619605D01*
X128726903Y-92432702D01*
X125576694Y-92432702D01*
X125654637Y-92354759D01*
X125811680Y-92119727D01*
X125919853Y-91858574D01*
X125975000Y-91581335D01*
X125975000Y-91510512D01*
X128099783Y-91510512D01*
X128141213Y-91790130D01*
X128236397Y-92056292D01*
X128303329Y-92181514D01*
X128547298Y-92253097D01*
X129360395Y-91440000D01*
X129719605Y-91440000D01*
X130532702Y-92253097D01*
X130776671Y-92181514D01*
X130897571Y-91926004D01*
X130966300Y-91651816D01*
X130980217Y-91369488D01*
X130948885Y-91158021D01*
X138540000Y-91158021D01*
X138540000Y-91721978D01*
X138556785Y-91892399D01*
X138623115Y-92111059D01*
X138730829Y-92312578D01*
X138875788Y-92489212D01*
X139052421Y-92634171D01*
X139253940Y-92741885D01*
X139472600Y-92808215D01*
X139700000Y-92830612D01*
X139927399Y-92808215D01*
X140146059Y-92741885D01*
X140335000Y-92640894D01*
X140523940Y-92741885D01*
X140742600Y-92808215D01*
X140970000Y-92830612D01*
X141197399Y-92808215D01*
X141406098Y-92744907D01*
X141470820Y-92779502D01*
X141590518Y-92815812D01*
X141715000Y-92828072D01*
X141954250Y-92825000D01*
X142113000Y-92666250D01*
X142113000Y-91893109D01*
X142113215Y-91892400D01*
X142130000Y-91721979D01*
X142130000Y-91567000D01*
X142367000Y-91567000D01*
X142367000Y-92666250D01*
X142525750Y-92825000D01*
X142765000Y-92828072D01*
X142889482Y-92815812D01*
X143009180Y-92779502D01*
X143119494Y-92720537D01*
X143216185Y-92641185D01*
X143295537Y-92544494D01*
X143354502Y-92434180D01*
X143371947Y-92376671D01*
X144757284Y-92376671D01*
X144880626Y-92583000D01*
X145923000Y-92583000D01*
X145923000Y-91539799D01*
X146177000Y-91539799D01*
X146177000Y-92583000D01*
X147219374Y-92583000D01*
X147222055Y-92578514D01*
X149795000Y-92578514D01*
X149795000Y-92841486D01*
X149846304Y-93099405D01*
X149946939Y-93342359D01*
X150093038Y-93561013D01*
X150278987Y-93746962D01*
X150497641Y-93893061D01*
X150740595Y-93993696D01*
X150998514Y-94045000D01*
X151261486Y-94045000D01*
X151519405Y-93993696D01*
X151762359Y-93893061D01*
X151981013Y-93746962D01*
X152166962Y-93561013D01*
X152313061Y-93342359D01*
X152413696Y-93099405D01*
X152465000Y-92841486D01*
X152465000Y-92578514D01*
X152413696Y-92320595D01*
X152313061Y-92077641D01*
X152166962Y-91858987D01*
X151981013Y-91673038D01*
X151762359Y-91526939D01*
X151519405Y-91426304D01*
X151261486Y-91375000D01*
X150998514Y-91375000D01*
X150740595Y-91426304D01*
X150497641Y-91526939D01*
X150278987Y-91673038D01*
X150093038Y-91858987D01*
X149946939Y-92077641D01*
X149846304Y-92320595D01*
X149795000Y-92578514D01*
X147222055Y-92578514D01*
X147342716Y-92376671D01*
X147310047Y-92268956D01*
X147199792Y-92031608D01*
X147045351Y-91820330D01*
X146852660Y-91643241D01*
X146629123Y-91507147D01*
X146383330Y-91417278D01*
X146177000Y-91539799D01*
X145923000Y-91539799D01*
X145716670Y-91417278D01*
X145470877Y-91507147D01*
X145247340Y-91643241D01*
X145054649Y-91820330D01*
X144900208Y-92031608D01*
X144789953Y-92268956D01*
X144757284Y-92376671D01*
X143371947Y-92376671D01*
X143390812Y-92314482D01*
X143403072Y-92190000D01*
X143400000Y-91725750D01*
X143241250Y-91567000D01*
X142367000Y-91567000D01*
X142130000Y-91567000D01*
X142130000Y-91158022D01*
X142113215Y-90987601D01*
X142113000Y-90986892D01*
X142113000Y-90213750D01*
X142367000Y-90213750D01*
X142367000Y-91313000D01*
X143241250Y-91313000D01*
X143400000Y-91154250D01*
X143403072Y-90690000D01*
X143390812Y-90565518D01*
X143354502Y-90445820D01*
X143295537Y-90335506D01*
X143216185Y-90238815D01*
X143119494Y-90159463D01*
X143009180Y-90100498D01*
X142889482Y-90064188D01*
X142765000Y-90051928D01*
X142525750Y-90055000D01*
X142367000Y-90213750D01*
X142113000Y-90213750D01*
X141954250Y-90055000D01*
X141715000Y-90051928D01*
X141590518Y-90064188D01*
X141470820Y-90100498D01*
X141406098Y-90135093D01*
X141197400Y-90071785D01*
X140970000Y-90049388D01*
X140742601Y-90071785D01*
X140523941Y-90138115D01*
X140335001Y-90239106D01*
X140146060Y-90138115D01*
X139927400Y-90071785D01*
X139700000Y-90049388D01*
X139472601Y-90071785D01*
X139253941Y-90138115D01*
X139052422Y-90245829D01*
X138875789Y-90390788D01*
X138730830Y-90567421D01*
X138623115Y-90768940D01*
X138556785Y-90987600D01*
X138540000Y-91158021D01*
X130948885Y-91158021D01*
X130938787Y-91089870D01*
X130843603Y-90823708D01*
X130776671Y-90698486D01*
X130532702Y-90626903D01*
X129719605Y-91440000D01*
X129360395Y-91440000D01*
X128547298Y-90626903D01*
X128303329Y-90698486D01*
X128182429Y-90953996D01*
X128113700Y-91228184D01*
X128099783Y-91510512D01*
X125975000Y-91510512D01*
X125975000Y-91298665D01*
X125919853Y-91021426D01*
X125811680Y-90760273D01*
X125654637Y-90525241D01*
X125576694Y-90447298D01*
X128726903Y-90447298D01*
X129540000Y-91260395D01*
X130353097Y-90447298D01*
X130281514Y-90203329D01*
X130026004Y-90082429D01*
X129791870Y-90023740D01*
X163515000Y-90023740D01*
X163515000Y-90316260D01*
X163572068Y-90603158D01*
X163684010Y-90873411D01*
X163846525Y-91116632D01*
X164053368Y-91323475D01*
X164227760Y-91440000D01*
X164053368Y-91556525D01*
X163846525Y-91763368D01*
X163684010Y-92006589D01*
X163572068Y-92276842D01*
X163515000Y-92563740D01*
X163515000Y-92856260D01*
X163572068Y-93143158D01*
X163684010Y-93413411D01*
X163846525Y-93656632D01*
X164053368Y-93863475D01*
X164227760Y-93980000D01*
X164053368Y-94096525D01*
X163846525Y-94303368D01*
X163684010Y-94546589D01*
X163572068Y-94816842D01*
X163515000Y-95103740D01*
X163515000Y-95396260D01*
X163572068Y-95683158D01*
X163684010Y-95953411D01*
X163846525Y-96196632D01*
X164053368Y-96403475D01*
X164227760Y-96520000D01*
X164053368Y-96636525D01*
X163846525Y-96843368D01*
X163684010Y-97086589D01*
X163572068Y-97356842D01*
X163515000Y-97643740D01*
X163515000Y-97936260D01*
X163572068Y-98223158D01*
X163684010Y-98493411D01*
X163846525Y-98736632D01*
X164053368Y-98943475D01*
X164227760Y-99060000D01*
X164053368Y-99176525D01*
X163846525Y-99383368D01*
X163684010Y-99626589D01*
X163572068Y-99896842D01*
X163515000Y-100183740D01*
X163515000Y-100476260D01*
X163572068Y-100763158D01*
X163684010Y-101033411D01*
X163846525Y-101276632D01*
X164053368Y-101483475D01*
X164227760Y-101600000D01*
X164053368Y-101716525D01*
X163846525Y-101923368D01*
X163684010Y-102166589D01*
X163572068Y-102436842D01*
X163515000Y-102723740D01*
X163515000Y-103016260D01*
X163572068Y-103303158D01*
X163684010Y-103573411D01*
X163846525Y-103816632D01*
X164053368Y-104023475D01*
X164227760Y-104140000D01*
X164053368Y-104256525D01*
X163846525Y-104463368D01*
X163684010Y-104706589D01*
X163572068Y-104976842D01*
X163515000Y-105263740D01*
X163515000Y-105556260D01*
X163572068Y-105843158D01*
X163684010Y-106113411D01*
X163846525Y-106356632D01*
X164053368Y-106563475D01*
X164296589Y-106725990D01*
X164566842Y-106837932D01*
X164853740Y-106895000D01*
X165146260Y-106895000D01*
X165433158Y-106837932D01*
X165703411Y-106725990D01*
X165946632Y-106563475D01*
X166153475Y-106356632D01*
X166315990Y-106113411D01*
X166427932Y-105843158D01*
X166485000Y-105556260D01*
X166485000Y-105263740D01*
X166427932Y-104976842D01*
X166315990Y-104706589D01*
X166153475Y-104463368D01*
X165946632Y-104256525D01*
X165772240Y-104140000D01*
X165946632Y-104023475D01*
X166153475Y-103816632D01*
X166315990Y-103573411D01*
X166427932Y-103303158D01*
X166485000Y-103016260D01*
X166485000Y-102723740D01*
X166427932Y-102436842D01*
X166315990Y-102166589D01*
X166153475Y-101923368D01*
X165946632Y-101716525D01*
X165772240Y-101600000D01*
X165946632Y-101483475D01*
X166153475Y-101276632D01*
X166315990Y-101033411D01*
X166427932Y-100763158D01*
X166485000Y-100476260D01*
X166485000Y-100183740D01*
X166427932Y-99896842D01*
X166315990Y-99626589D01*
X166153475Y-99383368D01*
X165946632Y-99176525D01*
X165772240Y-99060000D01*
X165946632Y-98943475D01*
X166153475Y-98736632D01*
X166315990Y-98493411D01*
X166427932Y-98223158D01*
X166485000Y-97936260D01*
X166485000Y-97643740D01*
X166427932Y-97356842D01*
X166315990Y-97086589D01*
X166153475Y-96843368D01*
X165946632Y-96636525D01*
X165772240Y-96520000D01*
X165946632Y-96403475D01*
X166153475Y-96196632D01*
X166315990Y-95953411D01*
X166427932Y-95683158D01*
X166485000Y-95396260D01*
X166485000Y-95103740D01*
X166427932Y-94816842D01*
X166315990Y-94546589D01*
X166153475Y-94303368D01*
X165946632Y-94096525D01*
X165772240Y-93980000D01*
X165946632Y-93863475D01*
X166153475Y-93656632D01*
X166315990Y-93413411D01*
X166427932Y-93143158D01*
X166485000Y-92856260D01*
X166485000Y-92563740D01*
X166427932Y-92276842D01*
X166315990Y-92006589D01*
X166153475Y-91763368D01*
X165946632Y-91556525D01*
X165772240Y-91440000D01*
X165946632Y-91323475D01*
X166153475Y-91116632D01*
X166315990Y-90873411D01*
X166427932Y-90603158D01*
X166485000Y-90316260D01*
X166485000Y-90023740D01*
X166427932Y-89736842D01*
X166315990Y-89466589D01*
X166153475Y-89223368D01*
X165946632Y-89016525D01*
X165764466Y-88894805D01*
X165881355Y-88825178D01*
X166097588Y-88630269D01*
X166271641Y-88396920D01*
X166396825Y-88134099D01*
X166441476Y-87986890D01*
X166320155Y-87757000D01*
X165127000Y-87757000D01*
X165127000Y-87777000D01*
X164873000Y-87777000D01*
X164873000Y-87757000D01*
X163679845Y-87757000D01*
X163558524Y-87986890D01*
X163603175Y-88134099D01*
X163728359Y-88396920D01*
X163902412Y-88630269D01*
X164118645Y-88825178D01*
X164235534Y-88894805D01*
X164053368Y-89016525D01*
X163846525Y-89223368D01*
X163684010Y-89466589D01*
X163572068Y-89736842D01*
X163515000Y-90023740D01*
X129791870Y-90023740D01*
X129751816Y-90013700D01*
X129469488Y-89999783D01*
X129189870Y-90041213D01*
X128923708Y-90136397D01*
X128798486Y-90203329D01*
X128726903Y-90447298D01*
X125576694Y-90447298D01*
X125454759Y-90325363D01*
X125219727Y-90168320D01*
X124958574Y-90060147D01*
X124681335Y-90005000D01*
X124398665Y-90005000D01*
X124121426Y-90060147D01*
X123860273Y-90168320D01*
X123625241Y-90325363D01*
X123425363Y-90525241D01*
X123268320Y-90760273D01*
X123160147Y-91021426D01*
X123105000Y-91298665D01*
X118173041Y-91298665D01*
X118123696Y-91050595D01*
X118023061Y-90807641D01*
X117876962Y-90588987D01*
X117691013Y-90403038D01*
X117472359Y-90256939D01*
X117229405Y-90156304D01*
X116971486Y-90105000D01*
X116708514Y-90105000D01*
X116450595Y-90156304D01*
X116207641Y-90256939D01*
X115988987Y-90403038D01*
X115803038Y-90588987D01*
X115656939Y-90807641D01*
X115556304Y-91050595D01*
X115505000Y-91308514D01*
X113095000Y-91308514D01*
X113043696Y-91050595D01*
X112943061Y-90807641D01*
X112796962Y-90588987D01*
X112611013Y-90403038D01*
X112392359Y-90256939D01*
X112149405Y-90156304D01*
X111891486Y-90105000D01*
X111628514Y-90105000D01*
X111370595Y-90156304D01*
X111127641Y-90256939D01*
X110908987Y-90403038D01*
X110723038Y-90588987D01*
X110576939Y-90807641D01*
X110476304Y-91050595D01*
X110425000Y-91308514D01*
X106038188Y-91308514D01*
X106264988Y-91214571D01*
X106560621Y-91017035D01*
X106812035Y-90765621D01*
X107009571Y-90469988D01*
X107145635Y-90141499D01*
X107215000Y-89792777D01*
X107215000Y-89437223D01*
X107145635Y-89088501D01*
X107009571Y-88760012D01*
X106812035Y-88464379D01*
X106560621Y-88212965D01*
X106264988Y-88015429D01*
X105936499Y-87879365D01*
X105587777Y-87810000D01*
X105232223Y-87810000D01*
X104883501Y-87879365D01*
X104555012Y-88015429D01*
X104259379Y-88212965D01*
X104007965Y-88464379D01*
X103810429Y-88760012D01*
X103674365Y-89088501D01*
X103605000Y-89437223D01*
X103530000Y-89437223D01*
X103530000Y-86830000D01*
X110321928Y-86830000D01*
X110321928Y-88430000D01*
X110334188Y-88554482D01*
X110370498Y-88674180D01*
X110429463Y-88784494D01*
X110508815Y-88881185D01*
X110605506Y-88960537D01*
X110715820Y-89019502D01*
X110835518Y-89055812D01*
X110960000Y-89068072D01*
X112560000Y-89068072D01*
X112684482Y-89055812D01*
X112804180Y-89019502D01*
X112914494Y-88960537D01*
X113011185Y-88881185D01*
X113090537Y-88784494D01*
X113149502Y-88674180D01*
X113185812Y-88554482D01*
X113186643Y-88546039D01*
X113385241Y-88744637D01*
X113620273Y-88901680D01*
X113881426Y-89009853D01*
X114158665Y-89065000D01*
X114441335Y-89065000D01*
X114718574Y-89009853D01*
X114979727Y-88901680D01*
X115214759Y-88744637D01*
X115414637Y-88544759D01*
X115570000Y-88312241D01*
X115725363Y-88544759D01*
X115925241Y-88744637D01*
X116160273Y-88901680D01*
X116421426Y-89009853D01*
X116698665Y-89065000D01*
X116981335Y-89065000D01*
X117258574Y-89009853D01*
X117519727Y-88901680D01*
X117754759Y-88744637D01*
X117954637Y-88544759D01*
X118110000Y-88312241D01*
X118265363Y-88544759D01*
X118465241Y-88744637D01*
X118700273Y-88901680D01*
X118961426Y-89009853D01*
X119238665Y-89065000D01*
X119521335Y-89065000D01*
X119798574Y-89009853D01*
X120059727Y-88901680D01*
X120294759Y-88744637D01*
X120494637Y-88544759D01*
X120651680Y-88309727D01*
X120724669Y-88133514D01*
X124395000Y-88133514D01*
X124395000Y-88396486D01*
X124446304Y-88654405D01*
X124546939Y-88897359D01*
X124693038Y-89116013D01*
X124878987Y-89301962D01*
X125097641Y-89448061D01*
X125340595Y-89548696D01*
X125598514Y-89600000D01*
X125861486Y-89600000D01*
X126119405Y-89548696D01*
X126362359Y-89448061D01*
X126581013Y-89301962D01*
X126766962Y-89116013D01*
X126913061Y-88897359D01*
X127013696Y-88654405D01*
X127065000Y-88396486D01*
X127065000Y-88133514D01*
X129475000Y-88133514D01*
X129475000Y-88396486D01*
X129526304Y-88654405D01*
X129626939Y-88897359D01*
X129773038Y-89116013D01*
X129958987Y-89301962D01*
X130177641Y-89448061D01*
X130420595Y-89548696D01*
X130678514Y-89600000D01*
X130941486Y-89600000D01*
X131199405Y-89548696D01*
X131442359Y-89448061D01*
X131661013Y-89301962D01*
X131846962Y-89116013D01*
X131993061Y-88897359D01*
X132093696Y-88654405D01*
X132145000Y-88396486D01*
X132145000Y-88133514D01*
X132093696Y-87875595D01*
X131993061Y-87632641D01*
X131846962Y-87413987D01*
X131661013Y-87228038D01*
X131442359Y-87081939D01*
X131199405Y-86981304D01*
X130941486Y-86930000D01*
X130678514Y-86930000D01*
X130420595Y-86981304D01*
X130177641Y-87081939D01*
X129958987Y-87228038D01*
X129773038Y-87413987D01*
X129626939Y-87632641D01*
X129526304Y-87875595D01*
X129475000Y-88133514D01*
X127065000Y-88133514D01*
X127013696Y-87875595D01*
X126913061Y-87632641D01*
X126766962Y-87413987D01*
X126581013Y-87228038D01*
X126362359Y-87081939D01*
X126119405Y-86981304D01*
X125861486Y-86930000D01*
X125598514Y-86930000D01*
X125340595Y-86981304D01*
X125097641Y-87081939D01*
X124878987Y-87228038D01*
X124693038Y-87413987D01*
X124546939Y-87632641D01*
X124446304Y-87875595D01*
X124395000Y-88133514D01*
X120724669Y-88133514D01*
X120759853Y-88048574D01*
X120815000Y-87771335D01*
X120815000Y-87488665D01*
X120759853Y-87211426D01*
X120651680Y-86950273D01*
X120494637Y-86715241D01*
X120294759Y-86515363D01*
X120059727Y-86358320D01*
X119798574Y-86250147D01*
X119640306Y-86218665D01*
X121755000Y-86218665D01*
X121755000Y-86501335D01*
X121810147Y-86778574D01*
X121918320Y-87039727D01*
X122075363Y-87274759D01*
X122275241Y-87474637D01*
X122510273Y-87631680D01*
X122771426Y-87739853D01*
X123048665Y-87795000D01*
X123331335Y-87795000D01*
X123608574Y-87739853D01*
X123869727Y-87631680D01*
X124104759Y-87474637D01*
X124304637Y-87274759D01*
X124461680Y-87039727D01*
X124569853Y-86778574D01*
X124625000Y-86501335D01*
X124625000Y-86218665D01*
X124569853Y-85941426D01*
X124461680Y-85680273D01*
X124304637Y-85445241D01*
X124104759Y-85245363D01*
X123869727Y-85088320D01*
X123608574Y-84980147D01*
X123331335Y-84925000D01*
X123048665Y-84925000D01*
X122771426Y-84980147D01*
X122510273Y-85088320D01*
X122275241Y-85245363D01*
X122075363Y-85445241D01*
X121918320Y-85680273D01*
X121810147Y-85941426D01*
X121755000Y-86218665D01*
X119640306Y-86218665D01*
X119521335Y-86195000D01*
X119238665Y-86195000D01*
X118961426Y-86250147D01*
X118700273Y-86358320D01*
X118465241Y-86515363D01*
X118265363Y-86715241D01*
X118110000Y-86947759D01*
X117954637Y-86715241D01*
X117754759Y-86515363D01*
X117519727Y-86358320D01*
X117258574Y-86250147D01*
X116981335Y-86195000D01*
X116698665Y-86195000D01*
X116421426Y-86250147D01*
X116160273Y-86358320D01*
X115925241Y-86515363D01*
X115725363Y-86715241D01*
X115570000Y-86947759D01*
X115414637Y-86715241D01*
X115214759Y-86515363D01*
X114979727Y-86358320D01*
X114718574Y-86250147D01*
X114441335Y-86195000D01*
X114158665Y-86195000D01*
X113881426Y-86250147D01*
X113620273Y-86358320D01*
X113385241Y-86515363D01*
X113186643Y-86713961D01*
X113185812Y-86705518D01*
X113149502Y-86585820D01*
X113090537Y-86475506D01*
X113011185Y-86378815D01*
X112914494Y-86299463D01*
X112804180Y-86240498D01*
X112684482Y-86204188D01*
X112560000Y-86191928D01*
X110960000Y-86191928D01*
X110835518Y-86204188D01*
X110715820Y-86240498D01*
X110605506Y-86299463D01*
X110508815Y-86378815D01*
X110429463Y-86475506D01*
X110370498Y-86585820D01*
X110334188Y-86705518D01*
X110321928Y-86830000D01*
X103530000Y-86830000D01*
X103530000Y-84868514D01*
X124395000Y-84868514D01*
X124395000Y-85131486D01*
X124446304Y-85389405D01*
X124546939Y-85632359D01*
X124693038Y-85851013D01*
X124878987Y-86036962D01*
X125097641Y-86183061D01*
X125340595Y-86283696D01*
X125598514Y-86335000D01*
X125861486Y-86335000D01*
X126119405Y-86283696D01*
X126362359Y-86183061D01*
X126581013Y-86036962D01*
X126766962Y-85851013D01*
X126913061Y-85632359D01*
X127013696Y-85389405D01*
X127065000Y-85131486D01*
X127065000Y-84868514D01*
X129475000Y-84868514D01*
X129475000Y-85131486D01*
X129526304Y-85389405D01*
X129626939Y-85632359D01*
X129773038Y-85851013D01*
X129958987Y-86036962D01*
X130177641Y-86183061D01*
X130420595Y-86283696D01*
X130678514Y-86335000D01*
X130941486Y-86335000D01*
X131199405Y-86283696D01*
X131442359Y-86183061D01*
X131661013Y-86036962D01*
X131846962Y-85851013D01*
X131993061Y-85632359D01*
X132093696Y-85389405D01*
X132145000Y-85131486D01*
X132145000Y-84868514D01*
X132093696Y-84610595D01*
X131993061Y-84367641D01*
X131846962Y-84148987D01*
X131661013Y-83963038D01*
X131442359Y-83816939D01*
X131203647Y-83718061D01*
X134855000Y-83718061D01*
X134855000Y-83921939D01*
X134894774Y-84121898D01*
X134972795Y-84310256D01*
X135086063Y-84479774D01*
X135230226Y-84623937D01*
X135399744Y-84737205D01*
X135588102Y-84815226D01*
X135788061Y-84855000D01*
X135991939Y-84855000D01*
X136191898Y-84815226D01*
X136380256Y-84737205D01*
X136422468Y-84709000D01*
X142490797Y-84709000D01*
X142544557Y-84710871D01*
X142582274Y-84714945D01*
X142615325Y-84721110D01*
X142644547Y-84729024D01*
X142670980Y-84738583D01*
X142695684Y-84749941D01*
X142719674Y-84763520D01*
X142743865Y-84780010D01*
X142768875Y-84800214D01*
X142804866Y-84834262D01*
X142905241Y-84934637D01*
X143140273Y-85091680D01*
X143401426Y-85199853D01*
X143678665Y-85255000D01*
X143961335Y-85255000D01*
X144238574Y-85199853D01*
X144499727Y-85091680D01*
X144734759Y-84934637D01*
X144934637Y-84734759D01*
X145011316Y-84620000D01*
X145881928Y-84620000D01*
X145894188Y-84744482D01*
X145930498Y-84864180D01*
X145989463Y-84974494D01*
X146068815Y-85071185D01*
X146165506Y-85150537D01*
X146275820Y-85209502D01*
X146395518Y-85245812D01*
X146520000Y-85258072D01*
X147034250Y-85255000D01*
X147193000Y-85096250D01*
X147193000Y-83947000D01*
X147447000Y-83947000D01*
X147447000Y-85096250D01*
X147605750Y-85255000D01*
X148120000Y-85258072D01*
X148244482Y-85245812D01*
X148364180Y-85209502D01*
X148474494Y-85150537D01*
X148571185Y-85071185D01*
X148650537Y-84974494D01*
X148709502Y-84864180D01*
X148725117Y-84812702D01*
X152531903Y-84812702D01*
X152603486Y-85056671D01*
X152858996Y-85177571D01*
X153133184Y-85246300D01*
X153415512Y-85260217D01*
X153695130Y-85218787D01*
X153961292Y-85123603D01*
X154086514Y-85056671D01*
X154158097Y-84812702D01*
X153345000Y-83999605D01*
X152531903Y-84812702D01*
X148725117Y-84812702D01*
X148745812Y-84744482D01*
X148758072Y-84620000D01*
X148755000Y-84105750D01*
X148596250Y-83947000D01*
X147447000Y-83947000D01*
X147193000Y-83947000D01*
X146043750Y-83947000D01*
X145885000Y-84105750D01*
X145881928Y-84620000D01*
X145011316Y-84620000D01*
X145091680Y-84499727D01*
X145199853Y-84238574D01*
X145255000Y-83961335D01*
X145255000Y-83890512D01*
X151904783Y-83890512D01*
X151946213Y-84170130D01*
X152041397Y-84436292D01*
X152108329Y-84561514D01*
X152352298Y-84633097D01*
X153165395Y-83820000D01*
X153524605Y-83820000D01*
X154337702Y-84633097D01*
X154581671Y-84561514D01*
X154702571Y-84306004D01*
X154771300Y-84031816D01*
X154785217Y-83749488D01*
X154743787Y-83469870D01*
X154648603Y-83203708D01*
X154581671Y-83078486D01*
X154382340Y-83020000D01*
X155406928Y-83020000D01*
X155406928Y-84620000D01*
X155419188Y-84744482D01*
X155455498Y-84864180D01*
X155514463Y-84974494D01*
X155593815Y-85071185D01*
X155690506Y-85150537D01*
X155800820Y-85209502D01*
X155920518Y-85245812D01*
X156045000Y-85258072D01*
X157645000Y-85258072D01*
X157769482Y-85245812D01*
X157889180Y-85209502D01*
X157999494Y-85150537D01*
X158096185Y-85071185D01*
X158175537Y-84974494D01*
X158234502Y-84864180D01*
X158270812Y-84744482D01*
X158283072Y-84620000D01*
X158283072Y-84240000D01*
X163511928Y-84240000D01*
X163511928Y-85940000D01*
X163524188Y-86064482D01*
X163560498Y-86184180D01*
X163619463Y-86294494D01*
X163698815Y-86391185D01*
X163795506Y-86470537D01*
X163905820Y-86529502D01*
X163986466Y-86553966D01*
X163902412Y-86629731D01*
X163728359Y-86863080D01*
X163603175Y-87125901D01*
X163558524Y-87273110D01*
X163679845Y-87503000D01*
X164873000Y-87503000D01*
X164873000Y-87483000D01*
X165127000Y-87483000D01*
X165127000Y-87503000D01*
X166320155Y-87503000D01*
X166441476Y-87273110D01*
X166396825Y-87125901D01*
X166271641Y-86863080D01*
X166097588Y-86629731D01*
X166013534Y-86553966D01*
X166094180Y-86529502D01*
X166204494Y-86470537D01*
X166301185Y-86391185D01*
X166380537Y-86294494D01*
X166439502Y-86184180D01*
X166475812Y-86064482D01*
X166488072Y-85940000D01*
X166488072Y-84240000D01*
X166475812Y-84115518D01*
X166439502Y-83995820D01*
X166380537Y-83885506D01*
X166301185Y-83788815D01*
X166204494Y-83709463D01*
X166094180Y-83650498D01*
X165974482Y-83614188D01*
X165850000Y-83601928D01*
X164150000Y-83601928D01*
X164025518Y-83614188D01*
X163905820Y-83650498D01*
X163795506Y-83709463D01*
X163698815Y-83788815D01*
X163619463Y-83885506D01*
X163560498Y-83995820D01*
X163524188Y-84115518D01*
X163511928Y-84240000D01*
X158283072Y-84240000D01*
X158283072Y-83020000D01*
X158270812Y-82895518D01*
X158234502Y-82775820D01*
X158175537Y-82665506D01*
X158096185Y-82568815D01*
X157999494Y-82489463D01*
X157889180Y-82430498D01*
X157769482Y-82394188D01*
X157645000Y-82381928D01*
X156045000Y-82381928D01*
X155920518Y-82394188D01*
X155800820Y-82430498D01*
X155690506Y-82489463D01*
X155593815Y-82568815D01*
X155514463Y-82665506D01*
X155455498Y-82775820D01*
X155419188Y-82895518D01*
X155406928Y-83020000D01*
X154382340Y-83020000D01*
X154337702Y-83006903D01*
X153524605Y-83820000D01*
X153165395Y-83820000D01*
X152352298Y-83006903D01*
X152108329Y-83078486D01*
X151987429Y-83333996D01*
X151918700Y-83608184D01*
X151904783Y-83890512D01*
X145255000Y-83890512D01*
X145255000Y-83678665D01*
X145199853Y-83401426D01*
X145091680Y-83140273D01*
X145011317Y-83020000D01*
X145881928Y-83020000D01*
X145885000Y-83534250D01*
X146043750Y-83693000D01*
X147193000Y-83693000D01*
X147193000Y-82543750D01*
X147447000Y-82543750D01*
X147447000Y-83693000D01*
X148596250Y-83693000D01*
X148755000Y-83534250D01*
X148758072Y-83020000D01*
X148745812Y-82895518D01*
X148725118Y-82827298D01*
X152531903Y-82827298D01*
X153345000Y-83640395D01*
X154158097Y-82827298D01*
X154086514Y-82583329D01*
X153831004Y-82462429D01*
X153556816Y-82393700D01*
X153274488Y-82379783D01*
X152994870Y-82421213D01*
X152728708Y-82516397D01*
X152603486Y-82583329D01*
X152531903Y-82827298D01*
X148725118Y-82827298D01*
X148709502Y-82775820D01*
X148650537Y-82665506D01*
X148571185Y-82568815D01*
X148474494Y-82489463D01*
X148364180Y-82430498D01*
X148244482Y-82394188D01*
X148120000Y-82381928D01*
X147605750Y-82385000D01*
X147447000Y-82543750D01*
X147193000Y-82543750D01*
X147034250Y-82385000D01*
X146520000Y-82381928D01*
X146395518Y-82394188D01*
X146275820Y-82430498D01*
X146165506Y-82489463D01*
X146068815Y-82568815D01*
X145989463Y-82665506D01*
X145930498Y-82775820D01*
X145894188Y-82895518D01*
X145881928Y-83020000D01*
X145011317Y-83020000D01*
X144934637Y-82905241D01*
X144734759Y-82705363D01*
X144499727Y-82548320D01*
X144238574Y-82440147D01*
X143961335Y-82385000D01*
X143678665Y-82385000D01*
X143401426Y-82440147D01*
X143140273Y-82548320D01*
X142905241Y-82705363D01*
X142804852Y-82805752D01*
X142768883Y-82839779D01*
X142743865Y-82859989D01*
X142719674Y-82876479D01*
X142695684Y-82890058D01*
X142670980Y-82901416D01*
X142644547Y-82910975D01*
X142615325Y-82918889D01*
X142582274Y-82925054D01*
X142544557Y-82929128D01*
X142490787Y-82931000D01*
X136422468Y-82931000D01*
X136380256Y-82902795D01*
X136191898Y-82824774D01*
X135991939Y-82785000D01*
X135788061Y-82785000D01*
X135588102Y-82824774D01*
X135399744Y-82902795D01*
X135230226Y-83016063D01*
X135086063Y-83160226D01*
X134972795Y-83329744D01*
X134894774Y-83518102D01*
X134855000Y-83718061D01*
X131203647Y-83718061D01*
X131199405Y-83716304D01*
X130941486Y-83665000D01*
X130678514Y-83665000D01*
X130420595Y-83716304D01*
X130177641Y-83816939D01*
X129958987Y-83963038D01*
X129773038Y-84148987D01*
X129626939Y-84367641D01*
X129526304Y-84610595D01*
X129475000Y-84868514D01*
X127065000Y-84868514D01*
X127013696Y-84610595D01*
X126913061Y-84367641D01*
X126766962Y-84148987D01*
X126581013Y-83963038D01*
X126362359Y-83816939D01*
X126119405Y-83716304D01*
X125861486Y-83665000D01*
X125598514Y-83665000D01*
X125340595Y-83716304D01*
X125097641Y-83816939D01*
X124878987Y-83963038D01*
X124693038Y-84148987D01*
X124546939Y-84367641D01*
X124446304Y-84610595D01*
X124395000Y-84868514D01*
X103530000Y-84868514D01*
X103530000Y-79868665D01*
X110325000Y-79868665D01*
X110325000Y-80151335D01*
X110380147Y-80428574D01*
X110488320Y-80689727D01*
X110645363Y-80924759D01*
X110845241Y-81124637D01*
X111080273Y-81281680D01*
X111341426Y-81389853D01*
X111618665Y-81445000D01*
X111901335Y-81445000D01*
X112178574Y-81389853D01*
X112439727Y-81281680D01*
X112674759Y-81124637D01*
X112874637Y-80924759D01*
X113030000Y-80692241D01*
X113185363Y-80924759D01*
X113385241Y-81124637D01*
X113620273Y-81281680D01*
X113881426Y-81389853D01*
X114158665Y-81445000D01*
X114441335Y-81445000D01*
X114718574Y-81389853D01*
X114979727Y-81281680D01*
X115214759Y-81124637D01*
X115414637Y-80924759D01*
X115570000Y-80692241D01*
X115725363Y-80924759D01*
X115925241Y-81124637D01*
X116160273Y-81281680D01*
X116421426Y-81389853D01*
X116698665Y-81445000D01*
X116981335Y-81445000D01*
X117258574Y-81389853D01*
X117519727Y-81281680D01*
X117754759Y-81124637D01*
X117954637Y-80924759D01*
X118110000Y-80692241D01*
X118265363Y-80924759D01*
X118465241Y-81124637D01*
X118700273Y-81281680D01*
X118961426Y-81389853D01*
X119238665Y-81445000D01*
X119521335Y-81445000D01*
X119798574Y-81389853D01*
X120059727Y-81281680D01*
X120154035Y-81218665D01*
X121755000Y-81218665D01*
X121755000Y-81501335D01*
X121810147Y-81778574D01*
X121918320Y-82039727D01*
X122075363Y-82274759D01*
X122275241Y-82474637D01*
X122510273Y-82631680D01*
X122771426Y-82739853D01*
X123048665Y-82795000D01*
X123331335Y-82795000D01*
X123608574Y-82739853D01*
X123869727Y-82631680D01*
X124104759Y-82474637D01*
X124304637Y-82274759D01*
X124461680Y-82039727D01*
X124530688Y-81873126D01*
X124546939Y-81912359D01*
X124693038Y-82131013D01*
X124878987Y-82316962D01*
X125097641Y-82463061D01*
X125340595Y-82563696D01*
X125598514Y-82615000D01*
X125861486Y-82615000D01*
X126119405Y-82563696D01*
X126362359Y-82463061D01*
X126581013Y-82316962D01*
X126766962Y-82131013D01*
X126913061Y-81912359D01*
X127013696Y-81669405D01*
X127024850Y-81613329D01*
X129517284Y-81613329D01*
X129549953Y-81721044D01*
X129660208Y-81958392D01*
X129814649Y-82169670D01*
X130007340Y-82346759D01*
X130230877Y-82482853D01*
X130476670Y-82572722D01*
X130683000Y-82450201D01*
X130683000Y-81407000D01*
X130937000Y-81407000D01*
X130937000Y-82450201D01*
X131143330Y-82572722D01*
X131389123Y-82482853D01*
X131612660Y-82346759D01*
X131805351Y-82169670D01*
X131959792Y-81958392D01*
X132070047Y-81721044D01*
X132102716Y-81613329D01*
X131979374Y-81407000D01*
X130937000Y-81407000D01*
X130683000Y-81407000D01*
X129640626Y-81407000D01*
X129517284Y-81613329D01*
X127024850Y-81613329D01*
X127065000Y-81411486D01*
X127065000Y-81148514D01*
X127024851Y-80946671D01*
X129517284Y-80946671D01*
X129640626Y-81153000D01*
X130683000Y-81153000D01*
X130683000Y-80109799D01*
X130937000Y-80109799D01*
X130937000Y-81153000D01*
X131979374Y-81153000D01*
X132102716Y-80946671D01*
X132070047Y-80838956D01*
X131959792Y-80601608D01*
X131805351Y-80390330D01*
X131612660Y-80213241D01*
X131389123Y-80077147D01*
X131143330Y-79987278D01*
X130937000Y-80109799D01*
X130683000Y-80109799D01*
X130476670Y-79987278D01*
X130230877Y-80077147D01*
X130007340Y-80213241D01*
X129814649Y-80390330D01*
X129660208Y-80601608D01*
X129549953Y-80838956D01*
X129517284Y-80946671D01*
X127024851Y-80946671D01*
X127013696Y-80890595D01*
X126913061Y-80647641D01*
X126766962Y-80428987D01*
X126581013Y-80243038D01*
X126362359Y-80096939D01*
X126119405Y-79996304D01*
X125861486Y-79945000D01*
X125598514Y-79945000D01*
X125340595Y-79996304D01*
X125097641Y-80096939D01*
X124878987Y-80243038D01*
X124693038Y-80428987D01*
X124546939Y-80647641D01*
X124497551Y-80766874D01*
X124461680Y-80680273D01*
X124304637Y-80445241D01*
X124104759Y-80245363D01*
X123869727Y-80088320D01*
X123608574Y-79980147D01*
X123331335Y-79925000D01*
X123048665Y-79925000D01*
X122771426Y-79980147D01*
X122510273Y-80088320D01*
X122275241Y-80245363D01*
X122075363Y-80445241D01*
X121918320Y-80680273D01*
X121810147Y-80941426D01*
X121755000Y-81218665D01*
X120154035Y-81218665D01*
X120294759Y-81124637D01*
X120494637Y-80924759D01*
X120651680Y-80689727D01*
X120759853Y-80428574D01*
X120815000Y-80151335D01*
X120815000Y-79868665D01*
X120759853Y-79591426D01*
X120651680Y-79330273D01*
X120494637Y-79095241D01*
X120294759Y-78895363D01*
X120059727Y-78738320D01*
X119798574Y-78630147D01*
X119521335Y-78575000D01*
X119238665Y-78575000D01*
X118961426Y-78630147D01*
X118700273Y-78738320D01*
X118465241Y-78895363D01*
X118265363Y-79095241D01*
X118110000Y-79327759D01*
X117954637Y-79095241D01*
X117754759Y-78895363D01*
X117519727Y-78738320D01*
X117258574Y-78630147D01*
X116981335Y-78575000D01*
X116698665Y-78575000D01*
X116421426Y-78630147D01*
X116160273Y-78738320D01*
X115925241Y-78895363D01*
X115725363Y-79095241D01*
X115570000Y-79327759D01*
X115414637Y-79095241D01*
X115214759Y-78895363D01*
X114979727Y-78738320D01*
X114718574Y-78630147D01*
X114441335Y-78575000D01*
X114158665Y-78575000D01*
X113881426Y-78630147D01*
X113620273Y-78738320D01*
X113385241Y-78895363D01*
X113185363Y-79095241D01*
X113030000Y-79327759D01*
X112874637Y-79095241D01*
X112674759Y-78895363D01*
X112439727Y-78738320D01*
X112178574Y-78630147D01*
X111901335Y-78575000D01*
X111618665Y-78575000D01*
X111341426Y-78630147D01*
X111080273Y-78738320D01*
X110845241Y-78895363D01*
X110645363Y-79095241D01*
X110488320Y-79330273D01*
X110380147Y-79591426D01*
X110325000Y-79868665D01*
X103530000Y-79868665D01*
X103530000Y-78130000D01*
X166980000Y-78130000D01*
X166980001Y-111100000D01*
D23*
%TO.N,-15V*%
G36*
X136175215Y-83555281D02*
G01*
X136177698Y-83556661D01*
X136188296Y-83561081D01*
X136189836Y-83561610D01*
X136204102Y-83565510D01*
X136205099Y-83565740D01*
X136223032Y-83569120D01*
X136223717Y-83569230D01*
X136245318Y-83572090D01*
X136245814Y-83572146D01*
X136271082Y-83574486D01*
X136271456Y-83574515D01*
X136300391Y-83576335D01*
X136300682Y-83576350D01*
X136333285Y-83577650D01*
X136333518Y-83577657D01*
X136369789Y-83578437D01*
X136369979Y-83578440D01*
X136397300Y-83578618D01*
X136397300Y-84061382D01*
X136369979Y-84061560D01*
X136369789Y-84061563D01*
X136333518Y-84062343D01*
X136333285Y-84062350D01*
X136300682Y-84063650D01*
X136300391Y-84063665D01*
X136271456Y-84065485D01*
X136271082Y-84065514D01*
X136245814Y-84067854D01*
X136245318Y-84067910D01*
X136223717Y-84070770D01*
X136223032Y-84070880D01*
X136205099Y-84074260D01*
X136204102Y-84074490D01*
X136189836Y-84078390D01*
X136188296Y-84078919D01*
X136177698Y-84083339D01*
X136175215Y-84084719D01*
X136174930Y-84084922D01*
X135715426Y-83820000D01*
X136174930Y-83555078D01*
X136175215Y-83555281D01*
G37*
X136175215Y-83555281D02*
X136177698Y-83556661D01*
X136188296Y-83561081D01*
X136189836Y-83561610D01*
X136204102Y-83565510D01*
X136205099Y-83565740D01*
X136223032Y-83569120D01*
X136223717Y-83569230D01*
X136245318Y-83572090D01*
X136245814Y-83572146D01*
X136271082Y-83574486D01*
X136271456Y-83574515D01*
X136300391Y-83576335D01*
X136300682Y-83576350D01*
X136333285Y-83577650D01*
X136333518Y-83577657D01*
X136369789Y-83578437D01*
X136369979Y-83578440D01*
X136397300Y-83578618D01*
X136397300Y-84061382D01*
X136369979Y-84061560D01*
X136369789Y-84061563D01*
X136333518Y-84062343D01*
X136333285Y-84062350D01*
X136300682Y-84063650D01*
X136300391Y-84063665D01*
X136271456Y-84065485D01*
X136271082Y-84065514D01*
X136245814Y-84067854D01*
X136245318Y-84067910D01*
X136223717Y-84070770D01*
X136223032Y-84070880D01*
X136205099Y-84074260D01*
X136204102Y-84074490D01*
X136189836Y-84078390D01*
X136188296Y-84078919D01*
X136177698Y-84083339D01*
X136175215Y-84084719D01*
X136174930Y-84084922D01*
X135715426Y-83820000D01*
X136174930Y-83555078D01*
X136175215Y-83555281D01*
G36*
X144194574Y-83820000D02*
G01*
X143250541Y-84364272D01*
X143195956Y-84312633D01*
X143195209Y-84311980D01*
X143130812Y-84259960D01*
X143129984Y-84259345D01*
X143062648Y-84213445D01*
X143061751Y-84212887D01*
X142991476Y-84173107D01*
X142990525Y-84172620D01*
X142917311Y-84138960D01*
X142916325Y-84138556D01*
X142840171Y-84111016D01*
X142839172Y-84110701D01*
X142760080Y-84089281D01*
X142759089Y-84089054D01*
X142677057Y-84073754D01*
X142676092Y-84073612D01*
X142591121Y-84064432D01*
X142590199Y-84064367D01*
X142514547Y-84061735D01*
X142514547Y-83578265D01*
X142590199Y-83575632D01*
X142591121Y-83575567D01*
X142676092Y-83566387D01*
X142677057Y-83566245D01*
X142759089Y-83550945D01*
X142760080Y-83550718D01*
X142839172Y-83529298D01*
X142840171Y-83528983D01*
X142916325Y-83501443D01*
X142917311Y-83501039D01*
X142990525Y-83467379D01*
X142991476Y-83466892D01*
X143061751Y-83427112D01*
X143062648Y-83426554D01*
X143129984Y-83380654D01*
X143130812Y-83380039D01*
X143195209Y-83328019D01*
X143195956Y-83327366D01*
X143250541Y-83275728D01*
X144194574Y-83820000D01*
G37*
X144194574Y-83820000D02*
X143250541Y-84364272D01*
X143195956Y-84312633D01*
X143195209Y-84311980D01*
X143130812Y-84259960D01*
X143129984Y-84259345D01*
X143062648Y-84213445D01*
X143061751Y-84212887D01*
X142991476Y-84173107D01*
X142990525Y-84172620D01*
X142917311Y-84138960D01*
X142916325Y-84138556D01*
X142840171Y-84111016D01*
X142839172Y-84110701D01*
X142760080Y-84089281D01*
X142759089Y-84089054D01*
X142677057Y-84073754D01*
X142676092Y-84073612D01*
X142591121Y-84064432D01*
X142590199Y-84064367D01*
X142514547Y-84061735D01*
X142514547Y-83578265D01*
X142590199Y-83575632D01*
X142591121Y-83575567D01*
X142676092Y-83566387D01*
X142677057Y-83566245D01*
X142759089Y-83550945D01*
X142760080Y-83550718D01*
X142839172Y-83529298D01*
X142840171Y-83528983D01*
X142916325Y-83501443D01*
X142917311Y-83501039D01*
X142990525Y-83467379D01*
X142991476Y-83466892D01*
X143061751Y-83427112D01*
X143062648Y-83426554D01*
X143129984Y-83380654D01*
X143130812Y-83380039D01*
X143195209Y-83328019D01*
X143195956Y-83327366D01*
X143250541Y-83275728D01*
X144194574Y-83820000D01*
%TD*%
M02*
