M48
; DRILL file {KiCad (5.1.6)-1} date 11/25/20 15:13:37
; FORMAT={-:-/ absolute / inch / decimal}
; #@! TF.CreationDate,2020-11-25T15:13:37-05:00
; #@! TF.GenerationSoftware,Kicad,Pcbnew,(5.1.6)-1
; #@! TF.FileFunction,Plated,1,2,PTH
FMAT,2
INCH
T1C0.0157
T2C0.0276
T3C0.0315
T4C0.0354
T5C0.0394
T6C0.0433
T7C0.0512
T8C0.0598
T9C0.0922
T10C0.0945
T11C0.0984
T12C0.1772
%
G90
G05
T1
X5.0Y-3.175
X5.2Y-4.375
X6.2Y-5.175
X6.35Y-5.325
T2
X7.925Y-3.7
X8.125Y-3.7
X3.55Y-3.275
X3.55Y-3.475
X4.675Y-3.675
X4.875Y-3.675
X5.575Y-3.1
X5.775Y-3.1
X4.525Y-3.225
X4.525Y-3.425
X5.475Y-3.75
X5.675Y-3.75
X6.15Y-2.7
X6.15Y-2.9
X5.075Y-3.1
X5.275Y-3.1
X5.375Y-2.9
X5.375Y-3.1
T3
X7.625Y-2.2372
X7.625Y-2.375
X7.625Y-4.4
X7.625Y-4.5378
X7.625Y-3.3122
X7.625Y-3.45
X4.2281Y-2.9
X4.425Y-2.9
X7.275Y-2.2
X7.275Y-2.3969
X4.625Y-2.9
X4.8219Y-2.9
X7.275Y-3.2781
X7.275Y-3.475
X5.075Y-3.275
X5.075Y-3.575
X5.175Y-3.275
X5.175Y-3.575
X5.275Y-3.275
X5.275Y-3.575
X5.375Y-3.275
X5.375Y-3.575
X5.475Y-3.275
X5.475Y-3.575
X5.575Y-3.275
X5.575Y-3.575
X5.675Y-3.275
X5.675Y-3.575
X4.875Y-3.3281
X4.875Y-3.525
X4.275Y-3.175
X4.275Y-3.475
X7.275Y-4.375
X7.275Y-4.5719
X3.75Y-3.175
X3.75Y-3.275
X3.75Y-3.375
X3.75Y-3.475
X4.05Y-3.175
X4.05Y-3.275
X4.05Y-3.375
X4.05Y-3.475
X6.375Y-3.8531
X6.375Y-4.05
X7.025Y-4.375
X7.025Y-4.5719
X6.675Y-3.3122
X6.675Y-3.45
X6.675Y-2.2372
X6.675Y-2.375
X6.375Y-2.775
X6.375Y-2.9719
X6.675Y-4.4
X6.675Y-4.5378
X6.375Y-4.9531
X6.375Y-5.15
X3.8031Y-3.75
X4.0Y-3.75
X7.025Y-2.2031
X7.025Y-2.4
X3.5Y-3.975
X3.5Y-4.575
X3.6Y-3.975
X3.6Y-4.575
X3.7Y-3.975
X3.7Y-4.575
X3.8Y-3.975
X3.8Y-4.575
X3.9Y-3.975
X3.9Y-4.575
X4.0Y-3.975
X4.0Y-4.575
X4.1Y-3.975
X4.1Y-4.575
X4.2Y-3.975
X4.2Y-4.575
X4.3Y-3.975
X4.3Y-4.575
X4.4Y-3.975
X4.4Y-4.575
X4.5Y-3.975
X4.5Y-4.575
X4.6Y-3.975
X4.6Y-4.575
X4.7Y-3.975
X4.7Y-4.575
X4.8Y-3.975
X4.8Y-4.575
X4.9Y-3.975
X4.9Y-4.575
X5.0Y-3.975
X5.0Y-4.575
X5.1Y-3.975
X5.1Y-4.575
X7.025Y-3.275
X7.025Y-3.4719
T4
X7.975Y-4.025
X8.075Y-4.025
T5
X4.1Y-4.875
X4.2Y-4.875
X4.3Y-4.875
X4.4Y-4.875
X4.5Y-4.875
X4.6Y-4.875
X4.7Y-4.875
X4.8Y-4.875
X4.9Y-4.875
X5.0Y-4.875
X5.1Y-4.875
X5.2Y-4.875
X5.3Y-4.875
X5.4Y-4.875
X5.5Y-4.875
X5.6Y-4.875
X5.7Y-4.875
X5.8Y-4.875
X5.9Y-4.875
X6.0Y-4.875
X4.1Y-5.275
X4.2Y-5.275
X4.3Y-5.275
X4.4Y-5.275
X4.5Y-5.275
X4.6Y-5.275
X4.7Y-5.275
X4.8Y-5.275
X4.9Y-5.275
X5.0Y-5.275
X5.1Y-5.275
X5.2Y-5.275
X5.3Y-5.275
X5.4Y-5.275
X5.5Y-5.275
X5.6Y-5.275
X5.7Y-5.275
X5.8Y-5.275
X5.9Y-5.275
X6.0Y-5.275
X4.175Y-3.65
X4.175Y-3.75
X4.1Y-5.075
X4.2Y-5.075
X4.3Y-5.075
X4.4Y-5.075
X4.5Y-5.075
X4.6Y-5.075
X4.7Y-5.075
X4.8Y-5.075
X4.9Y-5.075
X5.0Y-5.075
X5.1Y-5.075
X5.2Y-5.075
X5.3Y-5.075
X5.4Y-5.075
X5.5Y-5.075
X5.6Y-5.075
X5.7Y-5.075
X5.8Y-5.075
X5.9Y-5.075
X6.0Y-5.075
X4.1Y-5.475
X4.2Y-5.475
X4.3Y-5.475
X4.4Y-5.475
X4.5Y-5.475
X4.6Y-5.475
X4.7Y-5.475
X4.8Y-5.475
X4.9Y-5.475
X5.0Y-5.475
X5.1Y-5.475
X5.2Y-5.475
X5.3Y-5.475
X5.4Y-5.475
X5.5Y-5.475
X5.6Y-5.475
X5.7Y-5.475
X5.8Y-5.475
X5.9Y-5.475
X6.0Y-5.475
T6
X7.05Y-3.925
X7.15Y-3.925
X7.25Y-3.925
X6.95Y-2.675
X7.35Y-2.675
X6.95Y-4.85
X7.35Y-4.85
X8.025Y-4.35
X8.425Y-4.35
X7.05Y-5.025
X7.15Y-5.025
X7.25Y-5.025
X8.025Y-4.55
X8.425Y-4.55
X8.025Y-3.2
X8.425Y-3.2
X6.95Y-3.75
X7.35Y-3.75
X7.05Y-2.85
X7.15Y-2.85
X7.25Y-2.85
X8.025Y-3.4
X8.425Y-3.4
T7
X5.2781Y-2.2313
X5.3766Y-2.1329
X5.475Y-2.625
X5.5734Y-2.2313
X5.6719Y-2.625
X5.7703Y-2.1329
X5.8687Y-2.2313
X4.2281Y-2.2313
X4.3266Y-2.1329
X4.425Y-2.625
X4.5234Y-2.2313
X4.6219Y-2.625
X4.7203Y-2.1329
X4.8187Y-2.2313
T8
X7.425Y-5.525
X7.625Y-5.525
X7.825Y-5.525
X8.425Y-3.675
X8.425Y-3.875
X8.425Y-4.075
X6.475Y-5.525
X6.675Y-5.525
X6.875Y-5.525
T9
X6.81Y-4.1096
X7.4911Y-4.1096
X6.81Y-3.0346
X7.4911Y-3.0346
X6.81Y-5.2096
X7.4911Y-5.2096
T10
X5.2781Y-2.4281
X5.8687Y-2.4281
X4.2281Y-2.4281
X4.8187Y-2.4281
T11
X6.6762Y-3.775
X7.625Y-3.775
X6.6762Y-2.7
X7.625Y-2.7
X6.6762Y-4.875
X7.625Y-4.875
T12
X3.625Y-2.325
X3.625Y-5.4244
X5.9875Y-3.875
X8.3744Y-2.3256
X8.3744Y-5.4244
T0
M30
