%TF.GenerationSoftware,KiCad,Pcbnew,(5.1.6)-1*%
%TF.CreationDate,2020-11-25T14:25:01-05:00*%
%TF.ProjectId,ArduinoMicroDualRailBoard,41726475-696e-46f4-9d69-63726f447561,rev?*%
%TF.SameCoordinates,Original*%
%TF.FileFunction,Soldermask,Top*%
%TF.FilePolarity,Negative*%
%FSLAX46Y46*%
G04 Gerber Fmt 4.6, Leading zero omitted, Abs format (unit mm)*
G04 Created by KiCad (PCBNEW (5.1.6)-1) date 2020-11-25 14:25:01*
%MOMM*%
%LPD*%
G01*
G04 APERTURE LIST*
%ADD10O,1.800000X1.800000*%
%ADD11R,1.800000X1.800000*%
%ADD12C,3.100000*%
%ADD13R,3.100000X3.100000*%
%ADD14C,3.615000*%
%ADD15C,3.850000*%
%ADD16O,1.300000X2.100000*%
%ADD17C,1.700000*%
%ADD18O,1.700000X1.700000*%
%ADD19R,1.700000X1.700000*%
%ADD20O,2.005000X2.100000*%
%ADD21R,2.005000X2.100000*%
%ADD22O,1.500000X1.500000*%
%ADD23C,1.500000*%
%ADD24C,3.700000*%
%ADD25C,2.050000*%
%ADD26C,1.900000*%
%ADD27R,1.900000X1.900000*%
%ADD28O,2.300000X2.300000*%
%ADD29R,2.300000X2.300000*%
G04 APERTURE END LIST*
D10*
%TO.C,J10*%
X106045000Y-92710000D03*
D11*
X106045000Y-95250000D03*
%TD*%
D12*
%TO.C,J9*%
X188595000Y-140335000D03*
X193675000Y-140335000D03*
D13*
X198755000Y-140335000D03*
%TD*%
D14*
%TO.C,U9*%
X172975000Y-132325000D03*
X190275000Y-132325000D03*
D15*
X169575000Y-123825000D03*
X193675000Y-123825000D03*
%TD*%
D14*
%TO.C,U8*%
X172975000Y-77080000D03*
X190275000Y-77080000D03*
D15*
X169575000Y-68580000D03*
X193675000Y-68580000D03*
%TD*%
D14*
%TO.C,U7*%
X172975000Y-104385000D03*
X190275000Y-104385000D03*
D15*
X169575000Y-95885000D03*
X193675000Y-95885000D03*
%TD*%
D16*
%TO.C,U4*%
X88900000Y-100965000D03*
X88900000Y-116205000D03*
X91440000Y-100965000D03*
X91440000Y-116205000D03*
X93980000Y-100965000D03*
X93980000Y-116205000D03*
X96520000Y-100965000D03*
X96520000Y-116205000D03*
X99060000Y-100965000D03*
X99060000Y-116205000D03*
X101600000Y-100965000D03*
X101600000Y-116205000D03*
X104140000Y-100965000D03*
X104140000Y-116205000D03*
X106680000Y-100965000D03*
X106680000Y-116205000D03*
X109220000Y-100965000D03*
X109220000Y-116205000D03*
X111760000Y-100965000D03*
X111760000Y-116205000D03*
X114300000Y-100965000D03*
X114300000Y-116205000D03*
X116840000Y-100965000D03*
X116840000Y-116205000D03*
X119380000Y-100965000D03*
X119380000Y-116205000D03*
X121920000Y-100965000D03*
X121920000Y-116205000D03*
X124460000Y-100965000D03*
X124460000Y-116205000D03*
X127000000Y-100965000D03*
X127000000Y-116205000D03*
X129540000Y-100965000D03*
X129540000Y-116205000D03*
%TD*%
D17*
%TO.C,F3*%
X161925000Y-125810000D03*
X161925000Y-130810000D03*
%TD*%
%TO.C,F2*%
X161925000Y-102870000D03*
X161925000Y-97870000D03*
%TD*%
%TO.C,F1*%
X161925000Y-75485000D03*
X161925000Y-70485000D03*
%TD*%
D18*
%TO.C,U6*%
X95250000Y-88265000D03*
X102870000Y-80645000D03*
X95250000Y-85725000D03*
X102870000Y-83185000D03*
X95250000Y-83185000D03*
X102870000Y-85725000D03*
X95250000Y-80645000D03*
D19*
X102870000Y-88265000D03*
%TD*%
D18*
%TO.C,U5*%
X128905000Y-83185000D03*
X144145000Y-90805000D03*
X131445000Y-83185000D03*
X141605000Y-90805000D03*
X133985000Y-83185000D03*
X139065000Y-90805000D03*
X136525000Y-83185000D03*
X136525000Y-90805000D03*
X139065000Y-83185000D03*
X133985000Y-90805000D03*
X141605000Y-83185000D03*
X131445000Y-90805000D03*
X144145000Y-83185000D03*
D19*
X128905000Y-90805000D03*
%TD*%
D20*
%TO.C,U3*%
X179070000Y-127635000D03*
X181610000Y-127635000D03*
D21*
X184150000Y-127635000D03*
%TD*%
D20*
%TO.C,U2*%
X179070000Y-99695000D03*
X181610000Y-99695000D03*
D21*
X184150000Y-99695000D03*
%TD*%
D20*
%TO.C,U1*%
X179070000Y-72390000D03*
X181610000Y-72390000D03*
D21*
X184150000Y-72390000D03*
%TD*%
D22*
%TO.C,R9*%
X90170000Y-88265000D03*
D23*
X90170000Y-83185000D03*
%TD*%
D22*
%TO.C,R8*%
X136525000Y-78740000D03*
D23*
X136525000Y-73660000D03*
%TD*%
D22*
%TO.C,R7*%
X149225000Y-73660000D03*
D23*
X144145000Y-73660000D03*
%TD*%
D22*
%TO.C,R6*%
X114935000Y-81915000D03*
D23*
X114935000Y-86995000D03*
%TD*%
D22*
%TO.C,R5*%
X123825000Y-95250000D03*
D23*
X128905000Y-95250000D03*
%TD*%
D22*
%TO.C,R4*%
X146685000Y-78740000D03*
D23*
X141605000Y-78740000D03*
%TD*%
D22*
%TO.C,R3*%
X144145000Y-95250000D03*
D23*
X139065000Y-95250000D03*
%TD*%
D22*
%TO.C,R2*%
X128905000Y-78740000D03*
D23*
X133985000Y-78740000D03*
%TD*%
D22*
%TO.C,R1*%
X206375000Y-93980000D03*
D23*
X201295000Y-93980000D03*
%TD*%
D24*
%TO.C,J8*%
X134065000Y-61675000D03*
X149065000Y-61675000D03*
D25*
X139065000Y-66675000D03*
X144065000Y-66675000D03*
X136565000Y-54175000D03*
X146565000Y-54175000D03*
X134065000Y-56675000D03*
X141565000Y-56675000D03*
X149065000Y-56675000D03*
%TD*%
D24*
%TO.C,J7*%
X107395000Y-61675000D03*
X122395000Y-61675000D03*
D25*
X112395000Y-66675000D03*
X117395000Y-66675000D03*
X109895000Y-54175000D03*
X119895000Y-54175000D03*
X107395000Y-56675000D03*
X114895000Y-56675000D03*
X122395000Y-56675000D03*
%TD*%
D10*
%TO.C,J6*%
X152400000Y-123825000D03*
X149860000Y-123825000D03*
X147320000Y-123825000D03*
X144780000Y-123825000D03*
X142240000Y-123825000D03*
X139700000Y-123825000D03*
X137160000Y-123825000D03*
X134620000Y-123825000D03*
X132080000Y-123825000D03*
X129540000Y-123825000D03*
X127000000Y-123825000D03*
X124460000Y-123825000D03*
X121920000Y-123825000D03*
X119380000Y-123825000D03*
X116840000Y-123825000D03*
X114300000Y-123825000D03*
X111760000Y-123825000D03*
X109220000Y-123825000D03*
X106680000Y-123825000D03*
D11*
X104140000Y-123825000D03*
%TD*%
D12*
%TO.C,J5*%
X164465000Y-140335000D03*
X169545000Y-140335000D03*
D13*
X174625000Y-140335000D03*
%TD*%
D10*
%TO.C,J4*%
X152400000Y-139065000D03*
X149860000Y-139065000D03*
X147320000Y-139065000D03*
X144780000Y-139065000D03*
X142240000Y-139065000D03*
X139700000Y-139065000D03*
X137160000Y-139065000D03*
X134620000Y-139065000D03*
X132080000Y-139065000D03*
X129540000Y-139065000D03*
X127000000Y-139065000D03*
X124460000Y-139065000D03*
X121920000Y-139065000D03*
X119380000Y-139065000D03*
X116840000Y-139065000D03*
X114300000Y-139065000D03*
X111760000Y-139065000D03*
X109220000Y-139065000D03*
X106680000Y-139065000D03*
D11*
X104140000Y-139065000D03*
%TD*%
D10*
%TO.C,J3*%
X152400000Y-133985000D03*
X149860000Y-133985000D03*
X147320000Y-133985000D03*
X144780000Y-133985000D03*
X142240000Y-133985000D03*
X139700000Y-133985000D03*
X137160000Y-133985000D03*
X134620000Y-133985000D03*
X132080000Y-133985000D03*
X129540000Y-133985000D03*
X127000000Y-133985000D03*
X124460000Y-133985000D03*
X121920000Y-133985000D03*
X119380000Y-133985000D03*
X116840000Y-133985000D03*
X114300000Y-133985000D03*
X111760000Y-133985000D03*
X109220000Y-133985000D03*
X106680000Y-133985000D03*
D11*
X104140000Y-133985000D03*
%TD*%
D12*
%TO.C,J2*%
X213995000Y-103505000D03*
X213995000Y-98425000D03*
D13*
X213995000Y-93345000D03*
%TD*%
D10*
%TO.C,J1*%
X152400000Y-128905000D03*
X149860000Y-128905000D03*
X147320000Y-128905000D03*
X144780000Y-128905000D03*
X142240000Y-128905000D03*
X139700000Y-128905000D03*
X137160000Y-128905000D03*
X134620000Y-128905000D03*
X132080000Y-128905000D03*
X129540000Y-128905000D03*
X127000000Y-128905000D03*
X124460000Y-128905000D03*
X121920000Y-128905000D03*
X119380000Y-128905000D03*
X116840000Y-128905000D03*
X114300000Y-128905000D03*
X111760000Y-128905000D03*
X109220000Y-128905000D03*
X106680000Y-128905000D03*
D11*
X104140000Y-128905000D03*
%TD*%
D18*
%TO.C,D9*%
X108585000Y-80645000D03*
D19*
X108585000Y-88265000D03*
%TD*%
D26*
%TO.C,D8*%
X202565000Y-102235000D03*
D27*
X205105000Y-102235000D03*
%TD*%
D28*
%TO.C,D7*%
X203835000Y-81280000D03*
D29*
X213995000Y-81280000D03*
%TD*%
D28*
%TO.C,D6*%
X203835000Y-115570000D03*
D29*
X213995000Y-115570000D03*
%TD*%
D28*
%TO.C,D5*%
X176530000Y-123190000D03*
D29*
X186690000Y-123190000D03*
%TD*%
D28*
%TO.C,D4*%
X176530000Y-95250000D03*
D29*
X186690000Y-95250000D03*
%TD*%
D28*
%TO.C,D3*%
X176530000Y-67945000D03*
D29*
X186690000Y-67945000D03*
%TD*%
D28*
%TO.C,D2*%
X213995000Y-86360000D03*
D29*
X203835000Y-86360000D03*
%TD*%
D28*
%TO.C,D1*%
X213995000Y-110490000D03*
D29*
X203835000Y-110490000D03*
%TD*%
D17*
%TO.C,C16*%
X123825000Y-89535000D03*
X123825000Y-84535000D03*
%TD*%
%TO.C,C15*%
X112395000Y-73660000D03*
X107395000Y-73660000D03*
%TD*%
%TO.C,C14*%
X101600000Y-95250000D03*
X96600000Y-95250000D03*
%TD*%
%TO.C,C13*%
X122475000Y-73660000D03*
X117475000Y-73660000D03*
%TD*%
%TO.C,C12*%
X178435000Y-116125000D03*
X178435000Y-111125000D03*
%TD*%
%TO.C,C11*%
X178435000Y-83185000D03*
X178435000Y-88185000D03*
%TD*%
%TO.C,C10*%
X178435000Y-55960000D03*
X178435000Y-60960000D03*
%TD*%
%TO.C,C9*%
X169545000Y-115260000D03*
D19*
X169545000Y-111760000D03*
%TD*%
D17*
%TO.C,C8*%
X169545000Y-84130000D03*
D19*
X169545000Y-87630000D03*
%TD*%
D17*
%TO.C,C7*%
X169545000Y-56825000D03*
D19*
X169545000Y-60325000D03*
%TD*%
D17*
%TO.C,C6*%
X184785000Y-116125000D03*
X184785000Y-111125000D03*
%TD*%
%TO.C,C5*%
X184785000Y-83265000D03*
X184785000Y-88265000D03*
%TD*%
%TO.C,C4*%
X184785000Y-55880000D03*
X184785000Y-60880000D03*
%TD*%
%TO.C,C3*%
X193675000Y-115260000D03*
D19*
X193675000Y-111760000D03*
%TD*%
D17*
%TO.C,C2*%
X193675000Y-84130000D03*
D19*
X193675000Y-87630000D03*
%TD*%
D17*
%TO.C,C1*%
X193675000Y-56825000D03*
D19*
X193675000Y-60325000D03*
%TD*%
M02*
