%TF.GenerationSoftware,KiCad,Pcbnew,(5.1.6)-1*%
%TF.CreationDate,2020-11-25T15:13:34-05:00*%
%TF.ProjectId,ArduinoMicroDualRailBoard,41726475-696e-46f4-9d69-63726f447561,rev?*%
%TF.SameCoordinates,Original*%
%TF.FileFunction,Legend,Top*%
%TF.FilePolarity,Positive*%
%FSLAX46Y46*%
G04 Gerber Fmt 4.6, Leading zero omitted, Abs format (unit mm)*
G04 Created by KiCad (PCBNEW (5.1.6)-1) date 2020-11-25 15:13:34*
%MOMM*%
%LPD*%
G01*
G04 APERTURE LIST*
%ADD10C,0.300000*%
%ADD11C,0.187500*%
%ADD12C,0.152400*%
%ADD13C,0.120000*%
%ADD14C,0.100000*%
%ADD15C,0.200000*%
%ADD16C,0.150000*%
%ADD17C,0.254000*%
G04 APERTURE END LIST*
D10*
X156888571Y-67023571D02*
X155388571Y-67023571D01*
X156460000Y-66523571D01*
X155388571Y-66023571D01*
X156888571Y-66023571D01*
X156888571Y-65309285D02*
X155388571Y-65309285D01*
X156888571Y-64595000D02*
X155388571Y-64595000D01*
X155388571Y-64237857D01*
X155460000Y-64023571D01*
X155602857Y-63880714D01*
X155745714Y-63809285D01*
X156031428Y-63737857D01*
X156245714Y-63737857D01*
X156531428Y-63809285D01*
X156674285Y-63880714D01*
X156817142Y-64023571D01*
X156888571Y-64237857D01*
X156888571Y-64595000D01*
X156888571Y-63095000D02*
X155388571Y-63095000D01*
X155388571Y-61452142D02*
X155388571Y-60595000D01*
X156888571Y-61023571D02*
X155388571Y-61023571D01*
X156888571Y-60095000D02*
X155388571Y-60095000D01*
X156102857Y-60095000D02*
X156102857Y-59237857D01*
X156888571Y-59237857D02*
X155388571Y-59237857D01*
X156888571Y-57666428D02*
X156174285Y-58166428D01*
X156888571Y-58523571D02*
X155388571Y-58523571D01*
X155388571Y-57952142D01*
X155460000Y-57809285D01*
X155531428Y-57737857D01*
X155674285Y-57666428D01*
X155888571Y-57666428D01*
X156031428Y-57737857D01*
X156102857Y-57809285D01*
X156174285Y-57952142D01*
X156174285Y-58523571D01*
X155388571Y-57023571D02*
X156602857Y-57023571D01*
X156745714Y-56952142D01*
X156817142Y-56880714D01*
X156888571Y-56737857D01*
X156888571Y-56452142D01*
X156817142Y-56309285D01*
X156745714Y-56237857D01*
X156602857Y-56166428D01*
X155388571Y-56166428D01*
X101643571Y-65273571D02*
X100143571Y-65273571D01*
X101215000Y-64773571D01*
X100143571Y-64273571D01*
X101643571Y-64273571D01*
X101643571Y-63559285D02*
X100143571Y-63559285D01*
X101643571Y-62845000D02*
X100143571Y-62845000D01*
X100143571Y-62487857D01*
X100215000Y-62273571D01*
X100357857Y-62130714D01*
X100500714Y-62059285D01*
X100786428Y-61987857D01*
X101000714Y-61987857D01*
X101286428Y-62059285D01*
X101429285Y-62130714D01*
X101572142Y-62273571D01*
X101643571Y-62487857D01*
X101643571Y-62845000D01*
X101643571Y-61345000D02*
X100143571Y-61345000D01*
X101643571Y-59487857D02*
X100143571Y-59487857D01*
X101643571Y-58773571D02*
X100143571Y-58773571D01*
X101643571Y-57916428D01*
X100143571Y-57916428D01*
X199433571Y-105699285D02*
X197933571Y-105699285D01*
X197933571Y-105127857D01*
X198005000Y-104985000D01*
X198076428Y-104913571D01*
X198219285Y-104842142D01*
X198433571Y-104842142D01*
X198576428Y-104913571D01*
X198647857Y-104985000D01*
X198719285Y-105127857D01*
X198719285Y-105699285D01*
X197933571Y-103913571D02*
X197933571Y-103627857D01*
X198005000Y-103485000D01*
X198147857Y-103342142D01*
X198433571Y-103270714D01*
X198933571Y-103270714D01*
X199219285Y-103342142D01*
X199362142Y-103485000D01*
X199433571Y-103627857D01*
X199433571Y-103913571D01*
X199362142Y-104056428D01*
X199219285Y-104199285D01*
X198933571Y-104270714D01*
X198433571Y-104270714D01*
X198147857Y-104199285D01*
X198005000Y-104056428D01*
X197933571Y-103913571D01*
X197933571Y-102770714D02*
X199433571Y-102413571D01*
X198362142Y-102127857D01*
X199433571Y-101842142D01*
X197933571Y-101485000D01*
X198647857Y-100913571D02*
X198647857Y-100413571D01*
X199433571Y-100199285D02*
X199433571Y-100913571D01*
X197933571Y-100913571D01*
X197933571Y-100199285D01*
X199433571Y-98699285D02*
X198719285Y-99199285D01*
X199433571Y-99556428D02*
X197933571Y-99556428D01*
X197933571Y-98985000D01*
X198005000Y-98842142D01*
X198076428Y-98770714D01*
X198219285Y-98699285D01*
X198433571Y-98699285D01*
X198576428Y-98770714D01*
X198647857Y-98842142D01*
X198719285Y-98985000D01*
X198719285Y-99556428D01*
X208165000Y-99567857D02*
X208093571Y-99710714D01*
X208093571Y-99925000D01*
X208165000Y-100139285D01*
X208307857Y-100282142D01*
X208450714Y-100353571D01*
X208736428Y-100425000D01*
X208950714Y-100425000D01*
X209236428Y-100353571D01*
X209379285Y-100282142D01*
X209522142Y-100139285D01*
X209593571Y-99925000D01*
X209593571Y-99782142D01*
X209522142Y-99567857D01*
X209450714Y-99496428D01*
X208950714Y-99496428D01*
X208950714Y-99782142D01*
X209593571Y-98853571D02*
X208093571Y-98853571D01*
X209593571Y-97996428D01*
X208093571Y-97996428D01*
X209593571Y-97282142D02*
X208093571Y-97282142D01*
X208093571Y-96925000D01*
X208165000Y-96710714D01*
X208307857Y-96567857D01*
X208450714Y-96496428D01*
X208736428Y-96425000D01*
X208950714Y-96425000D01*
X209236428Y-96496428D01*
X209379285Y-96567857D01*
X209522142Y-96710714D01*
X209593571Y-96925000D01*
X209593571Y-97282142D01*
X209165000Y-94452142D02*
X209165000Y-93737857D01*
X209593571Y-94595000D02*
X208093571Y-94095000D01*
X209593571Y-93595000D01*
X209450714Y-92237857D02*
X209522142Y-92309285D01*
X209593571Y-92523571D01*
X209593571Y-92666428D01*
X209522142Y-92880714D01*
X209379285Y-93023571D01*
X209236428Y-93095000D01*
X208950714Y-93166428D01*
X208736428Y-93166428D01*
X208450714Y-93095000D01*
X208307857Y-93023571D01*
X208165000Y-92880714D01*
X208093571Y-92666428D01*
X208093571Y-92523571D01*
X208165000Y-92309285D01*
X208236428Y-92237857D01*
X209165000Y-104612142D02*
X209165000Y-103897857D01*
X209593571Y-104755000D02*
X208093571Y-104255000D01*
X209593571Y-103755000D01*
X209450714Y-102397857D02*
X209522142Y-102469285D01*
X209593571Y-102683571D01*
X209593571Y-102826428D01*
X209522142Y-103040714D01*
X209379285Y-103183571D01*
X209236428Y-103255000D01*
X208950714Y-103326428D01*
X208736428Y-103326428D01*
X208450714Y-103255000D01*
X208307857Y-103183571D01*
X208165000Y-103040714D01*
X208093571Y-102826428D01*
X208093571Y-102683571D01*
X208165000Y-102469285D01*
X208236428Y-102397857D01*
D11*
X108831607Y-96980000D02*
X108867321Y-97015714D01*
X108903035Y-97122857D01*
X108903035Y-97194285D01*
X108867321Y-97301428D01*
X108795892Y-97372857D01*
X108724464Y-97408571D01*
X108581607Y-97444285D01*
X108474464Y-97444285D01*
X108331607Y-97408571D01*
X108260178Y-97372857D01*
X108188750Y-97301428D01*
X108153035Y-97194285D01*
X108153035Y-97122857D01*
X108188750Y-97015714D01*
X108224464Y-96980000D01*
X108903035Y-96551428D02*
X108867321Y-96622857D01*
X108831607Y-96658571D01*
X108760178Y-96694285D01*
X108545892Y-96694285D01*
X108474464Y-96658571D01*
X108438750Y-96622857D01*
X108403035Y-96551428D01*
X108403035Y-96444285D01*
X108438750Y-96372857D01*
X108474464Y-96337142D01*
X108545892Y-96301428D01*
X108760178Y-96301428D01*
X108831607Y-96337142D01*
X108867321Y-96372857D01*
X108903035Y-96444285D01*
X108903035Y-96551428D01*
X108403035Y-95980000D02*
X108903035Y-95980000D01*
X108474464Y-95980000D02*
X108438750Y-95944285D01*
X108403035Y-95872857D01*
X108403035Y-95765714D01*
X108438750Y-95694285D01*
X108510178Y-95658571D01*
X108903035Y-95658571D01*
X108403035Y-95301428D02*
X108903035Y-95301428D01*
X108474464Y-95301428D02*
X108438750Y-95265714D01*
X108403035Y-95194285D01*
X108403035Y-95087142D01*
X108438750Y-95015714D01*
X108510178Y-94980000D01*
X108903035Y-94980000D01*
X108867321Y-94337142D02*
X108903035Y-94408571D01*
X108903035Y-94551428D01*
X108867321Y-94622857D01*
X108795892Y-94658571D01*
X108510178Y-94658571D01*
X108438750Y-94622857D01*
X108403035Y-94551428D01*
X108403035Y-94408571D01*
X108438750Y-94337142D01*
X108510178Y-94301428D01*
X108581607Y-94301428D01*
X108653035Y-94658571D01*
X108867321Y-93658571D02*
X108903035Y-93730000D01*
X108903035Y-93872857D01*
X108867321Y-93944285D01*
X108831607Y-93980000D01*
X108760178Y-94015714D01*
X108545892Y-94015714D01*
X108474464Y-93980000D01*
X108438750Y-93944285D01*
X108403035Y-93872857D01*
X108403035Y-93730000D01*
X108438750Y-93658571D01*
X108403035Y-93444285D02*
X108403035Y-93158571D01*
X108153035Y-93337142D02*
X108795892Y-93337142D01*
X108867321Y-93301428D01*
X108903035Y-93230000D01*
X108903035Y-93158571D01*
X108403035Y-92444285D02*
X108403035Y-92158571D01*
X108903035Y-92337142D02*
X108260178Y-92337142D01*
X108188750Y-92301428D01*
X108153035Y-92230000D01*
X108153035Y-92158571D01*
X108903035Y-91801428D02*
X108867321Y-91872857D01*
X108831607Y-91908571D01*
X108760178Y-91944285D01*
X108545892Y-91944285D01*
X108474464Y-91908571D01*
X108438750Y-91872857D01*
X108403035Y-91801428D01*
X108403035Y-91694285D01*
X108438750Y-91622857D01*
X108474464Y-91587142D01*
X108545892Y-91551428D01*
X108760178Y-91551428D01*
X108831607Y-91587142D01*
X108867321Y-91622857D01*
X108903035Y-91694285D01*
X108903035Y-91801428D01*
X108903035Y-91230000D02*
X108403035Y-91230000D01*
X108545892Y-91230000D02*
X108474464Y-91194285D01*
X108438750Y-91158571D01*
X108403035Y-91087142D01*
X108403035Y-91015714D01*
X109715535Y-98676428D02*
X110215535Y-98676428D01*
X109786964Y-98676428D02*
X109751250Y-98640714D01*
X109715535Y-98569285D01*
X109715535Y-98462142D01*
X109751250Y-98390714D01*
X109822678Y-98355000D01*
X110215535Y-98355000D01*
X110215535Y-97890714D02*
X110179821Y-97962142D01*
X110144107Y-97997857D01*
X110072678Y-98033571D01*
X109858392Y-98033571D01*
X109786964Y-97997857D01*
X109751250Y-97962142D01*
X109715535Y-97890714D01*
X109715535Y-97783571D01*
X109751250Y-97712142D01*
X109786964Y-97676428D01*
X109858392Y-97640714D01*
X110072678Y-97640714D01*
X110144107Y-97676428D01*
X110179821Y-97712142D01*
X110215535Y-97783571D01*
X110215535Y-97890714D01*
X110215535Y-97319285D02*
X109715535Y-97319285D01*
X109858392Y-97319285D02*
X109786964Y-97283571D01*
X109751250Y-97247857D01*
X109715535Y-97176428D01*
X109715535Y-97105000D01*
X110215535Y-96855000D02*
X109715535Y-96855000D01*
X109786964Y-96855000D02*
X109751250Y-96819285D01*
X109715535Y-96747857D01*
X109715535Y-96640714D01*
X109751250Y-96569285D01*
X109822678Y-96533571D01*
X110215535Y-96533571D01*
X109822678Y-96533571D02*
X109751250Y-96497857D01*
X109715535Y-96426428D01*
X109715535Y-96319285D01*
X109751250Y-96247857D01*
X109822678Y-96212142D01*
X110215535Y-96212142D01*
X110215535Y-95533571D02*
X109822678Y-95533571D01*
X109751250Y-95569285D01*
X109715535Y-95640714D01*
X109715535Y-95783571D01*
X109751250Y-95855000D01*
X110179821Y-95533571D02*
X110215535Y-95605000D01*
X110215535Y-95783571D01*
X110179821Y-95855000D01*
X110108392Y-95890714D01*
X110036964Y-95890714D01*
X109965535Y-95855000D01*
X109929821Y-95783571D01*
X109929821Y-95605000D01*
X109894107Y-95533571D01*
X110215535Y-95069285D02*
X110179821Y-95140714D01*
X110108392Y-95176428D01*
X109465535Y-95176428D01*
X110215535Y-94105000D02*
X110179821Y-94176428D01*
X110144107Y-94212142D01*
X110072678Y-94247857D01*
X109858392Y-94247857D01*
X109786964Y-94212142D01*
X109751250Y-94176428D01*
X109715535Y-94105000D01*
X109715535Y-93997857D01*
X109751250Y-93926428D01*
X109786964Y-93890714D01*
X109858392Y-93855000D01*
X110072678Y-93855000D01*
X110144107Y-93890714D01*
X110179821Y-93926428D01*
X110215535Y-93997857D01*
X110215535Y-94105000D01*
X109715535Y-93533571D02*
X110465535Y-93533571D01*
X109751250Y-93533571D02*
X109715535Y-93462142D01*
X109715535Y-93319285D01*
X109751250Y-93247857D01*
X109786964Y-93212142D01*
X109858392Y-93176428D01*
X110072678Y-93176428D01*
X110144107Y-93212142D01*
X110179821Y-93247857D01*
X110215535Y-93319285D01*
X110215535Y-93462142D01*
X110179821Y-93533571D01*
X110179821Y-92569285D02*
X110215535Y-92640714D01*
X110215535Y-92783571D01*
X110179821Y-92855000D01*
X110108392Y-92890714D01*
X109822678Y-92890714D01*
X109751250Y-92855000D01*
X109715535Y-92783571D01*
X109715535Y-92640714D01*
X109751250Y-92569285D01*
X109822678Y-92533571D01*
X109894107Y-92533571D01*
X109965535Y-92890714D01*
X110215535Y-92212142D02*
X109715535Y-92212142D01*
X109858392Y-92212142D02*
X109786964Y-92176428D01*
X109751250Y-92140714D01*
X109715535Y-92069285D01*
X109715535Y-91997857D01*
X110215535Y-91426428D02*
X109822678Y-91426428D01*
X109751250Y-91462142D01*
X109715535Y-91533571D01*
X109715535Y-91676428D01*
X109751250Y-91747857D01*
X110179821Y-91426428D02*
X110215535Y-91497857D01*
X110215535Y-91676428D01*
X110179821Y-91747857D01*
X110108392Y-91783571D01*
X110036964Y-91783571D01*
X109965535Y-91747857D01*
X109929821Y-91676428D01*
X109929821Y-91497857D01*
X109894107Y-91426428D01*
X109715535Y-91176428D02*
X109715535Y-90890714D01*
X109465535Y-91069285D02*
X110108392Y-91069285D01*
X110179821Y-91033571D01*
X110215535Y-90962142D01*
X110215535Y-90890714D01*
X110215535Y-90640714D02*
X109715535Y-90640714D01*
X109465535Y-90640714D02*
X109501250Y-90676428D01*
X109536964Y-90640714D01*
X109501250Y-90605000D01*
X109465535Y-90640714D01*
X109536964Y-90640714D01*
X110215535Y-90176428D02*
X110179821Y-90247857D01*
X110144107Y-90283571D01*
X110072678Y-90319285D01*
X109858392Y-90319285D01*
X109786964Y-90283571D01*
X109751250Y-90247857D01*
X109715535Y-90176428D01*
X109715535Y-90069285D01*
X109751250Y-89997857D01*
X109786964Y-89962142D01*
X109858392Y-89926428D01*
X110072678Y-89926428D01*
X110144107Y-89962142D01*
X110179821Y-89997857D01*
X110215535Y-90069285D01*
X110215535Y-90176428D01*
X109715535Y-89605000D02*
X110215535Y-89605000D01*
X109786964Y-89605000D02*
X109751250Y-89569285D01*
X109715535Y-89497857D01*
X109715535Y-89390714D01*
X109751250Y-89319285D01*
X109822678Y-89283571D01*
X110215535Y-89283571D01*
D10*
X101755714Y-108835000D02*
X102470000Y-108835000D01*
X101612857Y-109263571D02*
X102112857Y-107763571D01*
X102612857Y-109263571D01*
X103112857Y-109263571D02*
X103112857Y-108263571D01*
X103112857Y-108549285D02*
X103184285Y-108406428D01*
X103255714Y-108335000D01*
X103398571Y-108263571D01*
X103541428Y-108263571D01*
X104684285Y-109263571D02*
X104684285Y-107763571D01*
X104684285Y-109192142D02*
X104541428Y-109263571D01*
X104255714Y-109263571D01*
X104112857Y-109192142D01*
X104041428Y-109120714D01*
X103970000Y-108977857D01*
X103970000Y-108549285D01*
X104041428Y-108406428D01*
X104112857Y-108335000D01*
X104255714Y-108263571D01*
X104541428Y-108263571D01*
X104684285Y-108335000D01*
X106041428Y-108263571D02*
X106041428Y-109263571D01*
X105398571Y-108263571D02*
X105398571Y-109049285D01*
X105470000Y-109192142D01*
X105612857Y-109263571D01*
X105827142Y-109263571D01*
X105970000Y-109192142D01*
X106041428Y-109120714D01*
X106755714Y-109263571D02*
X106755714Y-108263571D01*
X106755714Y-107763571D02*
X106684285Y-107835000D01*
X106755714Y-107906428D01*
X106827142Y-107835000D01*
X106755714Y-107763571D01*
X106755714Y-107906428D01*
X107470000Y-108263571D02*
X107470000Y-109263571D01*
X107470000Y-108406428D02*
X107541428Y-108335000D01*
X107684285Y-108263571D01*
X107898571Y-108263571D01*
X108041428Y-108335000D01*
X108112857Y-108477857D01*
X108112857Y-109263571D01*
X109041428Y-109263571D02*
X108898571Y-109192142D01*
X108827142Y-109120714D01*
X108755714Y-108977857D01*
X108755714Y-108549285D01*
X108827142Y-108406428D01*
X108898571Y-108335000D01*
X109041428Y-108263571D01*
X109255714Y-108263571D01*
X109398571Y-108335000D01*
X109470000Y-108406428D01*
X109541428Y-108549285D01*
X109541428Y-108977857D01*
X109470000Y-109120714D01*
X109398571Y-109192142D01*
X109255714Y-109263571D01*
X109041428Y-109263571D01*
X111327142Y-109263571D02*
X111327142Y-107763571D01*
X111827142Y-108835000D01*
X112327142Y-107763571D01*
X112327142Y-109263571D01*
X113041428Y-109263571D02*
X113041428Y-108263571D01*
X113041428Y-107763571D02*
X112970000Y-107835000D01*
X113041428Y-107906428D01*
X113112857Y-107835000D01*
X113041428Y-107763571D01*
X113041428Y-107906428D01*
X114398571Y-109192142D02*
X114255714Y-109263571D01*
X113970000Y-109263571D01*
X113827142Y-109192142D01*
X113755714Y-109120714D01*
X113684285Y-108977857D01*
X113684285Y-108549285D01*
X113755714Y-108406428D01*
X113827142Y-108335000D01*
X113970000Y-108263571D01*
X114255714Y-108263571D01*
X114398571Y-108335000D01*
X115041428Y-109263571D02*
X115041428Y-108263571D01*
X115041428Y-108549285D02*
X115112857Y-108406428D01*
X115184285Y-108335000D01*
X115327142Y-108263571D01*
X115470000Y-108263571D01*
X116184285Y-109263571D02*
X116041428Y-109192142D01*
X115970000Y-109120714D01*
X115898571Y-108977857D01*
X115898571Y-108549285D01*
X115970000Y-108406428D01*
X116041428Y-108335000D01*
X116184285Y-108263571D01*
X116398571Y-108263571D01*
X116541428Y-108335000D01*
X116612857Y-108406428D01*
X116684285Y-108549285D01*
X116684285Y-108977857D01*
X116612857Y-109120714D01*
X116541428Y-109192142D01*
X116398571Y-109263571D01*
X116184285Y-109263571D01*
X153078571Y-121836428D02*
X151578571Y-121836428D01*
X151578571Y-121479285D01*
X151650000Y-121265000D01*
X151792857Y-121122142D01*
X151935714Y-121050714D01*
X152221428Y-120979285D01*
X152435714Y-120979285D01*
X152721428Y-121050714D01*
X152864285Y-121122142D01*
X153007142Y-121265000D01*
X153078571Y-121479285D01*
X153078571Y-121836428D01*
X151721428Y-120407857D02*
X151650000Y-120336428D01*
X151578571Y-120193571D01*
X151578571Y-119836428D01*
X151650000Y-119693571D01*
X151721428Y-119622142D01*
X151864285Y-119550714D01*
X152007142Y-119550714D01*
X152221428Y-119622142D01*
X153078571Y-120479285D01*
X153078571Y-119550714D01*
X153078571Y-118122142D02*
X153078571Y-118979285D01*
X153078571Y-118550714D02*
X151578571Y-118550714D01*
X151792857Y-118693571D01*
X151935714Y-118836428D01*
X152007142Y-118979285D01*
X150538571Y-121836428D02*
X149038571Y-121836428D01*
X149038571Y-121479285D01*
X149110000Y-121265000D01*
X149252857Y-121122142D01*
X149395714Y-121050714D01*
X149681428Y-120979285D01*
X149895714Y-120979285D01*
X150181428Y-121050714D01*
X150324285Y-121122142D01*
X150467142Y-121265000D01*
X150538571Y-121479285D01*
X150538571Y-121836428D01*
X149181428Y-120407857D02*
X149110000Y-120336428D01*
X149038571Y-120193571D01*
X149038571Y-119836428D01*
X149110000Y-119693571D01*
X149181428Y-119622142D01*
X149324285Y-119550714D01*
X149467142Y-119550714D01*
X149681428Y-119622142D01*
X150538571Y-120479285D01*
X150538571Y-119550714D01*
X149038571Y-118622142D02*
X149038571Y-118479285D01*
X149110000Y-118336428D01*
X149181428Y-118265000D01*
X149324285Y-118193571D01*
X149610000Y-118122142D01*
X149967142Y-118122142D01*
X150252857Y-118193571D01*
X150395714Y-118265000D01*
X150467142Y-118336428D01*
X150538571Y-118479285D01*
X150538571Y-118622142D01*
X150467142Y-118765000D01*
X150395714Y-118836428D01*
X150252857Y-118907857D01*
X149967142Y-118979285D01*
X149610000Y-118979285D01*
X149324285Y-118907857D01*
X149181428Y-118836428D01*
X149110000Y-118765000D01*
X149038571Y-118622142D01*
X147998571Y-121836428D02*
X146498571Y-121836428D01*
X146498571Y-121479285D01*
X146570000Y-121265000D01*
X146712857Y-121122142D01*
X146855714Y-121050714D01*
X147141428Y-120979285D01*
X147355714Y-120979285D01*
X147641428Y-121050714D01*
X147784285Y-121122142D01*
X147927142Y-121265000D01*
X147998571Y-121479285D01*
X147998571Y-121836428D01*
X147998571Y-119550714D02*
X147998571Y-120407857D01*
X147998571Y-119979285D02*
X146498571Y-119979285D01*
X146712857Y-120122142D01*
X146855714Y-120265000D01*
X146927142Y-120407857D01*
X147998571Y-118836428D02*
X147998571Y-118550714D01*
X147927142Y-118407857D01*
X147855714Y-118336428D01*
X147641428Y-118193571D01*
X147355714Y-118122142D01*
X146784285Y-118122142D01*
X146641428Y-118193571D01*
X146570000Y-118265000D01*
X146498571Y-118407857D01*
X146498571Y-118693571D01*
X146570000Y-118836428D01*
X146641428Y-118907857D01*
X146784285Y-118979285D01*
X147141428Y-118979285D01*
X147284285Y-118907857D01*
X147355714Y-118836428D01*
X147427142Y-118693571D01*
X147427142Y-118407857D01*
X147355714Y-118265000D01*
X147284285Y-118193571D01*
X147141428Y-118122142D01*
X145458571Y-121836428D02*
X143958571Y-121836428D01*
X143958571Y-121479285D01*
X144030000Y-121265000D01*
X144172857Y-121122142D01*
X144315714Y-121050714D01*
X144601428Y-120979285D01*
X144815714Y-120979285D01*
X145101428Y-121050714D01*
X145244285Y-121122142D01*
X145387142Y-121265000D01*
X145458571Y-121479285D01*
X145458571Y-121836428D01*
X145458571Y-119550714D02*
X145458571Y-120407857D01*
X145458571Y-119979285D02*
X143958571Y-119979285D01*
X144172857Y-120122142D01*
X144315714Y-120265000D01*
X144387142Y-120407857D01*
X144601428Y-118693571D02*
X144530000Y-118836428D01*
X144458571Y-118907857D01*
X144315714Y-118979285D01*
X144244285Y-118979285D01*
X144101428Y-118907857D01*
X144030000Y-118836428D01*
X143958571Y-118693571D01*
X143958571Y-118407857D01*
X144030000Y-118265000D01*
X144101428Y-118193571D01*
X144244285Y-118122142D01*
X144315714Y-118122142D01*
X144458571Y-118193571D01*
X144530000Y-118265000D01*
X144601428Y-118407857D01*
X144601428Y-118693571D01*
X144672857Y-118836428D01*
X144744285Y-118907857D01*
X144887142Y-118979285D01*
X145172857Y-118979285D01*
X145315714Y-118907857D01*
X145387142Y-118836428D01*
X145458571Y-118693571D01*
X145458571Y-118407857D01*
X145387142Y-118265000D01*
X145315714Y-118193571D01*
X145172857Y-118122142D01*
X144887142Y-118122142D01*
X144744285Y-118193571D01*
X144672857Y-118265000D01*
X144601428Y-118407857D01*
X142918571Y-121836428D02*
X141418571Y-121836428D01*
X141418571Y-121479285D01*
X141490000Y-121265000D01*
X141632857Y-121122142D01*
X141775714Y-121050714D01*
X142061428Y-120979285D01*
X142275714Y-120979285D01*
X142561428Y-121050714D01*
X142704285Y-121122142D01*
X142847142Y-121265000D01*
X142918571Y-121479285D01*
X142918571Y-121836428D01*
X142918571Y-119550714D02*
X142918571Y-120407857D01*
X142918571Y-119979285D02*
X141418571Y-119979285D01*
X141632857Y-120122142D01*
X141775714Y-120265000D01*
X141847142Y-120407857D01*
X141418571Y-119050714D02*
X141418571Y-118050714D01*
X142918571Y-118693571D01*
X140378571Y-121836428D02*
X138878571Y-121836428D01*
X138878571Y-121479285D01*
X138950000Y-121265000D01*
X139092857Y-121122142D01*
X139235714Y-121050714D01*
X139521428Y-120979285D01*
X139735714Y-120979285D01*
X140021428Y-121050714D01*
X140164285Y-121122142D01*
X140307142Y-121265000D01*
X140378571Y-121479285D01*
X140378571Y-121836428D01*
X140378571Y-119550714D02*
X140378571Y-120407857D01*
X140378571Y-119979285D02*
X138878571Y-119979285D01*
X139092857Y-120122142D01*
X139235714Y-120265000D01*
X139307142Y-120407857D01*
X138878571Y-118265000D02*
X138878571Y-118550714D01*
X138950000Y-118693571D01*
X139021428Y-118765000D01*
X139235714Y-118907857D01*
X139521428Y-118979285D01*
X140092857Y-118979285D01*
X140235714Y-118907857D01*
X140307142Y-118836428D01*
X140378571Y-118693571D01*
X140378571Y-118407857D01*
X140307142Y-118265000D01*
X140235714Y-118193571D01*
X140092857Y-118122142D01*
X139735714Y-118122142D01*
X139592857Y-118193571D01*
X139521428Y-118265000D01*
X139450000Y-118407857D01*
X139450000Y-118693571D01*
X139521428Y-118836428D01*
X139592857Y-118907857D01*
X139735714Y-118979285D01*
X137838571Y-121836428D02*
X136338571Y-121836428D01*
X136338571Y-121479285D01*
X136410000Y-121265000D01*
X136552857Y-121122142D01*
X136695714Y-121050714D01*
X136981428Y-120979285D01*
X137195714Y-120979285D01*
X137481428Y-121050714D01*
X137624285Y-121122142D01*
X137767142Y-121265000D01*
X137838571Y-121479285D01*
X137838571Y-121836428D01*
X137838571Y-119550714D02*
X137838571Y-120407857D01*
X137838571Y-119979285D02*
X136338571Y-119979285D01*
X136552857Y-120122142D01*
X136695714Y-120265000D01*
X136767142Y-120407857D01*
X136338571Y-118193571D02*
X136338571Y-118907857D01*
X137052857Y-118979285D01*
X136981428Y-118907857D01*
X136910000Y-118765000D01*
X136910000Y-118407857D01*
X136981428Y-118265000D01*
X137052857Y-118193571D01*
X137195714Y-118122142D01*
X137552857Y-118122142D01*
X137695714Y-118193571D01*
X137767142Y-118265000D01*
X137838571Y-118407857D01*
X137838571Y-118765000D01*
X137767142Y-118907857D01*
X137695714Y-118979285D01*
X135298571Y-121836428D02*
X133798571Y-121836428D01*
X133798571Y-121479285D01*
X133870000Y-121265000D01*
X134012857Y-121122142D01*
X134155714Y-121050714D01*
X134441428Y-120979285D01*
X134655714Y-120979285D01*
X134941428Y-121050714D01*
X135084285Y-121122142D01*
X135227142Y-121265000D01*
X135298571Y-121479285D01*
X135298571Y-121836428D01*
X135298571Y-119550714D02*
X135298571Y-120407857D01*
X135298571Y-119979285D02*
X133798571Y-119979285D01*
X134012857Y-120122142D01*
X134155714Y-120265000D01*
X134227142Y-120407857D01*
X134298571Y-118265000D02*
X135298571Y-118265000D01*
X133727142Y-118622142D02*
X134798571Y-118979285D01*
X134798571Y-118050714D01*
X132758571Y-121836428D02*
X131258571Y-121836428D01*
X131258571Y-121479285D01*
X131330000Y-121265000D01*
X131472857Y-121122142D01*
X131615714Y-121050714D01*
X131901428Y-120979285D01*
X132115714Y-120979285D01*
X132401428Y-121050714D01*
X132544285Y-121122142D01*
X132687142Y-121265000D01*
X132758571Y-121479285D01*
X132758571Y-121836428D01*
X132758571Y-119550714D02*
X132758571Y-120407857D01*
X132758571Y-119979285D02*
X131258571Y-119979285D01*
X131472857Y-120122142D01*
X131615714Y-120265000D01*
X131687142Y-120407857D01*
X131258571Y-119050714D02*
X131258571Y-118122142D01*
X131830000Y-118622142D01*
X131830000Y-118407857D01*
X131901428Y-118265000D01*
X131972857Y-118193571D01*
X132115714Y-118122142D01*
X132472857Y-118122142D01*
X132615714Y-118193571D01*
X132687142Y-118265000D01*
X132758571Y-118407857D01*
X132758571Y-118836428D01*
X132687142Y-118979285D01*
X132615714Y-119050714D01*
X130218571Y-121836428D02*
X128718571Y-121836428D01*
X128718571Y-121479285D01*
X128790000Y-121265000D01*
X128932857Y-121122142D01*
X129075714Y-121050714D01*
X129361428Y-120979285D01*
X129575714Y-120979285D01*
X129861428Y-121050714D01*
X130004285Y-121122142D01*
X130147142Y-121265000D01*
X130218571Y-121479285D01*
X130218571Y-121836428D01*
X130218571Y-119550714D02*
X130218571Y-120407857D01*
X130218571Y-119979285D02*
X128718571Y-119979285D01*
X128932857Y-120122142D01*
X129075714Y-120265000D01*
X129147142Y-120407857D01*
X128861428Y-118979285D02*
X128790000Y-118907857D01*
X128718571Y-118765000D01*
X128718571Y-118407857D01*
X128790000Y-118265000D01*
X128861428Y-118193571D01*
X129004285Y-118122142D01*
X129147142Y-118122142D01*
X129361428Y-118193571D01*
X130218571Y-119050714D01*
X130218571Y-118122142D01*
X127678571Y-121836428D02*
X126178571Y-121836428D01*
X126178571Y-121479285D01*
X126250000Y-121265000D01*
X126392857Y-121122142D01*
X126535714Y-121050714D01*
X126821428Y-120979285D01*
X127035714Y-120979285D01*
X127321428Y-121050714D01*
X127464285Y-121122142D01*
X127607142Y-121265000D01*
X127678571Y-121479285D01*
X127678571Y-121836428D01*
X127678571Y-119550714D02*
X127678571Y-120407857D01*
X127678571Y-119979285D02*
X126178571Y-119979285D01*
X126392857Y-120122142D01*
X126535714Y-120265000D01*
X126607142Y-120407857D01*
X127678571Y-118122142D02*
X127678571Y-118979285D01*
X127678571Y-118550714D02*
X126178571Y-118550714D01*
X126392857Y-118693571D01*
X126535714Y-118836428D01*
X126607142Y-118979285D01*
X125138571Y-121836428D02*
X123638571Y-121836428D01*
X123638571Y-121479285D01*
X123710000Y-121265000D01*
X123852857Y-121122142D01*
X123995714Y-121050714D01*
X124281428Y-120979285D01*
X124495714Y-120979285D01*
X124781428Y-121050714D01*
X124924285Y-121122142D01*
X125067142Y-121265000D01*
X125138571Y-121479285D01*
X125138571Y-121836428D01*
X125138571Y-119550714D02*
X125138571Y-120407857D01*
X125138571Y-119979285D02*
X123638571Y-119979285D01*
X123852857Y-120122142D01*
X123995714Y-120265000D01*
X124067142Y-120407857D01*
X123638571Y-118622142D02*
X123638571Y-118479285D01*
X123710000Y-118336428D01*
X123781428Y-118265000D01*
X123924285Y-118193571D01*
X124210000Y-118122142D01*
X124567142Y-118122142D01*
X124852857Y-118193571D01*
X124995714Y-118265000D01*
X125067142Y-118336428D01*
X125138571Y-118479285D01*
X125138571Y-118622142D01*
X125067142Y-118765000D01*
X124995714Y-118836428D01*
X124852857Y-118907857D01*
X124567142Y-118979285D01*
X124210000Y-118979285D01*
X123924285Y-118907857D01*
X123781428Y-118836428D01*
X123710000Y-118765000D01*
X123638571Y-118622142D01*
X122598571Y-121122142D02*
X121098571Y-121122142D01*
X121098571Y-120765000D01*
X121170000Y-120550714D01*
X121312857Y-120407857D01*
X121455714Y-120336428D01*
X121741428Y-120265000D01*
X121955714Y-120265000D01*
X122241428Y-120336428D01*
X122384285Y-120407857D01*
X122527142Y-120550714D01*
X122598571Y-120765000D01*
X122598571Y-121122142D01*
X122598571Y-119550714D02*
X122598571Y-119265000D01*
X122527142Y-119122142D01*
X122455714Y-119050714D01*
X122241428Y-118907857D01*
X121955714Y-118836428D01*
X121384285Y-118836428D01*
X121241428Y-118907857D01*
X121170000Y-118979285D01*
X121098571Y-119122142D01*
X121098571Y-119407857D01*
X121170000Y-119550714D01*
X121241428Y-119622142D01*
X121384285Y-119693571D01*
X121741428Y-119693571D01*
X121884285Y-119622142D01*
X121955714Y-119550714D01*
X122027142Y-119407857D01*
X122027142Y-119122142D01*
X121955714Y-118979285D01*
X121884285Y-118907857D01*
X121741428Y-118836428D01*
X120058571Y-121122142D02*
X118558571Y-121122142D01*
X118558571Y-120765000D01*
X118630000Y-120550714D01*
X118772857Y-120407857D01*
X118915714Y-120336428D01*
X119201428Y-120265000D01*
X119415714Y-120265000D01*
X119701428Y-120336428D01*
X119844285Y-120407857D01*
X119987142Y-120550714D01*
X120058571Y-120765000D01*
X120058571Y-121122142D01*
X119201428Y-119407857D02*
X119130000Y-119550714D01*
X119058571Y-119622142D01*
X118915714Y-119693571D01*
X118844285Y-119693571D01*
X118701428Y-119622142D01*
X118630000Y-119550714D01*
X118558571Y-119407857D01*
X118558571Y-119122142D01*
X118630000Y-118979285D01*
X118701428Y-118907857D01*
X118844285Y-118836428D01*
X118915714Y-118836428D01*
X119058571Y-118907857D01*
X119130000Y-118979285D01*
X119201428Y-119122142D01*
X119201428Y-119407857D01*
X119272857Y-119550714D01*
X119344285Y-119622142D01*
X119487142Y-119693571D01*
X119772857Y-119693571D01*
X119915714Y-119622142D01*
X119987142Y-119550714D01*
X120058571Y-119407857D01*
X120058571Y-119122142D01*
X119987142Y-118979285D01*
X119915714Y-118907857D01*
X119772857Y-118836428D01*
X119487142Y-118836428D01*
X119344285Y-118907857D01*
X119272857Y-118979285D01*
X119201428Y-119122142D01*
X117518571Y-121122142D02*
X116018571Y-121122142D01*
X116018571Y-120765000D01*
X116090000Y-120550714D01*
X116232857Y-120407857D01*
X116375714Y-120336428D01*
X116661428Y-120265000D01*
X116875714Y-120265000D01*
X117161428Y-120336428D01*
X117304285Y-120407857D01*
X117447142Y-120550714D01*
X117518571Y-120765000D01*
X117518571Y-121122142D01*
X116018571Y-119765000D02*
X116018571Y-118765000D01*
X117518571Y-119407857D01*
X114978571Y-121122142D02*
X113478571Y-121122142D01*
X113478571Y-120765000D01*
X113550000Y-120550714D01*
X113692857Y-120407857D01*
X113835714Y-120336428D01*
X114121428Y-120265000D01*
X114335714Y-120265000D01*
X114621428Y-120336428D01*
X114764285Y-120407857D01*
X114907142Y-120550714D01*
X114978571Y-120765000D01*
X114978571Y-121122142D01*
X113478571Y-118979285D02*
X113478571Y-119265000D01*
X113550000Y-119407857D01*
X113621428Y-119479285D01*
X113835714Y-119622142D01*
X114121428Y-119693571D01*
X114692857Y-119693571D01*
X114835714Y-119622142D01*
X114907142Y-119550714D01*
X114978571Y-119407857D01*
X114978571Y-119122142D01*
X114907142Y-118979285D01*
X114835714Y-118907857D01*
X114692857Y-118836428D01*
X114335714Y-118836428D01*
X114192857Y-118907857D01*
X114121428Y-118979285D01*
X114050000Y-119122142D01*
X114050000Y-119407857D01*
X114121428Y-119550714D01*
X114192857Y-119622142D01*
X114335714Y-119693571D01*
X112438571Y-121122142D02*
X110938571Y-121122142D01*
X110938571Y-120765000D01*
X111010000Y-120550714D01*
X111152857Y-120407857D01*
X111295714Y-120336428D01*
X111581428Y-120265000D01*
X111795714Y-120265000D01*
X112081428Y-120336428D01*
X112224285Y-120407857D01*
X112367142Y-120550714D01*
X112438571Y-120765000D01*
X112438571Y-121122142D01*
X110938571Y-118907857D02*
X110938571Y-119622142D01*
X111652857Y-119693571D01*
X111581428Y-119622142D01*
X111510000Y-119479285D01*
X111510000Y-119122142D01*
X111581428Y-118979285D01*
X111652857Y-118907857D01*
X111795714Y-118836428D01*
X112152857Y-118836428D01*
X112295714Y-118907857D01*
X112367142Y-118979285D01*
X112438571Y-119122142D01*
X112438571Y-119479285D01*
X112367142Y-119622142D01*
X112295714Y-119693571D01*
X109898571Y-121122142D02*
X108398571Y-121122142D01*
X108398571Y-120765000D01*
X108470000Y-120550714D01*
X108612857Y-120407857D01*
X108755714Y-120336428D01*
X109041428Y-120265000D01*
X109255714Y-120265000D01*
X109541428Y-120336428D01*
X109684285Y-120407857D01*
X109827142Y-120550714D01*
X109898571Y-120765000D01*
X109898571Y-121122142D01*
X108898571Y-118979285D02*
X109898571Y-118979285D01*
X108327142Y-119336428D02*
X109398571Y-119693571D01*
X109398571Y-118765000D01*
X107358571Y-121122142D02*
X105858571Y-121122142D01*
X105858571Y-120765000D01*
X105930000Y-120550714D01*
X106072857Y-120407857D01*
X106215714Y-120336428D01*
X106501428Y-120265000D01*
X106715714Y-120265000D01*
X107001428Y-120336428D01*
X107144285Y-120407857D01*
X107287142Y-120550714D01*
X107358571Y-120765000D01*
X107358571Y-121122142D01*
X105858571Y-119765000D02*
X105858571Y-118836428D01*
X106430000Y-119336428D01*
X106430000Y-119122142D01*
X106501428Y-118979285D01*
X106572857Y-118907857D01*
X106715714Y-118836428D01*
X107072857Y-118836428D01*
X107215714Y-118907857D01*
X107287142Y-118979285D01*
X107358571Y-119122142D01*
X107358571Y-119550714D01*
X107287142Y-119693571D01*
X107215714Y-119765000D01*
X104818571Y-121122142D02*
X103318571Y-121122142D01*
X103318571Y-120765000D01*
X103390000Y-120550714D01*
X103532857Y-120407857D01*
X103675714Y-120336428D01*
X103961428Y-120265000D01*
X104175714Y-120265000D01*
X104461428Y-120336428D01*
X104604285Y-120407857D01*
X104747142Y-120550714D01*
X104818571Y-120765000D01*
X104818571Y-121122142D01*
X103461428Y-119693571D02*
X103390000Y-119622142D01*
X103318571Y-119479285D01*
X103318571Y-119122142D01*
X103390000Y-118979285D01*
X103461428Y-118907857D01*
X103604285Y-118836428D01*
X103747142Y-118836428D01*
X103961428Y-118907857D01*
X104818571Y-119765000D01*
X104818571Y-118836428D01*
D12*
X97663095Y-133477000D02*
X97567857Y-133428619D01*
X97425000Y-133428619D01*
X97282142Y-133477000D01*
X97186904Y-133573761D01*
X97139285Y-133670523D01*
X97091666Y-133864047D01*
X97091666Y-134009190D01*
X97139285Y-134202714D01*
X97186904Y-134299476D01*
X97282142Y-134396238D01*
X97425000Y-134444619D01*
X97520238Y-134444619D01*
X97663095Y-134396238D01*
X97710714Y-134347857D01*
X97710714Y-134009190D01*
X97520238Y-134009190D01*
X98139285Y-134444619D02*
X98139285Y-133428619D01*
X98710714Y-134444619D01*
X98710714Y-133428619D01*
X99186904Y-134444619D02*
X99186904Y-133428619D01*
X99425000Y-133428619D01*
X99567857Y-133477000D01*
X99663095Y-133573761D01*
X99710714Y-133670523D01*
X99758333Y-133864047D01*
X99758333Y-134009190D01*
X99710714Y-134202714D01*
X99663095Y-134299476D01*
X99567857Y-134396238D01*
X99425000Y-134444619D01*
X99186904Y-134444619D01*
X96663095Y-128977571D02*
X97425000Y-128977571D01*
X97044047Y-129364619D02*
X97044047Y-128590523D01*
X98425000Y-129364619D02*
X97853571Y-129364619D01*
X98139285Y-129364619D02*
X98139285Y-128348619D01*
X98044047Y-128493761D01*
X97948809Y-128590523D01*
X97853571Y-128638904D01*
X99329761Y-128348619D02*
X98853571Y-128348619D01*
X98805952Y-128832428D01*
X98853571Y-128784047D01*
X98948809Y-128735666D01*
X99186904Y-128735666D01*
X99282142Y-128784047D01*
X99329761Y-128832428D01*
X99377380Y-128929190D01*
X99377380Y-129171095D01*
X99329761Y-129267857D01*
X99282142Y-129316238D01*
X99186904Y-129364619D01*
X98948809Y-129364619D01*
X98853571Y-129316238D01*
X98805952Y-129267857D01*
X99663095Y-128348619D02*
X99996428Y-129364619D01*
X100329761Y-128348619D01*
X96663095Y-139137571D02*
X97425000Y-139137571D01*
X98425000Y-139524619D02*
X97853571Y-139524619D01*
X98139285Y-139524619D02*
X98139285Y-138508619D01*
X98044047Y-138653761D01*
X97948809Y-138750523D01*
X97853571Y-138798904D01*
X99329761Y-138508619D02*
X98853571Y-138508619D01*
X98805952Y-138992428D01*
X98853571Y-138944047D01*
X98948809Y-138895666D01*
X99186904Y-138895666D01*
X99282142Y-138944047D01*
X99329761Y-138992428D01*
X99377380Y-139089190D01*
X99377380Y-139331095D01*
X99329761Y-139427857D01*
X99282142Y-139476238D01*
X99186904Y-139524619D01*
X98948809Y-139524619D01*
X98853571Y-139476238D01*
X98805952Y-139427857D01*
X99663095Y-138508619D02*
X99996428Y-139524619D01*
X100329761Y-138508619D01*
X160727571Y-142731904D02*
X160727571Y-141970000D01*
X161114619Y-142350952D02*
X160340523Y-142350952D01*
X161114619Y-140970000D02*
X161114619Y-141541428D01*
X161114619Y-141255714D02*
X160098619Y-141255714D01*
X160243761Y-141350952D01*
X160340523Y-141446190D01*
X160388904Y-141541428D01*
X160098619Y-140065238D02*
X160098619Y-140541428D01*
X160582428Y-140589047D01*
X160534047Y-140541428D01*
X160485666Y-140446190D01*
X160485666Y-140208095D01*
X160534047Y-140112857D01*
X160582428Y-140065238D01*
X160679190Y-140017619D01*
X160921095Y-140017619D01*
X161017857Y-140065238D01*
X161066238Y-140112857D01*
X161114619Y-140208095D01*
X161114619Y-140446190D01*
X161066238Y-140541428D01*
X161017857Y-140589047D01*
X160098619Y-139731904D02*
X161114619Y-139398571D01*
X160098619Y-139065238D01*
X178507571Y-142731904D02*
X178507571Y-141970000D01*
X178894619Y-140970000D02*
X178894619Y-141541428D01*
X178894619Y-141255714D02*
X177878619Y-141255714D01*
X178023761Y-141350952D01*
X178120523Y-141446190D01*
X178168904Y-141541428D01*
X177878619Y-140065238D02*
X177878619Y-140541428D01*
X178362428Y-140589047D01*
X178314047Y-140541428D01*
X178265666Y-140446190D01*
X178265666Y-140208095D01*
X178314047Y-140112857D01*
X178362428Y-140065238D01*
X178459190Y-140017619D01*
X178701095Y-140017619D01*
X178797857Y-140065238D01*
X178846238Y-140112857D01*
X178894619Y-140208095D01*
X178894619Y-140446190D01*
X178846238Y-140541428D01*
X178797857Y-140589047D01*
X177878619Y-139731904D02*
X178894619Y-139398571D01*
X177878619Y-139065238D01*
X184857571Y-142731904D02*
X184857571Y-141970000D01*
X185244619Y-142350952D02*
X184470523Y-142350952D01*
X185244619Y-140970000D02*
X185244619Y-141541428D01*
X185244619Y-141255714D02*
X184228619Y-141255714D01*
X184373761Y-141350952D01*
X184470523Y-141446190D01*
X184518904Y-141541428D01*
X184228619Y-140065238D02*
X184228619Y-140541428D01*
X184712428Y-140589047D01*
X184664047Y-140541428D01*
X184615666Y-140446190D01*
X184615666Y-140208095D01*
X184664047Y-140112857D01*
X184712428Y-140065238D01*
X184809190Y-140017619D01*
X185051095Y-140017619D01*
X185147857Y-140065238D01*
X185196238Y-140112857D01*
X185244619Y-140208095D01*
X185244619Y-140446190D01*
X185196238Y-140541428D01*
X185147857Y-140589047D01*
X184228619Y-139731904D02*
X185244619Y-139398571D01*
X184228619Y-139065238D01*
X202637571Y-142731904D02*
X202637571Y-141970000D01*
X203024619Y-140970000D02*
X203024619Y-141541428D01*
X203024619Y-141255714D02*
X202008619Y-141255714D01*
X202153761Y-141350952D01*
X202250523Y-141446190D01*
X202298904Y-141541428D01*
X202008619Y-140065238D02*
X202008619Y-140541428D01*
X202492428Y-140589047D01*
X202444047Y-140541428D01*
X202395666Y-140446190D01*
X202395666Y-140208095D01*
X202444047Y-140112857D01*
X202492428Y-140065238D01*
X202589190Y-140017619D01*
X202831095Y-140017619D01*
X202927857Y-140065238D01*
X202976238Y-140112857D01*
X203024619Y-140208095D01*
X203024619Y-140446190D01*
X202976238Y-140541428D01*
X202927857Y-140589047D01*
X202008619Y-139731904D02*
X203024619Y-139398571D01*
X202008619Y-139065238D01*
D10*
X138585714Y-108190000D02*
X139300000Y-108190000D01*
X138442857Y-108618571D02*
X138942857Y-107118571D01*
X139442857Y-108618571D01*
X139942857Y-108618571D02*
X139942857Y-107618571D01*
X139942857Y-107904285D02*
X140014285Y-107761428D01*
X140085714Y-107690000D01*
X140228571Y-107618571D01*
X140371428Y-107618571D01*
X141514285Y-108618571D02*
X141514285Y-107118571D01*
X141514285Y-108547142D02*
X141371428Y-108618571D01*
X141085714Y-108618571D01*
X140942857Y-108547142D01*
X140871428Y-108475714D01*
X140800000Y-108332857D01*
X140800000Y-107904285D01*
X140871428Y-107761428D01*
X140942857Y-107690000D01*
X141085714Y-107618571D01*
X141371428Y-107618571D01*
X141514285Y-107690000D01*
X142871428Y-107618571D02*
X142871428Y-108618571D01*
X142228571Y-107618571D02*
X142228571Y-108404285D01*
X142300000Y-108547142D01*
X142442857Y-108618571D01*
X142657142Y-108618571D01*
X142800000Y-108547142D01*
X142871428Y-108475714D01*
X143585714Y-108618571D02*
X143585714Y-107618571D01*
X143585714Y-107118571D02*
X143514285Y-107190000D01*
X143585714Y-107261428D01*
X143657142Y-107190000D01*
X143585714Y-107118571D01*
X143585714Y-107261428D01*
X144300000Y-107618571D02*
X144300000Y-108618571D01*
X144300000Y-107761428D02*
X144371428Y-107690000D01*
X144514285Y-107618571D01*
X144728571Y-107618571D01*
X144871428Y-107690000D01*
X144942857Y-107832857D01*
X144942857Y-108618571D01*
X145871428Y-108618571D02*
X145728571Y-108547142D01*
X145657142Y-108475714D01*
X145585714Y-108332857D01*
X145585714Y-107904285D01*
X145657142Y-107761428D01*
X145728571Y-107690000D01*
X145871428Y-107618571D01*
X146085714Y-107618571D01*
X146228571Y-107690000D01*
X146300000Y-107761428D01*
X146371428Y-107904285D01*
X146371428Y-108332857D01*
X146300000Y-108475714D01*
X146228571Y-108547142D01*
X146085714Y-108618571D01*
X145871428Y-108618571D01*
X148157142Y-108618571D02*
X148157142Y-107118571D01*
X148657142Y-108190000D01*
X149157142Y-107118571D01*
X149157142Y-108618571D01*
X149871428Y-108618571D02*
X149871428Y-107618571D01*
X149871428Y-107118571D02*
X149800000Y-107190000D01*
X149871428Y-107261428D01*
X149942857Y-107190000D01*
X149871428Y-107118571D01*
X149871428Y-107261428D01*
X151228571Y-108547142D02*
X151085714Y-108618571D01*
X150800000Y-108618571D01*
X150657142Y-108547142D01*
X150585714Y-108475714D01*
X150514285Y-108332857D01*
X150514285Y-107904285D01*
X150585714Y-107761428D01*
X150657142Y-107690000D01*
X150800000Y-107618571D01*
X151085714Y-107618571D01*
X151228571Y-107690000D01*
X151871428Y-108618571D02*
X151871428Y-107618571D01*
X151871428Y-107904285D02*
X151942857Y-107761428D01*
X152014285Y-107690000D01*
X152157142Y-107618571D01*
X152300000Y-107618571D01*
X153014285Y-108618571D02*
X152871428Y-108547142D01*
X152800000Y-108475714D01*
X152728571Y-108332857D01*
X152728571Y-107904285D01*
X152800000Y-107761428D01*
X152871428Y-107690000D01*
X153014285Y-107618571D01*
X153228571Y-107618571D01*
X153371428Y-107690000D01*
X153442857Y-107761428D01*
X153514285Y-107904285D01*
X153514285Y-108332857D01*
X153442857Y-108475714D01*
X153371428Y-108547142D01*
X153228571Y-108618571D01*
X153014285Y-108618571D01*
X139907142Y-111168571D02*
X139907142Y-109668571D01*
X140407142Y-110740000D01*
X140907142Y-109668571D01*
X140907142Y-111168571D01*
X141621428Y-111168571D02*
X141621428Y-109668571D01*
X142335714Y-111168571D02*
X142335714Y-109668571D01*
X142692857Y-109668571D01*
X142907142Y-109740000D01*
X143050000Y-109882857D01*
X143121428Y-110025714D01*
X143192857Y-110311428D01*
X143192857Y-110525714D01*
X143121428Y-110811428D01*
X143050000Y-110954285D01*
X142907142Y-111097142D01*
X142692857Y-111168571D01*
X142335714Y-111168571D01*
X143835714Y-111168571D02*
X143835714Y-109668571D01*
X145692857Y-111168571D02*
X145692857Y-109668571D01*
X146050000Y-109668571D01*
X146264285Y-109740000D01*
X146407142Y-109882857D01*
X146478571Y-110025714D01*
X146550000Y-110311428D01*
X146550000Y-110525714D01*
X146478571Y-110811428D01*
X146407142Y-110954285D01*
X146264285Y-111097142D01*
X146050000Y-111168571D01*
X145692857Y-111168571D01*
X147764285Y-111097142D02*
X147621428Y-111168571D01*
X147335714Y-111168571D01*
X147192857Y-111097142D01*
X147121428Y-110954285D01*
X147121428Y-110382857D01*
X147192857Y-110240000D01*
X147335714Y-110168571D01*
X147621428Y-110168571D01*
X147764285Y-110240000D01*
X147835714Y-110382857D01*
X147835714Y-110525714D01*
X147121428Y-110668571D01*
X148335714Y-110168571D02*
X148692857Y-111168571D01*
X149050000Y-110168571D01*
X149621428Y-111168571D02*
X149621428Y-110168571D01*
X149621428Y-109668571D02*
X149550000Y-109740000D01*
X149621428Y-109811428D01*
X149692857Y-109740000D01*
X149621428Y-109668571D01*
X149621428Y-109811428D01*
X150978571Y-111097142D02*
X150835714Y-111168571D01*
X150550000Y-111168571D01*
X150407142Y-111097142D01*
X150335714Y-111025714D01*
X150264285Y-110882857D01*
X150264285Y-110454285D01*
X150335714Y-110311428D01*
X150407142Y-110240000D01*
X150550000Y-110168571D01*
X150835714Y-110168571D01*
X150978571Y-110240000D01*
X152192857Y-111097142D02*
X152050000Y-111168571D01*
X151764285Y-111168571D01*
X151621428Y-111097142D01*
X151550000Y-110954285D01*
X151550000Y-110382857D01*
X151621428Y-110240000D01*
X151764285Y-110168571D01*
X152050000Y-110168571D01*
X152192857Y-110240000D01*
X152264285Y-110382857D01*
X152264285Y-110525714D01*
X151550000Y-110668571D01*
X135228571Y-112218571D02*
X136228571Y-112218571D01*
X135228571Y-113718571D01*
X136228571Y-113718571D01*
X137442857Y-113718571D02*
X137442857Y-112932857D01*
X137371428Y-112790000D01*
X137228571Y-112718571D01*
X136942857Y-112718571D01*
X136800000Y-112790000D01*
X137442857Y-113647142D02*
X137300000Y-113718571D01*
X136942857Y-113718571D01*
X136800000Y-113647142D01*
X136728571Y-113504285D01*
X136728571Y-113361428D01*
X136800000Y-113218571D01*
X136942857Y-113147142D01*
X137300000Y-113147142D01*
X137442857Y-113075714D01*
X138800000Y-113647142D02*
X138657142Y-113718571D01*
X138371428Y-113718571D01*
X138228571Y-113647142D01*
X138157142Y-113575714D01*
X138085714Y-113432857D01*
X138085714Y-113004285D01*
X138157142Y-112861428D01*
X138228571Y-112790000D01*
X138371428Y-112718571D01*
X138657142Y-112718571D01*
X138800000Y-112790000D01*
X139442857Y-113718571D02*
X139442857Y-112218571D01*
X140085714Y-113718571D02*
X140085714Y-112932857D01*
X140014285Y-112790000D01*
X139871428Y-112718571D01*
X139657142Y-112718571D01*
X139514285Y-112790000D01*
X139442857Y-112861428D01*
X142442857Y-112932857D02*
X142657142Y-113004285D01*
X142728571Y-113075714D01*
X142800000Y-113218571D01*
X142800000Y-113432857D01*
X142728571Y-113575714D01*
X142657142Y-113647142D01*
X142514285Y-113718571D01*
X141942857Y-113718571D01*
X141942857Y-112218571D01*
X142442857Y-112218571D01*
X142585714Y-112290000D01*
X142657142Y-112361428D01*
X142728571Y-112504285D01*
X142728571Y-112647142D01*
X142657142Y-112790000D01*
X142585714Y-112861428D01*
X142442857Y-112932857D01*
X141942857Y-112932857D01*
X144085714Y-113718571D02*
X144085714Y-112932857D01*
X144014285Y-112790000D01*
X143871428Y-112718571D01*
X143585714Y-112718571D01*
X143442857Y-112790000D01*
X144085714Y-113647142D02*
X143942857Y-113718571D01*
X143585714Y-113718571D01*
X143442857Y-113647142D01*
X143371428Y-113504285D01*
X143371428Y-113361428D01*
X143442857Y-113218571D01*
X143585714Y-113147142D01*
X143942857Y-113147142D01*
X144085714Y-113075714D01*
X145014285Y-113718571D02*
X144871428Y-113647142D01*
X144800000Y-113504285D01*
X144800000Y-112218571D01*
X146228571Y-113718571D02*
X146228571Y-112218571D01*
X146228571Y-113647142D02*
X146085714Y-113718571D01*
X145800000Y-113718571D01*
X145657142Y-113647142D01*
X145585714Y-113575714D01*
X145514285Y-113432857D01*
X145514285Y-113004285D01*
X145585714Y-112861428D01*
X145657142Y-112790000D01*
X145800000Y-112718571D01*
X146085714Y-112718571D01*
X146228571Y-112790000D01*
X146800000Y-112718571D02*
X147085714Y-113718571D01*
X147371428Y-113004285D01*
X147657142Y-113718571D01*
X147942857Y-112718571D01*
X148514285Y-113718571D02*
X148514285Y-112718571D01*
X148514285Y-112218571D02*
X148442857Y-112290000D01*
X148514285Y-112361428D01*
X148585714Y-112290000D01*
X148514285Y-112218571D01*
X148514285Y-112361428D01*
X149228571Y-112718571D02*
X149228571Y-113718571D01*
X149228571Y-112861428D02*
X149300000Y-112790000D01*
X149442857Y-112718571D01*
X149657142Y-112718571D01*
X149800000Y-112790000D01*
X149871428Y-112932857D01*
X149871428Y-113718571D01*
X151657142Y-112361428D02*
X151728571Y-112290000D01*
X151871428Y-112218571D01*
X152228571Y-112218571D01*
X152371428Y-112290000D01*
X152442857Y-112361428D01*
X152514285Y-112504285D01*
X152514285Y-112647142D01*
X152442857Y-112861428D01*
X151585714Y-113718571D01*
X152514285Y-113718571D01*
X153442857Y-112218571D02*
X153585714Y-112218571D01*
X153728571Y-112290000D01*
X153800000Y-112361428D01*
X153871428Y-112504285D01*
X153942857Y-112790000D01*
X153942857Y-113147142D01*
X153871428Y-113432857D01*
X153800000Y-113575714D01*
X153728571Y-113647142D01*
X153585714Y-113718571D01*
X153442857Y-113718571D01*
X153300000Y-113647142D01*
X153228571Y-113575714D01*
X153157142Y-113432857D01*
X153085714Y-113147142D01*
X153085714Y-112790000D01*
X153157142Y-112504285D01*
X153228571Y-112361428D01*
X153300000Y-112290000D01*
X153442857Y-112218571D01*
X154514285Y-112361428D02*
X154585714Y-112290000D01*
X154728571Y-112218571D01*
X155085714Y-112218571D01*
X155228571Y-112290000D01*
X155300000Y-112361428D01*
X155371428Y-112504285D01*
X155371428Y-112647142D01*
X155300000Y-112861428D01*
X154442857Y-113718571D01*
X155371428Y-113718571D01*
X156300000Y-112218571D02*
X156442857Y-112218571D01*
X156585714Y-112290000D01*
X156657142Y-112361428D01*
X156728571Y-112504285D01*
X156800000Y-112790000D01*
X156800000Y-113147142D01*
X156728571Y-113432857D01*
X156657142Y-113575714D01*
X156585714Y-113647142D01*
X156442857Y-113718571D01*
X156300000Y-113718571D01*
X156157142Y-113647142D01*
X156085714Y-113575714D01*
X156014285Y-113432857D01*
X155942857Y-113147142D01*
X155942857Y-112790000D01*
X156014285Y-112504285D01*
X156085714Y-112361428D01*
X156157142Y-112290000D01*
X156300000Y-112218571D01*
D13*
%TO.C,J10*%
X107375000Y-91380000D02*
X104715000Y-91380000D01*
X107375000Y-93980000D02*
X107375000Y-91380000D01*
X104715000Y-93980000D02*
X104715000Y-91380000D01*
X107375000Y-93980000D02*
X104715000Y-93980000D01*
X107375000Y-95250000D02*
X107375000Y-96580000D01*
X107375000Y-96580000D02*
X106045000Y-96580000D01*
%TO.C,J9*%
X201295000Y-136525000D02*
X201295000Y-144145000D01*
X186055000Y-136525000D02*
X186055000Y-144145000D01*
X201295000Y-137795000D02*
X186055000Y-137795000D01*
X201295000Y-144145000D02*
X186055000Y-144145000D01*
X201295000Y-136525000D02*
X186055000Y-136525000D01*
D14*
%TO.C,U9*%
X188625000Y-134025000D02*
X174625000Y-134025000D01*
X168925000Y-134025000D02*
X171125000Y-134025000D01*
X168925000Y-126175000D02*
X168925000Y-134025000D01*
X194325000Y-134025000D02*
X192125000Y-134025000D01*
X194325000Y-126175000D02*
X194325000Y-134025000D01*
X194325000Y-121325000D02*
X168925000Y-121325000D01*
%TO.C,U8*%
X188625000Y-78780000D02*
X174625000Y-78780000D01*
X168925000Y-78780000D02*
X171125000Y-78780000D01*
X168925000Y-70930000D02*
X168925000Y-78780000D01*
X194325000Y-78780000D02*
X192125000Y-78780000D01*
X194325000Y-70930000D02*
X194325000Y-78780000D01*
X194325000Y-66080000D02*
X168925000Y-66080000D01*
%TO.C,U7*%
X188625000Y-106085000D02*
X174625000Y-106085000D01*
X168925000Y-106085000D02*
X171125000Y-106085000D01*
X168925000Y-98235000D02*
X168925000Y-106085000D01*
X194325000Y-106085000D02*
X192125000Y-106085000D01*
X194325000Y-98235000D02*
X194325000Y-106085000D01*
X194325000Y-93385000D02*
X168925000Y-93385000D01*
D13*
%TO.C,U4*%
X87820000Y-102585000D02*
X130620000Y-102585000D01*
X130620000Y-114585000D02*
X87820000Y-114585000D01*
X130640000Y-105545001D02*
X130640000Y-99465001D01*
X130280000Y-105545001D02*
X130640000Y-105545001D01*
X130280000Y-111625000D02*
X130280000Y-105545001D01*
X130640000Y-111625000D02*
X130280000Y-111625000D01*
X130640000Y-117705000D02*
X130640000Y-111625000D01*
X87800000Y-117704999D02*
X130640000Y-117705000D01*
X87800000Y-99465000D02*
X87800000Y-117704999D01*
X130640000Y-99465001D02*
X87800000Y-99465000D01*
%TO.C,F3*%
X160555000Y-124190000D02*
X163295000Y-124190000D01*
X160555000Y-132430000D02*
X163295000Y-132430000D01*
X163295000Y-132430000D02*
X163295000Y-124190000D01*
X160555000Y-132430000D02*
X160555000Y-124190000D01*
%TO.C,F2*%
X163295000Y-104490000D02*
X160555000Y-104490000D01*
X163295000Y-96250000D02*
X160555000Y-96250000D01*
X160555000Y-96250000D02*
X160555000Y-104490000D01*
X163295000Y-96250000D02*
X163295000Y-104490000D01*
%TO.C,F1*%
X163295000Y-77105000D02*
X160555000Y-77105000D01*
X163295000Y-68865000D02*
X160555000Y-68865000D01*
X160555000Y-68865000D02*
X160555000Y-77105000D01*
X163295000Y-68865000D02*
X163295000Y-77105000D01*
%TO.C,U6*%
X93920000Y-89655000D02*
X104200000Y-89655000D01*
X93920000Y-79255000D02*
X93920000Y-89655000D01*
X104200000Y-79255000D02*
X93920000Y-79255000D01*
X104200000Y-89655000D02*
X104200000Y-79255000D01*
X96410000Y-89595000D02*
X98060000Y-89595000D01*
X96410000Y-79315000D02*
X96410000Y-89595000D01*
X101710000Y-79315000D02*
X96410000Y-79315000D01*
X101710000Y-89595000D02*
X101710000Y-79315000D01*
X100060000Y-89595000D02*
X101710000Y-89595000D01*
X98060000Y-89595000D02*
G75*
G02*
X100060000Y-89595000I1000000J0D01*
G01*
%TO.C,U5*%
X127515000Y-81855000D02*
X127515000Y-92135000D01*
X145535000Y-81855000D02*
X127515000Y-81855000D01*
X145535000Y-92135000D02*
X145535000Y-81855000D01*
X127515000Y-92135000D02*
X145535000Y-92135000D01*
X127575000Y-84345000D02*
X127575000Y-85995000D01*
X145475000Y-84345000D02*
X127575000Y-84345000D01*
X145475000Y-89645000D02*
X145475000Y-84345000D01*
X127575000Y-89645000D02*
X145475000Y-89645000D01*
X127575000Y-87995000D02*
X127575000Y-89645000D01*
X127575000Y-85995000D02*
G75*
G02*
X127575000Y-87995000I0J-1000000D01*
G01*
%TO.C,U3*%
X179759000Y-130905000D02*
X179759000Y-129395000D01*
X183460000Y-130905000D02*
X183460000Y-129395000D01*
X186730000Y-129395000D02*
X176490000Y-129395000D01*
X176490000Y-130905000D02*
X176490000Y-126264000D01*
X186730000Y-130905000D02*
X186730000Y-126264000D01*
X186730000Y-126264000D02*
X176490000Y-126264000D01*
X186730000Y-130905000D02*
X176490000Y-130905000D01*
%TO.C,U2*%
X179759000Y-102965000D02*
X179759000Y-101455000D01*
X183460000Y-102965000D02*
X183460000Y-101455000D01*
X186730000Y-101455000D02*
X176490000Y-101455000D01*
X176490000Y-102965000D02*
X176490000Y-98324000D01*
X186730000Y-102965000D02*
X186730000Y-98324000D01*
X186730000Y-98324000D02*
X176490000Y-98324000D01*
X186730000Y-102965000D02*
X176490000Y-102965000D01*
%TO.C,U1*%
X179759000Y-75660000D02*
X179759000Y-74150000D01*
X183460000Y-75660000D02*
X183460000Y-74150000D01*
X186730000Y-74150000D02*
X176490000Y-74150000D01*
X176490000Y-75660000D02*
X176490000Y-71019000D01*
X186730000Y-75660000D02*
X186730000Y-71019000D01*
X186730000Y-71019000D02*
X176490000Y-71019000D01*
X186730000Y-75660000D02*
X176490000Y-75660000D01*
%TO.C,R9*%
X89250000Y-83805000D02*
X89250000Y-87645000D01*
X91090000Y-83805000D02*
X91090000Y-87645000D01*
%TO.C,R8*%
X135605000Y-74280000D02*
X135605000Y-78120000D01*
X137445000Y-74280000D02*
X137445000Y-78120000D01*
%TO.C,R7*%
X155290000Y-69200000D02*
X155290000Y-73040000D01*
X157130000Y-69200000D02*
X157130000Y-73040000D01*
%TO.C,R6*%
X115855000Y-86375000D02*
X115855000Y-82535000D01*
X114015000Y-86375000D02*
X114015000Y-82535000D01*
%TO.C,R5*%
X123205000Y-92425000D02*
X119365000Y-92425000D01*
X123205000Y-94265000D02*
X119365000Y-94265000D01*
%TO.C,R4*%
X142225000Y-79660000D02*
X146065000Y-79660000D01*
X142225000Y-77820000D02*
X146065000Y-77820000D01*
%TO.C,R3*%
X139685000Y-96170000D02*
X143525000Y-96170000D01*
X139685000Y-94330000D02*
X143525000Y-94330000D01*
%TO.C,R2*%
X133365000Y-77820000D02*
X129525000Y-77820000D01*
X133365000Y-79660000D02*
X129525000Y-79660000D01*
%TO.C,R1*%
X201915000Y-94900000D02*
X205755000Y-94900000D01*
X201915000Y-93060000D02*
X205755000Y-93060000D01*
D15*
%TO.C,J8*%
X152165000Y-56675000D02*
X152165000Y-56675000D01*
X152265000Y-56675000D02*
X152265000Y-56675000D01*
X152165000Y-56675000D02*
X152165000Y-56675000D01*
D14*
X138315000Y-53375000D02*
X138315000Y-53375000D01*
X145065000Y-53375000D02*
X138315000Y-53375000D01*
X145065000Y-53375000D02*
X145065000Y-53375000D01*
X138315000Y-53375000D02*
X145065000Y-53375000D01*
X131565000Y-53375000D02*
X131565000Y-53375000D01*
X135065000Y-53375000D02*
X131565000Y-53375000D01*
X135065000Y-53375000D02*
X135065000Y-53375000D01*
X131565000Y-53375000D02*
X135065000Y-53375000D01*
X131565000Y-53375000D02*
X131565000Y-69175000D01*
X131565000Y-53375000D02*
X131565000Y-53375000D01*
X131565000Y-69175000D02*
X131565000Y-53375000D01*
X131565000Y-69175000D02*
X131565000Y-69175000D01*
X151565000Y-69175000D02*
X151565000Y-69175000D01*
X131565000Y-69175000D02*
X151565000Y-69175000D01*
X131565000Y-69175000D02*
X131565000Y-69175000D01*
X151565000Y-69175000D02*
X131565000Y-69175000D01*
X151565000Y-69175000D02*
X151565000Y-53375000D01*
X151565000Y-69175000D02*
X151565000Y-69175000D01*
X151565000Y-53375000D02*
X151565000Y-69175000D01*
X151565000Y-53375000D02*
X151565000Y-53375000D01*
X148065000Y-53375000D02*
X148065000Y-53375000D01*
X151565000Y-53375000D02*
X148065000Y-53375000D01*
X151565000Y-53375000D02*
X151565000Y-53375000D01*
X148065000Y-53375000D02*
X151565000Y-53375000D01*
D15*
X152265000Y-56675000D02*
G75*
G02*
X152165000Y-56675000I-50000J0D01*
G01*
X152165000Y-56675000D02*
G75*
G02*
X152265000Y-56675000I50000J0D01*
G01*
X152265000Y-56675000D02*
G75*
G02*
X152165000Y-56675000I-50000J0D01*
G01*
%TO.C,J7*%
X125495000Y-56675000D02*
X125495000Y-56675000D01*
X125595000Y-56675000D02*
X125595000Y-56675000D01*
X125495000Y-56675000D02*
X125495000Y-56675000D01*
D14*
X111645000Y-53375000D02*
X111645000Y-53375000D01*
X118395000Y-53375000D02*
X111645000Y-53375000D01*
X118395000Y-53375000D02*
X118395000Y-53375000D01*
X111645000Y-53375000D02*
X118395000Y-53375000D01*
X104895000Y-53375000D02*
X104895000Y-53375000D01*
X108395000Y-53375000D02*
X104895000Y-53375000D01*
X108395000Y-53375000D02*
X108395000Y-53375000D01*
X104895000Y-53375000D02*
X108395000Y-53375000D01*
X104895000Y-53375000D02*
X104895000Y-69175000D01*
X104895000Y-53375000D02*
X104895000Y-53375000D01*
X104895000Y-69175000D02*
X104895000Y-53375000D01*
X104895000Y-69175000D02*
X104895000Y-69175000D01*
X124895000Y-69175000D02*
X124895000Y-69175000D01*
X104895000Y-69175000D02*
X124895000Y-69175000D01*
X104895000Y-69175000D02*
X104895000Y-69175000D01*
X124895000Y-69175000D02*
X104895000Y-69175000D01*
X124895000Y-69175000D02*
X124895000Y-53375000D01*
X124895000Y-69175000D02*
X124895000Y-69175000D01*
X124895000Y-53375000D02*
X124895000Y-69175000D01*
X124895000Y-53375000D02*
X124895000Y-53375000D01*
X121395000Y-53375000D02*
X121395000Y-53375000D01*
X124895000Y-53375000D02*
X121395000Y-53375000D01*
X124895000Y-53375000D02*
X124895000Y-53375000D01*
X121395000Y-53375000D02*
X124895000Y-53375000D01*
D15*
X125595000Y-56675000D02*
G75*
G02*
X125495000Y-56675000I-50000J0D01*
G01*
X125495000Y-56675000D02*
G75*
G02*
X125595000Y-56675000I50000J0D01*
G01*
X125595000Y-56675000D02*
G75*
G02*
X125495000Y-56675000I-50000J0D01*
G01*
D13*
%TO.C,J6*%
X102810000Y-125155000D02*
X102810000Y-123825000D01*
X104140000Y-125155000D02*
X102810000Y-125155000D01*
X105410000Y-125155000D02*
X105410000Y-122495000D01*
X105410000Y-122495000D02*
X153730000Y-122495000D01*
X105410000Y-125155000D02*
X153730000Y-125155000D01*
X153730000Y-125155000D02*
X153730000Y-122495000D01*
%TO.C,J5*%
X177165000Y-136525000D02*
X161925000Y-136525000D01*
X177165000Y-144145000D02*
X161925000Y-144145000D01*
X177165000Y-137795000D02*
X161925000Y-137795000D01*
X161925000Y-136525000D02*
X161925000Y-144145000D01*
X177165000Y-136525000D02*
X177165000Y-144145000D01*
%TO.C,J4*%
X102810000Y-140395000D02*
X102810000Y-139065000D01*
X104140000Y-140395000D02*
X102810000Y-140395000D01*
X105410000Y-140395000D02*
X105410000Y-137735000D01*
X105410000Y-137735000D02*
X153730000Y-137735000D01*
X105410000Y-140395000D02*
X153730000Y-140395000D01*
X153730000Y-140395000D02*
X153730000Y-137735000D01*
%TO.C,J3*%
X102810000Y-135315000D02*
X102810000Y-133985000D01*
X104140000Y-135315000D02*
X102810000Y-135315000D01*
X105410000Y-135315000D02*
X105410000Y-132655000D01*
X105410000Y-132655000D02*
X153730000Y-132655000D01*
X105410000Y-135315000D02*
X153730000Y-135315000D01*
X153730000Y-135315000D02*
X153730000Y-132655000D01*
%TO.C,J2*%
X210185000Y-90805000D02*
X210185000Y-106045000D01*
X217805000Y-90805000D02*
X217805000Y-106045000D01*
X211455000Y-90805000D02*
X211455000Y-106045000D01*
X210185000Y-106045000D02*
X217805000Y-106045000D01*
X210185000Y-90805000D02*
X217805000Y-90805000D01*
%TO.C,J1*%
X102810000Y-130235000D02*
X102810000Y-128905000D01*
X104140000Y-130235000D02*
X102810000Y-130235000D01*
X105410000Y-130235000D02*
X105410000Y-127575000D01*
X105410000Y-127575000D02*
X153730000Y-127575000D01*
X105410000Y-130235000D02*
X153730000Y-130235000D01*
X153730000Y-130235000D02*
X153730000Y-127575000D01*
%TO.C,D9*%
X107465000Y-85975000D02*
X109705000Y-85975000D01*
X107465000Y-85735000D02*
X109705000Y-85735000D01*
X107465000Y-85855000D02*
X109705000Y-85855000D01*
X108585000Y-81685000D02*
X108585000Y-82335000D01*
X108585000Y-87225000D02*
X108585000Y-86575000D01*
X107465000Y-82335000D02*
X107465000Y-86575000D01*
X109705000Y-82335000D02*
X107465000Y-82335000D01*
X109705000Y-86575000D02*
X109705000Y-82335000D01*
X107465000Y-86575000D02*
X109705000Y-86575000D01*
%TO.C,D8*%
X206395000Y-103780000D02*
X206395000Y-100690000D01*
X206335000Y-102235000D02*
G75*
G03*
X206335000Y-102235000I-2500000J0D01*
G01*
X200845000Y-102235462D02*
G75*
G02*
X206395000Y-100690170I2990000J462D01*
G01*
X200845000Y-102234538D02*
G75*
G03*
X206395000Y-103779830I2990000J-462D01*
G01*
%TO.C,D7*%
X210855000Y-82750000D02*
X210855000Y-79810000D01*
X210615000Y-82750000D02*
X210615000Y-79810000D01*
X210735000Y-82750000D02*
X210735000Y-79810000D01*
X205175000Y-81280000D02*
X206195000Y-81280000D01*
X212655000Y-81280000D02*
X211635000Y-81280000D01*
X206195000Y-82750000D02*
X211635000Y-82750000D01*
X206195000Y-79810000D02*
X206195000Y-82750000D01*
X211635000Y-79810000D02*
X206195000Y-79810000D01*
X211635000Y-82750000D02*
X211635000Y-79810000D01*
%TO.C,D6*%
X210855000Y-117040000D02*
X210855000Y-114100000D01*
X210615000Y-117040000D02*
X210615000Y-114100000D01*
X210735000Y-117040000D02*
X210735000Y-114100000D01*
X205175000Y-115570000D02*
X206195000Y-115570000D01*
X212655000Y-115570000D02*
X211635000Y-115570000D01*
X206195000Y-117040000D02*
X211635000Y-117040000D01*
X206195000Y-114100000D02*
X206195000Y-117040000D01*
X211635000Y-114100000D02*
X206195000Y-114100000D01*
X211635000Y-117040000D02*
X211635000Y-114100000D01*
%TO.C,D5*%
X183550000Y-124660000D02*
X183550000Y-121720000D01*
X183310000Y-124660000D02*
X183310000Y-121720000D01*
X183430000Y-124660000D02*
X183430000Y-121720000D01*
X177870000Y-123190000D02*
X178890000Y-123190000D01*
X185350000Y-123190000D02*
X184330000Y-123190000D01*
X178890000Y-124660000D02*
X184330000Y-124660000D01*
X178890000Y-121720000D02*
X178890000Y-124660000D01*
X184330000Y-121720000D02*
X178890000Y-121720000D01*
X184330000Y-124660000D02*
X184330000Y-121720000D01*
%TO.C,D4*%
X183550000Y-96720000D02*
X183550000Y-93780000D01*
X183310000Y-96720000D02*
X183310000Y-93780000D01*
X183430000Y-96720000D02*
X183430000Y-93780000D01*
X177870000Y-95250000D02*
X178890000Y-95250000D01*
X185350000Y-95250000D02*
X184330000Y-95250000D01*
X178890000Y-96720000D02*
X184330000Y-96720000D01*
X178890000Y-93780000D02*
X178890000Y-96720000D01*
X184330000Y-93780000D02*
X178890000Y-93780000D01*
X184330000Y-96720000D02*
X184330000Y-93780000D01*
%TO.C,D3*%
X183550000Y-69415000D02*
X183550000Y-66475000D01*
X183310000Y-69415000D02*
X183310000Y-66475000D01*
X183430000Y-69415000D02*
X183430000Y-66475000D01*
X177870000Y-67945000D02*
X178890000Y-67945000D01*
X185350000Y-67945000D02*
X184330000Y-67945000D01*
X178890000Y-69415000D02*
X184330000Y-69415000D01*
X178890000Y-66475000D02*
X178890000Y-69415000D01*
X184330000Y-66475000D02*
X178890000Y-66475000D01*
X184330000Y-69415000D02*
X184330000Y-66475000D01*
%TO.C,D2*%
X206975000Y-84890000D02*
X206975000Y-87830000D01*
X207215000Y-84890000D02*
X207215000Y-87830000D01*
X207095000Y-84890000D02*
X207095000Y-87830000D01*
X212655000Y-86360000D02*
X211635000Y-86360000D01*
X205175000Y-86360000D02*
X206195000Y-86360000D01*
X211635000Y-84890000D02*
X206195000Y-84890000D01*
X211635000Y-87830000D02*
X211635000Y-84890000D01*
X206195000Y-87830000D02*
X211635000Y-87830000D01*
X206195000Y-84890000D02*
X206195000Y-87830000D01*
%TO.C,D1*%
X206975000Y-109020000D02*
X206975000Y-111960000D01*
X207215000Y-109020000D02*
X207215000Y-111960000D01*
X207095000Y-109020000D02*
X207095000Y-111960000D01*
X212655000Y-110490000D02*
X211635000Y-110490000D01*
X205175000Y-110490000D02*
X206195000Y-110490000D01*
X211635000Y-109020000D02*
X206195000Y-109020000D01*
X211635000Y-111960000D02*
X211635000Y-109020000D01*
X206195000Y-111960000D02*
X211635000Y-111960000D01*
X206195000Y-109020000D02*
X206195000Y-111960000D01*
%TO.C,C16*%
X122770000Y-89305000D02*
X122755000Y-89305000D01*
X124895000Y-89305000D02*
X124880000Y-89305000D01*
X122770000Y-84765000D02*
X122755000Y-84765000D01*
X124895000Y-84765000D02*
X124880000Y-84765000D01*
X122755000Y-84765000D02*
X122755000Y-89305000D01*
X124895000Y-84765000D02*
X124895000Y-89305000D01*
%TO.C,C15*%
X112165000Y-74715000D02*
X112165000Y-74730000D01*
X112165000Y-72590000D02*
X112165000Y-72605000D01*
X107625000Y-74715000D02*
X107625000Y-74730000D01*
X107625000Y-72590000D02*
X107625000Y-72605000D01*
X107625000Y-74730000D02*
X112165000Y-74730000D01*
X107625000Y-72590000D02*
X112165000Y-72590000D01*
%TO.C,C14*%
X101370000Y-96305000D02*
X101370000Y-96320000D01*
X101370000Y-94180000D02*
X101370000Y-94195000D01*
X96830000Y-96305000D02*
X96830000Y-96320000D01*
X96830000Y-94180000D02*
X96830000Y-94195000D01*
X96830000Y-96320000D02*
X101370000Y-96320000D01*
X96830000Y-94180000D02*
X101370000Y-94180000D01*
%TO.C,C13*%
X122245000Y-74715000D02*
X122245000Y-74730000D01*
X122245000Y-72590000D02*
X122245000Y-72605000D01*
X117705000Y-74715000D02*
X117705000Y-74730000D01*
X117705000Y-72590000D02*
X117705000Y-72605000D01*
X117705000Y-74730000D02*
X122245000Y-74730000D01*
X117705000Y-72590000D02*
X122245000Y-72590000D01*
%TO.C,C12*%
X177380000Y-115895000D02*
X177365000Y-115895000D01*
X179505000Y-115895000D02*
X179490000Y-115895000D01*
X177380000Y-111355000D02*
X177365000Y-111355000D01*
X179505000Y-111355000D02*
X179490000Y-111355000D01*
X177365000Y-111355000D02*
X177365000Y-115895000D01*
X179505000Y-111355000D02*
X179505000Y-115895000D01*
%TO.C,C11*%
X179490000Y-83415000D02*
X179505000Y-83415000D01*
X177365000Y-83415000D02*
X177380000Y-83415000D01*
X179490000Y-87955000D02*
X179505000Y-87955000D01*
X177365000Y-87955000D02*
X177380000Y-87955000D01*
X179505000Y-87955000D02*
X179505000Y-83415000D01*
X177365000Y-87955000D02*
X177365000Y-83415000D01*
%TO.C,C10*%
X179490000Y-56190000D02*
X179505000Y-56190000D01*
X177365000Y-56190000D02*
X177380000Y-56190000D01*
X179490000Y-60730000D02*
X179505000Y-60730000D01*
X177365000Y-60730000D02*
X177380000Y-60730000D01*
X179505000Y-60730000D02*
X179505000Y-56190000D01*
X177365000Y-60730000D02*
X177365000Y-56190000D01*
%TO.C,C9*%
X172260000Y-109500302D02*
X171460000Y-109500302D01*
X171860000Y-109100302D02*
X171860000Y-109900302D01*
X170078000Y-117591000D02*
X169012000Y-117591000D01*
X170313000Y-117551000D02*
X168777000Y-117551000D01*
X170493000Y-117511000D02*
X168597000Y-117511000D01*
X170643000Y-117471000D02*
X168447000Y-117471000D01*
X170774000Y-117431000D02*
X168316000Y-117431000D01*
X170891000Y-117391000D02*
X168199000Y-117391000D01*
X170998000Y-117351000D02*
X168092000Y-117351000D01*
X171097000Y-117311000D02*
X167993000Y-117311000D01*
X171190000Y-117271000D02*
X167900000Y-117271000D01*
X171276000Y-117231000D02*
X167814000Y-117231000D01*
X171358000Y-117191000D02*
X167732000Y-117191000D01*
X171435000Y-117151000D02*
X167655000Y-117151000D01*
X171509000Y-117111000D02*
X167581000Y-117111000D01*
X171579000Y-117071000D02*
X167511000Y-117071000D01*
X171647000Y-117031000D02*
X167443000Y-117031000D01*
X171711000Y-116991000D02*
X167379000Y-116991000D01*
X171773000Y-116951000D02*
X167317000Y-116951000D01*
X171832000Y-116911000D02*
X167258000Y-116911000D01*
X171890000Y-116871000D02*
X167200000Y-116871000D01*
X171945000Y-116831000D02*
X167145000Y-116831000D01*
X171999000Y-116791000D02*
X167091000Y-116791000D01*
X172050000Y-116751000D02*
X167040000Y-116751000D01*
X172101000Y-116711000D02*
X166989000Y-116711000D01*
X172149000Y-116671000D02*
X166941000Y-116671000D01*
X172196000Y-116631000D02*
X166894000Y-116631000D01*
X172242000Y-116591000D02*
X166848000Y-116591000D01*
X172286000Y-116551000D02*
X166804000Y-116551000D01*
X172329000Y-116511000D02*
X166761000Y-116511000D01*
X172371000Y-116471000D02*
X166719000Y-116471000D01*
X172412000Y-116431000D02*
X166678000Y-116431000D01*
X172452000Y-116391000D02*
X166638000Y-116391000D01*
X172490000Y-116351000D02*
X166600000Y-116351000D01*
X172528000Y-116311000D02*
X166562000Y-116311000D01*
X168505000Y-116271000D02*
X166526000Y-116271000D01*
X172564000Y-116271000D02*
X170585000Y-116271000D01*
X168505000Y-116231000D02*
X166490000Y-116231000D01*
X172600000Y-116231000D02*
X170585000Y-116231000D01*
X168505000Y-116191000D02*
X166455000Y-116191000D01*
X172635000Y-116191000D02*
X170585000Y-116191000D01*
X168505000Y-116151000D02*
X166421000Y-116151000D01*
X172669000Y-116151000D02*
X170585000Y-116151000D01*
X168505000Y-116111000D02*
X166389000Y-116111000D01*
X172701000Y-116111000D02*
X170585000Y-116111000D01*
X168505000Y-116071000D02*
X166356000Y-116071000D01*
X172734000Y-116071000D02*
X170585000Y-116071000D01*
X168505000Y-116031000D02*
X166325000Y-116031000D01*
X172765000Y-116031000D02*
X170585000Y-116031000D01*
X168505000Y-115991000D02*
X166295000Y-115991000D01*
X172795000Y-115991000D02*
X170585000Y-115991000D01*
X168505000Y-115951000D02*
X166265000Y-115951000D01*
X172825000Y-115951000D02*
X170585000Y-115951000D01*
X168505000Y-115911000D02*
X166236000Y-115911000D01*
X172854000Y-115911000D02*
X170585000Y-115911000D01*
X168505000Y-115871000D02*
X166207000Y-115871000D01*
X172883000Y-115871000D02*
X170585000Y-115871000D01*
X168505000Y-115831000D02*
X166180000Y-115831000D01*
X172910000Y-115831000D02*
X170585000Y-115831000D01*
X168505000Y-115791000D02*
X166153000Y-115791000D01*
X172937000Y-115791000D02*
X170585000Y-115791000D01*
X168505000Y-115751000D02*
X166127000Y-115751000D01*
X172963000Y-115751000D02*
X170585000Y-115751000D01*
X168505000Y-115711000D02*
X166101000Y-115711000D01*
X172989000Y-115711000D02*
X170585000Y-115711000D01*
X168505000Y-115671000D02*
X166076000Y-115671000D01*
X173014000Y-115671000D02*
X170585000Y-115671000D01*
X168505000Y-115631000D02*
X166052000Y-115631000D01*
X173038000Y-115631000D02*
X170585000Y-115631000D01*
X168505000Y-115591000D02*
X166028000Y-115591000D01*
X173062000Y-115591000D02*
X170585000Y-115591000D01*
X168505000Y-115551000D02*
X166005000Y-115551000D01*
X173085000Y-115551000D02*
X170585000Y-115551000D01*
X168505000Y-115511000D02*
X165983000Y-115511000D01*
X173107000Y-115511000D02*
X170585000Y-115511000D01*
X168505000Y-115471000D02*
X165961000Y-115471000D01*
X173129000Y-115471000D02*
X170585000Y-115471000D01*
X168505000Y-115431000D02*
X165939000Y-115431000D01*
X173151000Y-115431000D02*
X170585000Y-115431000D01*
X168505000Y-115391000D02*
X165918000Y-115391000D01*
X173172000Y-115391000D02*
X170585000Y-115391000D01*
X168505000Y-115351000D02*
X165898000Y-115351000D01*
X173192000Y-115351000D02*
X170585000Y-115351000D01*
X168505000Y-115311000D02*
X165879000Y-115311000D01*
X173211000Y-115311000D02*
X170585000Y-115311000D01*
X168505000Y-115271000D02*
X165859000Y-115271000D01*
X173231000Y-115271000D02*
X170585000Y-115271000D01*
X168505000Y-115231000D02*
X165841000Y-115231000D01*
X173249000Y-115231000D02*
X170585000Y-115231000D01*
X168505000Y-115191000D02*
X165823000Y-115191000D01*
X173267000Y-115191000D02*
X170585000Y-115191000D01*
X168505000Y-115151000D02*
X165805000Y-115151000D01*
X173285000Y-115151000D02*
X170585000Y-115151000D01*
X168505000Y-115111000D02*
X165788000Y-115111000D01*
X173302000Y-115111000D02*
X170585000Y-115111000D01*
X168505000Y-115071000D02*
X165771000Y-115071000D01*
X173319000Y-115071000D02*
X170585000Y-115071000D01*
X168505000Y-115031000D02*
X165755000Y-115031000D01*
X173335000Y-115031000D02*
X170585000Y-115031000D01*
X168505000Y-114991000D02*
X165740000Y-114991000D01*
X173350000Y-114991000D02*
X170585000Y-114991000D01*
X168505000Y-114951000D02*
X165724000Y-114951000D01*
X173366000Y-114951000D02*
X170585000Y-114951000D01*
X168505000Y-114911000D02*
X165710000Y-114911000D01*
X173380000Y-114911000D02*
X170585000Y-114911000D01*
X168505000Y-114871000D02*
X165695000Y-114871000D01*
X173395000Y-114871000D02*
X170585000Y-114871000D01*
X168505000Y-114831000D02*
X165682000Y-114831000D01*
X173408000Y-114831000D02*
X170585000Y-114831000D01*
X168505000Y-114791000D02*
X165668000Y-114791000D01*
X173422000Y-114791000D02*
X170585000Y-114791000D01*
X168505000Y-114751000D02*
X165656000Y-114751000D01*
X173434000Y-114751000D02*
X170585000Y-114751000D01*
X168505000Y-114711000D02*
X165643000Y-114711000D01*
X173447000Y-114711000D02*
X170585000Y-114711000D01*
X168505000Y-114671000D02*
X165631000Y-114671000D01*
X173459000Y-114671000D02*
X170585000Y-114671000D01*
X168505000Y-114631000D02*
X165620000Y-114631000D01*
X173470000Y-114631000D02*
X170585000Y-114631000D01*
X168505000Y-114591000D02*
X165609000Y-114591000D01*
X173481000Y-114591000D02*
X170585000Y-114591000D01*
X168505000Y-114551000D02*
X165598000Y-114551000D01*
X173492000Y-114551000D02*
X170585000Y-114551000D01*
X168505000Y-114511000D02*
X165588000Y-114511000D01*
X173502000Y-114511000D02*
X170585000Y-114511000D01*
X168505000Y-114471000D02*
X165578000Y-114471000D01*
X173512000Y-114471000D02*
X170585000Y-114471000D01*
X168505000Y-114431000D02*
X165569000Y-114431000D01*
X173521000Y-114431000D02*
X170585000Y-114431000D01*
X168505000Y-114391000D02*
X165560000Y-114391000D01*
X173530000Y-114391000D02*
X170585000Y-114391000D01*
X168505000Y-114351000D02*
X165551000Y-114351000D01*
X173539000Y-114351000D02*
X170585000Y-114351000D01*
X168505000Y-114311000D02*
X165543000Y-114311000D01*
X173547000Y-114311000D02*
X170585000Y-114311000D01*
X168505000Y-114271000D02*
X165535000Y-114271000D01*
X173555000Y-114271000D02*
X170585000Y-114271000D01*
X168505000Y-114231000D02*
X165528000Y-114231000D01*
X173562000Y-114231000D02*
X170585000Y-114231000D01*
X173569000Y-114190000D02*
X165521000Y-114190000D01*
X173575000Y-114150000D02*
X165515000Y-114150000D01*
X173582000Y-114110000D02*
X165508000Y-114110000D01*
X173587000Y-114070000D02*
X165503000Y-114070000D01*
X173593000Y-114030000D02*
X165497000Y-114030000D01*
X173597000Y-113990000D02*
X165493000Y-113990000D01*
X173602000Y-113950000D02*
X165488000Y-113950000D01*
X173606000Y-113910000D02*
X165484000Y-113910000D01*
X173610000Y-113870000D02*
X165480000Y-113870000D01*
X173613000Y-113830000D02*
X165477000Y-113830000D01*
X173616000Y-113790000D02*
X165474000Y-113790000D01*
X173619000Y-113750000D02*
X165471000Y-113750000D01*
X173621000Y-113710000D02*
X165469000Y-113710000D01*
X173622000Y-113670000D02*
X165468000Y-113670000D01*
X173624000Y-113630000D02*
X165466000Y-113630000D01*
X173625000Y-113590000D02*
X165465000Y-113590000D01*
X173625000Y-113550000D02*
X165465000Y-113550000D01*
X173625000Y-113510000D02*
X165465000Y-113510000D01*
X173665000Y-113510000D02*
G75*
G03*
X173665000Y-113510000I-4120000J0D01*
G01*
%TO.C,C8*%
X166830000Y-89889698D02*
X167630000Y-89889698D01*
X167230000Y-90289698D02*
X167230000Y-89489698D01*
X169012000Y-81799000D02*
X170078000Y-81799000D01*
X168777000Y-81839000D02*
X170313000Y-81839000D01*
X168597000Y-81879000D02*
X170493000Y-81879000D01*
X168447000Y-81919000D02*
X170643000Y-81919000D01*
X168316000Y-81959000D02*
X170774000Y-81959000D01*
X168199000Y-81999000D02*
X170891000Y-81999000D01*
X168092000Y-82039000D02*
X170998000Y-82039000D01*
X167993000Y-82079000D02*
X171097000Y-82079000D01*
X167900000Y-82119000D02*
X171190000Y-82119000D01*
X167814000Y-82159000D02*
X171276000Y-82159000D01*
X167732000Y-82199000D02*
X171358000Y-82199000D01*
X167655000Y-82239000D02*
X171435000Y-82239000D01*
X167581000Y-82279000D02*
X171509000Y-82279000D01*
X167511000Y-82319000D02*
X171579000Y-82319000D01*
X167443000Y-82359000D02*
X171647000Y-82359000D01*
X167379000Y-82399000D02*
X171711000Y-82399000D01*
X167317000Y-82439000D02*
X171773000Y-82439000D01*
X167258000Y-82479000D02*
X171832000Y-82479000D01*
X167200000Y-82519000D02*
X171890000Y-82519000D01*
X167145000Y-82559000D02*
X171945000Y-82559000D01*
X167091000Y-82599000D02*
X171999000Y-82599000D01*
X167040000Y-82639000D02*
X172050000Y-82639000D01*
X166989000Y-82679000D02*
X172101000Y-82679000D01*
X166941000Y-82719000D02*
X172149000Y-82719000D01*
X166894000Y-82759000D02*
X172196000Y-82759000D01*
X166848000Y-82799000D02*
X172242000Y-82799000D01*
X166804000Y-82839000D02*
X172286000Y-82839000D01*
X166761000Y-82879000D02*
X172329000Y-82879000D01*
X166719000Y-82919000D02*
X172371000Y-82919000D01*
X166678000Y-82959000D02*
X172412000Y-82959000D01*
X166638000Y-82999000D02*
X172452000Y-82999000D01*
X166600000Y-83039000D02*
X172490000Y-83039000D01*
X166562000Y-83079000D02*
X172528000Y-83079000D01*
X170585000Y-83119000D02*
X172564000Y-83119000D01*
X166526000Y-83119000D02*
X168505000Y-83119000D01*
X170585000Y-83159000D02*
X172600000Y-83159000D01*
X166490000Y-83159000D02*
X168505000Y-83159000D01*
X170585000Y-83199000D02*
X172635000Y-83199000D01*
X166455000Y-83199000D02*
X168505000Y-83199000D01*
X170585000Y-83239000D02*
X172669000Y-83239000D01*
X166421000Y-83239000D02*
X168505000Y-83239000D01*
X170585000Y-83279000D02*
X172701000Y-83279000D01*
X166389000Y-83279000D02*
X168505000Y-83279000D01*
X170585000Y-83319000D02*
X172734000Y-83319000D01*
X166356000Y-83319000D02*
X168505000Y-83319000D01*
X170585000Y-83359000D02*
X172765000Y-83359000D01*
X166325000Y-83359000D02*
X168505000Y-83359000D01*
X170585000Y-83399000D02*
X172795000Y-83399000D01*
X166295000Y-83399000D02*
X168505000Y-83399000D01*
X170585000Y-83439000D02*
X172825000Y-83439000D01*
X166265000Y-83439000D02*
X168505000Y-83439000D01*
X170585000Y-83479000D02*
X172854000Y-83479000D01*
X166236000Y-83479000D02*
X168505000Y-83479000D01*
X170585000Y-83519000D02*
X172883000Y-83519000D01*
X166207000Y-83519000D02*
X168505000Y-83519000D01*
X170585000Y-83559000D02*
X172910000Y-83559000D01*
X166180000Y-83559000D02*
X168505000Y-83559000D01*
X170585000Y-83599000D02*
X172937000Y-83599000D01*
X166153000Y-83599000D02*
X168505000Y-83599000D01*
X170585000Y-83639000D02*
X172963000Y-83639000D01*
X166127000Y-83639000D02*
X168505000Y-83639000D01*
X170585000Y-83679000D02*
X172989000Y-83679000D01*
X166101000Y-83679000D02*
X168505000Y-83679000D01*
X170585000Y-83719000D02*
X173014000Y-83719000D01*
X166076000Y-83719000D02*
X168505000Y-83719000D01*
X170585000Y-83759000D02*
X173038000Y-83759000D01*
X166052000Y-83759000D02*
X168505000Y-83759000D01*
X170585000Y-83799000D02*
X173062000Y-83799000D01*
X166028000Y-83799000D02*
X168505000Y-83799000D01*
X170585000Y-83839000D02*
X173085000Y-83839000D01*
X166005000Y-83839000D02*
X168505000Y-83839000D01*
X170585000Y-83879000D02*
X173107000Y-83879000D01*
X165983000Y-83879000D02*
X168505000Y-83879000D01*
X170585000Y-83919000D02*
X173129000Y-83919000D01*
X165961000Y-83919000D02*
X168505000Y-83919000D01*
X170585000Y-83959000D02*
X173151000Y-83959000D01*
X165939000Y-83959000D02*
X168505000Y-83959000D01*
X170585000Y-83999000D02*
X173172000Y-83999000D01*
X165918000Y-83999000D02*
X168505000Y-83999000D01*
X170585000Y-84039000D02*
X173192000Y-84039000D01*
X165898000Y-84039000D02*
X168505000Y-84039000D01*
X170585000Y-84079000D02*
X173211000Y-84079000D01*
X165879000Y-84079000D02*
X168505000Y-84079000D01*
X170585000Y-84119000D02*
X173231000Y-84119000D01*
X165859000Y-84119000D02*
X168505000Y-84119000D01*
X170585000Y-84159000D02*
X173249000Y-84159000D01*
X165841000Y-84159000D02*
X168505000Y-84159000D01*
X170585000Y-84199000D02*
X173267000Y-84199000D01*
X165823000Y-84199000D02*
X168505000Y-84199000D01*
X170585000Y-84239000D02*
X173285000Y-84239000D01*
X165805000Y-84239000D02*
X168505000Y-84239000D01*
X170585000Y-84279000D02*
X173302000Y-84279000D01*
X165788000Y-84279000D02*
X168505000Y-84279000D01*
X170585000Y-84319000D02*
X173319000Y-84319000D01*
X165771000Y-84319000D02*
X168505000Y-84319000D01*
X170585000Y-84359000D02*
X173335000Y-84359000D01*
X165755000Y-84359000D02*
X168505000Y-84359000D01*
X170585000Y-84399000D02*
X173350000Y-84399000D01*
X165740000Y-84399000D02*
X168505000Y-84399000D01*
X170585000Y-84439000D02*
X173366000Y-84439000D01*
X165724000Y-84439000D02*
X168505000Y-84439000D01*
X170585000Y-84479000D02*
X173380000Y-84479000D01*
X165710000Y-84479000D02*
X168505000Y-84479000D01*
X170585000Y-84519000D02*
X173395000Y-84519000D01*
X165695000Y-84519000D02*
X168505000Y-84519000D01*
X170585000Y-84559000D02*
X173408000Y-84559000D01*
X165682000Y-84559000D02*
X168505000Y-84559000D01*
X170585000Y-84599000D02*
X173422000Y-84599000D01*
X165668000Y-84599000D02*
X168505000Y-84599000D01*
X170585000Y-84639000D02*
X173434000Y-84639000D01*
X165656000Y-84639000D02*
X168505000Y-84639000D01*
X170585000Y-84679000D02*
X173447000Y-84679000D01*
X165643000Y-84679000D02*
X168505000Y-84679000D01*
X170585000Y-84719000D02*
X173459000Y-84719000D01*
X165631000Y-84719000D02*
X168505000Y-84719000D01*
X170585000Y-84759000D02*
X173470000Y-84759000D01*
X165620000Y-84759000D02*
X168505000Y-84759000D01*
X170585000Y-84799000D02*
X173481000Y-84799000D01*
X165609000Y-84799000D02*
X168505000Y-84799000D01*
X170585000Y-84839000D02*
X173492000Y-84839000D01*
X165598000Y-84839000D02*
X168505000Y-84839000D01*
X170585000Y-84879000D02*
X173502000Y-84879000D01*
X165588000Y-84879000D02*
X168505000Y-84879000D01*
X170585000Y-84919000D02*
X173512000Y-84919000D01*
X165578000Y-84919000D02*
X168505000Y-84919000D01*
X170585000Y-84959000D02*
X173521000Y-84959000D01*
X165569000Y-84959000D02*
X168505000Y-84959000D01*
X170585000Y-84999000D02*
X173530000Y-84999000D01*
X165560000Y-84999000D02*
X168505000Y-84999000D01*
X170585000Y-85039000D02*
X173539000Y-85039000D01*
X165551000Y-85039000D02*
X168505000Y-85039000D01*
X170585000Y-85079000D02*
X173547000Y-85079000D01*
X165543000Y-85079000D02*
X168505000Y-85079000D01*
X170585000Y-85119000D02*
X173555000Y-85119000D01*
X165535000Y-85119000D02*
X168505000Y-85119000D01*
X170585000Y-85159000D02*
X173562000Y-85159000D01*
X165528000Y-85159000D02*
X168505000Y-85159000D01*
X165521000Y-85200000D02*
X173569000Y-85200000D01*
X165515000Y-85240000D02*
X173575000Y-85240000D01*
X165508000Y-85280000D02*
X173582000Y-85280000D01*
X165503000Y-85320000D02*
X173587000Y-85320000D01*
X165497000Y-85360000D02*
X173593000Y-85360000D01*
X165493000Y-85400000D02*
X173597000Y-85400000D01*
X165488000Y-85440000D02*
X173602000Y-85440000D01*
X165484000Y-85480000D02*
X173606000Y-85480000D01*
X165480000Y-85520000D02*
X173610000Y-85520000D01*
X165477000Y-85560000D02*
X173613000Y-85560000D01*
X165474000Y-85600000D02*
X173616000Y-85600000D01*
X165471000Y-85640000D02*
X173619000Y-85640000D01*
X165469000Y-85680000D02*
X173621000Y-85680000D01*
X165468000Y-85720000D02*
X173622000Y-85720000D01*
X165466000Y-85760000D02*
X173624000Y-85760000D01*
X165465000Y-85800000D02*
X173625000Y-85800000D01*
X165465000Y-85840000D02*
X173625000Y-85840000D01*
X165465000Y-85880000D02*
X173625000Y-85880000D01*
X173665000Y-85880000D02*
G75*
G03*
X173665000Y-85880000I-4120000J0D01*
G01*
%TO.C,C7*%
X166830000Y-62584698D02*
X167630000Y-62584698D01*
X167230000Y-62984698D02*
X167230000Y-62184698D01*
X169012000Y-54494000D02*
X170078000Y-54494000D01*
X168777000Y-54534000D02*
X170313000Y-54534000D01*
X168597000Y-54574000D02*
X170493000Y-54574000D01*
X168447000Y-54614000D02*
X170643000Y-54614000D01*
X168316000Y-54654000D02*
X170774000Y-54654000D01*
X168199000Y-54694000D02*
X170891000Y-54694000D01*
X168092000Y-54734000D02*
X170998000Y-54734000D01*
X167993000Y-54774000D02*
X171097000Y-54774000D01*
X167900000Y-54814000D02*
X171190000Y-54814000D01*
X167814000Y-54854000D02*
X171276000Y-54854000D01*
X167732000Y-54894000D02*
X171358000Y-54894000D01*
X167655000Y-54934000D02*
X171435000Y-54934000D01*
X167581000Y-54974000D02*
X171509000Y-54974000D01*
X167511000Y-55014000D02*
X171579000Y-55014000D01*
X167443000Y-55054000D02*
X171647000Y-55054000D01*
X167379000Y-55094000D02*
X171711000Y-55094000D01*
X167317000Y-55134000D02*
X171773000Y-55134000D01*
X167258000Y-55174000D02*
X171832000Y-55174000D01*
X167200000Y-55214000D02*
X171890000Y-55214000D01*
X167145000Y-55254000D02*
X171945000Y-55254000D01*
X167091000Y-55294000D02*
X171999000Y-55294000D01*
X167040000Y-55334000D02*
X172050000Y-55334000D01*
X166989000Y-55374000D02*
X172101000Y-55374000D01*
X166941000Y-55414000D02*
X172149000Y-55414000D01*
X166894000Y-55454000D02*
X172196000Y-55454000D01*
X166848000Y-55494000D02*
X172242000Y-55494000D01*
X166804000Y-55534000D02*
X172286000Y-55534000D01*
X166761000Y-55574000D02*
X172329000Y-55574000D01*
X166719000Y-55614000D02*
X172371000Y-55614000D01*
X166678000Y-55654000D02*
X172412000Y-55654000D01*
X166638000Y-55694000D02*
X172452000Y-55694000D01*
X166600000Y-55734000D02*
X172490000Y-55734000D01*
X166562000Y-55774000D02*
X172528000Y-55774000D01*
X170585000Y-55814000D02*
X172564000Y-55814000D01*
X166526000Y-55814000D02*
X168505000Y-55814000D01*
X170585000Y-55854000D02*
X172600000Y-55854000D01*
X166490000Y-55854000D02*
X168505000Y-55854000D01*
X170585000Y-55894000D02*
X172635000Y-55894000D01*
X166455000Y-55894000D02*
X168505000Y-55894000D01*
X170585000Y-55934000D02*
X172669000Y-55934000D01*
X166421000Y-55934000D02*
X168505000Y-55934000D01*
X170585000Y-55974000D02*
X172701000Y-55974000D01*
X166389000Y-55974000D02*
X168505000Y-55974000D01*
X170585000Y-56014000D02*
X172734000Y-56014000D01*
X166356000Y-56014000D02*
X168505000Y-56014000D01*
X170585000Y-56054000D02*
X172765000Y-56054000D01*
X166325000Y-56054000D02*
X168505000Y-56054000D01*
X170585000Y-56094000D02*
X172795000Y-56094000D01*
X166295000Y-56094000D02*
X168505000Y-56094000D01*
X170585000Y-56134000D02*
X172825000Y-56134000D01*
X166265000Y-56134000D02*
X168505000Y-56134000D01*
X170585000Y-56174000D02*
X172854000Y-56174000D01*
X166236000Y-56174000D02*
X168505000Y-56174000D01*
X170585000Y-56214000D02*
X172883000Y-56214000D01*
X166207000Y-56214000D02*
X168505000Y-56214000D01*
X170585000Y-56254000D02*
X172910000Y-56254000D01*
X166180000Y-56254000D02*
X168505000Y-56254000D01*
X170585000Y-56294000D02*
X172937000Y-56294000D01*
X166153000Y-56294000D02*
X168505000Y-56294000D01*
X170585000Y-56334000D02*
X172963000Y-56334000D01*
X166127000Y-56334000D02*
X168505000Y-56334000D01*
X170585000Y-56374000D02*
X172989000Y-56374000D01*
X166101000Y-56374000D02*
X168505000Y-56374000D01*
X170585000Y-56414000D02*
X173014000Y-56414000D01*
X166076000Y-56414000D02*
X168505000Y-56414000D01*
X170585000Y-56454000D02*
X173038000Y-56454000D01*
X166052000Y-56454000D02*
X168505000Y-56454000D01*
X170585000Y-56494000D02*
X173062000Y-56494000D01*
X166028000Y-56494000D02*
X168505000Y-56494000D01*
X170585000Y-56534000D02*
X173085000Y-56534000D01*
X166005000Y-56534000D02*
X168505000Y-56534000D01*
X170585000Y-56574000D02*
X173107000Y-56574000D01*
X165983000Y-56574000D02*
X168505000Y-56574000D01*
X170585000Y-56614000D02*
X173129000Y-56614000D01*
X165961000Y-56614000D02*
X168505000Y-56614000D01*
X170585000Y-56654000D02*
X173151000Y-56654000D01*
X165939000Y-56654000D02*
X168505000Y-56654000D01*
X170585000Y-56694000D02*
X173172000Y-56694000D01*
X165918000Y-56694000D02*
X168505000Y-56694000D01*
X170585000Y-56734000D02*
X173192000Y-56734000D01*
X165898000Y-56734000D02*
X168505000Y-56734000D01*
X170585000Y-56774000D02*
X173211000Y-56774000D01*
X165879000Y-56774000D02*
X168505000Y-56774000D01*
X170585000Y-56814000D02*
X173231000Y-56814000D01*
X165859000Y-56814000D02*
X168505000Y-56814000D01*
X170585000Y-56854000D02*
X173249000Y-56854000D01*
X165841000Y-56854000D02*
X168505000Y-56854000D01*
X170585000Y-56894000D02*
X173267000Y-56894000D01*
X165823000Y-56894000D02*
X168505000Y-56894000D01*
X170585000Y-56934000D02*
X173285000Y-56934000D01*
X165805000Y-56934000D02*
X168505000Y-56934000D01*
X170585000Y-56974000D02*
X173302000Y-56974000D01*
X165788000Y-56974000D02*
X168505000Y-56974000D01*
X170585000Y-57014000D02*
X173319000Y-57014000D01*
X165771000Y-57014000D02*
X168505000Y-57014000D01*
X170585000Y-57054000D02*
X173335000Y-57054000D01*
X165755000Y-57054000D02*
X168505000Y-57054000D01*
X170585000Y-57094000D02*
X173350000Y-57094000D01*
X165740000Y-57094000D02*
X168505000Y-57094000D01*
X170585000Y-57134000D02*
X173366000Y-57134000D01*
X165724000Y-57134000D02*
X168505000Y-57134000D01*
X170585000Y-57174000D02*
X173380000Y-57174000D01*
X165710000Y-57174000D02*
X168505000Y-57174000D01*
X170585000Y-57214000D02*
X173395000Y-57214000D01*
X165695000Y-57214000D02*
X168505000Y-57214000D01*
X170585000Y-57254000D02*
X173408000Y-57254000D01*
X165682000Y-57254000D02*
X168505000Y-57254000D01*
X170585000Y-57294000D02*
X173422000Y-57294000D01*
X165668000Y-57294000D02*
X168505000Y-57294000D01*
X170585000Y-57334000D02*
X173434000Y-57334000D01*
X165656000Y-57334000D02*
X168505000Y-57334000D01*
X170585000Y-57374000D02*
X173447000Y-57374000D01*
X165643000Y-57374000D02*
X168505000Y-57374000D01*
X170585000Y-57414000D02*
X173459000Y-57414000D01*
X165631000Y-57414000D02*
X168505000Y-57414000D01*
X170585000Y-57454000D02*
X173470000Y-57454000D01*
X165620000Y-57454000D02*
X168505000Y-57454000D01*
X170585000Y-57494000D02*
X173481000Y-57494000D01*
X165609000Y-57494000D02*
X168505000Y-57494000D01*
X170585000Y-57534000D02*
X173492000Y-57534000D01*
X165598000Y-57534000D02*
X168505000Y-57534000D01*
X170585000Y-57574000D02*
X173502000Y-57574000D01*
X165588000Y-57574000D02*
X168505000Y-57574000D01*
X170585000Y-57614000D02*
X173512000Y-57614000D01*
X165578000Y-57614000D02*
X168505000Y-57614000D01*
X170585000Y-57654000D02*
X173521000Y-57654000D01*
X165569000Y-57654000D02*
X168505000Y-57654000D01*
X170585000Y-57694000D02*
X173530000Y-57694000D01*
X165560000Y-57694000D02*
X168505000Y-57694000D01*
X170585000Y-57734000D02*
X173539000Y-57734000D01*
X165551000Y-57734000D02*
X168505000Y-57734000D01*
X170585000Y-57774000D02*
X173547000Y-57774000D01*
X165543000Y-57774000D02*
X168505000Y-57774000D01*
X170585000Y-57814000D02*
X173555000Y-57814000D01*
X165535000Y-57814000D02*
X168505000Y-57814000D01*
X170585000Y-57854000D02*
X173562000Y-57854000D01*
X165528000Y-57854000D02*
X168505000Y-57854000D01*
X165521000Y-57895000D02*
X173569000Y-57895000D01*
X165515000Y-57935000D02*
X173575000Y-57935000D01*
X165508000Y-57975000D02*
X173582000Y-57975000D01*
X165503000Y-58015000D02*
X173587000Y-58015000D01*
X165497000Y-58055000D02*
X173593000Y-58055000D01*
X165493000Y-58095000D02*
X173597000Y-58095000D01*
X165488000Y-58135000D02*
X173602000Y-58135000D01*
X165484000Y-58175000D02*
X173606000Y-58175000D01*
X165480000Y-58215000D02*
X173610000Y-58215000D01*
X165477000Y-58255000D02*
X173613000Y-58255000D01*
X165474000Y-58295000D02*
X173616000Y-58295000D01*
X165471000Y-58335000D02*
X173619000Y-58335000D01*
X165469000Y-58375000D02*
X173621000Y-58375000D01*
X165468000Y-58415000D02*
X173622000Y-58415000D01*
X165466000Y-58455000D02*
X173624000Y-58455000D01*
X165465000Y-58495000D02*
X173625000Y-58495000D01*
X165465000Y-58535000D02*
X173625000Y-58535000D01*
X165465000Y-58575000D02*
X173625000Y-58575000D01*
X173665000Y-58575000D02*
G75*
G03*
X173665000Y-58575000I-4120000J0D01*
G01*
%TO.C,C6*%
X183730000Y-115895000D02*
X183715000Y-115895000D01*
X185855000Y-115895000D02*
X185840000Y-115895000D01*
X183730000Y-111355000D02*
X183715000Y-111355000D01*
X185855000Y-111355000D02*
X185840000Y-111355000D01*
X183715000Y-111355000D02*
X183715000Y-115895000D01*
X185855000Y-111355000D02*
X185855000Y-115895000D01*
%TO.C,C5*%
X185840000Y-83495000D02*
X185855000Y-83495000D01*
X183715000Y-83495000D02*
X183730000Y-83495000D01*
X185840000Y-88035000D02*
X185855000Y-88035000D01*
X183715000Y-88035000D02*
X183730000Y-88035000D01*
X185855000Y-88035000D02*
X185855000Y-83495000D01*
X183715000Y-88035000D02*
X183715000Y-83495000D01*
%TO.C,C4*%
X185840000Y-56110000D02*
X185855000Y-56110000D01*
X183715000Y-56110000D02*
X183730000Y-56110000D01*
X185840000Y-60650000D02*
X185855000Y-60650000D01*
X183715000Y-60650000D02*
X183730000Y-60650000D01*
X185855000Y-60650000D02*
X185855000Y-56110000D01*
X183715000Y-60650000D02*
X183715000Y-56110000D01*
%TO.C,C3*%
X196390000Y-109500302D02*
X195590000Y-109500302D01*
X195990000Y-109100302D02*
X195990000Y-109900302D01*
X194208000Y-117591000D02*
X193142000Y-117591000D01*
X194443000Y-117551000D02*
X192907000Y-117551000D01*
X194623000Y-117511000D02*
X192727000Y-117511000D01*
X194773000Y-117471000D02*
X192577000Y-117471000D01*
X194904000Y-117431000D02*
X192446000Y-117431000D01*
X195021000Y-117391000D02*
X192329000Y-117391000D01*
X195128000Y-117351000D02*
X192222000Y-117351000D01*
X195227000Y-117311000D02*
X192123000Y-117311000D01*
X195320000Y-117271000D02*
X192030000Y-117271000D01*
X195406000Y-117231000D02*
X191944000Y-117231000D01*
X195488000Y-117191000D02*
X191862000Y-117191000D01*
X195565000Y-117151000D02*
X191785000Y-117151000D01*
X195639000Y-117111000D02*
X191711000Y-117111000D01*
X195709000Y-117071000D02*
X191641000Y-117071000D01*
X195777000Y-117031000D02*
X191573000Y-117031000D01*
X195841000Y-116991000D02*
X191509000Y-116991000D01*
X195903000Y-116951000D02*
X191447000Y-116951000D01*
X195962000Y-116911000D02*
X191388000Y-116911000D01*
X196020000Y-116871000D02*
X191330000Y-116871000D01*
X196075000Y-116831000D02*
X191275000Y-116831000D01*
X196129000Y-116791000D02*
X191221000Y-116791000D01*
X196180000Y-116751000D02*
X191170000Y-116751000D01*
X196231000Y-116711000D02*
X191119000Y-116711000D01*
X196279000Y-116671000D02*
X191071000Y-116671000D01*
X196326000Y-116631000D02*
X191024000Y-116631000D01*
X196372000Y-116591000D02*
X190978000Y-116591000D01*
X196416000Y-116551000D02*
X190934000Y-116551000D01*
X196459000Y-116511000D02*
X190891000Y-116511000D01*
X196501000Y-116471000D02*
X190849000Y-116471000D01*
X196542000Y-116431000D02*
X190808000Y-116431000D01*
X196582000Y-116391000D02*
X190768000Y-116391000D01*
X196620000Y-116351000D02*
X190730000Y-116351000D01*
X196658000Y-116311000D02*
X190692000Y-116311000D01*
X192635000Y-116271000D02*
X190656000Y-116271000D01*
X196694000Y-116271000D02*
X194715000Y-116271000D01*
X192635000Y-116231000D02*
X190620000Y-116231000D01*
X196730000Y-116231000D02*
X194715000Y-116231000D01*
X192635000Y-116191000D02*
X190585000Y-116191000D01*
X196765000Y-116191000D02*
X194715000Y-116191000D01*
X192635000Y-116151000D02*
X190551000Y-116151000D01*
X196799000Y-116151000D02*
X194715000Y-116151000D01*
X192635000Y-116111000D02*
X190519000Y-116111000D01*
X196831000Y-116111000D02*
X194715000Y-116111000D01*
X192635000Y-116071000D02*
X190486000Y-116071000D01*
X196864000Y-116071000D02*
X194715000Y-116071000D01*
X192635000Y-116031000D02*
X190455000Y-116031000D01*
X196895000Y-116031000D02*
X194715000Y-116031000D01*
X192635000Y-115991000D02*
X190425000Y-115991000D01*
X196925000Y-115991000D02*
X194715000Y-115991000D01*
X192635000Y-115951000D02*
X190395000Y-115951000D01*
X196955000Y-115951000D02*
X194715000Y-115951000D01*
X192635000Y-115911000D02*
X190366000Y-115911000D01*
X196984000Y-115911000D02*
X194715000Y-115911000D01*
X192635000Y-115871000D02*
X190337000Y-115871000D01*
X197013000Y-115871000D02*
X194715000Y-115871000D01*
X192635000Y-115831000D02*
X190310000Y-115831000D01*
X197040000Y-115831000D02*
X194715000Y-115831000D01*
X192635000Y-115791000D02*
X190283000Y-115791000D01*
X197067000Y-115791000D02*
X194715000Y-115791000D01*
X192635000Y-115751000D02*
X190257000Y-115751000D01*
X197093000Y-115751000D02*
X194715000Y-115751000D01*
X192635000Y-115711000D02*
X190231000Y-115711000D01*
X197119000Y-115711000D02*
X194715000Y-115711000D01*
X192635000Y-115671000D02*
X190206000Y-115671000D01*
X197144000Y-115671000D02*
X194715000Y-115671000D01*
X192635000Y-115631000D02*
X190182000Y-115631000D01*
X197168000Y-115631000D02*
X194715000Y-115631000D01*
X192635000Y-115591000D02*
X190158000Y-115591000D01*
X197192000Y-115591000D02*
X194715000Y-115591000D01*
X192635000Y-115551000D02*
X190135000Y-115551000D01*
X197215000Y-115551000D02*
X194715000Y-115551000D01*
X192635000Y-115511000D02*
X190113000Y-115511000D01*
X197237000Y-115511000D02*
X194715000Y-115511000D01*
X192635000Y-115471000D02*
X190091000Y-115471000D01*
X197259000Y-115471000D02*
X194715000Y-115471000D01*
X192635000Y-115431000D02*
X190069000Y-115431000D01*
X197281000Y-115431000D02*
X194715000Y-115431000D01*
X192635000Y-115391000D02*
X190048000Y-115391000D01*
X197302000Y-115391000D02*
X194715000Y-115391000D01*
X192635000Y-115351000D02*
X190028000Y-115351000D01*
X197322000Y-115351000D02*
X194715000Y-115351000D01*
X192635000Y-115311000D02*
X190009000Y-115311000D01*
X197341000Y-115311000D02*
X194715000Y-115311000D01*
X192635000Y-115271000D02*
X189989000Y-115271000D01*
X197361000Y-115271000D02*
X194715000Y-115271000D01*
X192635000Y-115231000D02*
X189971000Y-115231000D01*
X197379000Y-115231000D02*
X194715000Y-115231000D01*
X192635000Y-115191000D02*
X189953000Y-115191000D01*
X197397000Y-115191000D02*
X194715000Y-115191000D01*
X192635000Y-115151000D02*
X189935000Y-115151000D01*
X197415000Y-115151000D02*
X194715000Y-115151000D01*
X192635000Y-115111000D02*
X189918000Y-115111000D01*
X197432000Y-115111000D02*
X194715000Y-115111000D01*
X192635000Y-115071000D02*
X189901000Y-115071000D01*
X197449000Y-115071000D02*
X194715000Y-115071000D01*
X192635000Y-115031000D02*
X189885000Y-115031000D01*
X197465000Y-115031000D02*
X194715000Y-115031000D01*
X192635000Y-114991000D02*
X189870000Y-114991000D01*
X197480000Y-114991000D02*
X194715000Y-114991000D01*
X192635000Y-114951000D02*
X189854000Y-114951000D01*
X197496000Y-114951000D02*
X194715000Y-114951000D01*
X192635000Y-114911000D02*
X189840000Y-114911000D01*
X197510000Y-114911000D02*
X194715000Y-114911000D01*
X192635000Y-114871000D02*
X189825000Y-114871000D01*
X197525000Y-114871000D02*
X194715000Y-114871000D01*
X192635000Y-114831000D02*
X189812000Y-114831000D01*
X197538000Y-114831000D02*
X194715000Y-114831000D01*
X192635000Y-114791000D02*
X189798000Y-114791000D01*
X197552000Y-114791000D02*
X194715000Y-114791000D01*
X192635000Y-114751000D02*
X189786000Y-114751000D01*
X197564000Y-114751000D02*
X194715000Y-114751000D01*
X192635000Y-114711000D02*
X189773000Y-114711000D01*
X197577000Y-114711000D02*
X194715000Y-114711000D01*
X192635000Y-114671000D02*
X189761000Y-114671000D01*
X197589000Y-114671000D02*
X194715000Y-114671000D01*
X192635000Y-114631000D02*
X189750000Y-114631000D01*
X197600000Y-114631000D02*
X194715000Y-114631000D01*
X192635000Y-114591000D02*
X189739000Y-114591000D01*
X197611000Y-114591000D02*
X194715000Y-114591000D01*
X192635000Y-114551000D02*
X189728000Y-114551000D01*
X197622000Y-114551000D02*
X194715000Y-114551000D01*
X192635000Y-114511000D02*
X189718000Y-114511000D01*
X197632000Y-114511000D02*
X194715000Y-114511000D01*
X192635000Y-114471000D02*
X189708000Y-114471000D01*
X197642000Y-114471000D02*
X194715000Y-114471000D01*
X192635000Y-114431000D02*
X189699000Y-114431000D01*
X197651000Y-114431000D02*
X194715000Y-114431000D01*
X192635000Y-114391000D02*
X189690000Y-114391000D01*
X197660000Y-114391000D02*
X194715000Y-114391000D01*
X192635000Y-114351000D02*
X189681000Y-114351000D01*
X197669000Y-114351000D02*
X194715000Y-114351000D01*
X192635000Y-114311000D02*
X189673000Y-114311000D01*
X197677000Y-114311000D02*
X194715000Y-114311000D01*
X192635000Y-114271000D02*
X189665000Y-114271000D01*
X197685000Y-114271000D02*
X194715000Y-114271000D01*
X192635000Y-114231000D02*
X189658000Y-114231000D01*
X197692000Y-114231000D02*
X194715000Y-114231000D01*
X197699000Y-114190000D02*
X189651000Y-114190000D01*
X197705000Y-114150000D02*
X189645000Y-114150000D01*
X197712000Y-114110000D02*
X189638000Y-114110000D01*
X197717000Y-114070000D02*
X189633000Y-114070000D01*
X197723000Y-114030000D02*
X189627000Y-114030000D01*
X197727000Y-113990000D02*
X189623000Y-113990000D01*
X197732000Y-113950000D02*
X189618000Y-113950000D01*
X197736000Y-113910000D02*
X189614000Y-113910000D01*
X197740000Y-113870000D02*
X189610000Y-113870000D01*
X197743000Y-113830000D02*
X189607000Y-113830000D01*
X197746000Y-113790000D02*
X189604000Y-113790000D01*
X197749000Y-113750000D02*
X189601000Y-113750000D01*
X197751000Y-113710000D02*
X189599000Y-113710000D01*
X197752000Y-113670000D02*
X189598000Y-113670000D01*
X197754000Y-113630000D02*
X189596000Y-113630000D01*
X197755000Y-113590000D02*
X189595000Y-113590000D01*
X197755000Y-113550000D02*
X189595000Y-113550000D01*
X197755000Y-113510000D02*
X189595000Y-113510000D01*
X197795000Y-113510000D02*
G75*
G03*
X197795000Y-113510000I-4120000J0D01*
G01*
%TO.C,C2*%
X190960000Y-89889698D02*
X191760000Y-89889698D01*
X191360000Y-90289698D02*
X191360000Y-89489698D01*
X193142000Y-81799000D02*
X194208000Y-81799000D01*
X192907000Y-81839000D02*
X194443000Y-81839000D01*
X192727000Y-81879000D02*
X194623000Y-81879000D01*
X192577000Y-81919000D02*
X194773000Y-81919000D01*
X192446000Y-81959000D02*
X194904000Y-81959000D01*
X192329000Y-81999000D02*
X195021000Y-81999000D01*
X192222000Y-82039000D02*
X195128000Y-82039000D01*
X192123000Y-82079000D02*
X195227000Y-82079000D01*
X192030000Y-82119000D02*
X195320000Y-82119000D01*
X191944000Y-82159000D02*
X195406000Y-82159000D01*
X191862000Y-82199000D02*
X195488000Y-82199000D01*
X191785000Y-82239000D02*
X195565000Y-82239000D01*
X191711000Y-82279000D02*
X195639000Y-82279000D01*
X191641000Y-82319000D02*
X195709000Y-82319000D01*
X191573000Y-82359000D02*
X195777000Y-82359000D01*
X191509000Y-82399000D02*
X195841000Y-82399000D01*
X191447000Y-82439000D02*
X195903000Y-82439000D01*
X191388000Y-82479000D02*
X195962000Y-82479000D01*
X191330000Y-82519000D02*
X196020000Y-82519000D01*
X191275000Y-82559000D02*
X196075000Y-82559000D01*
X191221000Y-82599000D02*
X196129000Y-82599000D01*
X191170000Y-82639000D02*
X196180000Y-82639000D01*
X191119000Y-82679000D02*
X196231000Y-82679000D01*
X191071000Y-82719000D02*
X196279000Y-82719000D01*
X191024000Y-82759000D02*
X196326000Y-82759000D01*
X190978000Y-82799000D02*
X196372000Y-82799000D01*
X190934000Y-82839000D02*
X196416000Y-82839000D01*
X190891000Y-82879000D02*
X196459000Y-82879000D01*
X190849000Y-82919000D02*
X196501000Y-82919000D01*
X190808000Y-82959000D02*
X196542000Y-82959000D01*
X190768000Y-82999000D02*
X196582000Y-82999000D01*
X190730000Y-83039000D02*
X196620000Y-83039000D01*
X190692000Y-83079000D02*
X196658000Y-83079000D01*
X194715000Y-83119000D02*
X196694000Y-83119000D01*
X190656000Y-83119000D02*
X192635000Y-83119000D01*
X194715000Y-83159000D02*
X196730000Y-83159000D01*
X190620000Y-83159000D02*
X192635000Y-83159000D01*
X194715000Y-83199000D02*
X196765000Y-83199000D01*
X190585000Y-83199000D02*
X192635000Y-83199000D01*
X194715000Y-83239000D02*
X196799000Y-83239000D01*
X190551000Y-83239000D02*
X192635000Y-83239000D01*
X194715000Y-83279000D02*
X196831000Y-83279000D01*
X190519000Y-83279000D02*
X192635000Y-83279000D01*
X194715000Y-83319000D02*
X196864000Y-83319000D01*
X190486000Y-83319000D02*
X192635000Y-83319000D01*
X194715000Y-83359000D02*
X196895000Y-83359000D01*
X190455000Y-83359000D02*
X192635000Y-83359000D01*
X194715000Y-83399000D02*
X196925000Y-83399000D01*
X190425000Y-83399000D02*
X192635000Y-83399000D01*
X194715000Y-83439000D02*
X196955000Y-83439000D01*
X190395000Y-83439000D02*
X192635000Y-83439000D01*
X194715000Y-83479000D02*
X196984000Y-83479000D01*
X190366000Y-83479000D02*
X192635000Y-83479000D01*
X194715000Y-83519000D02*
X197013000Y-83519000D01*
X190337000Y-83519000D02*
X192635000Y-83519000D01*
X194715000Y-83559000D02*
X197040000Y-83559000D01*
X190310000Y-83559000D02*
X192635000Y-83559000D01*
X194715000Y-83599000D02*
X197067000Y-83599000D01*
X190283000Y-83599000D02*
X192635000Y-83599000D01*
X194715000Y-83639000D02*
X197093000Y-83639000D01*
X190257000Y-83639000D02*
X192635000Y-83639000D01*
X194715000Y-83679000D02*
X197119000Y-83679000D01*
X190231000Y-83679000D02*
X192635000Y-83679000D01*
X194715000Y-83719000D02*
X197144000Y-83719000D01*
X190206000Y-83719000D02*
X192635000Y-83719000D01*
X194715000Y-83759000D02*
X197168000Y-83759000D01*
X190182000Y-83759000D02*
X192635000Y-83759000D01*
X194715000Y-83799000D02*
X197192000Y-83799000D01*
X190158000Y-83799000D02*
X192635000Y-83799000D01*
X194715000Y-83839000D02*
X197215000Y-83839000D01*
X190135000Y-83839000D02*
X192635000Y-83839000D01*
X194715000Y-83879000D02*
X197237000Y-83879000D01*
X190113000Y-83879000D02*
X192635000Y-83879000D01*
X194715000Y-83919000D02*
X197259000Y-83919000D01*
X190091000Y-83919000D02*
X192635000Y-83919000D01*
X194715000Y-83959000D02*
X197281000Y-83959000D01*
X190069000Y-83959000D02*
X192635000Y-83959000D01*
X194715000Y-83999000D02*
X197302000Y-83999000D01*
X190048000Y-83999000D02*
X192635000Y-83999000D01*
X194715000Y-84039000D02*
X197322000Y-84039000D01*
X190028000Y-84039000D02*
X192635000Y-84039000D01*
X194715000Y-84079000D02*
X197341000Y-84079000D01*
X190009000Y-84079000D02*
X192635000Y-84079000D01*
X194715000Y-84119000D02*
X197361000Y-84119000D01*
X189989000Y-84119000D02*
X192635000Y-84119000D01*
X194715000Y-84159000D02*
X197379000Y-84159000D01*
X189971000Y-84159000D02*
X192635000Y-84159000D01*
X194715000Y-84199000D02*
X197397000Y-84199000D01*
X189953000Y-84199000D02*
X192635000Y-84199000D01*
X194715000Y-84239000D02*
X197415000Y-84239000D01*
X189935000Y-84239000D02*
X192635000Y-84239000D01*
X194715000Y-84279000D02*
X197432000Y-84279000D01*
X189918000Y-84279000D02*
X192635000Y-84279000D01*
X194715000Y-84319000D02*
X197449000Y-84319000D01*
X189901000Y-84319000D02*
X192635000Y-84319000D01*
X194715000Y-84359000D02*
X197465000Y-84359000D01*
X189885000Y-84359000D02*
X192635000Y-84359000D01*
X194715000Y-84399000D02*
X197480000Y-84399000D01*
X189870000Y-84399000D02*
X192635000Y-84399000D01*
X194715000Y-84439000D02*
X197496000Y-84439000D01*
X189854000Y-84439000D02*
X192635000Y-84439000D01*
X194715000Y-84479000D02*
X197510000Y-84479000D01*
X189840000Y-84479000D02*
X192635000Y-84479000D01*
X194715000Y-84519000D02*
X197525000Y-84519000D01*
X189825000Y-84519000D02*
X192635000Y-84519000D01*
X194715000Y-84559000D02*
X197538000Y-84559000D01*
X189812000Y-84559000D02*
X192635000Y-84559000D01*
X194715000Y-84599000D02*
X197552000Y-84599000D01*
X189798000Y-84599000D02*
X192635000Y-84599000D01*
X194715000Y-84639000D02*
X197564000Y-84639000D01*
X189786000Y-84639000D02*
X192635000Y-84639000D01*
X194715000Y-84679000D02*
X197577000Y-84679000D01*
X189773000Y-84679000D02*
X192635000Y-84679000D01*
X194715000Y-84719000D02*
X197589000Y-84719000D01*
X189761000Y-84719000D02*
X192635000Y-84719000D01*
X194715000Y-84759000D02*
X197600000Y-84759000D01*
X189750000Y-84759000D02*
X192635000Y-84759000D01*
X194715000Y-84799000D02*
X197611000Y-84799000D01*
X189739000Y-84799000D02*
X192635000Y-84799000D01*
X194715000Y-84839000D02*
X197622000Y-84839000D01*
X189728000Y-84839000D02*
X192635000Y-84839000D01*
X194715000Y-84879000D02*
X197632000Y-84879000D01*
X189718000Y-84879000D02*
X192635000Y-84879000D01*
X194715000Y-84919000D02*
X197642000Y-84919000D01*
X189708000Y-84919000D02*
X192635000Y-84919000D01*
X194715000Y-84959000D02*
X197651000Y-84959000D01*
X189699000Y-84959000D02*
X192635000Y-84959000D01*
X194715000Y-84999000D02*
X197660000Y-84999000D01*
X189690000Y-84999000D02*
X192635000Y-84999000D01*
X194715000Y-85039000D02*
X197669000Y-85039000D01*
X189681000Y-85039000D02*
X192635000Y-85039000D01*
X194715000Y-85079000D02*
X197677000Y-85079000D01*
X189673000Y-85079000D02*
X192635000Y-85079000D01*
X194715000Y-85119000D02*
X197685000Y-85119000D01*
X189665000Y-85119000D02*
X192635000Y-85119000D01*
X194715000Y-85159000D02*
X197692000Y-85159000D01*
X189658000Y-85159000D02*
X192635000Y-85159000D01*
X189651000Y-85200000D02*
X197699000Y-85200000D01*
X189645000Y-85240000D02*
X197705000Y-85240000D01*
X189638000Y-85280000D02*
X197712000Y-85280000D01*
X189633000Y-85320000D02*
X197717000Y-85320000D01*
X189627000Y-85360000D02*
X197723000Y-85360000D01*
X189623000Y-85400000D02*
X197727000Y-85400000D01*
X189618000Y-85440000D02*
X197732000Y-85440000D01*
X189614000Y-85480000D02*
X197736000Y-85480000D01*
X189610000Y-85520000D02*
X197740000Y-85520000D01*
X189607000Y-85560000D02*
X197743000Y-85560000D01*
X189604000Y-85600000D02*
X197746000Y-85600000D01*
X189601000Y-85640000D02*
X197749000Y-85640000D01*
X189599000Y-85680000D02*
X197751000Y-85680000D01*
X189598000Y-85720000D02*
X197752000Y-85720000D01*
X189596000Y-85760000D02*
X197754000Y-85760000D01*
X189595000Y-85800000D02*
X197755000Y-85800000D01*
X189595000Y-85840000D02*
X197755000Y-85840000D01*
X189595000Y-85880000D02*
X197755000Y-85880000D01*
X197795000Y-85880000D02*
G75*
G03*
X197795000Y-85880000I-4120000J0D01*
G01*
%TO.C,C1*%
X190960000Y-62584698D02*
X191760000Y-62584698D01*
X191360000Y-62984698D02*
X191360000Y-62184698D01*
X193142000Y-54494000D02*
X194208000Y-54494000D01*
X192907000Y-54534000D02*
X194443000Y-54534000D01*
X192727000Y-54574000D02*
X194623000Y-54574000D01*
X192577000Y-54614000D02*
X194773000Y-54614000D01*
X192446000Y-54654000D02*
X194904000Y-54654000D01*
X192329000Y-54694000D02*
X195021000Y-54694000D01*
X192222000Y-54734000D02*
X195128000Y-54734000D01*
X192123000Y-54774000D02*
X195227000Y-54774000D01*
X192030000Y-54814000D02*
X195320000Y-54814000D01*
X191944000Y-54854000D02*
X195406000Y-54854000D01*
X191862000Y-54894000D02*
X195488000Y-54894000D01*
X191785000Y-54934000D02*
X195565000Y-54934000D01*
X191711000Y-54974000D02*
X195639000Y-54974000D01*
X191641000Y-55014000D02*
X195709000Y-55014000D01*
X191573000Y-55054000D02*
X195777000Y-55054000D01*
X191509000Y-55094000D02*
X195841000Y-55094000D01*
X191447000Y-55134000D02*
X195903000Y-55134000D01*
X191388000Y-55174000D02*
X195962000Y-55174000D01*
X191330000Y-55214000D02*
X196020000Y-55214000D01*
X191275000Y-55254000D02*
X196075000Y-55254000D01*
X191221000Y-55294000D02*
X196129000Y-55294000D01*
X191170000Y-55334000D02*
X196180000Y-55334000D01*
X191119000Y-55374000D02*
X196231000Y-55374000D01*
X191071000Y-55414000D02*
X196279000Y-55414000D01*
X191024000Y-55454000D02*
X196326000Y-55454000D01*
X190978000Y-55494000D02*
X196372000Y-55494000D01*
X190934000Y-55534000D02*
X196416000Y-55534000D01*
X190891000Y-55574000D02*
X196459000Y-55574000D01*
X190849000Y-55614000D02*
X196501000Y-55614000D01*
X190808000Y-55654000D02*
X196542000Y-55654000D01*
X190768000Y-55694000D02*
X196582000Y-55694000D01*
X190730000Y-55734000D02*
X196620000Y-55734000D01*
X190692000Y-55774000D02*
X196658000Y-55774000D01*
X194715000Y-55814000D02*
X196694000Y-55814000D01*
X190656000Y-55814000D02*
X192635000Y-55814000D01*
X194715000Y-55854000D02*
X196730000Y-55854000D01*
X190620000Y-55854000D02*
X192635000Y-55854000D01*
X194715000Y-55894000D02*
X196765000Y-55894000D01*
X190585000Y-55894000D02*
X192635000Y-55894000D01*
X194715000Y-55934000D02*
X196799000Y-55934000D01*
X190551000Y-55934000D02*
X192635000Y-55934000D01*
X194715000Y-55974000D02*
X196831000Y-55974000D01*
X190519000Y-55974000D02*
X192635000Y-55974000D01*
X194715000Y-56014000D02*
X196864000Y-56014000D01*
X190486000Y-56014000D02*
X192635000Y-56014000D01*
X194715000Y-56054000D02*
X196895000Y-56054000D01*
X190455000Y-56054000D02*
X192635000Y-56054000D01*
X194715000Y-56094000D02*
X196925000Y-56094000D01*
X190425000Y-56094000D02*
X192635000Y-56094000D01*
X194715000Y-56134000D02*
X196955000Y-56134000D01*
X190395000Y-56134000D02*
X192635000Y-56134000D01*
X194715000Y-56174000D02*
X196984000Y-56174000D01*
X190366000Y-56174000D02*
X192635000Y-56174000D01*
X194715000Y-56214000D02*
X197013000Y-56214000D01*
X190337000Y-56214000D02*
X192635000Y-56214000D01*
X194715000Y-56254000D02*
X197040000Y-56254000D01*
X190310000Y-56254000D02*
X192635000Y-56254000D01*
X194715000Y-56294000D02*
X197067000Y-56294000D01*
X190283000Y-56294000D02*
X192635000Y-56294000D01*
X194715000Y-56334000D02*
X197093000Y-56334000D01*
X190257000Y-56334000D02*
X192635000Y-56334000D01*
X194715000Y-56374000D02*
X197119000Y-56374000D01*
X190231000Y-56374000D02*
X192635000Y-56374000D01*
X194715000Y-56414000D02*
X197144000Y-56414000D01*
X190206000Y-56414000D02*
X192635000Y-56414000D01*
X194715000Y-56454000D02*
X197168000Y-56454000D01*
X190182000Y-56454000D02*
X192635000Y-56454000D01*
X194715000Y-56494000D02*
X197192000Y-56494000D01*
X190158000Y-56494000D02*
X192635000Y-56494000D01*
X194715000Y-56534000D02*
X197215000Y-56534000D01*
X190135000Y-56534000D02*
X192635000Y-56534000D01*
X194715000Y-56574000D02*
X197237000Y-56574000D01*
X190113000Y-56574000D02*
X192635000Y-56574000D01*
X194715000Y-56614000D02*
X197259000Y-56614000D01*
X190091000Y-56614000D02*
X192635000Y-56614000D01*
X194715000Y-56654000D02*
X197281000Y-56654000D01*
X190069000Y-56654000D02*
X192635000Y-56654000D01*
X194715000Y-56694000D02*
X197302000Y-56694000D01*
X190048000Y-56694000D02*
X192635000Y-56694000D01*
X194715000Y-56734000D02*
X197322000Y-56734000D01*
X190028000Y-56734000D02*
X192635000Y-56734000D01*
X194715000Y-56774000D02*
X197341000Y-56774000D01*
X190009000Y-56774000D02*
X192635000Y-56774000D01*
X194715000Y-56814000D02*
X197361000Y-56814000D01*
X189989000Y-56814000D02*
X192635000Y-56814000D01*
X194715000Y-56854000D02*
X197379000Y-56854000D01*
X189971000Y-56854000D02*
X192635000Y-56854000D01*
X194715000Y-56894000D02*
X197397000Y-56894000D01*
X189953000Y-56894000D02*
X192635000Y-56894000D01*
X194715000Y-56934000D02*
X197415000Y-56934000D01*
X189935000Y-56934000D02*
X192635000Y-56934000D01*
X194715000Y-56974000D02*
X197432000Y-56974000D01*
X189918000Y-56974000D02*
X192635000Y-56974000D01*
X194715000Y-57014000D02*
X197449000Y-57014000D01*
X189901000Y-57014000D02*
X192635000Y-57014000D01*
X194715000Y-57054000D02*
X197465000Y-57054000D01*
X189885000Y-57054000D02*
X192635000Y-57054000D01*
X194715000Y-57094000D02*
X197480000Y-57094000D01*
X189870000Y-57094000D02*
X192635000Y-57094000D01*
X194715000Y-57134000D02*
X197496000Y-57134000D01*
X189854000Y-57134000D02*
X192635000Y-57134000D01*
X194715000Y-57174000D02*
X197510000Y-57174000D01*
X189840000Y-57174000D02*
X192635000Y-57174000D01*
X194715000Y-57214000D02*
X197525000Y-57214000D01*
X189825000Y-57214000D02*
X192635000Y-57214000D01*
X194715000Y-57254000D02*
X197538000Y-57254000D01*
X189812000Y-57254000D02*
X192635000Y-57254000D01*
X194715000Y-57294000D02*
X197552000Y-57294000D01*
X189798000Y-57294000D02*
X192635000Y-57294000D01*
X194715000Y-57334000D02*
X197564000Y-57334000D01*
X189786000Y-57334000D02*
X192635000Y-57334000D01*
X194715000Y-57374000D02*
X197577000Y-57374000D01*
X189773000Y-57374000D02*
X192635000Y-57374000D01*
X194715000Y-57414000D02*
X197589000Y-57414000D01*
X189761000Y-57414000D02*
X192635000Y-57414000D01*
X194715000Y-57454000D02*
X197600000Y-57454000D01*
X189750000Y-57454000D02*
X192635000Y-57454000D01*
X194715000Y-57494000D02*
X197611000Y-57494000D01*
X189739000Y-57494000D02*
X192635000Y-57494000D01*
X194715000Y-57534000D02*
X197622000Y-57534000D01*
X189728000Y-57534000D02*
X192635000Y-57534000D01*
X194715000Y-57574000D02*
X197632000Y-57574000D01*
X189718000Y-57574000D02*
X192635000Y-57574000D01*
X194715000Y-57614000D02*
X197642000Y-57614000D01*
X189708000Y-57614000D02*
X192635000Y-57614000D01*
X194715000Y-57654000D02*
X197651000Y-57654000D01*
X189699000Y-57654000D02*
X192635000Y-57654000D01*
X194715000Y-57694000D02*
X197660000Y-57694000D01*
X189690000Y-57694000D02*
X192635000Y-57694000D01*
X194715000Y-57734000D02*
X197669000Y-57734000D01*
X189681000Y-57734000D02*
X192635000Y-57734000D01*
X194715000Y-57774000D02*
X197677000Y-57774000D01*
X189673000Y-57774000D02*
X192635000Y-57774000D01*
X194715000Y-57814000D02*
X197685000Y-57814000D01*
X189665000Y-57814000D02*
X192635000Y-57814000D01*
X194715000Y-57854000D02*
X197692000Y-57854000D01*
X189658000Y-57854000D02*
X192635000Y-57854000D01*
X189651000Y-57895000D02*
X197699000Y-57895000D01*
X189645000Y-57935000D02*
X197705000Y-57935000D01*
X189638000Y-57975000D02*
X197712000Y-57975000D01*
X189633000Y-58015000D02*
X197717000Y-58015000D01*
X189627000Y-58055000D02*
X197723000Y-58055000D01*
X189623000Y-58095000D02*
X197727000Y-58095000D01*
X189618000Y-58135000D02*
X197732000Y-58135000D01*
X189614000Y-58175000D02*
X197736000Y-58175000D01*
X189610000Y-58215000D02*
X197740000Y-58215000D01*
X189607000Y-58255000D02*
X197743000Y-58255000D01*
X189604000Y-58295000D02*
X197746000Y-58295000D01*
X189601000Y-58335000D02*
X197749000Y-58335000D01*
X189599000Y-58375000D02*
X197751000Y-58375000D01*
X189598000Y-58415000D02*
X197752000Y-58415000D01*
X189596000Y-58455000D02*
X197754000Y-58455000D01*
X189595000Y-58495000D02*
X197755000Y-58495000D01*
X189595000Y-58535000D02*
X197755000Y-58535000D01*
X189595000Y-58575000D02*
X197755000Y-58575000D01*
X197795000Y-58575000D02*
G75*
G03*
X197795000Y-58575000I-4120000J0D01*
G01*
%TO.C,J10*%
D16*
X105235476Y-97032380D02*
X105235476Y-97746666D01*
X105187857Y-97889523D01*
X105092619Y-97984761D01*
X104949761Y-98032380D01*
X104854523Y-98032380D01*
X106235476Y-98032380D02*
X105664047Y-98032380D01*
X105949761Y-98032380D02*
X105949761Y-97032380D01*
X105854523Y-97175238D01*
X105759285Y-97270476D01*
X105664047Y-97318095D01*
X106854523Y-97032380D02*
X106949761Y-97032380D01*
X107045000Y-97080000D01*
X107092619Y-97127619D01*
X107140238Y-97222857D01*
X107187857Y-97413333D01*
X107187857Y-97651428D01*
X107140238Y-97841904D01*
X107092619Y-97937142D01*
X107045000Y-97984761D01*
X106949761Y-98032380D01*
X106854523Y-98032380D01*
X106759285Y-97984761D01*
X106711666Y-97937142D01*
X106664047Y-97841904D01*
X106616428Y-97651428D01*
X106616428Y-97413333D01*
X106664047Y-97222857D01*
X106711666Y-97127619D01*
X106759285Y-97080000D01*
X106854523Y-97032380D01*
%TO.C,J9*%
X198421666Y-134707380D02*
X198421666Y-135421666D01*
X198374047Y-135564523D01*
X198278809Y-135659761D01*
X198135952Y-135707380D01*
X198040714Y-135707380D01*
X198945476Y-135707380D02*
X199135952Y-135707380D01*
X199231190Y-135659761D01*
X199278809Y-135612142D01*
X199374047Y-135469285D01*
X199421666Y-135278809D01*
X199421666Y-134897857D01*
X199374047Y-134802619D01*
X199326428Y-134755000D01*
X199231190Y-134707380D01*
X199040714Y-134707380D01*
X198945476Y-134755000D01*
X198897857Y-134802619D01*
X198850238Y-134897857D01*
X198850238Y-135135952D01*
X198897857Y-135231190D01*
X198945476Y-135278809D01*
X199040714Y-135326428D01*
X199231190Y-135326428D01*
X199326428Y-135278809D01*
X199374047Y-135231190D01*
X199421666Y-135135952D01*
%TO.C,U9*%
D17*
X180657380Y-127008523D02*
X180657380Y-128036619D01*
X180717857Y-128157571D01*
X180778333Y-128218047D01*
X180899285Y-128278523D01*
X181141190Y-128278523D01*
X181262142Y-128218047D01*
X181322619Y-128157571D01*
X181383095Y-128036619D01*
X181383095Y-127008523D01*
X182048333Y-128278523D02*
X182290238Y-128278523D01*
X182411190Y-128218047D01*
X182471666Y-128157571D01*
X182592619Y-127976142D01*
X182653095Y-127734238D01*
X182653095Y-127250428D01*
X182592619Y-127129476D01*
X182532142Y-127069000D01*
X182411190Y-127008523D01*
X182169285Y-127008523D01*
X182048333Y-127069000D01*
X181987857Y-127129476D01*
X181927380Y-127250428D01*
X181927380Y-127552809D01*
X181987857Y-127673761D01*
X182048333Y-127734238D01*
X182169285Y-127794714D01*
X182411190Y-127794714D01*
X182532142Y-127734238D01*
X182592619Y-127673761D01*
X182653095Y-127552809D01*
%TO.C,U8*%
X180657380Y-71763523D02*
X180657380Y-72791619D01*
X180717857Y-72912571D01*
X180778333Y-72973047D01*
X180899285Y-73033523D01*
X181141190Y-73033523D01*
X181262142Y-72973047D01*
X181322619Y-72912571D01*
X181383095Y-72791619D01*
X181383095Y-71763523D01*
X182169285Y-72307809D02*
X182048333Y-72247333D01*
X181987857Y-72186857D01*
X181927380Y-72065904D01*
X181927380Y-72005428D01*
X181987857Y-71884476D01*
X182048333Y-71824000D01*
X182169285Y-71763523D01*
X182411190Y-71763523D01*
X182532142Y-71824000D01*
X182592619Y-71884476D01*
X182653095Y-72005428D01*
X182653095Y-72065904D01*
X182592619Y-72186857D01*
X182532142Y-72247333D01*
X182411190Y-72307809D01*
X182169285Y-72307809D01*
X182048333Y-72368285D01*
X181987857Y-72428761D01*
X181927380Y-72549714D01*
X181927380Y-72791619D01*
X181987857Y-72912571D01*
X182048333Y-72973047D01*
X182169285Y-73033523D01*
X182411190Y-73033523D01*
X182532142Y-72973047D01*
X182592619Y-72912571D01*
X182653095Y-72791619D01*
X182653095Y-72549714D01*
X182592619Y-72428761D01*
X182532142Y-72368285D01*
X182411190Y-72307809D01*
%TO.C,U7*%
X180657380Y-99068523D02*
X180657380Y-100096619D01*
X180717857Y-100217571D01*
X180778333Y-100278047D01*
X180899285Y-100338523D01*
X181141190Y-100338523D01*
X181262142Y-100278047D01*
X181322619Y-100217571D01*
X181383095Y-100096619D01*
X181383095Y-99068523D01*
X181866904Y-99068523D02*
X182713571Y-99068523D01*
X182169285Y-100338523D01*
%TO.C,U4*%
D16*
X131092380Y-109346904D02*
X131901904Y-109346904D01*
X131997142Y-109299285D01*
X132044761Y-109251666D01*
X132092380Y-109156428D01*
X132092380Y-108965952D01*
X132044761Y-108870714D01*
X131997142Y-108823095D01*
X131901904Y-108775476D01*
X131092380Y-108775476D01*
X131425714Y-107870714D02*
X132092380Y-107870714D01*
X131044761Y-108108809D02*
X131759047Y-108346904D01*
X131759047Y-107727857D01*
%TO.C,F3*%
X159353571Y-128643333D02*
X159353571Y-128976666D01*
X159877380Y-128976666D02*
X158877380Y-128976666D01*
X158877380Y-128500476D01*
X158877380Y-128214761D02*
X158877380Y-127595714D01*
X159258333Y-127929047D01*
X159258333Y-127786190D01*
X159305952Y-127690952D01*
X159353571Y-127643333D01*
X159448809Y-127595714D01*
X159686904Y-127595714D01*
X159782142Y-127643333D01*
X159829761Y-127690952D01*
X159877380Y-127786190D01*
X159877380Y-128071904D01*
X159829761Y-128167142D01*
X159782142Y-128214761D01*
%TO.C,F2*%
X164353571Y-100703333D02*
X164353571Y-101036666D01*
X164877380Y-101036666D02*
X163877380Y-101036666D01*
X163877380Y-100560476D01*
X163972619Y-100227142D02*
X163925000Y-100179523D01*
X163877380Y-100084285D01*
X163877380Y-99846190D01*
X163925000Y-99750952D01*
X163972619Y-99703333D01*
X164067857Y-99655714D01*
X164163095Y-99655714D01*
X164305952Y-99703333D01*
X164877380Y-100274761D01*
X164877380Y-99655714D01*
%TO.C,F1*%
X164353571Y-73318333D02*
X164353571Y-73651666D01*
X164877380Y-73651666D02*
X163877380Y-73651666D01*
X163877380Y-73175476D01*
X164877380Y-72270714D02*
X164877380Y-72842142D01*
X164877380Y-72556428D02*
X163877380Y-72556428D01*
X164020238Y-72651666D01*
X164115476Y-72746904D01*
X164163095Y-72842142D01*
%TO.C,U6*%
X98298095Y-90047380D02*
X98298095Y-90856904D01*
X98345714Y-90952142D01*
X98393333Y-90999761D01*
X98488571Y-91047380D01*
X98679047Y-91047380D01*
X98774285Y-90999761D01*
X98821904Y-90952142D01*
X98869523Y-90856904D01*
X98869523Y-90047380D01*
X99774285Y-90047380D02*
X99583809Y-90047380D01*
X99488571Y-90095000D01*
X99440952Y-90142619D01*
X99345714Y-90285476D01*
X99298095Y-90475952D01*
X99298095Y-90856904D01*
X99345714Y-90952142D01*
X99393333Y-90999761D01*
X99488571Y-91047380D01*
X99679047Y-91047380D01*
X99774285Y-90999761D01*
X99821904Y-90952142D01*
X99869523Y-90856904D01*
X99869523Y-90618809D01*
X99821904Y-90523571D01*
X99774285Y-90475952D01*
X99679047Y-90428333D01*
X99488571Y-90428333D01*
X99393333Y-90475952D01*
X99345714Y-90523571D01*
X99298095Y-90618809D01*
%TO.C,U5*%
X126027380Y-87756904D02*
X126836904Y-87756904D01*
X126932142Y-87709285D01*
X126979761Y-87661666D01*
X127027380Y-87566428D01*
X127027380Y-87375952D01*
X126979761Y-87280714D01*
X126932142Y-87233095D01*
X126836904Y-87185476D01*
X126027380Y-87185476D01*
X126027380Y-86233095D02*
X126027380Y-86709285D01*
X126503571Y-86756904D01*
X126455952Y-86709285D01*
X126408333Y-86614047D01*
X126408333Y-86375952D01*
X126455952Y-86280714D01*
X126503571Y-86233095D01*
X126598809Y-86185476D01*
X126836904Y-86185476D01*
X126932142Y-86233095D01*
X126979761Y-86280714D01*
X127027380Y-86375952D01*
X127027380Y-86614047D01*
X126979761Y-86709285D01*
X126932142Y-86756904D01*
%TO.C,U3*%
X180848095Y-131357380D02*
X180848095Y-132166904D01*
X180895714Y-132262142D01*
X180943333Y-132309761D01*
X181038571Y-132357380D01*
X181229047Y-132357380D01*
X181324285Y-132309761D01*
X181371904Y-132262142D01*
X181419523Y-132166904D01*
X181419523Y-131357380D01*
X181800476Y-131357380D02*
X182419523Y-131357380D01*
X182086190Y-131738333D01*
X182229047Y-131738333D01*
X182324285Y-131785952D01*
X182371904Y-131833571D01*
X182419523Y-131928809D01*
X182419523Y-132166904D01*
X182371904Y-132262142D01*
X182324285Y-132309761D01*
X182229047Y-132357380D01*
X181943333Y-132357380D01*
X181848095Y-132309761D01*
X181800476Y-132262142D01*
%TO.C,U2*%
X180848095Y-103417380D02*
X180848095Y-104226904D01*
X180895714Y-104322142D01*
X180943333Y-104369761D01*
X181038571Y-104417380D01*
X181229047Y-104417380D01*
X181324285Y-104369761D01*
X181371904Y-104322142D01*
X181419523Y-104226904D01*
X181419523Y-103417380D01*
X181848095Y-103512619D02*
X181895714Y-103465000D01*
X181990952Y-103417380D01*
X182229047Y-103417380D01*
X182324285Y-103465000D01*
X182371904Y-103512619D01*
X182419523Y-103607857D01*
X182419523Y-103703095D01*
X182371904Y-103845952D01*
X181800476Y-104417380D01*
X182419523Y-104417380D01*
%TO.C,U1*%
X180848095Y-76112380D02*
X180848095Y-76921904D01*
X180895714Y-77017142D01*
X180943333Y-77064761D01*
X181038571Y-77112380D01*
X181229047Y-77112380D01*
X181324285Y-77064761D01*
X181371904Y-77017142D01*
X181419523Y-76921904D01*
X181419523Y-76112380D01*
X182419523Y-77112380D02*
X181848095Y-77112380D01*
X182133809Y-77112380D02*
X182133809Y-76112380D01*
X182038571Y-76255238D01*
X181943333Y-76350476D01*
X181848095Y-76398095D01*
%TO.C,R9*%
X88717380Y-85891666D02*
X88241190Y-86225000D01*
X88717380Y-86463095D02*
X87717380Y-86463095D01*
X87717380Y-86082142D01*
X87765000Y-85986904D01*
X87812619Y-85939285D01*
X87907857Y-85891666D01*
X88050714Y-85891666D01*
X88145952Y-85939285D01*
X88193571Y-85986904D01*
X88241190Y-86082142D01*
X88241190Y-86463095D01*
X88717380Y-85415476D02*
X88717380Y-85225000D01*
X88669761Y-85129761D01*
X88622142Y-85082142D01*
X88479285Y-84986904D01*
X88288809Y-84939285D01*
X87907857Y-84939285D01*
X87812619Y-84986904D01*
X87765000Y-85034523D01*
X87717380Y-85129761D01*
X87717380Y-85320238D01*
X87765000Y-85415476D01*
X87812619Y-85463095D01*
X87907857Y-85510714D01*
X88145952Y-85510714D01*
X88241190Y-85463095D01*
X88288809Y-85415476D01*
X88336428Y-85320238D01*
X88336428Y-85129761D01*
X88288809Y-85034523D01*
X88241190Y-84986904D01*
X88145952Y-84939285D01*
%TO.C,R8*%
X135072380Y-76366666D02*
X134596190Y-76700000D01*
X135072380Y-76938095D02*
X134072380Y-76938095D01*
X134072380Y-76557142D01*
X134120000Y-76461904D01*
X134167619Y-76414285D01*
X134262857Y-76366666D01*
X134405714Y-76366666D01*
X134500952Y-76414285D01*
X134548571Y-76461904D01*
X134596190Y-76557142D01*
X134596190Y-76938095D01*
X134500952Y-75795238D02*
X134453333Y-75890476D01*
X134405714Y-75938095D01*
X134310476Y-75985714D01*
X134262857Y-75985714D01*
X134167619Y-75938095D01*
X134120000Y-75890476D01*
X134072380Y-75795238D01*
X134072380Y-75604761D01*
X134120000Y-75509523D01*
X134167619Y-75461904D01*
X134262857Y-75414285D01*
X134310476Y-75414285D01*
X134405714Y-75461904D01*
X134453333Y-75509523D01*
X134500952Y-75604761D01*
X134500952Y-75795238D01*
X134548571Y-75890476D01*
X134596190Y-75938095D01*
X134691428Y-75985714D01*
X134881904Y-75985714D01*
X134977142Y-75938095D01*
X135024761Y-75890476D01*
X135072380Y-75795238D01*
X135072380Y-75604761D01*
X135024761Y-75509523D01*
X134977142Y-75461904D01*
X134881904Y-75414285D01*
X134691428Y-75414285D01*
X134596190Y-75461904D01*
X134548571Y-75509523D01*
X134500952Y-75604761D01*
%TO.C,R7*%
X154757380Y-71286666D02*
X154281190Y-71620000D01*
X154757380Y-71858095D02*
X153757380Y-71858095D01*
X153757380Y-71477142D01*
X153805000Y-71381904D01*
X153852619Y-71334285D01*
X153947857Y-71286666D01*
X154090714Y-71286666D01*
X154185952Y-71334285D01*
X154233571Y-71381904D01*
X154281190Y-71477142D01*
X154281190Y-71858095D01*
X153757380Y-70953333D02*
X153757380Y-70286666D01*
X154757380Y-70715238D01*
%TO.C,R6*%
X113467380Y-84621666D02*
X112991190Y-84955000D01*
X113467380Y-85193095D02*
X112467380Y-85193095D01*
X112467380Y-84812142D01*
X112515000Y-84716904D01*
X112562619Y-84669285D01*
X112657857Y-84621666D01*
X112800714Y-84621666D01*
X112895952Y-84669285D01*
X112943571Y-84716904D01*
X112991190Y-84812142D01*
X112991190Y-85193095D01*
X112467380Y-83764523D02*
X112467380Y-83955000D01*
X112515000Y-84050238D01*
X112562619Y-84097857D01*
X112705476Y-84193095D01*
X112895952Y-84240714D01*
X113276904Y-84240714D01*
X113372142Y-84193095D01*
X113419761Y-84145476D01*
X113467380Y-84050238D01*
X113467380Y-83859761D01*
X113419761Y-83764523D01*
X113372142Y-83716904D01*
X113276904Y-83669285D01*
X113038809Y-83669285D01*
X112943571Y-83716904D01*
X112895952Y-83764523D01*
X112848333Y-83859761D01*
X112848333Y-84050238D01*
X112895952Y-84145476D01*
X112943571Y-84193095D01*
X113038809Y-84240714D01*
%TO.C,R5*%
X121118333Y-91892380D02*
X120785000Y-91416190D01*
X120546904Y-91892380D02*
X120546904Y-90892380D01*
X120927857Y-90892380D01*
X121023095Y-90940000D01*
X121070714Y-90987619D01*
X121118333Y-91082857D01*
X121118333Y-91225714D01*
X121070714Y-91320952D01*
X121023095Y-91368571D01*
X120927857Y-91416190D01*
X120546904Y-91416190D01*
X122023095Y-90892380D02*
X121546904Y-90892380D01*
X121499285Y-91368571D01*
X121546904Y-91320952D01*
X121642142Y-91273333D01*
X121880238Y-91273333D01*
X121975476Y-91320952D01*
X122023095Y-91368571D01*
X122070714Y-91463809D01*
X122070714Y-91701904D01*
X122023095Y-91797142D01*
X121975476Y-91844761D01*
X121880238Y-91892380D01*
X121642142Y-91892380D01*
X121546904Y-91844761D01*
X121499285Y-91797142D01*
%TO.C,R4*%
X143978333Y-77287380D02*
X143645000Y-76811190D01*
X143406904Y-77287380D02*
X143406904Y-76287380D01*
X143787857Y-76287380D01*
X143883095Y-76335000D01*
X143930714Y-76382619D01*
X143978333Y-76477857D01*
X143978333Y-76620714D01*
X143930714Y-76715952D01*
X143883095Y-76763571D01*
X143787857Y-76811190D01*
X143406904Y-76811190D01*
X144835476Y-76620714D02*
X144835476Y-77287380D01*
X144597380Y-76239761D02*
X144359285Y-76954047D01*
X144978333Y-76954047D01*
%TO.C,R3*%
X141438333Y-93782380D02*
X141105000Y-93306190D01*
X140866904Y-93782380D02*
X140866904Y-92782380D01*
X141247857Y-92782380D01*
X141343095Y-92830000D01*
X141390714Y-92877619D01*
X141438333Y-92972857D01*
X141438333Y-93115714D01*
X141390714Y-93210952D01*
X141343095Y-93258571D01*
X141247857Y-93306190D01*
X140866904Y-93306190D01*
X141771666Y-92782380D02*
X142390714Y-92782380D01*
X142057380Y-93163333D01*
X142200238Y-93163333D01*
X142295476Y-93210952D01*
X142343095Y-93258571D01*
X142390714Y-93353809D01*
X142390714Y-93591904D01*
X142343095Y-93687142D01*
X142295476Y-93734761D01*
X142200238Y-93782380D01*
X141914523Y-93782380D01*
X141819285Y-93734761D01*
X141771666Y-93687142D01*
%TO.C,R2*%
X131278333Y-77287380D02*
X130945000Y-76811190D01*
X130706904Y-77287380D02*
X130706904Y-76287380D01*
X131087857Y-76287380D01*
X131183095Y-76335000D01*
X131230714Y-76382619D01*
X131278333Y-76477857D01*
X131278333Y-76620714D01*
X131230714Y-76715952D01*
X131183095Y-76763571D01*
X131087857Y-76811190D01*
X130706904Y-76811190D01*
X131659285Y-76382619D02*
X131706904Y-76335000D01*
X131802142Y-76287380D01*
X132040238Y-76287380D01*
X132135476Y-76335000D01*
X132183095Y-76382619D01*
X132230714Y-76477857D01*
X132230714Y-76573095D01*
X132183095Y-76715952D01*
X131611666Y-77287380D01*
X132230714Y-77287380D01*
%TO.C,R1*%
X203668333Y-92512380D02*
X203335000Y-92036190D01*
X203096904Y-92512380D02*
X203096904Y-91512380D01*
X203477857Y-91512380D01*
X203573095Y-91560000D01*
X203620714Y-91607619D01*
X203668333Y-91702857D01*
X203668333Y-91845714D01*
X203620714Y-91940952D01*
X203573095Y-91988571D01*
X203477857Y-92036190D01*
X203096904Y-92036190D01*
X204620714Y-92512380D02*
X204049285Y-92512380D01*
X204335000Y-92512380D02*
X204335000Y-91512380D01*
X204239761Y-91655238D01*
X204144523Y-91750476D01*
X204049285Y-91798095D01*
%TO.C,J8*%
D17*
X141491666Y-60491523D02*
X141491666Y-61398666D01*
X141431190Y-61580095D01*
X141310238Y-61701047D01*
X141128809Y-61761523D01*
X141007857Y-61761523D01*
X142277857Y-61035809D02*
X142156904Y-60975333D01*
X142096428Y-60914857D01*
X142035952Y-60793904D01*
X142035952Y-60733428D01*
X142096428Y-60612476D01*
X142156904Y-60552000D01*
X142277857Y-60491523D01*
X142519761Y-60491523D01*
X142640714Y-60552000D01*
X142701190Y-60612476D01*
X142761666Y-60733428D01*
X142761666Y-60793904D01*
X142701190Y-60914857D01*
X142640714Y-60975333D01*
X142519761Y-61035809D01*
X142277857Y-61035809D01*
X142156904Y-61096285D01*
X142096428Y-61156761D01*
X142035952Y-61277714D01*
X142035952Y-61519619D01*
X142096428Y-61640571D01*
X142156904Y-61701047D01*
X142277857Y-61761523D01*
X142519761Y-61761523D01*
X142640714Y-61701047D01*
X142701190Y-61640571D01*
X142761666Y-61519619D01*
X142761666Y-61277714D01*
X142701190Y-61156761D01*
X142640714Y-61096285D01*
X142519761Y-61035809D01*
%TO.C,J7*%
X114821666Y-60491523D02*
X114821666Y-61398666D01*
X114761190Y-61580095D01*
X114640238Y-61701047D01*
X114458809Y-61761523D01*
X114337857Y-61761523D01*
X115305476Y-60491523D02*
X116152142Y-60491523D01*
X115607857Y-61761523D01*
%TO.C,J6*%
D16*
X101262380Y-124158333D02*
X101976666Y-124158333D01*
X102119523Y-124205952D01*
X102214761Y-124301190D01*
X102262380Y-124444047D01*
X102262380Y-124539285D01*
X101262380Y-123253571D02*
X101262380Y-123444047D01*
X101310000Y-123539285D01*
X101357619Y-123586904D01*
X101500476Y-123682142D01*
X101690952Y-123729761D01*
X102071904Y-123729761D01*
X102167142Y-123682142D01*
X102214761Y-123634523D01*
X102262380Y-123539285D01*
X102262380Y-123348809D01*
X102214761Y-123253571D01*
X102167142Y-123205952D01*
X102071904Y-123158333D01*
X101833809Y-123158333D01*
X101738571Y-123205952D01*
X101690952Y-123253571D01*
X101643333Y-123348809D01*
X101643333Y-123539285D01*
X101690952Y-123634523D01*
X101738571Y-123682142D01*
X101833809Y-123729761D01*
%TO.C,J5*%
X164131666Y-134707380D02*
X164131666Y-135421666D01*
X164084047Y-135564523D01*
X163988809Y-135659761D01*
X163845952Y-135707380D01*
X163750714Y-135707380D01*
X165084047Y-134707380D02*
X164607857Y-134707380D01*
X164560238Y-135183571D01*
X164607857Y-135135952D01*
X164703095Y-135088333D01*
X164941190Y-135088333D01*
X165036428Y-135135952D01*
X165084047Y-135183571D01*
X165131666Y-135278809D01*
X165131666Y-135516904D01*
X165084047Y-135612142D01*
X165036428Y-135659761D01*
X164941190Y-135707380D01*
X164703095Y-135707380D01*
X164607857Y-135659761D01*
X164560238Y-135612142D01*
%TO.C,J4*%
X101262380Y-139398333D02*
X101976666Y-139398333D01*
X102119523Y-139445952D01*
X102214761Y-139541190D01*
X102262380Y-139684047D01*
X102262380Y-139779285D01*
X101595714Y-138493571D02*
X102262380Y-138493571D01*
X101214761Y-138731666D02*
X101929047Y-138969761D01*
X101929047Y-138350714D01*
%TO.C,J3*%
X101262380Y-134318333D02*
X101976666Y-134318333D01*
X102119523Y-134365952D01*
X102214761Y-134461190D01*
X102262380Y-134604047D01*
X102262380Y-134699285D01*
X101262380Y-133937380D02*
X101262380Y-133318333D01*
X101643333Y-133651666D01*
X101643333Y-133508809D01*
X101690952Y-133413571D01*
X101738571Y-133365952D01*
X101833809Y-133318333D01*
X102071904Y-133318333D01*
X102167142Y-133365952D01*
X102214761Y-133413571D01*
X102262380Y-133508809D01*
X102262380Y-133794523D01*
X102214761Y-133889761D01*
X102167142Y-133937380D01*
%TO.C,J2*%
X211756666Y-88987380D02*
X211756666Y-89701666D01*
X211709047Y-89844523D01*
X211613809Y-89939761D01*
X211470952Y-89987380D01*
X211375714Y-89987380D01*
X212185238Y-89082619D02*
X212232857Y-89035000D01*
X212328095Y-88987380D01*
X212566190Y-88987380D01*
X212661428Y-89035000D01*
X212709047Y-89082619D01*
X212756666Y-89177857D01*
X212756666Y-89273095D01*
X212709047Y-89415952D01*
X212137619Y-89987380D01*
X212756666Y-89987380D01*
%TO.C,J1*%
X101262380Y-129238333D02*
X101976666Y-129238333D01*
X102119523Y-129285952D01*
X102214761Y-129381190D01*
X102262380Y-129524047D01*
X102262380Y-129619285D01*
X102262380Y-128238333D02*
X102262380Y-128809761D01*
X102262380Y-128524047D02*
X101262380Y-128524047D01*
X101405238Y-128619285D01*
X101500476Y-128714523D01*
X101548095Y-128809761D01*
%TO.C,D9*%
X106917380Y-85193095D02*
X105917380Y-85193095D01*
X105917380Y-84955000D01*
X105965000Y-84812142D01*
X106060238Y-84716904D01*
X106155476Y-84669285D01*
X106345952Y-84621666D01*
X106488809Y-84621666D01*
X106679285Y-84669285D01*
X106774523Y-84716904D01*
X106869761Y-84812142D01*
X106917380Y-84955000D01*
X106917380Y-85193095D01*
X106917380Y-84145476D02*
X106917380Y-83955000D01*
X106869761Y-83859761D01*
X106822142Y-83812142D01*
X106679285Y-83716904D01*
X106488809Y-83669285D01*
X106107857Y-83669285D01*
X106012619Y-83716904D01*
X105965000Y-83764523D01*
X105917380Y-83859761D01*
X105917380Y-84050238D01*
X105965000Y-84145476D01*
X106012619Y-84193095D01*
X106107857Y-84240714D01*
X106345952Y-84240714D01*
X106441190Y-84193095D01*
X106488809Y-84145476D01*
X106536428Y-84050238D01*
X106536428Y-83859761D01*
X106488809Y-83764523D01*
X106441190Y-83716904D01*
X106345952Y-83669285D01*
%TO.C,D8*%
X203096904Y-98877380D02*
X203096904Y-97877380D01*
X203335000Y-97877380D01*
X203477857Y-97925000D01*
X203573095Y-98020238D01*
X203620714Y-98115476D01*
X203668333Y-98305952D01*
X203668333Y-98448809D01*
X203620714Y-98639285D01*
X203573095Y-98734523D01*
X203477857Y-98829761D01*
X203335000Y-98877380D01*
X203096904Y-98877380D01*
X204239761Y-98305952D02*
X204144523Y-98258333D01*
X204096904Y-98210714D01*
X204049285Y-98115476D01*
X204049285Y-98067857D01*
X204096904Y-97972619D01*
X204144523Y-97925000D01*
X204239761Y-97877380D01*
X204430238Y-97877380D01*
X204525476Y-97925000D01*
X204573095Y-97972619D01*
X204620714Y-98067857D01*
X204620714Y-98115476D01*
X204573095Y-98210714D01*
X204525476Y-98258333D01*
X204430238Y-98305952D01*
X204239761Y-98305952D01*
X204144523Y-98353571D01*
X204096904Y-98401190D01*
X204049285Y-98496428D01*
X204049285Y-98686904D01*
X204096904Y-98782142D01*
X204144523Y-98829761D01*
X204239761Y-98877380D01*
X204430238Y-98877380D01*
X204525476Y-98829761D01*
X204573095Y-98782142D01*
X204620714Y-98686904D01*
X204620714Y-98496428D01*
X204573095Y-98401190D01*
X204525476Y-98353571D01*
X204430238Y-98305952D01*
%TO.C,D7*%
X208176904Y-79192380D02*
X208176904Y-78192380D01*
X208415000Y-78192380D01*
X208557857Y-78240000D01*
X208653095Y-78335238D01*
X208700714Y-78430476D01*
X208748333Y-78620952D01*
X208748333Y-78763809D01*
X208700714Y-78954285D01*
X208653095Y-79049523D01*
X208557857Y-79144761D01*
X208415000Y-79192380D01*
X208176904Y-79192380D01*
X209081666Y-78192380D02*
X209748333Y-78192380D01*
X209319761Y-79192380D01*
%TO.C,D6*%
X208176904Y-113482380D02*
X208176904Y-112482380D01*
X208415000Y-112482380D01*
X208557857Y-112530000D01*
X208653095Y-112625238D01*
X208700714Y-112720476D01*
X208748333Y-112910952D01*
X208748333Y-113053809D01*
X208700714Y-113244285D01*
X208653095Y-113339523D01*
X208557857Y-113434761D01*
X208415000Y-113482380D01*
X208176904Y-113482380D01*
X209605476Y-112482380D02*
X209415000Y-112482380D01*
X209319761Y-112530000D01*
X209272142Y-112577619D01*
X209176904Y-112720476D01*
X209129285Y-112910952D01*
X209129285Y-113291904D01*
X209176904Y-113387142D01*
X209224523Y-113434761D01*
X209319761Y-113482380D01*
X209510238Y-113482380D01*
X209605476Y-113434761D01*
X209653095Y-113387142D01*
X209700714Y-113291904D01*
X209700714Y-113053809D01*
X209653095Y-112958571D01*
X209605476Y-112910952D01*
X209510238Y-112863333D01*
X209319761Y-112863333D01*
X209224523Y-112910952D01*
X209176904Y-112958571D01*
X209129285Y-113053809D01*
%TO.C,D5*%
X180871904Y-121102380D02*
X180871904Y-120102380D01*
X181110000Y-120102380D01*
X181252857Y-120150000D01*
X181348095Y-120245238D01*
X181395714Y-120340476D01*
X181443333Y-120530952D01*
X181443333Y-120673809D01*
X181395714Y-120864285D01*
X181348095Y-120959523D01*
X181252857Y-121054761D01*
X181110000Y-121102380D01*
X180871904Y-121102380D01*
X182348095Y-120102380D02*
X181871904Y-120102380D01*
X181824285Y-120578571D01*
X181871904Y-120530952D01*
X181967142Y-120483333D01*
X182205238Y-120483333D01*
X182300476Y-120530952D01*
X182348095Y-120578571D01*
X182395714Y-120673809D01*
X182395714Y-120911904D01*
X182348095Y-121007142D01*
X182300476Y-121054761D01*
X182205238Y-121102380D01*
X181967142Y-121102380D01*
X181871904Y-121054761D01*
X181824285Y-121007142D01*
%TO.C,D4*%
X180871904Y-93162380D02*
X180871904Y-92162380D01*
X181110000Y-92162380D01*
X181252857Y-92210000D01*
X181348095Y-92305238D01*
X181395714Y-92400476D01*
X181443333Y-92590952D01*
X181443333Y-92733809D01*
X181395714Y-92924285D01*
X181348095Y-93019523D01*
X181252857Y-93114761D01*
X181110000Y-93162380D01*
X180871904Y-93162380D01*
X182300476Y-92495714D02*
X182300476Y-93162380D01*
X182062380Y-92114761D02*
X181824285Y-92829047D01*
X182443333Y-92829047D01*
%TO.C,D3*%
X180871904Y-65857380D02*
X180871904Y-64857380D01*
X181110000Y-64857380D01*
X181252857Y-64905000D01*
X181348095Y-65000238D01*
X181395714Y-65095476D01*
X181443333Y-65285952D01*
X181443333Y-65428809D01*
X181395714Y-65619285D01*
X181348095Y-65714523D01*
X181252857Y-65809761D01*
X181110000Y-65857380D01*
X180871904Y-65857380D01*
X181776666Y-64857380D02*
X182395714Y-64857380D01*
X182062380Y-65238333D01*
X182205238Y-65238333D01*
X182300476Y-65285952D01*
X182348095Y-65333571D01*
X182395714Y-65428809D01*
X182395714Y-65666904D01*
X182348095Y-65762142D01*
X182300476Y-65809761D01*
X182205238Y-65857380D01*
X181919523Y-65857380D01*
X181824285Y-65809761D01*
X181776666Y-65762142D01*
%TO.C,D2*%
X208176904Y-84342380D02*
X208176904Y-83342380D01*
X208415000Y-83342380D01*
X208557857Y-83390000D01*
X208653095Y-83485238D01*
X208700714Y-83580476D01*
X208748333Y-83770952D01*
X208748333Y-83913809D01*
X208700714Y-84104285D01*
X208653095Y-84199523D01*
X208557857Y-84294761D01*
X208415000Y-84342380D01*
X208176904Y-84342380D01*
X209129285Y-83437619D02*
X209176904Y-83390000D01*
X209272142Y-83342380D01*
X209510238Y-83342380D01*
X209605476Y-83390000D01*
X209653095Y-83437619D01*
X209700714Y-83532857D01*
X209700714Y-83628095D01*
X209653095Y-83770952D01*
X209081666Y-84342380D01*
X209700714Y-84342380D01*
%TO.C,D1*%
X208176904Y-108472380D02*
X208176904Y-107472380D01*
X208415000Y-107472380D01*
X208557857Y-107520000D01*
X208653095Y-107615238D01*
X208700714Y-107710476D01*
X208748333Y-107900952D01*
X208748333Y-108043809D01*
X208700714Y-108234285D01*
X208653095Y-108329523D01*
X208557857Y-108424761D01*
X208415000Y-108472380D01*
X208176904Y-108472380D01*
X209700714Y-108472380D02*
X209129285Y-108472380D01*
X209415000Y-108472380D02*
X209415000Y-107472380D01*
X209319761Y-107615238D01*
X209224523Y-107710476D01*
X209129285Y-107758095D01*
%TO.C,C16*%
X121642142Y-87677857D02*
X121689761Y-87725476D01*
X121737380Y-87868333D01*
X121737380Y-87963571D01*
X121689761Y-88106428D01*
X121594523Y-88201666D01*
X121499285Y-88249285D01*
X121308809Y-88296904D01*
X121165952Y-88296904D01*
X120975476Y-88249285D01*
X120880238Y-88201666D01*
X120785000Y-88106428D01*
X120737380Y-87963571D01*
X120737380Y-87868333D01*
X120785000Y-87725476D01*
X120832619Y-87677857D01*
X121737380Y-86725476D02*
X121737380Y-87296904D01*
X121737380Y-87011190D02*
X120737380Y-87011190D01*
X120880238Y-87106428D01*
X120975476Y-87201666D01*
X121023095Y-87296904D01*
X120737380Y-85868333D02*
X120737380Y-86058809D01*
X120785000Y-86154047D01*
X120832619Y-86201666D01*
X120975476Y-86296904D01*
X121165952Y-86344523D01*
X121546904Y-86344523D01*
X121642142Y-86296904D01*
X121689761Y-86249285D01*
X121737380Y-86154047D01*
X121737380Y-85963571D01*
X121689761Y-85868333D01*
X121642142Y-85820714D01*
X121546904Y-85773095D01*
X121308809Y-85773095D01*
X121213571Y-85820714D01*
X121165952Y-85868333D01*
X121118333Y-85963571D01*
X121118333Y-86154047D01*
X121165952Y-86249285D01*
X121213571Y-86296904D01*
X121308809Y-86344523D01*
%TO.C,C15*%
X109252142Y-71817142D02*
X109204523Y-71864761D01*
X109061666Y-71912380D01*
X108966428Y-71912380D01*
X108823571Y-71864761D01*
X108728333Y-71769523D01*
X108680714Y-71674285D01*
X108633095Y-71483809D01*
X108633095Y-71340952D01*
X108680714Y-71150476D01*
X108728333Y-71055238D01*
X108823571Y-70960000D01*
X108966428Y-70912380D01*
X109061666Y-70912380D01*
X109204523Y-70960000D01*
X109252142Y-71007619D01*
X110204523Y-71912380D02*
X109633095Y-71912380D01*
X109918809Y-71912380D02*
X109918809Y-70912380D01*
X109823571Y-71055238D01*
X109728333Y-71150476D01*
X109633095Y-71198095D01*
X111109285Y-70912380D02*
X110633095Y-70912380D01*
X110585476Y-71388571D01*
X110633095Y-71340952D01*
X110728333Y-71293333D01*
X110966428Y-71293333D01*
X111061666Y-71340952D01*
X111109285Y-71388571D01*
X111156904Y-71483809D01*
X111156904Y-71721904D01*
X111109285Y-71817142D01*
X111061666Y-71864761D01*
X110966428Y-71912380D01*
X110728333Y-71912380D01*
X110633095Y-71864761D01*
X110585476Y-71817142D01*
%TO.C,C14*%
X98457142Y-93407142D02*
X98409523Y-93454761D01*
X98266666Y-93502380D01*
X98171428Y-93502380D01*
X98028571Y-93454761D01*
X97933333Y-93359523D01*
X97885714Y-93264285D01*
X97838095Y-93073809D01*
X97838095Y-92930952D01*
X97885714Y-92740476D01*
X97933333Y-92645238D01*
X98028571Y-92550000D01*
X98171428Y-92502380D01*
X98266666Y-92502380D01*
X98409523Y-92550000D01*
X98457142Y-92597619D01*
X99409523Y-93502380D02*
X98838095Y-93502380D01*
X99123809Y-93502380D02*
X99123809Y-92502380D01*
X99028571Y-92645238D01*
X98933333Y-92740476D01*
X98838095Y-92788095D01*
X100266666Y-92835714D02*
X100266666Y-93502380D01*
X100028571Y-92454761D02*
X99790476Y-93169047D01*
X100409523Y-93169047D01*
%TO.C,C13*%
X119332142Y-71817142D02*
X119284523Y-71864761D01*
X119141666Y-71912380D01*
X119046428Y-71912380D01*
X118903571Y-71864761D01*
X118808333Y-71769523D01*
X118760714Y-71674285D01*
X118713095Y-71483809D01*
X118713095Y-71340952D01*
X118760714Y-71150476D01*
X118808333Y-71055238D01*
X118903571Y-70960000D01*
X119046428Y-70912380D01*
X119141666Y-70912380D01*
X119284523Y-70960000D01*
X119332142Y-71007619D01*
X120284523Y-71912380D02*
X119713095Y-71912380D01*
X119998809Y-71912380D02*
X119998809Y-70912380D01*
X119903571Y-71055238D01*
X119808333Y-71150476D01*
X119713095Y-71198095D01*
X120617857Y-70912380D02*
X121236904Y-70912380D01*
X120903571Y-71293333D01*
X121046428Y-71293333D01*
X121141666Y-71340952D01*
X121189285Y-71388571D01*
X121236904Y-71483809D01*
X121236904Y-71721904D01*
X121189285Y-71817142D01*
X121141666Y-71864761D01*
X121046428Y-71912380D01*
X120760714Y-71912380D01*
X120665476Y-71864761D01*
X120617857Y-71817142D01*
%TO.C,C12*%
X176252142Y-114267857D02*
X176299761Y-114315476D01*
X176347380Y-114458333D01*
X176347380Y-114553571D01*
X176299761Y-114696428D01*
X176204523Y-114791666D01*
X176109285Y-114839285D01*
X175918809Y-114886904D01*
X175775952Y-114886904D01*
X175585476Y-114839285D01*
X175490238Y-114791666D01*
X175395000Y-114696428D01*
X175347380Y-114553571D01*
X175347380Y-114458333D01*
X175395000Y-114315476D01*
X175442619Y-114267857D01*
X176347380Y-113315476D02*
X176347380Y-113886904D01*
X176347380Y-113601190D02*
X175347380Y-113601190D01*
X175490238Y-113696428D01*
X175585476Y-113791666D01*
X175633095Y-113886904D01*
X175442619Y-112934523D02*
X175395000Y-112886904D01*
X175347380Y-112791666D01*
X175347380Y-112553571D01*
X175395000Y-112458333D01*
X175442619Y-112410714D01*
X175537857Y-112363095D01*
X175633095Y-112363095D01*
X175775952Y-112410714D01*
X176347380Y-112982142D01*
X176347380Y-112363095D01*
%TO.C,C11*%
X176252142Y-86327857D02*
X176299761Y-86375476D01*
X176347380Y-86518333D01*
X176347380Y-86613571D01*
X176299761Y-86756428D01*
X176204523Y-86851666D01*
X176109285Y-86899285D01*
X175918809Y-86946904D01*
X175775952Y-86946904D01*
X175585476Y-86899285D01*
X175490238Y-86851666D01*
X175395000Y-86756428D01*
X175347380Y-86613571D01*
X175347380Y-86518333D01*
X175395000Y-86375476D01*
X175442619Y-86327857D01*
X176347380Y-85375476D02*
X176347380Y-85946904D01*
X176347380Y-85661190D02*
X175347380Y-85661190D01*
X175490238Y-85756428D01*
X175585476Y-85851666D01*
X175633095Y-85946904D01*
X176347380Y-84423095D02*
X176347380Y-84994523D01*
X176347380Y-84708809D02*
X175347380Y-84708809D01*
X175490238Y-84804047D01*
X175585476Y-84899285D01*
X175633095Y-84994523D01*
%TO.C,C10*%
X176252142Y-59062857D02*
X176299761Y-59110476D01*
X176347380Y-59253333D01*
X176347380Y-59348571D01*
X176299761Y-59491428D01*
X176204523Y-59586666D01*
X176109285Y-59634285D01*
X175918809Y-59681904D01*
X175775952Y-59681904D01*
X175585476Y-59634285D01*
X175490238Y-59586666D01*
X175395000Y-59491428D01*
X175347380Y-59348571D01*
X175347380Y-59253333D01*
X175395000Y-59110476D01*
X175442619Y-59062857D01*
X176347380Y-58110476D02*
X176347380Y-58681904D01*
X176347380Y-58396190D02*
X175347380Y-58396190D01*
X175490238Y-58491428D01*
X175585476Y-58586666D01*
X175633095Y-58681904D01*
X175347380Y-57491428D02*
X175347380Y-57396190D01*
X175395000Y-57300952D01*
X175442619Y-57253333D01*
X175537857Y-57205714D01*
X175728333Y-57158095D01*
X175966428Y-57158095D01*
X176156904Y-57205714D01*
X176252142Y-57253333D01*
X176299761Y-57300952D01*
X176347380Y-57396190D01*
X176347380Y-57491428D01*
X176299761Y-57586666D01*
X176252142Y-57634285D01*
X176156904Y-57681904D01*
X175966428Y-57729523D01*
X175728333Y-57729523D01*
X175537857Y-57681904D01*
X175442619Y-57634285D01*
X175395000Y-57586666D01*
X175347380Y-57491428D01*
%TO.C,C9*%
X164822142Y-113676666D02*
X164869761Y-113724285D01*
X164917380Y-113867142D01*
X164917380Y-113962380D01*
X164869761Y-114105238D01*
X164774523Y-114200476D01*
X164679285Y-114248095D01*
X164488809Y-114295714D01*
X164345952Y-114295714D01*
X164155476Y-114248095D01*
X164060238Y-114200476D01*
X163965000Y-114105238D01*
X163917380Y-113962380D01*
X163917380Y-113867142D01*
X163965000Y-113724285D01*
X164012619Y-113676666D01*
X164917380Y-113200476D02*
X164917380Y-113010000D01*
X164869761Y-112914761D01*
X164822142Y-112867142D01*
X164679285Y-112771904D01*
X164488809Y-112724285D01*
X164107857Y-112724285D01*
X164012619Y-112771904D01*
X163965000Y-112819523D01*
X163917380Y-112914761D01*
X163917380Y-113105238D01*
X163965000Y-113200476D01*
X164012619Y-113248095D01*
X164107857Y-113295714D01*
X164345952Y-113295714D01*
X164441190Y-113248095D01*
X164488809Y-113200476D01*
X164536428Y-113105238D01*
X164536428Y-112914761D01*
X164488809Y-112819523D01*
X164441190Y-112771904D01*
X164345952Y-112724285D01*
%TO.C,C8*%
X164652142Y-86046666D02*
X164699761Y-86094285D01*
X164747380Y-86237142D01*
X164747380Y-86332380D01*
X164699761Y-86475238D01*
X164604523Y-86570476D01*
X164509285Y-86618095D01*
X164318809Y-86665714D01*
X164175952Y-86665714D01*
X163985476Y-86618095D01*
X163890238Y-86570476D01*
X163795000Y-86475238D01*
X163747380Y-86332380D01*
X163747380Y-86237142D01*
X163795000Y-86094285D01*
X163842619Y-86046666D01*
X164175952Y-85475238D02*
X164128333Y-85570476D01*
X164080714Y-85618095D01*
X163985476Y-85665714D01*
X163937857Y-85665714D01*
X163842619Y-85618095D01*
X163795000Y-85570476D01*
X163747380Y-85475238D01*
X163747380Y-85284761D01*
X163795000Y-85189523D01*
X163842619Y-85141904D01*
X163937857Y-85094285D01*
X163985476Y-85094285D01*
X164080714Y-85141904D01*
X164128333Y-85189523D01*
X164175952Y-85284761D01*
X164175952Y-85475238D01*
X164223571Y-85570476D01*
X164271190Y-85618095D01*
X164366428Y-85665714D01*
X164556904Y-85665714D01*
X164652142Y-85618095D01*
X164699761Y-85570476D01*
X164747380Y-85475238D01*
X164747380Y-85284761D01*
X164699761Y-85189523D01*
X164652142Y-85141904D01*
X164556904Y-85094285D01*
X164366428Y-85094285D01*
X164271190Y-85141904D01*
X164223571Y-85189523D01*
X164175952Y-85284761D01*
%TO.C,C7*%
X164652142Y-58741666D02*
X164699761Y-58789285D01*
X164747380Y-58932142D01*
X164747380Y-59027380D01*
X164699761Y-59170238D01*
X164604523Y-59265476D01*
X164509285Y-59313095D01*
X164318809Y-59360714D01*
X164175952Y-59360714D01*
X163985476Y-59313095D01*
X163890238Y-59265476D01*
X163795000Y-59170238D01*
X163747380Y-59027380D01*
X163747380Y-58932142D01*
X163795000Y-58789285D01*
X163842619Y-58741666D01*
X163747380Y-58408333D02*
X163747380Y-57741666D01*
X164747380Y-58170238D01*
%TO.C,C6*%
X182602142Y-113831666D02*
X182649761Y-113879285D01*
X182697380Y-114022142D01*
X182697380Y-114117380D01*
X182649761Y-114260238D01*
X182554523Y-114355476D01*
X182459285Y-114403095D01*
X182268809Y-114450714D01*
X182125952Y-114450714D01*
X181935476Y-114403095D01*
X181840238Y-114355476D01*
X181745000Y-114260238D01*
X181697380Y-114117380D01*
X181697380Y-114022142D01*
X181745000Y-113879285D01*
X181792619Y-113831666D01*
X181697380Y-112974523D02*
X181697380Y-113165000D01*
X181745000Y-113260238D01*
X181792619Y-113307857D01*
X181935476Y-113403095D01*
X182125952Y-113450714D01*
X182506904Y-113450714D01*
X182602142Y-113403095D01*
X182649761Y-113355476D01*
X182697380Y-113260238D01*
X182697380Y-113069761D01*
X182649761Y-112974523D01*
X182602142Y-112926904D01*
X182506904Y-112879285D01*
X182268809Y-112879285D01*
X182173571Y-112926904D01*
X182125952Y-112974523D01*
X182078333Y-113069761D01*
X182078333Y-113260238D01*
X182125952Y-113355476D01*
X182173571Y-113403095D01*
X182268809Y-113450714D01*
%TO.C,C5*%
X182602142Y-85931666D02*
X182649761Y-85979285D01*
X182697380Y-86122142D01*
X182697380Y-86217380D01*
X182649761Y-86360238D01*
X182554523Y-86455476D01*
X182459285Y-86503095D01*
X182268809Y-86550714D01*
X182125952Y-86550714D01*
X181935476Y-86503095D01*
X181840238Y-86455476D01*
X181745000Y-86360238D01*
X181697380Y-86217380D01*
X181697380Y-86122142D01*
X181745000Y-85979285D01*
X181792619Y-85931666D01*
X181697380Y-85026904D02*
X181697380Y-85503095D01*
X182173571Y-85550714D01*
X182125952Y-85503095D01*
X182078333Y-85407857D01*
X182078333Y-85169761D01*
X182125952Y-85074523D01*
X182173571Y-85026904D01*
X182268809Y-84979285D01*
X182506904Y-84979285D01*
X182602142Y-85026904D01*
X182649761Y-85074523D01*
X182697380Y-85169761D01*
X182697380Y-85407857D01*
X182649761Y-85503095D01*
X182602142Y-85550714D01*
%TO.C,C4*%
X182602142Y-58546666D02*
X182649761Y-58594285D01*
X182697380Y-58737142D01*
X182697380Y-58832380D01*
X182649761Y-58975238D01*
X182554523Y-59070476D01*
X182459285Y-59118095D01*
X182268809Y-59165714D01*
X182125952Y-59165714D01*
X181935476Y-59118095D01*
X181840238Y-59070476D01*
X181745000Y-58975238D01*
X181697380Y-58832380D01*
X181697380Y-58737142D01*
X181745000Y-58594285D01*
X181792619Y-58546666D01*
X182030714Y-57689523D02*
X182697380Y-57689523D01*
X181649761Y-57927619D02*
X182364047Y-58165714D01*
X182364047Y-57546666D01*
%TO.C,C3*%
X188952142Y-113676666D02*
X188999761Y-113724285D01*
X189047380Y-113867142D01*
X189047380Y-113962380D01*
X188999761Y-114105238D01*
X188904523Y-114200476D01*
X188809285Y-114248095D01*
X188618809Y-114295714D01*
X188475952Y-114295714D01*
X188285476Y-114248095D01*
X188190238Y-114200476D01*
X188095000Y-114105238D01*
X188047380Y-113962380D01*
X188047380Y-113867142D01*
X188095000Y-113724285D01*
X188142619Y-113676666D01*
X188047380Y-113343333D02*
X188047380Y-112724285D01*
X188428333Y-113057619D01*
X188428333Y-112914761D01*
X188475952Y-112819523D01*
X188523571Y-112771904D01*
X188618809Y-112724285D01*
X188856904Y-112724285D01*
X188952142Y-112771904D01*
X188999761Y-112819523D01*
X189047380Y-112914761D01*
X189047380Y-113200476D01*
X188999761Y-113295714D01*
X188952142Y-113343333D01*
%TO.C,C2*%
X188782142Y-86046666D02*
X188829761Y-86094285D01*
X188877380Y-86237142D01*
X188877380Y-86332380D01*
X188829761Y-86475238D01*
X188734523Y-86570476D01*
X188639285Y-86618095D01*
X188448809Y-86665714D01*
X188305952Y-86665714D01*
X188115476Y-86618095D01*
X188020238Y-86570476D01*
X187925000Y-86475238D01*
X187877380Y-86332380D01*
X187877380Y-86237142D01*
X187925000Y-86094285D01*
X187972619Y-86046666D01*
X187972619Y-85665714D02*
X187925000Y-85618095D01*
X187877380Y-85522857D01*
X187877380Y-85284761D01*
X187925000Y-85189523D01*
X187972619Y-85141904D01*
X188067857Y-85094285D01*
X188163095Y-85094285D01*
X188305952Y-85141904D01*
X188877380Y-85713333D01*
X188877380Y-85094285D01*
%TO.C,C1*%
X188782142Y-58741666D02*
X188829761Y-58789285D01*
X188877380Y-58932142D01*
X188877380Y-59027380D01*
X188829761Y-59170238D01*
X188734523Y-59265476D01*
X188639285Y-59313095D01*
X188448809Y-59360714D01*
X188305952Y-59360714D01*
X188115476Y-59313095D01*
X188020238Y-59265476D01*
X187925000Y-59170238D01*
X187877380Y-59027380D01*
X187877380Y-58932142D01*
X187925000Y-58789285D01*
X187972619Y-58741666D01*
X188877380Y-57789285D02*
X188877380Y-58360714D01*
X188877380Y-58075000D02*
X187877380Y-58075000D01*
X188020238Y-58170238D01*
X188115476Y-58265476D01*
X188163095Y-58360714D01*
%TD*%
M02*
