%TF.GenerationSoftware,KiCad,Pcbnew,(5.1.6)-1*%
%TF.CreationDate,2020-12-16T20:34:39-05:00*%
%TF.ProjectId,EnvelopeGenerator,456e7665-6c6f-4706-9547-656e65726174,rev?*%
%TF.SameCoordinates,Original*%
%TF.FileFunction,Soldermask,Bot*%
%TF.FilePolarity,Negative*%
%FSLAX46Y46*%
G04 Gerber Fmt 4.6, Leading zero omitted, Abs format (unit mm)*
G04 Created by KiCad (PCBNEW (5.1.6)-1) date 2020-12-16 20:34:39*
%MOMM*%
%LPD*%
G01*
G04 APERTURE LIST*
%ADD10O,1.800000X1.800000*%
%ADD11R,1.800000X1.800000*%
%ADD12C,1.700000*%
%ADD13O,2.100000X2.005000*%
%ADD14R,2.100000X2.005000*%
%ADD15C,2.440000*%
%ADD16O,2.500000X1.700000*%
%ADD17R,2.500000X1.700000*%
%ADD18O,1.700000X2.500000*%
%ADD19R,1.700000X2.500000*%
%ADD20O,1.500000X1.500000*%
%ADD21C,1.500000*%
%ADD22O,2.500000X2.500000*%
%ADD23C,2.500000*%
%ADD24O,1.700000X1.700000*%
%ADD25R,1.700000X1.700000*%
G04 APERTURE END LIST*
D10*
%TO.C,J3*%
X173990000Y-104140000D03*
X173990000Y-106680000D03*
X173990000Y-109220000D03*
X173990000Y-111760000D03*
X173990000Y-114300000D03*
X173990000Y-116840000D03*
X173990000Y-119380000D03*
X173990000Y-121920000D03*
D11*
X173990000Y-124460000D03*
%TD*%
D12*
%TO.C,C12*%
X160020000Y-53420000D03*
X160020000Y-58420000D03*
%TD*%
D13*
%TO.C,U2*%
X146050000Y-123825000D03*
X146050000Y-126365000D03*
D14*
X146050000Y-128905000D03*
%TD*%
D13*
%TO.C,U1*%
X144145000Y-140335000D03*
X144145000Y-137795000D03*
D14*
X144145000Y-135255000D03*
%TD*%
D15*
%TO.C,RV4*%
X130810000Y-128985000D03*
X130810000Y-133985000D03*
X130810000Y-138985000D03*
%TD*%
%TO.C,RV3*%
X130810000Y-103585000D03*
X130810000Y-108585000D03*
X130810000Y-113585000D03*
%TD*%
%TO.C,RV2*%
X130810000Y-78185000D03*
X130810000Y-83185000D03*
X130810000Y-88185000D03*
%TD*%
%TO.C,RV1*%
X130810000Y-52785000D03*
X130810000Y-57785000D03*
X130810000Y-62785000D03*
%TD*%
D16*
%TO.C,U5*%
X154940000Y-97155000D03*
X147320000Y-112395000D03*
X154940000Y-99695000D03*
X147320000Y-109855000D03*
X154940000Y-102235000D03*
X147320000Y-107315000D03*
X154940000Y-104775000D03*
X147320000Y-104775000D03*
X154940000Y-107315000D03*
X147320000Y-102235000D03*
X154940000Y-109855000D03*
X147320000Y-99695000D03*
X154940000Y-112395000D03*
D17*
X147320000Y-97155000D03*
%TD*%
D18*
%TO.C,U4*%
X147320000Y-52070000D03*
X154940000Y-59690000D03*
X149860000Y-52070000D03*
X152400000Y-59690000D03*
X152400000Y-52070000D03*
X149860000Y-59690000D03*
X154940000Y-52070000D03*
D19*
X147320000Y-59690000D03*
%TD*%
D16*
%TO.C,U3*%
X147320000Y-89535000D03*
X154940000Y-71755000D03*
X147320000Y-86995000D03*
X154940000Y-74295000D03*
X147320000Y-84455000D03*
X154940000Y-76835000D03*
X147320000Y-81915000D03*
X154940000Y-79375000D03*
X147320000Y-79375000D03*
X154940000Y-81915000D03*
X147320000Y-76835000D03*
X154940000Y-84455000D03*
X147320000Y-74295000D03*
X154940000Y-86995000D03*
X147320000Y-71755000D03*
D17*
X154940000Y-89535000D03*
%TD*%
D20*
%TO.C,R19*%
X142240000Y-109855000D03*
D21*
X142240000Y-104775000D03*
%TD*%
D20*
%TO.C,R18*%
X163830000Y-107315000D03*
D21*
X163830000Y-112395000D03*
%TD*%
D20*
%TO.C,R17*%
X168275000Y-112395000D03*
D21*
X168275000Y-107315000D03*
%TD*%
D20*
%TO.C,R16*%
X160655000Y-112395000D03*
D21*
X160655000Y-107315000D03*
%TD*%
D20*
%TO.C,R15*%
X160655000Y-98425000D03*
D21*
X160655000Y-103505000D03*
%TD*%
D20*
%TO.C,R14*%
X148590000Y-93345000D03*
D21*
X153670000Y-93345000D03*
%TD*%
D22*
%TO.C,R13*%
X167640000Y-71755000D03*
D23*
X162560000Y-71755000D03*
%TD*%
D20*
%TO.C,R12*%
X166370000Y-76835000D03*
D21*
X161290000Y-76835000D03*
%TD*%
D20*
%TO.C,R11*%
X166370000Y-88265000D03*
D21*
X161290000Y-88265000D03*
%TD*%
D20*
%TO.C,R10*%
X135890000Y-140335000D03*
D21*
X135890000Y-135255000D03*
%TD*%
D20*
%TO.C,R9*%
X135890000Y-114935000D03*
D21*
X135890000Y-109855000D03*
%TD*%
D20*
%TO.C,R8*%
X135890000Y-89535000D03*
D21*
X135890000Y-84455000D03*
%TD*%
D20*
%TO.C,R7*%
X135890000Y-64135000D03*
D21*
X135890000Y-59055000D03*
%TD*%
D20*
%TO.C,R6*%
X161290000Y-84455000D03*
D21*
X166370000Y-84455000D03*
%TD*%
D20*
%TO.C,R5*%
X167640000Y-62230000D03*
D21*
X167640000Y-67310000D03*
%TD*%
D20*
%TO.C,R4*%
X135890000Y-127635000D03*
D21*
X135890000Y-132715000D03*
%TD*%
D20*
%TO.C,R3*%
X135890000Y-102235000D03*
D21*
X135890000Y-107315000D03*
%TD*%
D20*
%TO.C,R2*%
X135890000Y-76835000D03*
D21*
X135890000Y-81915000D03*
%TD*%
D20*
%TO.C,R1*%
X135890000Y-51435000D03*
D21*
X135890000Y-56515000D03*
%TD*%
D10*
%TO.C,J2*%
X173990000Y-88900000D03*
X173990000Y-91440000D03*
D11*
X173990000Y-93980000D03*
%TD*%
D10*
%TO.C,J1*%
X173990000Y-74930000D03*
D11*
X173990000Y-77470000D03*
%TD*%
D24*
%TO.C,D6*%
X142240000Y-59690000D03*
D25*
X142240000Y-52070000D03*
%TD*%
D24*
%TO.C,D5*%
X153670000Y-122555000D03*
D25*
X153670000Y-130175000D03*
%TD*%
D24*
%TO.C,D4*%
X149860000Y-141605000D03*
D25*
X149860000Y-133985000D03*
%TD*%
D24*
%TO.C,D3*%
X149860000Y-130175000D03*
D25*
X149860000Y-122555000D03*
%TD*%
D24*
%TO.C,D2*%
X153670000Y-141605000D03*
D25*
X153670000Y-133985000D03*
%TD*%
D24*
%TO.C,D1*%
X163830000Y-98425000D03*
D25*
X163830000Y-90805000D03*
%TD*%
D12*
%TO.C,C11*%
X153670000Y-117475000D03*
X148670000Y-117475000D03*
%TD*%
%TO.C,C10*%
X173910000Y-84455000D03*
X168910000Y-84455000D03*
%TD*%
%TO.C,C9*%
X173990000Y-99060000D03*
X168990000Y-99060000D03*
%TD*%
%TO.C,C8*%
X153590000Y-67945000D03*
X148590000Y-67945000D03*
%TD*%
%TO.C,C7*%
X157480000Y-128825000D03*
X157480000Y-123825000D03*
%TD*%
%TO.C,C6*%
X157480000Y-140335000D03*
X157480000Y-135335000D03*
%TD*%
%TO.C,C5*%
X160020000Y-119705000D03*
D25*
X160020000Y-116205000D03*
%TD*%
D12*
%TO.C,C4*%
X164465000Y-135890000D03*
D25*
X164465000Y-139390000D03*
%TD*%
D12*
%TO.C,C3*%
X166290000Y-80645000D03*
X161290000Y-80645000D03*
%TD*%
%TO.C,C2*%
X172085000Y-130485000D03*
D25*
X172085000Y-133985000D03*
%TD*%
D12*
%TO.C,C1*%
X164465000Y-124460000D03*
D25*
X164465000Y-127960000D03*
%TD*%
M02*
