M48
; DRILL file {KiCad (5.1.6)-1} date 01/30/21 08:40:15
; FORMAT={-:-/ absolute / inch / decimal}
; #@! TF.CreationDate,2021-01-30T08:40:15-05:00
; #@! TF.GenerationSoftware,Kicad,Pcbnew,(5.1.6)-1
; #@! TF.FileFunction,Plated,1,2,PTH
FMAT,2
INCH
T1C0.0157
T2C0.0276
T3C0.0295
T4C0.0315
T5C0.0394
T6C0.0512
%
G90
G05
T1
X5.35Y-3.3
T2
X5.75Y-4.1
X5.95Y-4.1
X5.75Y-3.95
X5.95Y-3.95
X6.1Y-4.15
X6.3Y-4.15
X5.75Y-4.25
X5.95Y-4.25
X6.1Y-3.95
X6.3Y-3.95
X4.95Y-3.2
X5.15Y-3.2
X6.0992Y-3.85
X6.2992Y-3.85
X4.4Y-3.6
X4.6Y-3.6
X6.1Y-4.05
X6.3Y-4.05
X6.1Y-3.75
X6.3Y-3.75
X4.95Y-3.475
X5.15Y-3.475
X5.75Y-3.8
X5.95Y-3.8
X4.95Y-3.3465
X5.15Y-3.3465
X5.75Y-3.65
X5.95Y-3.65
T3
X5.25Y-3.75
X5.3Y-3.75
X5.35Y-3.75
X5.25Y-4.05
X5.3Y-4.05
X5.35Y-4.05
X5.5Y-3.9
X5.55Y-3.9
X5.6Y-3.9
X5.5Y-3.6
X5.55Y-3.6
X5.6Y-3.6
X5.5Y-4.2
X5.55Y-4.2
X5.6Y-4.2
T4
X4.9031Y-3.9
X5.1Y-3.9
X4.9031Y-3.75
X5.1Y-3.75
X4.4Y-4.2
X4.5969Y-4.2
X6.0372Y-3.3
X6.175Y-3.3
X4.4Y-3.15
X4.4Y-3.45
X4.5Y-3.15
X4.5Y-3.45
X4.6Y-3.15
X4.6Y-3.45
X4.7Y-3.15
X4.7Y-3.45
X5.6622Y-3.3
X5.8Y-3.3
X4.4Y-3.75
X4.4Y-4.05
X4.5Y-3.75
X4.5Y-4.05
X4.6Y-3.75
X4.6Y-4.05
X4.7Y-3.75
X4.7Y-4.05
X4.9031Y-4.2
X5.1Y-4.2
X4.85Y-3.2031
X4.85Y-3.4
X4.9031Y-4.05
X5.1Y-4.05
X4.9031Y-3.6
X5.1Y-3.6
X6.1Y-3.625
X6.2969Y-3.625
T5
X6.4961Y-3.35
X6.4961Y-3.45
X6.4961Y-3.55
X6.4961Y-3.65
X6.4961Y-3.75
X6.4961Y-3.85
X6.4961Y-3.95
X6.4961Y-4.05
X6.4961Y-4.15
T6
X4.15Y-3.5281
X4.15Y-3.725
X4.15Y-3.9219
T0
M30
